<?xml version="1.0" standalone="no"?>
<!DOCTYPE svg PUBLIC "-//W3C//DTD SVG 1.1//EN" "http://www.w3.org/Graphics/SVG/1.1/DTD/svg11.dtd" >
<svg xmlns="http://www.w3.org/2000/svg">
<metadata>
Created by FontPrep 20130207 at Wed Jan 24 18:34:54 2018
 By Ahmed Ghazi
Copyright (c) 2015 by The Entente (AS&#38;EH). All rights reserved.
</metadata>
<defs>
<font id="b40c8faa0546b0e86131f951cd9b2489" horiz-adv-x='1024' >
  <font-face 
    font-family="BasisGrotesque-Regular"
    font-weight="400"
    font-stretch="normal"
    units-per-em="2048"
    panose-1="2 0 5 3 3 0 0 2 0 4"
    ascent="1638"
    descent="-410"
    x-height="1016"
    cap-height="1434"
    bbox="-59 -446.013 2267 1913"
    underline-thickness="102"
    underline-position="-102"
    unicode-range="U+000D-FB04"
  />
<missing-glyph horiz-adv-x="1024" 
 />
    <glyph glyph-name="ff" unicode="ff" horiz-adv-x="1187" 
d="M367 889v-889h-160v889h-160v127h160v203q0 145 82 231t231 86q57 0 98 -14l-24 -136q-31 10 -68 11q-160 0 -159 -180v-201h381v203q0 145 81 231q82 86 232 86q57 0 98 -14l-24 -136q-31 10 -68 11q-160 0 -160 -180v-201h234v-127h-234v-889h-159v889h-381z" />
    <glyph glyph-name="fi" unicode="fi" horiz-adv-x="1089" 
d="M758 1192v201h192v-201h-192zM774 0v889h-407v-889h-160v889h-160v127h160v203q0 145 82 231t231 86q57 0 98 -14l-24 -136q-31 10 -68 11q-160 0 -159 -180v-201h567v-1016h-160z" />
    <glyph glyph-name="fl" unicode="fl" horiz-adv-x="1089" 
d="M774 0v1434h160v-1434h-160zM47 889v127h160v203q0 145 82 231t231 86q57 0 98 -14l-24 -136q-31 10 -68 11q-160 0 -159 -180v-201h233v-127h-233v-889h-160v889h-160z" />
    <glyph glyph-name="f_f_i" unicode="ffi" horiz-adv-x="1630" 
d="M1298 1192v201h193v-201h-193zM1315 0v889h-408v-889h-159v889h-381v-889h-160v889h-160v127h160v203q0 145 82 231t231 86q57 0 98 -14l-24 -136q-31 10 -68 11q-160 0 -159 -180v-201h381v194q0 152 85 239t240 87q51 0 92 -14l-24 -136q-31 10 -68 11
q-166 0 -166 -191v-190h568v-1016h-160z" />
    <glyph glyph-name="f_f_l" unicode="ffl" horiz-adv-x="1630" 
d="M1315 0v1434h160v-1434h-160zM367 889v-889h-160v889h-160v127h160v203q0 145 82 231t231 86q57 0 98 -14l-24 -136q-31 10 -68 11q-160 0 -159 -180v-201h381v203q0 145 81 231q82 86 232 86q57 0 98 -14l-24 -136q-31 10 -68 11q-160 0 -160 -180v-201h234v-127h-234
v-889h-159v889h-381z" />
    <glyph glyph-name="f_j" unicode="fj" horiz-adv-x="1089" 
d="M758 1192v201h192v-201h-192zM774 889h-407v-889h-160v889h-160v127h160v203q0 145 82 231t231 86q57 0 98 -14l-24 -136q-31 10 -68 11q-160 0 -159 -180v-201h567v-1135q0 -313 -277 -313q-39 0 -98 16l21 144q38 -16 90 -16q105 -1 104 145v1032z" />
    <glyph glyph-name="f_f_j" unicode="ffj" horiz-adv-x="1630" 
d="M1298 1192v201h193v-201h-193zM1315 -145v1034h-408v-889h-159v889h-381v-889h-160v889h-160v127h160v203q0 145 82 231t231 86q57 0 98 -14l-24 -136q-31 10 -68 11q-160 0 -159 -180v-201h381v203q0 145 81 231q82 86 232 86q57 0 98 -14l-24 -136q-31 10 -68 11
q-160 0 -160 -180v-201h568v-1135q0 -313 -277 -313q-39 0 -98 16l20 144q39 -16 91 -16t78 32q26 33 26 111z" />
    <glyph glyph-name=".notdef" horiz-adv-x="1024" 
 />
    <glyph glyph-name=".null" horiz-adv-x="0" 
 />
    <glyph glyph-name="nonmarkingreturn" horiz-adv-x="681" 
 />
    <glyph glyph-name="NULL" horiz-adv-x="0" 
 />
    <glyph glyph-name="NULL" horiz-adv-x="0" 
 />
    <glyph glyph-name="CR" unicode="&#xd;" horiz-adv-x="591" 
 />
    <glyph glyph-name="space" unicode=" " horiz-adv-x="565" 
 />
    <glyph glyph-name="exclam" unicode="!" horiz-adv-x="548" 
d="M180 0v205h189v-205h-189zM188 1434h172v-457l-22 -592h-127l-23 592v457z" />
    <glyph glyph-name="quotedbl" unicode="&#x22;" horiz-adv-x="704" 
d="M414 1434h164v-115l-27 -320h-111l-26 320v115zM127 1434h164v-115l-27 -320h-110l-27 320v115z" />
    <glyph glyph-name="numbersign" unicode="#" horiz-adv-x="1349" 
d="M545 852l-51 -270h325l51 270h-325zM1249 979v-127h-223l-51 -270h233v-127h-256l-86 -455h-155l86 455h-326l-84 -455h-156l84 455h-204v127h227l51 270h-237v127h260l86 455h155l-86 -455h326l84 455h156l-84 -455h200z" />
    <glyph glyph-name="dollar" unicode="$" horiz-adv-x="1341" 
d="M348 1083q0 -168 256 -243v471q-116 -14 -186 -75t-70 -153zM1038 388q0 103 -69 163q-70 59 -217 96v-520q133 14 210 86q76 72 76 175zM604 -205v180q-205 21 -336 143t-159 298l151 80q25 -162 115 -254t229 -113v549q-420 92 -420 405q0 152 116 255t304 120v180h148
v-182q160 -18 276 -107t162 -231l-139 -82q-39 111 -117 181t-182 92v-504q231 -43 345 -141q113 -98 113 -266t-127 -286t-331 -137v-180h-148z" />
    <glyph glyph-name="percent" unicode="%" horiz-adv-x="1812" 
d="M1145 330q0 -104 58 -168q59 -64 155 -64t154 64t58 168t-58 168t-154 63q-96 0 -155 -63q-58 -64 -58 -168zM1010 330q0 152 98 255t250 103t250 -103t98 -255t-98 -255t-250 -103t-250 102q-98 104 -98 256zM242 1104q0 -104 58 -168t154 -64t155 64t59 168t-58 168
t-155 63q-96 0 -155 -63q-58 -64 -58 -168zM106 1104q0 152 98 255t251 103q152 0 250 -103t98 -255t-98 -255t-250 -103q-153 0 -251 102q-98 104 -98 256zM514 0l-106 72l890 1362l107 -72z" />
    <glyph glyph-name="ampersand" unicode="&#x26;" horiz-adv-x="1310" 
d="M457 1139q0 -123 82 -234q158 74 213 129t55 130t-50 119t-125 44t-125 -53t-50 -135zM586 115q156 0 274 123l-371 487q-201 -137 -200 -326q0 -129 88 -207t209 -77zM587 -29q-211 0 -337 123t-125 307q0 264 281 435q-100 140 -100 290t96 243t238 93t228 -77t86 -207
q0 -196 -234 -326q-36 -20 -99 -53l329 -437q72 131 105 312l133 -74q-51 -217 -144 -362l181 -238h-185l-92 121q-150 -150 -361 -150z" />
    <glyph glyph-name="quotesingle" unicode="'" horiz-adv-x="417" 
d="M127 1434h164v-115l-27 -320h-110l-27 320v115z" />
    <glyph glyph-name="parenleft" unicode="(" horiz-adv-x="716" 
d="M156 566q0 496 217 868h155q-201 -380 -201 -868t201 -869h-155q-217 373 -217 869z" />
    <glyph glyph-name="parenright" unicode=")" horiz-adv-x="716" 
d="M389 565q0 487 -201 869h156q217 -372 217 -868t-217 -869h-156q201 381 201 868z" />
    <glyph glyph-name="asterisk" unicode="*" horiz-adv-x="888" 
d="M365 770l32 254l-209 -147l-73 139l227 86l-227 86l73 139l209 -147l-32 254h159l-32 -254l208 147l74 -139l-227 -86l227 -86l-74 -139l-208 147l32 -254h-159z" />
    <glyph glyph-name="plus" unicode="+" horiz-adv-x="1036" 
d="M98 684v127h357v356h127v-356h356v-127h-356v-356h-127v356h-357z" />
    <glyph glyph-name="comma" unicode="," horiz-adv-x="389" 
d="M98 0v201h193v-201l-144 -260l-49 18l68 242h-68z" />
    <glyph glyph-name="hyphen" unicode="-" horiz-adv-x="933" 
d="M98 573v127h738v-127h-738z" />
    <glyph glyph-name="period" unicode="." horiz-adv-x="389" 
d="M98 0v201h193v-201h-193z" />
    <glyph glyph-name="slash" unicode="/" horiz-adv-x="1015" 
d="M12 -61l819 1556h173l-820 -1556h-172z" />
    <glyph glyph-name="zero" unicode="0" horiz-adv-x="1466" 
d="M733 123q201 0 326 160t125 434t-125 434t-326 160t-325 -160t-125 -434q1 -274 125 -434t325 -160zM1356 717q0 -332 -174 -539t-448 -207t-449 207q-174 207 -174 539q0 333 174 539t448 206q275 0 449 -206t174 -539z" />
    <glyph glyph-name="one" unicode="1" horiz-adv-x="749" 
d="M113 1106v147q117 0 187 43t122 138h156v-1434h-172v1202q-57 -56 -124 -76t-169 -20z" />
    <glyph glyph-name="two" unicode="2" horiz-adv-x="1198" 
d="M868 1054q0 110 -83 188q-83 77 -209 77t-208 -80t-81 -207q0 -49 16 -92l-151 -25q-25 63 -25 136q0 163 128 287t329 124q200 0 326 -112t126 -285q0 -129 -56 -245t-198 -257l-409 -411h669v-152h-925v113l553 555q114 112 156 194t42 192z" />
    <glyph glyph-name="three" unicode="3" horiz-adv-x="1208" 
d="M295 391q0 -117 90 -193t230 -75q140 0 224 77q83 77 83 219t-110 212t-290 69v140q176 0 255 72t79 178t-75 167t-189 61t-191 -65q-78 -66 -77 -170q0 -35 10 -61l-148 -23q-16 49 -16 105q0 150 121 254t309 104t306 -98t118 -248q0 -109 -61 -201t-179 -129
q138 -35 224 -127t86 -231q0 -209 -138 -333t-351 -124q-212 0 -347 124t-135 284q-1 70 22 121l158 -39q-8 -29 -8 -70z" />
    <glyph glyph-name="four" unicode="4" horiz-adv-x="1212" 
d="M807 438v746l-524 -746h524zM100 287v151l707 996h172v-996h162v-151h-162v-287h-172v287h-707z" />
    <glyph glyph-name="five" unicode="5" horiz-adv-x="1222" 
d="M1020 1434v-152h-686l-41 -483q59 86 152 133t196 47q219 0 345 -138q126 -139 126 -361t-142 -365t-364 -143t-353 110q-132 111 -132 272q0 59 18 103l158 -37q-8 -29 -8 -58q0 -117 86 -178q87 -61 231 -61t239 95t95 261t-93 261q-93 96 -221 96t-218 -62t-140 -153
l-139 38l68 775h823z" />
    <glyph glyph-name="six" unicode="6" horiz-adv-x="1243" 
d="M637 786q-137 0 -235 -90t-99 -242q0 -152 98 -241q97 -90 235 -90t235 90t98 242q1 151 -97 241t-235 90zM674 938q199 0 333 -135t134 -340q-1 -205 -145 -348t-372 -143t-371 174q-142 175 -142 487q0 258 84 471q68 170 192 264q125 94 297 94t286 -94t113 -248
q0 -51 -18 -104l-162 33q16 43 17 73q0 84 -68 136t-184 53q-166 0 -270 -165t-113 -433q59 105 165 165t224 60z" />
    <glyph glyph-name="seven" unicode="7" horiz-adv-x="1103" 
d="M88 1282v152h926v-140l-580 -1294h-168l574 1282h-752z" />
    <glyph glyph-name="eight" unicode="8" horiz-adv-x="1187" 
d="M319 1081q0 -117 78 -185t197 -69q119 0 197 69q77 70 77 186t-80 183t-194 67t-195 -68q-80 -66 -80 -183zM594 111q139 1 225 81t86 210t-91 212t-220 82t-220 -82t-91 -212t86 -210t225 -81zM594 -29q-207 0 -343 118t-136 308q0 125 64 220q65 95 173 151
q-90 49 -141 135t-51 189q0 162 125 266t309 104t309 -104t125 -266q0 -102 -51 -188t-141 -136q110 -54 174 -150t63 -221q0 -190 -136 -308t-343 -118z" />
    <glyph glyph-name="nine" unicode="9" horiz-adv-x="1243" 
d="M614 647q133 0 229 91q95 91 95 241t-95 241t-229 91t-226 -91q-93 -91 -93 -241t93 -241t226 -91zM332 311q0 -80 68 -134t194 -54q365 0 364 600q-45 -103 -147 -165t-213 -62q-203 0 -339 135t-136 339t139 348t356 144q260 0 396 -192q117 -168 116 -436
q0 -340 -65 -514t-186 -262q-121 -87 -294 -87q-173 -1 -295 95t-122 247q0 62 18 105l162 -33q-16 -43 -16 -74z" />
    <glyph glyph-name="colon" unicode=":" horiz-adv-x="389" 
d="M98 774v201h193v-201h-193zM98 0v201h193v-201h-193z" />
    <glyph glyph-name="semicolon" unicode=";" horiz-adv-x="389" 
d="M98 774v201h193v-201h-193zM98 0v201h193v-201l-144 -260l-49 18l68 242h-68z" />
    <glyph glyph-name="less" unicode="&#x3c;" horiz-adv-x="1058" 
d="M98 557v156l840 411v-163l-684 -326l684 -326v-164z" />
    <glyph glyph-name="equal" unicode="=" horiz-adv-x="1036" 
d="M98 848v127h840v-127h-840zM98 459v127h840v-127h-840z" />
    <glyph glyph-name="greater" unicode="&#x3e;" horiz-adv-x="1058" 
d="M961 713v-156l-840 -412v164l684 326l-684 326v163z" />
    <glyph glyph-name="question" unicode="?" horiz-adv-x="1097" 
d="M436 0v205h189v-205h-189zM616 399h-176v45q0 145 189 304q115 96 153 162t37 169q0 102 -77 171q-78 69 -198 69t-199 -69t-79 -199q0 -41 10 -86l-149 -27q-25 57 -25 141q0 154 125 269q125 114 322 114t317 -106t121 -271q0 -129 -55 -222t-201 -216
q-63 -55 -89 -109t-26 -139z" />
    <glyph glyph-name="at" unicode="@" horiz-adv-x="1943" 
d="M848 190q147 0 257 159t109 364q0 129 -57 193t-156 65q-145 0 -255 -131t-109 -353q1 -153 63 -225t148 -72zM1014 1462q331 0 562 -182q114 -90 180 -240t65 -342q-1 -278 -147 -460t-349 -183q-82 0 -127 41t-45 119q0 25 2 37l4 24q-41 -96 -134 -158t-196 -63
q-151 0 -249 115t-99 309q0 293 156 460q157 167 353 167t255 -168l21 135h147l-113 -774q-2 -16 -2 -33q0 -76 74 -76q109 0 205 134t96 364q0 289 -179 464q-180 175 -490 175t-528 -222t-218 -554q0 -177 56 -319t152 -230q193 -178 474 -178q215 -1 371 110l73 -118
q-98 -68 -204 -98t-258 -30t-290 51q-319 115 -449 422q-73 171 -72 390q0 383 256 647t647 264z" />
    <glyph glyph-name="A" unicode="A" horiz-adv-x="1343" 
d="M629 1124l-219 -557h522l-217 557q-29 74 -43 119zM12 0l570 1434h180l569 -1434h-176l-166 424h-635l-166 -424h-176z" />
    <glyph glyph-name="B" unicode="B" horiz-adv-x="1320" 
d="M352 1290v-459h340q135 1 217 57t82 173t-82 173t-217 56h-340zM352 688v-545h330q162 0 261 66t99 207t-99 207t-261 65h-330zM180 0v1434h525q203 0 327 -98t123 -249q0 -225 -250 -315q141 -47 221 -132t80 -228q0 -184 -145 -298t-352 -114h-529z" />
    <glyph glyph-name="C" unicode="C" horiz-adv-x="1531" 
d="M805 -29q-297 0 -494 212q-197 211 -197 531t205 534t496 214q209 0 366 -99t232 -269l-133 -95q-147 311 -469 312q-219 0 -370 -171t-151 -425t145 -423q144 -169 374 -169q161 1 275 73t198 236l129 -94q-195 -367 -606 -367z" />
    <glyph glyph-name="D" unicode="D" horiz-adv-x="1419" 
d="M565 152q260 0 412 141t151 424q0 283 -151 424q-152 141 -412 141h-213v-1130h213zM180 0v1434h395q326 0 528 -190t202 -527t-202 -527t-528 -190h-395z" />
    <glyph glyph-name="E" unicode="E" horiz-adv-x="1222" 
d="M180 0v1434h897v-152h-725v-465h668v-151h-668v-514h731v-152h-903z" />
    <glyph glyph-name="F" unicode="F" horiz-adv-x="1220" 
d="M180 0v1434h918v-152h-746v-506h684v-151h-684v-625h-172z" />
    <glyph glyph-name="G" unicode="G" horiz-adv-x="1568" 
d="M797 -29q-301 0 -492 211q-190 212 -190 532t206 534t494 214q205 0 360 -93t238 -255l-131 -94q-90 156 -204 224t-265 67q-215 0 -369 -168t-154 -429t141 -426q140 -165 372 -165q195 0 307 121t141 331h-503v144h675v-719h-118l-50 248q-63 -127 -180 -202t-278 -75z
" />
    <glyph glyph-name="H" unicode="H" horiz-adv-x="1413" 
d="M180 0v1434h172v-627h709v627h172v-1434h-172v655h-709v-655h-172z" />
    <glyph glyph-name="I" unicode="I" horiz-adv-x="532" 
d="M180 0v1434h172v-1434h-172z" />
    <glyph glyph-name="J" unicode="J" horiz-adv-x="1099" 
d="M965 1434v-1028q0 -197 -116 -316q-117 -119 -309 -119q-192 1 -314 107t-122 321l172 -18q4 -135 78 -197t187 -61q113 0 183 75t69 210v1026h172z" />
    <glyph glyph-name="K" unicode="K" horiz-adv-x="1267" 
d="M180 0v1434h172v-654l119 131l496 523h215l-500 -531l541 -903h-201l-463 774l-207 -219v-555h-172z" />
    <glyph glyph-name="L" unicode="L" horiz-adv-x="1173" 
d="M180 0v1434h172v-1282h719v-152h-891z" />
    <glyph glyph-name="M" unicode="M" horiz-adv-x="1761" 
d="M180 0v1434h185l516 -1291l516 1291h184v-1434h-164v1106l-74 -201l-374 -905h-176l-375 905q-61 164 -74 201v-1106h-164z" />
    <glyph glyph-name="N" unicode="N" horiz-adv-x="1449" 
d="M180 0v1434h182l682 -1080q49 -82 62 -112v1192h164v-1434h-183l-681 1079q-49 82 -62 113v-1192h-164z" />
    <glyph glyph-name="O" unicode="O" horiz-adv-x="1613" 
d="M807 123q223 0 370 165q146 165 146 429t-146 429q-145 165 -369 165t-370 -165t-147 -429q1 -264 147 -429t369 -165zM1499 717q0 -330 -199 -538q-200 -208 -494 -208t-493 208t-198 538q1 329 199 537t493 208t493 -208t199 -537z" />
    <glyph glyph-name="P" unicode="P" horiz-adv-x="1388" 
d="M352 1282v-590h422q158 0 245 75t87 220t-87 220t-245 75h-422zM180 0v1434h602q228 0 362 -122t134 -325t-134 -325t-362 -121h-430v-541h-172z" />
    <glyph glyph-name="Q" unicode="Q" horiz-adv-x="1613" 
d="M807 123q223 0 370 165q146 165 146 429t-146 429q-145 165 -369 165t-370 -165t-147 -429q1 -264 147 -429t369 -165zM807 -29q-295 0 -494 208t-198 538q1 329 199 537t493 208t493 -208t199 -537q0 -252 -121 -436t-319 -263q70 -106 168 -204l-127 -111
q-131 131 -215 274q-41 -6 -78 -6z" />
    <glyph glyph-name="R" unicode="R" horiz-adv-x="1310" 
d="M352 1282v-508h369q155 0 237 66t82 188t-83 189q-83 66 -236 65h-369zM352 623v-623h-172v1434h572q208 0 334 -115t126 -278t-94 -269t-256 -139l359 -633h-193l-352 623h-324z" />
    <glyph glyph-name="S" unicode="S" horiz-adv-x="1329" 
d="M656 1315q-138 1 -225 -59t-87 -165t95 -171t296 -103q463 -86 463 -418q0 -182 -144 -305t-377 -123t-383 126t-185 319l151 80q29 -184 139 -279q111 -94 276 -94t258 77q93 76 93 192t-93 184t-286 102q-471 84 -471 412q0 164 135 268t333 104t336 -93t194 -251
l-140 -82q-45 133 -143 206q-97 73 -235 73z" />
    <glyph glyph-name="T" unicode="T" horiz-adv-x="1142" 
d="M39 1282v152h1065v-152h-447v-1282h-172v1282h-446z" />
    <glyph glyph-name="U" unicode="U" horiz-adv-x="1372" 
d="M1217 1434v-953q-1 -237 -147 -373t-384 -136t-384 136t-146 373v953h172v-963q0 -150 94 -249t264 -99t264 99t94 249v963h173z" />
    <glyph glyph-name="V" unicode="V" horiz-adv-x="1245" 
d="M532 0l-528 1434h172l393 -1084q31 -94 54 -170l53 170l393 1084h172l-528 -1434h-181z" />
    <glyph glyph-name="W" unicode="W" horiz-adv-x="1826" 
d="M414 0l-404 1434h170l291 -1080q23 -98 35 -149l35 151l280 1078h185l280 -1078q25 -100 35 -151l35 149l291 1080h170l-404 -1434h-178l-322 1221l-321 -1221h-178z" />
    <glyph glyph-name="X" unicode="X" horiz-adv-x="1181" 
d="M276 1434l314 -529l325 529h191l-414 -654l482 -780h-195l-389 635l-387 -635h-197l486 770l-414 664h198z" />
    <glyph glyph-name="Y" unicode="Y" horiz-adv-x="1130" 
d="M479 0v588l-471 846h187l325 -607q27 -51 45 -100l45 100l326 607h186l-471 -846v-588h-172z" />
    <glyph glyph-name="Z" unicode="Z" horiz-adv-x="1224" 
d="M117 1282v152h981v-152l-819 -1130h854v-152h-1047v147l825 1135h-794z" />
    <glyph glyph-name="bracketleft" unicode="[" horiz-adv-x="661" 
d="M180 -307v1741h371v-144h-211v-1454h211v-143h-371z" />
    <glyph glyph-name="backslash" unicode="\" horiz-adv-x="1015" 
d="M184 1495l820 -1556h-173l-819 1556h172z" />
    <glyph glyph-name="bracketright" unicode="]" horiz-adv-x="661" 
d="M481 1434v-1741h-370v143h211v1454h-211v144h370z" />
    <glyph glyph-name="asciicircum" unicode="^" horiz-adv-x="933" 
d="M381 1434h172l338 -523h-162l-262 404l-262 -404h-162z" />
    <glyph glyph-name="underscore" unicode="_" horiz-adv-x="894" 
d="M16 -141v127h863v-127h-863z" />
    <glyph glyph-name="grave" unicode="`" horiz-adv-x="608" 
d="M348 1434l131 -283h-145l-205 283h219z" />
    <glyph glyph-name="a" unicode="a" horiz-adv-x="1112" 
d="M467 115q154 -1 241 115t87 280v31l-310 -54q-104 -18 -159 -69q-56 -51 -56 -130t54 -126t143 -47zM795 713q0 197 -240 196q-115 0 -177 -45t-63 -112q0 -14 4 -31l-139 -47q-16 39 -16 82q0 120 108 204t294 84t287 -87t101 -244v-459q0 -88 12 -140t50 -114h-160
q-61 74 -61 201q-97 -229 -365 -229q-135 0 -229 86q-95 86 -95 224t98 222t253 108l338 56v45z" />
    <glyph glyph-name="b" unicode="b" horiz-adv-x="1243" 
d="M647 119q147 0 247 107q99 108 99 282t-99 282q-98 108 -246 108t-247 -108q-98 -108 -98 -282t98 -282q99 -107 246 -107zM156 0v1434h159v-603q57 97 157 155t216 58q201 0 335 -152t134 -384q0 -233 -138 -385t-349 -152q-117 -1 -212 59t-143 152v-182h-159z" />
    <glyph glyph-name="c" unicode="c" horiz-adv-x="1140" 
d="M606 -29q-220 0 -370 152t-150 384t153 385t367 152q162 0 279 -74t172 -204l-121 -80q-100 215 -328 215q-156 1 -259 -107t-103 -286t101 -286t261 -107q121 0 201 56t139 167l115 -74q-147 -293 -457 -293z" />
    <glyph glyph-name="d" unicode="d" horiz-adv-x="1243" 
d="M596 119q147 0 246 107q98 108 98 282t-98 282t-246 108t-247 -108t-99 -282t99 -282q100 -107 247 -107zM1087 1434v-1434h-159v182q-121 -211 -342 -211t-361 151q-139 151 -139 383t143 386t338 153q125 0 219 -56t142 -157v603h159z" />
    <glyph glyph-name="e" unicode="e" horiz-adv-x="1175" 
d="M592 909q-129 0 -217 -81t-117 -216h668q-8 137 -106 217t-228 80zM1085 481h-839q8 -164 102 -269q94 -106 236 -106t220 60q79 60 134 172l117 -70q-150 -297 -465 -297q-211 0 -358 153q-146 153 -146 384t147 384q147 152 367 152t353 -141q132 -141 132 -366v-56z
" />
    <glyph glyph-name="f" unicode="f" horiz-adv-x="647" 
d="M47 889v127h160v203q0 145 82 231t231 86q57 0 98 -14l-24 -136q-31 10 -68 11q-160 0 -159 -180v-201h233v-127h-233v-889h-160v889h-160z" />
    <glyph glyph-name="g" unicode="g" horiz-adv-x="1202" 
d="M580 901q-146 0 -238 -100q-92 -101 -92 -271t92 -270t238 -100t240 100q95 100 95 270t-95 270t-240 101zM301 -158q0 -68 72 -106t205 -39q326 0 325 354v174q-51 -98 -140 -153t-202 -56q-203 0 -339 142t-136 376t135 372t334 138q121 0 214 -56t134 -154v182h160
v-963q0 -235 -127 -367t-348 -132t-334 80t-113 214q0 64 23 105l151 -43q-14 -31 -14 -68z" />
    <glyph glyph-name="h" unicode="h" horiz-adv-x="1181" 
d="M1026 686v-686h-160v657q0 117 -68 181q-69 63 -186 63q-116 0 -206 -93t-91 -245v-563h-159v1434h159v-596q49 94 143 150t204 56q154 0 259 -91t105 -267z" />
    <glyph glyph-name="i" unicode="i" 
d="M139 1192v201h193v-201h-193zM156 0v1016h159v-1016h-159z" />
    <glyph glyph-name="j" unicode="j" 
d="M139 1192v201h193v-201h-193zM156 -145v1161h159v-1135q0 -313 -276 -313q-39 0 -98 16l20 144q39 -16 91 -16t78 32q26 33 26 111z" />
    <glyph glyph-name="k" unicode="k" horiz-adv-x="1013" 
d="M315 1434v-799l387 381h191l-350 -346l420 -670h-183l-348 557l-117 -117v-440h-159v1434h159z" />
    <glyph glyph-name="l" unicode="l" 
d="M156 0v1434h159v-1434h-159z" />
    <glyph glyph-name="m" unicode="m" horiz-adv-x="1671" 
d="M756 696q0 205 -187 205q-109 0 -181 -89t-73 -267v-545h-159v1016h159v-162q39 80 120 135t180 55t175 -48t103 -144q109 193 321 192q133 0 218 -74q84 -75 84 -198v-772h-160v715q0 88 -48 137t-150 49t-172 -87t-71 -265v-549h-159v696z" />
    <glyph glyph-name="n" unicode="n" horiz-adv-x="1169" 
d="M1014 690v-690h-160v662q0 117 -67 178t-183 61t-202 -93q-87 -93 -87 -245v-563h-159v1016h159v-178q55 96 145 151t197 55q149 0 253 -89t104 -265z" />
    <glyph glyph-name="o" unicode="o" horiz-adv-x="1232" 
d="M616 115q156 0 262 111q105 112 105 282t-105 282q-106 112 -262 112t-261 -112t-105 -282t105 -282t261 -111zM1147 508q0 -166 -81 -291t-200 -185t-250 -60q-132 0 -250 60t-199 185t-81 291t81 291t200 185t249 60t250 -60q119 -60 200 -185t81 -291z" />
    <glyph glyph-name="p" unicode="p" horiz-adv-x="1245" 
d="M649 897q-150 1 -248 -107t-98 -282t98 -282t248 -108t248 108t98 282t-98 282t-248 107zM156 -418v1434h159v-182q47 92 145 151t220 59q205 0 342 -147t137 -389t-141 -389t-348 -148q-238 0 -355 191v-580h-159z" />
    <glyph glyph-name="q" unicode="q" horiz-adv-x="1245" 
d="M596 897q-152 0 -249 -106q-97 -107 -97 -283t97 -282t249 -107q152 0 249 106q97 107 97 283t-97 282t-249 107zM1090 1016v-1434h-160v592q-48 -90 -142 -146t-208 -57q-207 0 -351 150q-143 151 -143 389t143 386t353 148q119 0 213 -57t135 -153v182h160z" />
    <glyph glyph-name="r" unicode="r" horiz-adv-x="712" 
d="M573 897q-109 0 -183 -95t-75 -247v-555h-159v1016h159v-185q98 213 295 213q33 0 70 -10l-27 -149q-37 12 -80 12z" />
    <glyph glyph-name="s" unicode="s" horiz-adv-x="1005" 
d="M303 772q0 -70 69 -110t201 -66q342 -66 342 -299q0 -137 -102 -231q-103 -94 -273 -94t-282 82q-112 83 -160 212l133 82q88 -238 299 -237q104 0 165 48t61 127t-62 121q-62 43 -206 69t-238 98t-94 197q0 124 102 199t248 74q293 0 395 -245l-123 -72
q-74 182 -270 182q-90 0 -148 -33q-57 -34 -57 -104z" />
    <glyph glyph-name="t" unicode="t" horiz-adv-x="696" 
d="M59 889v127h170v274h160v-274h234v-127h-234v-615q0 -88 28 -126t111 -37q35 0 76 12l14 -133q-54 -18 -150 -18t-168 64q-72 65 -71 208v645h-170z" />
    <glyph glyph-name="u" unicode="u" horiz-adv-x="1169" 
d="M156 346v670h159v-662q0 -117 66 -178q67 -61 183 -61t203 92t87 239v570h160v-1016h-160v178q-109 -207 -338 -207q-154 1 -257 93t-103 282z" />
    <glyph glyph-name="v" unicode="v" horiz-adv-x="1011" 
d="M995 1016l-409 -1016h-160l-410 1016h172l318 -832l317 832h172z" />
    <glyph glyph-name="w" unicode="w" horiz-adv-x="1396" 
d="M782 1016l230 -815l207 815h163l-286 -1016h-172l-226 827l-225 -827h-172l-287 1016h164l207 -815l229 815h168z" />
    <glyph glyph-name="x" unicode="x" horiz-adv-x="888" 
d="M221 1016l223 -354l226 354h182l-315 -471l350 -545h-180l-263 414l-264 -414h-182l360 541l-319 475h182z" />
    <glyph glyph-name="y" unicode="y" horiz-adv-x="1009" 
d="M242 -432q-78 0 -127 20l24 144q41 -20 85 -20t71 22q27 23 49 78l76 192l-410 1012h176l322 -797l317 797h172l-510 -1256q-43 -106 -105 -149t-140 -43z" />
    <glyph glyph-name="z" unicode="z" horiz-adv-x="991" 
d="M903 143v-143h-815v143l604 729h-577v144h757v-144l-608 -729h639z" />
    <glyph glyph-name="braceleft" unicode="{" horiz-adv-x="753" 
d="M119 492v143q77 0 115 42t38 148v240q0 197 74 283t234 86h63v-144h-65q-145 0 -146 -178v-297q0 -113 -32 -165t-109 -87q77 -35 109 -87t32 -165v-297q0 -178 146 -178h65v-143h-63q-160 0 -234 86t-74 282v240q0 107 -38 149t-115 42z" />
    <glyph glyph-name="bar" unicode="|" horiz-adv-x="524" 
d="M180 -225v1741h164v-1741h-164z" />
    <glyph glyph-name="braceright" unicode="}" horiz-adv-x="753" 
d="M635 635v-143q-78 0 -116 -42t-38 -149v-240q1 -197 -73 -283t-234 -85h-63v143h65q145 0 146 178v297q0 113 31 165q32 52 110 87q-78 35 -110 87t-31 165v297q0 178 -146 178h-65v144h63q160 0 234 -86t73 -283v-240q0 -106 38 -148t116 -42z" />
    <glyph glyph-name="asciitilde" unicode="~" horiz-adv-x="915" 
d="M244 624q0 -24 14 -53l-135 -24q-25 35 -25 86q0 86 58 135t130 49q128 0 200 -69t126 -68q25 0 42 16q35 33 3 92l136 25q25 -35 24 -86q0 -86 -58 -135t-130 -49q-126 1 -198 69q-73 68 -124 68q-29 0 -46 -16t-17 -40z" />
    <glyph glyph-name="exclamdown" unicode="&#xa1;" horiz-adv-x="548" 
d="M369 1016v-205h-189v205h189zM360 -418h-172v457l23 592h127l22 -592v-457z" />
    <glyph glyph-name="cent" unicode="&#xa2;" horiz-adv-x="1165" 
d="M262 506q0 -156 78 -258t209 -127v772q-127 -25 -207 -128t-80 -259zM549 -225v202q-195 25 -321 171t-126 358t128 358q128 147 319 174v232h147v-230q134 -16 232 -88t145 -186l-121 -80q-84 178 -256 209v-774q164 27 269 217l114 -74q-129 -252 -383 -287v-202h-147z
" />
    <glyph glyph-name="sterling" unicode="&#xa3;" horiz-adv-x="1157" 
d="M68 647v131h149q-39 135 -39 242q0 198 131 320t323 122t312 -98t119 -252q0 -72 -33 -143l-151 26q20 61 20 107q0 94 -78 151q-79 57 -201 57t-196 -78q-74 -79 -74 -210q0 -80 43 -244h391v-131h-364q12 -57 12 -141q0 -190 -119 -354h727v-152h-890v119
q115 188 114 379q0 92 -12 149h-184z" />
    <glyph glyph-name="currency" unicode="&#xa4;" horiz-adv-x="1302" 
d="M651 399q133 0 218 89q85 88 85 228t-85 229t-218 89t-218 -89t-85 -228t85 -229t218 -89zM1106 717q0 -156 -82 -266l135 -136l-106 -106l-135 135q-118 -84 -266 -84t-267 84l-135 -135l-107 106l136 136q-82 111 -82 267t82 265l-136 135l107 107l135 -135
q119 84 266 84t267 -84l135 135l106 -107l-135 -135q82 -110 82 -266z" />
    <glyph glyph-name="yen" unicode="&#xa5;" horiz-adv-x="1130" 
d="M174 588v127h238l-379 719h184l348 -697l348 697h185l-379 -719h237v-127h-305v-162h305v-127h-305v-299h-172v299h-305v127h305v162h-305z" />
    <glyph glyph-name="brokenbar" unicode="&#xa6;" horiz-adv-x="524" 
d="M180 508h164v-733h-164v733zM344 782h-164v734h164v-734z" />
    <glyph glyph-name="section" unicode="&#xa7;" horiz-adv-x="1071" 
d="M289 702q0 -68 58 -114q58 -48 176 -74t198 -65q61 55 61 121q0 134 -240 189q-122 28 -194 64q-59 -53 -59 -121zM942 590q0 -123 -113 -215q105 -94 105 -243q0 -150 -113 -236t-273 -86t-268 74q-110 74 -163 196l133 96q90 -219 299 -219q92 0 157 45q64 45 64 130
q0 86 -71 146t-244 97q-326 72 -326 307q0 125 111 215q-102 96 -102 244q0 149 112 235t272 86t270 -74t162 -196l-133 -96q-90 219 -299 219q-92 0 -156 -45t-65 -130q0 -86 71 -146t244 -97q326 -71 326 -307z" />
    <glyph glyph-name="dieresis" unicode="&#xa8;" horiz-adv-x="798" 
d="M143 1204v189h189v-189h-189zM467 1204v189h188v-189h-188z" />
    <glyph glyph-name="copyright" unicode="&#xa9;" horiz-adv-x="1736" 
d="M870 299q-172 0 -288 118t-115 299q0 181 119 300t284 119q126 1 218 -57t133 -160l-95 -62q-78 168 -254 168q-122 0 -202 -84t-80 -223t80 -222t202 -83q173 0 265 172l90 -58q-117 -227 -357 -227zM246 717q0 -259 181 -443t441 -184t442 183q181 183 181 443
t-181 444q-182 183 -442 183t-441 -183t-181 -443zM123 717q0 309 219 527t526 218q306 0 526 -218t220 -527t-219 -527t-527 -219q-308 1 -526 219q-219 218 -219 527z" />
    <glyph glyph-name="ordfeminine" unicode="&#xaa;" horiz-adv-x="788" 
d="M356 713q100 0 160 72q59 73 59 180v20l-208 -33q-61 -10 -99 -43t-39 -85q0 -52 35 -82t92 -29zM340 600q-106 0 -172 60t-66 156t66 154t178 77l229 36v23q0 141 -157 141q-76 -1 -116 -29t-40 -73q0 -10 2 -21l-112 -37q-10 23 -11 56q0 82 79 142q79 61 207 61
t202 -62t73 -174v-313q0 -111 43 -183h-127q-43 51 -43 138q-61 -152 -235 -152z" />
    <glyph glyph-name="guillemotleft" unicode="&#xab;" horiz-adv-x="1034" 
d="M418 971h190l-311 -408l311 -407h-190l-320 407zM770 971h191l-312 -408l312 -407h-191l-319 407z" />
    <glyph glyph-name="logicalnot" unicode="&#xac;" horiz-adv-x="1093" 
d="M938 410h-160v274h-680v127h840v-401z" />
    <glyph glyph-name="registered" unicode="&#xae;" horiz-adv-x="1736" 
d="M709 1016v-248h190q160 0 160 124t-160 124h-190zM709 664v-355h-123v815h332q122 0 192 -64t70 -160t-56 -154t-143 -76l203 -361h-140l-200 355h-135zM246 717q0 -259 181 -443t441 -184t442 183q181 183 181 443t-181 444q-182 183 -442 183t-441 -183t-181 -443z
M123 717q0 309 219 527t526 218q306 0 526 -218t220 -527t-219 -527t-527 -219q-308 1 -526 219q-219 218 -219 527z" />
    <glyph glyph-name="macron" unicode="&#xaf;" horiz-adv-x="647" 
d="M98 1229v143h451v-143h-451z" />
    <glyph glyph-name="degree" unicode="&#xb0;" horiz-adv-x="737" 
d="M217 1186q0 -66 42 -110t110 -44q67 0 109 44t42 110t-42 110t-110 43q-68 1 -109 -43q-42 -44 -42 -110zM90 1186q0 116 80 196t199 80t199 -80t79 -196q0 -116 -80 -197q-81 -80 -199 -80t-198 80t-80 197z" />
    <glyph glyph-name="plusminus" unicode="&#xb1;" horiz-adv-x="1036" 
d="M98 0v127h840v-127h-840zM98 684v127h357v356h127v-356h356v-127h-356v-356h-127v356h-357z" />
    <glyph glyph-name="twosuperior" unicode="&#xb2;" horiz-adv-x="694" 
d="M479 1239q0 41 -30 72q-31 31 -85 31t-89 -30q-33 -30 -33 -70t8 -58l-111 -15q-12 27 -12 68q0 84 66 147q66 64 173 64t172 -57t64 -148q0 -125 -133 -256l-162 -160h303v-110h-483v86l264 258q88 86 88 178z" />
    <glyph glyph-name="threesuperior" unicode="&#xb3;" horiz-adv-x="708" 
d="M225 913q0 -49 39 -77t101 -27q135 0 135 125q0 59 -54 90t-139 31v92q156 0 156 117q0 38 -32 62t-80 24t-82 -28t-33 -73q0 -12 4 -32l-101 -13q-10 29 -10 64q0 76 62 128q61 52 163 52t166 -50t64 -124q0 -111 -107 -162q61 -18 101 -66t40 -116q0 -104 -72 -166
q-74 -62 -186 -62t-183 62t-71 143q1 41 17 70l108 -25q-6 -18 -6 -39z" />
    <glyph glyph-name="acute" unicode="&#xb4;" horiz-adv-x="608" 
d="M129 1151l131 283h219l-205 -283h-145z" />
    <glyph glyph-name="mu" unicode="&#xb5;" horiz-adv-x="1169" 
d="M156 -418v1434h159v-662q0 -117 66 -178q67 -61 183 -61t203 92t87 239v570h160v-1016h-160v178q-109 -207 -338 -207q-125 0 -205 66q4 -94 4 -154v-301h-159z" />
    <glyph glyph-name="paragraph" unicode="&#xb6;" horiz-adv-x="1275" 
d="M768 1282v-1528h-172v877h-57q-195 1 -322 111t-127 290t127 291t322 111h661v-152h-104v-1528h-172v1528h-156z" />
    <glyph glyph-name="periodcentered" unicode="&#xb7;" horiz-adv-x="389" 
d="M98 635v201h193v-201h-193z" />
    <glyph glyph-name="cedilla" unicode="&#xb8;" horiz-adv-x="622" 
d="M344 -90q58 0 102 -44t46 -119q0 -75 -54 -120t-127 -45q-74 0 -120 33t-60 92l98 25q20 -55 76 -56q72 0 72 76q0 72 -83 72q-42 0 -89 -37l-64 57l70 189h111l-76 -146q40 23 98 23z" />
    <glyph glyph-name="onesuperior" unicode="&#xb9;" horiz-adv-x="514" 
d="M94 1237v109q123 0 162 88h115v-717h-123v559q-43 -39 -154 -39z" />
    <glyph glyph-name="ordmasculine" unicode="&#xba;" horiz-adv-x="937" 
d="M469 715q102 -1 172 73t70 185t-70 185t-172 73q-102 0 -172 -74q-70 -75 -70 -185t70 -184t172 -73zM838 973q0 -169 -113 -271t-256 -102t-256 101t-113 271t113 272t256 102t256 -102t113 -271z" />
    <glyph glyph-name="guillemotright" unicode="&#xbb;" horiz-adv-x="1034" 
d="M426 971h190l320 -408l-320 -407h-190l311 407zM74 971h190l320 -408l-320 -407h-190l311 407z" />
    <glyph glyph-name="onequarter" unicode="&#xbc;" horiz-adv-x="1536" 
d="M358 0l-106 72l891 1362l106 -72zM94 1237v109q123 0 162 88h115v-717h-123v559q-43 -39 -154 -39zM1208 242v295l-215 -295h215zM870 135v107l338 475h127v-475h80v-107h-80v-135h-127v135h-338z" />
    <glyph glyph-name="onehalf" unicode="&#xbd;" horiz-adv-x="1587" 
d="M1343 522q0 41 -30 72q-31 31 -85 31t-88 -30t-34 -70t8 -58l-110 -14q-12 27 -13 67q0 84 66 148q65 64 173 63q108 0 172 -57t64 -148q0 -125 -133 -256l-162 -159h304v-111h-484v86l264 258q88 86 88 178zM358 0l-106 72l891 1362l106 -72zM94 1237v109q123 0 162 88
h115v-717h-123v559q-43 -39 -154 -39z" />
    <glyph glyph-name="threequarters" unicode="&#xbe;" horiz-adv-x="1677" 
d="M225 913q0 -49 39 -77t101 -27q135 0 135 125q0 59 -54 90t-139 31v92q156 0 156 117q0 38 -32 62t-80 24t-82 -28t-33 -73q0 -12 4 -32l-101 -13q-10 29 -10 64q0 76 62 128q61 52 163 52t166 -50t64 -124q0 -111 -107 -162q61 -18 101 -66t40 -116q0 -104 -72 -166
q-74 -62 -186 -62t-183 62t-71 143q1 41 17 70l108 -25q-6 -18 -6 -39zM475 0l-106 72l891 1362l106 -72zM1350 242v295l-215 -295h215zM1012 135v107l338 475h127v-475h79v-107h-79v-135h-127v135h-338z" />
    <glyph glyph-name="questiondown" unicode="&#xbf;" horiz-adv-x="1097" 
d="M662 1016v-205h-189v205h189zM481 616h176v-45q0 -145 -188 -303q-115 -96 -153 -163t-38 -169t78 -170q76 -69 197 -69t200 69t78 199q0 41 -10 86l150 27q25 -57 24 -141q0 -154 -125 -269q-126 -114 -322 -114t-317 106t-120 270q0 128 55 222t201 217q63 55 89 109
q25 54 25 138z" />
    <glyph glyph-name="Agrave" unicode="&#xc0;" horiz-adv-x="1343" 
d="M606 1851l131 -282h-145l-205 282h219zM629 1124l-219 -557h522l-217 557q-29 74 -43 119zM12 0l570 1434h180l569 -1434h-176l-166 424h-635l-166 -424h-176z" />
    <glyph glyph-name="Aacute" unicode="&#xc1;" horiz-adv-x="1343" 
d="M608 1569l131 282h219l-204 -282h-146zM629 1124l-219 -557h522l-217 557q-29 74 -43 119zM12 0l570 1434h180l569 -1434h-176l-166 424h-635l-166 -424h-176z" />
    <glyph glyph-name="Acircumflex" unicode="&#xc2;" horiz-adv-x="1343" 
d="M397 1569l205 282h139l205 -282h-139l-135 139l-135 -139h-140zM629 1124l-219 -557h522l-217 557q-29 74 -43 119zM12 0l570 1434h180l569 -1434h-176l-166 424h-635l-166 -424h-176z" />
    <glyph glyph-name="Atilde" unicode="&#xc3;" horiz-adv-x="1343" 
d="M465 1648q0 -24 14 -53l-123 -24q-24 37 -24 103t55 111q55 44 123 44t116 -22q48 -21 72 -47q64 -69 121 -68q25 0 42 16q35 33 3 92l123 25q25 -37 25 -105t-56 -110q-56 -43 -124 -43q-121 1 -185 69q-64 69 -118 68q-30 0 -47 -16t-17 -40zM629 1124l-219 -557h522
l-217 557q-29 74 -43 119zM12 0l570 1434h180l569 -1434h-176l-166 424h-635l-166 -424h-176z" />
    <glyph glyph-name="Adieresis" unicode="&#xc4;" horiz-adv-x="1343" 
d="M416 1622v188h188v-188h-188zM739 1622v188h189v-188h-189zM629 1124l-219 -557h522l-217 557q-29 74 -43 119zM12 0l570 1434h180l569 -1434h-176l-166 424h-635l-166 -424h-176z" />
    <glyph glyph-name="Aring" unicode="&#xc5;" horiz-adv-x="1343" 
d="M475 1718q0 82 57 138q58 56 140 57q82 0 139 -56q57 -57 57 -139t-55 -138t-141 -56t-142 56q-55 56 -55 138zM578 1718q0 -40 26 -68t68 -28t68 28t26 68t-27 69q-27 28 -67 28t-68 -28q-26 -28 -26 -69zM629 1124l-219 -557h522l-217 557q-29 74 -43 119zM12 0
l570 1434h180l569 -1434h-176l-166 424h-635l-166 -424h-176z" />
    <glyph glyph-name="AE" unicode="&#xc6;" horiz-adv-x="1908" 
d="M866 567v715h-116l-314 -715h430zM866 0v424h-493l-185 -424h-176l631 1434h1120v-152h-725v-465h668v-151h-668v-514h731v-152h-903z" />
    <glyph glyph-name="Ccedilla" unicode="&#xc7;" horiz-adv-x="1531" 
d="M115 729q0 305 204 519q205 214 496 214q209 0 366 -99t232 -269l-133 -95q-147 311 -469 312q-219 0 -370 -171t-151 -425t145 -423q144 -169 374 -169q161 0 275 73t198 236l129 -94q-195 -367 -606 -367l-43 -84q40 23 98 23t103 -44t45 -119t-54 -120t-127 -45
q-148 0 -180 125l98 25q20 -55 76 -56q72 0 72 76q0 33 -22 52q-23 20 -63 20t-87 -37l-64 57l50 133q-260 35 -426 241t-166 511z" />
    <glyph glyph-name="Egrave" unicode="&#xc8;" horiz-adv-x="1222" 
d="M631 1851l131 -282h-146l-204 282h219zM180 0v1434h897v-152h-725v-465h668v-151h-668v-514h731v-152h-903z" />
    <glyph glyph-name="Eacute" unicode="&#xc9;" horiz-adv-x="1222" 
d="M514 1569l131 282h219l-205 -282h-145zM180 0v1434h897v-152h-725v-465h668v-151h-668v-514h731v-152h-903z" />
    <glyph glyph-name="Ecircumflex" unicode="&#xca;" horiz-adv-x="1222" 
d="M360 1569l205 282h140l204 -282h-139l-135 139l-135 -139h-140zM180 0v1434h897v-152h-725v-465h668v-151h-668v-514h731v-152h-903z" />
    <glyph glyph-name="Edieresis" unicode="&#xcb;" horiz-adv-x="1222" 
d="M379 1622v188h188v-188h-188zM702 1622v188h189v-188h-189zM180 0v1434h897v-152h-725v-465h668v-151h-668v-514h731v-152h-903z" />
    <glyph glyph-name="Igrave" unicode="&#xcc;" horiz-adv-x="532" 
d="M221 1851l131 -282h-145l-205 282h219zM180 0v1434h172v-1434h-172z" />
    <glyph glyph-name="Iacute" unicode="&#xcd;" horiz-adv-x="532" 
d="M180 1569l131 282h219l-204 -282h-146zM180 0v1434h172v-1434h-172z" />
    <glyph glyph-name="Icircumflex" unicode="&#xce;" horiz-adv-x="532" 
d="M-8 1569l205 282h139l205 -282h-140l-135 139l-135 -139h-139zM180 0v1434h172v-1434h-172z" />
    <glyph glyph-name="Idieresis" unicode="&#xcf;" horiz-adv-x="532" 
d="M10 1622v188h189v-188h-189zM334 1622v188h188v-188h-188zM180 0v1434h172v-1434h-172z" />
    <glyph glyph-name="Eth" unicode="&#xd0;" horiz-adv-x="1468" 
d="M401 152h213q260 0 412 141t152 424t-152 424t-412 141h-213v-494h316v-143h-316v-493zM82 645v143h147v646h396q325 0 527 -190t202 -527t-202 -527t-527 -190h-396v645h-147z" />
    <glyph glyph-name="Ntilde" unicode="&#xd1;" horiz-adv-x="1449" 
d="M583 1704q-30 0 -47 -16q-34 -32 -4 -93l-122 -24q-25 37 -25 103t55 111q56 44 124 44q121 0 186 -69t122 -68q25 0 42 16q34 32 4 92l122 25q25 -37 25 -105t-55 -110q-56 -43 -124 -43q-122 1 -186 69q-65 68 -117 68zM180 0v1434h182l682 -1080q49 -82 62 -112v1192
h164v-1434h-183l-681 1079q-49 82 -62 113v-1192h-164z" />
    <glyph glyph-name="Ograve" unicode="&#xd2;" horiz-adv-x="1613" 
d="M791 1851l131 -282h-146l-205 282h220zM807 123q223 0 370 165q146 165 146 429t-146 429q-145 165 -369 165t-370 -165t-147 -429q1 -264 147 -429t369 -165zM1499 717q0 -330 -199 -538q-200 -208 -494 -208t-493 208t-198 538q1 329 199 537t493 208t493 -208
t199 -537z" />
    <glyph glyph-name="Oacute" unicode="&#xd3;" horiz-adv-x="1613" 
d="M694 1569l131 282h219l-204 -282h-146zM807 123q223 0 370 165q146 165 146 429t-146 429q-145 165 -369 165t-370 -165t-147 -429q1 -264 147 -429t369 -165zM1499 717q0 -330 -199 -538q-200 -208 -494 -208t-493 208t-198 538q1 329 199 537t493 208t493 -208
t199 -537z" />
    <glyph glyph-name="Ocircumflex" unicode="&#xd4;" horiz-adv-x="1613" 
d="M532 1569l205 282h140l204 -282h-139l-135 139l-135 -139h-140zM807 123q223 0 370 165q146 165 146 429t-146 429q-145 165 -369 165t-370 -165t-147 -429q1 -264 147 -429t369 -165zM1499 717q0 -330 -199 -538q-200 -208 -494 -208t-493 208t-198 538q1 329 199 537
t493 208t493 -208t199 -537z" />
    <glyph glyph-name="Otilde" unicode="&#xd5;" horiz-adv-x="1613" 
d="M594 1648q0 -24 14 -53l-123 -24q-25 37 -25 103t56 111q56 44 124 44t116 -22q48 -21 70 -47q64 -69 122 -68q25 0 42 16q35 33 3 92l123 25q25 -37 25 -105q1 -68 -55 -110q-56 -43 -124 -43q-121 1 -186 69q-64 69 -118 68q-30 0 -47 -16t-17 -40zM807 123
q223 0 370 165q146 165 146 429t-146 429q-145 165 -369 165t-370 -165t-147 -429q1 -264 147 -429t369 -165zM1499 717q0 -330 -199 -538q-200 -208 -494 -208t-493 208t-198 538q1 329 199 537t493 208t493 -208t199 -537z" />
    <glyph glyph-name="Odieresis" unicode="&#xd6;" horiz-adv-x="1613" 
d="M551 1622v188h188v-188h-188zM874 1622v188h189v-188h-189zM807 123q223 0 370 165q146 165 146 429t-146 429q-145 165 -369 165t-370 -165t-147 -429q1 -264 147 -429t369 -165zM1499 717q0 -330 -199 -538q-200 -208 -494 -208t-493 208t-198 538q1 329 199 537
t493 208t493 -208t199 -537z" />
    <glyph glyph-name="multiply" unicode="&#xd7;" horiz-adv-x="1036" 
d="M266 406l-90 90l252 252l-252 251l90 91l252 -252l252 252l90 -91l-252 -251l252 -252l-90 -90l-252 251z" />
    <glyph glyph-name="Oslash" unicode="&#xd8;" horiz-adv-x="1613" 
d="M291 717q0 -303 188 -471l535 1022q-92 43 -207 43q-223 0 -369 -165t-147 -429zM807 123q223 0 370 165q146 165 146 429q0 303 -188 471l-535 -1022q92 -43 207 -43zM1499 717q0 -330 -199 -538t-493 -208q-147 0 -279 58l-51 -99l-127 70l53 100q-135 98 -212 257
t-76 360q1 329 199 537t493 208q147 0 278 -57l52 98l127 -69l-54 -101q135 -99 212 -257t77 -359z" />
    <glyph glyph-name="Ugrave" unicode="&#xd9;" horiz-adv-x="1372" 
d="M670 1851l131 -282h-146l-204 282h219zM1217 1434v-953q-1 -237 -147 -373t-384 -136t-384 136t-146 373v953h172v-963q0 -150 94 -249t264 -99t264 99t94 249v963h173z" />
    <glyph glyph-name="Uacute" unicode="&#xda;" horiz-adv-x="1372" 
d="M573 1569l132 282h219l-205 -282h-146zM1217 1434v-953q-1 -237 -147 -373t-384 -136t-384 136t-146 373v953h172v-963q0 -150 94 -249t264 -99t264 99t94 249v963h173z" />
    <glyph glyph-name="Ucircumflex" unicode="&#xdb;" horiz-adv-x="1372" 
d="M412 1569l204 282h140l205 -282h-140l-135 139l-135 -139h-139zM1217 1434v-953q-1 -237 -147 -373t-384 -136t-384 136t-146 373v953h172v-963q0 -150 94 -249t264 -99t264 99t94 249v963h173z" />
    <glyph glyph-name="Udieresis" unicode="&#xdc;" horiz-adv-x="1372" 
d="M430 1622v188h188v-188h-188zM754 1622v188h188v-188h-188zM1217 1434v-953q-1 -237 -147 -373t-384 -136t-384 136t-146 373v953h172v-963q0 -150 94 -249t264 -99t264 99t94 249v963h173z" />
    <glyph glyph-name="Yacute" unicode="&#xdd;" horiz-adv-x="1130" 
d="M432 1569l131 282h219l-204 -282h-146zM479 0v588l-471 846h187l325 -607q27 -51 45 -100l45 100l326 607h186l-471 -846v-588h-172z" />
    <glyph glyph-name="Thorn" unicode="&#xde;" horiz-adv-x="1388" 
d="M352 1012v-590h422q158 0 245 75t87 220t-87 220t-245 75h-422zM180 0v1434h172v-271h430q228 0 362 -122q134 -123 134 -325t-134 -324t-362 -122h-430v-270h-172z" />
    <glyph glyph-name="germandbls" unicode="&#xdf;" horiz-adv-x="1216" 
d="M510 715v135h47q141 0 226 68t85 177t-73 169q-74 59 -176 59q-101 0 -175 -68t-73 -202v-1053h-160v889h-160v127h160v28q0 203 123 311q123 107 293 107q169 0 281 -96t112 -232t-73 -218q-73 -81 -183 -115q350 -96 350 -402q0 -182 -113 -305t-283 -123t-304 109
l78 125q109 -94 218 -94q109 1 177 81t67 205q0 154 -114 236q-115 82 -281 82h-49z" />
    <glyph glyph-name="agrave" unicode="&#xe0;" horiz-adv-x="1112" 
d="M518 1434l131 -283h-145l-205 283h219zM467 115q154 -1 241 115t87 280v31l-310 -54q-104 -18 -159 -69q-56 -51 -56 -130t54 -126t143 -47zM795 713q0 197 -240 196q-115 0 -177 -45t-63 -112q0 -14 4 -31l-139 -47q-16 39 -16 82q0 120 108 204t294 84t287 -87
t101 -244v-459q0 -88 12 -140t50 -114h-160q-61 74 -61 201q-97 -229 -365 -229q-135 0 -229 86q-95 86 -95 224t98 222t253 108l338 56v45z" />
    <glyph glyph-name="aacute" unicode="&#xe1;" horiz-adv-x="1112" 
d="M442 1151l131 283h220l-205 -283h-146zM467 115q154 -1 241 115t87 280v31l-310 -54q-104 -18 -159 -69q-56 -51 -56 -130t54 -126t143 -47zM795 713q0 197 -240 196q-115 0 -177 -45t-63 -112q0 -14 4 -31l-139 -47q-16 39 -16 82q0 120 108 204t294 84t287 -87
t101 -244v-459q0 -88 12 -140t50 -114h-160q-61 74 -61 201q-97 -229 -365 -229q-135 0 -229 86q-95 86 -95 224t98 222t253 108l338 56v45z" />
    <glyph glyph-name="acircumflex" unicode="&#xe2;" horiz-adv-x="1112" 
d="M281 1151l204 283h140l204 -283h-139l-135 139l-135 -139h-139zM467 115q154 -1 241 115t87 280v31l-310 -54q-104 -18 -159 -69q-56 -51 -56 -130t54 -126t143 -47zM795 713q0 197 -240 196q-115 0 -177 -45t-63 -112q0 -14 4 -31l-139 -47q-16 39 -16 82q0 120 108 204
t294 84t287 -87t101 -244v-459q0 -88 12 -140t50 -114h-160q-61 74 -61 201q-97 -229 -365 -229q-135 0 -229 86q-95 86 -95 224t98 222t253 108l338 56v45z" />
    <glyph glyph-name="atilde" unicode="&#xe3;" horiz-adv-x="1112" 
d="M400 1286q-30 0 -47 -16t-17 -40t14 -52l-123 -25q-25 37 -25 103t56 111q56 44 124 44q125 0 187 -69q63 -69 121 -68q25 0 42 16q35 33 3 92l123 25q25 -37 25 -105q1 -68 -55 -110q-56 -43 -124 -43q-68 -1 -116 21q-47 22 -71 48q-23 26 -55 47t-62 21zM467 115
q154 -1 241 115t87 280v31l-310 -54q-104 -18 -159 -69q-56 -51 -56 -130t54 -126t143 -47zM795 713q0 197 -240 196q-115 0 -177 -45t-63 -112q0 -14 4 -31l-139 -47q-16 39 -16 82q0 120 108 204t294 84t287 -87t101 -244v-459q0 -88 12 -140t50 -114h-160q-61 74 -61 201
q-97 -229 -365 -229q-135 0 -229 86q-95 86 -95 224t98 222t253 108l338 56v45z" />
    <glyph glyph-name="adieresis" unicode="&#xe4;" horiz-adv-x="1112" 
d="M299 1204v189h188v-189h-188zM623 1204v189h188v-189h-188zM467 115q154 -1 241 115t87 280v31l-310 -54q-104 -18 -159 -69q-56 -51 -56 -130t54 -126t143 -47zM795 713q0 197 -240 196q-115 0 -177 -45t-63 -112q0 -14 4 -31l-139 -47q-16 39 -16 82q0 120 108 204
t294 84t287 -87t101 -244v-459q0 -88 12 -140t50 -114h-160q-61 74 -61 201q-97 -229 -365 -229q-135 0 -229 86q-95 86 -95 224t98 222t253 108l338 56v45z" />
    <glyph glyph-name="aring" unicode="&#xe5;" horiz-adv-x="1112" 
d="M358 1300q0 82 58 138t139 57q82 0 139 -56q58 -57 58 -139t-56 -138t-141 -56t-141 56t-56 138zM461 1300q1 -40 27 -68t67 -28t68 28t27 68t-27 69q-27 28 -68 28t-67 -28t-27 -69zM467 115q154 -1 241 115t87 280v31l-310 -54q-104 -18 -159 -69q-56 -51 -56 -130
t54 -126t143 -47zM795 713q0 197 -240 196q-115 0 -177 -45t-63 -112q0 -14 4 -31l-139 -47q-16 39 -16 82q0 120 108 204t294 84t287 -87t101 -244v-459q0 -88 12 -140t50 -114h-160q-61 74 -61 201q-97 -229 -365 -229q-135 0 -229 86q-95 86 -95 224t98 222t253 108
l338 56v45z" />
    <glyph glyph-name="ae" unicode="&#xe6;" horiz-adv-x="1884" 
d="M465 115q156 0 243 104t87 252v10h-209q-315 0 -316 -194q0 -78 54 -125t141 -47zM1301 909q-129 0 -217 -81t-117 -216h667q-8 137 -106 217t-227 80zM1794 481h-840q8 -164 102 -269q94 -106 236 -106t220 60t135 172l116 -70q-150 -297 -465 -297q-139 0 -255 72
t-175 195q-63 -133 -175 -200q-111 -67 -251 -67t-238 88q-98 87 -98 227t98 221t283 97q109 8 218 8h90v64q1 127 -59 180t-178 53t-180 -45t-63 -112q0 -14 4 -31l-139 -47q-16 39 -16 82q0 120 108 204t279 84q270 0 360 -194q63 86 171 140t223 54q221 0 355 -141
t134 -366v-56z" />
    <glyph glyph-name="ccedilla" unicode="&#xe7;" horiz-adv-x="1140" 
d="M86 520q0 219 153 372t367 152q162 0 279 -74t172 -204l-121 -80q-100 215 -328 215q-156 1 -259 -107t-103 -286t101 -286t261 -107q121 0 201 56t139 167l115 -74q-147 -293 -457 -293l-43 -84q39 23 97 23t104 -44q45 -44 45 -119t-53 -120t-127 -45t-120 33t-60 92
l98 25q20 -55 76 -56q72 0 71 76q0 72 -82 72q-42 0 -90 -37l-63 57l49 136q-186 33 -304 177t-118 363z" />
    <glyph glyph-name="egrave" unicode="&#xe8;" horiz-adv-x="1175" 
d="M571 1434l131 -283h-145l-205 283h219zM592 909q-129 0 -217 -81t-117 -216h668q-8 137 -106 217t-228 80zM1085 481h-839q8 -164 102 -269q94 -106 236 -106t220 60q79 60 134 172l117 -70q-150 -297 -465 -297q-211 0 -358 153q-146 153 -146 384t147 384
q147 152 367 152t353 -141q132 -141 132 -366v-56z" />
    <glyph glyph-name="eacute" unicode="&#xe9;" horiz-adv-x="1175" 
d="M475 1151l131 283h219l-204 -283h-146zM592 909q-129 0 -217 -81t-117 -216h668q-8 137 -106 217t-228 80zM1085 481h-839q8 -164 102 -269q94 -106 236 -106t220 60q79 60 134 172l117 -70q-150 -297 -465 -297q-211 0 -358 153q-146 153 -146 384t147 384
q147 152 367 152t353 -141q132 -141 132 -366v-56z" />
    <glyph glyph-name="ecircumflex" unicode="&#xea;" horiz-adv-x="1175" 
d="M313 1151l205 283h139l205 -283h-139l-135 139l-135 -139h-140zM592 909q-129 0 -217 -81t-117 -216h668q-8 137 -106 217t-228 80zM1085 481h-839q8 -164 102 -269q94 -106 236 -106t220 60q79 60 134 172l117 -70q-150 -297 -465 -297q-211 0 -358 153
q-146 153 -146 384t147 384q147 152 367 152t353 -141q132 -141 132 -366v-56z" />
    <glyph glyph-name="edieresis" unicode="&#xeb;" horiz-adv-x="1175" 
d="M332 1204v189h188v-189h-188zM655 1204v189h189v-189h-189zM592 909q-129 0 -217 -81t-117 -216h668q-8 137 -106 217t-228 80zM1085 481h-839q8 -164 102 -269q94 -106 236 -106t220 60q79 60 134 172l117 -70q-150 -297 -465 -297q-211 0 -358 153q-146 153 -146 384
t147 384q147 152 367 152t353 -141q132 -141 132 -366v-56z" />
    <glyph glyph-name="igrave" unicode="&#xec;" 
d="M184 1434l131 -283h-145l-205 283h219zM156 0v1016h159v-1016h-159z" />
    <glyph glyph-name="iacute" unicode="&#xed;" 
d="M156 1151l131 283h219l-205 -283h-145zM156 0v1016h159v-1016h-159z" />
    <glyph glyph-name="icircumflex" unicode="&#xee;" 
d="M-39 1151l205 283h139l205 -283h-139l-135 139l-136 -139h-139zM156 0v1016h159v-1016h-159z" />
    <glyph glyph-name="idieresis" unicode="&#xef;" 
d="M-20 1204v189h188v-189h-188zM303 1204v189h189v-189h-189zM156 0v1016h159v-1016h-159z" />
    <glyph glyph-name="eth" unicode="&#xf0;" horiz-adv-x="1187" 
d="M594 115q133 0 231 91t99 253q0 162 -98 253t-232 91t-232 -91t-98 -253t98 -253t232 -91zM1087 561q0 -157 -43 -275q-77 -211 -272 -283q-84 -32 -178 -32q-197 0 -345 127q-149 128 -149 360t148 360t334 128q110 0 204 -52t142 -132q-47 213 -215 381l-256 -99
l-47 125l190 74q-129 98 -276 158l73 119q209 -102 351 -220l202 78l49 -125l-145 -55q233 -260 233 -637z" />
    <glyph glyph-name="ntilde" unicode="&#xf1;" horiz-adv-x="1169" 
d="M441 1286q-30 0 -47 -16t-17 -40t14 -52l-123 -25q-24 37 -24 103t55 111q55 44 123 44q125 0 188 -69t121 -68q25 0 42 16q35 33 3 92l123 25q25 -37 25 -105t-56 -110q-56 -43 -124 -43q-68 -1 -115 21t-71 48t-56 47t-61 21zM1014 690v-690h-160v662q0 117 -67 178
t-183 61t-202 -93q-87 -93 -87 -245v-563h-159v1016h159v-178q55 96 145 151t197 55q149 0 253 -89t104 -265z" />
    <glyph glyph-name="ograve" unicode="&#xf2;" horiz-adv-x="1232" 
d="M578 1434l131 -283h-146l-205 283h220zM616 115q156 0 262 111q105 112 105 282t-105 282q-106 112 -262 112t-261 -112t-105 -282t105 -282t261 -111zM1147 508q0 -166 -81 -291t-200 -185t-250 -60q-132 0 -250 60t-199 185t-81 291t81 291t200 185t249 60t250 -60
q119 -60 200 -185t81 -291z" />
    <glyph glyph-name="oacute" unicode="&#xf3;" horiz-adv-x="1232" 
d="M526 1151l131 283h220l-205 -283h-146zM616 115q156 0 262 111q105 112 105 282t-105 282q-106 112 -262 112t-261 -112t-105 -282t105 -282t261 -111zM1147 508q0 -166 -81 -291t-200 -185t-250 -60q-132 0 -250 60t-199 185t-81 291t81 291t200 185t249 60t250 -60
q119 -60 200 -185t81 -291z" />
    <glyph glyph-name="ocircumflex" unicode="&#xf4;" horiz-adv-x="1232" 
d="M342 1151l205 283h139l205 -283h-139l-136 139l-135 -139h-139zM616 115q156 0 262 111q105 112 105 282t-105 282q-106 112 -262 112t-261 -112t-105 -282t105 -282t261 -111zM1147 508q0 -166 -81 -291t-200 -185t-250 -60q-132 0 -250 60t-199 185t-81 291t81 291
t200 185t249 60t250 -60q119 -60 200 -185t81 -291z" />
    <glyph glyph-name="otilde" unicode="&#xf5;" horiz-adv-x="1232" 
d="M474 1286q-30 0 -47 -16t-17 -40t14 -52l-123 -25q-25 37 -25 103t56 111q56 44 124 44q123 0 186 -69q64 -69 122 -68q25 0 42 16t17 40t-14 52l123 25q24 -37 24 -105t-55 -110q-55 -43 -123 -43q-68 -1 -116 21q-47 22 -71 48q-23 26 -55 47t-62 21zM616 115
q156 0 262 111q105 112 105 282t-105 282q-106 112 -262 112t-261 -112t-105 -282t105 -282t261 -111zM1147 508q0 -166 -81 -291t-200 -185t-250 -60q-132 0 -250 60t-199 185t-81 291t81 291t200 185t249 60t250 -60q119 -60 200 -185t81 -291z" />
    <glyph glyph-name="odieresis" unicode="&#xf6;" horiz-adv-x="1232" 
d="M360 1204v189h189v-189h-189zM684 1204v189h188v-189h-188zM616 115q156 0 262 111q105 112 105 282t-105 282q-106 112 -262 112t-261 -112t-105 -282t105 -282t261 -111zM1147 508q0 -166 -81 -291t-200 -185t-250 -60q-132 0 -250 60t-199 185t-81 291t81 291t200 185
t249 60t250 -60q119 -60 200 -185t81 -291z" />
    <glyph glyph-name="divide" unicode="&#xf7;" horiz-adv-x="1036" 
d="M98 424v127h840v-127h-840zM422 774v201h192v-201h-192zM422 0v201h192v-201h-192z" />
    <glyph glyph-name="oslash" unicode="&#xf8;" horiz-adv-x="1232" 
d="M616 115q156 0 262 111q105 112 105 283t-115 290l-383 -660q61 -24 131 -24zM250 507q0 -171 115 -290l383 660q-61 25 -132 24q-156 1 -261 -111t-105 -283zM1147 508q0 -166 -81 -291t-200 -185q-118 -60 -236 -60t-218 40l-47 -82l-125 70l49 84q-203 154 -203 424
q0 166 81 291t200 185t236 60t218 -40l47 81l125 -69l-49 -84q203 -154 203 -424z" />
    <glyph glyph-name="ugrave" unicode="&#xf9;" horiz-adv-x="1169" 
d="M567 1434l131 -283h-145l-205 283h219zM156 346v670h159v-662q0 -117 66 -178q67 -61 183 -61t203 92t87 239v570h160v-1016h-160v178q-109 -207 -338 -207q-154 1 -257 93t-103 282z" />
    <glyph glyph-name="uacute" unicode="&#xfa;" horiz-adv-x="1169" 
d="M471 1151l131 283h219l-205 -283h-145zM156 346v670h159v-662q0 -117 66 -178q67 -61 183 -61t203 92t87 239v570h160v-1016h-160v178q-109 -207 -338 -207q-154 1 -257 93t-103 282z" />
    <glyph glyph-name="ucircumflex" unicode="&#xfb;" horiz-adv-x="1169" 
d="M309 1151l205 283h139l205 -283h-139l-135 139l-135 -139h-140zM156 346v670h159v-662q0 -117 66 -178q67 -61 183 -61t203 92t87 239v570h160v-1016h-160v178q-109 -207 -338 -207q-154 1 -257 93t-103 282z" />
    <glyph glyph-name="udieresis" unicode="&#xfc;" horiz-adv-x="1169" 
d="M328 1204v189h188v-189h-188zM651 1204v189h189v-189h-189zM156 346v670h159v-662q0 -117 66 -178q67 -61 183 -61t203 92t87 239v570h160v-1016h-160v178q-109 -207 -338 -207q-154 1 -257 93t-103 282z" />
    <glyph glyph-name="yacute" unicode="&#xfd;" horiz-adv-x="1009" 
d="M393 1151l131 283h219l-204 -283h-146zM242 -432q-78 0 -127 20l24 144q41 -20 85 -20t71 22q27 23 49 78l76 192l-410 1012h176l322 -797l317 797h172l-510 -1256q-43 -106 -105 -149t-140 -43z" />
    <glyph glyph-name="thorn" unicode="&#xfe;" horiz-adv-x="1245" 
d="M649 897q-150 1 -248 -107t-98 -282t98 -282t248 -108t248 108t98 282t-98 282t-248 107zM156 -418v1852h159v-600q47 92 145 151t220 59q205 0 342 -147t137 -389t-141 -389t-348 -148q-238 0 -355 191v-580h-159z" />
    <glyph glyph-name="ydieresis" unicode="&#xff;" horiz-adv-x="1009" 
d="M250 1204v189h188v-189h-188zM573 1204v189h189v-189h-189zM242 -432q-78 0 -127 20l24 144q41 -20 85 -20t71 22q27 23 49 78l76 192l-410 1012h176l322 -797l317 797h172l-510 -1256q-43 -106 -105 -149t-140 -43z" />
    <glyph glyph-name="dotlessi" unicode="&#x131;" 
d="M156 0v1016h159v-1016h-159z" />
    <glyph glyph-name="Lslash" unicode="&#x141;" horiz-adv-x="1187" 
d="M195 1434h172v-721l333 213v-172l-333 -213v-389h718v-152h-890v432l-172 -108v172l172 108v830z" />
    <glyph glyph-name="lslash" unicode="&#x142;" horiz-adv-x="536" 
d="M188 1434h160v-742l152 96v-159l-152 -97v-532h-160v432l-151 -96v160l151 96v842z" />
    <glyph glyph-name="OE" unicode="&#x152;" horiz-adv-x="2369" 
d="M807 123q223 0 370 165q146 165 146 429t-146 429q-145 165 -369 165t-370 -165t-147 -429q1 -264 147 -429t369 -165zM1327 0v258q-186 -287 -520 -287q-295 0 -494 208t-198 538q1 329 199 537t493 208q365 0 520 -274v246h897v-152h-725v-465h668v-151h-668v-514h731
v-152h-903z" />
    <glyph glyph-name="oe" unicode="&#x153;" horiz-adv-x="2076" 
d="M1493 909q-129 0 -217 -81t-117 -216h668q-9 137 -107 217t-227 80zM616 115q156 0 262 111q105 112 105 282t-105 282q-106 112 -262 112t-261 -112t-105 -282t105 -282t261 -111zM1987 481h-840q8 -164 102 -269q93 -106 235 -106t221 60t134 172l117 -70
q-150 -297 -465 -297q-133 0 -247 65t-179 179q-74 -117 -196 -180t-253 -63q-132 0 -250 60t-199 185t-81 291t81 291t200 185t249 60t252 -64q123 -64 197 -179q69 113 183 179t249 64q225 0 357 -141t133 -366v-56z" />
    <glyph glyph-name="Scaron" unicode="&#x160;" horiz-adv-x="1329" 
d="M594 1569l-205 282h139l136 -139l135 139h139l-205 -282h-139zM656 1315q-138 1 -225 -59t-87 -165t95 -171t296 -103q463 -86 463 -418q0 -182 -144 -305t-377 -123t-383 126t-185 319l151 80q29 -184 139 -279q111 -94 276 -94t258 77q93 76 93 192t-93 184t-286 102
q-471 84 -471 412q0 164 135 268t333 104t336 -93t194 -251l-140 -82q-45 133 -143 206q-97 73 -235 73z" />
    <glyph glyph-name="scaron" unicode="&#x161;" horiz-adv-x="1005" 
d="M432 1151l-205 283h140l135 -140l135 140h139l-205 -283h-139zM303 772q0 -70 69 -110t201 -66q342 -66 342 -299q0 -137 -102 -231q-103 -94 -273 -94t-282 82q-112 83 -160 212l133 82q88 -238 299 -237q104 0 165 48t61 127t-62 121q-62 43 -206 69t-238 98t-94 197
q0 124 102 199t248 74q293 0 395 -245l-123 -72q-74 182 -270 182q-90 0 -148 -33q-57 -34 -57 -104z" />
    <glyph glyph-name="Ydieresis" unicode="&#x178;" horiz-adv-x="1130" 
d="M309 1622v188h189v-188h-189zM633 1622v188h188v-188h-188zM479 0v588l-471 846h187l325 -607q27 -51 45 -100l45 100l326 607h186l-471 -846v-588h-172z" />
    <glyph glyph-name="Zcaron" unicode="&#x17d;" horiz-adv-x="1224" 
d="M543 1569l-205 282h139l135 -139l136 139h139l-205 -282h-139zM117 1282v152h981v-152l-819 -1130h854v-152h-1047v147l825 1135h-794z" />
    <glyph glyph-name="zcaron" unicode="&#x17e;" horiz-adv-x="991" 
d="M426 1151l-205 283h139l136 -140l135 140h139l-205 -283h-139zM903 143v-143h-815v143l604 729h-577v144h757v-144l-608 -729h639z" />
    <glyph glyph-name="florin" unicode="&#x192;" horiz-adv-x="647" 
d="M76 -307q131 0 131 157v1039h-160v127h160v203q0 145 82 231t231 86q57 0 98 -14l-24 -136q-31 10 -68 11q-160 0 -159 -180v-201h233v-127h-233v-1041q0 -143 -70 -219t-201 -75q-68 0 -108 14l24 135q31 -10 64 -10z" />
    <glyph glyph-name="circumflex" unicode="&#x2c6;" horiz-adv-x="774" 
d="M113 1151l204 283h140l205 -283h-140l-135 139l-135 -139h-139z" />
    <glyph glyph-name="caron" unicode="&#x2c7;" horiz-adv-x="774" 
d="M317 1151l-204 283h139l135 -140l135 140h140l-205 -283h-140z" />
    <glyph glyph-name="breve" unicode="&#x2d8;" horiz-adv-x="585" 
d="M373 1376h131q0 -94 -60 -153t-151 -59t-151 58q-60 60 -60 154h131q0 -90 80 -90t80 90z" />
    <glyph glyph-name="dotaccent" unicode="&#x2d9;" 
d="M139 1192v201h193v-201h-193z" />
    <glyph glyph-name="ring" unicode="&#x2da;" horiz-adv-x="598" 
d="M102 1300q0 82 58 138t139 57q82 0 139 -56q58 -57 58 -139t-56 -138t-141 -56t-141 56t-56 138zM205 1300q1 -40 27 -68t67 -28t68 28t27 68t-27 69q-27 28 -68 28t-67 -28t-27 -69z" />
    <glyph glyph-name="ogonek" unicode="&#x2db;" horiz-adv-x="425" 
d="M70 -215q0 141 157 233l133 -18q-145 -78 -145 -170q0 -43 27 -68t73 -24q10 0 39 4l19 -135q-144 -40 -241 38q-62 50 -62 140z" />
    <glyph glyph-name="tilde" unicode="&#x2dc;" horiz-adv-x="966" 
d="M143 1256q-1 66 55 111q56 44 124 44q123 0 187 -69t122 -68q25 0 42 16t17 40t-14 52l123 25q25 -37 25 -105t-56 -110q-56 -43 -124 -43q-68 -1 -116 21t-70 48q-63 68 -117 68q-30 0 -47 -16q-35 -33 -3 -92l-123 -25q-25 37 -25 103z" />
    <glyph glyph-name="hungarumlaut" unicode="&#x2dd;" horiz-adv-x="931" 
d="M451 1151l131 283h219l-205 -283h-145zM131 1151l131 283h219l-205 -283h-145z" />
    <glyph glyph-name="pi" unicode="&#x3c0;" horiz-adv-x="1329" 
d="M1034 258q0 -150 113 -148q53 0 94 13l14 -133q-51 -18 -135 -19q-246 0 -246 256v662h-440v-889h-160v889h-213v127h1186v-127h-213v-631z" />
    <glyph glyph-name="endash" unicode="&#x2013;" horiz-adv-x="1058" 
d="M98 573v127h863v-127h-863z" />
    <glyph glyph-name="emdash" unicode="&#x2014;" horiz-adv-x="1632" 
d="M98 573v127h1436v-127h-1436z" />
    <glyph glyph-name="quoteleft" unicode="&#x2018;" horiz-adv-x="401" 
d="M285 1186v-201h-193v201l199 262l41 -31l-123 -231h76z" />
    <glyph glyph-name="quoteright" unicode="&#x2019;" horiz-adv-x="401" 
d="M117 1233v201h192v-201l-198 -262l-41 30l123 232h-76z" />
    <glyph glyph-name="quotesinglbase" unicode="&#x201a;" horiz-adv-x="401" 
d="M117 0v201h192v-201l-198 -262l-41 31l123 231h-76z" />
    <glyph glyph-name="quotedblleft" unicode="&#x201c;" horiz-adv-x="679" 
d="M563 1186v-201h-192v201l198 262l41 -31l-123 -231h76zM285 1186v-201h-193v201l199 262l41 -31l-123 -231h76z" />
    <glyph glyph-name="quotedblright" unicode="&#x201d;" horiz-adv-x="679" 
d="M117 1233v201h192v-201l-198 -262l-41 30l123 232h-76zM395 1233v201h193v-201l-199 -262l-41 30l123 232h-76z" />
    <glyph glyph-name="quotedblbase" unicode="&#x201e;" horiz-adv-x="679" 
d="M117 0v201h192v-201l-198 -262l-41 31l123 231h-76zM395 0v201h193v-201l-199 -262l-41 31l123 231h-76z" />
    <glyph glyph-name="dagger" unicode="&#x2020;" horiz-adv-x="933" 
d="M98 877v139h287v500h164v-500h287v-139h-287v-1102h-164v1102h-287z" />
    <glyph glyph-name="daggerdbl" unicode="&#x2021;" horiz-adv-x="933" 
d="M98 877v139h287v500h164v-500h287v-139h-287v-463h287v-140h-287v-499h-164v499h-287v140h287v463h-287z" />
    <glyph glyph-name="bullet" unicode="&#x2022;" horiz-adv-x="585" 
d="M106 563q0 76 56 131q56 56 131 56q76 0 131 -56t55 -131q0 -76 -55 -131t-131 -55q-75 0 -131 55t-56 131z" />
    <glyph glyph-name="ellipsis" unicode="&#x2026;" horiz-adv-x="1126" 
d="M98 0v201h193v-201h-193zM467 0v201h192v-201h-192zM836 0v201h192v-201h-192z" />
    <glyph glyph-name="perthousand" unicode="&#x2030;" horiz-adv-x="2373" 
d="M516 0l-106 72l890 1362l107 -72zM1706 330q0 -104 58 -168t154 -64t156 64q58 64 58 168t-58 168t-154 63q-96 0 -156 -63q-58 -64 -58 -168zM1145 330q0 -104 58 -168q59 -64 155 -64t154 64t58 168t-58 168t-154 63q-96 0 -155 -63q-58 -64 -58 -168zM242 1104
q0 -104 58 -168t154 -64t155 64t59 168t-58 168t-155 63q-96 0 -155 -63q-58 -64 -58 -168zM106 1104q0 152 98 255t251 103q152 0 250 -103t98 -255t-98 -255t-250 -103q-153 0 -251 102q-98 104 -98 256zM1010 330q0 152 98 255t264 103t266 -141q100 141 266 141
t265 -103q98 -103 98 -255t-98 -255t-264 -103t-267 139q-100 -139 -266 -139t-264 102q-98 104 -98 256z" />
    <glyph glyph-name="guilsinglleft" unicode="&#x2039;" horiz-adv-x="681" 
d="M418 971h190l-311 -408l311 -407h-190l-320 407z" />
    <glyph glyph-name="guilsinglright" unicode="&#x203a;" horiz-adv-x="681" 
d="M74 971h190l320 -408l-320 -407h-190l311 407z" />
    <glyph glyph-name="fraction" unicode="&#x2044;" horiz-adv-x="1079" 
d="M147 0l-106 72l891 1362l106 -72z" />
    <glyph glyph-name="Euro" unicode="&#x20ac;" horiz-adv-x="1554" 
d="M879 1462q438 0 559 -389l-150 -57q-92 295 -409 295q-166 -1 -282 -99t-159 -278h586l-57 -127h-549q-4 -57 -4 -90t4 -90h606l-57 -127h-531q43 -178 158 -278q114 -100 278 -99q164 0 262 81q97 81 152 251l154 -54q-60 -203 -206 -317t-366 -113q-220 -1 -388 141
q-167 142 -220 388h-174l57 127h99q-4 57 -4 90t4 90h-156l57 127h117q53 240 224 384t395 144z" />
    <glyph glyph-name="trademark" unicode="&#x2122;" horiz-adv-x="1736" 
d="M799 614v820h114l299 -695l299 695h115v-820h-106v596l-248 -596h-119l-248 596v-596h-106zM78 1331v103h610v-103h-246v-717h-118v717h-246z" />
    <glyph glyph-name="Omega" unicode="&#x2126;" horiz-adv-x="1613" 
d="M1456 152v-152h-526v180q158 66 276 220t117 380q0 225 -144 378q-143 153 -371 153t-372 -153t-145 -378q0 -225 118 -380t275 -220v-180h-526v152h321q-147 84 -256 257t-108 375q0 293 198 486q199 192 494 192t493 -192t199 -486q-1 -204 -109 -376t-255 -256h321z
" />
    <glyph glyph-name="arrowleft" unicode="&#x2190;" horiz-adv-x="1144" 
d="M1042 700v-127h-673l256 -256l-97 -94l-413 414l413 414l97 -95l-256 -256h673z" />
    <glyph glyph-name="arrowup" unicode="&#x2191;" horiz-adv-x="1015" 
d="M571 295h-127v674l-256 -256l-94 96l414 414l414 -414l-95 -96l-256 256v-674z" />
    <glyph glyph-name="arrowright" unicode="&#x2192;" horiz-adv-x="1144" 
d="M102 573v127h674l-256 256l96 95l414 -414l-414 -414l-96 94l256 256h-674z" />
    <glyph glyph-name="arrowdown" unicode="&#x2193;" horiz-adv-x="1015" 
d="M444 1223h127v-674l256 256l95 -96l-414 -414l-414 414l94 96l256 -256v674z" />
    <glyph glyph-name="arrowboth" unicode="&#x2194;" horiz-adv-x="1568" 
d="M1040 223l-96 94l256 256h-831l256 -256l-97 -94l-413 414l413 414l97 -95l-256 -256h831l-256 256l96 95l414 -414z" />
    <glyph glyph-name="arrowupdn" unicode="&#x2195;" horiz-adv-x="1015" 
d="M188 877l-94 96l414 413l414 -413l-95 -96l-256 256v-832l256 256l95 -96l-414 -414l-414 414l94 96l256 -256v832z" />
    <glyph glyph-name="uni2196" unicode="&#x2196;" horiz-adv-x="1060" 
d="M326 379h-136v586h586v-136h-360l477 -475l-90 -90l-477 475v-360z" />
    <glyph glyph-name="uni2197" unicode="&#x2197;" horiz-adv-x="1060" 
d="M870 379h-135v360l-477 -475l-90 90l477 475h-360v136h585v-586z" />
    <glyph glyph-name="uni2198" unicode="&#x2198;" horiz-adv-x="1060" 
d="M735 850h135v-586h-585v135h360l-477 475l90 91l477 -476v361z" />
    <glyph glyph-name="uni2199" unicode="&#x2199;" horiz-adv-x="1060" 
d="M190 850h136v-361l477 476l90 -91l-477 -475h360v-135h-586v586z" />
    <glyph glyph-name="partialdiff" unicode="&#x2202;" horiz-adv-x="1198" 
d="M264 434q0 -152 96 -236t229 -83q134 0 235 105q102 105 102 261t-92 239t-235 83t-239 -109q-96 -108 -96 -260zM1098 580q0 -258 -144 -434t-393 -175q-182 0 -321 123q-140 123 -140 340q0 216 140 364t366 148q113 0 196 -46t128 -124q-13 305 -181 458
q-93 85 -225 85q-92 0 -149 -41t-58 -96q0 -27 13 -56l-135 -57q-27 49 -27 107q0 114 103 200t279 86t304 -119t186 -312t58 -451z" />
    <glyph glyph-name="Delta" unicode="&#x2206;" horiz-adv-x="1343" 
d="M629 1124l-385 -981h854l-383 981l-43 119q-14 -45 -43 -119zM12 0l570 1434h180l569 -1434h-1319z" />
    <glyph glyph-name="product" unicode="&#x220f;" horiz-adv-x="1376" 
d="M180 -418v1852h1016v-1852h-172v1700h-672v-1700h-172z" />
    <glyph glyph-name="summation" unicode="&#x2211;" horiz-adv-x="1165" 
d="M90 1434h973v-152h-784l438 -688l-465 -688h835v-152h-1013v152l452 688l-436 688v152z" />
    <glyph glyph-name="minus" unicode="&#x2212;" horiz-adv-x="1036" 
d="M98 684v127h840v-127h-840z" />
    <glyph glyph-name="radical" unicode="&#x221a;" horiz-adv-x="1216" 
d="M66 602v127h327l170 -504l449 1209h159l-532 -1434h-160l-213 602h-200z" />
    <glyph glyph-name="infinity" unicode="&#x221e;" horiz-adv-x="1585" 
d="M1323 614q0 78 -52 132t-131 55q-79 0 -136 -47t-127 -140q70 -92 127 -139t136 -47t131 54t52 132zM262 614q0 -78 52 -132t132 -54t137 47q58 47 126 139q-70 92 -127 140t-136 47q-80 -1 -132 -55t-52 -132zM106 614q0 142 90 234t220 92q129 0 214 -57t163 -158
q81 99 163 157t212 58t220 -92t91 -234q0 -142 -90 -233q-91 -92 -221 -92t-214 56t-161 157q-166 -213 -363 -213q-144 0 -234 92t-90 233z" />
    <glyph glyph-name="integral" unicode="&#x222b;" horiz-adv-x="628" 
d="M76 -307q131 0 131 157v1369q0 145 82 231t231 86q57 0 98 -14l-24 -136q-31 10 -68 11q-159 0 -159 -180v-1369q0 -143 -70 -219t-201 -75q-68 0 -108 14l24 135q31 -10 64 -10z" />
    <glyph glyph-name="approxequal" unicode="&#x2248;" horiz-adv-x="915" 
d="M311 879q-33 -1 -50 -17t-17 -40t14 -52l-135 -25q-25 35 -25 86q0 85 58 135t140 50q81 0 137 -35t97 -69t74 -34t50 17q35 33 3 92l136 25q25 -35 24 -86q0 -86 -58 -135q-57 -49 -139 -49t-138 34q-56 35 -97 69t-74 34zM311 551q-33 0 -50 -16t-17 -40t14 -53
l-135 -24q-25 35 -25 86q0 86 58 135t140 49q81 0 137 -35t97 -69t74 -33q33 0 50 16q35 33 3 92l136 25q25 -35 24 -86q0 -86 -58 -135q-57 -49 -139 -49t-138 35t-97 69t-74 33z" />
    <glyph glyph-name="notequal" unicode="&#x2260;" horiz-adv-x="1036" 
d="M98 848v127h500l166 287l106 -64l-129 -223h197v-127h-270l-156 -262h426v-127h-500l-166 -287l-106 64l129 223h-197v127h271l155 262h-426z" />
    <glyph glyph-name="lessequal" unicode="&#x2264;" horiz-adv-x="1036" 
d="M98 0v127h840v-127h-840zM98 721v156l840 411v-164l-684 -325l684 -326v-164z" />
    <glyph glyph-name="greaterequal" unicode="&#x2265;" horiz-adv-x="1036" 
d="M98 0v127h840v-127h-840zM938 877v-156l-840 -412v164l684 326l-684 325v164z" />
    <glyph glyph-name="lozenge" unicode="&#x25ca;" horiz-adv-x="1187" 
d="M594 133l360 584l-360 581l-361 -581zM1130 717l-446 -717h-180l-447 717l447 717h180z" />
    <glyph glyph-name="apple" unicode="&#xf8ff;" horiz-adv-x="1597" 
d="M1317 104v844q-76 -124 -200 -200t-273 -89v-417zM281 948v-844l473 138v417q-150 12 -274 89t-199 200zM844 1370v-620q190 16 324 153t147 330zM754 750v620l-471 -137q13 -193 147 -330t324 -153zM1405 1264v-1219q0 -17 -13 -31q-14 -14 -26 -14t-20 2l-547 158
l-547 -158q-8 -2 -20 -2t-26 13q-13 13 -13 32v1219q0 35 32 45l553 159q23 8 41 0l553 -159q33 -10 33 -45z" />
    </font>
</defs>
</svg>
