<svg id="929a63f3-9ae3-4ac3-aaf2-1ac0400b1715" data-name="Calque 1" xmlns="http://www.w3.org/2000/svg" width="749.84" height="589.21" viewBox="0 0 749.84 589.21"><defs><style>.\35 c2dc610-f8bc-46a4-be60-886b3539f2ec,.c394ee36-b2f9-45a8-b5cb-0ed7b07a4e52{stroke:#fff;}.\35 c2dc610-f8bc-46a4-be60-886b3539f2ec,.c394ee36-b2f9-45a8-b5cb-0ed7b07a4e52,.d89a9cfc-e10a-44c8-9a49-82f7aaa1ce6a{stroke-miterlimit:10;stroke-width:1.5px;}.d89a9cfc-e10a-44c8-9a49-82f7aaa1ce6a{fill:#fff;stroke:#000;}.\35 c2dc610-f8bc-46a4-be60-886b3539f2ec{fill:none;}</style></defs><title>banana</title><path class="c394ee36-b2f9-45a8-b5cb-0ed7b07a4e52" d="M179.33,55.51a342.2,342.2,0,0,0,55,39.14c39.07,22.58,81.17,38.15,123.78,51.21,100,30.64,164.28,37.15,271.31,24.94,29-3.3,57.95-8.83,86.9-14.65,8.12-1.63,10.65-3,15.29,4.11a127.1,127.1,0,0,1,8.89,17.27c5.2,11.68,9.09,24.69,8.54,39-1,26.82-17.32,51.85-35.69,69.5-50.74,48.79-116.94,55.9-177,53.38-91.79-3.84-134.45-10.84-215.68-53a519.42,519.42,0,0,1-201-185.66c-9.41-15-18.23-30.73-25-48-6-15.31-1.23-25.61,15.78-38.19,6.78-5,4.35-10.07,11.84-12.07,12.12-3.22,13,4.34,18.9,13.58,3.8,6,9.27,10.41,14,15.2Z"/><path class="d89a9cfc-e10a-44c8-9a49-82f7aaa1ce6a" d="M105.06,45.85"/><path class="5c2dc610-f8bc-46a4-be60-886b3539f2ec" d="M121,32.83c17.93,46.31,55,91.33,89.48,119.6C357.4,272.78,514,295.25,700.91,233.14"/><path class="5c2dc610-f8bc-46a4-be60-886b3539f2ec" d="M728.05,156.69c-5.1,2.27-10.87,15.51-12.41,21.82s-4,12.34-4.4,18.73c-.65,10.56-4.67,20.61-7.89,30.85a18.88,18.88,0,0,0-1.28,6.41l-.37.17c3.21,2.77,10,1.85,14.12.24l9.2-3.57a52.19,52.19,0,0,0,5.92-2.59A35.35,35.35,0,0,0,741,220.28c4.18-5,7.55-11.57,7.54-18.21"/><path class="5c2dc610-f8bc-46a4-be60-886b3539f2ec" d="M96.26,52.29c8-1.12,25.3-16.79,24.92-19C119.75,24.75,130,16,132,6.4"/><path class="c394ee36-b2f9-45a8-b5cb-0ed7b07a4e52" d="M89.5,81.54a306,306,0,0,0,19.9,66.12c17.85,42,43.31,79.05,71,114,65,81.92,116.18,122.14,217.79,167.33,27.49,12.23,56.59,22.37,85.87,32.21,8.21,2.76,11.4,2.79,10.34,12a144.25,144.25,0,0,1-4.58,21c-3.8,13.79-9.69,28.14-20.33,41.33-20,24.79-51.95,39.79-80.46,46.74-78.78,19.19-141.31-9.17-191.66-43.36-77-52.27-109-81.49-149.5-164.38C8.46,293.79-8.26,197.52,5.5,92.6,8,73.44,11.55,53.91,17.93,34,23.6,16.36,35.09,9.17,58.82,6.31,68.28,5.16,69.76-.91,77.68,1.18,90.5,4.57,85.9,12.19,84.43,24c-1,7.66.64,14.75,1.37,21.79Z"/><path class="d89a9cfc-e10a-44c8-9a49-82f7aaa1ce6a" d="M31.89,33.07"/><path class="5c2dc610-f8bc-46a4-be60-886b3539f2ec" d="M55,29.22c-17.4,53.25-17.29,115.39-7.45,160.39C89.44,381.13,209.42,485.35,415.88,525.73"/><path class="5c2dc610-f8bc-46a4-be60-886b3539f2ec" d="M493.87,467.89c-6-.55-20.48,8.89-26.3,14s-12.26,9.53-17.15,15.36c-8.08,9.63-18.72,17-28.81,25a26.9,26.9,0,0,0-5.67,5.37l-.44,0c.82,4.32,7.36,7,12.08,7.71l10.53,1.5a55.81,55.81,0,0,0,7,.69,43.69,43.69,0,0,0,14.81-2.64c7.17-2.48,14.79-6.93,19.51-13.21"/><path class="5c2dc610-f8bc-46a4-be60-886b3539f2ec" d="M19.67,34.48C27.38,37.64,53.59,32,54.86,29.7c4.81-8.78,19.93-11.6,28.54-19.6"/></svg>