<svg id="a04827dc-b2c9-4b4a-8922-c0b6de65d523" data-name="929a63f3-9ae3-4ac3-aaf2-1ac0400b1715" xmlns="http://www.w3.org/2000/svg" width="737.07" height="581.51" viewBox="0 0 737.07 581.51"><defs><style>.\35 b69eb7b-e1f4-44a2-9641-0f1f333ee7e9,.\38 4c3f570-fc08-4fdf-9211-5bc3d903c3ff,.ac7c5d8f-8092-48ee-b7ec-f1221a5a6368{fill:#fff;}.\35 b69eb7b-e1f4-44a2-9641-0f1f333ee7e9,.\38 4c3f570-fc08-4fdf-9211-5bc3d903c3ff{stroke:#000;}.\35 b69eb7b-e1f4-44a2-9641-0f1f333ee7e9,.\38 4c3f570-fc08-4fdf-9211-5bc3d903c3ff,.c2a8a152-480b-4798-b6f0-9adc0cab6cd0{stroke-miterlimit:10;}.\38 4c3f570-fc08-4fdf-9211-5bc3d903c3ff,.c2a8a152-480b-4798-b6f0-9adc0cab6cd0{stroke-width:1.22px;}.c2a8a152-480b-4798-b6f0-9adc0cab6cd0{stroke:#fff;}.\35 b69eb7b-e1f4-44a2-9641-0f1f333ee7e9{stroke-width:1.32px;}</style></defs><title>banana</title><path class="84c3f570-fc08-4fdf-9211-5bc3d903c3ff" d="M109.63,46.1" transform="translate(-4 -2.47)"/><path class="c2a8a152-480b-4798-b6f0-9adc0cab6cd0" d="M59.09,30.11a2.11,2.11,0,0,1-.84.62c-9.87,54.91-13.94,124.35-6.52,157.71,42.18,189.63,155.63,295,363.5,335,0,0,2.5,0,7-.17,0,0,0-.08,0-.12a73.55,73.55,0,0,1,6.15-5.32c10.16-7.92,20.87-15.22,29-24.75,4.92-5.77,11.41-10.15,17.27-15.21S495.06,463.42,501.1,464l.54.08c-.79-4.1-4.15-4.63-10.42-6.7-29.48-9.74-58.78-19.78-86.46-31.89-102.3-44.74-153.83-84.57-219.28-165.68C157.61,225.17,132,188.49,114,146.9A299.24,299.24,0,0,1,94,81.44L90.24,46c-.73-7-2.39-14-1.38-21.57.68-5.38,2-9.88,2-13.5C82.16,18.79,63.91,21.46,59.09,30.11Z" transform="translate(-4 -2.47)"/><path class="c2a8a152-480b-4798-b6f0-9adc0cab6cd0" d="M59.09,30.11a2.11,2.11,0,0,1-.84.62c-9.87,54.91-13.94,124.35-6.52,157.71,42.18,189.63,155.63,295,363.5,335,0,0,2.5,0,7-.17,0,0,0-.08,0-.12a73.55,73.55,0,0,1,6.15-5.32c10.16-7.92,20.87-15.22,29-24.75,4.92-5.77,11.41-10.15,17.27-15.21S495.06,463.42,501.1,464l.54.08c-.79-4.1-4.15-4.63-10.42-6.7-29.48-9.74-58.78-19.78-86.46-31.89-102.3-44.74-153.83-84.57-219.28-165.68C157.61,225.17,132,188.49,114,146.9A299.24,299.24,0,0,1,94,81.44L90.24,46c-.73-7-2.39-14-1.38-21.57.68-5.38,2-9.88,2-13.5C82.16,18.79,63.91,21.46,59.09,30.11Z" transform="translate(-4 -2.47)"/><path class="c2a8a152-480b-4798-b6f0-9adc0cab6cd0" d="M452,532.91a57.11,57.11,0,0,1-7-.68l-10.6-1.49c-4.71-.7-11.2-3.31-12.13-7.51-4.5.17-7,.17-7,.17-207.87-40-321.33-145.34-363.5-335-7.42-33.37-3.35-102.8,6.52-157.71-4.9,2.5-29.15,7-36.55,4.3-6.29,19.48-9.82,38.6-12.31,57.36-13.85,103.88,3,199.2,42.66,279.14,40.78,82.07,73,111,150.52,162.76,50.69,33.85,113.65,61.93,193,42.93,28.7-6.88,60.87-21.73,81-46.28q2.07-2.52,3.9-5.09c-5.33,1.89-10.5,3.42-13.53,4.45A44.65,44.65,0,0,1,452,532.91Z" transform="translate(-4 -2.47)"/><path class="5b69eb7b-e1f4-44a2-9641-0f1f333ee7e9" d="M500.7,462.35l-.54-.08c-6-.54-19.68,10.5-25.54,15.56s-12.34,9.44-17.27,15.21c-8.14,9.53-18.85,16.83-29,24.75a73.55,73.55,0,0,0-6.15,5.32s0,.08,0,.12c.93,4.2,7.42,6.81,12.13,7.51l10.6,1.49a57.11,57.11,0,0,0,7,.68,44.65,44.65,0,0,0,14.91-2.61c3-1,6.2-1.18,11.53-3.06,2.36-3.31,6.46-8.05,8.32-11.45A121.54,121.54,0,0,0,497,490a140.78,140.78,0,0,0,4.61-20.79C501.89,467,501,463.66,500.7,462.35Z" transform="translate(-4 -2.47)"/><path class="ac7c5d8f-8092-48ee-b7ec-f1221a5a6368" d="M28.46,36.27a23.19,23.19,0,0,1-6.08-.62l0-.09c.15-.45.3-.9.46-1.33l3.54-7.64a30.17,30.17,0,0,1,8-8.84,42.86,42.86,0,0,1,9.92-5c.84-.33,1.65-.64,2.41-1l.62-.24a93.65,93.65,0,0,1,15.59-3,21.92,21.92,0,0,0,3.55-.73,10.69,10.69,0,0,0,1.25-.32,43.37,43.37,0,0,0,4.1-1.84c2.28-1.1,4.87-2.36,6.44-2.59h.47a9.74,9.74,0,0,1,1.39.1,23.15,23.15,0,0,1,7.49,3.05,6.82,6.82,0,0,1,2.33,5.49c-3.75,3.28-9.3,5.68-14.68,8-7.26,3.14-14.12,6.1-16.9,11.12h0a2.19,2.19,0,0,1-.58.37C54,33.11,38.46,36.27,28.46,36.27Z" transform="translate(-4 -2.47)"/><path d="M78.7,3.67A9.08,9.08,0,0,1,80,3.75a22.44,22.44,0,0,1,7.21,2.93,6.18,6.18,0,0,1,2.11,4.76C85.62,14.57,80.22,16.9,75,19.16c-7.31,3.16-14.22,6.14-17.14,11.28a2.92,2.92,0,0,1-.39.23c-3.67,1.88-19.08,5-29,5a25.84,25.84,0,0,1-5.31-.45l.26-.75,3.51-7.58a29.56,29.56,0,0,1,7.78-8.65,42.38,42.38,0,0,1,9.8-4.91c.85-.33,1.65-.64,2.43-1l.56-.22A93.45,93.45,0,0,1,63,9.14a22.18,22.18,0,0,0,3.56-.73,11.3,11.3,0,0,0,1.32-.34,43.61,43.61,0,0,0,4.17-1.86c2.24-1.09,4.79-2.32,6.28-2.54h.37m0-1.2h-.36l-.19,0c-2.73.4-7.92,3.51-10.66,4.45a10.75,10.75,0,0,1-1.22.31,21,21,0,0,1-3.41.7h0A94.47,94.47,0,0,0,47.1,11l-.65.25c-3.52,1.48-8,2.8-12.46,6a30.86,30.86,0,0,0-8.15,9.07L22.3,34c-.16.44-.31.89-.46,1.35l-.21.66a21.36,21.36,0,0,0,6.84.84c10.14,0,25.74-3.18,29.56-5.14a2.11,2.11,0,0,0,.83-.62c4.8-8.65,23-11.32,31.66-19.14A7.57,7.57,0,0,0,87.9,5.71a23.65,23.65,0,0,0-7.73-3.14,10.36,10.36,0,0,0-1.47-.1Z" transform="translate(-4 -2.47)"/><path class="ac7c5d8f-8092-48ee-b7ec-f1221a5a6368" d="M579.84,401.48c-21.2,0-44.29-2.5-70.59-7.64-93-18.17-133.57-32.2-206.14-84.56a515.59,515.59,0,0,1-171.05-212l-1.61-3.67c-6.35-14.47-12.35-28.15-16.09-44.3L114.8,48c7.07-.27,21.94-9.21,27.11-13.56C159.8,88,191.46,138.19,213.42,162.32c51.39,56.44,105.93,97.2,166.73,124.6,60.34,27.19,125.06,40.41,197.84,40.41h0c35.38,0,73.12-3.27,112.17-9.72,1.09.39,7.49,2.64,11.9,2.64a9,9,0,0,0,1.9-.18l9.7-2.09a54,54,0,0,0,6.35-1.65,36.19,36.19,0,0,0,11.53-6.88c4.27-3.68,7.11-7.36,8.71-11.31a68.49,68.49,0,0,1-1.12,8.3c-4.42,22.42-21.19,45.09-46,62.19C661.1,390.73,624,401.48,579.84,401.48Z" transform="translate(-4 -2.47)"/><path d="M141.62,35.48c18,53.27,49.47,103.19,71.35,127.25a572.2,572.2,0,0,0,80,73.21,464.8,464.8,0,0,0,87,51.53,448.77,448.77,0,0,0,94.78,30.46,519.82,519.82,0,0,0,103.33,10c35.36,0,73.08-3.26,112.11-9.7,1.45.52,7.62,2.62,12,2.62a9.61,9.61,0,0,0,2-.19l9.68-2.09a54.66,54.66,0,0,0,6.47-1.69,36.74,36.74,0,0,0,11.69-7,34.24,34.24,0,0,0,7.41-8.55q-.31,2.52-.79,5c-4.39,22.27-21.07,44.8-45.76,61.81-31.94,22-68.89,32.74-113,32.74-21.16,0-44.22-2.5-70.48-7.63-92.9-18.15-133.43-32.16-205.9-84.46A515,515,0,0,1,132.61,97.06L131,93.4c-6.32-14.4-12.29-28-16-44l.26-.76c7.15-.56,20.69-8.58,26.38-13.12m.58-2.06c-4.6,4.26-20.72,14-27.72,14h-.11l-.63,1.87c4.07,17.65,10.83,32.36,17.78,48.24A515.83,515.83,0,0,0,302.76,309.76c74.29,53.61,115.65,66.94,206.38,84.66,22.76,4.45,46.64,7.65,70.71,7.65,38.7,0,77.87-8.28,113.65-32.95,21-14.47,41.11-36.48,46.26-62.57A70.72,70.72,0,0,0,741.07,293l-.09.3c-1,6.5-4.88,11.42-9.82,15.67a35.71,35.71,0,0,1-11.32,6.76,53.25,53.25,0,0,1-6.29,1.63l-9.71,2.09a8.41,8.41,0,0,1-1.77.17c-4.69,0-11.85-2.66-11.85-2.66q-58.56,9.68-112.22,9.74c-143.53,0-262.07-52.69-364.15-164.82-24.25-26.66-55.1-78.53-71.67-128.5Z" transform="translate(-4 -2.47)"/><path d="M740.24,294.75c-1,6.5-4.88,11.42-9.82,15.67a35.71,35.71,0,0,1-11.32,6.76,53.25,53.25,0,0,1-6.29,1.63l-9.71,2.09c-4.35.95-13.62-2.49-13.62-2.49-137,26.64-370.09-2.55-497.64-142.65-30.26-33.24-79.07-60.1-79.07-60.1s14,11,13.49,21.81c-.72,15.53,23.15,28.22,30.74,40.31,6.61,10.53-2.6,28.42-2.6,28.42s31.42,32,50.76,36.07c43,9.07,62.85,44.38,96.84,68.91,74.29,53.6,115.65,66.94,206.38,84.66,59.36,11.6,126.32,14.72,184.35-25.3,21-14.47,41.11-36.48,46.26-62.57a70.73,70.73,0,0,0,1.33-13.53Z" transform="translate(-4 -2.47)"/><path class="5b69eb7b-e1f4-44a2-9641-0f1f333ee7e9" d="M740.31,292.06a98.55,98.55,0,0,0-3.77-23.54,124.39,124.39,0,0,0-6.17-18.25c-.8-1.75-3.5-4-4.3-5l-.62,0c-5.43,1.45-11.28,14.5-13.79,20.44s-5.89,11.46-7.28,17.66c-2.28,10.23-7.83,19.45-12.62,29a18.5,18.5,0,0,0-2.27,6.08s9.27,3.44,13.62,2.49l9.71-2.09a53.25,53.25,0,0,0,6.29-1.63,35.71,35.71,0,0,0,11.32-6.76c4.93-4.26,8.8-9.18,9.82-15.67l.09-.3C740.33,293.65,740.33,292.85,740.31,292.06Z" transform="translate(-4 -2.47)"/><path class="ac7c5d8f-8092-48ee-b7ec-f1221a5a6368" d="M579,328.82c-72.85,0-137.73-13.35-198.35-40.8-60.87-27.57-115.52-68.49-167-125.08-21.95-24.13-53.63-74.42-71.43-128a2.33,2.33,0,0,0,.26-2,1.68,1.68,0,0,1,0-.17c-.09-7.42,13.72-21.48,16.48-24.22,2.14,2.82,3.68,6.12,5.89,11.07s5.39,9,8.52,13c1,1.34,2.12,2.72,3.12,4.09l20.27,27.39a343.29,343.29,0,0,0,48.78,46.77c30.65,24.29,66.22,45.57,115.34,69C457.35,226,519.57,241.34,627,245.64c8.79.35,17.84.53,27.65.53,20.54,0,41.51-.79,61.12-1.64l2.14-.11c1.32-.07,2.46-.13,3.48-.13,2.25,0,3.86.27,5.29,1.53-5.68,2.06-13.12,13.72-15.62,19.65-.79,1.86-1.68,3.72-2.54,5.52a58.27,58.27,0,0,0-4.77,12.24c-1.82,8.15-5.82,15.83-9.7,23.26-1,1.86-1.94,3.71-2.87,5.58s-1.55,4.71-1.93,6.89l-.06.34A682,682,0,0,1,579,328.82Z" transform="translate(-4 -2.47)"/><path d="M158.76,9.47c1.9,2.65,3.37,5.81,5.41,10.4,2.19,4.94,5.44,9.12,8.59,13.15,1,1.33,2.12,2.71,3.12,4.08l20.27,27.39,0,0,0,0A343.91,343.91,0,0,0,245,111.37c30.69,24.32,66.3,45.63,115.45,69.07,50.27,24,88.59,38.4,128.15,48.24,39.82,9.9,82.5,15.32,138.38,17.55,8.8.35,17.85.53,27.68.53,20.55,0,41.53-.79,61.14-1.64L718,245c1.31-.07,2.44-.13,3.44-.13a7.9,7.9,0,0,1,4.11.8c-5.7,3-12.6,13.86-15,19.54-.78,1.85-1.67,3.7-2.53,5.5a58.72,58.72,0,0,0-4.81,12.37c-1.8,8.07-5.79,15.72-9.64,23.11-.95,1.82-1.93,3.69-2.86,5.56s-1.6,4.81-2,7A681,681,0,0,1,579,328.22a515.77,515.77,0,0,1-103.37-10.11,448.32,448.32,0,0,1-94.74-30.64,466.74,466.74,0,0,1-86.93-51.69A575.53,575.53,0,0,1,214,162.53c-21.87-24-53.42-74.12-71.22-127.47a3.06,3.06,0,0,0,.19-2.24l0-.09c0-6.21,10.62-18.09,15.81-23.26m.13-1.81S141.66,24.23,141.76,32.8c0,.33.49,1.29-.31,2,16.56,50,47.42,101.84,71.67,128.5C315.54,275.83,434.73,329.42,579,329.42a679.2,679.2,0,0,0,110.79-9.59c.39-2.14.9-5.61,2-7.49,4.79-9.53,10.34-18.75,12.62-29,1.39-6.19,4.77-11.72,7.28-17.66s10.3-18,15.72-19.46l.62,0c-1.75-2.11-3.67-2.59-6.56-2.59-1.56,0-3.4.14-5.65.24-20.41.89-40.8,1.64-61.09,1.64-9.23,0-18.45-.16-27.63-.53C518.7,240.7,455.76,224.56,361,179.37c-40.37-19.26-79.85-40.9-115.22-68.93a342,342,0,0,1-48.66-46.66L176.85,36.39c-4-5.41-8.72-10.55-11.58-17-2.38-5.33-4-8.77-6.38-11.72Z" transform="translate(-4 -2.47)"/><path d="M716.26,240.94c-29.7,1.29-59.36,2.3-88.72,1.11-90.26-3.61-149-15.42-220.87-45.38-13.47-19.06-14-89.73-1.61-108.42,6.13-9.28,5.6-19.93,8.23-28.91s9.93-16.28,7-24.06C417.2,27,416,20.16,414.22,15.5l0,0c-1.09,13.25-11.3,23.68-21.93,29.32A45.19,45.19,0,0,1,385,48c-13.1,4.21-26.39,3.87-39.57,6.4-3.95.76-20,9.18-17.77,16.28.38,20.53-33.46,73.15-35.17,84.83-2,11.42-2.51,24.61,2.18,39.35,8.36,29.58,40.32,60.21,77.58,80.79,23.14,14.21,61.89,27.46,83.3,31.46,80.75,19.85,141.53,25.73,234.1,10.43a32.34,32.34,0,0,1,2.63-8.17c4.79-9.53,10.34-18.75,12.62-29,1.39-6.19,5.91-12.8,8.41-18.74s6.06-10.91,10.28-13l4.82-1.81C725.67,243.58,722.69,240.66,716.26,240.94Z" transform="translate(-4 -2.47)"/><path class="ac7c5d8f-8092-48ee-b7ec-f1221a5a6368" d="M114.46,49.87c-3.51-15.5,2.36-25,21.68-34.92l.16-.09a18,18,0,0,0,6.38-5.67c1.68-2.19,3-3.93,7.14-4.36a13.45,13.45,0,0,1,1.38-.07,9.16,9.16,0,0,1,8.45,5l-.65.75,0,.06c-1.41,2.67-3.91,5.4-6.56,8.3-4.57,5-9.29,10.16-9.22,15.87h0A4.54,4.54,0,0,1,142.1,36c-4.38,4-20.36,13.9-27.59,14.1Z" transform="translate(-4 -2.47)"/><path d="M151.21,5.35a8.44,8.44,0,0,1,7.72,4.33l-.33.38-.09.11-.07.12c-1.37,2.6-3.85,5.31-6.47,8.17-4.6,5-9.35,10.22-9.38,16.1a5.93,5.93,0,0,1-.89,1C137,39.84,121.86,48.84,115,49.43c-1.69-7.71-.95-13.73,2.33-18.94s9.37-10,19.11-15l.17-.09.08,0a18.58,18.58,0,0,0,6.49-5.79c1.65-2.16,2.85-3.72,6.72-4.13a12.84,12.84,0,0,1,1.32-.07m0-1.2a14,14,0,0,0-1.45.08c-7.81.82-6.28,6.14-13.65,10.06l-.24.13c-19.21,9.89-25.66,19.41-22,35.59.06.25.12.49.18.74l.13-.09h.11c7.12,0,23.53-9.93,28.21-14.26.81-.75,1.28-1.34,1.28-1.67-.1-8.73,11.83-16.53,15.71-23.88l.88-1a9.76,9.76,0,0,0-9.17-5.69Z" transform="translate(-4 -2.47)"/></svg>