<svg id="d3034b16-6bb2-43b1-b167-a70d56f95e51" data-name="929a63f3-9ae3-4ac3-aaf2-1ac0400b1715" xmlns="http://www.w3.org/2000/svg" width="776.86" height="613.07" viewBox="0 0 776.86 613.07"><defs><style>.\33 cda7fc1-bd6a-4bf8-a593-d1ecbbc2f537{stroke:#fff;stroke-width:1.22px;}.\30 ea6a9fe-2194-49e2-809e-487946bb8db7,.\33 cda7fc1-bd6a-4bf8-a593-d1ecbbc2f537,.\36 cfff2b0-5606-4012-aebd-d79fc32a2a37{stroke-miterlimit:10;}.\30 ea6a9fe-2194-49e2-809e-487946bb8db7,.\36 cfff2b0-5606-4012-aebd-d79fc32a2a37,.\38 7e88858-8528-453c-8079-c6bda2c18e80{fill:#fff;}.\30 ea6a9fe-2194-49e2-809e-487946bb8db7,.\36 cfff2b0-5606-4012-aebd-d79fc32a2a37{stroke:#000;}.\36 cfff2b0-5606-4012-aebd-d79fc32a2a37{stroke-width:1.32px;}</style></defs><title>BANANA</title><path class="3cda7fc1-bd6a-4bf8-a593-d1ecbbc2f537" d="M391.6,123a1.71,1.71,0,0,1-.9.6c-10.4,57.9-14.7,131.1-6.9,166.2,44.5,200,164.1,311,383.2,353.2,0,0,2.6,0,7.4-.2v-.1a79.91,79.91,0,0,1,6.5-5.6c10.7-8.3,22-16,30.6-26.1,5.2-6.1,12-10.7,18.2-16s21.5-15.2,27.9-14.6l.6.1c-.8-4.3-4.4-4.9-11-7.1-31.1-10.3-62-20.9-91.1-33.6C648.3,492.6,593.9,450.7,525,365.2c-29.4-36.5-56.4-75.1-75.4-119a309.2,309.2,0,0,1-21.1-69l-3.9-37.3c-.8-7.3-2.5-14.7-1.5-22.7.7-5.7,2.1-10.4,2.1-14.2C415.9,111,396.7,113.9,391.6,123Z" transform="translate(-333.54 -93.8)"/><path class="3cda7fc1-bd6a-4bf8-a593-d1ecbbc2f537" d="M391.6,123a1.71,1.71,0,0,1-.9.6c-10.4,57.9-14.7,131.1-6.9,166.2,44.5,200,164.1,311,383.2,353.2,0,0,2.6,0,7.4-.2v-.1a79.91,79.91,0,0,1,6.5-5.6c10.7-8.3,22-16,30.6-26.1,5.2-6.1,12-10.7,18.2-16s21.5-15.2,27.9-14.6l.6.1c-.8-4.3-4.4-4.9-11-7.1-31.1-10.3-62-20.9-91.1-33.6C648.3,492.6,593.9,450.7,525,365.2c-29.4-36.5-56.4-75.1-75.4-119a309.2,309.2,0,0,1-21.1-69l-3.9-37.3c-.8-7.3-2.5-14.7-1.5-22.7.7-5.7,2.1-10.4,2.1-14.2C415.9,111,396.7,113.9,391.6,123Z" transform="translate(-333.54 -93.8)"/><path class="3cda7fc1-bd6a-4bf8-a593-d1ecbbc2f537" d="M805.8,653a59.82,59.82,0,0,1-7.4-.7l-11.2-1.6c-5-.7-11.8-3.5-12.8-7.9-4.7.2-7.4.2-7.4.2C547.9,600.9,428.3,489.8,383.8,289.9c-7.8-35.2-3.5-108.4,6.9-166.2-5.2,2.6-30.7,7.4-38.5,4.5-6.6,20.5-10.3,40.7-13,60.5-14.6,109.5,3.1,210,45,294.2,43,86.5,76.9,117,158.7,171.6,53.4,35.7,119.8,65.3,203.4,45.3,30.3-7.3,64.2-22.9,85.4-48.8,1.5-1.8,2.8-3.6,4.1-5.4-5.6,2-11.1,3.6-14.3,4.7A49.81,49.81,0,0,1,805.8,653Z" transform="translate(-333.54 -93.8)"/><path class="0ea6a9fe-2194-49e2-809e-487946bb8db7" d="M857.1,578.6l-.6-.1c-6.4-.6-20.7,11.1-26.9,16.4s-13,9.9-18.2,16c-8.6,10.1-19.9,17.7-30.6,26.1a79.91,79.91,0,0,0-6.5,5.6v.1c1,4.4,7.8,7.2,12.8,7.9l11.2,1.6a61.72,61.72,0,0,0,7.4.7,46.36,46.36,0,0,0,15.7-2.8c3.2-1.1,6.5-1.2,12.2-3.2,2.5-3.5,6.8-8.5,8.8-12.1a128.34,128.34,0,0,0,10.8-27.2,150.48,150.48,0,0,0,4.9-21.9C858.3,583.5,857.4,580,857.1,578.6Z" transform="translate(-333.54 -93.8)"/><path class="87e88858-8528-453c-8079-c6bda2c18e80" d="M359.3,129.6a23.27,23.27,0,0,1-6.6-.7l.1-.2c.2-.5.3-.9.5-1.4l3.7-8.1a32.85,32.85,0,0,1,8.4-9.4,49.27,49.27,0,0,1,10.5-5.3c.9-.3,1.7-.7,2.5-1a4.88,4.88,0,0,1,.7-.3,98.61,98.61,0,0,1,16.5-3.2,22.09,22.09,0,0,0,3.7-.8,8.57,8.57,0,0,0,1.3-.3,35.85,35.85,0,0,0,4.3-1.9c2.4-1.2,5.2-2.5,6.8-2.7h.5a7.57,7.57,0,0,1,1.5.1,23.41,23.41,0,0,1,7.9,3.2,7.17,7.17,0,0,1,2.5,6c-4,3.5-9.9,6-15.6,8.5-7.6,3.3-14.8,6.4-17.8,11.7,0,0-.1.2-.7.4-3.7,2.1-20.2,5.4-30.7,5.4Z" transform="translate(-333.54 -93.8)"/><path d="M412.3,94.8a6.6,6.6,0,0,1,1.4.1,23.05,23.05,0,0,1,7.7,3.1,6.59,6.59,0,0,1,2.3,5.3c-3.9,3.4-9.7,5.9-15.2,8.3-7.7,3.3-15,6.5-18,11.8a5.19,5.19,0,0,0-.5.3c-3.9,2-20.2,5.3-30.7,5.3a29.35,29.35,0,0,1-5.9-.5,4.88,4.88,0,0,1,.4-1.1l3.7-8a30.51,30.51,0,0,1,8.3-9.2,42,42,0,0,1,10.4-5.2c.9-.3,1.7-.7,2.6-1a1.42,1.42,0,0,1,.6-.2,99.31,99.31,0,0,1,16.4-3.2,22.09,22.09,0,0,0,3.7-.8,4.67,4.67,0,0,0,1.4-.4c1.2-.4,2.7-1.2,4.4-2,2.4-1.2,5.1-2.5,6.7-2.7h.1c-.1.1,0,.1.2.1m0-1h-.6c-2.9.4-8.4,3.7-11.2,4.7a8.57,8.57,0,0,1-1.3.3,19.14,19.14,0,0,1-3.6.7h0a108.89,108.89,0,0,0-16.6,3.2c-.2.1-.5.2-.7.3-3.7,1.6-8.4,3-13.1,6.3a31.77,31.77,0,0,0-8.6,9.6l-3.8,8.1c-.2.5-.3.9-.5,1.4-.1.2-.1.5-.2.7a23,23,0,0,0,7.2.9c10.7,0,27.1-3.4,31.2-5.4a2.64,2.64,0,0,0,.9-.6c5.1-9.1,24.2-11.9,33.4-20.2a7.93,7.93,0,0,0-2.8-6.6,23.08,23.08,0,0,0-8.1-3.3c-.6,0-1.2-.1-1.6-.1Z" transform="translate(-333.54 -93.8)"/><path class="87e88858-8528-453c-8079-c6bda2c18e80" d="M940.5,514.6c-22.4,0-46.7-2.6-74.4-8.1-98.1-19.2-140.8-33.9-217.3-89.2A544.22,544.22,0,0,1,468.4,193.8l-1.7-3.9c-6.7-15.3-13-29.7-17-46.8l.5-1.5c7.5-.2,23.4-9.9,28.7-14.4,18.8,56.4,52.2,109.5,75.4,134.9C608.5,321.6,665.9,364.5,730,393.4,793.6,422.1,861.8,436,938.5,436h0a728.27,728.27,0,0,0,118.2-10.2c1,.4,7.9,2.8,12.5,2.8a12.31,12.31,0,0,0,2-.2l10.2-2.2a54.82,54.82,0,0,0,6.7-1.7,38.86,38.86,0,0,0,12.1-7.2c4.8-4.1,7.9-8.2,9.5-12.7a77.88,77.88,0,0,1-1.2,9.7c-4.7,23.7-22.4,47.6-48.6,65.6C1026.2,503.2,987.1,514.6,940.5,514.6Z" transform="translate(-333.54 -93.8)"/><path d="M478.7,128.2c18.9,56.3,52.2,109,75.3,134.4a601.25,601.25,0,0,0,84.2,77.1A492.8,492.8,0,0,0,729.8,394a477.58,477.58,0,0,0,99.9,32.1,547.45,547.45,0,0,0,108.9,10.5,729.21,729.21,0,0,0,118.2-10.2c1.4.5,8,2.8,12.6,2.8a12.48,12.48,0,0,0,2.1-.2l10.2-2.2a42.72,42.72,0,0,0,6.8-1.8,37.76,37.76,0,0,0,12.2-7.3,34.71,34.71,0,0,0,8.4-10.1c-.2,2.2-.6,4.4-1,6.6-4.6,23.5-22.3,47.4-48.3,65.3-33.7,23.3-72.7,34.6-119.2,34.6-22.3,0-46.6-2.6-74.3-8-46.7-9.1-82.2-17.4-115.1-30.4C719,463,688.5,445.4,649.1,417A543.33,543.33,0,0,1,468.9,193.7c-.6-1.3-1.1-2.6-1.7-3.9-6.7-15.2-13-29.6-16.9-46.5l.4-1c7.4-.6,22.2-9.4,28-14.1m.5-1.7c-4.8,4.5-21.8,14.8-29.2,14.8h-.1l-.7,2c4.3,18.6,11.4,34.1,18.7,50.9A544.39,544.39,0,0,0,648.4,417.9c78.3,56.5,121.9,70.6,217.5,89.2,24,4.7,49.2,8.1,74.5,8.1,40.8,0,82.1-8.7,119.8-34.7,22.1-15.3,43.3-38.5,48.8-66a70,70,0,0,0,1.4-14.3l-.1.3c-1.1,6.8-5.1,12-10.3,16.5a36.92,36.92,0,0,1-11.9,7.1,53.35,53.35,0,0,1-6.6,1.7l-10.2,2.2a11.07,11.07,0,0,1-1.9.2c-4.9,0-12.5-2.8-12.5-2.8q-61.8,10.2-118.3,10.3c-151.3,0-276.3-55.5-383.9-173.7-25.5-28.2-58.1-82.9-75.5-135.5Z" transform="translate(-333.54 -93.8)"/><path d="M1109.6,401.9c-1.1,6.8-5.1,12-10.3,16.5a36.92,36.92,0,0,1-11.9,7.1,53.35,53.35,0,0,1-6.6,1.7l-10.2,2.2c-4.6,1-14.4-2.6-14.4-2.6C911.7,455,666,424.2,531.5,276.5c-31.9-35-83.3-63.4-83.3-63.4s14.7,11.6,14.2,23c-.8,16.4,24.4,29.7,32.4,42.5,7,11.1-2.7,30-2.7,30s33.1,33.7,53.5,38c45.4,9.6,66.2,46.8,102.1,72.6,78.3,56.5,121.9,70.6,217.5,89.2,62.6,12.2,133.2,15.5,194.3-26.7,22.1-15.3,43.3-38.5,48.8-66a70,70,0,0,0,1.4-14.3Z" transform="translate(-333.54 -93.8)"/><path class="6cfff2b0-5606-4012-aebd-d79fc32a2a37" d="M1109.7,399.1a101.22,101.22,0,0,0-4-24.8,127.55,127.55,0,0,0-6.5-19.2c-.8-1.8-3.7-4.2-4.5-5.2h-.7c-5.7,1.5-11.9,15.3-14.5,21.5s-6.2,12.1-7.7,18.6c-2.4,10.8-8.3,20.5-13.3,30.6a18.39,18.39,0,0,0-2.4,6.4s9.8,3.6,14.4,2.6l10.2-2.2a49.14,49.14,0,0,0,6.6-1.7,36.92,36.92,0,0,0,11.9-7.1c5.2-4.5,9.3-9.7,10.3-16.5l.1-.3A26.24,26.24,0,0,0,1109.7,399.1Z" transform="translate(-333.54 -93.8)"/><path class="87e88858-8528-453c-8079-c6bda2c18e80" d="M939.6,438c-76.8,0-145.2-14.1-209.1-43-64.2-29.1-121.8-72.2-176.1-131.9-23.2-25.5-56.6-78.5-75.3-135a2.39,2.39,0,0,0,.3-2.1v-.2c-.1-8,14.9-23.1,17.5-25.7,2.3,3,4,6.5,6.3,11.8,2.3,5.1,5.7,9.5,9,13.7,1.1,1.4,2.2,2.9,3.3,4.3l21.4,28.9a363.25,363.25,0,0,0,51.4,49.3c32.3,25.6,69.8,48,121.6,72.7C811.4,329.3,877,345.5,990.3,350c9.3.4,18.8.6,29.1.6,21.6,0,43.8-.8,64.4-1.7.8,0,1.6-.1,2.3-.1,1.4-.1,2.6-.1,3.7-.1,2.5,0,4.2.3,5.8,1.8-5.9,1.9-14,14.6-16.6,20.7-.8,2-1.8,3.9-2.7,5.8a59.45,59.45,0,0,0-5,12.9c-1.9,8.6-6.1,16.7-10.2,24.6-1,2-2,3.9-3,5.9-1.1,1.8-1.6,4.9-2,7.2l-.1.5C1015.5,434.6,976.4,438,939.6,438Z" transform="translate(-333.54 -93.8)"/><path d="M496.7,100.8c2.1,2.9,3.7,6.3,5.9,11.3,2.3,5.2,5.7,9.6,9,13.8,1.1,1.4,2.2,2.9,3.3,4.3l21.4,28.9h0a363.25,363.25,0,0,0,51.4,49.3c32.3,25.6,69.9,48.1,121.7,72.8,53,25.3,93.4,40.5,135,50.8,42,10.4,86.9,16.1,145.8,18.5,9.3.4,18.8.6,29.2.6,21.7,0,43.8-.8,64.4-1.7.8,0,1.6-.1,2.3-.1,1.4-.1,2.6-.1,3.6-.1a8.49,8.49,0,0,1,4.9,1.1c-6,2.8-13.5,14.6-16.1,20.7-.8,2-1.8,3.9-2.7,5.8a63.89,63.89,0,0,0-5.1,13c-1.9,8.5-6.1,16.6-10.2,24.4-1,1.9-2,3.9-3,5.9s-1.7,5.1-2.1,7.4v.1c-40.3,6.6-79.3,10-115.9,10a541.67,541.67,0,0,1-109-10.7,474.12,474.12,0,0,1-99.9-32.3,494.65,494.65,0,0,1-91.7-54.5c-29.1-21.8-57.4-47.8-84.3-77.3-23.1-25.4-56.4-78.3-75.2-134.6a2.75,2.75,0,0,0,.2-2.3v-.1c.1-7.5,13.6-21.5,17.1-25m.1-1.5s-18.2,17.5-18.1,26.5c0,.3.5,1.4-.3,2.1,17.5,52.7,50,107.4,75.5,135.5C661.9,382,787.5,438.5,939.5,438.5q55.95,0,116.8-10.1c.4-2.3,1-5.9,2.1-7.9,5-10,10.9-19.8,13.3-30.6,1.5-6.5,5-12.4,7.7-18.6s10.9-19,16.6-20.5h.7c-1.8-2.2-3.9-2.7-6.9-2.7-1.6,0-3.6.1-6,.2-21.5.9-43,1.7-64.4,1.7q-14.55,0-29.1-.6c-114.2-4.6-180.6-21.6-280.5-69.2-42.6-20.3-84.2-43.1-121.5-72.7A361.81,361.81,0,0,1,537,158.3l-21.4-28.9c-4.2-5.7-9.2-11.1-12.2-17.9-2.4-5.5-4.1-9.1-6.6-12.2Z" transform="translate(-333.54 -93.8)"/><path d="M1084.3,345.2c-31.3,1.4-62.6,2.4-93.5,1.2-95.1-3.8-157.1-16.3-232.8-47.8-14.2-20.1-14.7-94.6-1.7-114.3,6.5-9.8,5.9-21,8.7-30.5s10.5-17.2,7.4-25.4c-3.3-8.7-4.6-16-6.4-20.9v.1c-1.1,14-11.9,25-23.1,30.9a45.74,45.74,0,0,1-7.7,3.3c-13.8,4.4-27.8,4.1-41.7,6.7-4.2.8-21.1,9.7-18.7,17.2.4,21.6-35.3,77.1-37.1,89.4-2.1,12-2.6,25.9,2.3,41.5,8.8,31.2,42.5,63.5,81.8,85.2,24.4,15,65.2,28.9,87.8,33.2,85.1,20.9,149.2,27.1,246.8,11a32.1,32.1,0,0,1,2.8-8.6c5-10,10.9-19.8,13.3-30.6,1.5-6.5,6.2-13.5,8.9-19.8s6.4-11.5,10.8-13.7l5.1-1.9C1094.2,348,1091.1,344.9,1084.3,345.2Z" transform="translate(-333.54 -93.8)"/><path class="87e88858-8528-453c-8079-c6bda2c18e80" d="M449.8,143.8c-3.7-16.4,2.5-26.4,22.9-37l.3-.1a19.54,19.54,0,0,0,6.6-5.9c1.8-2.3,3.2-4.2,7.6-4.7a7.57,7.57,0,0,1,1.5-.1,10.06,10.06,0,0,1,9.1,5.4l-.7.8v.1c-1.5,2.8-4.1,5.7-6.9,8.8-4.8,5.2-9.8,10.7-9.7,16.6,0,0-.1.4-1.2,1.4-4.6,4.3-21.7,14.8-29.3,14.9A.22.22,0,0,1,449.8,143.8Z" transform="translate(-333.54 -93.8)"/><path d="M488.7,96.6a9.36,9.36,0,0,1,8.5,4.9l-.5.5-.1.1-.1.1c-1.5,2.8-4.1,5.6-6.9,8.7-4.8,5.3-9.8,10.7-9.8,16.9-.1.1-.3.4-1,1.1-5,4.6-21.4,14.3-28.6,14.7-3.6-16.1,2.5-25.9,22.7-36.3.1,0,.1-.1.2-.1h.1a19.66,19.66,0,0,0,6.8-6c1.8-2.3,3.1-4,7.3-4.5a6.15,6.15,0,0,1,1.4-.1m0-1a7.57,7.57,0,0,0-1.5.1c-8.2.9-6.6,6.5-14.4,10.6-.1,0-.2.1-.3.1-20.2,10.4-27,20.5-23.2,37.5.1.3.1.5.2.8l.1-.1h.1c7.5,0,24.8-10.5,29.7-15,.9-.8,1.4-1.4,1.3-1.8-.1-9.2,12.5-17.4,16.6-25.2l.9-1.1a10,10,0,0,0-9.5-5.9Z" transform="translate(-333.54 -93.8)"/></svg>