<?xml version="1.0" encoding="utf-8"?>
<!-- Generator: Adobe Illustrator 22.1.0, SVG Export Plug-In . SVG Version: 6.00 Build 0)  -->
<svg version="1.1" id="_x39_29a63f3-9ae3-4ac3-aaf2-1ac0400b1715"
	 xmlns="http://www.w3.org/2000/svg" xmlns:xlink="http://www.w3.org/1999/xlink" x="0px" y="0px" viewBox="0 0 1440 800"
	 style="enable-background:new 0 0 1440 800;" xml:space="preserve">
<style type="text/css">
	.st0{fill:#FFFFFF;stroke:#05051C;stroke-linecap:round;stroke-linejoin:round;stroke-miterlimit:10;}
	.st1{fill:none;stroke:#05051C;stroke-linecap:round;stroke-linejoin:round;stroke-miterlimit:10;}
	.st2{fill:#05051C;stroke:#05051C;stroke-linecap:round;stroke-linejoin:round;stroke-miterlimit:10;}
	.st3{fill:#05051C;stroke:#FFFFFF;stroke-linecap:round;stroke-linejoin:round;stroke-miterlimit:10;}
	.st4{fill:#FFFFFF;}
</style>
<g>
	<path class="st0" d="M501.9,640.7V435.3c0-10.1,5.4-15.1,12-15.1h410c6.6,0,12,5,12,11.1v205.4"/>
	<path class="st0" d="M935.9,637.7c0,25.9-97.2,46.8-217,46.8s-217-21-217-46.8"/>
	<path class="st1" d="M935.9,585.4c0,20.7-97.2,37.5-217,37.5s-217-16.8-217-37.5"/>
	<path class="st1" d="M935.9,534.5c0,20.7-97.2,37.5-217,37.5s-217-16.8-217-37.5"/>
	<path class="st2" d="M636.8,500c0,21.8,4,39.5,9,39.5c4.4,0,8.1-13.9,8.8-32.3c1.2,0.8,2.4,1.3,3.7,1.3c6.9,0,12.5-13.2,12.5-29.5
		v-0.1 M731.1,534.5c0,42.5,17.4,80,29.2,80c3.4,0,6.7-2.9,9.6-8.1c0.9,21.4,7.9,38.1,16.4,38.1c3,0,5.9-2.1,8.3-5.8
		c4.5,3.7,9.5,5.8,14.8,5.8c19.1,0,26.5-94.8,26.5-128.5c0-3.6-1.9,1.3-0.1,5.5l7.7,51.4c3.7,19.7,9.8,32.6,16.7,32.6
		c5.8,0,11-9.1,14.8-23.8c1.7,32.1,11.2,56.7,22.7,56.7c12.2,0,26.2-63.7,27-98.8c-5-17,25,110,19-31c-1-23.1-2.5-46.2-5-61
		c-0.4-10.6-3-12.4-3-17.3c0-23.6-97.2-42.7-217-42.7s-217,19.1-217,42.7c0,3.6-14.8,129.1,0.2,103.3c14.2-24.4,3.5,47.6,8.7,57.6
		c2.7,19.8,9,33.7,16.3,33.7c9.8,0,17.7-25,17.7-55.9c0-5.5-0.3-10.8-0.7-15.8c0.2,0.1,0.5,0.2,0.7,0.2c2.3,0,4.5-4.7,6.2-12.6
		c3.5,16,9.8,26.8,17,26.8c4,0,7.6-3.2,10.7-8.8c1.6,24.6,5.1,41.8,9.2,41.8c3.1,0,5.8-9.6,7.6-24.8c2.6,11.6,6.1,18.8,10.1,18.8
		c3.4,0,6.5-5.4,9-14.5c1.7,37.6,6.1,64.5,11.3,64.5c6.6,0,12-43.4,12-97c0-32.1,36.4-77,5.6-64.5 M667.8,493.5
		c0,26,6.8,83.2,16.4,92c-0.3,4.2-0.4,8.5-0.4,13c0,28.2,5.6,51,12.5,51c6.6,0,12-20.9,12.5-47.3c2.4,14,5.6,22.6,9.2,22.6
		c7.2,0,13.1-35.7,13.1-79.7c0-1.2,0-2.3,0-3.5c-0.1-9.4,0-23.1,0-32.5"/>
	<path class="st0" d="M725.1,302.3"/>
	<path class="st0" d="M738.1,315.4v112.4c0,6.6-34.6,6.6-34.6,0V317"/>
	<path class="st3" d="M927,437.8L927,437.8c1.6,0.2,2.3,0.9,1.5,1.4l-1.8,1.3c-0.7,0.5-2.6,0.8-4.1,0.5l0,0
		c-1.6-0.2-2.3-0.9-1.5-1.4l1.8-1.3C923.6,437.8,925.5,437.6,927,437.8z"/>
	<path class="st3" d="M601.5,450.1L601.5,450.1c1.1-0.5,3-0.5,4.4-0.2l3.4,0.9c1.3,0.4,1.6,1,0.5,1.5l0,0c-1.1,0.5-3,0.5-4.4,0.2
		l-3.4-0.9C600.7,451.2,600.4,450.5,601.5,450.1z"/>
	<path class="st3" d="M568.4,438.3L568.4,438.3c1.1-0.5,3-0.5,4.4-0.2l3.4,0.9c1.3,0.4,1.6,1,0.5,1.5l0,0c-1.1,0.5-3,0.5-4.4,0.2
		l-3.4-0.9C567.6,439.5,567.3,438.8,568.4,438.3z"/>
	<path class="st3" d="M639.7,431.9L639.7,431.9c1.4,0.3,1.8,1,0.8,1.5l-2.4,1.2c-1,0.5-2.9,0.6-4.3,0.3l0,0c-1.4-0.3-1.8-1-0.8-1.5
		l2.4-1.2C636.4,431.7,638.3,431.6,639.7,431.9z"/>
	<path class="st3" d="M688.6,430.2L688.6,430.2c1.4,0.3,1.8,1,0.8,1.5l-2.4,1.2c-1,0.5-2.9,0.6-4.3,0.3l0,0c-1.4-0.3-1.8-1-0.8-1.5
		l2.4-1.2C685.3,430,687.2,429.9,688.6,430.2z"/>
	<path class="st3" d="M579.8,415.7L579.8,415.7c1.4,0.3,1.8,1,0.8,1.5l-2.4,1.2c-1,0.5-2.9,0.6-4.3,0.3l0,0c-1.4-0.3-1.8-1-0.8-1.5
		l2.4-1.2C576.5,415.5,578.4,415.4,579.8,415.7z"/>
	<path class="st3" d="M856.5,439.1L856.5,439.1c1.1-0.5,3-0.5,4.4-0.2l3.4,0.9c1.3,0.4,1.6,1,0.5,1.5l0,0c-1.1,0.5-3,0.5-4.4,0.2
		l-3.4-0.9C855.6,440.2,855.4,439.6,856.5,439.1z"/>
	<path class="st3" d="M879.5,417.7L879.5,417.7c1.1-0.5,3-0.5,4.4-0.2l3.4,0.9c1.3,0.4,1.6,1,0.5,1.5l0,0c-1.1,0.5-3,0.5-4.4,0.2
		l-3.4-0.9C878.6,418.8,878.4,418.2,879.5,417.7z"/>
	<path class="st3" d="M706.8,469.1L706.8,469.1c0.1-0.6,1.6-1,3.3-1l4.3,0.1c1.7,0,3,0.5,2.9,1.1l0,0c-0.1,0.6-1.6,1-3.3,1l-4.3-0.1
		C708,470.2,706.7,469.7,706.8,469.1z"/>
	<path class="st3" d="M845.3,458.2L845.3,458.2c0.1-0.6,1.6-1,3.3-1l4.3,0.1c1.7,0,3,0.5,2.9,1.1l0,0c-0.1,0.6-1.6,1-3.3,1l-4.3-0.1
		C846.5,459.3,845.2,458.8,845.3,458.2z"/>
	<path class="st3" d="M840,412.7L840,412.7c0.1-0.6,1.6-1,3.3-1l4.3,0.1c1.7,0,3,0.5,2.9,1.1l0,0c-0.1,0.6-1.6,1-3.3,1l-4.3-0.1
		C841.2,413.7,839.9,413.2,840,412.7z"/>
	<path class="st3" d="M792.2,406.8L792.2,406.8c0.1-0.6,1.6-1,3.3-1l4.3,0.1c1.7,0,3,0.5,2.9,1.1l0,0c-0.1,0.6-1.6,1-3.3,1l-4.3-0.1
		C793.4,407.9,792.1,407.4,792.2,406.8z"/>
	<path class="st3" d="M788.2,447.9L788.2,447.9c1.7-0.1,3.3,0.3,3.5,0.9l0.5,1.4c0.2,0.6-1,1.1-2.7,1.2l0,0
		c-1.7,0.1-3.3-0.3-3.5-0.9l-0.5-1.4C785.3,448.5,786.5,448,788.2,447.9z"/>
	<path class="st3" d="M815.6,430.4L815.6,430.4c1.7-0.1,3.3,0.3,3.5,0.9l0.5,1.4c0.2,0.6-1,1.1-2.7,1.2l0,0
		c-1.7,0.1-3.3-0.3-3.5-0.9l-0.5-1.4C812.7,431,813.9,430.5,815.6,430.4z"/>
	<path class="st3" d="M895.6,452.1L895.6,452.1c1.7-0.1,3.3,0.3,3.5,0.9l0.5,1.4c0.2,0.6-1,1.1-2.7,1.2l0,0
		c-1.7,0.1-3.3-0.3-3.5-0.9l-0.5-1.4C892.7,452.7,893.9,452.2,895.6,452.1z"/>
	<path class="st3" d="M727.1,445.6L727.1,445.6c1.7-0.1,3.3,0.3,3.5,0.9l0.5,1.4c0.2,0.6-1,1.1-2.7,1.2l0,0
		c-1.7,0.1-3.3-0.3-3.5-0.9l-0.5-1.4C724.2,446.2,725.4,445.7,727.1,445.6z"/>
	<path class="st3" d="M764.9,412.8L764.9,412.8c1.7-0.1,3.3,0.3,3.5,0.9l0.5,1.4c0.2,0.6-1,1.1-2.7,1.2l0,0
		c-1.7,0.1-3.3-0.3-3.5-0.9l-0.5-1.4C762,413.4,763.2,412.9,764.9,412.8z"/>
	<path class="st3" d="M623.5,405.1L623.5,405.1c1.7-0.1,3.3,0.3,3.5,0.9l0.5,1.4c0.2,0.6-1,1.1-2.7,1.2l0,0
		c-1.7,0.1-3.3-0.3-3.5-0.9l-0.5-1.4C620.6,405.7,621.8,405.2,623.5,405.1z"/>
	<path class="st3" d="M673,464.1L673,464.1c1.7-0.1,3.3,0.3,3.5,0.9l0.5,1.4c0.2,0.6-1,1.1-2.7,1.2l0,0c-1.7,0.1-3.3-0.3-3.5-0.9
		l-0.5-1.4C670.1,464.7,671.3,464.2,673,464.1z"/>
	<path class="st3" d="M753.2,464.3L753.2,464.3c1.1-0.5,3-0.5,4.4-0.2l3.4,0.9c1.3,0.4,1.6,1,0.5,1.5l0,0c-1.1,0.5-3,0.5-4.4,0.2
		l-3.4-0.9C752.4,465.5,752.1,464.8,753.2,464.3z"/>
	<path class="st3" d="M514.5,432.1L514.5,432.1c1.1-0.5,3-0.5,4.4-0.2l3.4,0.9c1.3,0.4,1.6,1,0.5,1.5l0,0c-1.1,0.5-3,0.5-4.4,0.2
		l-3.4-0.9C513.7,433.2,513.5,432.5,514.5,432.1z"/>
	<path class="st3" d="M563.6,457.2L563.6,457.2c1.1-0.5,3-0.5,4.4-0.2l3.4,0.9c1.3,0.4,1.6,1,0.5,1.5l0,0c-1.1,0.5-3,0.5-4.4,0.2
		l-3.4-0.9C562.7,458.3,562.5,457.7,563.6,457.2z"/>
	<path class="st3" d="M543,415L543,415c1.1-0.5,3-0.5,4.4-0.2l3.4,0.9c1.3,0.4,1.6,1,0.5,1.5l0,0c-1.1,0.5-3,0.5-4.4,0.2l-3.4-0.9
		C542.2,416.1,541.9,415.4,543,415z"/>
	<path class="st3" d="M623,464.1L623,464.1c1.3,0.4,1.6,1,0.5,1.5l-2.7,1.1c-1.1,0.5-3,0.5-4.4,0.2l0,0c-1.3-0.4-1.6-1-0.5-1.5
		l2.7-1.1C619.7,463.9,621.6,463.8,623,464.1z"/>
	<path class="st3" d="M815.1,464.1L815.1,464.1c1.3,0.4,1.6,1,0.5,1.5l-2.7,1.1c-1.1,0.5-3,0.5-4.4,0.2l0,0c-1.3-0.4-1.6-1-0.5-1.5
		l2.7-1.1C811.8,463.9,813.7,463.8,815.1,464.1z"/>
	<path class="st3" d="M671.1,403.7L671.1,403.7c1.3,0.4,1.6,1,0.5,1.5l-2.7,1.1c-1.1,0.5-3,0.5-4.4,0.2l0,0c-1.3-0.4-1.6-1-0.5-1.5
		l2.7-1.1C667.8,403.5,669.8,403.4,671.1,403.7z"/>
	<path class="st3" d="M546,447.6L546,447.6c1.3,0.4,1.6,1,0.5,1.5l-2.7,1.1c-1.1,0.5-3,0.5-4.4,0.2l0,0c-1.3-0.4-1.6-1-0.5-1.5
		l2.7-1.1C542.6,447.4,544.6,447.3,546,447.6z"/>
	<path class="st0" d="M738.1,314.7c0,6.6-34.6,6.6-34.6,0"/>
	<path class="st0" d="M738.1,315.2c0-6.6-34.6-6.6-34.6,0"/>
	<g>
		<path class="st4" d="M741.4,232.7c-13.8,23-15.8,30.6-19,81.9c-1.4-50.9-1.5-50.9-1.6,0.1c-0.1-50.9-0.2-51-1.6-0.1
			c-3.2-51.3-5.2-58.9-19-81.9c17,16.6,20.6,9.2,20.6-41.8C720.8,241.9,724.5,249.2,741.4,232.7z"/>
		<path class="st1" d="M741.4,232.7c-13.8,23-15.8,30.6-19,81.9c-1.4-50.9-1.5-50.9-1.6,0.1c-0.1-50.9-0.2-51-1.6-0.1
			c-3.2-51.3-5.2-58.9-19-81.9c17,16.6,20.6,9.2,20.6-41.8C720.8,241.9,724.5,249.2,741.4,232.7z"/>
	</g>
	<path class="st1" d="M700.5,187.5c-0.7-2.2-1.4-4.4-2-6.7"/>
	<path class="st1" d="M710.5,163.5c0-2,0-4,0-6"/>
	<path class="st1" d="M742.6,174.1c-0.8-1.4-0.8-3.2-0.1-4.7"/>
	<path class="st1" d="M739.8,216.2c0.4-1.8,0.9-3.6,1.3-5.3"/>
	<path class="st1" d="M729.8,189.5c-0.2-2.7-0.5-5.3-0.7-8"/>
	<path class="st1" d="M693.1,212.2c-0.5-2.7-0.9-5.3-1.4-8"/>
	<path class="st1" d="M709.2,196.2c0-1.1,0-2.2,0-3.3"/>
	<path class="st1" d="M714.5,174.8c0-2,0-4,0-6"/>
	<path class="st1" d="M722.5,161.5c-0.3-3.1-0.2-6.3,0.5-9.3"/>
	<path class="st1" d="M743.8,194.8c0-2.2,0-4.4,0-6.7"/>
	<path class="st1" d="M729.2,204.2c-0.3-3.2,0.2-6.4,1.3-9.3"/>
	<path class="st1" d="M719.1,142.8c-0.2-2.7-0.5-5.3-0.7-8"/>
	<path class="st1" d="M724.4,120.8c0-1.8,0-3.6,0-5.3"/>
	<path class="st1" d="M729.8,145.8c0.4-2,0.9-4,1.3-6"/>
	<path class="st1" d="M748.5,154.8c0.2-1.8,0.4-3.6,0.7-5.3"/>
	<path class="st1" d="M730.5,169.5c0.2-1.8,0.4-3.6,0.6-5.3"/>
	<path class="st1" d="M709.8,212.2c-0.7-2.4-1.3-4.9-2-7.3"/>
	<path class="st1" d="M702.5,226.9c-1.1-1.8-2.3-3.5-3.4-5.3"/>
	<path class="st1" d="M733.1,228.8c0.2-1.6,0.4-3.1,0.7-4.7"/>
	<ellipse class="st2" cx="653.8" cy="650.5" rx="5" ry="17.8"/>
</g>
</svg>
