<svg id="8755def5-99e3-4345-bde0-0dbb3479eebf" data-name="929a63f3-9ae3-4ac3-aaf2-1ac0400b1715" xmlns="http://www.w3.org/2000/svg" width="664.2" height="664.2" viewBox="0 0 664.2 664.2"><defs><style>.\31 addba56-9b4d-4a37-8ed2-cd5e4dbe161e,.\32 f2a935b-636e-4e82-90c9-a8853171532a,.aa55f235-c12d-48f0-9fc3-55e9f0cff7d1{fill:#fff;}.\31 addba56-9b4d-4a37-8ed2-cd5e4dbe161e,.\32 f2a935b-636e-4e82-90c9-a8853171532a,.b796ac12-c011-4003-a33e-b0b73ce2ed18{stroke:#1e120d;}.\31 addba56-9b4d-4a37-8ed2-cd5e4dbe161e,.\32 f2a935b-636e-4e82-90c9-a8853171532a,.aa55f235-c12d-48f0-9fc3-55e9f0cff7d1,.b796ac12-c011-4003-a33e-b0b73ce2ed18{stroke-miterlimit:10;}.\31 addba56-9b4d-4a37-8ed2-cd5e4dbe161e{stroke-width:9.87px;}.aa55f235-c12d-48f0-9fc3-55e9f0cff7d1{stroke:#000;}.b796ac12-c011-4003-a33e-b0b73ce2ed18{fill:none;}</style></defs><title>breakfast</title><circle class="2f2a935b-636e-4e82-90c9-a8853171532a" cx="332.1" cy="332.1" r="331.6"/><circle class="1addba56-9b4d-4a37-8ed2-cd5e4dbe161e" cx="332.1" cy="332.1" r="298.5"/><circle class="2f2a935b-636e-4e82-90c9-a8853171532a" cx="332.1" cy="332.1" r="132.6"/><path class="aa55f235-c12d-48f0-9fc3-55e9f0cff7d1" d="M713.5,645.7c9,63.8-270-31.5-223.7-76.4-98.1,27.2-126-29.7-49.7-101.3-58.5,19.9,64.5-340.3,98.6-288.8C522.2,75.9,579.2,48,640.1,129.5c-9-63.8,270,31.5,223.7,76.4,98.1-27.2,126,29.7,49.7,101.3C972,287.4,849,647.6,814.8,596,831.2,699.4,774.4,727.3,713.5,645.7Z" transform="translate(-375.4 -67.8)"/><path class="b796ac12-c011-4003-a33e-b0b73ce2ed18" d="M713.5,645.7c9,63.8-270-31.5-223.7-76.4-98.1,27.2-126-29.7-49.7-101.3-58.5,19.9,64.5-340.3,98.6-288.8C522.2,75.9,579.2,48,640.1,129.5c-9-63.8,270,31.5,223.7,76.4,98.1-27.2,126,29.7,49.7,101.3C972,287.4,849,647.6,814.8,596,831.2,699.4,774.4,727.3,713.5,645.7Z" transform="translate(-375.4 -67.8)"/><path class="aa55f235-c12d-48f0-9fc3-55e9f0cff7d1" d="M698.8,631.7c8.1,63.5-261-28.4-215.7-73.7-99.9,26.7-129.3-33.3-52.4-106.8-58.2,19,61.3-331.2,95.9-280.7C510.8,65.5,570.7,36,633.4,118.1c-8.1-63.5,261,28.4,215.7,73.7,99.9-26.7,129.3,33.3,52.4,106.8,58.2-18.9-61.3,331.3-95.9,280.8C821.4,684.5,761.5,713.9,698.8,631.7Z" transform="translate(-375.4 -67.8)"/><path class="b796ac12-c011-4003-a33e-b0b73ce2ed18" d="M698.8,631.7c8.1,63.5-261-28.4-215.7-73.7-99.9,26.7-129.3-33.3-52.4-106.8-58.2,19,61.3-331.2,95.9-280.7C510.8,65.5,570.7,36,633.4,118.1c-8.1-63.5,261,28.4,215.7,73.7,99.9-26.7,129.3,33.3,52.4,106.8,58.2-18.9-61.3,331.3-95.9,280.8C821.4,684.5,761.5,713.9,698.8,631.7Z" transform="translate(-375.4 -67.8)"/><path class="2f2a935b-636e-4e82-90c9-a8853171532a" d="M532.2,560.3a20.55,20.55,0,0,1-19-13.4c-4.2-11,.9-23.5,11.3-27.9,90.7-38.3,182.9-82.3,274-130.8-18.9,3.1-47,9.2-88.7,20.7-58.5,16.3-127.4,39-175.3,58-18.2,7.2-32.3,11.5-42.8,13.1-5.3.8-21.2,3.2-31.2-8.6a26,26,0,0,1-2.9-28.7c5.9-11.8,17.5-19.3,32.1-27.9,34.6-20.4,88-41.7,144.6-64.1,47.7-18.9,97.1-38.4,135.7-58,13-6.7,23.5-12.7,32-17.9-17.6,4.5-41.2,11.4-72,21.6-53.9,17.9-116.3,41.4-155,58.5-7.6,3.3-13.8,4.6-19,4.6-14.2,0-20.2-9.8-22-13.7-2.6-5.5-8.7-24.7,20.4-41.9l.7-.3L730.9,199.7a20.09,20.09,0,0,1,27.9,8.1c5.5,10.3,2,23.4-7.8,29.3l-28.8,17.1c2.1-.7,4.4-1.5,6.6-2.1,32.9-10.6,60-18.3,80.8-22.9,33.2-7.3,48.5-6.4,58.3,3.3a25.86,25.86,0,0,1,5.8,27.1c-8.4,24-34.9,46.1-85.9,71.9-20.3,10.3-43.2,20.4-67,30.4,32-8.4,58.5-14.1,79.2-17.1,35-5,52.3-2.1,61.8,10.4,2.8,3.7,11.1,17.3-.3,35.1-8.4,13.1-21.9,24.4-42.5,35.4-92.6,49.5-186.5,94.2-279,133.2A22.21,22.21,0,0,1,532.2,560.3Zm23.1-243.7Z" transform="translate(-375.4 -67.8)"/><path class="aa55f235-c12d-48f0-9fc3-55e9f0cff7d1" d="M527.3,273c35.6-167.9,197.6-192.2,241.2-36,161.2,16,165.3,179.9,6,243.8-35.6,167.9-197.6,192.2-241.2,36C372.1,500.8,368.1,337,527.3,273Z" transform="translate(-375.4 -67.8)"/><path class="b796ac12-c011-4003-a33e-b0b73ce2ed18" d="M527.3,273c35.6-167.9,197.6-192.2,241.2-36,161.2,16,165.3,179.9,6,243.8-35.6,167.9-197.6,192.2-241.2,36C372.1,500.8,368.1,337,527.3,273Z" transform="translate(-375.4 -67.8)"/><ellipse class="2f2a935b-636e-4e82-90c9-a8853171532a" cx="604.29" cy="381.05" rx="77.3" ry="68.2" transform="translate(-438.47 568.19) rotate(-53.14)"/><ellipse class="2f2a935b-636e-4e82-90c9-a8853171532a" cx="228.9" cy="259.8" rx="19.3" ry="7.5"/></svg>