<svg id="109d32eb-6d0f-4dde-95f8-8a5c290c5ea3" data-name="929a63f3-9ae3-4ac3-aaf2-1ac0400b1715" xmlns="http://www.w3.org/2000/svg" width="580.58" height="580.58" viewBox="0 0 580.58 580.58"><defs><style>.b23eb5b7-8091-451e-9410-f9d3655cc39a,.beb81080-9739-42c5-91b0-7c42a5e71cf9,.daa94aad-cacb-4ffc-a353-019121f09c93{fill:#fff;}.b23eb5b7-8091-451e-9410-f9d3655cc39a,.ba424f38-625b-456c-99bc-4d817ce38271,.daa94aad-cacb-4ffc-a353-019121f09c93{stroke:#1e120d;stroke-miterlimit:10;}.b23eb5b7-8091-451e-9410-f9d3655cc39a,.ba424f38-625b-456c-99bc-4d817ce38271{stroke-width:1.3px;}.daa94aad-cacb-4ffc-a353-019121f09c93{stroke-width:9.87px;}.ba424f38-625b-456c-99bc-4d817ce38271{fill:none;}</style></defs><title>breakfast</title><circle class="b23eb5b7-8091-451e-9410-f9d3655cc39a" cx="290.29" cy="290.29" r="289.64"/><circle class="daa94aad-cacb-4ffc-a353-019121f09c93" cx="290.29" cy="290.29" r="260.73"/><circle class="b23eb5b7-8091-451e-9410-f9d3655cc39a" cx="290.29" cy="290.29" r="115.86"/><path class="beb81080-9739-42c5-91b0-7c42a5e71cf9" d="M367.63,509.24c7.89,55.76-235.86-27.53-195.4-66.71-85.66,23.78-110-26-43.42-88.52C77.69,371.38,185.16,56.77,215,101.77c-14.41-90.3,35.33-114.67,88.52-43.42-7.89-55.76,235.86,27.53,195.4,66.71,85.66-23.78,110,26,43.42,88.52,51.12-17.37-56.35,297.24-86.15,252.24C470.46,556.11,420.82,580.49,367.63,509.24Z" transform="translate(-72.11 -4.21)"/><path class="ba424f38-625b-456c-99bc-4d817ce38271" d="M367.63,509.24c7.89,55.76-235.86-27.53-195.4-66.71-85.66,23.78-110-26-43.42-88.52C77.69,371.38,185.16,56.77,215,101.77c-14.41-90.3,35.33-114.67,88.52-43.42-7.89-55.76,235.86,27.53,195.4,66.71,85.66-23.78,110,26,43.42,88.52,51.12-17.37-56.35,297.24-86.15,252.24C470.46,556.11,420.82,580.49,367.63,509.24Z" transform="translate(-72.11 -4.21)"/><path class="beb81080-9739-42c5-91b0-7c42a5e71cf9" d="M354.8,497c7.11,55.46-228-24.77-188.39-64.34-87.24,23.29-112.9-29.11-45.79-93.26C69.8,355.88,174.21,50.06,204.41,94.17,190.59,2.39,242.89-23.36,297.66,48.38c-7.11-55.46,228,24.77,188.39,64.34,87.24-23.29,112.9,29.11,45.79,93.26,50.82-16.48-53.59,289.34-83.78,245.23C461.87,543.09,409.57,568.75,354.8,497Z" transform="translate(-72.11 -4.21)"/><path class="ba424f38-625b-456c-99bc-4d817ce38271" d="M354.8,497c7.11,55.46-228-24.77-188.39-64.34-87.24,23.29-112.9-29.11-45.79-93.26C69.8,355.88,174.21,50.06,204.41,94.17,190.59,2.39,242.89-23.36,297.66,48.38c-7.11-55.46,228,24.77,188.39,64.34,87.24-23.29,112.9,29.11,45.79,93.26,50.82-16.48-53.59,289.34-83.78,245.23C461.87,543.09,409.57,568.75,354.8,497Z" transform="translate(-72.11 -4.21)"/><path class="b23eb5b7-8091-451e-9410-f9d3655cc39a" d="M209.24,434.63a17.83,17.83,0,0,1-16.58-11.74c-3.65-9.57.79-20.53,9.87-24.38,79.24-33.45,159.77-71.84,239.31-114.28-16.48,2.66-41.05,8-77.47,18.06-51.12,14.21-111.32,34-153.16,50.63-15.89,6.32-28.22,10.07-37.4,11.45-4.64.69-18.55,2.76-27.24-7.5A22.89,22.89,0,0,1,144,331.8c5.13-10.26,15.3-16.88,28-24.38,30.2-17.86,76.88-36.41,126.32-56C340,235,383.12,217.92,416.87,200.85c11.45-5.82,20.63-11.05,28-15.59-15.39,3.95-36,10-62.86,18.85C335,219.7,280.49,240.22,246.64,255.22c-6.61,2.86-12,4-16.58,4a20.52,20.52,0,0,1-19.24-11.94c-2.27-4.84-7.6-21.61,17.86-36.61l.59-.3,153.55-90.79a17.53,17.53,0,0,1,24.38,7.11,19.32,19.32,0,0,1-6.81,25.56l-25.16,14.9c1.88-.59,3.85-1.28,5.72-1.88,28.72-9.28,52.4-16,70.56-20,29-6.41,42.34-5.63,50.92,2.86a22.6,22.6,0,0,1,5,23.68c-7.3,20.92-30.49,40.26-75,62.76-17.76,9-37.7,17.86-58.52,26.55,27.93-7.3,51.12-12.34,69.18-14.9,30.59-4.34,45.69-1.88,54,9.08,2.47,3.26,9.67,15.1-.3,30.69-7.3,11.45-19.14,21.32-37.11,30.89-80.92,43.22-162.93,82.3-243.65,116.35A17.14,17.14,0,0,1,209.24,434.63Zm20.23-212.86Z" transform="translate(-72.11 -4.21)"/><path class="beb81080-9739-42c5-91b0-7c42a5e71cf9" d="M205,183.68C236.08,37,377.6,15.81,415.69,152.2c140.82,14,144.38,157.11,5.23,213C389.83,511.8,248.32,533,210.23,396.64,69.4,382.63,66,239.53,205,183.68Z" transform="translate(-72.11 -4.21)"/><path class="ba424f38-625b-456c-99bc-4d817ce38271" d="M205,183.68C236.08,37,377.6,15.81,415.69,152.2c140.82,14,144.38,157.11,5.23,213C389.83,511.8,248.32,533,210.23,396.64,69.4,382.63,66,239.53,205,183.68Z" transform="translate(-72.11 -4.21)"/><ellipse class="b23eb5b7-8091-451e-9410-f9d3655cc39a" cx="272.29" cy="278" rx="67.5" ry="59.6" transform="translate(-185.58 324.91) rotate(-53.14)"/><ellipse class="b23eb5b7-8091-451e-9410-f9d3655cc39a" cx="200.19" cy="227.13" rx="16.88" ry="6.51"/></svg>