<svg id="e2d22343-1ecd-4595-b319-75a956d97680" data-name="929a63f3-9ae3-4ac3-aaf2-1ac0400b1715" xmlns="http://www.w3.org/2000/svg" width="579.89" height="369.81" viewBox="0 0 579.89 369.81"><defs><style>.\36 ca70780-2973-475e-905b-d493420cdac0,.\39 9e4c38c-2245-487f-a5b2-4fbc9f3dae85{fill:#fff;}.\33 f061804-3fd1-4e67-a25a-928fdc1e876f,.\36 ca70780-2973-475e-905b-d493420cdac0,.b2bac940-1113-49ac-aa83-674b39bc87e8,.d57746b7-0969-494d-8bba-12b32107777b{stroke:#05051c;stroke-linecap:round;stroke-linejoin:round;}.\33 f061804-3fd1-4e67-a25a-928fdc1e876f,.b2bac940-1113-49ac-aa83-674b39bc87e8{fill:none;}.b2bac940-1113-49ac-aa83-674b39bc87e8{stroke-width:9px;}.d57746b7-0969-494d-8bba-12b32107777b{fill:#05051c;stroke-width:6px;}</style></defs><title>burger</title><path class="6ca70780-2973-475e-905b-d493420cdac0" d="M503.4,525.7H941.8c0,55.1-5.2,58.7-219.2,58.7C509.4,584.4,503.4,586.2,503.4,525.7Z" transform="translate(-430.16 -215.1)"/><path class="6ca70780-2973-475e-905b-d493420cdac0" d="M971.6,526.3H468.8a30.3,30.3,0,0,1-30.2-30.2V485a30.3,30.3,0,0,1,30.2-30.2H971.6a30.3,30.3,0,0,1,30.2,30.2v11.1A30.24,30.24,0,0,1,971.6,526.3Z" transform="translate(-430.16 -215.1)"/><path class="b2bac940-1113-49ac-aa83-674b39bc87e8" d="M479.9,413.5c20.3-.2,20.5,29.1,40.8,28.9s20.1-29.4,40.4-29.6,20.5,29.1,40.8,28.9,20.1-29.4,40.4-29.6,20.5,29.1,40.8,28.9,20.1-29.4,40.4-29.6,20.5,29.1,40.8,28.9,20.1-29.4,40.4-29.6,20.5,29.1,40.9,28.9S865.7,410.2,886,410s20.5,29.1,40.9,28.9,20.1-29.4,40.4-29.6" transform="translate(-430.16 -215.1)"/><path class="99e4c38c-2245-487f-a5b2-4fbc9f3dae85" d="M741.5,403.3c15.4,28.5-251.2,1.5-154.9-15.6-180.3,8.7-215.7-17.1-45.6-33.2-129.3-6.8-84.5-32.1,26-14.7-69.7-40.4,32.4-52.3,131.7-15.3C683.3,296,949.9,323,853.6,340.1c180.3-8.7,215.7,17.1,45.6,33.2,129.3,6.8,84.5,32.1-26,14.7C943,428.3,840.9,440.2,741.5,403.3Z" transform="translate(-430.16 -215.1)"/><path class="3f061804-3fd1-4e67-a25a-928fdc1e876f" d="M741.5,403.3c15.4,28.5-251.2,1.5-154.9-15.6-180.3,8.7-215.7-17.1-45.6-33.2-129.3-6.8-84.5-32.1,26-14.7-69.7-40.4,32.4-52.3,131.7-15.3C683.3,296,949.9,323,853.6,340.1c180.3-8.7,215.7,17.1,45.6,33.2,129.3,6.8,84.5,32.1-26,14.7C943,428.3,840.9,440.2,741.5,403.3Z" transform="translate(-430.16 -215.1)"/><path class="6ca70780-2973-475e-905b-d493420cdac0" d="M978.1,440.6H446a7.72,7.72,0,0,0-7.8,7.3,7.53,7.53,0,0,0,7.5,7.7H474V479a14.25,14.25,0,0,0,14.2,14.2h7.4A14.25,14.25,0,0,0,509.8,479V455.6H764.1v47.1a14.2,14.2,0,1,0,28.4,0V455.6H977.9a7.72,7.72,0,0,0,7.8-7.3A7.62,7.62,0,0,0,978.1,440.6Z" transform="translate(-430.16 -215.1)"/><ellipse class="d57746b7-0969-494d-8bba-12b32107777b" cx="274.64" cy="142.6" rx="88.3" ry="25.7"/><path class="6ca70780-2973-475e-905b-d493420cdac0" d="M931.3,356.7H518.8a12.51,12.51,0,0,1-12.5-13.3c7-109.2,102.3-127.8,218.8-127.8s211.7,18.5,218.8,127.8A12.65,12.65,0,0,1,931.3,356.7Z" transform="translate(-430.16 -215.1)"/><path class="6ca70780-2973-475e-905b-d493420cdac0" d="M536.5,315.6l-.8-.4a2.46,2.46,0,0,1-1.2-3.2l2-4.4a2.46,2.46,0,0,1,3.2-1.2l.8.4a2.46,2.46,0,0,1,1.2,3.2l-2,4.4A2.38,2.38,0,0,1,536.5,315.6Z" transform="translate(-430.16 -215.1)"/><path class="6ca70780-2973-475e-905b-d493420cdac0" d="M833.4,282l-.5.7a2.48,2.48,0,0,1-3.4.4l-3.8-3a2.48,2.48,0,0,1-.4-3.4l.5-.7a2.48,2.48,0,0,1,3.4-.4l3.8,3A2.51,2.51,0,0,1,833.4,282Z" transform="translate(-430.16 -215.1)"/><path class="6ca70780-2973-475e-905b-d493420cdac0" d="M794.6,319.9l-.7-.5a2.3,2.3,0,0,1-.6-3.3l2.7-4a2.3,2.3,0,0,1,3.3-.6l.7.5a2.3,2.3,0,0,1,.6,3.3l-2.7,4A2.3,2.3,0,0,1,794.6,319.9Z" transform="translate(-430.16 -215.1)"/><path class="6ca70780-2973-475e-905b-d493420cdac0" d="M600.8,311.6l-.5.7a2.48,2.48,0,0,1-3.4.4l-3.8-3a2.48,2.48,0,0,1-.4-3.4l.5-.7a2.48,2.48,0,0,1,3.4-.4l3.8,3A2.51,2.51,0,0,1,600.8,311.6Z" transform="translate(-430.16 -215.1)"/><path class="6ca70780-2973-475e-905b-d493420cdac0" d="M737.1,230.5l-.1.9a2.51,2.51,0,0,1-2.5,2.3l-4.8-.3a2.51,2.51,0,0,1-2.3-2.5l.1-.9a2.51,2.51,0,0,1,2.5-2.3l4.8.3A2.37,2.37,0,0,1,737.1,230.5Z" transform="translate(-430.16 -215.1)"/><path class="6ca70780-2973-475e-905b-d493420cdac0" d="M610.8,259.9l-.1.9a2.51,2.51,0,0,1-2.5,2.3l-4.8-.3a2.51,2.51,0,0,1-2.3-2.5l.1-.9a2.51,2.51,0,0,1,2.5-2.3l4.8.3A2.51,2.51,0,0,1,610.8,259.9Z" transform="translate(-430.16 -215.1)"/><path class="6ca70780-2973-475e-905b-d493420cdac0" d="M663.2,288.2l-.9.1a2.45,2.45,0,0,1-2.7-2.1l-.6-4.8a2.45,2.45,0,0,1,2.1-2.7l.9-.1a2.45,2.45,0,0,1,2.7,2.1l.6,4.8A2.45,2.45,0,0,1,663.2,288.2Z" transform="translate(-430.16 -215.1)"/><path class="6ca70780-2973-475e-905b-d493420cdac0" d="M565.2,276.7l-.9.1a2.45,2.45,0,0,1-2.7-2.1l-.6-4.8a2.45,2.45,0,0,1,2.1-2.7l.9-.1a2.45,2.45,0,0,1,2.7,2.1l.6,4.8A2.28,2.28,0,0,1,565.2,276.7Z" transform="translate(-430.16 -215.1)"/><path class="6ca70780-2973-475e-905b-d493420cdac0" d="M738.5,271.6l-.9.1a2.45,2.45,0,0,1-2.7-2.1l-.6-4.8a2.45,2.45,0,0,1,2.1-2.7l.9-.1a2.45,2.45,0,0,1,2.7,2.1l.6,4.8A2.45,2.45,0,0,1,738.5,271.6Z" transform="translate(-430.16 -215.1)"/><path class="6ca70780-2973-475e-905b-d493420cdac0" d="M768.3,244.3l-.9.1a2.45,2.45,0,0,1-2.7-2.1l-.6-4.8a2.45,2.45,0,0,1,2.1-2.7l.9-.1a2.45,2.45,0,0,1,2.7,2.1l.6,4.8A2.34,2.34,0,0,1,768.3,244.3Z" transform="translate(-430.16 -215.1)"/><path class="6ca70780-2973-475e-905b-d493420cdac0" d="M695,243.5l-.5.7a2.48,2.48,0,0,1-3.4.4l-3.8-3a2.48,2.48,0,0,1-.4-3.4l.5-.7a2.48,2.48,0,0,1,3.4-.4l3.8,3A2.48,2.48,0,0,1,695,243.5Z" transform="translate(-430.16 -215.1)"/><path class="6ca70780-2973-475e-905b-d493420cdac0" d="M912.8,330.6l-.5.7a2.48,2.48,0,0,1-3.4.4l-3.8-3a2.48,2.48,0,0,1-.4-3.4l.5-.7a2.48,2.48,0,0,1,3.4-.4l3.8,3A2.48,2.48,0,0,1,912.8,330.6Z" transform="translate(-430.16 -215.1)"/><path class="6ca70780-2973-475e-905b-d493420cdac0" d="M868,262.7l-.5.7a2.48,2.48,0,0,1-3.4.4l-3.8-3a2.48,2.48,0,0,1-.4-3.4l.5-.7a2.48,2.48,0,0,1,3.4-.4l3.8,3A2.5,2.5,0,0,1,868,262.7Z" transform="translate(-430.16 -215.1)"/><path class="6ca70780-2973-475e-905b-d493420cdac0" d="M813.9,244.7l-.7-.5a2.48,2.48,0,0,1-.4-3.4l3-3.8a2.48,2.48,0,0,1,3.4-.4l.7.5a2.48,2.48,0,0,1,.4,3.4l-3,3.8A2.51,2.51,0,0,1,813.9,244.7Z" transform="translate(-430.16 -215.1)"/><path class="6ca70780-2973-475e-905b-d493420cdac0" d="M638.6,244.7l-.7-.5a2.48,2.48,0,0,1-.4-3.4l3-3.8a2.48,2.48,0,0,1,3.4-.4l.7.5a2.48,2.48,0,0,1,.4,3.4l-3,3.8A2.48,2.48,0,0,1,638.6,244.7Z" transform="translate(-430.16 -215.1)"/><path class="6ca70780-2973-475e-905b-d493420cdac0" d="M884.1,289.2l-.7-.5a2.48,2.48,0,0,1-.4-3.4l3-3.8a2.48,2.48,0,0,1,3.4-.4l.7.5a2.48,2.48,0,0,1,.4,3.4l-3,3.8A2.39,2.39,0,0,1,884.1,289.2Z" transform="translate(-430.16 -215.1)"/></svg>