<svg id="a04a4845-8543-436a-b2c2-045e7c3af9ef" data-name="929a63f3-9ae3-4ac3-aaf2-1ac0400b1715" xmlns="http://www.w3.org/2000/svg" width="450.32" height="570" viewBox="0 0 450.32 570"><defs><style>.\34 1f31f09-8ec5-4059-8757-8a8c0a2ec01a,.\38 19f36cc-2f15-488d-9778-32889368de4a{fill:#fff;}.\35 a33654c-b9bc-4596-b447-303870b818e0,.\38 19f36cc-2f15-488d-9778-32889368de4a,.b8c2e2e4-4364-42c7-8939-cc9d542c12b2{stroke:#05051c;}.\35 a33654c-b9bc-4596-b447-303870b818e0,.\38 19f36cc-2f15-488d-9778-32889368de4a,.b8c2e2e4-4364-42c7-8939-cc9d542c12b2,.c002c98c-ca82-40cc-b0b3-7748de792e42{stroke-linecap:round;stroke-linejoin:round;}.b8c2e2e4-4364-42c7-8939-cc9d542c12b2{fill:none;}.\35 a33654c-b9bc-4596-b447-303870b818e0,.c002c98c-ca82-40cc-b0b3-7748de792e42{fill:#05051c;}.c002c98c-ca82-40cc-b0b3-7748de792e42{stroke:#fff;}</style></defs><title>cake</title><path class="819f36cc-2f15-488d-9778-32889368de4a" d="M501.9,640.7V435.3c0-10.1,5.4-15.1,12-15.1h410c6.6,0,12,5,12,11.1V636.7" transform="translate(-494.68 -115)"/><path class="819f36cc-2f15-488d-9778-32889368de4a" d="M935.9,637.7c0,25.9-97.2,46.8-217,46.8s-217-21-217-46.8" transform="translate(-494.68 -115)"/><path class="b8c2e2e4-4364-42c7-8939-cc9d542c12b2" d="M935.9,585.4c0,20.7-97.2,37.5-217,37.5s-217-16.8-217-37.5" transform="translate(-494.68 -115)"/><path class="b8c2e2e4-4364-42c7-8939-cc9d542c12b2" d="M935.9,534.5c0,20.7-97.2,37.5-217,37.5s-217-16.8-217-37.5" transform="translate(-494.68 -115)"/><path class="5a33654c-b9bc-4596-b447-303870b818e0" d="M636.8,500c0,21.8,4,39.5,9,39.5,4.4,0,8.1-13.9,8.8-32.3a6.65,6.65,0,0,0,3.7,1.3c6.9,0,12.5-13.2,12.5-29.5v-.1m60.3,55.6c0,42.5,17.4,80,29.2,80,3.4,0,6.7-2.9,9.6-8.1.9,21.4,7.9,38.1,16.4,38.1,3,0,5.9-2.1,8.3-5.8,4.5,3.7,9.5,5.8,14.8,5.8,19.1,0,26.5-94.8,26.5-128.5,0-3.6-1.9,1.3-.1,5.5l7.7,51.4c3.7,19.7,9.8,32.6,16.7,32.6,5.8,0,11-9.1,14.8-23.8,1.7,32.1,11.2,56.7,22.7,56.7,12.2,0,26.2-63.7,27-98.8-5-17,25,110,19-31-1-23.1-2.5-46.2-5-61-.4-10.6-3-12.4-3-17.3,0-23.6-97.2-42.7-217-42.7s-217,19.1-217,42.7c0,3.6-14.8,129.1.2,103.3,14.2-24.4,3.5,47.6,8.7,57.6,2.7,19.8,9,33.7,16.3,33.7,9.8,0,17.7-25,17.7-55.9,0-5.5-.3-10.8-.7-15.8a1.85,1.85,0,0,0,.7.2c2.3,0,4.5-4.7,6.2-12.6,3.5,16,9.8,26.8,17,26.8,4,0,7.6-3.2,10.7-8.8,1.6,24.6,5.1,41.8,9.2,41.8,3.1,0,5.8-9.6,7.6-24.8,2.6,11.6,6.1,18.8,10.1,18.8,3.4,0,6.5-5.4,9-14.5,1.7,37.6,6.1,64.5,11.3,64.5,6.6,0,12-43.4,12-97,0-32.1,36.4-77,5.6-64.5m24.5,10.4c0,26,6.8,83.2,16.4,92-.3,4.2-.4,8.5-.4,13,0,28.2,5.6,51,12.5,51,6.6,0,12-20.9,12.5-47.3,2.4,14,5.6,22.6,9.2,22.6,7.2,0,13.1-35.7,13.1-79.7v-3.5c-.1-9.4,0-23.1,0-32.5" transform="translate(-494.68 -115)"/><path class="819f36cc-2f15-488d-9778-32889368de4a" d="M725.1,302.3" transform="translate(-494.68 -115)"/><path class="819f36cc-2f15-488d-9778-32889368de4a" d="M738.1,315.4V427.8c0,6.6-34.6,6.6-34.6,0V317" transform="translate(-494.68 -115)"/><path class="c002c98c-ca82-40cc-b0b3-7748de792e42" d="M927,437.8h0c1.6.2,2.3.9,1.5,1.4l-1.8,1.3a6.45,6.45,0,0,1-4.1.5h0c-1.6-.2-2.3-.9-1.5-1.4l1.8-1.3A7.22,7.22,0,0,1,927,437.8Z" transform="translate(-494.68 -115)"/><path class="c002c98c-ca82-40cc-b0b3-7748de792e42" d="M601.5,450.1h0a8.09,8.09,0,0,1,4.4-.2l3.4.9c1.3.4,1.6,1,.5,1.5h0a8.09,8.09,0,0,1-4.4.2l-3.4-.9C600.7,451.2,600.4,450.5,601.5,450.1Z" transform="translate(-494.68 -115)"/><path class="c002c98c-ca82-40cc-b0b3-7748de792e42" d="M568.4,438.3h0a8.09,8.09,0,0,1,4.4-.2l3.4.9c1.3.4,1.6,1,.5,1.5h0a8.09,8.09,0,0,1-4.4.2l-3.4-.9C567.6,439.5,567.3,438.8,568.4,438.3Z" transform="translate(-494.68 -115)"/><path class="c002c98c-ca82-40cc-b0b3-7748de792e42" d="M639.7,431.9h0c1.4.3,1.8,1,.8,1.5l-2.4,1.2a7.63,7.63,0,0,1-4.3.3h0c-1.4-.3-1.8-1-.8-1.5l2.4-1.2A7.63,7.63,0,0,1,639.7,431.9Z" transform="translate(-494.68 -115)"/><path class="c002c98c-ca82-40cc-b0b3-7748de792e42" d="M688.6,430.2h0c1.4.3,1.8,1,.8,1.5l-2.4,1.2a7.63,7.63,0,0,1-4.3.3h0c-1.4-.3-1.8-1-.8-1.5l2.4-1.2A7.63,7.63,0,0,1,688.6,430.2Z" transform="translate(-494.68 -115)"/><path class="c002c98c-ca82-40cc-b0b3-7748de792e42" d="M579.8,415.7h0c1.4.3,1.8,1,.8,1.5l-2.4,1.2a7.63,7.63,0,0,1-4.3.3h0c-1.4-.3-1.8-1-.8-1.5l2.4-1.2A7.63,7.63,0,0,1,579.8,415.7Z" transform="translate(-494.68 -115)"/><path class="c002c98c-ca82-40cc-b0b3-7748de792e42" d="M856.5,439.1h0a8.09,8.09,0,0,1,4.4-.2l3.4.9c1.3.4,1.6,1,.5,1.5h0a8.09,8.09,0,0,1-4.4.2l-3.4-.9C855.6,440.2,855.4,439.6,856.5,439.1Z" transform="translate(-494.68 -115)"/><path class="c002c98c-ca82-40cc-b0b3-7748de792e42" d="M879.5,417.7h0a8.09,8.09,0,0,1,4.4-.2l3.4.9c1.3.4,1.6,1,.5,1.5h0a8.09,8.09,0,0,1-4.4.2l-3.4-.9C878.6,418.8,878.4,418.2,879.5,417.7Z" transform="translate(-494.68 -115)"/><path class="c002c98c-ca82-40cc-b0b3-7748de792e42" d="M706.8,469.1h0c.1-.6,1.6-1,3.3-1l4.3.1c1.7,0,3,.5,2.9,1.1h0c-.1.6-1.6,1-3.3,1l-4.3-.1C708,470.2,706.7,469.7,706.8,469.1Z" transform="translate(-494.68 -115)"/><path class="c002c98c-ca82-40cc-b0b3-7748de792e42" d="M845.3,458.2h0c.1-.6,1.6-1,3.3-1l4.3.1c1.7,0,3,.5,2.9,1.1h0c-.1.6-1.6,1-3.3,1l-4.3-.1C846.5,459.3,845.2,458.8,845.3,458.2Z" transform="translate(-494.68 -115)"/><path class="c002c98c-ca82-40cc-b0b3-7748de792e42" d="M840,412.7h0c.1-.6,1.6-1,3.3-1l4.3.1c1.7,0,3,.5,2.9,1.1h0c-.1.6-1.6,1-3.3,1l-4.3-.1C841.2,413.7,839.9,413.2,840,412.7Z" transform="translate(-494.68 -115)"/><path class="c002c98c-ca82-40cc-b0b3-7748de792e42" d="M792.2,406.8h0c.1-.6,1.6-1,3.3-1l4.3.1c1.7,0,3,.5,2.9,1.1h0c-.1.6-1.6,1-3.3,1l-4.3-.1C793.4,407.9,792.1,407.4,792.2,406.8Z" transform="translate(-494.68 -115)"/><path class="c002c98c-ca82-40cc-b0b3-7748de792e42" d="M788.2,447.9h0c1.7-.1,3.3.3,3.5.9l.5,1.4c.2.6-1,1.1-2.7,1.2h0c-1.7.1-3.3-.3-3.5-.9l-.5-1.4C785.3,448.5,786.5,448,788.2,447.9Z" transform="translate(-494.68 -115)"/><path class="c002c98c-ca82-40cc-b0b3-7748de792e42" d="M815.6,430.4h0c1.7-.1,3.3.3,3.5.9l.5,1.4c.2.6-1,1.1-2.7,1.2h0c-1.7.1-3.3-.3-3.5-.9l-.5-1.4C812.7,431,813.9,430.5,815.6,430.4Z" transform="translate(-494.68 -115)"/><path class="c002c98c-ca82-40cc-b0b3-7748de792e42" d="M895.6,452.1h0c1.7-.1,3.3.3,3.5.9l.5,1.4c.2.6-1,1.1-2.7,1.2h0c-1.7.1-3.3-.3-3.5-.9l-.5-1.4C892.7,452.7,893.9,452.2,895.6,452.1Z" transform="translate(-494.68 -115)"/><path class="c002c98c-ca82-40cc-b0b3-7748de792e42" d="M727.1,445.6h0c1.7-.1,3.3.3,3.5.9l.5,1.4c.2.6-1,1.1-2.7,1.2h0c-1.7.1-3.3-.3-3.5-.9l-.5-1.4C724.2,446.2,725.4,445.7,727.1,445.6Z" transform="translate(-494.68 -115)"/><path class="c002c98c-ca82-40cc-b0b3-7748de792e42" d="M764.9,412.8h0c1.7-.1,3.3.3,3.5.9l.5,1.4c.2.6-1,1.1-2.7,1.2h0c-1.7.1-3.3-.3-3.5-.9l-.5-1.4C762,413.4,763.2,412.9,764.9,412.8Z" transform="translate(-494.68 -115)"/><path class="c002c98c-ca82-40cc-b0b3-7748de792e42" d="M623.5,405.1h0c1.7-.1,3.3.3,3.5.9l.5,1.4c.2.6-1,1.1-2.7,1.2h0c-1.7.1-3.3-.3-3.5-.9l-.5-1.4C620.6,405.7,621.8,405.2,623.5,405.1Z" transform="translate(-494.68 -115)"/><path class="c002c98c-ca82-40cc-b0b3-7748de792e42" d="M673,464.1h0c1.7-.1,3.3.3,3.5.9l.5,1.4c.2.6-1,1.1-2.7,1.2h0c-1.7.1-3.3-.3-3.5-.9l-.5-1.4C670.1,464.7,671.3,464.2,673,464.1Z" transform="translate(-494.68 -115)"/><path class="c002c98c-ca82-40cc-b0b3-7748de792e42" d="M753.2,464.3h0a8.09,8.09,0,0,1,4.4-.2l3.4.9c1.3.4,1.6,1,.5,1.5h0a8.09,8.09,0,0,1-4.4.2l-3.4-.9C752.4,465.5,752.1,464.8,753.2,464.3Z" transform="translate(-494.68 -115)"/><path class="c002c98c-ca82-40cc-b0b3-7748de792e42" d="M514.5,432.1h0a8.09,8.09,0,0,1,4.4-.2l3.4.9c1.3.4,1.6,1,.5,1.5h0a8.09,8.09,0,0,1-4.4.2l-3.4-.9C513.7,433.2,513.5,432.5,514.5,432.1Z" transform="translate(-494.68 -115)"/><path class="c002c98c-ca82-40cc-b0b3-7748de792e42" d="M563.6,457.2h0a8.09,8.09,0,0,1,4.4-.2l3.4.9c1.3.4,1.6,1,.5,1.5h0a8.09,8.09,0,0,1-4.4.2l-3.4-.9C562.7,458.3,562.5,457.7,563.6,457.2Z" transform="translate(-494.68 -115)"/><path class="c002c98c-ca82-40cc-b0b3-7748de792e42" d="M543,415h0a8.09,8.09,0,0,1,4.4-.2l3.4.9c1.3.4,1.6,1,.5,1.5h0a8.09,8.09,0,0,1-4.4.2l-3.4-.9C542.2,416.1,541.9,415.4,543,415Z" transform="translate(-494.68 -115)"/><path class="c002c98c-ca82-40cc-b0b3-7748de792e42" d="M623,464.1h0c1.3.4,1.6,1,.5,1.5l-2.7,1.1a8.09,8.09,0,0,1-4.4.2h0c-1.3-.4-1.6-1-.5-1.5l2.7-1.1A9.19,9.19,0,0,1,623,464.1Z" transform="translate(-494.68 -115)"/><path class="c002c98c-ca82-40cc-b0b3-7748de792e42" d="M815.1,464.1h0c1.3.4,1.6,1,.5,1.5l-2.7,1.1a8.09,8.09,0,0,1-4.4.2h0c-1.3-.4-1.6-1-.5-1.5l2.7-1.1A9.19,9.19,0,0,1,815.1,464.1Z" transform="translate(-494.68 -115)"/><path class="c002c98c-ca82-40cc-b0b3-7748de792e42" d="M671.1,403.7h0c1.3.4,1.6,1,.5,1.5l-2.7,1.1a8.09,8.09,0,0,1-4.4.2h0c-1.3-.4-1.6-1-.5-1.5l2.7-1.1A9.25,9.25,0,0,1,671.1,403.7Z" transform="translate(-494.68 -115)"/><path class="c002c98c-ca82-40cc-b0b3-7748de792e42" d="M546,447.6h0c1.3.4,1.6,1,.5,1.5l-2.7,1.1a8.09,8.09,0,0,1-4.4.2h0c-1.3-.4-1.6-1-.5-1.5l2.7-1.1A9.11,9.11,0,0,1,546,447.6Z" transform="translate(-494.68 -115)"/><path class="819f36cc-2f15-488d-9778-32889368de4a" d="M738.1,314.7c0,6.6-34.6,6.6-34.6,0" transform="translate(-494.68 -115)"/><path class="819f36cc-2f15-488d-9778-32889368de4a" d="M738.1,315.2c0-6.6-34.6-6.6-34.6,0" transform="translate(-494.68 -115)"/><path class="41f31f09-8ec5-4059-8757-8a8c0a2ec01a" d="M741.4,232.7c-13.8,23-15.8,30.6-19,81.9-1.4-50.9-1.5-50.9-1.6.1-.1-50.9-.2-51-1.6-.1-3.2-51.3-5.2-58.9-19-81.9,17,16.6,20.6,9.2,20.6-41.8C720.8,241.9,724.5,249.2,741.4,232.7Z" transform="translate(-494.68 -115)"/><path class="b8c2e2e4-4364-42c7-8939-cc9d542c12b2" d="M741.4,232.7c-13.8,23-15.8,30.6-19,81.9-1.4-50.9-1.5-50.9-1.6.1-.1-50.9-.2-51-1.6-.1-3.2-51.3-5.2-58.9-19-81.9,17,16.6,20.6,9.2,20.6-41.8C720.8,241.9,724.5,249.2,741.4,232.7Z" transform="translate(-494.68 -115)"/><path class="b8c2e2e4-4364-42c7-8939-cc9d542c12b2" d="M700.5,187.5c-.7-2.2-1.4-4.4-2-6.7" transform="translate(-494.68 -115)"/><path class="b8c2e2e4-4364-42c7-8939-cc9d542c12b2" d="M710.5,163.5v-6" transform="translate(-494.68 -115)"/><path class="b8c2e2e4-4364-42c7-8939-cc9d542c12b2" d="M742.6,174.1a5.19,5.19,0,0,1-.1-4.7" transform="translate(-494.68 -115)"/><path class="b8c2e2e4-4364-42c7-8939-cc9d542c12b2" d="M739.8,216.2c.4-1.8.9-3.6,1.3-5.3" transform="translate(-494.68 -115)"/><path class="b8c2e2e4-4364-42c7-8939-cc9d542c12b2" d="M729.8,189.5c-.2-2.7-.5-5.3-.7-8" transform="translate(-494.68 -115)"/><path class="b8c2e2e4-4364-42c7-8939-cc9d542c12b2" d="M693.1,212.2c-.5-2.7-.9-5.3-1.4-8" transform="translate(-494.68 -115)"/><path class="b8c2e2e4-4364-42c7-8939-cc9d542c12b2" d="M709.2,196.2v-3.3" transform="translate(-494.68 -115)"/><path class="b8c2e2e4-4364-42c7-8939-cc9d542c12b2" d="M714.5,174.8v-6" transform="translate(-494.68 -115)"/><path class="b8c2e2e4-4364-42c7-8939-cc9d542c12b2" d="M722.5,161.5a29,29,0,0,1,.5-9.3" transform="translate(-494.68 -115)"/><path class="b8c2e2e4-4364-42c7-8939-cc9d542c12b2" d="M743.8,194.8v-6.7" transform="translate(-494.68 -115)"/><path class="b8c2e2e4-4364-42c7-8939-cc9d542c12b2" d="M729.2,204.2a20.85,20.85,0,0,1,1.3-9.3" transform="translate(-494.68 -115)"/><path class="b8c2e2e4-4364-42c7-8939-cc9d542c12b2" d="M719.1,142.8c-.2-2.7-.5-5.3-.7-8" transform="translate(-494.68 -115)"/><path class="b8c2e2e4-4364-42c7-8939-cc9d542c12b2" d="M724.4,120.8v-5.3" transform="translate(-494.68 -115)"/><path class="b8c2e2e4-4364-42c7-8939-cc9d542c12b2" d="M729.8,145.8c.4-2,.9-4,1.3-6" transform="translate(-494.68 -115)"/><path class="b8c2e2e4-4364-42c7-8939-cc9d542c12b2" d="M748.5,154.8c.2-1.8.4-3.6.7-5.3" transform="translate(-494.68 -115)"/><path class="b8c2e2e4-4364-42c7-8939-cc9d542c12b2" d="M730.5,169.5c.2-1.8.4-3.6.6-5.3" transform="translate(-494.68 -115)"/><path class="b8c2e2e4-4364-42c7-8939-cc9d542c12b2" d="M709.8,212.2c-.7-2.4-1.3-4.9-2-7.3" transform="translate(-494.68 -115)"/><path class="b8c2e2e4-4364-42c7-8939-cc9d542c12b2" d="M702.5,226.9c-1.1-1.8-2.3-3.5-3.4-5.3" transform="translate(-494.68 -115)"/><path class="b8c2e2e4-4364-42c7-8939-cc9d542c12b2" d="M733.1,228.8c.2-1.6.4-3.1.7-4.7" transform="translate(-494.68 -115)"/><ellipse class="5a33654c-b9bc-4596-b447-303870b818e0" cx="159.12" cy="535.5" rx="5" ry="17.8"/></svg>