<svg id="c47f351f-8292-4b64-a259-c674479f317e" data-name="929a63f3-9ae3-4ac3-aaf2-1ac0400b1715" xmlns="http://www.w3.org/2000/svg" width="813" height="705.1" viewBox="0 0 813 705.1"><defs><style>.\32 e25efa0-1b1f-4b5b-99c9-77d6de3dfa80{fill:#fff;}</style></defs><title>chewingum</title><path class="2e25efa0-1b1f-4b5b-99c9-77d6de3dfa80" d="M951.5,566c-206.8-157-194.6-153.6,179.7-14.8C758.4,406.8,743.8,400.8,958.6,414.4c-215-20.5-214-18,3-73.8C743.7,389.9,757.3,386.2,1113,240.4,753.6,378.5,748.4,374.7,953.4,81.1,741.5,369.9,739.6,368.6,880.8,43.4,730.9,366.5,732.3,371.9,776.5,130.5,726.3,378,722.8,378.9,668.1,219.2c49.3,167.1,47.8,166.4-117.7,39.4,154,127,147.8,127-232.2,0,373.7,127,386.5,158.7,160,392.1,229.8-231.1,260.4-227.5,460,97.8C748,428.7,743.2,410.5,951.5,566Z" transform="translate(-318.2 -43.4)"/><path d="M951.5,566c-206.8-157-194.6-153.6,179.7-14.8C758.4,406.8,743.8,400.8,958.6,414.4c-215-20.5-214-18,3-73.8C743.7,389.9,757.3,386.2,1113,240.4,753.6,378.5,748.4,374.7,953.4,81.1,741.5,369.9,739.6,368.6,880.8,43.4,730.9,366.5,732.3,371.9,776.5,130.5,726.3,378,722.8,378.9,668.1,219.2c49.3,167.1,47.8,166.4-117.7,39.4,154,127,147.8,127-232.2,0,373.7,127,386.5,158.7,160,392.1,229.8-231.1,260.4-227.5,460,97.8C748,428.7,743.2,410.5,951.5,566Z" transform="translate(-318.2 -43.4)"/></svg>