<svg id="b4b0e92e-a831-412b-a8a5-96ffe42fff82" data-name="00e20892-249a-4d2b-add6-f49b03b62ec4" xmlns="http://www.w3.org/2000/svg" width="764.71" height="663.5" viewBox="0 0 764.71 663.5"><defs><style>.\32 e54fb27-6408-47c2-9d84-3d342ff0634f{fill:none;stroke:#000;stroke-miterlimit:10;stroke-width:1.5px;}</style></defs><title>chewing-gum</title><path d="M595.57,491.63C401.17,344,412.66,347.28,764.44,477.76,414,341.91,400.36,336.29,602.25,349.12c-202.09-19.27-201.12-16.94,2.77-69.37-204.86,46.31-192,42.82,142.33-94.14-337.84,129.77-342.7,126.14-150-149.81C398.17,307.25,396.38,306.06,529,.32,388.15,304.07,389.45,309.06,431,82.16c-47.12,232.64-50.41,233.46-101.9,83.37C375.47,322.61,374,322,218.47,202.61,363.27,322,357.37,322,.24,202.61,351.48,322,363.54,351.76,150.61,571.22,366.58,354,395.38,357.38,583,663.11,404.32,362.52,399.75,345.4,595.57,491.63Z" transform="translate(0 0)"/><path class="2e54fb27-6408-47c2-9d84-3d342ff0634f" d="M595.57,491.63C401.17,344,412.66,347.28,764.44,477.76,414,341.91,400.36,336.29,602.25,349.12c-202.09-19.27-201.12-16.94,2.77-69.37-204.86,46.31-192,42.82,142.33-94.14-337.84,129.77-342.7,126.14-150-149.81C398.17,307.25,396.38,306.06,529,.32,388.15,304.07,389.45,309.06,431,82.16c-47.12,232.64-50.41,233.46-101.9,83.37C375.47,322.61,374,322,218.47,202.61,363.27,322,357.37,322,.24,202.61,351.48,322,363.54,351.76,150.61,571.22,366.58,354,395.38,357.38,583,663.11,404.32,362.52,399.75,345.4,595.57,491.63Z" transform="translate(0 0)"/></svg>