<svg id="a5aa3344-977b-4055-a1fd-432acb1b79c3" data-name="929a63f3-9ae3-4ac3-aaf2-1ac0400b1715" xmlns="http://www.w3.org/2000/svg" xmlns:xlink="http://www.w3.org/1999/xlink" width="740.19" height="385.87" viewBox="0 0 740.19 385.87"><defs><style>.\30 e29d1fc-6580-4927-bc25-ff62574c8b96,.\37 aa37baf-25c5-4148-a87b-ddeb70ed5f17{fill:none;}.\30 59a65ea-b76e-44b7-9f4c-952ab744b747,.\33 bc5557b-aec6-4ba2-834e-38dd88df6ea1{fill:#fff;}.\30 e29d1fc-6580-4927-bc25-ff62574c8b96,.\33 bc5557b-aec6-4ba2-834e-38dd88df6ea1{stroke:#1e120d;stroke-miterlimit:10;stroke-width:1.2px;}.\31 a0f8d73-8cf4-404b-a260-23c888832062{fill:#1e120d;}.\39 0a0557d-2ae9-43e2-8fb7-061466e73d4e{clip-path:url(#f5108a27-a98f-4650-9106-7a4e2324d4bf);}</style><clipPath id="f5108a27-a98f-4650-9106-7a4e2324d4bf" transform="translate(-5.43 -103.26)"><path class="7aa37baf-25c5-4148-a87b-ddeb70ed5f17" d="M439.72,184.93c21.74,20.35,58,30.47,99.76,30.57-19.36,10.92-33.25,26.7-36.83,41.69a403.49,403.49,0,0,1,77.23,17.27,93.16,93.16,0,0,0-34.34,15.78L563,287.56c2.68,4.07,5.36,8.44,3.37,13.5s-10.82,10.42-17.17,8.93c-11.91,11.91-17.87,25.41-29.78,37.32l-459.08,141C48,439.63,18.36,358.54,6.15,309.8c0,0,420-129.14,430.1-130.63,15.78-2.38,30.18-13.1,40.9-22.63s15.48-22.53,6.75-29.48a174.66,174.66,0,0,0,38.51-19.26c-24.22,31.47-34.25,58.66-58.46,90.13-1.79-7.74-12.31-12.61-4.47-20.45"/></clipPath></defs><title>chocolate</title><g id="dd61bb0e-e2f8-43df-ac7d-c92865e6c583" data-name="&lt;Groupe&gt;"><path id="4051d12d-7a47-4c31-8ec6-1170f75e1413" data-name="&lt;Tracé&gt;" class="3bc5557b-aec6-4ba2-834e-38dd88df6ea1" d="M52.6,452.44,14.89,329a19.48,19.48,0,0,1,12.9-24.32L682.12,104.72a19.48,19.48,0,0,1,24.32,12.9l37.72,123.48a19.48,19.48,0,0,1-12.9,24.32L76.92,465.34A19.4,19.4,0,0,1,52.6,452.44Z" transform="translate(-5.43 -103.26)"/><g id="9ff1a703-4240-46a6-81a9-f04ad95df5ad" data-name="&lt;Groupe&gt;"><path id="975f1640-f440-4f6b-a1ae-7e20431dd559" data-name="&lt;Tracé&gt;" class="3bc5557b-aec6-4ba2-834e-38dd88df6ea1" d="M723.41,183.24l-53.3,16.38A22.73,22.73,0,0,0,655,228l15.29,49.83,53.1-94.6" transform="translate(-5.43 -103.26)"/><path id="c325af14-3f0d-4a55-bd9a-32c65ef95e12" data-name="&lt;Tracé&gt;" class="3bc5557b-aec6-4ba2-834e-38dd88df6ea1" d="M625.84,132.62l15.29,49.83a22.73,22.73,0,0,0,28.39,15.09l53.3-16.38Z" transform="translate(-5.43 -103.26)"/></g><g id="936088cd-2b27-4732-ba83-50d530ea08df" data-name="&lt;Groupe&gt;"><path class="3bc5557b-aec6-4ba2-834e-38dd88df6ea1" d="M667.92,278.53,652.64,228.7a22.73,22.73,0,0,0-28.39-15.09l-29.08,8.93.1-.3L542,238.63A22.73,22.73,0,0,0,526.87,267l15.29,49.83,44.37-79Z" transform="translate(-5.43 -103.26)"/><path class="3bc5557b-aec6-4ba2-834e-38dd88df6ea1" d="M638.74,183.14l-15.29-49.73-44.37,79-81.29-40.6,15.29,49.83a22.73,22.73,0,0,0,28.39,15.09l29.08-8.93-.1.3,53.3-16.38A23,23,0,0,0,638.74,183.14Z" transform="translate(-5.43 -103.26)"/><path id="faf77a9a-3cc1-4206-8868-35276c0ade84" data-name="&lt;Tracé&gt;" class="3bc5557b-aec6-4ba2-834e-38dd88df6ea1" d="M442.2,267.12l53.3-16.38a22.73,22.73,0,0,0,15.09-28.39l-15.29-49.83-53.1,94.6" transform="translate(-5.43 -103.26)"/><path id="5a235d38-46d4-4f28-ba78-8dd783453b73" data-name="&lt;Tracé&gt;" class="3bc5557b-aec6-4ba2-834e-38dd88df6ea1" d="M442.9,269.2l53.3-16.38a22.73,22.73,0,0,1,28.39,15.09l15.29,49.83" transform="translate(-5.43 -103.26)"/></g><g id="1f3f8387-58b1-4c20-8667-6b0e3f9203b8" data-name="&lt;Groupe&gt;"><path id="be39319e-d690-4465-a460-bbc6f2e078b9" data-name="&lt;Tracé&gt;" class="1a0f8d73-8cf4-404b-a260-23c888832062" d="M445.68,264.93l-53.3,16.38a22.73,22.73,0,0,0-15.09,28.39l15.29,49.83" transform="translate(-5.43 -103.26)"/><path id="7600624e-5467-4597-95bb-37b81f81a556" data-name="&lt;Tracé&gt;" class="1a0f8d73-8cf4-404b-a260-23c888832062" d="M445,262.85l-53.3,16.38a22.73,22.73,0,0,1-28.39-15.09L348,214.31" transform="translate(-5.43 -103.26)"/><path id="dac105bc-8214-4563-accc-971b4e02b81f" data-name="&lt;Tracé&gt;" class="1a0f8d73-8cf4-404b-a260-23c888832062" d="M292.52,309.7l53.3-16.38a22.73,22.73,0,0,0,15.09-28.39L345.62,215.1" transform="translate(-5.43 -103.26)"/><path id="0963a5fd-17eb-47ad-8d24-d3ff668fc44d" data-name="&lt;Tracé&gt;" class="1a0f8d73-8cf4-404b-a260-23c888832062" d="M293.21,311.78l53.3-16.38a22.73,22.73,0,0,1,28.39,15.09l15.29,49.83" transform="translate(-5.43 -103.26)"/></g><path id="752eb20d-f418-488b-a1ce-73c1da7c3287" data-name="&lt;Tracé&gt;" class="3bc5557b-aec6-4ba2-834e-38dd88df6ea1" d="M439.72,184.93c21.74,20.35,58,30.47,99.76,30.57-19.36,10.92-33.25,26.7-36.83,41.69a403.49,403.49,0,0,1,77.23,17.27,93.16,93.16,0,0,0-34.34,15.78L563,287.56c2.68,4.07,5.36,8.44,3.37,13.5s-10.82,10.42-17.17,8.93c-11.91,11.91-17.87,25.41-29.78,37.32l-459.08,141C48,439.63,18.36,358.54,6.15,309.8c0,0,420-129.14,430.1-130.63,15.78-2.38,30.18-13.1,40.9-22.63s15.48-22.53,6.75-29.48a174.66,174.66,0,0,0,38.51-19.26c-24.22,31.47-34.25,58.66-58.46,90.13-1.79-7.74-12.31-12.61-4.47-20.45" transform="translate(-5.43 -103.26)"/><path id="e2ce63b3-c7e3-43cf-b0d9-c291cd35c919" data-name="&lt;Tracé&gt;" class="0e29d1fc-6580-4927-bc25-ff62574c8b96" d="M34.44,404.79" transform="translate(-5.43 -103.26)"/><polyline id="8b408b57-8910-4d7b-8976-1d71f369730c" data-name="&lt;Tracé&gt;" class="3bc5557b-aec6-4ba2-834e-38dd88df6ea1" points="0.82 206.44 63.75 279.99 497.22 153.83"/><line id="a845a1fa-7e9b-482c-b19c-9206e01cd62b" data-name="&lt;Tracé&gt;" class="0e29d1fc-6580-4927-bc25-ff62574c8b96" x1="55.02" y1="385.01" x2="63.75" y2="279.99"/><g class="90a0557d-2ae9-43e2-8fb7-061466e73d4e"><path class="059a65ea-b76e-44b7-9f4c-952ab744b747" d="M162.88,418.89c-2.18,5-7.44,8.54-12.41,12.31-3.77,2.88-7.54,7.74-14.1,9.73-8.54,2.58-16.78.2-23.52-1.49-8.54-2.18-16.48-5.76-18.76-13.3-2.28-7.35,2.78-14.89,8.64-21.44,4.86-5.46,10.52-12.11,18.66-14.59,6-1.79,11.91.1,17,.4,6.25.3,13,.3,17.07,3.37.5,1.19-3.08.4-4.07,1.29s0,4.27-1.29,4.07c-4.47-3-8.44-7.15-13-7.54s-8.83,3-13.9,4.47c-6.85,2.08-14.1,3.77-18.07,8.44-4.67,5.56-4.37,12.71-2.38,19,2,6.45,5.46,12.71,12.41,14.69,5.66,1.59,12.41-1.09,19.75-3.37,5.26-1.59,10.72-1.39,14.1-4,3.77-3,4.76-8.83,6.65-13.5.89-.89,2.38,2.78,3.57,2.68C161.3,419.68,162.78,417.6,162.88,418.89Z" transform="translate(-5.43 -103.26)"/><path class="0e29d1fc-6580-4927-bc25-ff62574c8b96" d="M162.88,418.89c-2.18,5-7.44,8.54-12.41,12.31-3.77,2.88-7.54,7.74-14.1,9.73-8.54,2.58-16.78.2-23.52-1.49-8.54-2.18-16.48-5.76-18.76-13.3-2.28-7.35,2.78-14.89,8.64-21.44,4.86-5.46,10.52-12.11,18.66-14.59,6-1.79,11.91.1,17,.4,6.25.3,13,.3,17.07,3.37.5,1.19-3.08.4-4.07,1.29s0,4.27-1.29,4.07c-4.47-3-8.44-7.15-13-7.54s-8.83,3-13.9,4.47c-6.85,2.08-14.1,3.77-18.07,8.44-4.67,5.56-4.37,12.71-2.38,19,2,6.45,5.46,12.71,12.41,14.69,5.66,1.59,12.41-1.09,19.75-3.37,5.26-1.59,10.72-1.39,14.1-4,3.77-3,4.76-8.83,6.65-13.5.89-.89,2.38,2.78,3.57,2.68C161.3,419.68,162.78,417.6,162.88,418.89Z" transform="translate(-5.43 -103.26)"/><path class="059a65ea-b76e-44b7-9f4c-952ab744b747" d="M161.79,379.88c-.3-1.59,3.18.6,4.67.1s2.88-4.17,3.67-2.88c3,4.57-.69,6.35.89,11.61s-.69,7.74,4.67,8.83c9.73,2.08,9.63-.4,19.26-3.37s10.82-.79,17.77-7.94c3.87-4,.6-4.76-1.09-9.93s-5.66-4.57-5.76-10.12c0-1.59,3.18.79,4.67.3s3.18-4.17,3.77-2.68c5,11,1.09,12.51,4.67,24.12s7.54,10.62,9.63,22.53c.3,1.59-3.18-.6-4.67-.1s-2.88,4.17-3.77,2.88c-3.08-4.86.69-6.55-1-12s.69-8-4.86-9.33c-9.73-2.18-9.63.4-19.16,3.37s-10.92.69-17.77,7.94c-3.87,4.17-.5,5,1.19,10.42s5.66,4.86,5.86,10.52c0,1.59-3.18-.69-4.67-.3s-3.18,4.17-3.77,2.68c-5-11-.3-12.9-4.67-24.12C166.85,391,163.88,391.89,161.79,379.88Z" transform="translate(-5.43 -103.26)"/><path class="0e29d1fc-6580-4927-bc25-ff62574c8b96" d="M161.79,379.88c-.3-1.59,3.18.6,4.67.1s2.88-4.17,3.67-2.88c3,4.57-.69,6.35.89,11.61s-.69,7.74,4.67,8.83c9.73,2.08,9.63-.4,19.26-3.37s10.82-.79,17.77-7.94c3.87-4,.6-4.76-1.09-9.93s-5.66-4.57-5.76-10.12c0-1.59,3.18.79,4.67.3s3.18-4.17,3.77-2.68c5,11,1.09,12.51,4.67,24.12s7.54,10.62,9.63,22.53c.3,1.59-3.18-.6-4.67-.1s-2.88,4.17-3.77,2.88c-3.08-4.86.69-6.55-1-12s.69-8-4.86-9.33c-9.73-2.18-9.63.4-19.16,3.37s-10.92.69-17.77,7.94c-3.87,4.17-.5,5,1.19,10.42s5.66,4.86,5.86,10.52c0,1.59-3.18-.69-4.67-.3s-3.18,4.17-3.77,2.68c-5-11-.3-12.9-4.67-24.12C166.85,391,163.88,391.89,161.79,379.88Z" transform="translate(-5.43 -103.26)"/><path class="059a65ea-b76e-44b7-9f4c-952ab744b747" d="M274.45,398.74c-8.44,2.58-16.68.3-23.62-1.39-8.24-2.08-16.08-5.46-18.56-13.5s2.18-15.19,7.84-21.54c4.76-5.26,10.32-11.81,18.76-14.39s16.68-.3,23.62,1.39c8.24,2.08,16.08,5.46,18.56,13.5s-2.18,15.19-7.84,21.54C288.45,389.7,282.89,396.25,274.45,398.74Zm18-33.25c-2.08-6.75-5.36-12.9-12.11-14.89-5.66-1.59-12.41,1.19-19.55,3.37s-14.39,3.67-18.07,8.14c-4.47,5.36-3.77,12.31-1.69,19.06s5.36,12.9,12.11,14.89c5.66,1.59,12.41-1.19,19.55-3.37s14.39-3.67,18.07-8.14C295.2,379.28,294.5,372.23,292.42,365.48Z" transform="translate(-5.43 -103.26)"/><path class="0e29d1fc-6580-4927-bc25-ff62574c8b96" d="M274.45,398.74c-8.44,2.58-16.68.3-23.62-1.39-8.24-2.08-16.08-5.46-18.56-13.5s2.18-15.19,7.84-21.54c4.76-5.26,10.32-11.81,18.76-14.39s16.68-.3,23.62,1.39c8.24,2.08,16.08,5.46,18.56,13.5s-2.18,15.19-7.84,21.54C288.45,389.7,282.89,396.25,274.45,398.74Zm18-33.25c-2.08-6.75-5.36-12.9-12.11-14.89-5.66-1.59-12.41,1.19-19.55,3.37s-14.39,3.67-18.07,8.14c-4.47,5.36-3.77,12.31-1.69,19.06s5.36,12.9,12.11,14.89c5.66,1.59,12.41-1.19,19.55-3.37s14.39-3.67,18.07-8.14C295.2,379.28,294.5,372.23,292.42,365.48Z" transform="translate(-5.43 -103.26)"/><path class="059a65ea-b76e-44b7-9f4c-952ab744b747" d="M378.58,353c-2.18,5-7.44,8.54-12.41,12.31-3.77,2.88-7.54,7.74-14.1,9.73-8.54,2.58-16.78.2-23.52-1.49-8.54-2.18-16.48-5.76-18.76-13.3-2.28-7.35,2.78-14.89,8.64-21.44,4.86-5.46,10.52-12.11,18.66-14.59,6-1.79,11.91.1,17,.4,6.25.3,13,.3,17.07,3.37.5,1.19-3.08.4-4.07,1.29s0,4.27-1.29,4.07c-4.47-3-8.44-7.15-13-7.54s-8.83,3-13.9,4.47c-6.85,2.08-14.1,3.77-18.07,8.44-4.67,5.56-4.37,12.71-2.38,19,2,6.45,5.46,12.71,12.41,14.69,5.66,1.59,12.41-1.09,19.75-3.37,5.26-1.59,10.72-1.39,14.1-4,3.77-3,4.76-8.83,6.65-13.5.89-.89,2.38,2.78,3.57,2.68C376.89,353.87,378.48,351.69,378.58,353Z" transform="translate(-5.43 -103.26)"/><path class="0e29d1fc-6580-4927-bc25-ff62574c8b96" d="M378.58,353c-2.18,5-7.44,8.54-12.41,12.31-3.77,2.88-7.54,7.74-14.1,9.73-8.54,2.58-16.78.2-23.52-1.49-8.54-2.18-16.48-5.76-18.76-13.3-2.28-7.35,2.78-14.89,8.64-21.44,4.86-5.46,10.52-12.11,18.66-14.59,6-1.79,11.91.1,17,.4,6.25.3,13,.3,17.07,3.37.5,1.19-3.08.4-4.07,1.29s0,4.27-1.29,4.07c-4.47-3-8.44-7.15-13-7.54s-8.83,3-13.9,4.47c-6.85,2.08-14.1,3.77-18.07,8.44-4.67,5.56-4.37,12.71-2.38,19,2,6.45,5.46,12.71,12.41,14.69,5.66,1.59,12.41-1.09,19.75-3.37,5.26-1.59,10.72-1.39,14.1-4,3.77-3,4.76-8.83,6.65-13.5.89-.89,2.38,2.78,3.57,2.68C376.89,353.87,378.48,351.69,378.58,353Z" transform="translate(-5.43 -103.26)"/><path class="059a65ea-b76e-44b7-9f4c-952ab744b747" d="M424.24,353.08c-8.44,2.58-16.68.3-23.62-1.39-8.24-2.08-16.08-5.46-18.56-13.5s2.18-15.19,7.84-21.54c4.76-5.26,10.32-11.81,18.76-14.39s16.68-.3,23.62,1.39c8.24,2.08,16.08,5.46,18.56,13.5s-2.18,15.19-7.84,21.54C438.23,343.94,432.67,350.5,424.24,353.08Zm18-33.25c-2.08-6.75-5.36-12.9-12.11-14.89-5.66-1.59-12.41,1.19-19.55,3.37s-14.39,3.67-18.07,8.14c-4.47,5.36-3.77,12.31-1.69,19.06s5.36,12.9,12.11,14.89c5.66,1.59,12.41-1.19,19.55-3.37s14.39-3.67,18.07-8.14C445,333.52,444.29,326.47,442.2,319.82Z" transform="translate(-5.43 -103.26)"/><path class="0e29d1fc-6580-4927-bc25-ff62574c8b96" d="M424.24,353.08c-8.44,2.58-16.68.3-23.62-1.39-8.24-2.08-16.08-5.46-18.56-13.5s2.18-15.19,7.84-21.54c4.76-5.26,10.32-11.81,18.76-14.39s16.68-.3,23.62,1.39c8.24,2.08,16.08,5.46,18.56,13.5s-2.18,15.19-7.84,21.54C438.23,343.94,432.67,350.5,424.24,353.08Zm18-33.25c-2.08-6.75-5.36-12.9-12.11-14.89-5.66-1.59-12.41,1.19-19.55,3.37s-14.39,3.67-18.07,8.14c-4.47,5.36-3.77,12.31-1.69,19.06s5.36,12.9,12.11,14.89c5.66,1.59,12.41-1.19,19.55-3.37s14.39-3.67,18.07-8.14C445,333.52,444.29,326.47,442.2,319.82Z" transform="translate(-5.43 -103.26)"/><path class="059a65ea-b76e-44b7-9f4c-952ab744b747" d="M454.51,290.54c-.3-1.59,3,.4,4.47,0s3.08-3.87,3.67-2.48c4.76,10.12,1.19,11.51,4.47,22.23s-1.19,14.1,8.24,20.15c7.84,5.16,8.73-.69,17.67-3.47s8.24-5.76,17.37-7.64c.89-.2-.6,2.28-.3,3.18s2.88,2.08,2,2.48c-10.22,4.07-11.22,1.09-21.74,4.27s-11.81,14.1-21.24,8.44c-10.42-6.25-1.09-13.2-5.46-24.52C459.38,301.66,456.5,302.45,454.51,290.54Z" transform="translate(-5.43 -103.26)"/><path class="0e29d1fc-6580-4927-bc25-ff62574c8b96" d="M454.51,290.54c-.3-1.59,3,.4,4.47,0s3.08-3.87,3.67-2.48c4.76,10.12,1.19,11.51,4.47,22.23s-1.19,14.1,8.24,20.15c7.84,5.16,8.73-.69,17.67-3.47s8.24-5.76,17.37-7.64c.89-.2-.6,2.28-.3,3.18s2.88,2.08,2,2.48c-10.22,4.07-11.22,1.09-21.74,4.27s-11.81,14.1-21.24,8.44c-10.42-6.25-1.09-13.2-5.46-24.52C459.38,301.66,456.5,302.45,454.51,290.54Z" transform="translate(-5.43 -103.26)"/><path class="059a65ea-b76e-44b7-9f4c-952ab744b747" d="M530.84,266.62c.6-1.59,3.18,1.09,4.86.6s2.28-4.27,3.67-3.18c11.42,8.34,8.93,11.42,19.55,20.84s13.4,6.65,22.83,17.07c1.09,1.19-2.88.1-4.47.6s-1.89,4.07-3.37,3.28c-3.87-2-1.89-5-5.06-7.94s-3-3.47-7.44-3.67c-8.54-.3-8.54,0-16.68,2.58S536.4,299,529.45,304c-3.57,2.58-3,3-4.07,7.15s2.28,5.56.2,9.43c-.79,1.49-3.08-1.29-4.67-.89s-4.27,3.67-4.07,2c2-14,6.85-13.1,9.43-27S526.08,279.92,530.84,266.62Zm7.25,6.75c-.5-.4.89-2.58.5-3-.79-.69-.89.69-1.69.89s-1.69-.89-1.89.2c-.1.5,2.18,1.59,2.08,2.18-1.59,6.45-4,5.86-5.56,12.31s-6.45,8.24-1.19,12.21c6.05,4.57,6.85,0,14.1-2.18s10.42,1.09,12.9-6.05c2.18-6.25-2.68-5.36-7.84-9.43C544.34,276.15,543.05,277.84,538.09,273.37Z" transform="translate(-5.43 -103.26)"/><path class="0e29d1fc-6580-4927-bc25-ff62574c8b96" d="M530.84,266.62c.6-1.59,3.18,1.09,4.86.6s2.28-4.27,3.67-3.18c11.42,8.34,8.93,11.42,19.55,20.84s13.4,6.65,22.83,17.07c1.09,1.19-2.88.1-4.47.6s-1.89,4.07-3.37,3.28c-3.87-2-1.89-5-5.06-7.94s-3-3.47-7.44-3.67c-8.54-.3-8.54,0-16.68,2.58S536.4,299,529.45,304c-3.57,2.58-3,3-4.07,7.15s2.28,5.56.2,9.43c-.79,1.49-3.08-1.29-4.67-.89s-4.27,3.67-4.07,2c2-14,6.85-13.1,9.43-27S526.08,279.92,530.84,266.62Zm7.25,6.75c-.5-.4.89-2.58.5-3-.79-.69-.89.69-1.69.89s-1.69-.89-1.89.2c-.1.5,2.18,1.59,2.08,2.18-1.59,6.45-4,5.86-5.56,12.31s-6.45,8.24-1.19,12.21c6.05,4.57,6.85,0,14.1-2.18s10.42,1.09,12.9-6.05c2.18-6.25-2.68-5.36-7.84-9.43C544.34,276.15,543.05,277.84,538.09,273.37Z" transform="translate(-5.43 -103.26)"/><path class="059a65ea-b76e-44b7-9f4c-952ab744b747" d="M557.55,258.08c12.21-4.67,13.2-1.69,25.61-5.56s11.71-6.75,24.32-9.73c.89-.2-.5,2.28-.3,3.08s2.88,2,2.08,2.38c-5.16,2.48-6.25-.4-11.71,1.29s-8.54-1.09-9.53,4.57c-2,11,1.19,10.82,4.47,21.54s6.95,9.93,8.64,20.94c.2,1.59-2.88-.4-4.47,0s-3,3.87-3.67,2.48c-4.76-10.12-1.19-11.51-4.47-22.23s-.6-12.31-8.44-20.35c-4-4.07-5-.1-10.52,1.49s-4.76,4.67-10.52,5.46c-.89.1.69-2.58.3-3.37C558.74,258.88,556.75,258.38,557.55,258.08Z" transform="translate(-5.43 -103.26)"/><path class="0e29d1fc-6580-4927-bc25-ff62574c8b96" d="M557.55,258.08c12.21-4.67,13.2-1.69,25.61-5.56s11.71-6.75,24.32-9.73c.89-.2-.5,2.28-.3,3.08s2.88,2,2.08,2.38c-5.16,2.48-6.25-.4-11.71,1.29s-8.54-1.09-9.53,4.57c-2,11,1.19,10.82,4.47,21.54s6.95,9.93,8.64,20.94c.2,1.59-2.88-.4-4.47,0s-3,3.87-3.67,2.48c-4.76-10.12-1.19-11.51-4.47-22.23s-.6-12.31-8.44-20.35c-4-4.07-5-.1-10.52,1.49s-4.76,4.67-10.52,5.46c-.89.1.69-2.58.3-3.37C558.74,258.88,556.75,258.38,557.55,258.08Z" transform="translate(-5.43 -103.26)"/><path class="059a65ea-b76e-44b7-9f4c-952ab744b747" d="M617.5,240.12c4.57-9.83,11.81-1.59,22.23-4.76s9.63-6.35,20.25-8.64c.89-.2-.6,2.38-.4,3.18s3,2.08,2.08,2.48c-8.64,3.57-9.73.5-18.56,3.18s-9.83,1.09-16.68,7.44c-3.28,3.08-.6,3.77.69,8s-.4,6.25,4,7.15c8.44,1.59,8.34-.2,16.48-2.68s7.44-5.66,15.78-7.25c.89-.2-.6,2.38-.4,3.18s3,2.08,2.08,2.48c-7.84,3.37-9,.3-17.17,2.78s-9.33.69-15.19,6.95c-3.37,3.57-.6,4.27.89,8.93s-.6,6.95,4.17,7.94c9.23,1.69,9.13-.5,18.07-3.18s8.14-5.86,17.37-7.74c.89-.2-.6,2.38-.4,3.18s2.88,2.18,2.08,2.48c-10.22,4.07-11.22,1-21.74,4.17s-11.81,14.19-21.24,8.54c-10.42-6.25.5-14.19-5.46-24.72C620.18,251.63,612.44,251,617.5,240.12Z" transform="translate(-5.43 -103.26)"/><path class="0e29d1fc-6580-4927-bc25-ff62574c8b96" d="M617.5,240.12c4.57-9.83,11.81-1.59,22.23-4.76s9.63-6.35,20.25-8.64c.89-.2-.6,2.38-.4,3.18s3,2.08,2.08,2.48c-8.64,3.57-9.73.5-18.56,3.18s-9.83,1.09-16.68,7.44c-3.28,3.08-.6,3.77.69,8s-.4,6.25,4,7.15c8.44,1.59,8.34-.2,16.48-2.68s7.44-5.66,15.78-7.25c.89-.2-.6,2.38-.4,3.18s3,2.08,2.08,2.48c-7.84,3.37-9,.3-17.17,2.78s-9.33.69-15.19,6.95c-3.37,3.57-.6,4.27.89,8.93s-.6,6.95,4.17,7.94c9.23,1.69,9.13-.5,18.07-3.18s8.14-5.86,17.37-7.74c.89-.2-.6,2.38-.4,3.18s2.88,2.18,2.08,2.48c-10.22,4.07-11.22,1-21.74,4.17s-11.81,14.19-21.24,8.54c-10.42-6.25.5-14.19-5.46-24.72C620.18,251.63,612.44,251,617.5,240.12Z" transform="translate(-5.43 -103.26)"/></g><g class="90a0557d-2ae9-43e2-8fb7-061466e73d4e"><path class="059a65ea-b76e-44b7-9f4c-952ab744b747" d="M632.39,148.7c2.18-5,7.44-8.54,12.41-12.31,3.77-2.88,7.54-7.74,14.1-9.73,8.54-2.58,16.78-.2,23.52,1.49,8.54,2.18,16.48,5.76,18.76,13.3,2.28,7.35-2.78,14.89-8.64,21.44-4.86,5.46-10.52,12.11-18.66,14.59-6,1.79-11.91-.1-17-.4-6.25-.3-13-.3-17.07-3.37-.5-1.19,3.08-.4,4.07-1.29s0-4.27,1.29-4.07c4.47,3,8.44,7.15,13,7.54s8.83-3,13.9-4.47c6.85-2.08,14.1-3.77,18.07-8.44,4.67-5.56,4.37-12.71,2.38-19-2-6.45-5.46-12.71-12.41-14.69-5.66-1.59-12.41,1.09-19.75,3.37-5.26,1.59-10.72,1.39-14.1,4-3.77,3-4.76,8.83-6.65,13.5-.89.89-2.38-2.78-3.57-2.68C634,147.9,632.39,150,632.39,148.7Z" transform="translate(-5.43 -103.26)"/><path class="0e29d1fc-6580-4927-bc25-ff62574c8b96" d="M632.39,148.7c2.18-5,7.44-8.54,12.41-12.31,3.77-2.88,7.54-7.74,14.1-9.73,8.54-2.58,16.78-.2,23.52,1.49,8.54,2.18,16.48,5.76,18.76,13.3,2.28,7.35-2.78,14.89-8.64,21.44-4.86,5.46-10.52,12.11-18.66,14.59-6,1.79-11.91-.1-17-.4-6.25-.3-13-.3-17.07-3.37-.5-1.19,3.08-.4,4.07-1.29s0-4.27,1.29-4.07c4.47,3,8.44,7.15,13,7.54s8.83-3,13.9-4.47c6.85-2.08,14.1-3.77,18.07-8.44,4.67-5.56,4.37-12.71,2.38-19-2-6.45-5.46-12.71-12.41-14.69-5.66-1.59-12.41,1.09-19.75,3.37-5.26,1.59-10.72,1.39-14.1,4-3.77,3-4.76,8.83-6.65,13.5-.89.89-2.38-2.78-3.57-2.68C634,147.9,632.39,150,632.39,148.7Z" transform="translate(-5.43 -103.26)"/><path class="059a65ea-b76e-44b7-9f4c-952ab744b747" d="M627.42,189.49c.3,1.59-3.18-.6-4.67-.1s-2.88,4.17-3.67,2.88c-3-4.57.69-6.35-.89-11.61s.69-7.74-4.67-8.83c-9.73-2.08-9.63.4-19.26,3.37s-10.82.79-17.77,7.94c-3.87,4-.6,4.76,1.09,9.93s5.66,4.57,5.76,10.12c0,1.59-3.18-.79-4.67-.3s-3.18,4.17-3.77,2.68c-5-11-1.09-12.51-4.67-24.12s-7.54-10.62-9.63-22.53c-.3-1.59,3.18.6,4.67.1s2.88-4.17,3.77-2.88c3.08,4.86-.69,6.55,1,12s-.69,8,4.86,9.33c9.73,2.18,9.63-.4,19.16-3.37s10.92-.69,17.77-7.94c3.87-4.17.5-5-1.19-10.42s-5.66-4.86-5.86-10.52c0-1.59,3.18.69,4.67.3s3.18-4.17,3.77-2.68c5,11,.3,12.9,4.67,24.12C622.36,178.48,625.34,177.58,627.42,189.49Z" transform="translate(-5.43 -103.26)"/><path class="0e29d1fc-6580-4927-bc25-ff62574c8b96" d="M627.42,189.49c.3,1.59-3.18-.6-4.67-.1s-2.88,4.17-3.67,2.88c-3-4.57.69-6.35-.89-11.61s.69-7.74-4.67-8.83c-9.73-2.08-9.63.4-19.26,3.37s-10.82.79-17.77,7.94c-3.87,4-.6,4.76,1.09,9.93s5.66,4.57,5.76,10.12c0,1.59-3.18-.79-4.67-.3s-3.18,4.17-3.77,2.68c-5-11-1.09-12.51-4.67-24.12s-7.54-10.62-9.63-22.53c-.3-1.59,3.18.6,4.67.1s2.88-4.17,3.77-2.88c3.08,4.86-.69,6.55,1,12s-.69,8,4.86,9.33c9.73,2.18,9.63-.4,19.16-3.37s10.92-.69,17.77-7.94c3.87-4.17.5-5-1.19-10.42s-5.66-4.86-5.86-10.52c0-1.59,3.18.69,4.67.3s3.18-4.17,3.77-2.68c5,11,.3,12.9,4.67,24.12C622.36,178.48,625.34,177.58,627.42,189.49Z" transform="translate(-5.43 -103.26)"/><path class="059a65ea-b76e-44b7-9f4c-952ab744b747" d="M508.71,172.52c8.44-2.58,16.68-.3,23.62,1.39,8.24,2.08,16.08,5.46,18.56,13.5s-2.18,15.19-7.84,21.54c-4.76,5.26-10.32,11.81-18.76,14.39s-16.68.3-23.62-1.39c-8.24-2.08-16.08-5.46-18.56-13.5s2.18-15.19,7.84-21.54C494.71,181.55,500.27,175.1,508.71,172.52Zm-18,33.25c2.08,6.75,5.36,12.9,12.11,14.89,5.66,1.59,12.41-1.19,19.55-3.37s14.39-3.67,18.07-8.14c4.47-5.36,3.77-12.31,1.69-19.06S536.8,177.19,530,175.2c-5.66-1.59-12.41,1.19-19.55,3.37s-14.39,3.67-18.07,8.14C488.06,192,488.76,199,490.74,205.77Z" transform="translate(-5.43 -103.26)"/><path class="0e29d1fc-6580-4927-bc25-ff62574c8b96" d="M508.71,172.52c8.44-2.58,16.68-.3,23.62,1.39,8.24,2.08,16.08,5.46,18.56,13.5s-2.18,15.19-7.84,21.54c-4.76,5.26-10.32,11.81-18.76,14.39s-16.68.3-23.62-1.39c-8.24-2.08-16.08-5.46-18.56-13.5s2.18-15.19,7.84-21.54C494.71,181.55,500.27,175.1,508.71,172.52Zm-18,33.25c2.08,6.75,5.36,12.9,12.11,14.89,5.66,1.59,12.41-1.19,19.55-3.37s14.39-3.67,18.07-8.14c4.47-5.36,3.77-12.31,1.69-19.06S536.8,177.19,530,175.2c-5.66-1.59-12.41,1.19-19.55,3.37s-14.39,3.67-18.07,8.14C488.06,192,488.76,199,490.74,205.77Z" transform="translate(-5.43 -103.26)"/><path class="059a65ea-b76e-44b7-9f4c-952ab744b747" d="M398.63,220.07c2.18-5,7.44-8.54,12.41-12.31,3.77-2.88,7.54-7.74,14.1-9.73,8.54-2.58,16.78-.2,23.52,1.49,8.54,2.18,16.48,5.76,18.76,13.3,2.28,7.35-2.78,14.89-8.64,21.44-4.86,5.46-10.52,12.11-18.66,14.59-6,1.79-11.91-.1-17-.4-6.25-.3-13-.3-17.07-3.37-.5-1.19,3.08-.4,4.07-1.29s0-4.27,1.29-4.07c4.47,3,8.44,7.15,13,7.54s8.83-3,13.9-4.47c6.85-2.08,14.1-3.77,18.07-8.44,4.67-5.56,4.37-12.71,2.38-19-2-6.45-5.46-12.71-12.41-14.69-5.66-1.59-12.41,1.09-19.75,3.37-5.26,1.59-10.72,1.39-14.1,4-3.77,3-4.76,8.83-6.65,13.5-.89.89-2.38-2.78-3.57-2.68C400.22,219.27,398.73,221.36,398.63,220.07Z" transform="translate(-5.43 -103.26)"/><path class="0e29d1fc-6580-4927-bc25-ff62574c8b96" d="M398.63,220.07c2.18-5,7.44-8.54,12.41-12.31,3.77-2.88,7.54-7.74,14.1-9.73,8.54-2.58,16.78-.2,23.52,1.49,8.54,2.18,16.48,5.76,18.76,13.3,2.28,7.35-2.78,14.89-8.64,21.44-4.86,5.46-10.52,12.11-18.66,14.59-6,1.79-11.91-.1-17-.4-6.25-.3-13-.3-17.07-3.37-.5-1.19,3.08-.4,4.07-1.29s0-4.27,1.29-4.07c4.47,3,8.44,7.15,13,7.54s8.83-3,13.9-4.47c6.85-2.08,14.1-3.77,18.07-8.44,4.67-5.56,4.37-12.71,2.38-19-2-6.45-5.46-12.71-12.41-14.69-5.66-1.59-12.41,1.09-19.75,3.37-5.26,1.59-10.72,1.39-14.1,4-3.77,3-4.76,8.83-6.65,13.5-.89.89-2.38-2.78-3.57-2.68C400.22,219.27,398.73,221.36,398.63,220.07Z" transform="translate(-5.43 -103.26)"/><path class="059a65ea-b76e-44b7-9f4c-952ab744b747" d="M346.91,222c8.44-2.58,16.68-.3,23.62,1.39,8.24,2.08,16.08,5.46,18.56,13.5s-2.18,15.19-7.84,21.54c-4.76,5.26-10.32,11.81-18.76,14.39s-16.68.3-23.62-1.39c-8.24-2.08-16.08-5.46-18.56-13.5s2.18-15.19,7.84-21.54C332.82,231,338.48,224.53,346.91,222Zm-18,33.25c2.08,6.75,5.36,12.9,12.11,14.89,5.66,1.59,12.41-1.19,19.55-3.37S375,263,378.68,258.58c4.47-5.36,3.77-12.31,1.69-19.06s-5.36-12.9-12.11-14.89c-5.66-1.59-12.41,1.19-19.55,3.37s-14.39,3.67-18.07,8.14C326.17,241.41,326.86,248.45,328.95,255.2Z" transform="translate(-5.43 -103.26)"/><path class="0e29d1fc-6580-4927-bc25-ff62574c8b96" d="M346.91,222c8.44-2.58,16.68-.3,23.62,1.39,8.24,2.08,16.08,5.46,18.56,13.5s-2.18,15.19-7.84,21.54c-4.76,5.26-10.32,11.81-18.76,14.39s-16.68.3-23.62-1.39c-8.24-2.08-16.08-5.46-18.56-13.5s2.18-15.19,7.84-21.54C332.82,231,338.48,224.53,346.91,222Zm-18,33.25c2.08,6.75,5.36,12.9,12.11,14.89,5.66,1.59,12.41-1.19,19.55-3.37S375,263,378.68,258.58c4.47-5.36,3.77-12.31,1.69-19.06s-5.36-12.9-12.11-14.89c-5.66-1.59-12.41,1.19-19.55,3.37s-14.39,3.67-18.07,8.14C326.17,241.41,326.86,248.45,328.95,255.2Z" transform="translate(-5.43 -103.26)"/><path class="059a65ea-b76e-44b7-9f4c-952ab744b747" d="M310.58,286.27c.3,1.59-3-.4-4.47,0s-3.08,3.87-3.67,2.48c-4.76-10.12-1.19-11.51-4.47-22.23s1.19-14.1-8.24-20.15c-7.84-5.16-8.73.69-17.67,3.47s-8.24,5.76-17.37,7.64c-.89.2.6-2.28.3-3.18s-2.88-2.08-2-2.48c10.22-4.07,11.22-1.09,21.74-4.27s11.81-14.1,21.24-8.44c10.42,6.25,1.09,13.2,5.46,24.52C305.72,275.16,308.6,274.36,310.58,286.27Z" transform="translate(-5.43 -103.26)"/><path class="0e29d1fc-6580-4927-bc25-ff62574c8b96" d="M310.58,286.27c.3,1.59-3-.4-4.47,0s-3.08,3.87-3.67,2.48c-4.76-10.12-1.19-11.51-4.47-22.23s1.19-14.1-8.24-20.15c-7.84-5.16-8.73.69-17.67,3.47s-8.24,5.76-17.37,7.64c-.89.2.6-2.28.3-3.18s-2.88-2.08-2-2.48c10.22-4.07,11.22-1.09,21.74-4.27s11.81-14.1,21.24-8.44c10.42,6.25,1.09,13.2,5.46,24.52C305.72,275.16,308.6,274.36,310.58,286.27Z" transform="translate(-5.43 -103.26)"/><path class="059a65ea-b76e-44b7-9f4c-952ab744b747" d="M228.2,312.08c-.6,1.59-3.18-1.09-4.86-.6s-2.28,4.27-3.67,3.18c-11.42-8.34-8.93-11.42-19.55-20.84s-13.4-6.65-22.83-17.07c-1.09-1.19,2.88-.1,4.47-.6s1.89-4.07,3.37-3.28c3.87,2,1.89,5,5.06,7.94s3,3.47,7.44,3.67c8.54.3,8.54,0,16.68-2.58s8.34-2.18,15.29-7.25c3.57-2.58,3-3,4.07-7.15s-2.28-5.56-.2-9.43c.79-1.49,3.08,1.29,4.67.89s4.27-3.67,4.07-2c-2,14-6.85,13.1-9.43,27S233.06,298.78,228.2,312.08ZM221,305.33c.5.4-.89,2.58-.5,3,.79.69.89-.69,1.69-.89s1.69.89,1.89-.2c.1-.5-2.18-1.59-2.08-2.18,1.59-6.45,4-5.86,5.56-12.31s6.45-8.24,1.19-12.21c-6.05-4.57-6.85,0-14.1,2.18s-10.42-1.09-12.9,6.05c-2.18,6.25,2.68,5.36,7.84,9.43C214.7,302.45,216.09,300.86,221,305.33Z" transform="translate(-5.43 -103.26)"/><path class="0e29d1fc-6580-4927-bc25-ff62574c8b96" d="M228.2,312.08c-.6,1.59-3.18-1.09-4.86-.6s-2.28,4.27-3.67,3.18c-11.42-8.34-8.93-11.42-19.55-20.84s-13.4-6.65-22.83-17.07c-1.09-1.19,2.88-.1,4.47-.6s1.89-4.07,3.37-3.28c3.87,2,1.89,5,5.06,7.94s3,3.47,7.44,3.67c8.54.3,8.54,0,16.68-2.58s8.34-2.18,15.29-7.25c3.57-2.58,3-3,4.07-7.15s-2.28-5.56-.2-9.43c.79-1.49,3.08,1.29,4.67.89s4.27-3.67,4.07-2c-2,14-6.85,13.1-9.43,27S233.06,298.78,228.2,312.08ZM221,305.33c.5.4-.89,2.58-.5,3,.79.69.89-.69,1.69-.89s1.69.89,1.89-.2c.1-.5-2.18-1.59-2.08-2.18,1.59-6.45,4-5.86,5.56-12.31s6.45-8.24,1.19-12.21c-6.05-4.57-6.85,0-14.1,2.18s-10.42-1.09-12.9,6.05c-2.18,6.25,2.68,5.36,7.84,9.43C214.7,302.45,216.09,300.86,221,305.33Z" transform="translate(-5.43 -103.26)"/><path class="059a65ea-b76e-44b7-9f4c-952ab744b747" d="M195.44,322.4c-12.21,4.67-13.2,1.69-25.61,5.56s-11.71,6.75-24.32,9.73c-.89.2.5-2.28.3-3.08s-2.88-2-2.08-2.38c5.16-2.48,6.25.4,11.71-1.29S164,332,165,326.37c2-11-1.19-10.82-4.47-21.54s-6.95-9.93-8.64-20.94c-.2-1.59,2.88.4,4.47,0s3-3.87,3.67-2.48c4.76,10.12,1.19,11.51,4.47,22.23s.6,12.31,8.44,20.35c4,4.07,5,.1,10.52-1.49S188.2,317.84,194,317c.89-.1-.69,2.58-.3,3.37C194.35,321.61,196.33,322.11,195.44,322.4Z" transform="translate(-5.43 -103.26)"/><path class="0e29d1fc-6580-4927-bc25-ff62574c8b96" d="M195.44,322.4c-12.21,4.67-13.2,1.69-25.61,5.56s-11.71,6.75-24.32,9.73c-.89.2.5-2.28.3-3.08s-2.88-2-2.08-2.38c5.16-2.48,6.25.4,11.71-1.29S164,332,165,326.37c2-11-1.19-10.82-4.47-21.54s-6.95-9.93-8.64-20.94c-.2-1.59,2.88.4,4.47,0s3-3.87,3.67-2.48c4.76,10.12,1.19,11.51,4.47,22.23s.6,12.31,8.44,20.35c4,4.07,5,.1,10.52-1.49S188.2,317.84,194,317c.89-.1-.69,2.58-.3,3.37C194.35,321.61,196.33,322.11,195.44,322.4Z" transform="translate(-5.43 -103.26)"/><path class="059a65ea-b76e-44b7-9f4c-952ab744b747" d="M129.53,342.26c-4.57,9.83-11.81,1.59-22.23,4.76s-9.63,6.35-20.25,8.64c-.89.2.6-2.38.4-3.18s-3-2.08-2.08-2.48c8.64-3.57,9.73-.5,18.56-3.18s9.83-1.09,16.68-7.44c3.28-3.08.6-3.77-.69-8s.4-6.25-4-7.15c-8.44-1.59-8.34.2-16.48,2.68s-7.44,5.66-15.78,7.25c-.89.2.6-2.38.4-3.18s-3-2.08-2.08-2.48c7.84-3.37,9-.3,17.17-2.78s9.33-.69,15.19-6.95c3.37-3.57.6-4.27-.89-8.93s.6-6.95-4.27-7.94c-9.23-1.69-9.13.5-18.07,3.18s-8.14,5.86-17.37,7.74c-.89.2.6-2.38.4-3.18s-2.88-2.18-2.08-2.48c10.22-4.07,11.22-1,21.74-4.17s11.81-14.19,21.24-8.54c10.42,6.25-.5,14.19,5.46,24.72C126.85,330.74,134.59,331.24,129.53,342.26Z" transform="translate(-5.43 -103.26)"/><path class="0e29d1fc-6580-4927-bc25-ff62574c8b96" d="M129.53,342.26c-4.57,9.83-11.81,1.59-22.23,4.76s-9.63,6.35-20.25,8.64c-.89.2.6-2.38.4-3.18s-3-2.08-2.08-2.48c8.64-3.57,9.73-.5,18.56-3.18s9.83-1.09,16.68-7.44c3.28-3.08.6-3.77-.69-8s.4-6.25-4-7.15c-8.44-1.59-8.34.2-16.48,2.68s-7.44,5.66-15.78,7.25c-.89.2.6-2.38.4-3.18s-3-2.08-2.08-2.48c7.84-3.37,9-.3,17.17-2.78s9.33-.69,15.19-6.95c3.37-3.57.6-4.27-.89-8.93s.6-6.95-4.27-7.94c-9.23-1.69-9.13.5-18.07,3.18s-8.14,5.86-17.37,7.74c-.89.2.6-2.38.4-3.18s-2.88-2.18-2.08-2.48c10.22-4.07,11.22-1,21.74-4.17s11.81-14.19,21.24-8.54c10.42,6.25-.5,14.19,5.46,24.72C126.85,330.74,134.59,331.24,129.53,342.26Z" transform="translate(-5.43 -103.26)"/></g></g></svg>