<svg id="456aa4ac-21c0-4fa6-8618-f6009e8b04bb" data-name="929a63f3-9ae3-4ac3-aaf2-1ac0400b1715" xmlns="http://www.w3.org/2000/svg" width="949.92" height="494.85" viewBox="0 0 949.92 494.85"><defs><style>.\30 803dcfc-b5e4-4dbf-9681-bc824d46caeb,.d05bdce1-c4ba-4873-ac0b-04fa7baa26e3,.e7a9b8d6-96a0-4868-a3c1-693f87bc4445{fill:#1e120d;}.d05bdce1-c4ba-4873-ac0b-04fa7baa26e3{stroke:#fff;}.\38 032c182-d075-4229-939c-c780ec0dc818,.d05bdce1-c4ba-4873-ac0b-04fa7baa26e3,.e7a9b8d6-96a0-4868-a3c1-693f87bc4445,.fa132dd5-6302-4b87-8b8e-56db740ad1d4{stroke-miterlimit:10;}.\38 032c182-d075-4229-939c-c780ec0dc818{fill:#fff;}.\38 032c182-d075-4229-939c-c780ec0dc818,.e7a9b8d6-96a0-4868-a3c1-693f87bc4445,.fa132dd5-6302-4b87-8b8e-56db740ad1d4{stroke:#1e120d;}.\39 518713b-0fcf-400e-8897-932caa1d3cef,.fa132dd5-6302-4b87-8b8e-56db740ad1d4{fill:none;}</style></defs><title>chocolate</title><path id="369a0bc6-d15d-4c2e-ae38-c0817b228fb3" data-name="&lt;Tracé&gt;" class="d05bdce1-c4ba-4873-ac0b-04fa7baa26e3" d="M305.9,602.3,257.5,443.7a24.88,24.88,0,0,1,16.6-31.2l840.3-256.7a24.88,24.88,0,0,1,31.2,16.6L1194,331a24.88,24.88,0,0,1-16.6,31.2L337.2,618.8A25,25,0,0,1,305.9,602.3Z" transform="translate(-245.7 -154.18)"/><g id="3b759567-27f3-43d9-ac3d-5841a4bbdddf" data-name="&lt;Groupe&gt;"><path id="4aa4611f-d19f-4345-9fcb-cf6d01281e7d" data-name="&lt;Tracé&gt;" class="d05bdce1-c4ba-4873-ac0b-04fa7baa26e3" d="M1167.3,256.6l-68.4,21a29.24,29.24,0,0,0-19.4,36.5l19.6,64,68.2-121.5" transform="translate(-245.7 -154.18)"/><path id="bc2fdefb-5525-4cc8-83f0-2c27a8a5349f" data-name="&lt;Tracé&gt;" class="d05bdce1-c4ba-4873-ac0b-04fa7baa26e3" d="M1042,191.6l19.6,64a29.24,29.24,0,0,0,36.5,19.4l68.4-21Z" transform="translate(-245.7 -154.18)"/></g><g id="58d87dbc-7be7-472e-b34a-281e92bd4bab" data-name="&lt;Groupe&gt;"><path class="d05bdce1-c4ba-4873-ac0b-04fa7baa26e3" d="M1096.1,378.9l-19.6-64a29.24,29.24,0,0,0-36.5-19.4L1002.7,307l.1-.4-68.4,21A29.24,29.24,0,0,0,915,364.1l19.6,64,57-101.5Z" transform="translate(-245.7 -154.18)"/><path class="d05bdce1-c4ba-4873-ac0b-04fa7baa26e3" d="M1058.6,256.4,1039,192.5,982,294,877.6,241.9l19.6,64a29.24,29.24,0,0,0,36.5,19.4L971,313.8l-.1.4,68.4-21A29.63,29.63,0,0,0,1058.6,256.4Z" transform="translate(-245.7 -154.18)"/><path id="6c0405ab-b48d-4836-be12-8ee7a1014630" data-name="&lt;Tracé&gt;" class="d05bdce1-c4ba-4873-ac0b-04fa7baa26e3" d="M806.2,364.3l68.4-21A29.24,29.24,0,0,0,894,306.8l-19.6-64L806.2,364.3" transform="translate(-245.7 -154.18)"/><path id="ba2b6c0d-47f8-4d31-ab1e-0b16e93978dc" data-name="&lt;Tracé&gt;" class="8032c182-d075-4229-939c-c780ec0dc818" d="M807.1,367l68.4-21A29.32,29.32,0,0,1,912,365.4l19.6,64" transform="translate(-245.7 -154.18)"/></g><g id="70d15a22-99e4-4e69-a518-897a559c77b7" data-name="&lt;Groupe&gt;"><path id="f595448b-1dbb-40dd-a758-b79c30093c7d" data-name="&lt;Tracé&gt;" class="0803dcfc-b5e4-4dbf-9681-bc824d46caeb" d="M810.7,361.5l-68.4,21A29.24,29.24,0,0,0,722.9,419l19.6,64" transform="translate(-245.7 -154.18)"/><path id="9281f9c3-061d-44f9-9f5e-b124743653d6" data-name="&lt;Tracé&gt;" class="0803dcfc-b5e4-4dbf-9681-bc824d46caeb" d="M809.8,358.8l-68.4,21a29.32,29.32,0,0,1-36.5-19.4l-19.6-64" transform="translate(-245.7 -154.18)"/><path id="4ed764a1-cc2d-45f2-8de9-bff908d89831" data-name="&lt;Tracé&gt;" class="0803dcfc-b5e4-4dbf-9681-bc824d46caeb" d="M614,419l68.4-21a29.24,29.24,0,0,0,19.4-36.5l-19.6-64" transform="translate(-245.7 -154.18)"/><path id="5b964373-76a8-4123-ab20-b1de64e3c6a0" data-name="&lt;Tracé&gt;" class="0803dcfc-b5e4-4dbf-9681-bc824d46caeb" d="M614.9,421.6l68.4-21A29.32,29.32,0,0,1,719.8,420l19.6,64" transform="translate(-245.7 -154.18)"/></g><path id="84e01bcd-2a28-4f6d-83c8-ad5c8e0339c4" data-name="&lt;Tracé&gt;" class="8032c182-d075-4229-939c-c780ec0dc818" d="M803,258.7c27.9,26.1,74.4,39.1,128.1,39.3-24.9,14-42.7,34.3-47.3,53.5A522,522,0,0,1,983,373.7c-16.2,3.8-31.9,11-44.1,20.3,7.5-1.1,14.9-2.3,22.4-3.4,3.4,5.2,6.9,10.8,4.3,17.3s-13.9,13.4-22.1,11.5c-15.3,15.3-22.9,32.6-38.2,47.9L315.9,648.4c-15.8-62.6-53.9-166.7-69.6-229.3,0,0,539.3-165.8,552.3-167.7,20.3-3.1,38.8-16.8,52.5-29.1s19.9-28.9,8.7-37.9a228.94,228.94,0,0,0,49.5-24.7c-31.1,40.4-44,75.3-75.1,115.7-2.3-9.9-15.8-16.2-5.7-26.3" transform="translate(-245.7 -154.18)"/><polyline id="30fb3aaf-1dd2-4538-ab75-e221315f6e54" data-name="&lt;Tracé&gt;" class="8032c182-d075-4229-939c-c780ec0dc818" points="0.7 264.82 81.5 359.22 638.2 197.22"/><line id="ec9ddcb5-c09d-4576-b52b-fbec1ee4ac9c" data-name="&lt;Tracé&gt;" class="fa132dd5-6302-4b87-8b8e-56db740ad1d4" x1="70.3" y1="494.12" x2="81.5" y2="359.22"/><path class="9518713b-0fcf-400e-8897-932caa1d3cef" d="M803,258.7c27.9,26.1,74.4,39.1,128.1,39.3-24.9,14-42.7,34.3-47.3,53.5A522,522,0,0,1,983,373.7c-16.2,3.8-31.9,11-44.1,20.3,7.5-1.1,14.9-2.3,22.4-3.4,3.4,5.2,6.9,10.8,4.3,17.3s-13.9,13.4-22.1,11.5c-15.3,15.3-22.9,32.6-38.2,47.9L315.9,648.4c-15.8-62.6-53.9-166.7-69.6-229.3,0,0,539.3-165.8,552.3-167.7,20.3-3.1,38.8-16.8,52.5-29.1s19.9-28.9,8.7-37.9a228.94,228.94,0,0,0,49.5-24.7c-31.1,40.4-44,75.3-75.1,115.7-2.3-9.9-15.8-16.2-5.7-26.3" transform="translate(-245.7 -154.18)"/><path class="e7a9b8d6-96a0-4868-a3c1-693f87bc4445" d="M447.5,559.2c-2.8,6.4-9.6,11-15.9,15.8-4.8,3.7-9.7,9.9-18.1,12.5-11,3.3-21.5.3-30.2-1.9-11-2.8-21.2-7.4-24.1-17.1-2.9-9.4,3.6-19.1,11.1-27.5,6.2-7,13.5-15.6,24-18.7,7.6-2.3,15.3.1,21.8.5,8,.4,16.7.4,21.9,4.3.6,1.5-4,.5-5.2,1.7s0,5.5-1.7,5.2c-5.7-3.8-10.8-9.2-16.7-9.7-5.7-.5-11.3,3.8-17.8,5.7-8.8,2.7-18.1,4.8-23.2,10.8-6,7.1-5.6,16.3-3.1,24.3,2.5,8.3,7,16.3,15.9,18.9,7.3,2,15.9-1.4,25.4-4.3,6.8-2,13.8-1.8,18.1-5.1,4.8-3.8,6.1-11.3,8.5-17.3,1.1-1.1,3.1,3.6,4.6,3.4C445.5,560.2,447.4,557.5,447.5,559.2Z" transform="translate(-245.7 -154.18)"/><path class="e7a9b8d6-96a0-4868-a3c1-693f87bc4445" d="M447.5,559.2c-2.8,6.4-9.6,11-15.9,15.8-4.8,3.7-9.7,9.9-18.1,12.5-11,3.3-21.5.3-30.2-1.9-11-2.8-21.2-7.4-24.1-17.1-2.9-9.4,3.6-19.1,11.1-27.5,6.2-7,13.5-15.6,24-18.7,7.6-2.3,15.3.1,21.8.5,8,.4,16.7.4,21.9,4.3.6,1.5-4,.5-5.2,1.7s0,5.5-1.7,5.2c-5.7-3.8-10.8-9.2-16.7-9.7-5.7-.5-11.3,3.8-17.8,5.7-8.8,2.7-18.1,4.8-23.2,10.8-6,7.1-5.6,16.3-3.1,24.3,2.5,8.3,7,16.3,15.9,18.9,7.3,2,15.9-1.4,25.4-4.3,6.8-2,13.8-1.8,18.1-5.1,4.8-3.8,6.1-11.3,8.5-17.3,1.1-1.1,3.1,3.6,4.6,3.4C445.5,560.2,447.4,557.5,447.5,559.2Z" transform="translate(-245.7 -154.18)"/><path class="e7a9b8d6-96a0-4868-a3c1-693f87bc4445" d="M446.1,509.1c-.4-2,4.1.8,6,.1s3.7-5.4,4.7-3.7c3.8,5.9-.9,8.2,1.1,14.9s-.9,9.9,6,11.3c12.5,2.7,12.4-.5,24.7-4.3s13.9-1,22.8-10.2c5-5.1.8-6.1-1.4-12.7-2-6.8-7.3-5.9-7.4-13,0-2,4.1,1,6,.4s4.1-5.4,4.8-3.4c6.4,14.1,1.4,16.1,6,31s9.7,13.6,12.4,28.9c.4,2-4.1-.8-6-.1s-3.7,5.4-4.8,3.7c-4-6.2.9-8.4-1.3-15.4s.9-10.3-6.2-12c-12.5-2.8-12.4.5-24.6,4.3s-14,.9-22.8,10.2c-5,5.4-.6,6.4,1.5,13.4s7.3,6.2,7.5,13.5c0,2-4.1-.9-6-.4s-4.1,5.4-4.8,3.4c-6.4-14.1-.4-16.6-6-31C452.6,523.4,448.8,524.5,446.1,509.1Z" transform="translate(-245.7 -154.18)"/><path class="e7a9b8d6-96a0-4868-a3c1-693f87bc4445" d="M446.1,509.1c-.4-2,4.1.8,6,.1s3.7-5.4,4.7-3.7c3.8,5.9-.9,8.2,1.1,14.9s-.9,9.9,6,11.3c12.5,2.7,12.4-.5,24.7-4.3s13.9-1,22.8-10.2c5-5.1.8-6.1-1.4-12.7-2-6.8-7.3-5.9-7.4-13,0-2,4.1,1,6,.4s4.1-5.4,4.8-3.4c6.4,14.1,1.4,16.1,6,31s9.7,13.6,12.4,28.9c.4,2-4.1-.8-6-.1s-3.7,5.4-4.8,3.7c-4-6.2.9-8.4-1.3-15.4s.9-10.3-6.2-12c-12.5-2.8-12.4.5-24.6,4.3s-14,.9-22.8,10.2c-5,5.4-.6,6.4,1.5,13.4s7.3,6.2,7.5,13.5c0,2-4.1-.9-6-.4s-4.1,5.4-4.8,3.4c-6.4-14.1-.4-16.6-6-31C452.6,523.4,448.8,524.5,446.1,509.1Z" transform="translate(-245.7 -154.18)"/><path class="e7a9b8d6-96a0-4868-a3c1-693f87bc4445" d="M590.8,533.3c-10.8,3.3-21.4.4-30.3-1.8-10.6-2.7-20.6-7-23.8-17.3s2.8-19.5,10.1-27.7c6.1-6.8,13.3-15.2,24.1-18.5s21.4-.4,30.3,1.8c10.6,2.7,20.6,7,23.8,17.3s-2.8,19.5-10.1,27.7C608.8,521.7,601.6,530.1,590.8,533.3Zm23.1-42.7c-2.7-8.7-6.9-16.6-15.6-19.1-7.3-2-15.9,1.5-25.1,4.3s-18.5,4.7-23.2,10.5c-5.7,6.9-4.8,15.8-2.2,24.5s6.9,16.6,15.6,19.1c7.3,2,15.9-1.5,25.1-4.3s18.5-4.7,23.2-10.5C617.5,508.3,616.6,499.3,613.9,490.6Z" transform="translate(-245.7 -154.18)"/><path class="e7a9b8d6-96a0-4868-a3c1-693f87bc4445" d="M590.8,533.3c-10.8,3.3-21.4.4-30.3-1.8-10.6-2.7-20.6-7-23.8-17.3s2.8-19.5,10.1-27.7c6.1-6.8,13.3-15.2,24.1-18.5s21.4-.4,30.3,1.8c10.6,2.7,20.6,7,23.8,17.3s-2.8,19.5-10.1,27.7C608.8,521.7,601.6,530.1,590.8,533.3Zm23.1-42.7c-2.7-8.7-6.9-16.6-15.6-19.1-7.3-2-15.9,1.5-25.1,4.3s-18.5,4.7-23.2,10.5c-5.7,6.9-4.8,15.8-2.2,24.5s6.9,16.6,15.6,19.1c7.3,2,15.9-1.5,25.1-4.3s18.5-4.7,23.2-10.5C617.5,508.3,616.6,499.3,613.9,490.6Z" transform="translate(-245.7 -154.18)"/><path class="e7a9b8d6-96a0-4868-a3c1-693f87bc4445" d="M724.5,474.5c-2.8,6.4-9.6,11-15.9,15.8-4.8,3.7-9.7,9.9-18.1,12.5-11,3.3-21.5.3-30.2-1.9-11-2.8-21.2-7.4-24.1-17.1-2.9-9.4,3.6-19.1,11.1-27.5,6.2-7,13.5-15.6,24-18.7,7.6-2.3,15.3.1,21.8.5,8,.4,16.7.4,21.9,4.3.6,1.5-4,.5-5.2,1.7s0,5.5-1.7,5.2c-5.7-3.8-10.8-9.2-16.7-9.7-5.7-.5-11.3,3.8-17.8,5.7-8.8,2.7-18.1,4.8-23.2,10.8-6,7.1-5.6,16.3-3.1,24.3,2.5,8.3,7,16.3,15.9,18.9,7.3,2,15.9-1.4,25.4-4.3,6.8-2,13.8-1.8,18.1-5.1,4.8-3.8,6.1-11.3,8.5-17.3,1.1-1.1,3.1,3.6,4.6,3.4C722.4,475.7,724.4,472.9,724.5,474.5Z" transform="translate(-245.7 -154.18)"/><path class="e7a9b8d6-96a0-4868-a3c1-693f87bc4445" d="M724.5,474.5c-2.8,6.4-9.6,11-15.9,15.8-4.8,3.7-9.7,9.9-18.1,12.5-11,3.3-21.5.3-30.2-1.9-11-2.8-21.2-7.4-24.1-17.1-2.9-9.4,3.6-19.1,11.1-27.5,6.2-7,13.5-15.6,24-18.7,7.6-2.3,15.3.1,21.8.5,8,.4,16.7.4,21.9,4.3.6,1.5-4,.5-5.2,1.7s0,5.5-1.7,5.2c-5.7-3.8-10.8-9.2-16.7-9.7-5.7-.5-11.3,3.8-17.8,5.7-8.8,2.7-18.1,4.8-23.2,10.8-6,7.1-5.6,16.3-3.1,24.3,2.5,8.3,7,16.3,15.9,18.9,7.3,2,15.9-1.4,25.4-4.3,6.8-2,13.8-1.8,18.1-5.1,4.8-3.8,6.1-11.3,8.5-17.3,1.1-1.1,3.1,3.6,4.6,3.4C722.4,475.7,724.4,472.9,724.5,474.5Z" transform="translate(-245.7 -154.18)"/><path class="e7a9b8d6-96a0-4868-a3c1-693f87bc4445" d="M783.2,474.7c-10.8,3.3-21.4.4-30.3-1.8-10.6-2.7-20.6-7-23.8-17.3s2.8-19.5,10.1-27.7c6.1-6.8,13.3-15.2,24.1-18.5s21.4-.4,30.3,1.8c10.6,2.7,20.6,7,23.8,17.3s-2.8,19.5-10.1,27.7C801.1,462.9,794,471.3,783.2,474.7Zm23-42.7c-2.7-8.7-6.9-16.6-15.6-19.1-7.3-2-15.9,1.5-25.1,4.3s-18.5,4.7-23.2,10.5c-5.7,6.9-4.8,15.8-2.2,24.5s6.9,16.6,15.6,19.1c7.3,2,15.9-1.5,25.1-4.3s18.5-4.7,23.2-10.5C809.8,449.6,808.9,440.5,806.2,432Z" transform="translate(-245.7 -154.18)"/><path class="e7a9b8d6-96a0-4868-a3c1-693f87bc4445" d="M783.2,474.7c-10.8,3.3-21.4.4-30.3-1.8-10.6-2.7-20.6-7-23.8-17.3s2.8-19.5,10.1-27.7c6.1-6.8,13.3-15.2,24.1-18.5s21.4-.4,30.3,1.8c10.6,2.7,20.6,7,23.8,17.3s-2.8,19.5-10.1,27.7C801.1,462.9,794,471.3,783.2,474.7Zm23-42.7c-2.7-8.7-6.9-16.6-15.6-19.1-7.3-2-15.9,1.5-25.1,4.3s-18.5,4.7-23.2,10.5c-5.7,6.9-4.8,15.8-2.2,24.5s6.9,16.6,15.6,19.1c7.3,2,15.9-1.5,25.1-4.3s18.5-4.7,23.2-10.5C809.8,449.6,808.9,440.5,806.2,432Z" transform="translate(-245.7 -154.18)"/><path class="e7a9b8d6-96a0-4868-a3c1-693f87bc4445" d="M822,394.4c-.4-2,3.8.5,5.7,0s4-5,4.7-3.2c6.1,13,1.5,14.8,5.7,28.6s-1.5,18.1,10.6,25.9c10.1,6.6,11.2-.9,22.7-4.5s10.6-7.4,22.3-9.8c1.1-.3-.8,2.9-.4,4.1s3.7,2.7,2.5,3.2c-13.1,5.2-14.4,1.4-27.9,5.5s-15.2,18.1-27.3,10.8c-13.4-8-1.4-17-7-31.5C828.3,408.6,824.6,409.7,822,394.4Z" transform="translate(-245.7 -154.18)"/><path class="e7a9b8d6-96a0-4868-a3c1-693f87bc4445" d="M822,394.4c-.4-2,3.8.5,5.7,0s4-5,4.7-3.2c6.1,13,1.5,14.8,5.7,28.6s-1.5,18.1,10.6,25.9c10.1,6.6,11.2-.9,22.7-4.5s10.6-7.4,22.3-9.8c1.1-.3-.8,2.9-.4,4.1s3.7,2.7,2.5,3.2c-13.1,5.2-14.4,1.4-27.9,5.5s-15.2,18.1-27.3,10.8c-13.4-8-1.4-17-7-31.5C828.3,408.6,824.6,409.7,822,394.4Z" transform="translate(-245.7 -154.18)"/><path class="e7a9b8d6-96a0-4868-a3c1-693f87bc4445" d="M920.1,363.6c.8-2,4.1,1.4,6.2.8s2.9-5.5,4.7-4.1c14.7,10.7,11.5,14.7,25.1,26.8s17.2,8.5,29.3,21.9c1.4,1.5-3.7.1-5.7.8s-2.4,5.2-4.3,4.2c-5-2.5-2.4-6.4-6.5-10.2s-3.8-4.5-9.6-4.7c-11-.4-11,0-21.4,3.3-10.6,3.2-10.7,2.8-19.6,9.3-4.6,3.3-3.8,3.8-5.2,9.2s2.9,7.1.3,12.1c-1,1.9-4-1.7-6-1.1s-5.5,4.7-5.2,2.5c2.5-18,8.8-16.8,12.1-34.7S913.9,380.7,920.1,363.6Zm9.3,8.7c-.6-.5,1.1-3.3.6-3.8-1-.9-1.1.9-2.2,1.1s-2.2-1.1-2.4.3c-.1.6,2.8,2,2.7,2.8-2,8.3-5.1,7.5-7.1,15.8s-8.3,10.6-1.5,15.7c7.8,5.9,8.8,0,18.1-2.8s13.4,1.4,16.6-7.8c2.8-8-3.4-6.9-10.1-12.1C937.4,375.9,935.7,378,929.4,372.3Z" transform="translate(-245.7 -154.18)"/><path class="e7a9b8d6-96a0-4868-a3c1-693f87bc4445" d="M920.1,363.6c.8-2,4.1,1.4,6.2.8s2.9-5.5,4.7-4.1c14.7,10.7,11.5,14.7,25.1,26.8s17.2,8.5,29.3,21.9c1.4,1.5-3.7.1-5.7.8s-2.4,5.2-4.3,4.2c-5-2.5-2.4-6.4-6.5-10.2s-3.8-4.5-9.6-4.7c-11-.4-11,0-21.4,3.3-10.6,3.2-10.7,2.8-19.6,9.3-4.6,3.3-3.8,3.8-5.2,9.2s2.9,7.1.3,12.1c-1,1.9-4-1.7-6-1.1s-5.5,4.7-5.2,2.5c2.5-18,8.8-16.8,12.1-34.7S913.9,380.7,920.1,363.6Zm9.3,8.7c-.6-.5,1.1-3.3.6-3.8-1-.9-1.1.9-2.2,1.1s-2.2-1.1-2.4.3c-.1.6,2.8,2,2.7,2.8-2,8.3-5.1,7.5-7.1,15.8s-8.3,10.6-1.5,15.7c7.8,5.9,8.8,0,18.1-2.8s13.4,1.4,16.6-7.8c2.8-8-3.4-6.9-10.1-12.1C937.4,375.9,935.7,378,929.4,372.3Z" transform="translate(-245.7 -154.18)"/><path class="9518713b-0fcf-400e-8897-932caa1d3cef" d="M803,258.7c27.9,26.1,74.4,39.1,128.1,39.3-24.9,14-42.7,34.3-47.3,53.5A522,522,0,0,1,983,373.7c-16.2,3.8-31.9,11-44.1,20.3,7.5-1.1,14.9-2.3,22.4-3.4,3.4,5.2,6.9,10.8,4.3,17.3s-13.9,13.4-22.1,11.5c-15.3,15.3-22.9,32.6-38.2,47.9L315.9,648.4c-15.8-62.6-53.9-166.7-69.6-229.3,0,0,539.3-165.8,552.3-167.7,20.3-3.1,38.8-16.8,52.5-29.1s19.9-28.9,8.7-37.9a228.94,228.94,0,0,0,49.5-24.7c-31.1,40.4-44,75.3-75.1,115.7-2.3-9.9-15.8-16.2-5.7-26.3" transform="translate(-245.7 -154.18)"/><path class="e7a9b8d6-96a0-4868-a3c1-693f87bc4445" d="M750.3,303.9c2.8-6.4,9.6-11,15.9-15.8,4.8-3.7,9.7-9.9,18.1-12.5,11-3.3,21.5-.3,30.2,1.9,11,2.8,21.2,7.4,24.1,17.1,2.9,9.4-3.6,19.1-11.1,27.5-6.2,7-13.5,15.6-24,18.7-7.6,2.3-15.3-.1-21.8-.5-8-.4-16.7-.4-21.9-4.3-.6-1.5,4-.5,5.2-1.7s0-5.5,1.7-5.2c5.7,3.8,10.8,9.2,16.7,9.7,5.7.5,11.3-3.8,17.8-5.7,8.8-2.7,18.1-4.8,23.2-10.8,6-7.1,5.6-16.3,3.1-24.3-2.5-8.3-7-16.3-15.9-18.9-7.3-2-15.9,1.4-25.4,4.3-6.8,2-13.8,1.8-18.1,5.1-4.8,3.8-6.1,11.3-8.5,17.3-1.1,1.1-3.1-3.6-4.6-3.4C752.3,302.8,750.4,305.5,750.3,303.9Z" transform="translate(-245.7 -154.18)"/><path class="e7a9b8d6-96a0-4868-a3c1-693f87bc4445" d="M750.3,303.9c2.8-6.4,9.6-11,15.9-15.8,4.8-3.7,9.7-9.9,18.1-12.5,11-3.3,21.5-.3,30.2,1.9,11,2.8,21.2,7.4,24.1,17.1,2.9,9.4-3.6,19.1-11.1,27.5-6.2,7-13.5,15.6-24,18.7-7.6,2.3-15.3-.1-21.8-.5-8-.4-16.7-.4-21.9-4.3-.6-1.5,4-.5,5.2-1.7s0-5.5,1.7-5.2c5.7,3.8,10.8,9.2,16.7,9.7,5.7.5,11.3-3.8,17.8-5.7,8.8-2.7,18.1-4.8,23.2-10.8,6-7.1,5.6-16.3,3.1-24.3-2.5-8.3-7-16.3-15.9-18.9-7.3-2-15.9,1.4-25.4,4.3-6.8,2-13.8,1.8-18.1,5.1-4.8,3.8-6.1,11.3-8.5,17.3-1.1,1.1-3.1-3.6-4.6-3.4C752.3,302.8,750.4,305.5,750.3,303.9Z" transform="translate(-245.7 -154.18)"/><path class="e7a9b8d6-96a0-4868-a3c1-693f87bc4445" d="M683.9,306.3c10.8-3.3,21.4-.4,30.3,1.8,10.6,2.7,20.6,7,23.8,17.3s-2.8,19.5-10.1,27.7c-6.1,6.8-13.3,15.2-24.1,18.5s-21.4.4-30.3-1.8c-10.6-2.7-20.6-7-23.8-17.3s2.8-19.5,10.1-27.7C665.8,317.9,673,309.6,683.9,306.3ZM660.8,349c2.7,8.7,6.9,16.6,15.6,19.1,7.3,2,15.9-1.5,25.1-4.3s18.5-4.7,23.2-10.5c5.7-6.9,4.8-15.8,2.2-24.5s-6.9-16.6-15.6-19.1c-7.3-2-15.9,1.5-25.1,4.3s-18.5,4.7-23.2,10.5C657.2,331.3,658.1,340.3,660.8,349Z" transform="translate(-245.7 -154.18)"/><path class="e7a9b8d6-96a0-4868-a3c1-693f87bc4445" d="M683.9,306.3c10.8-3.3,21.4-.4,30.3,1.8,10.6,2.7,20.6,7,23.8,17.3s-2.8,19.5-10.1,27.7c-6.1,6.8-13.3,15.2-24.1,18.5s-21.4.4-30.3-1.8c-10.6-2.7-20.6-7-23.8-17.3s2.8-19.5,10.1-27.7C665.8,317.9,673,309.6,683.9,306.3ZM660.8,349c2.7,8.7,6.9,16.6,15.6,19.1,7.3,2,15.9-1.5,25.1-4.3s18.5-4.7,23.2-10.5c5.7-6.9,4.8-15.8,2.2-24.5s-6.9-16.6-15.6-19.1c-7.3-2-15.9,1.5-25.1,4.3s-18.5,4.7-23.2,10.5C657.2,331.3,658.1,340.3,660.8,349Z" transform="translate(-245.7 -154.18)"/><path class="e7a9b8d6-96a0-4868-a3c1-693f87bc4445" d="M637.2,388.9c.4,2-3.8-.5-5.7,0s-4,5-4.7,3.2c-6.1-13-1.5-14.8-5.7-28.6s1.5-18.1-10.6-25.9c-10.1-6.6-11.2.9-22.7,4.5s-10.6,7.4-22.3,9.8c-1.1.3.8-2.9.4-4.1s-3.7-2.7-2.5-3.2c13.1-5.2,14.4-1.4,27.9-5.5s15.2-18.1,27.3-10.8c13.4,8,1.4,17,7,31.5C631,374.6,634.7,373.6,637.2,388.9Z" transform="translate(-245.7 -154.18)"/><path class="e7a9b8d6-96a0-4868-a3c1-693f87bc4445" d="M637.2,388.9c.4,2-3.8-.5-5.7,0s-4,5-4.7,3.2c-6.1-13-1.5-14.8-5.7-28.6s1.5-18.1-10.6-25.9c-10.1-6.6-11.2.9-22.7,4.5s-10.6,7.4-22.3,9.8c-1.1.3.8-2.9.4-4.1s-3.7-2.7-2.5-3.2c13.1-5.2,14.4-1.4,27.9-5.5s15.2-18.1,27.3-10.8c13.4,8,1.4,17,7,31.5C631,374.6,634.7,373.6,637.2,388.9Z" transform="translate(-245.7 -154.18)"/><path class="e7a9b8d6-96a0-4868-a3c1-693f87bc4445" d="M531.4,422c-.8,2-4.1-1.4-6.2-.8s-2.9,5.5-4.7,4.1c-14.7-10.7-11.5-14.7-25.1-26.8s-17.2-8.5-29.3-21.9c-1.4-1.5,3.7-.1,5.7-.8s2.4-5.2,4.3-4.2c5,2.5,2.4,6.4,6.5,10.2s3.8,4.5,9.6,4.7c11,.4,11,0,21.4-3.3,10.6-3.2,10.7-2.8,19.6-9.3,4.6-3.3,3.8-3.8,5.2-9.2s-2.9-7.1-.3-12.1c1-1.9,4,1.7,6,1.1s5.5-4.7,5.2-2.5c-2.5,18-8.8,16.8-12.1,34.7S537.7,404.9,531.4,422Zm-9.3-8.6c.6.5-1.1,3.3-.6,3.8,1,.9,1.1-.9,2.2-1.1s2.2,1.1,2.4-.3c.1-.6-2.8-2-2.7-2.8,2-8.3,5.1-7.5,7.1-15.8s8.3-10.6,1.5-15.7c-7.8-5.9-8.8,0-18.1,2.8s-13.4-1.4-16.6,7.8c-2.8,8,3.4,6.9,10.1,12.1C514.1,409.7,515.9,407.6,522.1,413.4Z" transform="translate(-245.7 -154.18)"/><path class="e7a9b8d6-96a0-4868-a3c1-693f87bc4445" d="M531.4,422c-.8,2-4.1-1.4-6.2-.8s-2.9,5.5-4.7,4.1c-14.7-10.7-11.5-14.7-25.1-26.8s-17.2-8.5-29.3-21.9c-1.4-1.5,3.7-.1,5.7-.8s2.4-5.2,4.3-4.2c5,2.5,2.4,6.4,6.5,10.2s3.8,4.5,9.6,4.7c11,.4,11,0,21.4-3.3,10.6-3.2,10.7-2.8,19.6-9.3,4.6-3.3,3.8-3.8,5.2-9.2s-2.9-7.1-.3-12.1c1-1.9,4,1.7,6,1.1s5.5-4.7,5.2-2.5c-2.5,18-8.8,16.8-12.1,34.7S537.7,404.9,531.4,422Zm-9.3-8.6c.6.5-1.1,3.3-.6,3.8,1,.9,1.1-.9,2.2-1.1s2.2,1.1,2.4-.3c.1-.6-2.8-2-2.7-2.8,2-8.3,5.1-7.5,7.1-15.8s8.3-10.6,1.5-15.7c-7.8-5.9-8.8,0-18.1,2.8s-13.4-1.4-16.6,7.8c-2.8,8,3.4,6.9,10.1,12.1C514.1,409.7,515.9,407.6,522.1,413.4Z" transform="translate(-245.7 -154.18)"/><path class="e7a9b8d6-96a0-4868-a3c1-693f87bc4445" d="M489.4,435.3c-15.7,6-17,2.2-32.9,7.1-16.1,4.8-15,8.7-31.2,12.5-1.1.3.6-2.9.4-4-.4-1.1-3.7-2.5-2.7-3.1,6.6-3.2,8,.5,15-1.7s11,1.4,12.2-5.9c2.5-14.1-1.5-13.9-5.7-27.7s-8.9-12.7-11.1-26.9c-.3-2,3.7.5,5.7,0s3.8-5,4.7-3.2c6.1,13,1.5,14.8,5.7,28.6s.8,15.8,10.8,26.1c5.1,5.2,6.4.1,13.5-1.9s6.1-6,13.5-7c1.1-.1-.9,3.3-.4,4.3C487.9,434.3,490.5,434.9,489.4,435.3Z" transform="translate(-245.7 -154.18)"/><path class="e7a9b8d6-96a0-4868-a3c1-693f87bc4445" d="M489.4,435.3c-15.7,6-17,2.2-32.9,7.1-16.1,4.8-15,8.7-31.2,12.5-1.1.3.6-2.9.4-4-.4-1.1-3.7-2.5-2.7-3.1,6.6-3.2,8,.5,15-1.7s11,1.4,12.2-5.9c2.5-14.1-1.5-13.9-5.7-27.7s-8.9-12.7-11.1-26.9c-.3-2,3.7.5,5.7,0s3.8-5,4.7-3.2c6.1,13,1.5,14.8,5.7,28.6s.8,15.8,10.8,26.1c5.1,5.2,6.4.1,13.5-1.9s6.1-6,13.5-7c1.1-.1-.9,3.3-.4,4.3C487.9,434.3,490.5,434.9,489.4,435.3Z" transform="translate(-245.7 -154.18)"/><path class="e7a9b8d6-96a0-4868-a3c1-693f87bc4445" d="M404.7,460.8c-5.9,12.6-15.2,2-28.6,6.1s-12.4,8.2-26,11.1c-1.1.3.8-3.1.5-4.1s-3.8-2.7-2.7-3.2c11.1-4.6,12.5-.6,23.8-4.1,11.5-3.4,12.6-1.4,21.4-9.6,4.2-4,.8-4.8-.9-10.3s.5-8-5.1-9.2c-10.8-2-10.7.3-21.2,3.4s-9.6,7.3-20.3,9.3c-1.1.3.8-3.1.5-4.1s-3.8-2.7-2.7-3.2c10.1-4.3,11.6-.4,22.1-3.6s12-.9,19.5-8.9c4.3-4.6.8-5.5-1.1-11.5s.8-8.9-5.5-10.2c-11.9-2.2-11.7.6-23.2,4.1s-10.5,7.5-22.3,9.9c-1.1.3.8-3.1.5-4.1s-3.7-2.8-2.7-3.2c13.1-5.2,14.4-1.3,27.9-5.4s15.2-18.2,27.3-11c13.4,8-.6,18.2,7,31.7C401.3,446,411.2,446.6,404.7,460.8Z" transform="translate(-245.7 -154.18)"/><path class="e7a9b8d6-96a0-4868-a3c1-693f87bc4445" d="M404.7,460.8c-5.9,12.6-15.2,2-28.6,6.1s-12.4,8.2-26,11.1c-1.1.3.8-3.1.5-4.1s-3.8-2.7-2.7-3.2c11.1-4.6,12.5-.6,23.8-4.1,11.5-3.4,12.6-1.4,21.4-9.6,4.2-4,.8-4.8-.9-10.3s.5-8-5.1-9.2c-10.8-2-10.7.3-21.2,3.4s-9.6,7.3-20.3,9.3c-1.1.3.8-3.1.5-4.1s-3.8-2.7-2.7-3.2c10.1-4.3,11.6-.4,22.1-3.6s12-.9,19.5-8.9c4.3-4.6.8-5.5-1.1-11.5s.8-8.9-5.5-10.2c-11.9-2.2-11.7.6-23.2,4.1s-10.5,7.5-22.3,9.9c-1.1.3.8-3.1.5-4.1s-3.7-2.8-2.7-3.2c13.1-5.2,14.4-1.3,27.9-5.4s15.2-18.2,27.3-11c13.4,8-.6,18.2,7,31.7C401.3,446,411.2,446.6,404.7,460.8Z" transform="translate(-245.7 -154.18)"/></svg>