<svg id="204a1085-98ca-4187-87b5-40e1e3be7b85" data-name="929a63f3-9ae3-4ac3-aaf2-1ac0400b1715" xmlns="http://www.w3.org/2000/svg" xmlns:xlink="http://www.w3.org/1999/xlink" width="563.1" height="429.7" viewBox="0 0 563.1 429.7"><defs><style>.\34 83bf0b5-017f-4a02-a584-a7d5e31e43c7,.f337ff0b-10bd-4d9e-9e21-f959e1211800{fill:none;}.\32 c33acb6-0a28-447a-9333-9630a5e87d63,.ed2340a8-5e22-40db-a35d-8cbb1bfbc209{fill:#fff;}.\32 c33acb6-0a28-447a-9333-9630a5e87d63,.\34 83bf0b5-017f-4a02-a584-a7d5e31e43c7,.ed2340a8-5e22-40db-a35d-8cbb1bfbc209,.fcdf0acc-f254-4fde-8e46-e4c9c61e286d{stroke:#000;stroke-miterlimit:10;}.\32 06f8234-4992-45cc-8889-a4aa2ebb0e9f{clip-path:url(#a597a459-2124-4eb1-9ca1-9e609161bb1c);}.fcdf0acc-f254-4fde-8e46-e4c9c61e286d{stroke-width:0.66px;}.\34 83bf0b5-017f-4a02-a584-a7d5e31e43c7,.ed2340a8-5e22-40db-a35d-8cbb1bfbc209{stroke-linecap:round;}</style><clipPath id="a597a459-2124-4eb1-9ca1-9e609161bb1c" transform="translate(-438.3 -185)"><path class="f337ff0b-10bd-4d9e-9e21-f959e1211800" d="M824.1,323.2a8.24,8.24,0,0,0,8.2-8.2V268.4a8.24,8.24,0,0,0-8.2-8.2h-133a8.24,8.24,0,0,0-8.2,8.2V315a8.24,8.24,0,0,0,8.2,8.2Zm-82.2-70.5a8.24,8.24,0,0,0,8.2-8.2V197.9a8.24,8.24,0,0,0-8.2-8.2h-133a8.24,8.24,0,0,0-8.2,8.2v46.6a8.24,8.24,0,0,0,8.2,8.2ZM901.6,249a8.24,8.24,0,0,0,8.2-8.2V194.2a8.24,8.24,0,0,0-8.2-8.2h-133a8.24,8.24,0,0,0-8.2,8.2v46.6a8.24,8.24,0,0,0,8.2,8.2ZM679.4,603.3V556.7a8.24,8.24,0,0,0-8.2-8.2h-133a8.24,8.24,0,0,0-8.2,8.2v46.6a8.24,8.24,0,0,0,8.2,8.2H671.1A8.26,8.26,0,0,0,679.4,603.3Zm70.9-72.4V484.3a8.24,8.24,0,0,0-8.2-8.2h-133a8.24,8.24,0,0,0-8.2,8.2v46.6a8.24,8.24,0,0,0,8.2,8.2H742A8.26,8.26,0,0,0,750.3,530.9Zm250.9,72.4V556.7a8.24,8.24,0,0,0-8.2-8.2H860a8.24,8.24,0,0,0-8.2,8.2v46.6a8.24,8.24,0,0,0,8.2,8.2H992.9A8.26,8.26,0,0,0,1001.2,603.3ZM908,531.6V485.1a8.24,8.24,0,0,0-8.2-8.2h-133a8.24,8.24,0,0,0-8.2,8.2v46.6a8.24,8.24,0,0,0,8.2,8.2H899.7A8.41,8.41,0,0,0,908,531.6ZM990.5,459V412.4a8.24,8.24,0,0,0-8.2-8.2h-133a8.24,8.24,0,0,0-8.2,8.2V459a8.24,8.24,0,0,0,8.2,8.2H982.2A8.39,8.39,0,0,0,990.5,459Zm-160.9-2.7V409.7a8.24,8.24,0,0,0-8.2-8.2h-133a8.24,8.24,0,0,0-8.2,8.2v46.6a8.24,8.24,0,0,0,8.2,8.2h133A8.24,8.24,0,0,0,829.6,456.3ZM448.3,344.1v46.6a8.24,8.24,0,0,0,8.2,8.2h133a8.24,8.24,0,0,0,8.2-8.2V344.1a8.24,8.24,0,0,0-8.2-8.2h-133A8.24,8.24,0,0,0,448.3,344.1ZM591.1,531.5V484.9a8.24,8.24,0,0,0-8.2-8.2h-133a8.24,8.24,0,0,0-8.2,8.2v46.6a8.24,8.24,0,0,0,8.2,8.2H582.8A8.26,8.26,0,0,0,591.1,531.5Zm17.2-189.7v46.6a8.24,8.24,0,0,0,8.2,8.2h133a8.24,8.24,0,0,0,8.2-8.2V341.8a8.24,8.24,0,0,0-8.2-8.2h-133A8.24,8.24,0,0,0,608.3,341.8Zm157.7,0v46.6a8.24,8.24,0,0,0,8.2,8.2h133a8.24,8.24,0,0,0,8.2-8.2V341.8a8.24,8.24,0,0,0-8.2-8.2h-133A8.24,8.24,0,0,0,766,341.8Zm-99.8-80.2h-133a8.24,8.24,0,0,0-8.2,8.2v46.6a8.24,8.24,0,0,0,8.2,8.2h133a8.24,8.24,0,0,0,8.2-8.2V269.8A8.24,8.24,0,0,0,666.2,261.6Zm174.9,8.2v46.6a8.24,8.24,0,0,0,8.2,8.2H982.2a8.39,8.39,0,0,0,8.3-8.2V269.8a8.24,8.24,0,0,0-8.2-8.2h-133A8.24,8.24,0,0,0,841.1,269.8Zm-7.7,281.7h-133a8.24,8.24,0,0,0-8.2,8.2v46.6a8.24,8.24,0,0,0,8.2,8.2h133a8.24,8.24,0,0,0,8.2-8.2V559.7A8.24,8.24,0,0,0,833.4,551.5Zm-253.1-302a8.24,8.24,0,0,0,8.2-8.2V194.7a8.24,8.24,0,0,0-8.2-8.2h-133a8.24,8.24,0,0,0-8.2,8.2v46.6a8.24,8.24,0,0,0,8.2,8.2ZM530.5,467.8h133a8.24,8.24,0,0,0,8.2-8.2V413.1a8.24,8.24,0,0,0-8.2-8.2h-133a8.24,8.24,0,0,0-8.2,8.2v46.6A8.22,8.22,0,0,0,530.5,467.8Z"/></clipPath></defs><title>city</title><path class="2c33acb6-0a28-447a-9333-9630a5e87d63" d="M829.3,456V409.4a8.24,8.24,0,0,0-8.2-8.2h-133a8.24,8.24,0,0,0-8.2,8.2V456a8.24,8.24,0,0,0,8.2,8.2H821A8.26,8.26,0,0,0,829.3,456Z" transform="translate(-438.3 -185)"/><path class="2c33acb6-0a28-447a-9333-9630a5e87d63" d="M590.8,531.3V484.6a8.24,8.24,0,0,0-8.2-8.2h-133a8.24,8.24,0,0,0-8.2,8.2v46.7a8.24,8.24,0,0,0,8.2,8.2H582.5A8.39,8.39,0,0,0,590.8,531.3Z" transform="translate(-438.3 -185)"/><path class="2c33acb6-0a28-447a-9333-9630a5e87d63" d="M823.7,259.9h-133a8.24,8.24,0,0,0-8.2,8.2v46.7a8.24,8.24,0,0,0,8.2,8.2h133a8.24,8.24,0,0,0,8.2-8.2V268.1A8.24,8.24,0,0,0,823.7,259.9Z" transform="translate(-438.3 -185)"/><path class="2c33acb6-0a28-447a-9333-9630a5e87d63" d="M768.2,248.8h133a8.24,8.24,0,0,0,8.2-8.2V193.7a8.24,8.24,0,0,0-8.2-8.2h-133a8.24,8.24,0,0,0-8.2,8.2v46.9A8.24,8.24,0,0,0,768.2,248.8Z" transform="translate(-438.3 -185)"/><path class="2c33acb6-0a28-447a-9333-9630a5e87d63" d="M608.8,538.9H741.7a8.39,8.39,0,0,0,8.3-8.2V484.1a8.24,8.24,0,0,0-8.2-8.2h-133a8.24,8.24,0,0,0-8.2,8.2v46.6A8.24,8.24,0,0,0,608.8,538.9Z" transform="translate(-438.3 -185)"/><path class="2c33acb6-0a28-447a-9333-9630a5e87d63" d="M992.7,548.2h-133a8.24,8.24,0,0,0-8.2,8.2v46.7a8.24,8.24,0,0,0,8.2,8.2h133a8.24,8.24,0,0,0,8.2-8.2V556.4A8.24,8.24,0,0,0,992.7,548.2Z" transform="translate(-438.3 -185)"/><path class="2c33acb6-0a28-447a-9333-9630a5e87d63" d="M456.1,335.7a8.24,8.24,0,0,0-8.2,8.2v46.6a8.24,8.24,0,0,0,8.2,8.2H589.2a8.24,8.24,0,0,0,8.2-8.2V343.9a8.24,8.24,0,0,0-8.2-8.2H456.1Z" transform="translate(-438.3 -185)"/><path class="2c33acb6-0a28-447a-9333-9630a5e87d63" d="M765.7,341.5v46.7a8.24,8.24,0,0,0,8.2,8.2h133a8.24,8.24,0,0,0,8.2-8.2V341.5a8.24,8.24,0,0,0-8.2-8.2h-133A8.24,8.24,0,0,0,765.7,341.5Z" transform="translate(-438.3 -185)"/><path class="2c33acb6-0a28-447a-9333-9630a5e87d63" d="M990.2,459.4V412.1a8.24,8.24,0,0,0-8.2-8.2H849a8.24,8.24,0,0,0-8.2,8.2v47.3a8.24,8.24,0,0,0,8.2,8.2H981.9A8.39,8.39,0,0,0,990.2,459.4Z" transform="translate(-438.3 -185)"/><path class="2c33acb6-0a28-447a-9333-9630a5e87d63" d="M765.1,539.5a6.15,6.15,0,0,0,1.4.1H899.4a8.39,8.39,0,0,0,8.3-8.2V484.8a8.36,8.36,0,0,0-7.7-8.2,6.15,6.15,0,0,0-1.4-.1h-133a8.24,8.24,0,0,0-8.2,8.2v46.6A8.14,8.14,0,0,0,765.1,539.5Z" transform="translate(-438.3 -185)"/><path class="2c33acb6-0a28-447a-9333-9630a5e87d63" d="M665.9,261.3h-133a8.24,8.24,0,0,0-8.2,8.2v46.6a8.24,8.24,0,0,0,8.2,8.2h133a8.24,8.24,0,0,0,8.2-8.2V269.5A8.24,8.24,0,0,0,665.9,261.3Z" transform="translate(-438.3 -185)"/><path class="2c33acb6-0a28-447a-9333-9630a5e87d63" d="M840.8,269.5v46.6a8.24,8.24,0,0,0,8.2,8.2H981.9a8.39,8.39,0,0,0,8.3-8.2V269.5a8.24,8.24,0,0,0-8.2-8.2H849A8.17,8.17,0,0,0,840.8,269.5Z" transform="translate(-438.3 -185)"/><path class="2c33acb6-0a28-447a-9333-9630a5e87d63" d="M833.1,551.2h-133a8.24,8.24,0,0,0-8.2,8.2V606a8.24,8.24,0,0,0,8.2,8.2h133a8.24,8.24,0,0,0,8.2-8.2V559.4A8.24,8.24,0,0,0,833.1,551.2Z" transform="translate(-438.3 -185)"/><path class="2c33acb6-0a28-447a-9333-9630a5e87d63" d="M671.6,548.3H537.9a8.24,8.24,0,0,0-8.2,8.2v46.6a8.24,8.24,0,0,0,8.2,8.2H671.5a8.39,8.39,0,0,0,8.3-8.2V556.5A8.17,8.17,0,0,0,671.6,548.3Z" transform="translate(-438.3 -185)"/><path class="2c33acb6-0a28-447a-9333-9630a5e87d63" d="M530.1,467.6h133a8.24,8.24,0,0,0,8.2-8.2V412.8a8.24,8.24,0,0,0-8.2-8.2h-133a8.24,8.24,0,0,0-8.2,8.2v46.6A8.24,8.24,0,0,0,530.1,467.6Z" transform="translate(-438.3 -185)"/><path class="2c33acb6-0a28-447a-9333-9630a5e87d63" d="M608.9,253.1h133a7.88,7.88,0,0,0,6-2.7,8.23,8.23,0,0,0,2.7-6V197.8a8.26,8.26,0,0,0-6.4-8,8.68,8.68,0,0,0-2.8-.5h-133a8.24,8.24,0,0,0-8.2,8.2V244a8.94,8.94,0,0,0,1.2,4.3A8.22,8.22,0,0,0,608.9,253.1Z" transform="translate(-438.3 -185)"/><path class="2c33acb6-0a28-447a-9333-9630a5e87d63" d="M580,249.3h0a7.79,7.79,0,0,0,5.5-2.2,8.19,8.19,0,0,0,3.3-6.5V194a8.24,8.24,0,0,0-8.2-8.2h-133a7.79,7.79,0,0,0-5.5,2.2,8.19,8.19,0,0,0-3.3,6.5v46.6a8.24,8.24,0,0,0,8.2,8.2Z" transform="translate(-438.3 -185)"/><path class="2c33acb6-0a28-447a-9333-9630a5e87d63" d="M608,341.5v46.7a8.24,8.24,0,0,0,8.2,8.2h133a8.24,8.24,0,0,0,8.2-8.2V341.5a8.24,8.24,0,0,0-8.2-8.2h-133A8.24,8.24,0,0,0,608,341.5Z" transform="translate(-438.3 -185)"/><g class="206f8234-4992-45cc-8889-a4aa2ebb0e9f"><path class="fcdf0acc-f254-4fde-8e46-e4c9c61e286d" d="M598.5,349.3l.9-5.3-51.8-33.7c4.3-7.2,7.1-11.7,11.5-18.7l50.3,29.9,24.8-38.1,22.9,31.5,24.5-32.7,21.5,28.3c9,4.7,87.4-2.3,116.3-5l13.4-30.9,32.1-2.6c1.7,82.9,3.9,165.8,5.6,248.7-7.9-.9-15.7-1.7-23.6-2.6-.4-25.1-1-50.5-1.4-75.4-7-.6-13.7-1.4-20.7-2.2-1.2,17.4-4.1,77-4.1,77l-27,1.2V440.5c-11.2-1.3-22.5-2.6-33.5-4-1.3,19.1-10.1,79.9-10.1,79.9l-27.9,1.4s-6.1-58-6.3-76.3c-8.8.6-17.7,1.2-26.3,1.7-2.2,16.9-13.4,70.2-13.4,70.2L639,514.8c1.2-22.5,2.3-44.8,3.5-67.4.6-13.1,1.3-27.1-4.9-38.6-5.4-10.1-15.2-16.9-24.5-23.6l-85.7-38.1c1.4-2.3,7.1-14.7,8.5-17Z" transform="translate(-438.3 -185)"/></g><g class="206f8234-4992-45cc-8889-a4aa2ebb0e9f"><path class="ed2340a8-5e22-40db-a35d-8cbb1bfbc209" d="M545.9,241.1c-4.2-9.3-8.6-18.4-13-27.8" transform="translate(-438.3 -185)"/></g><g class="206f8234-4992-45cc-8889-a4aa2ebb0e9f"><path class="ed2340a8-5e22-40db-a35d-8cbb1bfbc209" d="M572.9,252c.7-10.2,1.2-20.3,1.8-30.6" transform="translate(-438.3 -185)"/></g><g class="206f8234-4992-45cc-8889-a4aa2ebb0e9f"><path class="ed2340a8-5e22-40db-a35d-8cbb1bfbc209" d="M518.1,253.3c-6.5-6-13.2-11.9-19.7-17.9" transform="translate(-438.3 -185)"/></g><g class="206f8234-4992-45cc-8889-a4aa2ebb0e9f"><path class="483bf0b5-017f-4a02-a584-a7d5e31e43c7" d="M865.2,550.2c9,7.3,18,14.5,26.9,21.8" transform="translate(-438.3 -185)"/></g><g class="206f8234-4992-45cc-8889-a4aa2ebb0e9f"><path class="483bf0b5-017f-4a02-a584-a7d5e31e43c7" d="M885.6,529.8l23.2,26.8" transform="translate(-438.3 -185)"/></g></svg>