<?xml version="1.0" encoding="utf-8"?>
<!-- Generator: Adobe Illustrator 22.1.0, SVG Export Plug-In . SVG Version: 6.00 Build 0)  -->
<svg version="1.1" id="_x39_29a63f3-9ae3-4ac3-aaf2-1ac0400b1715"
	 xmlns="http://www.w3.org/2000/svg" xmlns:xlink="http://www.w3.org/1999/xlink" x="0px" y="0px" viewBox="0 0 1440 800"
	 style="enable-background:new 0 0 1440 800;" xml:space="preserve">
<style type="text/css">
	.st0{fill:#FFFFFF;stroke:#000000;stroke-miterlimit:10;}
	.st1{clip-path:url(#SVGID_2_);stroke:#000000;stroke-width:0.661;stroke-miterlimit:10;}
	.st2{clip-path:url(#SVGID_14_);fill:#FFFFFF;stroke:#000000;stroke-linecap:round;stroke-miterlimit:10;}
	.st3{clip-path:url(#SVGID_16_);fill:#FFFFFF;stroke:#000000;stroke-linecap:round;stroke-miterlimit:10;}
	.st4{clip-path:url(#SVGID_18_);fill:#FFFFFF;stroke:#000000;stroke-linecap:round;stroke-miterlimit:10;}
	.st5{clip-path:url(#SVGID_20_);fill:none;stroke:#000000;stroke-linecap:round;stroke-miterlimit:10;}
	.st6{clip-path:url(#SVGID_22_);fill:none;stroke:#000000;stroke-linecap:round;stroke-miterlimit:10;}
</style>
<g>
	<g>
		<path class="st0" d="M829.3,456v-46.6c0-4.5-3.7-8.2-8.2-8.2h-133c-4.5,0-8.2,3.7-8.2,8.2V456c0,4.5,3.7,8.2,8.2,8.2H821
			C825.5,464.3,829.2,460.6,829.3,456z"/>
		<path class="st0" d="M590.8,531.3v-0.1v-46.5v-0.1c0-4.5-3.7-8.2-8.2-8.2h-133c-4.5,0-8.2,3.7-8.2,8.2v0.1v46.5v0.1
			c0,4.5,3.7,8.2,8.2,8.2h132.9C587,539.5,590.7,535.8,590.8,531.3z"/>
		<path class="st0" d="M823.7,259.9h-133c-4.5,0-8.2,3.7-8.2,8.2v0.1v46.5v0.1c0,4.5,3.7,8.2,8.2,8.2h133c4.5,0,8.2-3.7,8.2-8.2
			v-0.1v-46.5v-0.1C831.9,263.6,828.2,259.9,823.7,259.9z"/>
		<path class="st0" d="M768.2,248.8h133v0c4.5,0,8.2-3.7,8.2-8.2v-0.3V194v-0.3c0-4.5-3.7-8.2-8.2-8.2h-133c-4.5,0-8.2,3.7-8.2,8.2
			v0.3v46.3v0.3C760,245.1,763.7,248.8,768.2,248.8z"/>
		<path class="st0" d="M608.8,538.9h132.9c4.5,0,8.2-3.7,8.3-8.2v-46.6c0-4.5-3.7-8.2-8.2-8.2h-133c-4.5,0-8.2,3.7-8.2,8.2v46.6
			C600.6,535.2,604.3,538.9,608.8,538.9z"/>
		<path class="st0" d="M992.7,548.2h-133c-4.5,0-8.2,3.7-8.2,8.2v0.1V603v0.1c0,4.5,3.7,8.2,8.2,8.2h133c4.5,0,8.2-3.7,8.2-8.2V603
			v-46.5v-0.1C1000.9,551.9,997.2,548.2,992.7,548.2z"/>
		<path class="st0" d="M456.1,335.7c-4.5,0-8.2,3.7-8.2,8.2v46.6c0,4.5,3.7,8.2,8.2,8.2h0.1h132.9h0.1c4.5,0,8.2-3.7,8.2-8.2v-46.6
			c0-4.5-3.7-8.2-8.2-8.2h-0.1H456.1L456.1,335.7z"/>
		<path class="st0" d="M765.7,341.5v0.1v46.5v0.1c0,4.5,3.7,8.2,8.2,8.2h133c4.5,0,8.2-3.7,8.2-8.2v-0.1v-46.5v-0.1
			c0-4.5-3.7-8.2-8.2-8.2h-133C769.4,333.3,765.7,337,765.7,341.5z"/>
		<path class="st0" d="M990.2,459.4v-0.7v-45.9v-0.7c0-4.5-3.7-8.2-8.2-8.2H849c-4.5,0-8.2,3.7-8.2,8.2v0.7v45.9v0.7
			c0,4.5,3.7,8.2,8.2,8.2h132.9C986.4,467.6,990.1,463.9,990.2,459.4z"/>
		<path class="st0" d="M765.1,539.5c0.4,0.1,0.9,0.1,1.4,0.1h132.9c4.5,0,8.2-3.7,8.3-8.2v-46.6c0-4.3-3.5-7.9-7.7-8.2
			c-0.4-0.1-0.9-0.1-1.4-0.1h-133c-4.5,0-8.2,3.7-8.2,8.2v46.6C757.4,535.7,760.8,539.3,765.1,539.5z"/>
		<path class="st0" d="M665.9,261.3h-133c-4.5,0-8.2,3.7-8.2,8.2v46.6c0,4.5,3.7,8.2,8.2,8.2h133c4.5,0,8.2-3.7,8.2-8.2v-46.6
			C674.1,265,670.4,261.3,665.9,261.3z"/>
		<path class="st0" d="M840.8,269.5v46.6c0,4.5,3.7,8.2,8.2,8.2h132.9c4.5,0,8.2-3.7,8.3-8.2v-46.6c0-4.5-3.7-8.2-8.2-8.2H849
			C844.4,261.3,840.8,265,840.8,269.5z"/>
		<path class="st0" d="M833.1,551.2h-133c-4.5,0-8.2,3.7-8.2,8.2V606c0,4.5,3.7,8.2,8.2,8.2h133c4.5,0,8.2-3.7,8.2-8.2v-46.6
			C841.3,554.9,837.6,551.2,833.1,551.2z"/>
		<path class="st0" d="M671.6,548.3h-0.7H538.6h-0.7c-4.5,0-8.2,3.7-8.2,8.2v46.6c0,4.5,3.7,8.2,8.2,8.2h0.7h132.2h0.7
			c4.5,0,8.2-3.7,8.3-8.2v-46.6C679.8,552,676.2,548.3,671.6,548.3z"/>
		<path class="st0" d="M530.1,467.6h133c4.5,0,8.2-3.7,8.2-8.2v-46.6c0-4.5-3.7-8.2-8.2-8.2h-133c-4.5,0-8.2,3.7-8.2,8.2v46.6
			C521.9,463.9,525.6,467.6,530.1,467.6z"/>
		<path class="st0" d="M608.9,253.1h133c2.4,0,4.5-1,6-2.7c1.6-1.5,2.7-3.6,2.7-6v-46.6c0-3.9-2.8-7.2-6.4-8
			c-0.9-0.3-1.8-0.5-2.8-0.5h-133c-4.5,0-8.2,3.7-8.2,8.2V244c0,1.6,0.5,3,1.2,4.3C602.7,251.1,605.5,253.1,608.9,253.1z"/>
		<path class="st0" d="M580,249.3L580,249.3c2.1,0,4.1-0.8,5.5-2.2c2-1.5,3.3-3.9,3.3-6.5V194c0-4.5-3.7-8.2-8.2-8.2h-133
			c-2.1,0-4.1,0.8-5.5,2.2c-2,1.5-3.3,3.9-3.3,6.5v46.6c0,4.5,3.7,8.2,8.2,8.2H580z"/>
		<path class="st0" d="M608,341.5v0.1v46.5v0.1c0,4.5,3.7,8.2,8.2,8.2h133c4.5,0,8.2-3.7,8.2-8.2v-0.1v-46.5v-0.1
			c0-4.5-3.7-8.2-8.2-8.2h-133C611.7,333.3,608,337,608,341.5z"/>
	</g>
	<g>
		<g>
			<defs>
				<path id="SVGID_1_" d="M824.1,323.2c4.5,0,8.2-3.7,8.2-8.2v-46.6c0-4.5-3.7-8.2-8.2-8.2h-133c-4.5,0-8.2,3.7-8.2,8.2V315
					c0,4.5,3.7,8.2,8.2,8.2H824.1z M741.9,252.7c4.5,0,8.2-3.7,8.2-8.2v-46.6c0-4.5-3.7-8.2-8.2-8.2h-133c-4.5,0-8.2,3.7-8.2,8.2
					v46.6c0,4.5,3.7,8.2,8.2,8.2L741.9,252.7L741.9,252.7z M901.6,249c4.5,0,8.2-3.7,8.2-8.2v-46.6c0-4.5-3.7-8.2-8.2-8.2h-133
					c-4.5,0-8.2,3.7-8.2,8.2v46.6c0,4.5,3.7,8.2,8.2,8.2L901.6,249L901.6,249z M679.4,603.3v-46.6c0-4.5-3.7-8.2-8.2-8.2h-133
					c-4.5,0-8.2,3.7-8.2,8.2v46.6c0,4.5,3.7,8.2,8.2,8.2h132.9C675.7,611.5,679.4,607.8,679.4,603.3z M750.3,530.9v-46.6
					c0-4.5-3.7-8.2-8.2-8.2h-133c-4.5,0-8.2,3.7-8.2,8.2v46.6c0,4.5,3.7,8.2,8.2,8.2H742C746.6,539.1,750.3,535.4,750.3,530.9z
					 M1001.2,603.3v-46.6c0-4.5-3.7-8.2-8.2-8.2H860c-4.5,0-8.2,3.7-8.2,8.2v46.6c0,4.5,3.7,8.2,8.2,8.2h132.9
					C997.5,611.5,1001.2,607.8,1001.2,603.3z M908,531.6v-46.5c0-4.5-3.7-8.2-8.2-8.2h-133c-4.5,0-8.2,3.7-8.2,8.2v46.6
					c0,4.5,3.7,8.2,8.2,8.2h132.9C904.2,539.9,907.9,536.2,908,531.6z M990.5,459v-46.6c0-4.5-3.7-8.2-8.2-8.2h-133
					c-4.5,0-8.2,3.7-8.2,8.2V459c0,4.5,3.7,8.2,8.2,8.2h132.9C986.7,467.2,990.4,463.5,990.5,459z M829.6,456.3v-46.6
					c0-4.5-3.7-8.2-8.2-8.2h-133c-4.5,0-8.2,3.7-8.2,8.2v46.6c0,4.5,3.7,8.2,8.2,8.2h133C825.9,464.5,829.6,460.8,829.6,456.3z
					 M448.3,344.1v46.6c0,4.5,3.7,8.2,8.2,8.2h133c4.5,0,8.2-3.7,8.2-8.2v-46.6c0-4.5-3.7-8.2-8.2-8.2h-133
					C452,335.9,448.3,339.6,448.3,344.1z M591.1,531.5v-46.6c0-4.5-3.7-8.2-8.2-8.2h-133c-4.5,0-8.2,3.7-8.2,8.2v46.6
					c0,4.5,3.7,8.2,8.2,8.2h132.9C587.4,539.7,591.1,536,591.1,531.5z M608.3,341.8v46.6c0,4.5,3.7,8.2,8.2,8.2h133
					c4.5,0,8.2-3.7,8.2-8.2v-46.6c0-4.5-3.7-8.2-8.2-8.2h-133C612,333.6,608.3,337.3,608.3,341.8z M766,341.8v46.6
					c0,4.5,3.7,8.2,8.2,8.2h133c4.5,0,8.2-3.7,8.2-8.2v-46.6c0-4.5-3.7-8.2-8.2-8.2h-133C769.7,333.6,766,337.3,766,341.8z
					 M666.2,261.6h-133c-4.5,0-8.2,3.7-8.2,8.2v46.6c0,4.5,3.7,8.2,8.2,8.2h133c4.5,0,8.2-3.7,8.2-8.2v-46.6
					C674.4,265.3,670.7,261.6,666.2,261.6z M841.1,269.8v46.6c0,4.5,3.7,8.2,8.2,8.2h132.9c4.5,0,8.2-3.7,8.3-8.2v-46.6
					c0-4.5-3.7-8.2-8.2-8.2h-133C844.8,261.6,841.1,265.3,841.1,269.8z M833.4,551.5h-133c-4.5,0-8.2,3.7-8.2,8.2v46.6
					c0,4.5,3.7,8.2,8.2,8.2h133c4.5,0,8.2-3.7,8.2-8.2v-46.6C841.6,555.2,837.9,551.5,833.4,551.5z M580.3,249.5
					c4.5,0,8.2-3.7,8.2-8.2v-46.6c0-4.5-3.7-8.2-8.2-8.2h-133c-4.5,0-8.2,3.7-8.2,8.2v46.6c0,4.5,3.7,8.2,8.2,8.2L580.3,249.5
					L580.3,249.5z M530.5,467.8h133c4.5,0,8.2-3.7,8.2-8.2v-46.5c0-4.5-3.7-8.2-8.2-8.2h-133c-4.5,0-8.2,3.7-8.2,8.2v46.6
					C522.3,464.1,526,467.8,530.5,467.8z"/>
			</defs>
			<clipPath id="SVGID_2_">
				<use xlink:href="#SVGID_1_"  style="overflow:visible;"/>
			</clipPath>
			<path class="st1" d="M598.5,349.3l0.9-5.3l-51.8-33.7c4.3-7.2,7.1-11.7,11.5-18.7l50.3,29.9l24.8-38.1l22.9,31.5l24.5-32.7
				l21.5,28.3c9,4.7,87.4-2.3,116.3-5l13.4-30.9l32.1-2.6c1.7,82.9,3.9,165.8,5.6,248.7c-7.9-0.9-15.7-1.7-23.6-2.6
				c-0.4-25.1-1-50.5-1.4-75.4c-7-0.6-13.7-1.4-20.7-2.2c-1.2,17.4-4.1,77-4.1,77l-27,1.2v-78.2c-11.2-1.3-22.5-2.6-33.5-4
				c-1.3,19.1-10.1,79.9-10.1,79.9l-27.9,1.4c0,0-6.1-58-6.3-76.3c-8.8,0.6-17.7,1.2-26.3,1.7c-2.2,16.9-13.4,70.2-13.4,70.2
				l-37.2,1.4c1.2-22.5,2.3-44.8,3.5-67.4c0.6-13.1,1.3-27.1-4.9-38.6c-5.4-10.1-15.2-16.9-24.5-23.6l-85.7-38.1
				c1.4-2.3,7.1-14.7,8.5-17L598.5,349.3z"/>
		</g>
		<g>
			<defs>
				<path id="SVGID_3_" d="M824.1,323.2c4.5,0,8.2-3.7,8.2-8.2v-46.6c0-4.5-3.7-8.2-8.2-8.2h-133c-4.5,0-8.2,3.7-8.2,8.2V315
					c0,4.5,3.7,8.2,8.2,8.2H824.1z M741.9,252.7c4.5,0,8.2-3.7,8.2-8.2v-46.6c0-4.5-3.7-8.2-8.2-8.2h-133c-4.5,0-8.2,3.7-8.2,8.2
					v46.6c0,4.5,3.7,8.2,8.2,8.2L741.9,252.7L741.9,252.7z M901.6,249c4.5,0,8.2-3.7,8.2-8.2v-46.6c0-4.5-3.7-8.2-8.2-8.2h-133
					c-4.5,0-8.2,3.7-8.2,8.2v46.6c0,4.5,3.7,8.2,8.2,8.2L901.6,249L901.6,249z M679.4,603.3v-46.6c0-4.5-3.7-8.2-8.2-8.2h-133
					c-4.5,0-8.2,3.7-8.2,8.2v46.6c0,4.5,3.7,8.2,8.2,8.2h132.9C675.7,611.5,679.4,607.8,679.4,603.3z M750.3,530.9v-46.6
					c0-4.5-3.7-8.2-8.2-8.2h-133c-4.5,0-8.2,3.7-8.2,8.2v46.6c0,4.5,3.7,8.2,8.2,8.2H742C746.6,539.1,750.3,535.4,750.3,530.9z
					 M1001.2,603.3v-46.6c0-4.5-3.7-8.2-8.2-8.2H860c-4.5,0-8.2,3.7-8.2,8.2v46.6c0,4.5,3.7,8.2,8.2,8.2h132.9
					C997.5,611.5,1001.2,607.8,1001.2,603.3z M908,531.6v-46.5c0-4.5-3.7-8.2-8.2-8.2h-133c-4.5,0-8.2,3.7-8.2,8.2v46.6
					c0,4.5,3.7,8.2,8.2,8.2h132.9C904.2,539.9,907.9,536.2,908,531.6z M990.5,459v-46.6c0-4.5-3.7-8.2-8.2-8.2h-133
					c-4.5,0-8.2,3.7-8.2,8.2V459c0,4.5,3.7,8.2,8.2,8.2h132.9C986.7,467.2,990.4,463.5,990.5,459z M829.6,456.3v-46.6
					c0-4.5-3.7-8.2-8.2-8.2h-133c-4.5,0-8.2,3.7-8.2,8.2v46.6c0,4.5,3.7,8.2,8.2,8.2h133C825.9,464.5,829.6,460.8,829.6,456.3z
					 M448.3,344.1v46.6c0,4.5,3.7,8.2,8.2,8.2h133c4.5,0,8.2-3.7,8.2-8.2v-46.6c0-4.5-3.7-8.2-8.2-8.2h-133
					C452,335.9,448.3,339.6,448.3,344.1z M591.1,531.5v-46.6c0-4.5-3.7-8.2-8.2-8.2h-133c-4.5,0-8.2,3.7-8.2,8.2v46.6
					c0,4.5,3.7,8.2,8.2,8.2h132.9C587.4,539.7,591.1,536,591.1,531.5z M608.3,341.8v46.6c0,4.5,3.7,8.2,8.2,8.2h133
					c4.5,0,8.2-3.7,8.2-8.2v-46.6c0-4.5-3.7-8.2-8.2-8.2h-133C612,333.6,608.3,337.3,608.3,341.8z M766,341.8v46.6
					c0,4.5,3.7,8.2,8.2,8.2h133c4.5,0,8.2-3.7,8.2-8.2v-46.6c0-4.5-3.7-8.2-8.2-8.2h-133C769.7,333.6,766,337.3,766,341.8z
					 M666.2,261.6h-133c-4.5,0-8.2,3.7-8.2,8.2v46.6c0,4.5,3.7,8.2,8.2,8.2h133c4.5,0,8.2-3.7,8.2-8.2v-46.6
					C674.4,265.3,670.7,261.6,666.2,261.6z M841.1,269.8v46.6c0,4.5,3.7,8.2,8.2,8.2h132.9c4.5,0,8.2-3.7,8.3-8.2v-46.6
					c0-4.5-3.7-8.2-8.2-8.2h-133C844.8,261.6,841.1,265.3,841.1,269.8z M833.4,551.5h-133c-4.5,0-8.2,3.7-8.2,8.2v46.6
					c0,4.5,3.7,8.2,8.2,8.2h133c4.5,0,8.2-3.7,8.2-8.2v-46.6C841.6,555.2,837.9,551.5,833.4,551.5z M580.3,249.5
					c4.5,0,8.2-3.7,8.2-8.2v-46.6c0-4.5-3.7-8.2-8.2-8.2h-133c-4.5,0-8.2,3.7-8.2,8.2v46.6c0,4.5,3.7,8.2,8.2,8.2L580.3,249.5
					L580.3,249.5z M530.5,467.8h133c4.5,0,8.2-3.7,8.2-8.2v-46.5c0-4.5-3.7-8.2-8.2-8.2h-133c-4.5,0-8.2,3.7-8.2,8.2v46.6
					C522.3,464.1,526,467.8,530.5,467.8z"/>
			</defs>
			<clipPath id="SVGID_4_">
				<use xlink:href="#SVGID_3_"  style="overflow:visible;"/>
			</clipPath>
		</g>
		<g>
			<defs>
				<path id="SVGID_5_" d="M824.1,323.2c4.5,0,8.2-3.7,8.2-8.2v-46.6c0-4.5-3.7-8.2-8.2-8.2h-133c-4.5,0-8.2,3.7-8.2,8.2V315
					c0,4.5,3.7,8.2,8.2,8.2H824.1z M741.9,252.7c4.5,0,8.2-3.7,8.2-8.2v-46.6c0-4.5-3.7-8.2-8.2-8.2h-133c-4.5,0-8.2,3.7-8.2,8.2
					v46.6c0,4.5,3.7,8.2,8.2,8.2L741.9,252.7L741.9,252.7z M901.6,249c4.5,0,8.2-3.7,8.2-8.2v-46.6c0-4.5-3.7-8.2-8.2-8.2h-133
					c-4.5,0-8.2,3.7-8.2,8.2v46.6c0,4.5,3.7,8.2,8.2,8.2L901.6,249L901.6,249z M679.4,603.3v-46.6c0-4.5-3.7-8.2-8.2-8.2h-133
					c-4.5,0-8.2,3.7-8.2,8.2v46.6c0,4.5,3.7,8.2,8.2,8.2h132.9C675.7,611.5,679.4,607.8,679.4,603.3z M750.3,530.9v-46.6
					c0-4.5-3.7-8.2-8.2-8.2h-133c-4.5,0-8.2,3.7-8.2,8.2v46.6c0,4.5,3.7,8.2,8.2,8.2H742C746.6,539.1,750.3,535.4,750.3,530.9z
					 M1001.2,603.3v-46.6c0-4.5-3.7-8.2-8.2-8.2H860c-4.5,0-8.2,3.7-8.2,8.2v46.6c0,4.5,3.7,8.2,8.2,8.2h132.9
					C997.5,611.5,1001.2,607.8,1001.2,603.3z M908,531.6v-46.5c0-4.5-3.7-8.2-8.2-8.2h-133c-4.5,0-8.2,3.7-8.2,8.2v46.6
					c0,4.5,3.7,8.2,8.2,8.2h132.9C904.2,539.9,907.9,536.2,908,531.6z M990.5,459v-46.6c0-4.5-3.7-8.2-8.2-8.2h-133
					c-4.5,0-8.2,3.7-8.2,8.2V459c0,4.5,3.7,8.2,8.2,8.2h132.9C986.7,467.2,990.4,463.5,990.5,459z M829.6,456.3v-46.6
					c0-4.5-3.7-8.2-8.2-8.2h-133c-4.5,0-8.2,3.7-8.2,8.2v46.6c0,4.5,3.7,8.2,8.2,8.2h133C825.9,464.5,829.6,460.8,829.6,456.3z
					 M448.3,344.1v46.6c0,4.5,3.7,8.2,8.2,8.2h133c4.5,0,8.2-3.7,8.2-8.2v-46.6c0-4.5-3.7-8.2-8.2-8.2h-133
					C452,335.9,448.3,339.6,448.3,344.1z M591.1,531.5v-46.6c0-4.5-3.7-8.2-8.2-8.2h-133c-4.5,0-8.2,3.7-8.2,8.2v46.6
					c0,4.5,3.7,8.2,8.2,8.2h132.9C587.4,539.7,591.1,536,591.1,531.5z M608.3,341.8v46.6c0,4.5,3.7,8.2,8.2,8.2h133
					c4.5,0,8.2-3.7,8.2-8.2v-46.6c0-4.5-3.7-8.2-8.2-8.2h-133C612,333.6,608.3,337.3,608.3,341.8z M766,341.8v46.6
					c0,4.5,3.7,8.2,8.2,8.2h133c4.5,0,8.2-3.7,8.2-8.2v-46.6c0-4.5-3.7-8.2-8.2-8.2h-133C769.7,333.6,766,337.3,766,341.8z
					 M666.2,261.6h-133c-4.5,0-8.2,3.7-8.2,8.2v46.6c0,4.5,3.7,8.2,8.2,8.2h133c4.5,0,8.2-3.7,8.2-8.2v-46.6
					C674.4,265.3,670.7,261.6,666.2,261.6z M841.1,269.8v46.6c0,4.5,3.7,8.2,8.2,8.2h132.9c4.5,0,8.2-3.7,8.3-8.2v-46.6
					c0-4.5-3.7-8.2-8.2-8.2h-133C844.8,261.6,841.1,265.3,841.1,269.8z M833.4,551.5h-133c-4.5,0-8.2,3.7-8.2,8.2v46.6
					c0,4.5,3.7,8.2,8.2,8.2h133c4.5,0,8.2-3.7,8.2-8.2v-46.6C841.6,555.2,837.9,551.5,833.4,551.5z M580.3,249.5
					c4.5,0,8.2-3.7,8.2-8.2v-46.6c0-4.5-3.7-8.2-8.2-8.2h-133c-4.5,0-8.2,3.7-8.2,8.2v46.6c0,4.5,3.7,8.2,8.2,8.2L580.3,249.5
					L580.3,249.5z M530.5,467.8h133c4.5,0,8.2-3.7,8.2-8.2v-46.5c0-4.5-3.7-8.2-8.2-8.2h-133c-4.5,0-8.2,3.7-8.2,8.2v46.6
					C522.3,464.1,526,467.8,530.5,467.8z"/>
			</defs>
			<clipPath id="SVGID_6_">
				<use xlink:href="#SVGID_5_"  style="overflow:visible;"/>
			</clipPath>
		</g>
		<g>
			<defs>
				<path id="SVGID_7_" d="M824.1,323.2c4.5,0,8.2-3.7,8.2-8.2v-46.6c0-4.5-3.7-8.2-8.2-8.2h-133c-4.5,0-8.2,3.7-8.2,8.2V315
					c0,4.5,3.7,8.2,8.2,8.2H824.1z M741.9,252.7c4.5,0,8.2-3.7,8.2-8.2v-46.6c0-4.5-3.7-8.2-8.2-8.2h-133c-4.5,0-8.2,3.7-8.2,8.2
					v46.6c0,4.5,3.7,8.2,8.2,8.2L741.9,252.7L741.9,252.7z M901.6,249c4.5,0,8.2-3.7,8.2-8.2v-46.6c0-4.5-3.7-8.2-8.2-8.2h-133
					c-4.5,0-8.2,3.7-8.2,8.2v46.6c0,4.5,3.7,8.2,8.2,8.2L901.6,249L901.6,249z M679.4,603.3v-46.6c0-4.5-3.7-8.2-8.2-8.2h-133
					c-4.5,0-8.2,3.7-8.2,8.2v46.6c0,4.5,3.7,8.2,8.2,8.2h132.9C675.7,611.5,679.4,607.8,679.4,603.3z M750.3,530.9v-46.6
					c0-4.5-3.7-8.2-8.2-8.2h-133c-4.5,0-8.2,3.7-8.2,8.2v46.6c0,4.5,3.7,8.2,8.2,8.2H742C746.6,539.1,750.3,535.4,750.3,530.9z
					 M1001.2,603.3v-46.6c0-4.5-3.7-8.2-8.2-8.2H860c-4.5,0-8.2,3.7-8.2,8.2v46.6c0,4.5,3.7,8.2,8.2,8.2h132.9
					C997.5,611.5,1001.2,607.8,1001.2,603.3z M908,531.6v-46.5c0-4.5-3.7-8.2-8.2-8.2h-133c-4.5,0-8.2,3.7-8.2,8.2v46.6
					c0,4.5,3.7,8.2,8.2,8.2h132.9C904.2,539.9,907.9,536.2,908,531.6z M990.5,459v-46.6c0-4.5-3.7-8.2-8.2-8.2h-133
					c-4.5,0-8.2,3.7-8.2,8.2V459c0,4.5,3.7,8.2,8.2,8.2h132.9C986.7,467.2,990.4,463.5,990.5,459z M829.6,456.3v-46.6
					c0-4.5-3.7-8.2-8.2-8.2h-133c-4.5,0-8.2,3.7-8.2,8.2v46.6c0,4.5,3.7,8.2,8.2,8.2h133C825.9,464.5,829.6,460.8,829.6,456.3z
					 M448.3,344.1v46.6c0,4.5,3.7,8.2,8.2,8.2h133c4.5,0,8.2-3.7,8.2-8.2v-46.6c0-4.5-3.7-8.2-8.2-8.2h-133
					C452,335.9,448.3,339.6,448.3,344.1z M591.1,531.5v-46.6c0-4.5-3.7-8.2-8.2-8.2h-133c-4.5,0-8.2,3.7-8.2,8.2v46.6
					c0,4.5,3.7,8.2,8.2,8.2h132.9C587.4,539.7,591.1,536,591.1,531.5z M608.3,341.8v46.6c0,4.5,3.7,8.2,8.2,8.2h133
					c4.5,0,8.2-3.7,8.2-8.2v-46.6c0-4.5-3.7-8.2-8.2-8.2h-133C612,333.6,608.3,337.3,608.3,341.8z M766,341.8v46.6
					c0,4.5,3.7,8.2,8.2,8.2h133c4.5,0,8.2-3.7,8.2-8.2v-46.6c0-4.5-3.7-8.2-8.2-8.2h-133C769.7,333.6,766,337.3,766,341.8z
					 M666.2,261.6h-133c-4.5,0-8.2,3.7-8.2,8.2v46.6c0,4.5,3.7,8.2,8.2,8.2h133c4.5,0,8.2-3.7,8.2-8.2v-46.6
					C674.4,265.3,670.7,261.6,666.2,261.6z M841.1,269.8v46.6c0,4.5,3.7,8.2,8.2,8.2h132.9c4.5,0,8.2-3.7,8.3-8.2v-46.6
					c0-4.5-3.7-8.2-8.2-8.2h-133C844.8,261.6,841.1,265.3,841.1,269.8z M833.4,551.5h-133c-4.5,0-8.2,3.7-8.2,8.2v46.6
					c0,4.5,3.7,8.2,8.2,8.2h133c4.5,0,8.2-3.7,8.2-8.2v-46.6C841.6,555.2,837.9,551.5,833.4,551.5z M580.3,249.5
					c4.5,0,8.2-3.7,8.2-8.2v-46.6c0-4.5-3.7-8.2-8.2-8.2h-133c-4.5,0-8.2,3.7-8.2,8.2v46.6c0,4.5,3.7,8.2,8.2,8.2L580.3,249.5
					L580.3,249.5z M530.5,467.8h133c4.5,0,8.2-3.7,8.2-8.2v-46.5c0-4.5-3.7-8.2-8.2-8.2h-133c-4.5,0-8.2,3.7-8.2,8.2v46.6
					C522.3,464.1,526,467.8,530.5,467.8z"/>
			</defs>
			<clipPath id="SVGID_8_">
				<use xlink:href="#SVGID_7_"  style="overflow:visible;"/>
			</clipPath>
		</g>
		<g>
			<defs>
				<path id="SVGID_9_" d="M824.1,323.2c4.5,0,8.2-3.7,8.2-8.2v-46.6c0-4.5-3.7-8.2-8.2-8.2h-133c-4.5,0-8.2,3.7-8.2,8.2V315
					c0,4.5,3.7,8.2,8.2,8.2H824.1z M741.9,252.7c4.5,0,8.2-3.7,8.2-8.2v-46.6c0-4.5-3.7-8.2-8.2-8.2h-133c-4.5,0-8.2,3.7-8.2,8.2
					v46.6c0,4.5,3.7,8.2,8.2,8.2L741.9,252.7L741.9,252.7z M901.6,249c4.5,0,8.2-3.7,8.2-8.2v-46.6c0-4.5-3.7-8.2-8.2-8.2h-133
					c-4.5,0-8.2,3.7-8.2,8.2v46.6c0,4.5,3.7,8.2,8.2,8.2L901.6,249L901.6,249z M679.4,603.3v-46.6c0-4.5-3.7-8.2-8.2-8.2h-133
					c-4.5,0-8.2,3.7-8.2,8.2v46.6c0,4.5,3.7,8.2,8.2,8.2h132.9C675.7,611.5,679.4,607.8,679.4,603.3z M750.3,530.9v-46.6
					c0-4.5-3.7-8.2-8.2-8.2h-133c-4.5,0-8.2,3.7-8.2,8.2v46.6c0,4.5,3.7,8.2,8.2,8.2H742C746.6,539.1,750.3,535.4,750.3,530.9z
					 M1001.2,603.3v-46.6c0-4.5-3.7-8.2-8.2-8.2H860c-4.5,0-8.2,3.7-8.2,8.2v46.6c0,4.5,3.7,8.2,8.2,8.2h132.9
					C997.5,611.5,1001.2,607.8,1001.2,603.3z M908,531.6v-46.5c0-4.5-3.7-8.2-8.2-8.2h-133c-4.5,0-8.2,3.7-8.2,8.2v46.6
					c0,4.5,3.7,8.2,8.2,8.2h132.9C904.2,539.9,907.9,536.2,908,531.6z M990.5,459v-46.6c0-4.5-3.7-8.2-8.2-8.2h-133
					c-4.5,0-8.2,3.7-8.2,8.2V459c0,4.5,3.7,8.2,8.2,8.2h132.9C986.7,467.2,990.4,463.5,990.5,459z M829.6,456.3v-46.6
					c0-4.5-3.7-8.2-8.2-8.2h-133c-4.5,0-8.2,3.7-8.2,8.2v46.6c0,4.5,3.7,8.2,8.2,8.2h133C825.9,464.5,829.6,460.8,829.6,456.3z
					 M448.3,344.1v46.6c0,4.5,3.7,8.2,8.2,8.2h133c4.5,0,8.2-3.7,8.2-8.2v-46.6c0-4.5-3.7-8.2-8.2-8.2h-133
					C452,335.9,448.3,339.6,448.3,344.1z M591.1,531.5v-46.6c0-4.5-3.7-8.2-8.2-8.2h-133c-4.5,0-8.2,3.7-8.2,8.2v46.6
					c0,4.5,3.7,8.2,8.2,8.2h132.9C587.4,539.7,591.1,536,591.1,531.5z M608.3,341.8v46.6c0,4.5,3.7,8.2,8.2,8.2h133
					c4.5,0,8.2-3.7,8.2-8.2v-46.6c0-4.5-3.7-8.2-8.2-8.2h-133C612,333.6,608.3,337.3,608.3,341.8z M766,341.8v46.6
					c0,4.5,3.7,8.2,8.2,8.2h133c4.5,0,8.2-3.7,8.2-8.2v-46.6c0-4.5-3.7-8.2-8.2-8.2h-133C769.7,333.6,766,337.3,766,341.8z
					 M666.2,261.6h-133c-4.5,0-8.2,3.7-8.2,8.2v46.6c0,4.5,3.7,8.2,8.2,8.2h133c4.5,0,8.2-3.7,8.2-8.2v-46.6
					C674.4,265.3,670.7,261.6,666.2,261.6z M841.1,269.8v46.6c0,4.5,3.7,8.2,8.2,8.2h132.9c4.5,0,8.2-3.7,8.3-8.2v-46.6
					c0-4.5-3.7-8.2-8.2-8.2h-133C844.8,261.6,841.1,265.3,841.1,269.8z M833.4,551.5h-133c-4.5,0-8.2,3.7-8.2,8.2v46.6
					c0,4.5,3.7,8.2,8.2,8.2h133c4.5,0,8.2-3.7,8.2-8.2v-46.6C841.6,555.2,837.9,551.5,833.4,551.5z M580.3,249.5
					c4.5,0,8.2-3.7,8.2-8.2v-46.6c0-4.5-3.7-8.2-8.2-8.2h-133c-4.5,0-8.2,3.7-8.2,8.2v46.6c0,4.5,3.7,8.2,8.2,8.2L580.3,249.5
					L580.3,249.5z M530.5,467.8h133c4.5,0,8.2-3.7,8.2-8.2v-46.5c0-4.5-3.7-8.2-8.2-8.2h-133c-4.5,0-8.2,3.7-8.2,8.2v46.6
					C522.3,464.1,526,467.8,530.5,467.8z"/>
			</defs>
			<clipPath id="SVGID_10_">
				<use xlink:href="#SVGID_9_"  style="overflow:visible;"/>
			</clipPath>
		</g>
		<g>
			<defs>
				<path id="SVGID_11_" d="M824.1,323.2c4.5,0,8.2-3.7,8.2-8.2v-46.6c0-4.5-3.7-8.2-8.2-8.2h-133c-4.5,0-8.2,3.7-8.2,8.2V315
					c0,4.5,3.7,8.2,8.2,8.2H824.1z M741.9,252.7c4.5,0,8.2-3.7,8.2-8.2v-46.6c0-4.5-3.7-8.2-8.2-8.2h-133c-4.5,0-8.2,3.7-8.2,8.2
					v46.6c0,4.5,3.7,8.2,8.2,8.2L741.9,252.7L741.9,252.7z M901.6,249c4.5,0,8.2-3.7,8.2-8.2v-46.6c0-4.5-3.7-8.2-8.2-8.2h-133
					c-4.5,0-8.2,3.7-8.2,8.2v46.6c0,4.5,3.7,8.2,8.2,8.2L901.6,249L901.6,249z M679.4,603.3v-46.6c0-4.5-3.7-8.2-8.2-8.2h-133
					c-4.5,0-8.2,3.7-8.2,8.2v46.6c0,4.5,3.7,8.2,8.2,8.2h132.9C675.7,611.5,679.4,607.8,679.4,603.3z M750.3,530.9v-46.6
					c0-4.5-3.7-8.2-8.2-8.2h-133c-4.5,0-8.2,3.7-8.2,8.2v46.6c0,4.5,3.7,8.2,8.2,8.2H742C746.6,539.1,750.3,535.4,750.3,530.9z
					 M1001.2,603.3v-46.6c0-4.5-3.7-8.2-8.2-8.2H860c-4.5,0-8.2,3.7-8.2,8.2v46.6c0,4.5,3.7,8.2,8.2,8.2h132.9
					C997.5,611.5,1001.2,607.8,1001.2,603.3z M908,531.6v-46.5c0-4.5-3.7-8.2-8.2-8.2h-133c-4.5,0-8.2,3.7-8.2,8.2v46.6
					c0,4.5,3.7,8.2,8.2,8.2h132.9C904.2,539.9,907.9,536.2,908,531.6z M990.5,459v-46.6c0-4.5-3.7-8.2-8.2-8.2h-133
					c-4.5,0-8.2,3.7-8.2,8.2V459c0,4.5,3.7,8.2,8.2,8.2h132.9C986.7,467.2,990.4,463.5,990.5,459z M829.6,456.3v-46.6
					c0-4.5-3.7-8.2-8.2-8.2h-133c-4.5,0-8.2,3.7-8.2,8.2v46.6c0,4.5,3.7,8.2,8.2,8.2h133C825.9,464.5,829.6,460.8,829.6,456.3z
					 M448.3,344.1v46.6c0,4.5,3.7,8.2,8.2,8.2h133c4.5,0,8.2-3.7,8.2-8.2v-46.6c0-4.5-3.7-8.2-8.2-8.2h-133
					C452,335.9,448.3,339.6,448.3,344.1z M591.1,531.5v-46.6c0-4.5-3.7-8.2-8.2-8.2h-133c-4.5,0-8.2,3.7-8.2,8.2v46.6
					c0,4.5,3.7,8.2,8.2,8.2h132.9C587.4,539.7,591.1,536,591.1,531.5z M608.3,341.8v46.6c0,4.5,3.7,8.2,8.2,8.2h133
					c4.5,0,8.2-3.7,8.2-8.2v-46.6c0-4.5-3.7-8.2-8.2-8.2h-133C612,333.6,608.3,337.3,608.3,341.8z M766,341.8v46.6
					c0,4.5,3.7,8.2,8.2,8.2h133c4.5,0,8.2-3.7,8.2-8.2v-46.6c0-4.5-3.7-8.2-8.2-8.2h-133C769.7,333.6,766,337.3,766,341.8z
					 M666.2,261.6h-133c-4.5,0-8.2,3.7-8.2,8.2v46.6c0,4.5,3.7,8.2,8.2,8.2h133c4.5,0,8.2-3.7,8.2-8.2v-46.6
					C674.4,265.3,670.7,261.6,666.2,261.6z M841.1,269.8v46.6c0,4.5,3.7,8.2,8.2,8.2h132.9c4.5,0,8.2-3.7,8.3-8.2v-46.6
					c0-4.5-3.7-8.2-8.2-8.2h-133C844.8,261.6,841.1,265.3,841.1,269.8z M833.4,551.5h-133c-4.5,0-8.2,3.7-8.2,8.2v46.6
					c0,4.5,3.7,8.2,8.2,8.2h133c4.5,0,8.2-3.7,8.2-8.2v-46.6C841.6,555.2,837.9,551.5,833.4,551.5z M580.3,249.5
					c4.5,0,8.2-3.7,8.2-8.2v-46.6c0-4.5-3.7-8.2-8.2-8.2h-133c-4.5,0-8.2,3.7-8.2,8.2v46.6c0,4.5,3.7,8.2,8.2,8.2L580.3,249.5
					L580.3,249.5z M530.5,467.8h133c4.5,0,8.2-3.7,8.2-8.2v-46.5c0-4.5-3.7-8.2-8.2-8.2h-133c-4.5,0-8.2,3.7-8.2,8.2v46.6
					C522.3,464.1,526,467.8,530.5,467.8z"/>
			</defs>
			<clipPath id="SVGID_12_">
				<use xlink:href="#SVGID_11_"  style="overflow:visible;"/>
			</clipPath>
		</g>
		<g>
			<defs>
				<path id="SVGID_13_" d="M824.1,323.2c4.5,0,8.2-3.7,8.2-8.2v-46.6c0-4.5-3.7-8.2-8.2-8.2h-133c-4.5,0-8.2,3.7-8.2,8.2V315
					c0,4.5,3.7,8.2,8.2,8.2H824.1z M741.9,252.7c4.5,0,8.2-3.7,8.2-8.2v-46.6c0-4.5-3.7-8.2-8.2-8.2h-133c-4.5,0-8.2,3.7-8.2,8.2
					v46.6c0,4.5,3.7,8.2,8.2,8.2L741.9,252.7L741.9,252.7z M901.6,249c4.5,0,8.2-3.7,8.2-8.2v-46.6c0-4.5-3.7-8.2-8.2-8.2h-133
					c-4.5,0-8.2,3.7-8.2,8.2v46.6c0,4.5,3.7,8.2,8.2,8.2L901.6,249L901.6,249z M679.4,603.3v-46.6c0-4.5-3.7-8.2-8.2-8.2h-133
					c-4.5,0-8.2,3.7-8.2,8.2v46.6c0,4.5,3.7,8.2,8.2,8.2h132.9C675.7,611.5,679.4,607.8,679.4,603.3z M750.3,530.9v-46.6
					c0-4.5-3.7-8.2-8.2-8.2h-133c-4.5,0-8.2,3.7-8.2,8.2v46.6c0,4.5,3.7,8.2,8.2,8.2H742C746.6,539.1,750.3,535.4,750.3,530.9z
					 M1001.2,603.3v-46.6c0-4.5-3.7-8.2-8.2-8.2H860c-4.5,0-8.2,3.7-8.2,8.2v46.6c0,4.5,3.7,8.2,8.2,8.2h132.9
					C997.5,611.5,1001.2,607.8,1001.2,603.3z M908,531.6v-46.5c0-4.5-3.7-8.2-8.2-8.2h-133c-4.5,0-8.2,3.7-8.2,8.2v46.6
					c0,4.5,3.7,8.2,8.2,8.2h132.9C904.2,539.9,907.9,536.2,908,531.6z M990.5,459v-46.6c0-4.5-3.7-8.2-8.2-8.2h-133
					c-4.5,0-8.2,3.7-8.2,8.2V459c0,4.5,3.7,8.2,8.2,8.2h132.9C986.7,467.2,990.4,463.5,990.5,459z M829.6,456.3v-46.6
					c0-4.5-3.7-8.2-8.2-8.2h-133c-4.5,0-8.2,3.7-8.2,8.2v46.6c0,4.5,3.7,8.2,8.2,8.2h133C825.9,464.5,829.6,460.8,829.6,456.3z
					 M448.3,344.1v46.6c0,4.5,3.7,8.2,8.2,8.2h133c4.5,0,8.2-3.7,8.2-8.2v-46.6c0-4.5-3.7-8.2-8.2-8.2h-133
					C452,335.9,448.3,339.6,448.3,344.1z M591.1,531.5v-46.6c0-4.5-3.7-8.2-8.2-8.2h-133c-4.5,0-8.2,3.7-8.2,8.2v46.6
					c0,4.5,3.7,8.2,8.2,8.2h132.9C587.4,539.7,591.1,536,591.1,531.5z M608.3,341.8v46.6c0,4.5,3.7,8.2,8.2,8.2h133
					c4.5,0,8.2-3.7,8.2-8.2v-46.6c0-4.5-3.7-8.2-8.2-8.2h-133C612,333.6,608.3,337.3,608.3,341.8z M766,341.8v46.6
					c0,4.5,3.7,8.2,8.2,8.2h133c4.5,0,8.2-3.7,8.2-8.2v-46.6c0-4.5-3.7-8.2-8.2-8.2h-133C769.7,333.6,766,337.3,766,341.8z
					 M666.2,261.6h-133c-4.5,0-8.2,3.7-8.2,8.2v46.6c0,4.5,3.7,8.2,8.2,8.2h133c4.5,0,8.2-3.7,8.2-8.2v-46.6
					C674.4,265.3,670.7,261.6,666.2,261.6z M841.1,269.8v46.6c0,4.5,3.7,8.2,8.2,8.2h132.9c4.5,0,8.2-3.7,8.3-8.2v-46.6
					c0-4.5-3.7-8.2-8.2-8.2h-133C844.8,261.6,841.1,265.3,841.1,269.8z M833.4,551.5h-133c-4.5,0-8.2,3.7-8.2,8.2v46.6
					c0,4.5,3.7,8.2,8.2,8.2h133c4.5,0,8.2-3.7,8.2-8.2v-46.6C841.6,555.2,837.9,551.5,833.4,551.5z M580.3,249.5
					c4.5,0,8.2-3.7,8.2-8.2v-46.6c0-4.5-3.7-8.2-8.2-8.2h-133c-4.5,0-8.2,3.7-8.2,8.2v46.6c0,4.5,3.7,8.2,8.2,8.2L580.3,249.5
					L580.3,249.5z M530.5,467.8h133c4.5,0,8.2-3.7,8.2-8.2v-46.5c0-4.5-3.7-8.2-8.2-8.2h-133c-4.5,0-8.2,3.7-8.2,8.2v46.6
					C522.3,464.1,526,467.8,530.5,467.8z"/>
			</defs>
			<clipPath id="SVGID_14_">
				<use xlink:href="#SVGID_13_"  style="overflow:visible;"/>
			</clipPath>
			<path class="st2" d="M545.9,241.1c-4.2-9.3-8.6-18.4-13-27.8"/>
		</g>
		<g>
			<defs>
				<path id="SVGID_15_" d="M824.1,323.2c4.5,0,8.2-3.7,8.2-8.2v-46.6c0-4.5-3.7-8.2-8.2-8.2h-133c-4.5,0-8.2,3.7-8.2,8.2V315
					c0,4.5,3.7,8.2,8.2,8.2H824.1z M741.9,252.7c4.5,0,8.2-3.7,8.2-8.2v-46.6c0-4.5-3.7-8.2-8.2-8.2h-133c-4.5,0-8.2,3.7-8.2,8.2
					v46.6c0,4.5,3.7,8.2,8.2,8.2L741.9,252.7L741.9,252.7z M901.6,249c4.5,0,8.2-3.7,8.2-8.2v-46.6c0-4.5-3.7-8.2-8.2-8.2h-133
					c-4.5,0-8.2,3.7-8.2,8.2v46.6c0,4.5,3.7,8.2,8.2,8.2L901.6,249L901.6,249z M679.4,603.3v-46.6c0-4.5-3.7-8.2-8.2-8.2h-133
					c-4.5,0-8.2,3.7-8.2,8.2v46.6c0,4.5,3.7,8.2,8.2,8.2h132.9C675.7,611.5,679.4,607.8,679.4,603.3z M750.3,530.9v-46.6
					c0-4.5-3.7-8.2-8.2-8.2h-133c-4.5,0-8.2,3.7-8.2,8.2v46.6c0,4.5,3.7,8.2,8.2,8.2H742C746.6,539.1,750.3,535.4,750.3,530.9z
					 M1001.2,603.3v-46.6c0-4.5-3.7-8.2-8.2-8.2H860c-4.5,0-8.2,3.7-8.2,8.2v46.6c0,4.5,3.7,8.2,8.2,8.2h132.9
					C997.5,611.5,1001.2,607.8,1001.2,603.3z M908,531.6v-46.5c0-4.5-3.7-8.2-8.2-8.2h-133c-4.5,0-8.2,3.7-8.2,8.2v46.6
					c0,4.5,3.7,8.2,8.2,8.2h132.9C904.2,539.9,907.9,536.2,908,531.6z M990.5,459v-46.6c0-4.5-3.7-8.2-8.2-8.2h-133
					c-4.5,0-8.2,3.7-8.2,8.2V459c0,4.5,3.7,8.2,8.2,8.2h132.9C986.7,467.2,990.4,463.5,990.5,459z M829.6,456.3v-46.6
					c0-4.5-3.7-8.2-8.2-8.2h-133c-4.5,0-8.2,3.7-8.2,8.2v46.6c0,4.5,3.7,8.2,8.2,8.2h133C825.9,464.5,829.6,460.8,829.6,456.3z
					 M448.3,344.1v46.6c0,4.5,3.7,8.2,8.2,8.2h133c4.5,0,8.2-3.7,8.2-8.2v-46.6c0-4.5-3.7-8.2-8.2-8.2h-133
					C452,335.9,448.3,339.6,448.3,344.1z M591.1,531.5v-46.6c0-4.5-3.7-8.2-8.2-8.2h-133c-4.5,0-8.2,3.7-8.2,8.2v46.6
					c0,4.5,3.7,8.2,8.2,8.2h132.9C587.4,539.7,591.1,536,591.1,531.5z M608.3,341.8v46.6c0,4.5,3.7,8.2,8.2,8.2h133
					c4.5,0,8.2-3.7,8.2-8.2v-46.6c0-4.5-3.7-8.2-8.2-8.2h-133C612,333.6,608.3,337.3,608.3,341.8z M766,341.8v46.6
					c0,4.5,3.7,8.2,8.2,8.2h133c4.5,0,8.2-3.7,8.2-8.2v-46.6c0-4.5-3.7-8.2-8.2-8.2h-133C769.7,333.6,766,337.3,766,341.8z
					 M666.2,261.6h-133c-4.5,0-8.2,3.7-8.2,8.2v46.6c0,4.5,3.7,8.2,8.2,8.2h133c4.5,0,8.2-3.7,8.2-8.2v-46.6
					C674.4,265.3,670.7,261.6,666.2,261.6z M841.1,269.8v46.6c0,4.5,3.7,8.2,8.2,8.2h132.9c4.5,0,8.2-3.7,8.3-8.2v-46.6
					c0-4.5-3.7-8.2-8.2-8.2h-133C844.8,261.6,841.1,265.3,841.1,269.8z M833.4,551.5h-133c-4.5,0-8.2,3.7-8.2,8.2v46.6
					c0,4.5,3.7,8.2,8.2,8.2h133c4.5,0,8.2-3.7,8.2-8.2v-46.6C841.6,555.2,837.9,551.5,833.4,551.5z M580.3,249.5
					c4.5,0,8.2-3.7,8.2-8.2v-46.6c0-4.5-3.7-8.2-8.2-8.2h-133c-4.5,0-8.2,3.7-8.2,8.2v46.6c0,4.5,3.7,8.2,8.2,8.2L580.3,249.5
					L580.3,249.5z M530.5,467.8h133c4.5,0,8.2-3.7,8.2-8.2v-46.5c0-4.5-3.7-8.2-8.2-8.2h-133c-4.5,0-8.2,3.7-8.2,8.2v46.6
					C522.3,464.1,526,467.8,530.5,467.8z"/>
			</defs>
			<clipPath id="SVGID_16_">
				<use xlink:href="#SVGID_15_"  style="overflow:visible;"/>
			</clipPath>
			<path class="st3" d="M572.9,252c0.7-10.2,1.2-20.3,1.8-30.6"/>
		</g>
		<g>
			<defs>
				<path id="SVGID_17_" d="M824.1,323.2c4.5,0,8.2-3.7,8.2-8.2v-46.6c0-4.5-3.7-8.2-8.2-8.2h-133c-4.5,0-8.2,3.7-8.2,8.2V315
					c0,4.5,3.7,8.2,8.2,8.2H824.1z M741.9,252.7c4.5,0,8.2-3.7,8.2-8.2v-46.6c0-4.5-3.7-8.2-8.2-8.2h-133c-4.5,0-8.2,3.7-8.2,8.2
					v46.6c0,4.5,3.7,8.2,8.2,8.2L741.9,252.7L741.9,252.7z M901.6,249c4.5,0,8.2-3.7,8.2-8.2v-46.6c0-4.5-3.7-8.2-8.2-8.2h-133
					c-4.5,0-8.2,3.7-8.2,8.2v46.6c0,4.5,3.7,8.2,8.2,8.2L901.6,249L901.6,249z M679.4,603.3v-46.6c0-4.5-3.7-8.2-8.2-8.2h-133
					c-4.5,0-8.2,3.7-8.2,8.2v46.6c0,4.5,3.7,8.2,8.2,8.2h132.9C675.7,611.5,679.4,607.8,679.4,603.3z M750.3,530.9v-46.6
					c0-4.5-3.7-8.2-8.2-8.2h-133c-4.5,0-8.2,3.7-8.2,8.2v46.6c0,4.5,3.7,8.2,8.2,8.2H742C746.6,539.1,750.3,535.4,750.3,530.9z
					 M1001.2,603.3v-46.6c0-4.5-3.7-8.2-8.2-8.2H860c-4.5,0-8.2,3.7-8.2,8.2v46.6c0,4.5,3.7,8.2,8.2,8.2h132.9
					C997.5,611.5,1001.2,607.8,1001.2,603.3z M908,531.6v-46.5c0-4.5-3.7-8.2-8.2-8.2h-133c-4.5,0-8.2,3.7-8.2,8.2v46.6
					c0,4.5,3.7,8.2,8.2,8.2h132.9C904.2,539.9,907.9,536.2,908,531.6z M990.5,459v-46.6c0-4.5-3.7-8.2-8.2-8.2h-133
					c-4.5,0-8.2,3.7-8.2,8.2V459c0,4.5,3.7,8.2,8.2,8.2h132.9C986.7,467.2,990.4,463.5,990.5,459z M829.6,456.3v-46.6
					c0-4.5-3.7-8.2-8.2-8.2h-133c-4.5,0-8.2,3.7-8.2,8.2v46.6c0,4.5,3.7,8.2,8.2,8.2h133C825.9,464.5,829.6,460.8,829.6,456.3z
					 M448.3,344.1v46.6c0,4.5,3.7,8.2,8.2,8.2h133c4.5,0,8.2-3.7,8.2-8.2v-46.6c0-4.5-3.7-8.2-8.2-8.2h-133
					C452,335.9,448.3,339.6,448.3,344.1z M591.1,531.5v-46.6c0-4.5-3.7-8.2-8.2-8.2h-133c-4.5,0-8.2,3.7-8.2,8.2v46.6
					c0,4.5,3.7,8.2,8.2,8.2h132.9C587.4,539.7,591.1,536,591.1,531.5z M608.3,341.8v46.6c0,4.5,3.7,8.2,8.2,8.2h133
					c4.5,0,8.2-3.7,8.2-8.2v-46.6c0-4.5-3.7-8.2-8.2-8.2h-133C612,333.6,608.3,337.3,608.3,341.8z M766,341.8v46.6
					c0,4.5,3.7,8.2,8.2,8.2h133c4.5,0,8.2-3.7,8.2-8.2v-46.6c0-4.5-3.7-8.2-8.2-8.2h-133C769.7,333.6,766,337.3,766,341.8z
					 M666.2,261.6h-133c-4.5,0-8.2,3.7-8.2,8.2v46.6c0,4.5,3.7,8.2,8.2,8.2h133c4.5,0,8.2-3.7,8.2-8.2v-46.6
					C674.4,265.3,670.7,261.6,666.2,261.6z M841.1,269.8v46.6c0,4.5,3.7,8.2,8.2,8.2h132.9c4.5,0,8.2-3.7,8.3-8.2v-46.6
					c0-4.5-3.7-8.2-8.2-8.2h-133C844.8,261.6,841.1,265.3,841.1,269.8z M833.4,551.5h-133c-4.5,0-8.2,3.7-8.2,8.2v46.6
					c0,4.5,3.7,8.2,8.2,8.2h133c4.5,0,8.2-3.7,8.2-8.2v-46.6C841.6,555.2,837.9,551.5,833.4,551.5z M580.3,249.5
					c4.5,0,8.2-3.7,8.2-8.2v-46.6c0-4.5-3.7-8.2-8.2-8.2h-133c-4.5,0-8.2,3.7-8.2,8.2v46.6c0,4.5,3.7,8.2,8.2,8.2L580.3,249.5
					L580.3,249.5z M530.5,467.8h133c4.5,0,8.2-3.7,8.2-8.2v-46.5c0-4.5-3.7-8.2-8.2-8.2h-133c-4.5,0-8.2,3.7-8.2,8.2v46.6
					C522.3,464.1,526,467.8,530.5,467.8z"/>
			</defs>
			<clipPath id="SVGID_18_">
				<use xlink:href="#SVGID_17_"  style="overflow:visible;"/>
			</clipPath>
			<path class="st4" d="M518.1,253.3c-6.5-6-13.2-11.9-19.7-17.9"/>
		</g>
		<g>
			<defs>
				<path id="SVGID_19_" d="M824.1,323.2c4.5,0,8.2-3.7,8.2-8.2v-46.6c0-4.5-3.7-8.2-8.2-8.2h-133c-4.5,0-8.2,3.7-8.2,8.2V315
					c0,4.5,3.7,8.2,8.2,8.2H824.1z M741.9,252.7c4.5,0,8.2-3.7,8.2-8.2v-46.6c0-4.5-3.7-8.2-8.2-8.2h-133c-4.5,0-8.2,3.7-8.2,8.2
					v46.6c0,4.5,3.7,8.2,8.2,8.2L741.9,252.7L741.9,252.7z M901.6,249c4.5,0,8.2-3.7,8.2-8.2v-46.6c0-4.5-3.7-8.2-8.2-8.2h-133
					c-4.5,0-8.2,3.7-8.2,8.2v46.6c0,4.5,3.7,8.2,8.2,8.2L901.6,249L901.6,249z M679.4,603.3v-46.6c0-4.5-3.7-8.2-8.2-8.2h-133
					c-4.5,0-8.2,3.7-8.2,8.2v46.6c0,4.5,3.7,8.2,8.2,8.2h132.9C675.7,611.5,679.4,607.8,679.4,603.3z M750.3,530.9v-46.6
					c0-4.5-3.7-8.2-8.2-8.2h-133c-4.5,0-8.2,3.7-8.2,8.2v46.6c0,4.5,3.7,8.2,8.2,8.2H742C746.6,539.1,750.3,535.4,750.3,530.9z
					 M1001.2,603.3v-46.6c0-4.5-3.7-8.2-8.2-8.2H860c-4.5,0-8.2,3.7-8.2,8.2v46.6c0,4.5,3.7,8.2,8.2,8.2h132.9
					C997.5,611.5,1001.2,607.8,1001.2,603.3z M908,531.6v-46.5c0-4.5-3.7-8.2-8.2-8.2h-133c-4.5,0-8.2,3.7-8.2,8.2v46.6
					c0,4.5,3.7,8.2,8.2,8.2h132.9C904.2,539.9,907.9,536.2,908,531.6z M990.5,459v-46.6c0-4.5-3.7-8.2-8.2-8.2h-133
					c-4.5,0-8.2,3.7-8.2,8.2V459c0,4.5,3.7,8.2,8.2,8.2h132.9C986.7,467.2,990.4,463.5,990.5,459z M829.6,456.3v-46.6
					c0-4.5-3.7-8.2-8.2-8.2h-133c-4.5,0-8.2,3.7-8.2,8.2v46.6c0,4.5,3.7,8.2,8.2,8.2h133C825.9,464.5,829.6,460.8,829.6,456.3z
					 M448.3,344.1v46.6c0,4.5,3.7,8.2,8.2,8.2h133c4.5,0,8.2-3.7,8.2-8.2v-46.6c0-4.5-3.7-8.2-8.2-8.2h-133
					C452,335.9,448.3,339.6,448.3,344.1z M591.1,531.5v-46.6c0-4.5-3.7-8.2-8.2-8.2h-133c-4.5,0-8.2,3.7-8.2,8.2v46.6
					c0,4.5,3.7,8.2,8.2,8.2h132.9C587.4,539.7,591.1,536,591.1,531.5z M608.3,341.8v46.6c0,4.5,3.7,8.2,8.2,8.2h133
					c4.5,0,8.2-3.7,8.2-8.2v-46.6c0-4.5-3.7-8.2-8.2-8.2h-133C612,333.6,608.3,337.3,608.3,341.8z M766,341.8v46.6
					c0,4.5,3.7,8.2,8.2,8.2h133c4.5,0,8.2-3.7,8.2-8.2v-46.6c0-4.5-3.7-8.2-8.2-8.2h-133C769.7,333.6,766,337.3,766,341.8z
					 M666.2,261.6h-133c-4.5,0-8.2,3.7-8.2,8.2v46.6c0,4.5,3.7,8.2,8.2,8.2h133c4.5,0,8.2-3.7,8.2-8.2v-46.6
					C674.4,265.3,670.7,261.6,666.2,261.6z M841.1,269.8v46.6c0,4.5,3.7,8.2,8.2,8.2h132.9c4.5,0,8.2-3.7,8.3-8.2v-46.6
					c0-4.5-3.7-8.2-8.2-8.2h-133C844.8,261.6,841.1,265.3,841.1,269.8z M833.4,551.5h-133c-4.5,0-8.2,3.7-8.2,8.2v46.6
					c0,4.5,3.7,8.2,8.2,8.2h133c4.5,0,8.2-3.7,8.2-8.2v-46.6C841.6,555.2,837.9,551.5,833.4,551.5z M580.3,249.5
					c4.5,0,8.2-3.7,8.2-8.2v-46.6c0-4.5-3.7-8.2-8.2-8.2h-133c-4.5,0-8.2,3.7-8.2,8.2v46.6c0,4.5,3.7,8.2,8.2,8.2L580.3,249.5
					L580.3,249.5z M530.5,467.8h133c4.5,0,8.2-3.7,8.2-8.2v-46.5c0-4.5-3.7-8.2-8.2-8.2h-133c-4.5,0-8.2,3.7-8.2,8.2v46.6
					C522.3,464.1,526,467.8,530.5,467.8z"/>
			</defs>
			<clipPath id="SVGID_20_">
				<use xlink:href="#SVGID_19_"  style="overflow:visible;"/>
			</clipPath>
			<path class="st5" d="M865.2,550.2c9,7.3,18,14.5,26.9,21.8"/>
		</g>
		<g>
			<defs>
				<path id="SVGID_21_" d="M824.1,323.2c4.5,0,8.2-3.7,8.2-8.2v-46.6c0-4.5-3.7-8.2-8.2-8.2h-133c-4.5,0-8.2,3.7-8.2,8.2V315
					c0,4.5,3.7,8.2,8.2,8.2H824.1z M741.9,252.7c4.5,0,8.2-3.7,8.2-8.2v-46.6c0-4.5-3.7-8.2-8.2-8.2h-133c-4.5,0-8.2,3.7-8.2,8.2
					v46.6c0,4.5,3.7,8.2,8.2,8.2L741.9,252.7L741.9,252.7z M901.6,249c4.5,0,8.2-3.7,8.2-8.2v-46.6c0-4.5-3.7-8.2-8.2-8.2h-133
					c-4.5,0-8.2,3.7-8.2,8.2v46.6c0,4.5,3.7,8.2,8.2,8.2L901.6,249L901.6,249z M679.4,603.3v-46.6c0-4.5-3.7-8.2-8.2-8.2h-133
					c-4.5,0-8.2,3.7-8.2,8.2v46.6c0,4.5,3.7,8.2,8.2,8.2h132.9C675.7,611.5,679.4,607.8,679.4,603.3z M750.3,530.9v-46.6
					c0-4.5-3.7-8.2-8.2-8.2h-133c-4.5,0-8.2,3.7-8.2,8.2v46.6c0,4.5,3.7,8.2,8.2,8.2H742C746.6,539.1,750.3,535.4,750.3,530.9z
					 M1001.2,603.3v-46.6c0-4.5-3.7-8.2-8.2-8.2H860c-4.5,0-8.2,3.7-8.2,8.2v46.6c0,4.5,3.7,8.2,8.2,8.2h132.9
					C997.5,611.5,1001.2,607.8,1001.2,603.3z M908,531.6v-46.5c0-4.5-3.7-8.2-8.2-8.2h-133c-4.5,0-8.2,3.7-8.2,8.2v46.6
					c0,4.5,3.7,8.2,8.2,8.2h132.9C904.2,539.9,907.9,536.2,908,531.6z M990.5,459v-46.6c0-4.5-3.7-8.2-8.2-8.2h-133
					c-4.5,0-8.2,3.7-8.2,8.2V459c0,4.5,3.7,8.2,8.2,8.2h132.9C986.7,467.2,990.4,463.5,990.5,459z M829.6,456.3v-46.6
					c0-4.5-3.7-8.2-8.2-8.2h-133c-4.5,0-8.2,3.7-8.2,8.2v46.6c0,4.5,3.7,8.2,8.2,8.2h133C825.9,464.5,829.6,460.8,829.6,456.3z
					 M448.3,344.1v46.6c0,4.5,3.7,8.2,8.2,8.2h133c4.5,0,8.2-3.7,8.2-8.2v-46.6c0-4.5-3.7-8.2-8.2-8.2h-133
					C452,335.9,448.3,339.6,448.3,344.1z M591.1,531.5v-46.6c0-4.5-3.7-8.2-8.2-8.2h-133c-4.5,0-8.2,3.7-8.2,8.2v46.6
					c0,4.5,3.7,8.2,8.2,8.2h132.9C587.4,539.7,591.1,536,591.1,531.5z M608.3,341.8v46.6c0,4.5,3.7,8.2,8.2,8.2h133
					c4.5,0,8.2-3.7,8.2-8.2v-46.6c0-4.5-3.7-8.2-8.2-8.2h-133C612,333.6,608.3,337.3,608.3,341.8z M766,341.8v46.6
					c0,4.5,3.7,8.2,8.2,8.2h133c4.5,0,8.2-3.7,8.2-8.2v-46.6c0-4.5-3.7-8.2-8.2-8.2h-133C769.7,333.6,766,337.3,766,341.8z
					 M666.2,261.6h-133c-4.5,0-8.2,3.7-8.2,8.2v46.6c0,4.5,3.7,8.2,8.2,8.2h133c4.5,0,8.2-3.7,8.2-8.2v-46.6
					C674.4,265.3,670.7,261.6,666.2,261.6z M841.1,269.8v46.6c0,4.5,3.7,8.2,8.2,8.2h132.9c4.5,0,8.2-3.7,8.3-8.2v-46.6
					c0-4.5-3.7-8.2-8.2-8.2h-133C844.8,261.6,841.1,265.3,841.1,269.8z M833.4,551.5h-133c-4.5,0-8.2,3.7-8.2,8.2v46.6
					c0,4.5,3.7,8.2,8.2,8.2h133c4.5,0,8.2-3.7,8.2-8.2v-46.6C841.6,555.2,837.9,551.5,833.4,551.5z M580.3,249.5
					c4.5,0,8.2-3.7,8.2-8.2v-46.6c0-4.5-3.7-8.2-8.2-8.2h-133c-4.5,0-8.2,3.7-8.2,8.2v46.6c0,4.5,3.7,8.2,8.2,8.2L580.3,249.5
					L580.3,249.5z M530.5,467.8h133c4.5,0,8.2-3.7,8.2-8.2v-46.5c0-4.5-3.7-8.2-8.2-8.2h-133c-4.5,0-8.2,3.7-8.2,8.2v46.6
					C522.3,464.1,526,467.8,530.5,467.8z"/>
			</defs>
			<clipPath id="SVGID_22_">
				<use xlink:href="#SVGID_21_"  style="overflow:visible;"/>
			</clipPath>
			<path class="st6" d="M885.6,529.8c7.7,8.9,15.5,17.9,23.2,26.8"/>
		</g>
	</g>
</g>
</svg>
