<svg id="b726a4e1-3327-4ab7-ad7d-a6fcf6372965" data-name="Calque 1" xmlns="http://www.w3.org/2000/svg" width="754.49" height="491.92" viewBox="0 0 754.49 491.92"><defs><style>.\32 e9f9e59-841d-4b47-9171-f9f2bbca52ae,.\36 615cbb3-5fc9-4cc8-908b-f77effdefef0{fill:#fff;}.\32 1ca1802-0766-4c00-87fb-4091de5f893d,.\36 615cbb3-5fc9-4cc8-908b-f77effdefef0,.cb874ef1-e228-46eb-9d91-b3cbac0854d8{stroke:#000;}.\32 e9f9e59-841d-4b47-9171-f9f2bbca52ae,.\36 615cbb3-5fc9-4cc8-908b-f77effdefef0,.cb874ef1-e228-46eb-9d91-b3cbac0854d8{stroke-miterlimit:10;}.\32 e9f9e59-841d-4b47-9171-f9f2bbca52ae{stroke:#fff;}.\32 1ca1802-0766-4c00-87fb-4091de5f893d{fill:none;stroke-linecap:round;stroke-linejoin:round;}</style></defs><title>coconut</title><path d="M468,562.9c-.4,26.4,72.9,45.4,94.9,54.4,28.9,11.8,85.6,13.6,116.2,19.2,41.1,7.5,59-15,99.9-7.1,59.5,11.6,135.8,12.5,187.5-24.7,24.6-17.7,37.7-25.1,67.8-31.7,40.6-8.8,125-4.3,131-60.2,2.2-20.3-11.7-49.1-33.5-53.6-10.2-2.1-20.7-.2-31.1-2.9-12.3-3.2-26-8.3-38.4-12.8-14.4-5.2-28.9-3.2-43.9-5.5-27.4-4.2-54.6-8.1-81.9-11.9-22.7-3.2-44.4-6.5-67.4-4.6-39.2,3.3-80,5.1-116.7,20.6-32.2,13.6-61.6,40.6-97,44.8-31.7,3.7-66.7,2.4-97.7,8.8-28.6,6-60.1,8-87.9,17.9Z" transform="translate(-411.03 -146.14)"/><path class="6615cbb3-5fc9-4cc8-908b-f77effdefef0" d="M415.9,284.9c-4.9,6.3-3.6,17.4-3.1,24.6a251.62,251.62,0,0,1,.2,30.1c-1.1,22.4-3.9,44,3.3,65.7,14.5,43.7,39.6,167.1,201.8,185.4,59.5,6.7,121.1-30.7,160.7-70.7,88.2-89.1,81.3-160.9,77.7-195l-.6-2c1.3,41.8-12,85.4-45.4,113.5-57.5,48.3-125.1,73.8-197.8,60.9-32-5.7-80.9-12.1-107.1-29.3C454,434.3,431,354.6,418,304.7Z" transform="translate(-411.03 -146.14)"/><path class="2e9f9e59-841d-4b47-9171-f9f2bbca52ae" d="M662.9,160.5c-42.8-.7-85.8,5.7-123.7,23.9-21.3,10.2-54.1,36.6-73.6,50.8-24,17.5-34.8,45.5-27.9,72.1,12,46.4,33.4,120.4,81.4,151.8,24.3,15.9,69.8,21.9,99.5,27.2,67.6,12,130.5-11.7,183.9-56.6,50.7-42.6,53.1-118.8,24.3-174.3S732,161.7,662.9,160.5Zm36.2,74.1c11,7.2,24.3,12.3,34.9,19.6,10,6.9,17.6,19,24.2,28.6,7.4,10.9,6.9,16.9,2.9,28.6-3.5,10.4-9.4,23.1-9.9,33.7-.3,8,1.4,9.9-2.2,16.7-1.9,3.7-4.5,7.3-6.7,10.9-2.6,4.1-5.1,11-10.1,12.9-4.3,1.7-13.1-.1-17.9-.2a154.91,154.91,0,0,0-34,3.2c-12.7,2.6-25.2,3.5-34.5,12.5-3.8,3.6-4.1,6.3-9.2,7.7-3.5,1-12.1-.9-16.1-1.2-15.5-1.1-18.8-2.7-27.9-13.5-6.2-7.4-12.2-14.8-17.8-22.7-7.4-10.4-11.3-11.4-22.6-16.7-10.6-5-8.6-13.5-10.3-23.5-3-17.3-8.4-28.4-19.9-42.4,0,0,13.7-16.3,23.8-22.2,11.1-6.4,18.3-18.2,28.6-24.4s36.5-3,49.1-3.6c9.9-.5,6.1-.8,11.9-4.9,2.1-1.5,1.8-3.3,4.9-4.8,4.3-2.1,15-.4,19.7-.9,5.5-.5,16.7-5.5,21.4-4.7S695.2,232,699.1,234.6Z" transform="translate(-411.03 -146.14)"/><path class="6615cbb3-5fc9-4cc8-908b-f77effdefef0" d="M522.1,289c11.4,14,16.9,25.1,19.9,42.4,1.7,10-.3,18.5,10.3,23.5,11.3,5.3,15.2,6.4,22.6,16.7,5.6,7.9,11.6,15.2,17.8,22.7,9.1,10.8,12.4,12.4,27.9,13.5,4,.3,12.6,2.2,16.1,1.2,5.1-1.4,5.5-4.1,9.2-7.7,9.3-8.9,21.9-9.9,34.5-12.5a154.91,154.91,0,0,1,34-3.2c4.7,0,13.6,1.8,17.9.2,5-1.9,7.5-8.8,10.1-12.9,2.2-3.6,4.8-7.2,6.7-10.9,3.5-6.8,1.9-8.7,2.2-16.7.4-10.6,6.3-23.3,9.9-33.7,4-11.7,4.5-17.7-2.9-28.6-6.6-9.6-14.2-21.7-24.2-28.6-10.6-7.4-23.9-12.4-34.9-19.6-3.9-2.6-13-10.5-17.5-11.3-4.7-.8-15.9,4.2-21.4,4.7-4.7.4-15.5-1.2-19.7.9-3.1,1.5-2.9,3.4-4.9,4.8-5.8,4.1-2,4.4-11.9,4.9-12.6.6-38.9-2.5-49.1,3.6s-17.5,18-28.6,24.4C535.8,272.7,522.1,289,522.1,289Z" transform="translate(-411.03 -146.14)"/><path class="cb874ef1-e228-46eb-9d91-b3cbac0854d8" d="M659.8,146.7c-46.1-.8-92.3,6.1-133.1,25.7-22.9,11-58.2,39.3-79.2,54.6-25.8,18.8-37.4,49-30,77.6,13,49.9,36,129.5,87.5,163.3,26.1,17.1,75.1,23.6,107.1,29.3,72.7,12.9,140.3-12.6,197.8-60.9,54.5-45.8,57.1-127.8,26.2-187.5S734.1,148,659.8,146.7ZM826.7,255.6c28.8,55.5,26.3,131.7-24.3,174.3-53.4,44.9-116.3,68.6-183.9,56.6-29.7-5.3-75.2-11.3-99.5-27.2-47.9-31.4-69.3-105.5-81.4-151.8-6.9-26.6,3.9-54.6,27.9-72.1,19.5-14.2,52.3-40.6,73.6-50.8,38-18.2,80.9-24.6,123.7-23.9C731.9,161.8,797.9,200,826.7,255.6Z" transform="translate(-411.03 -146.14)"/><path class="21ca1802-0766-4c00-87fb-4091de5f893d" d="M432.3,376.1c2.7-5.5,3.9-11.7,6.6-17.3" transform="translate(-411.03 -146.14)"/><path class="21ca1802-0766-4c00-87fb-4091de5f893d" d="M434.5,428c5.9-7.7,5.5-17.4,6.4-26.2" transform="translate(-411.03 -146.14)"/><path class="21ca1802-0766-4c00-87fb-4091de5f893d" d="M455.1,405.7c.8-6.5,3.1-13.2,2.6-20.2" transform="translate(-411.03 -146.14)"/><path class="21ca1802-0766-4c00-87fb-4091de5f893d" d="M449.1,454.6c3.1-3.4,6.2-14,7-20.1" transform="translate(-411.03 -146.14)"/><path class="21ca1802-0766-4c00-87fb-4091de5f893d" d="M472.9,457.3c2.8-7.6,4-16.5,7.1-23.9" transform="translate(-411.03 -146.14)"/><path class="21ca1802-0766-4c00-87fb-4091de5f893d" d="M460.5,497.1c2-8.6,8.1-15.8,10.4-24.2" transform="translate(-411.03 -146.14)"/><path class="21ca1802-0766-4c00-87fb-4091de5f893d" d="M489.5,485.8c3.7-9.2,1.3-19.8,4.7-29" transform="translate(-411.03 -146.14)"/><path class="21ca1802-0766-4c00-87fb-4091de5f893d" d="M488.8,522.6a31.61,31.61,0,0,0,17.5-22.8" transform="translate(-411.03 -146.14)"/><path class="21ca1802-0766-4c00-87fb-4091de5f893d" d="M523,506.9c.9-8.8,4-17.9,2.5-27.1" transform="translate(-411.03 -146.14)"/><path class="21ca1802-0766-4c00-87fb-4091de5f893d" d="M529.3,541.2c4.1-6.6,9-12.9,10.5-20.4" transform="translate(-411.03 -146.14)"/><path class="21ca1802-0766-4c00-87fb-4091de5f893d" d="M557,525.3a48,48,0,0,0,7.2-25.8" transform="translate(-411.03 -146.14)"/><path class="21ca1802-0766-4c00-87fb-4091de5f893d" d="M552.4,571.9c4.6-7.9,6.8-17,9.4-25.8" transform="translate(-411.03 -146.14)"/><path class="21ca1802-0766-4c00-87fb-4091de5f893d" d="M580.5,544.5c2.8-1.3,8.1-16.6,10.1-21.5" transform="translate(-411.03 -146.14)"/><path class="21ca1802-0766-4c00-87fb-4091de5f893d" d="M611.7,517.5c5.1-6.6,4.1-15.9,2.3-23.3" transform="translate(-411.03 -146.14)"/><path class="21ca1802-0766-4c00-87fb-4091de5f893d" d="M588.8,575.8c4.1-6.6,11.5-14.6,10.5-22.3" transform="translate(-411.03 -146.14)"/><path class="21ca1802-0766-4c00-87fb-4091de5f893d" d="M620.7,551.2c.1-7.6,6.3-13.8,5.7-21.7" transform="translate(-411.03 -146.14)"/><path class="21ca1802-0766-4c00-87fb-4091de5f893d" d="M631.6,581.8c3.9-7.4,7.5-13.5,10.9-21.1" transform="translate(-411.03 -146.14)"/><path class="21ca1802-0766-4c00-87fb-4091de5f893d" d="M650.2,543c1-7.7,8.1-18,3.7-25.6" transform="translate(-411.03 -146.14)"/><path class="21ca1802-0766-4c00-87fb-4091de5f893d" d="M641.2,509.3c-.1-4.1.1-12.8-1.8-18.5" transform="translate(-411.03 -146.14)"/><path class="21ca1802-0766-4c00-87fb-4091de5f893d" d="M668.2,519.4c5.4-3.7,11.1-13.7,7-20.1" transform="translate(-411.03 -146.14)"/><path class="21ca1802-0766-4c00-87fb-4091de5f893d" d="M676.8,553.8c6.8-4.9,6.8-16.2,6.7-23.2" transform="translate(-411.03 -146.14)"/><path class="21ca1802-0766-4c00-87fb-4091de5f893d" d="M689.3,574.6c6.8-5.4,16.5-13.2,14.9-22.1" transform="translate(-411.03 -146.14)"/><path class="21ca1802-0766-4c00-87fb-4091de5f893d" d="M658.3,588.9c-1.3.2-1.3.9-2.4.7.9-5.8,4.9-11.5,5.3-17.8" transform="translate(-411.03 -146.14)"/><path class="21ca1802-0766-4c00-87fb-4091de5f893d" d="M712,532.8c1.3-5.5,1.3-16.3-.8-21.9" transform="translate(-411.03 -146.14)"/><path class="21ca1802-0766-4c00-87fb-4091de5f893d" d="M726.2,506.4c-4.2-3.2-5.4-16.3-7.3-22.1" transform="translate(-411.03 -146.14)"/><path class="21ca1802-0766-4c00-87fb-4091de5f893d" d="M730.5,549.5c-.3-6,2.6-12.7,3-19.1" transform="translate(-411.03 -146.14)"/><path class="21ca1802-0766-4c00-87fb-4091de5f893d" d="M759.1,540.9c-1.5-7.3,3.8-15.8,3.6-23.6" transform="translate(-411.03 -146.14)"/><path class="21ca1802-0766-4c00-87fb-4091de5f893d" d="M753.5,508.8c1.3-4.6,2.8-13.1,1.7-18.7" transform="translate(-411.03 -146.14)"/><path class="21ca1802-0766-4c00-87fb-4091de5f893d" d="M775.3,479.3c2-2.8-.4-10.5-3.3-14.3" transform="translate(-411.03 -146.14)"/><path class="21ca1802-0766-4c00-87fb-4091de5f893d" d="M781.8,518.6c3.3-8.2,4.5-16.5-1.6-24.2" transform="translate(-411.03 -146.14)"/><path class="21ca1802-0766-4c00-87fb-4091de5f893d" d="M803.1,489.8c-.3-5.4-1-11.2-6.3-14.8" transform="translate(-411.03 -146.14)"/><path class="21ca1802-0766-4c00-87fb-4091de5f893d" d="M810.4,462.1a24.19,24.19,0,0,0-5.9-15.5" transform="translate(-411.03 -146.14)"/><path class="21ca1802-0766-4c00-87fb-4091de5f893d" d="M827.6,477.2c4.1-7-1.1-16.4-2.9-23.9" transform="translate(-411.03 -146.14)"/><path class="21ca1802-0766-4c00-87fb-4091de5f893d" d="M835.4,438c4.1-5.6-.5-13.9-5.3-18.2" transform="translate(-411.03 -146.14)"/><path class="21ca1802-0766-4c00-87fb-4091de5f893d" d="M856,418.6c-3.4-5-7.4-15.1-12.7-18.8" transform="translate(-411.03 -146.14)"/><path class="21ca1802-0766-4c00-87fb-4091de5f893d" d="M419.8,349.6c2.5-7.2,6.3-13.2,7.5-21" transform="translate(-411.03 -146.14)"/><path class="21ca1802-0766-4c00-87fb-4091de5f893d" d="M424.4,396.2c-.7,6.7-5.5,13.2-6.7,20" transform="translate(-411.03 -146.14)"/></svg>