<svg id="607fb22b-41dc-4535-916f-3832f8eec69b" data-name="Calque 1" xmlns="http://www.w3.org/2000/svg" xmlns:xlink="http://www.w3.org/1999/xlink" width="1083.5" height="580.4" viewBox="0 0 1083.5 580.4"><defs><style>.\30 ec43cfb-79b2-4433-a677-fd4d05bb8466,.\31 428d3ba-fdcb-48d3-8539-843896715ea9,.\31 6352275-86ee-47d7-9684-bad02be6bd7a,.\33 5550eca-83c0-49f5-8f08-ff394e8d98f5,.\35 1831f7b-7116-432b-80f9-57b2cacd7f04,.\35 fa9d88a-ef86-4e63-8886-a638bb77ba83,.\36 396a1a4-e425-4a23-b1bd-9cf37c7e1d62,.aa44d2cb-e1ce-4e82-adcd-5f95137bcbbe,.b13eb28e-8eb1-4f55-a78e-3f0d2013a69b,.b47cdb6e-2060-418c-81ab-40911ffb3322,.bcbd7b23-edb3-4724-855d-1ccbe95e8d6a,.d4c11d70-a408-4b8a-98a5-521b61c18c32,.d810dd42-0e20-473c-9014-1fe2104569a9,.e0e5bac7-efc6-4697-861e-3c688cffcf8a{fill:none;}.\34 f2a7a88-1920-4bf5-89d8-fa2a30b2d679,.\39 4da3028-e9ab-4a68-ad85-fa5105f437c1,.ad27cf28-b647-4dd4-8594-c11786034e8d,.ed9ee7e2-9db9-4e37-9f30-f7f7543a4750{fill:#fff;}.ed9ee7e2-9db9-4e37-9f30-f7f7543a4750{stroke:#1d1d1b;}.\30 ec43cfb-79b2-4433-a677-fd4d05bb8466,.\31 6352275-86ee-47d7-9684-bad02be6bd7a,.\33 5550eca-83c0-49f5-8f08-ff394e8d98f5,.\35 1831f7b-7116-432b-80f9-57b2cacd7f04,.\35 fa9d88a-ef86-4e63-8886-a638bb77ba83,.\36 396a1a4-e425-4a23-b1bd-9cf37c7e1d62,.\39 43aeb04-25b9-464d-8a80-80e76e913354,.\39 4da3028-e9ab-4a68-ad85-fa5105f437c1,.b47cdb6e-2060-418c-81ab-40911ffb3322,.bcbd7b23-edb3-4724-855d-1ccbe95e8d6a,.d4c11d70-a408-4b8a-98a5-521b61c18c32,.d810dd42-0e20-473c-9014-1fe2104569a9,.e0e5bac7-efc6-4697-861e-3c688cffcf8a,.ed9ee7e2-9db9-4e37-9f30-f7f7543a4750{stroke-miterlimit:10;}.\30 ec43cfb-79b2-4433-a677-fd4d05bb8466,.\31 6352275-86ee-47d7-9684-bad02be6bd7a,.\33 5550eca-83c0-49f5-8f08-ff394e8d98f5,.\35 1831f7b-7116-432b-80f9-57b2cacd7f04,.\39 4da3028-e9ab-4a68-ad85-fa5105f437c1,.aa44d2cb-e1ce-4e82-adcd-5f95137bcbbe,.b47cdb6e-2060-418c-81ab-40911ffb3322,.d4c11d70-a408-4b8a-98a5-521b61c18c32{stroke:#000;}.\31 6352275-86ee-47d7-9684-bad02be6bd7a,.d810dd42-0e20-473c-9014-1fe2104569a9{stroke-width:0.73px;}.\31 428d3ba-fdcb-48d3-8539-843896715ea9,.aa44d2cb-e1ce-4e82-adcd-5f95137bcbbe,.bcbd7b23-edb3-4724-855d-1ccbe95e8d6a,.d4c11d70-a408-4b8a-98a5-521b61c18c32{stroke-width:0.73px;}.\35 1831f7b-7116-432b-80f9-57b2cacd7f04,.\36 396a1a4-e425-4a23-b1bd-9cf37c7e1d62{stroke-width:0.88px;}.\35 fa9d88a-ef86-4e63-8886-a638bb77ba83,.b47cdb6e-2060-418c-81ab-40911ffb3322{stroke-width:0.88px;}.\30 ec43cfb-79b2-4433-a677-fd4d05bb8466,.e0e5bac7-efc6-4697-861e-3c688cffcf8a{stroke-width:0.58px;}.\31 428d3ba-fdcb-48d3-8539-843896715ea9,.aa44d2cb-e1ce-4e82-adcd-5f95137bcbbe{stroke-linecap:round;stroke-linejoin:round;}.\34 f2a7a88-1920-4bf5-89d8-fa2a30b2d679,.fdcd1e8b-f4db-4b13-8a97-5be5618c7d58{isolation:isolate;font-size:9.47px;font-family:ArialMT, Arial;}.\32 d295966-0974-4bad-b965-a422bf198bde{letter-spacing:-0.06em;}.\37 1f295f8-1c29-42dd-a852-162c324bef74{clip-path:url(#14b70c6b-51fc-4c2d-9c8b-1fd2326105ec);}.\31 428d3ba-fdcb-48d3-8539-843896715ea9,.\35 fa9d88a-ef86-4e63-8886-a638bb77ba83,.\36 396a1a4-e425-4a23-b1bd-9cf37c7e1d62,.\39 43aeb04-25b9-464d-8a80-80e76e913354,.bcbd7b23-edb3-4724-855d-1ccbe95e8d6a,.d810dd42-0e20-473c-9014-1fe2104569a9,.e0e5bac7-efc6-4697-861e-3c688cffcf8a{stroke:#fff;}.\33 5550eca-83c0-49f5-8f08-ff394e8d98f5{stroke-width:0.79px;}</style><clipPath id="14b70c6b-51fc-4c2d-9c8b-1fd2326105ec" transform="translate(-125.9 -119.8)"><rect class="b13eb28e-8eb1-4f55-a78e-3f0d2013a69b" x="273.1" y="200.3" width="610.9" height="328.5"/></clipPath></defs><title>computer</title><g id="fd600669-3d1f-42ef-adfd-65ec5625fb90" data-name="Layer 1"><path class="ed9ee7e2-9db9-4e37-9f30-f7f7543a4750" d="M885.6,549.9H285.8a15.62,15.62,0,0,1-15.6-15.6V135.9a15.62,15.62,0,0,1,15.6-15.6H885.5a15.62,15.62,0,0,1,15.6,15.6V534.2A15.56,15.56,0,0,1,885.6,549.9Z" transform="translate(-125.9 -119.8)"/><path class="16352275-86ee-47d7-9684-bad02be6bd7a" d="M885.6,549.9H285.8a15.62,15.62,0,0,1-15.6-15.6V135.9a15.62,15.62,0,0,1,15.6-15.6H885.5a15.62,15.62,0,0,1,15.6,15.6V534.2A15.56,15.56,0,0,1,885.6,549.9Z" transform="translate(-125.9 -119.8)"/><circle class="d4c11d70-a408-4b8a-98a5-521b61c18c32" cx="161.7" cy="29.7" r="5.3"/><circle class="d4c11d70-a408-4b8a-98a5-521b61c18c32" cx="181.1" cy="29.3" r="5.3"/><circle class="d4c11d70-a408-4b8a-98a5-521b61c18c32" cx="200" cy="29.3" r="5.3"/><path class="d4c11d70-a408-4b8a-98a5-521b61c18c32" d="M365,159.9H346.8a3,3,0,0,1-3-3V142.3a3,3,0,0,1,3-3H365a3,3,0,0,1,3,3v14.6A3,3,0,0,1,365,159.9Z" transform="translate(-125.9 -119.8)"/><path class="d4c11d70-a408-4b8a-98a5-521b61c18c32" d="M375.1,187.6H277.8a7.7,7.7,0,0,1-7.7-7.7v-5.2a7.7,7.7,0,0,1,7.7-7.7h97.3a7.7,7.7,0,0,1,7.7,7.7V180A7.68,7.68,0,0,1,375.1,187.6Z" transform="translate(-125.9 -119.8)"/><path class="d4c11d70-a408-4b8a-98a5-521b61c18c32" d="M490,187.6H392a7.34,7.34,0,0,1-7.3-7.3v-6.1a7.34,7.34,0,0,1,7.3-7.3h98a7.34,7.34,0,0,1,7.3,7.3v6.1A7.28,7.28,0,0,1,490,187.6Z" transform="translate(-125.9 -119.8)"/><path class="d4c11d70-a408-4b8a-98a5-521b61c18c32" d="M604.3,187.6H505.7a6.85,6.85,0,0,1-6.9-6.9v-6.6a6.85,6.85,0,0,1,6.9-6.9h98.6a6.85,6.85,0,0,1,6.9,6.9v6.6A6.79,6.79,0,0,1,604.3,187.6Z" transform="translate(-125.9 -119.8)"/><path class="d4c11d70-a408-4b8a-98a5-521b61c18c32" d="M719.2,187.6H620a6.66,6.66,0,0,1-6.6-6.6v-7.2a6.66,6.66,0,0,1,6.6-6.6h99.2a6.66,6.66,0,0,1,6.6,6.6V181A6.66,6.66,0,0,1,719.2,187.6Z" transform="translate(-125.9 -119.8)"/><path class="d4c11d70-a408-4b8a-98a5-521b61c18c32" d="M835.6,187.6H732.4a4.69,4.69,0,0,1-4.7-4.7V171.7a4.69,4.69,0,0,1,4.7-4.7H835.5a4.69,4.69,0,0,1,4.7,4.7v11.2A4.55,4.55,0,0,1,835.6,187.6Z" transform="translate(-125.9 -119.8)"/><path class="d4c11d70-a408-4b8a-98a5-521b61c18c32" d="M391,159.5H373.4a3.5,3.5,0,0,1-3.4-3.4V142.2a3.5,3.5,0,0,1,3.4-3.4H391a3.5,3.5,0,0,1,3.4,3.4v13.9A3.31,3.31,0,0,1,391,159.5Z" transform="translate(-125.9 -119.8)"/><path class="51831f7b-7116-432b-80f9-57b2cacd7f04" d="M433.5,159.4H405.6a3.59,3.59,0,0,1-3.6-3.6V142.5a3.59,3.59,0,0,1,3.6-3.6h27.9a3.59,3.59,0,0,1,3.6,3.6v13.3A3.52,3.52,0,0,1,433.5,159.4Z" transform="translate(-125.9 -119.8)"/><path class="d4c11d70-a408-4b8a-98a5-521b61c18c32" d="M710.6,159.4H462.9a4.37,4.37,0,0,1-4.4-4.4V143.3a4.37,4.37,0,0,1,4.4-4.4H710.6a4.37,4.37,0,0,1,4.4,4.4V155A4.58,4.58,0,0,1,710.6,159.4Z" transform="translate(-125.9 -119.8)"/><path class="b47cdb6e-2060-418c-81ab-40911ffb3322" d="M830.7,159.5H804.3a4.37,4.37,0,0,1-4.4-4.4V143.4a4.37,4.37,0,0,1,4.4-4.4h26.4a4.37,4.37,0,0,1,4.4,4.4v11.7A4.37,4.37,0,0,1,830.7,159.5Z" transform="translate(-125.9 -119.8)"/><path class="d4c11d70-a408-4b8a-98a5-521b61c18c32" d="M872.2,187.6H846.9a5,5,0,0,1-5.1-5.1V172.1a5,5,0,0,1,5.1-5.1h25.3a5,5,0,0,1,5.1,5.1v10.4A5.19,5.19,0,0,1,872.2,187.6Z" transform="translate(-125.9 -119.8)"/><path class="0ec43cfb-79b2-4433-a677-fd4d05bb8466" d="M896.5,187.7H883.2a4.59,4.59,0,0,1-4.6-4.6V171.5a4.59,4.59,0,0,1,4.6-4.6h13.3a4.59,4.59,0,0,1,4.6,4.6v11.6A4.53,4.53,0,0,1,896.5,187.7Z" transform="translate(-125.9 -119.8)"/><path class="b47cdb6e-2060-418c-81ab-40911ffb3322" d="M787.9,159.5H761.5a4.37,4.37,0,0,1-4.4-4.4V143.4a4.37,4.37,0,0,1,4.4-4.4h26.4a4.37,4.37,0,0,1,4.4,4.4v11.7A4.31,4.31,0,0,1,787.9,159.5Z" transform="translate(-125.9 -119.8)"/><path class="b47cdb6e-2060-418c-81ab-40911ffb3322" d="M872.7,159.5H847.3a4.91,4.91,0,0,1-4.9-4.9V144a4.91,4.91,0,0,1,4.9-4.9h25.4a4.91,4.91,0,0,1,4.9,4.9v10.5A4.75,4.75,0,0,1,872.7,159.5Z" transform="translate(-125.9 -119.8)"/><polyline class="aa44d2cb-e1ce-4e82-adcd-5f95137bcbbe" points="231.8 24.6 226.2 28.5 231.7 34.7"/><polyline class="aa44d2cb-e1ce-4e82-adcd-5f95137bcbbe" points="252.4 24.3 258 28.2 252.5 34.5"/><polygon class="aa44d2cb-e1ce-4e82-adcd-5f95137bcbbe" points="300.4 34.9 291.8 34.9 286.5 34.9 286.5 24.3 291.8 24.3 300.4 24.3 300.4 34.9"/><line class="aa44d2cb-e1ce-4e82-adcd-5f95137bcbbe" x1="291.8" y1="24.3" x2="291.8" y2="34.9"/><polyline class="aa44d2cb-e1ce-4e82-adcd-5f95137bcbbe" points="758.1 24.8 763.7 28.7 758.2 35"/><polyline class="aa44d2cb-e1ce-4e82-adcd-5f95137bcbbe" points="763.8 24.8 769.6 28.7 764.1 35"/><rect class="aa44d2cb-e1ce-4e82-adcd-5f95137bcbbe" x="727.9" y="26.7" width="9" height="8.7"/><rect class="aa44d2cb-e1ce-4e82-adcd-5f95137bcbbe" x="731.3" y="24.2" width="8.1" height="8.1"/><rect class="aa44d2cb-e1ce-4e82-adcd-5f95137bcbbe" x="686.7" y="26.7" width="9.1" height="9.1"/><line class="aa44d2cb-e1ce-4e82-adcd-5f95137bcbbe" x1="691.7" y1="22.4" x2="691.7" y2="31.2"/><polyline class="aa44d2cb-e1ce-4e82-adcd-5f95137bcbbe" points="689.1 24.7 691.6 22.2 694 24.7"/><circle class="d4c11d70-a408-4b8a-98a5-521b61c18c32" cx="648.3" cy="29.5" r="6.5"/><rect class="b13eb28e-8eb1-4f55-a78e-3f0d2013a69b" x="394.2" y="24.3" width="133.2" height="9.8"/><text class="fdcd1e8b-f4db-4b13-8a97-5be5618c7d58" transform="translate(394.23 31.11)">https://ww<tspan class="2d295966-0974-4bad-b965-a422bf198bde" x="42.12" y="0">w</tspan><tspan x="48.44" y="0">.bla-bla-bla-bla.com</tspan></text><path class="d4c11d70-a408-4b8a-98a5-521b61c18c32" d="M893.5,367.6h0a2.9,2.9,0,0,1-2.9-2.9V197.1a2.9,2.9,0,0,1,2.9-2.9h0a2.9,2.9,0,0,1,2.9,2.9V364.5A3,3,0,0,1,893.5,367.6Z" transform="translate(-125.9 -119.8)"/><g class="71f295f8-1c29-42dd-a852-162c324bef74"><circle class="94da3028-e9ab-4a68-ad85-fa5105f437c1" cx="459" cy="253.8" r="146.8"/><ellipse class="94da3028-e9ab-4a68-ad85-fa5105f437c1" cx="405.8" cy="204" rx="6.4" ry="53.5"/><ellipse class="94da3028-e9ab-4a68-ad85-fa5105f437c1" cx="513.2" cy="204" rx="6.4" ry="53.5"/><path class="94da3028-e9ab-4a68-ad85-fa5105f437c1" d="M701.9,363.4l-13.5-.6a3.25,3.25,0,0,0-.3,6.5l2.6.1c-1.6,34.2-13.6,62.9-34.7,82.9a102.73,102.73,0,0,1-70.6,27.9H585c-26.5,0-51.5-9.6-70.4-27.2-21.4-19.8-33.6-48.4-35.4-82.6a1.88,1.88,0,0,0-.2-.8l2.7-.1a3.25,3.25,0,0,0-.3-6.5l-13.5.6a3.25,3.25,0,0,0,.2,6.5h.1l4.5-.2a2.77,2.77,0,0,0-.1.9c1.9,36,14.8,66.1,37.5,87.1a109.53,109.53,0,0,0,74.8,29h.4a109.81,109.81,0,0,0,75.1-29.6c22.4-21.2,35.1-51.4,36.8-87.3l4.3.2h.1a3.29,3.29,0,0,0,3.3-3.1A3.21,3.21,0,0,0,701.9,363.4Z" transform="translate(-125.9 -119.8)"/></g><g class="71f295f8-1c29-42dd-a852-162c324bef74"><circle class="94da3028-e9ab-4a68-ad85-fa5105f437c1" cx="147.3" cy="253.8" r="146.8"/><ellipse class="94da3028-e9ab-4a68-ad85-fa5105f437c1" cx="94.1" cy="204" rx="6.4" ry="53.5"/><ellipse class="94da3028-e9ab-4a68-ad85-fa5105f437c1" cx="201.6" cy="204" rx="6.4" ry="53.5"/><path class="94da3028-e9ab-4a68-ad85-fa5105f437c1" d="M390.3,363.4l-13.5-.6a3.25,3.25,0,1,0-.3,6.5l2.6.1c-1.6,34.2-13.6,62.9-34.7,82.9a102.73,102.73,0,0,1-70.6,27.9h-.4c-26.5,0-51.5-9.6-70.4-27.2-21.4-19.8-33.6-48.4-35.4-82.6a1.88,1.88,0,0,0-.2-.8l2.7-.1a3.25,3.25,0,0,0-.3-6.5l-13.5.6a3.25,3.25,0,0,0,.2,6.5h.1l4.5-.2a2.77,2.77,0,0,0-.1.9c1.9,36,14.8,66.1,37.5,87.1a109.53,109.53,0,0,0,74.8,29h.4a109.81,109.81,0,0,0,75.1-29.6c22.4-21.2,35.1-51.4,36.8-87.3l4.3.2h.1a3.41,3.41,0,0,0,.3-6.8Z" transform="translate(-125.9 -119.8)"/></g><g class="71f295f8-1c29-42dd-a852-162c324bef74"><circle class="94da3028-e9ab-4a68-ad85-fa5105f437c1" cx="770.6" cy="253.8" r="146.8"/><ellipse class="94da3028-e9ab-4a68-ad85-fa5105f437c1" cx="717.4" cy="204" rx="6.4" ry="53.5"/><ellipse class="94da3028-e9ab-4a68-ad85-fa5105f437c1" cx="824.9" cy="204" rx="6.4" ry="53.5"/><path class="94da3028-e9ab-4a68-ad85-fa5105f437c1" d="M1013.6,363.4l-13.5-.6a3.25,3.25,0,0,0-.3,6.5l2.6.1c-1.6,34.2-13.6,62.9-34.7,82.9a102.73,102.73,0,0,1-70.6,27.9h-.4c-26.5,0-51.5-9.6-70.4-27.2-21.4-19.8-33.6-48.4-35.4-82.6a1.88,1.88,0,0,0-.2-.8l2.7-.1a3.25,3.25,0,0,0-.3-6.5l-13.5.6a3.25,3.25,0,0,0,.2,6.5h.1l4.5-.2a2.77,2.77,0,0,0-.1.9c1.9,36,14.8,66.1,37.5,87.1a109.53,109.53,0,0,0,74.8,29h.4a109.81,109.81,0,0,0,75.1-29.6c22.4-21.2,35.1-51.4,36.8-87.3l4.3.2h.1a3.29,3.29,0,0,0,3.3-3.1A3.21,3.21,0,0,0,1013.6,363.4Z" transform="translate(-125.9 -119.8)"/></g><path class="943aeb04-25b9-464d-8a80-80e76e913354" d="M1193.4,699.7H593.6A15.62,15.62,0,0,1,578,684.1V285.8a15.62,15.62,0,0,1,15.6-15.6h599.7a15.62,15.62,0,0,1,15.6,15.6V684.1A15.47,15.47,0,0,1,1193.4,699.7Z" transform="translate(-125.9 -119.8)"/><path class="d810dd42-0e20-473c-9014-1fe2104569a9" d="M1193.4,699.7H593.6A15.62,15.62,0,0,1,578,684.1V285.8a15.62,15.62,0,0,1,15.6-15.6h599.7a15.62,15.62,0,0,1,15.6,15.6V684.1A15.47,15.47,0,0,1,1193.4,699.7Z" transform="translate(-125.9 -119.8)"/><circle class="bcbd7b23-edb3-4724-855d-1ccbe95e8d6a" cx="469.6" cy="179.5" r="5.3"/><circle class="bcbd7b23-edb3-4724-855d-1ccbe95e8d6a" cx="489" cy="179.1" r="5.3"/><circle class="bcbd7b23-edb3-4724-855d-1ccbe95e8d6a" cx="507.8" cy="179.1" r="5.3"/><path class="bcbd7b23-edb3-4724-855d-1ccbe95e8d6a" d="M672.8,309.7H654.6a3,3,0,0,1-3-3V292.1a3,3,0,0,1,3-3h18.2a3,3,0,0,1,3,3v14.6A3,3,0,0,1,672.8,309.7Z" transform="translate(-125.9 -119.8)"/><path class="bcbd7b23-edb3-4724-855d-1ccbe95e8d6a" d="M683,337.6H585.7a7.7,7.7,0,0,1-7.7-7.7v-5.3a7.7,7.7,0,0,1,7.7-7.7H683a7.7,7.7,0,0,1,7.7,7.7v5.3A8,8,0,0,1,683,337.6Z" transform="translate(-125.9 -119.8)"/><path class="bcbd7b23-edb3-4724-855d-1ccbe95e8d6a" d="M797.8,337.6h-98a7.34,7.34,0,0,1-7.3-7.3v-6.1a7.34,7.34,0,0,1,7.3-7.3h98a7.34,7.34,0,0,1,7.3,7.3v6.1A7.34,7.34,0,0,1,797.8,337.6Z" transform="translate(-125.9 -119.8)"/><path class="bcbd7b23-edb3-4724-855d-1ccbe95e8d6a" d="M912.1,337.6H813.5a6.85,6.85,0,0,1-6.9-6.9v-6.6a6.85,6.85,0,0,1,6.9-6.9h98.6a6.85,6.85,0,0,1,6.9,6.9v6.6A6.91,6.91,0,0,1,912.1,337.6Z" transform="translate(-125.9 -119.8)"/><path class="bcbd7b23-edb3-4724-855d-1ccbe95e8d6a" d="M1026.8,337.6H927.7a6.66,6.66,0,0,1-6.6-6.6v-7.2a6.66,6.66,0,0,1,6.6-6.6h99.2a6.66,6.66,0,0,1,6.6,6.6V331A6.55,6.55,0,0,1,1026.8,337.6Z" transform="translate(-125.9 -119.8)"/><path class="bcbd7b23-edb3-4724-855d-1ccbe95e8d6a" d="M1143.4,337.6H1040.3a4.69,4.69,0,0,1-4.7-4.7V321.7a4.69,4.69,0,0,1,4.7-4.7h103.1a4.69,4.69,0,0,1,4.7,4.7v11.2A4.69,4.69,0,0,1,1143.4,337.6Z" transform="translate(-125.9 -119.8)"/><path class="bcbd7b23-edb3-4724-855d-1ccbe95e8d6a" d="M698.8,309.5H681.2a3.5,3.5,0,0,1-3.4-3.4V292.2a3.5,3.5,0,0,1,3.4-3.4h17.6a3.5,3.5,0,0,1,3.4,3.4v13.9A3.44,3.44,0,0,1,698.8,309.5Z" transform="translate(-125.9 -119.8)"/><path class="6396a1a4-e425-4a23-b1bd-9cf37c7e1d62" d="M741.3,309.3H713.4a3.59,3.59,0,0,1-3.6-3.6V292.3a3.59,3.59,0,0,1,3.6-3.6h27.9a3.59,3.59,0,0,1,3.6,3.6v13.3A3.61,3.61,0,0,1,741.3,309.3Z" transform="translate(-125.9 -119.8)"/><path class="bcbd7b23-edb3-4724-855d-1ccbe95e8d6a" d="M1018.2,309.2H770.7a4.37,4.37,0,0,1-4.4-4.4V293.1a4.37,4.37,0,0,1,4.4-4.4h247.5a4.37,4.37,0,0,1,4.4,4.4v11.7A4.2,4.2,0,0,1,1018.2,309.2Z" transform="translate(-125.9 -119.8)"/><path class="5fa9d88a-ef86-4e63-8886-a638bb77ba83" d="M1138.6,309.3h-26.4a4.37,4.37,0,0,1-4.4-4.4V293.2a4.37,4.37,0,0,1,4.4-4.4h26.4a4.37,4.37,0,0,1,4.4,4.4v11.7A4.44,4.44,0,0,1,1138.6,309.3Z" transform="translate(-125.9 -119.8)"/><path class="bcbd7b23-edb3-4724-855d-1ccbe95e8d6a" d="M1180,337.6h-25.3a5,5,0,0,1-5.1-5.1V322.1a5,5,0,0,1,5.1-5.1H1180a5,5,0,0,1,5.1,5.1v10.4A5.33,5.33,0,0,1,1180,337.6Z" transform="translate(-125.9 -119.8)"/><path class="e0e5bac7-efc6-4697-861e-3c688cffcf8a" d="M1204.3,337.6H1191a4.59,4.59,0,0,1-4.6-4.6V321.4a4.59,4.59,0,0,1,4.6-4.6h13.3a4.59,4.59,0,0,1,4.6,4.6V333A4.59,4.59,0,0,1,1204.3,337.6Z" transform="translate(-125.9 -119.8)"/><path class="5fa9d88a-ef86-4e63-8886-a638bb77ba83" d="M1095.7,309.3h-26.4a4.37,4.37,0,0,1-4.4-4.4V293.2a4.37,4.37,0,0,1,4.4-4.4h26.4a4.37,4.37,0,0,1,4.4,4.4v11.7A4.26,4.26,0,0,1,1095.7,309.3Z" transform="translate(-125.9 -119.8)"/><path class="5fa9d88a-ef86-4e63-8886-a638bb77ba83" d="M1180.5,309.3h-25.4a4.91,4.91,0,0,1-4.9-4.9V293.9a4.91,4.91,0,0,1,4.9-4.9h25.4a4.91,4.91,0,0,1,4.9,4.9v10.5A4.67,4.67,0,0,1,1180.5,309.3Z" transform="translate(-125.9 -119.8)"/><polyline class="1428d3ba-fdcb-48d3-8539-843896715ea9" points="539.6 174.4 534 178.3 539.5 184.7"/><polyline class="1428d3ba-fdcb-48d3-8539-843896715ea9" points="560.1 174.3 565.8 178.2 560.3 184.5"/><polygon class="1428d3ba-fdcb-48d3-8539-843896715ea9" points="608.2 184.9 599.5 184.9 594.3 184.9 594.3 174.2 599.5 174.2 608.2 174.2 608.2 184.9"/><line class="1428d3ba-fdcb-48d3-8539-843896715ea9" x1="599.5" y1="174.2" x2="599.5" y2="184.9"/><polyline class="1428d3ba-fdcb-48d3-8539-843896715ea9" points="1065.9 174.7 1071.5 178.6 1066 185"/><polyline class="1428d3ba-fdcb-48d3-8539-843896715ea9" points="1071.6 174.7 1077.4 178.6 1071.9 185"/><rect class="1428d3ba-fdcb-48d3-8539-843896715ea9" x="1035.7" y="176.5" width="9" height="8.7"/><rect class="1428d3ba-fdcb-48d3-8539-843896715ea9" x="1039.1" y="174" width="8.1" height="8.1"/><rect class="1428d3ba-fdcb-48d3-8539-843896715ea9" x="994.6" y="176.5" width="9.1" height="9.1"/><line class="1428d3ba-fdcb-48d3-8539-843896715ea9" x1="999.5" y1="172.2" x2="999.5" y2="181.1"/><polyline class="1428d3ba-fdcb-48d3-8539-843896715ea9" points="996.9 174.6 999.4 172.1 1001.9 174.6"/><circle class="bcbd7b23-edb3-4724-855d-1ccbe95e8d6a" cx="956" cy="179.5" r="6.5"/><rect class="b13eb28e-8eb1-4f55-a78e-3f0d2013a69b" x="702" y="174.2" width="133.2" height="9.8"/><text class="4f2a7a88-1920-4bf5-89d8-fa2a30b2d679" transform="translate(702.02 181.02)">https://ww<tspan class="2d295966-0974-4bad-b965-a422bf198bde" x="42.12" y="0">w</tspan><tspan x="48.44" y="0">.bla-bla-bla-bla.com</tspan></text><path class="bcbd7b23-edb3-4724-855d-1ccbe95e8d6a" d="M1201.3,517.4h0a2.9,2.9,0,0,1-2.9-2.9V347.1a2.9,2.9,0,0,1,2.9-2.9h0a2.9,2.9,0,0,1,2.9,2.9V514.5A2.9,2.9,0,0,1,1201.3,517.4Z" transform="translate(-125.9 -119.8)"/><path class="943aeb04-25b9-464d-8a80-80e76e913354" d="M876.8,431.3c11.2,59.5,51.1,32.9,113.8-75.7-62.6,108.6-50.4,130.9,34.7,63.6-85.1,67.4-36.6,72.3,138.2,14-174.7,58.2-208,82-94.7,67.5-113.3,14.5-66.5,32,133.2,49.9-199.7-17.9-253.8-10.9-154,20-99.8-30.9-85.7-1.9,40.1,82.3-125.8-84.2-182.4-100-161-44.7C905.7,553,887.4,582.4,875,692c12.4-109.6-11-136.7-66.5-77.2,55.5-59.6,4.3-47.2-145.9,35.1,150.1-82.3,164.9-112.7,42.1-86.5,122.8-26.2,81.2-32.4-118.5-17.7,199.7-14.7,244.4-30.2,127.2-43.9,117.2,13.7,73.9-11.8-123.2-72.6,197.1,60.8,251.7,63,155.4,6.3,96.2,56.7,102.7,28,18.5-81.6C848.3,463.6,887.9,490.7,876.8,431.3Z" transform="translate(-125.9 -119.8)"/><path class="ad27cf28-b647-4dd4-8594-c11786034e8d" d="M935.8,521.3c.2-.5.4-1.1,1.9-1.4s2.3,1.4,2.5,2a2.27,2.27,0,0,1,1.2-1.2c1.6-.4,2.4,1.8,3.1,5.4a15,15,0,0,1,.3,4.9,8.19,8.19,0,0,1-.7,3,9.25,9.25,0,0,0-.4,2.9,1.53,1.53,0,0,1-1.3,1.6L931,541.1s-1.8-2.6-3.2-3c-3-.8-2.5-3.3-4.4-5-.9-.8-3.3-.7-3.8-1.9a3,3,0,0,1,.7-3.4c1-.9,2.6-.7,3.9-.2a15.09,15.09,0,0,1,2.8,1.5,36,36,0,0,0-1.2-3.5,43.11,43.11,0,0,1-1.1-4.9c-.2-1-1-3.6-.9-4.6a3.42,3.42,0,0,1,1.4-2.6,2.25,2.25,0,0,1,2.8,0,3.52,3.52,0,0,1,1,1.9c.5,1.8,1.3,4.3,2,6.6v.1c-.1-.4.9-1.9,2.1-2.1a2.51,2.51,0,0,1,1.5.2,2.9,2.9,0,0,1,1.1,1.1Z" transform="translate(-125.9 -119.8)"/><path class="35550eca-83c0-49f5-8f08-ff394e8d98f5" d="M939.7,528.5a26.36,26.36,0,0,1,1.5,5.5" transform="translate(-125.9 -119.8)"/><path class="35550eca-83c0-49f5-8f08-ff394e8d98f5" d="M937.8,535.2a23.82,23.82,0,0,0-1.6-5.8" transform="translate(-125.9 -119.8)"/><path class="35550eca-83c0-49f5-8f08-ff394e8d98f5" d="M932.3,530.3a39.33,39.33,0,0,1,1.9,5.8" transform="translate(-125.9 -119.8)"/><path class="35550eca-83c0-49f5-8f08-ff394e8d98f5" d="M930.9,522.1c-.1-.4.9-1.9,2.1-2.1a2.51,2.51,0,0,1,1.5.2,2.9,2.9,0,0,1,1.1,1.1,10.12,10.12,0,0,1,1.1,3.6l-1-3.5c.2-.5.4-1.1,1.9-1.4s2.3,1.4,2.5,2l.5,2.3c-.2-.8-.4-1.6-.5-2.3a2.27,2.27,0,0,1,1.2-1.2c1.6-.4,2.4,1.8,3.1,5.4a15,15,0,0,1,.3,4.9,8.19,8.19,0,0,1-.7,3,10.48,10.48,0,0,0-.4,3.5,1,1,0,0,1-.7.9l-11.5,2.6a1,1,0,0,1-.9-.3,7.06,7.06,0,0,0-2.9-2.5c-3-.8-2.5-3.3-4.4-5-.9-.8-3.3-.7-3.8-1.9a3.22,3.22,0,0,1,.7-3.4c1-.9,2.6-.7,3.9-.2a15.09,15.09,0,0,1,2.8,1.5,36,36,0,0,0-1.2-3.5,43.11,43.11,0,0,1-1.1-4.9c-.2-1-1-3.6-.9-4.6a3.42,3.42,0,0,1,1.4-2.6,2.25,2.25,0,0,1,2.8,0,3.52,3.52,0,0,1,1,1.9c.8,2.9,2.2,7.4,3,10.2" transform="translate(-125.9 -119.8)"/></g></svg>