<svg id="aded9dbd-8249-4934-b532-b0b221ec77fc" data-name="929a63f3-9ae3-4ac3-aaf2-1ac0400b1715" xmlns="http://www.w3.org/2000/svg" width="735.2" height="407.6" viewBox="0 0 735.2 407.6"><defs><style>.cd33958e-83d1-4928-a061-01f40e1eb18b{fill:#fff;}.cd33958e-83d1-4928-a061-01f40e1eb18b,.db54516a-9988-4af4-9eff-2d08293f66c8{stroke:#1e120d;}.\33 28ad414-8e1c-4e59-a90b-432f3bf0f35a,.cd33958e-83d1-4928-a061-01f40e1eb18b,.db54516a-9988-4af4-9eff-2d08293f66c8{stroke-miterlimit:10;stroke-width:1.2px;}.\33 28ad414-8e1c-4e59-a90b-432f3bf0f35a,.\35 b7e1701-4158-47e8-ae6e-e47a7467e09c{fill:#1e120d;}.\33 28ad414-8e1c-4e59-a90b-432f3bf0f35a{stroke:#fff;}.db54516a-9988-4af4-9eff-2d08293f66c8{fill:none;}</style></defs><title>cowboys</title><g id="beadeffd-fe9f-4062-b01b-1ea59a1418aa" data-name="&lt;Groupe&gt;"><g id="5a86c29d-195c-4574-8aa7-83f76d93d3a9" data-name="&lt;Groupe&gt;"><path id="5e30b8fc-4de4-4fd3-b49b-a997c34eb142" data-name="&lt;Tracé&gt;" class="cd33958e-83d1-4928-a061-01f40e1eb18b" d="M146.65,354.74c-.2-.2-5.2-4.2-7.7-7.6a18.1,18.1,0,0,1-2.8-7.1c-3.9.6-8.6-1.2-12.1-2.8a14.69,14.69,0,0,0-9.7-1.5,23.28,23.28,0,0,0-8.5,3.8l-.9.6-.7-.4q-1.95-1.05-1.5-2.7a4.14,4.14,0,0,1,1.9-2.3c5-3.9,13.6-6,16.9-5.9,2.7,0,13.1-2.9,17.8-6a16.77,16.77,0,0,0,5.9-7l.9-2.5,5.8,5.6.7,30.6-4.8,6Z" transform="translate(-7.3 -95.18)"/></g><g id="9ef4c78f-beae-441c-a568-51799875498a" data-name="&lt;Groupe&gt;"><path id="5b404e36-60f1-4864-9ecb-8d32cf5aefc0" data-name="&lt;Tracé&gt;" class="cd33958e-83d1-4928-a061-01f40e1eb18b" d="M150.45,319.74l-4-3.9c-2.2-7.4,9.5-13.7,9.5-13.7s44.2-27.4,53.6-33.7a122.6,122.6,0,0,1,23.1-12.4c6.5-2.7,5.8.6,5.8.6l-20.2,13.6,26.3,43.6L189.45,349c-3.4,2.1-9.6,6.5-20.9,5.7s-13.7-7.4-13.7-7.4l-3.7,2.3Z" transform="translate(-7.3 -95.18)"/></g><g id="94d8bfe2-5d13-4b1b-b8b8-ef420f30bc72" data-name="&lt;Groupe&gt;"><path id="59f4ce16-0cd5-42f4-b798-a7e4ef49016f" data-name="&lt;Tracé&gt;" class="cd33958e-83d1-4928-a061-01f40e1eb18b" d="M143.45,357l6.7-8.3,5.8-3.5.5,1.4c0,.1,2.4,5.9,12.7,6.8a27.68,27.68,0,0,0,18.9-4.9l54.4-34.7-26.7-44.4,23.6-14.7,19.1,26.4.3.4-.2.6s-.8,2.2-1.3,9.4,3,15,3.1,15.1l.1.3a8.76,8.76,0,0,1-1.8,5.7c-1.7,2.1-8.9,8.3-9.7,9l-1.7,1.4-.5-.8-86,58.9Z" transform="translate(-7.3 -95.18)"/></g><g id="9ef50c38-e0f7-49be-a109-bdc51fa1e2ec" data-name="&lt;Groupe&gt;"><path id="b5d1b259-6f17-413c-a597-86d71085af40" data-name="&lt;Tracé&gt;" class="cd33958e-83d1-4928-a061-01f40e1eb18b" d="M411.95,151s2.5-3.5.9-5.4-1.2-3.9,2.3-5.7,13-4.8,16.3-5.7a3.91,3.91,0,0,1,4.7,2.1Z" transform="translate(-7.3 -95.18)"/><path id="ef5c1cc0-0ce3-4d30-8764-22b42e1b3018" data-name="&lt;Tracé&gt;" class="328ad414-8e1c-4e59-a90b-432f3bf0f35a" d="M407.05,155.44l3.6-4.9s1.9-2.6.8-3.9a4,4,0,0,1-.8-4.2c.6-1.4,1.9-2.6,4-3.8,3.9-2.1,13.8-5.1,16.9-5.9,3.6-.9,5.6,1.2,6.2,2.7l.5,1.1Z" transform="translate(-7.3 -95.18)"/></g><g id="08903a48-176c-4478-8c3d-1cb1b89cb669" data-name="&lt;Groupe&gt;"><g id="a3354f29-abae-4fc3-8eca-ed20cad286a1" data-name="&lt;Groupe&gt;"><path id="6d701d87-fe86-447e-bffd-54e1224ea579" data-name="&lt;Tracé&gt;" class="328ad414-8e1c-4e59-a90b-432f3bf0f35a" d="M380.05,185.34,247.45,266l7.6,10.5,107.2-67.9,23.1-14.6A9.71,9.71,0,0,0,380.05,185.34Z" transform="translate(-7.3 -95.18)"/></g></g><g id="829af25b-f345-408b-8a52-9e86f7e589bc" data-name="&lt;Groupe&gt;"><path id="be2c3ce2-d045-4b93-9bec-f2c71a5e907c" data-name="&lt;Tracé&gt;" class="328ad414-8e1c-4e59-a90b-432f3bf0f35a" d="M385.25,192.34l-.5-1.4a9.85,9.85,0,0,0-4.7-5.5l-135.6,82.5-8.2-11.3,209.1-127.3.8-.5.7.2c.3.1,8.2,2.6,11.1,17.6l.2,1Z" transform="translate(-7.3 -95.18)"/></g><g id="46dfe75f-e683-4253-ab53-8daac9152a1c" data-name="&lt;Groupe&gt;"><g id="bbde945f-7ebf-4bbd-ad7f-91527eb4a7a1" data-name="&lt;Groupe&gt;"><path id="0f34c3c2-4e40-4c21-b056-3ec30dd19eeb" data-name="&lt;Tracé&gt;" class="cd33958e-83d1-4928-a061-01f40e1eb18b" d="M167.75,388.14l.7,1Z" transform="translate(-7.3 -95.18)"/><path id="4b2dd06a-3238-4dbd-bee9-4c9661f508ae" data-name="&lt;Tracé&gt;" class="cd33958e-83d1-4928-a061-01f40e1eb18b" d="M169.15,390.24h0c.9-.6,1.2-1.5.8-2.1l-.7-1a1.62,1.62,0,0,0-2.1-.1.1.1,0,0,0-.1.1,1.49,1.49,0,0,0-.7,2h0l.7,1C167.35,390.64,168.35,390.64,169.15,390.24Z" transform="translate(-7.3 -95.18)"/></g><g id="f365dd6c-4fbc-48ca-91e3-59ef4ddb2a3b" data-name="&lt;Groupe&gt;"><path id="f36c116c-19ff-49a1-87a9-b6a8a8bf7792" data-name="&lt;Tracé&gt;" class="5b7e1701-4158-47e8-ae6e-e47a7467e09c" d="M184.45,378c.5,2.4,2.4,7.9,6.3,9.6,5,2.2,9.6,2.9,26.3-7.9s14.6-18.9,12.2-23.1-8.4-4.8-11.9-4.7-8.3,2.3-8.3,2.3a116.42,116.42,0,0,1,10.6-8.7c3.1-2.3,9.3-6.5,15-10.5l-.4,1s-4.6,3.3-4.9,7.6,4.4,10.1,5.4,16.7c.6,4.2-1.7,13.3-15.8,22.3-11.3,7.2-20.7,11.8-29,8.8s-13.7-5.1-20.3-1.1a49.74,49.74,0,0,0-10.6,8.8,84,84,0,0,1,9.5-9.9" transform="translate(-7.3 -95.18)"/></g></g><path id="cf14ac2a-e14b-4ac1-913c-9a673818d542" data-name="&lt;Tracé&gt;" class="5b7e1701-4158-47e8-ae6e-e47a7467e09c" d="M197.45,361.14h.1a19.84,19.84,0,0,0-.8,5.7c0,3.3.9,8.1,3.1,10s5.9,4.1,5.1,5.8-2.8,2-6.9-2.1c-3.9-4-7-13.5-7.3-14.3C192.45,364.84,194.85,362.94,197.45,361.14Z" transform="translate(-7.3 -95.18)"/><g id="1611a930-5c0a-4d1e-9e83-f126ac38852c" data-name="&lt;Groupe&gt;"><path id="4462b632-7d63-4128-a603-49f5fa80046f" data-name="&lt;Tracé&gt;" class="5b7e1701-4158-47e8-ae6e-e47a7467e09c" d="M112.35,393.34l4.8-5.3c4.5-4.9,11.9-9.8,17.4-13.3,2.3-1.5,4.3-2.8,5.3-3.6,1.7-1.4,1.5-3.2,1.1-5.7a9.69,9.69,0,0,1-.3-2.3c0-2.9,3.5-6.6,3.9-7l1.4-1.5,9.2,13.2Z" transform="translate(-7.3 -95.18)"/></g><path id="9c092f2e-585b-4a36-b7e9-fc9cb0088961" data-name="&lt;Tracé&gt;" class="5b7e1701-4158-47e8-ae6e-e47a7467e09c" d="M151.45,471.94c-4.8,2.9-10.3,6.1-16.3,9.8-5,3-9.6,5.9-13.6,8.4-14.2,8.9-22.1,13.8-26.1,12.4-2.6-.9-2.2-5.4-1.5-15.3.8-10.3,2-25.8-.2-44.3-2.1-18,4.9-34.9,22.8-54.7l.2-.3,37.2-22.1,16.7,23.2-1.1,1c-.1.1-14,12-17.1,23.4h0c-4.1,14.5.5,26.3,13.6,35.1l.1.1c1.2.8,2.4,1.4,3.5,2,2.8,1.4,5.4,2.8,4.2,6.2-.6,1.7-3.5,3.8-10.4,8.1C160.25,466.74,156.35,469,151.45,471.94Z" transform="translate(-7.3 -95.18)"/><g id="e1e5c943-a835-439b-878b-15fa4b556209" data-name="&lt;Groupe&gt;"><g id="f17ceaa5-0a82-4135-8ea8-6be37a95a5d1" data-name="&lt;Groupe&gt;"><path id="9b8b63cc-7e84-45cb-bd5b-b26b6c619e58" data-name="&lt;Tracé&gt;" class="cd33958e-83d1-4928-a061-01f40e1eb18b" d="M159.35,379l88.7-60.7.2.3h0l.8,1.4c1.4,2.5,1.1,4.9-1,6.7-1.8,1.6-9.5,6.9-16.9,12.1-4.4,3-8.5,5.9-10.9,7.6a127.72,127.72,0,0,0-10.4,8.5l-.3.3-.3.2c-6.3,2.8-14.7,9-18.4,12.4-5.6,5.2-5.1,9.7-5.1,9.9l.1.7-18.1,12.5Z" transform="translate(-7.3 -95.18)"/></g></g><g id="9949ed8f-4ec5-4033-b93f-bf1a09e44b3a" data-name="&lt;Groupe&gt;"><polyline id="9aaf0d8a-679d-4ddb-b78a-f46ab71af691" data-name="&lt;Tracé&gt;" class="328ad414-8e1c-4e59-a90b-432f3bf0f35a" points="232.95 215.18 179.55 248.26 154.55 211.97 210.37 177.68"/></g><g id="12067edb-0f4b-4a76-9729-e64aaa69b8e6" data-name="&lt;Groupe&gt;"><g id="7ca3cccf-8ff5-452f-b5b8-b1d4ab40cb9f" data-name="&lt;Groupe&gt;"><path id="b71c57bd-7c55-4ae2-a9e6-45e2aad49fb0" data-name="&lt;Tracé&gt;" class="328ad414-8e1c-4e59-a90b-432f3bf0f35a" d="M225.15,287.14l-1.3.8-19.8,12c-.4.2-.9.6-1.4.9-2.6,1.7-6.4,4.3-9.6,4.3a4,4,0,0,1-3.4-1.7c-2.7-3.7-.1-7,1.8-8.2l28.1-17.3" transform="translate(-7.3 -95.18)"/></g><g id="1a2326f5-9004-4198-be35-dab5d062d43f" data-name="&lt;Groupe&gt;"><path id="8b129065-f9b2-4f14-b2d2-a83f09017dcc" data-name="&lt;Tracé&gt;" class="328ad414-8e1c-4e59-a90b-432f3bf0f35a" d="M236.15,305l-1.3.8-19.8,12c-.4.2-.9.6-1.4.9-2.6,1.7-6.4,4.3-9.6,4.3a4,4,0,0,1-3.4-1.7c-2.7-3.7-.1-7,1.8-8.2l28.1-17.3" transform="translate(-7.3 -95.18)"/></g></g><g id="79ebb091-2ed4-4b2e-8e92-2246d5518304" data-name="&lt;Groupe&gt;"><polygon id="be9a66ea-03a3-47ef-9eaa-4f594d782be4" data-name="&lt;Tracé&gt;" class="cd33958e-83d1-4928-a061-01f40e1eb18b" points="165.55 227.87 187.75 214.16 190.35 218.37 168.35 231.97 165.55 227.87"/><path id="7dc9bad2-4d7b-490e-bfe9-b7e2c14400c1" data-name="&lt;Tracé&gt;" class="328ad414-8e1c-4e59-a90b-432f3bf0f35a" d="M170.95,322.94l24.8-15.3,3.7,6.1-24.5,15.1Z" transform="translate(-7.3 -95.18)"/></g><g id="32bf454c-2f89-43a5-99eb-f6ad4dda3bbf" data-name="&lt;Groupe&gt;"><polygon id="d15bb245-f9e2-4be0-9059-2eb4a9286521" data-name="&lt;Tracé&gt;" class="cd33958e-83d1-4928-a061-01f40e1eb18b" points="176.75 243.97 198.05 230.87 200.45 234.76 179.05 247.76 176.75 243.97"/><path id="06dbb56f-02cc-405d-b90e-d3eaf1aa0ede" data-name="&lt;Tracé&gt;" class="328ad414-8e1c-4e59-a90b-432f3bf0f35a" d="M185.65,344.64l-3.4-5.6,23.8-14.7,3.5,5.7Z" transform="translate(-7.3 -95.18)"/></g><g id="804633bf-50e2-41ff-86a3-f3f8a94197cf" data-name="&lt;Groupe&gt;"><polygon id="aec5639b-5d5d-4701-a234-75e8ac7f16a3" data-name="&lt;Tracé&gt;" class="cd33958e-83d1-4928-a061-01f40e1eb18b" points="156.35 210.87 177.65 197.76 180.05 201.66 158.65 214.66 156.35 210.87"/><path id="2d787ec6-e651-42b9-b729-b357ab90cc31" data-name="&lt;Tracé&gt;" class="328ad414-8e1c-4e59-a90b-432f3bf0f35a" d="M165.25,311.54l-3.4-5.6,23.9-14.7,3.5,5.7Z" transform="translate(-7.3 -95.18)"/></g><g id="6ffd4527-39ba-4dcf-ab69-bc4f5e7ef80c" data-name="&lt;Groupe&gt;"><g id="7ac54968-a327-4090-b6c7-ce728432d6f3" data-name="&lt;Groupe&gt;"><path id="3bc11aae-a49c-4746-8080-1beea46d6448" data-name="&lt;Tracé&gt;" class="328ad414-8e1c-4e59-a90b-432f3bf0f35a" d="M186.55,344.74c-13.9,3.7-26,1.1-31.7-6.9h0c-5.4-7.6-3.2-19.2,5.9-31.1l1.4-1.8,26.6,39.2Z" transform="translate(-7.3 -95.18)"/></g></g><g id="81a7b088-f24f-4a50-ba22-ea3a0b18b336" data-name="&lt;Groupe&gt;"><ellipse id="8f25aac0-0a3d-4558-a2b6-6546db237bbb" data-name="&lt;Tracé&gt;" class="cd33958e-83d1-4928-a061-01f40e1eb18b" cx="122.34" cy="437.73" rx="6" ry="4.2" transform="matrix(0.85, -0.52, 0.52, 0.85, -218.6, 33.91)"/><path id="ebd331f3-c70c-4f4b-870f-67a92eaecf13" data-name="&lt;Tracé transparent&gt;" class="cd33958e-83d1-4928-a061-01f40e1eb18b" d="M115.75,441.74c-1.6-2.6.1-6.5,3.7-8.7s7.9-2,9.5.6-.1,6.5-3.7,8.7S117.35,444.34,115.75,441.74Zm3-1.8c.9,1.4,3.2,1.6,5.1.3s2.9-3.3,2-4.7-3.2-1.6-5.1-.3S117.95,438.54,118.75,439.94Z" transform="translate(-7.3 -95.18)"/></g><g id="34a55191-664d-4b85-a833-2e84838e7526" data-name="&lt;Groupe&gt;"><ellipse id="e3937387-8bf9-46d5-bf61-105d7a588b3b" data-name="&lt;Tracé&gt;" class="cd33958e-83d1-4928-a061-01f40e1eb18b" cx="181.65" cy="357.74" rx="2.3" ry="1.6" transform="matrix(0.85, -0.52, 0.52, 0.85, -167.87, 53.13)"/><path id="924f5a61-be35-4fb2-a25b-8ee0a8f6efce" data-name="&lt;Tracé transparent&gt;" class="cd33958e-83d1-4928-a061-01f40e1eb18b" d="M178.15,359.84c-.8-1.4,0-3.4,2-4.6s4.2-1,5,.3,0,3.4-2,4.6S178.95,361.24,178.15,359.84Zm3-1.8c.1.2.4.2.7,0s.4-.4.3-.6-.4-.2-.7,0A.45.45,0,0,0,181.15,358Z" transform="translate(-7.3 -95.18)"/></g><g id="a8598af1-99ee-4594-b4d3-3633d668c585" data-name="&lt;Groupe&gt;"><ellipse id="6c11544c-4e95-4eaa-93a0-3c38379ff498" data-name="&lt;Tracé&gt;" class="cd33958e-83d1-4928-a061-01f40e1eb18b" cx="160.03" cy="363.03" rx="2.3" ry="1.6" transform="matrix(0.85, -0.52, 0.52, 0.85, -173.85, 42.58)"/><path id="4d2ffd2f-714d-45f1-a740-fb5f07517050" data-name="&lt;Tracé transparent&gt;" class="cd33958e-83d1-4928-a061-01f40e1eb18b" d="M156.55,365.24c-.8-1.4,0-3.4,2-4.6s4.2-1,5,.3,0,3.4-2,4.6S157.35,366.54,156.55,365.24Zm3-1.9c.1.2.4.2.7,0s.4-.4.3-.6-.4-.2-.7,0A.45.45,0,0,0,159.55,363.34Z" transform="translate(-7.3 -95.18)"/></g><g id="136fd277-5265-4aba-87e7-a2b69e07c8cf" data-name="&lt;Groupe&gt;"><path id="8b848736-5b2b-4209-887e-ea27f68c435b" data-name="&lt;Tracé&gt;" class="cd33958e-83d1-4928-a061-01f40e1eb18b" d="M252.75,278.24l17.9-11.3.6.8a2.84,2.84,0,0,1,.5,2.7,5.34,5.34,0,0,1-2.2,2.7l-13.7,10Z" transform="translate(-7.3 -95.18)"/></g></g><g id="987e91a0-5e81-4e32-8247-45a7b04b7632" data-name="&lt;Groupe&gt;"><g id="516b86a4-8a72-424c-8a21-90c9dec229bf" data-name="&lt;Groupe&gt;"><path id="e3055e28-35ff-4796-ab61-59674c1b4d85" data-name="&lt;Tracé&gt;" class="cd33958e-83d1-4928-a061-01f40e1eb18b" d="M602.05,355.61l-4.8-6L598,319l5.8-5.6.9,2.5a16.77,16.77,0,0,0,5.9,7c4.7,3.1,15.1,6,17.8,6,3.3,0,11.9,2,16.9,5.9a4.14,4.14,0,0,1,1.9,2.3c.3,1.1-.3,2-1.5,2.7l-.7.4-.9-.6s-4.4-3.1-8.5-3.8a14.11,14.11,0,0,0-9.7,1.5c-3.5,1.7-8.2,3.4-12.1,2.8a18.68,18.68,0,0,1-2.8,7.1c-2.5,3.4-7.5,7.4-7.7,7.6Z" transform="translate(-7.3 -95.18)"/></g><g id="53cb72e5-61c0-4faa-b252-f031463db626" data-name="&lt;Groupe&gt;"><path id="782c456b-e1be-4bc7-be86-719aff505a33" data-name="&lt;Tracé&gt;" class="cd33958e-83d1-4928-a061-01f40e1eb18b" d="M599.35,319.71l4-3.9c2.2-7.4-9.5-13.7-9.5-13.7s-44.2-27.4-53.6-33.7a122.6,122.6,0,0,0-23.1-12.4c-6.5-2.7-5.8.6-5.8.6l20.2,13.6-26.3,43.6,55.1,35.2c3.4,2.1,9.6,6.5,20.9,5.7s13.7-7.4,13.7-7.4l3.7,2.3Z" transform="translate(-7.3 -95.18)"/></g><g id="941b9d19-e557-4a1e-a2d2-0fe4ba0531fa" data-name="&lt;Groupe&gt;"><path id="72bc2604-7bb2-4e40-9599-065210dc33b1" data-name="&lt;Tracé&gt;" class="cd33958e-83d1-4928-a061-01f40e1eb18b" d="M589.25,381.11l-86-58.9-.5.8-1.7-1.4c-.8-.7-7.9-6.9-9.7-9a7.64,7.64,0,0,1-1.8-5.7l.1-.3c0-.1,3.6-7.8,3.1-15.1s-1.3-9.4-1.3-9.4l-.2-.6.3-.4,19.1-26.4,23.6,14.7-26.8,44.3,54.4,34.7a28.81,28.81,0,0,0,18.9,4.9c10.3-.8,12.7-6.7,12.7-6.8l.5-1.4,5.8,3.5,6.7,8.3Z" transform="translate(-7.3 -95.18)"/></g><g id="76c20e5c-1e94-4b20-bc21-22e5786c3a8f" data-name="&lt;Groupe&gt;"><path id="3f099200-6614-4e0d-ab94-9bb08ee2e58e" data-name="&lt;Tracé&gt;" class="cd33958e-83d1-4928-a061-01f40e1eb18b" d="M337.75,151s-2.5-3.5-.9-5.4,1.2-3.9-2.3-5.7-13-4.8-16.3-5.7a3.91,3.91,0,0,0-4.7,2.1Z" transform="translate(-7.3 -95.18)"/><path id="2b6b284d-13fe-4ef6-b857-cd74057c237b" data-name="&lt;Tracé&gt;" class="328ad414-8e1c-4e59-a90b-432f3bf0f35a" d="M311.55,136.51l.5-1.1a5.09,5.09,0,0,1,6.2-2.7c3.1.8,13,3.8,16.9,5.9a8.24,8.24,0,0,1,4,3.8,4,4,0,0,1-.8,4.2c-1.1,1.3.8,3.9.8,3.9l3.6,4.9Z" transform="translate(-7.3 -95.18)"/></g><g id="a4105b4d-0fd3-4ec0-bbdf-a1b9d7c9aed8" data-name="&lt;Groupe&gt;"><g id="3ab9166b-c1ac-468b-988e-1adab6bc2944" data-name="&lt;Groupe&gt;"><path id="954b2617-d6b9-43d9-b4f6-4353bc6e5fb6" data-name="&lt;Tracé&gt;" class="328ad414-8e1c-4e59-a90b-432f3bf0f35a" d="M364.45,194.11l23.1,14.6,107.2,67.9,7.6-10.5-132.6-80.7A9.53,9.53,0,0,0,364.45,194.11Z" transform="translate(-7.3 -95.18)"/></g></g><g id="87a7be25-ecc2-4107-8302-5346c1353db5" data-name="&lt;Groupe&gt;"><path id="4f525944-7a38-4ede-af84-b0649115b433" data-name="&lt;Tracé&gt;" class="328ad414-8e1c-4e59-a90b-432f3bf0f35a" d="M291.65,147.61l.2-1c2.8-15,10.8-17.5,11.1-17.6l.7-.2.8.5,209.1,127.3-8.2,11.3-135.6-82.5a9.85,9.85,0,0,0-4.7,5.5l-.5,1.4Z" transform="translate(-7.3 -95.18)"/></g><g id="1bbc9a1c-b52e-4305-bc26-fe0696c8e390" data-name="&lt;Groupe&gt;"><g id="73014cfc-37b9-406c-95ca-75f5e722dd80" data-name="&lt;Groupe&gt;"><path id="0c341044-890b-4402-a256-57d9c8cbd946" data-name="&lt;Tracé&gt;" class="cd33958e-83d1-4928-a061-01f40e1eb18b" d="M582,388.21l-.7.9Z" transform="translate(-7.3 -95.18)"/><path id="0b61f558-1559-46f0-9c63-c7a90482a2f4" data-name="&lt;Tracé&gt;" class="cd33958e-83d1-4928-a061-01f40e1eb18b" d="M580.65,390.21h0c-.9-.6-1.2-1.5-.8-2.1l.7-1a1.62,1.62,0,0,1,2.1-.1.1.1,0,0,1,.1.1,1.49,1.49,0,0,1,.7,2h0l-.7,1C582.35,390.71,581.45,390.71,580.65,390.21Z" transform="translate(-7.3 -95.18)"/></g><g id="30eaf25f-39eb-40d1-9824-0cf89b75c95c" data-name="&lt;Groupe&gt;"><path id="a84c7f58-bf28-49a5-b903-821b107f6e67" data-name="&lt;Tracé&gt;" class="5b7e1701-4158-47e8-ae6e-e47a7467e09c" d="M565.35,378.11c-.5,2.4-2.4,7.9-6.3,9.6-5,2.2-9.6,2.9-26.3-7.9s-14.6-18.9-12.2-23.1,8.4-4.8,11.9-4.7,8.3,2.3,8.3,2.3a116.43,116.43,0,0,0-10.6-8.7c-3.1-2.3-9.3-6.5-15-10.5l.4,1s4.6,3.3,4.9,7.6-4.4,10.1-5.4,16.7c-.6,4.2,1.7,13.3,15.8,22.3,11.3,7.2,20.7,11.8,29,8.8s13.7-5.1,20.3-1.1a49.74,49.74,0,0,1,10.6,8.8,84,84,0,0,0-9.5-9.9" transform="translate(-7.3 -95.18)"/></g></g><path id="87a5a172-a68c-4662-bd61-45746f9826ce" data-name="&lt;Tracé&gt;" class="5b7e1701-4158-47e8-ae6e-e47a7467e09c" d="M552.35,361.11h-.1a19.84,19.84,0,0,1,.8,5.7c-.1,3.3-.9,8.1-3.1,10s-5.9,4.1-5.1,5.8,2.8,2,6.9-2.1c3.9-4,7-13.5,7.3-14.3C557.25,364.81,555,363,552.35,361.11Z" transform="translate(-7.3 -95.18)"/><g id="0c00bc25-d545-41a8-a570-77de366373d0" data-name="&lt;Groupe&gt;"><path id="12550867-1225-4ccc-bbc6-aadfb279f346" data-name="&lt;Tracé&gt;" class="5b7e1701-4158-47e8-ae6e-e47a7467e09c" d="M594.75,367.81l9.2-13.2,1.4,1.5c.4.4,3.8,4.1,3.9,7a9.69,9.69,0,0,1-.3,2.3c-.5,2.4-.7,4.3,1.1,5.7,1,.8,3,2.1,5.3,3.6,5.4,3.5,12.9,8.3,17.4,13.3l4.8,5.3Z" transform="translate(-7.3 -95.18)"/></g><path id="5b51a7d6-2735-4e44-8db0-994a052ac642" data-name="&lt;Tracé&gt;" class="5b7e1701-4158-47e8-ae6e-e47a7467e09c" d="M586.45,464.81c-6.9-4.3-9.8-6.4-10.4-8.1-1.3-3.4,1.4-4.8,4.2-6.2,1.1-.6,2.3-1.2,3.5-2l.1-.1c13.1-8.7,17.6-20.5,13.6-35.1h0c-3.2-11.4-17-23.3-17.1-23.4l-1.1-1,16.7-23.2,37.1,22.2.2.3c17.9,19.9,24.9,36.7,22.8,54.7-2.2,18.5-1,34-.2,44.3.7,9.9,1.1,14.4-1.5,15.3-4.1,1.5-11.9-3.4-26.1-12.4-4-2.5-8.6-5.4-13.6-8.4-6-3.7-11.5-6.9-16.3-9.8S589.55,466.71,586.45,464.81Z" transform="translate(-7.3 -95.18)"/><g id="992ccc6c-c78c-4189-b32f-9f647dffd711" data-name="&lt;Groupe&gt;"><g id="e63426b8-a2fa-429f-a7cd-6bf9c582f5c0" data-name="&lt;Groupe&gt;"><path id="f2b6fcd6-35f1-4c0a-b282-bb544a88e5af" data-name="&lt;Tracé&gt;" class="cd33958e-83d1-4928-a061-01f40e1eb18b" d="M582,390.91l-18.1-12.5.1-.7c0-.2.5-4.7-5.1-9.9-3.7-3.4-12.2-9.6-18.4-12.4l-.3-.2-.3-.3a95.65,95.65,0,0,0-10.4-8.5c-2.4-1.7-6.5-4.6-10.9-7.6-7.4-5.2-15.1-10.5-16.9-12.1-2.1-1.8-2.4-4.2-1-6.7l.8-1.4h0l.2-.3,88.7,60.7Z" transform="translate(-7.3 -95.18)"/></g></g><g id="441135b3-bc91-4e24-aa76-6965aebf96c0" data-name="&lt;Groupe&gt;"><polyline id="f73284cc-c22b-4b25-a509-8703f002fcf7" data-name="&lt;Tracé&gt;" class="328ad414-8e1c-4e59-a90b-432f3bf0f35a" points="502.45 215.18 555.55 248.33 580.65 212.03 525.35 177.93"/></g><g id="7cfbbe36-8476-426d-b486-8e8bfc5e3839" data-name="&lt;Groupe&gt;"><g id="520e8af7-149f-42b4-802d-238b71de9161" data-name="&lt;Groupe&gt;"><path id="2e663635-599b-4363-a653-780aec132a4a" data-name="&lt;Tracé&gt;" class="328ad414-8e1c-4e59-a90b-432f3bf0f35a" d="M530.25,278l28.1,17.3c1.8,1.3,4.4,4.5,1.8,8.2a4,4,0,0,1-3.4,1.7c-3.2.1-7.1-2.5-9.6-4.3a8,8,0,0,0-1.4-.9L526,288l-1.3-.8" transform="translate(-7.3 -95.18)"/></g><g id="01e22bfb-a063-44fa-9fd7-eef63da6c517" data-name="&lt;Groupe&gt;"><path id="b9360470-9764-4217-b34c-2f9d79ed6de5" data-name="&lt;Tracé&gt;" class="328ad414-8e1c-4e59-a90b-432f3bf0f35a" d="M519.25,295.81l28.1,17.3c1.8,1.3,4.4,4.5,1.8,8.2a4,4,0,0,1-3.4,1.7c-3.2.1-7.1-2.5-9.6-4.3a8,8,0,0,0-1.4-.9l-19.8-12-1.3-.8" transform="translate(-7.3 -95.18)"/></g></g><g id="2e002f6e-821c-4404-93de-63d599a5328c" data-name="&lt;Groupe&gt;"><polygon id="a47c5cd2-4183-4b02-a3ef-3e3e2cc2bb26" data-name="&lt;Tracé&gt;" class="cd33958e-83d1-4928-a061-01f40e1eb18b" points="569.65 227.83 547.45 214.13 544.85 218.43 566.85 231.93 569.65 227.83"/><path id="c5363a27-961b-4854-8b9c-fa54d0cc3c77" data-name="&lt;Tracé&gt;" class="328ad414-8e1c-4e59-a90b-432f3bf0f35a" d="M574.75,328.81l-24.5-15.1,3.7-6.1,24.8,15.3Z" transform="translate(-7.3 -95.18)"/></g><g id="0d8bdd2b-efd3-434b-8668-8f50c6f9bdbf" data-name="&lt;Groupe&gt;"><polygon id="313affc7-e917-4ae0-af63-286aebeaabdf" data-name="&lt;Tracé&gt;" class="cd33958e-83d1-4928-a061-01f40e1eb18b" points="558.45 243.93 537.15 230.83 534.75 234.83 556.15 247.73 558.45 243.93"/><path id="5bf85d0d-502c-45be-86f5-143eba1e8d2a" data-name="&lt;Tracé&gt;" class="328ad414-8e1c-4e59-a90b-432f3bf0f35a" d="M540.25,330.11l3.5-5.7,23.9,14.7-3.4,5.6Z" transform="translate(-7.3 -95.18)"/></g><g id="05a9b595-6abe-40ee-87c2-8f114021f0e6" data-name="&lt;Groupe&gt;"><polygon id="2d489149-0490-4162-a89b-30dc58b8131f" data-name="&lt;Tracé&gt;" class="cd33958e-83d1-4928-a061-01f40e1eb18b" points="578.85 210.83 557.55 197.73 555.15 201.73 576.55 214.63 578.85 210.83"/><path id="b352a9e4-816a-4e85-b245-cbe1b2854dd7" data-name="&lt;Tracé&gt;" class="328ad414-8e1c-4e59-a90b-432f3bf0f35a" d="M560.55,297l3.5-5.7L588,306l-3.4,5.6Z" transform="translate(-7.3 -95.18)"/></g><g id="a837429e-4815-4fd1-8f3c-5148c9085606" data-name="&lt;Groupe&gt;"><g id="de0376f8-1f58-498c-9914-6b5573215888" data-name="&lt;Groupe&gt;"><path id="b1c4f090-e207-4290-8e7a-56cc475660f9" data-name="&lt;Tracé&gt;" class="328ad414-8e1c-4e59-a90b-432f3bf0f35a" d="M561.05,344.11l26.6-39.2,1.4,1.8c9.1,11.8,11.3,23.5,5.9,31.1h0c-5.7,8-17.8,10.6-31.7,6.9Z" transform="translate(-7.3 -95.18)"/></g></g><g id="496ee288-3a7f-4586-aa83-1f7885190698" data-name="&lt;Groupe&gt;"><ellipse id="265d955c-6943-4e0c-bcec-2362ea984765" data-name="&lt;Tracé&gt;" class="cd33958e-83d1-4928-a061-01f40e1eb18b" cx="627.41" cy="437.74" rx="4.2" ry="6" transform="translate(-81.55 647.4) rotate(-58.39)"/><path id="685a616c-283e-48d1-973d-4bb2da29b592" data-name="&lt;Tracé transparent&gt;" class="cd33958e-83d1-4928-a061-01f40e1eb18b" d="M624.55,442.41c-3.6-2.2-5.3-6.2-3.7-8.7s5.8-2.9,9.5-.6,5.3,6.2,3.7,8.7S628.15,444.61,624.55,442.41Zm4.5-7.2c-2-1.2-4.3-1.1-5.1.3s0,3.5,2,4.7,4.3,1.1,5.1-.3S631,436.41,629.05,435.21Z" transform="translate(-7.3 -95.18)"/></g><g id="e1328b87-41db-464c-b5fc-51c7110fe1c8" data-name="&lt;Groupe&gt;"><ellipse id="059753da-a013-4692-aef9-a68b1768df5e" data-name="&lt;Tracé&gt;" class="cd33958e-83d1-4928-a061-01f40e1eb18b" cx="568.1" cy="357.73" rx="1.6" ry="2.3" transform="translate(-41.64 558.82) rotate(-58.39)"/><path id="dafbbac1-ace4-45db-97bc-bf93765205fb" data-name="&lt;Tracé transparent&gt;" class="cd33958e-83d1-4928-a061-01f40e1eb18b" d="M566.65,360.21c-1.9-1.2-2.8-3.3-2-4.6s3.1-1.5,5-.3,2.8,3.3,2,4.6S568.55,361.41,566.65,360.21Zm1.7-2.8a.58.58,0,0,0-.7,0,.45.45,0,0,0,.3.6.58.58,0,0,0,.7,0C568.75,357.81,568.55,357.51,568.35,357.41Z" transform="translate(-7.3 -95.18)"/></g><g id="b6121669-1aee-4d70-bd24-cb54ceab34fb" data-name="&lt;Groupe&gt;"><ellipse id="53afe2f0-8d90-4a81-8097-5af8130b77cd" data-name="&lt;Tracé&gt;" class="cd33958e-83d1-4928-a061-01f40e1eb18b" cx="589.76" cy="363.02" rx="1.6" ry="2.3" transform="translate(-35.84 579.79) rotate(-58.39)"/><path id="5d1102a0-1617-4fa2-97ac-36312f6b504e" data-name="&lt;Tracé transparent&gt;" class="cd33958e-83d1-4928-a061-01f40e1eb18b" d="M588.25,365.51c-1.9-1.2-2.8-3.3-2-4.6s3.1-1.5,5-.3,2.8,3.3,2,4.6S590.15,366.71,588.25,365.51Zm1.7-2.8a.58.58,0,0,0-.7,0,.45.45,0,0,0,.3.6.58.58,0,0,0,.7,0C590.35,363.21,590.25,362.91,590,362.71Z" transform="translate(-7.3 -95.18)"/></g><g id="06560bb8-714c-4dc0-b21b-9b8e18602117" data-name="&lt;Groupe&gt;"><path id="427c3106-8aca-4eb7-8c18-92333d4d3d10" data-name="&lt;Tracé&gt;" class="cd33958e-83d1-4928-a061-01f40e1eb18b" d="M494.05,283.21l-13.7-10a6.58,6.58,0,0,1-2.2-2.7,2.84,2.84,0,0,1,.5-2.7l.6-.8,17.9,11.3Z" transform="translate(-7.3 -95.18)"/></g></g><path class="db54516a-9988-4af4-9eff-2d08293f66c8" d="M476.46,131.92c1.47-4.22,3.63-7.66,6.18-9.52,13-9.42,27.59,22.38,35.54,54.48,9,36,18.85,80.6,35.34,82.36,10.6,1.18,20.32-17.87,25.92-41.53,1.47-6.38,2.16-13.15,3.83-19.93,11-44.47,18.46-24.64,24.93-6.87l48.1,132.33c27.09,90.51,84-192.41,85.6-228" transform="translate(-7.3 -95.18)"/><path class="db54516a-9988-4af4-9eff-2d08293f66c8" d="M273.34,131.92c-1.47-4.22-3.63-7.66-6.18-9.52-13-9.42-27.59,22.38-35.54,54.48-9,36-18.85,80.6-35.34,82.36-10.6,1.18-20.32-17.87-25.92-41.53-1.47-6.38-2.16-13.15-3.83-19.93-11-44.47-18.46-24.64-24.93-6.87L93.5,323.25c-27.09,90.51-84-192.41-85.6-228" transform="translate(-7.3 -95.18)"/></svg>