<svg id="a2ba62df-2b14-4fef-9afb-14f3be1644bb" data-name="Calque 1" xmlns="http://www.w3.org/2000/svg" width="803.73" height="368.13" viewBox="0 0 803.73 368.13"><defs><style>.\33 ffbb2db-e617-455e-86f9-a4c51cedf640,.\37 f309cc4-6e28-49f9-8e75-f5aabd7bd387{fill:#fff;}.\39 313a50b-9cd2-4fa9-ae24-aa9fe1be020a,.bd0e870d-c159-4b35-92ec-08ada84d7ee8{fill:none;}.\33 ffbb2db-e617-455e-86f9-a4c51cedf640,.\39 313a50b-9cd2-4fa9-ae24-aa9fe1be020a{stroke:#000;}.\33 ffbb2db-e617-455e-86f9-a4c51cedf640,.\39 313a50b-9cd2-4fa9-ae24-aa9fe1be020a,.bd0e870d-c159-4b35-92ec-08ada84d7ee8{stroke-miterlimit:10;}.bd0e870d-c159-4b35-92ec-08ada84d7ee8{stroke:#1d1d1b;}</style></defs><title>cowboys</title><path class="7f309cc4-6e28-49f9-8e75-f5aabd7bd387" d="M627.5,384.3c23.8-6.2,47.4-13.3,71-20.4,20.6-6.2,41.3-12.4,61.9-18.5,39.5-11.8,77.9-23.5,118.7-28-21.4-26.3-48.2-50.7-77.2-68.2-18.1-10.9-40.6-20-59.8-11.3-7,3.2-12.5,8.2-17.5,14l-.1-.1c-5.9-9.1-19.8-20.6-30.2-17.8-5.3,1.4-9.1,5.9-12.5,10.2l-29,36.2c-29.2,36.4-58.7,73.3-77,116.2C575.7,396.6,610.3,388.8,627.5,384.3Z" transform="translate(-319.65 -233.08)"/><path class="9313a50b-9cd2-4fa9-ae24-aa9fe1be020a" d="M575.7,396.6c18.3-42.9,47.9-79.8,77-116.2l29-36.2c3.4-4.3,7.2-8.8,12.5-10.2,10.5-2.8,24.4,8.9,30.3,17.9" transform="translate(-319.65 -233.08)"/><path class="9313a50b-9cd2-4fa9-ae24-aa9fe1be020a" d="M662.9,295.3A66.7,66.7,0,0,0,703.5,277c13.3-12.8,21.8-31.4,38.6-39,19.2-8.8,41.7.3,59.8,11.3,29,17.5,55.8,41.9,77.2,68.2" transform="translate(-319.65 -233.08)"/><path class="bd0e870d-c159-4b35-92ec-08ada84d7ee8" d="M599.9,351.5a74.31,74.31,0,0,1,17.8-7.7,214.15,214.15,0,0,1,138.3,3" transform="translate(-319.65 -233.08)"/><path class="3ffbb2db-e617-455e-86f9-a4c51cedf640" d="M629.6,570.5c-16.4-1.3-141.5.4-131.4-61.9,0,0,39.2-105,309-2.9,20.4,7.7,36.3,24.3,54.7,36.1a491.06,491.06,0,0,0,76.8,40c37,15.4,79.1,26.5,116.6,12.5,32.4-12.1,56.5-42.4,64.4-76.1s.6-70-16.5-100c-18.3-32.2-47.3-57.5-79.9-75.1-7.2-3.9-14.6-7.4-22.2-10.6a228.25,228.25,0,0,0-58.6-15.4c-61.4-7.5-122.8,10.4-182.1,28.2-20.6,6.2-41.3,12.4-61.9,18.5-23.6,7.1-47.2,14.1-71,20.4a1030.88,1030.88,0,0,1-181.3,30.4c-12.6,1-25.8,1.6-37.6-2.9-24.1-9.3-36.9-37.8-61.3-46.3-5.6-1.9-12.2-2.6-17.2.5-6.2,3.8-8.2,11.9-9,19.1-4.6,39.8,7.8,80.6,29.9,114s50,67.5,87.9,80.7C521.9,609,629.6,570.5,629.6,570.5Z" transform="translate(-319.65 -233.08)"/><path d="M895.2,561.5c-11.5-6.1-22.7-12.6-33.6-19.6-18.4-11.8-34.2-28.4-54.7-36.1-269.7-102.2-309,2.9-309,2.9-10,62.3,116,60.6,132.4,61.9a74.41,74.41,0,0,0,18.3-5.8c14.6-6.6,27.3-16.7,42.7-21.1,31.4-9,64.6,2,96.7,8.3,34.3,6.8,72.3,8.1,107.2,9.5Z" transform="translate(-319.65 -233.08)"/><path d="M698.5,364c-23.6,7.1-47.2,14.1-71,20.4-17.2,4.5-51.8,12.3-51.8,12.3a315,315,0,0,1,24.2-45.1,74.31,74.31,0,0,1,17.8-7.7c45.2-14.5,95.5-14.2,139.9,2.5C757.5,346.3,718.1,358.1,698.5,364Z" transform="translate(-319.65 -233.08)"/><path class="9313a50b-9cd2-4fa9-ae24-aa9fe1be020a" d="M746.5,383.3a490.9,490.9,0,0,0,116.8-3.5c28.6-4.3,57.2-11.2,86.1-10.1s59.3,11.6,76.1,35.2c14.3,20.1,16.5,46.1,18.3,70.7" transform="translate(-319.65 -233.08)"/><path class="9313a50b-9cd2-4fa9-ae24-aa9fe1be020a" d="M431.2,453.4c13.3,24,26.8,48.3,45.8,68.2s44.4,35,71.9,35.8" transform="translate(-319.65 -233.08)"/></svg>