<svg id="01477b07-83ff-4010-9bb3-8a51af032b1d" data-name="Calque 1" xmlns="http://www.w3.org/2000/svg" width="696.82" height="676.46" viewBox="0 0 696.82 676.46"><defs><style>.\30 dfe68a0-7380-4eb5-81cb-652986febef9,.\33 e50bb1e-b708-463c-a8a6-fc1646776182{stroke:#fff;}.\30 dfe68a0-7380-4eb5-81cb-652986febef9,.\33 e50bb1e-b708-463c-a8a6-fc1646776182,.b763c7a3-943f-4115-bda9-62580db67db3{stroke-miterlimit:10;}.\33 e50bb1e-b708-463c-a8a6-fc1646776182{fill:none;}.b763c7a3-943f-4115-bda9-62580db67db3{fill:#fff;stroke:#000;}</style></defs><title>dance</title><path class="0dfe68a0-7380-4eb5-81cb-652986febef9" d="M999.9,193.1c-.2-3.2-1.9-6.6-2.9-9.6-1.3-3.7-3.6-4-6.9-4.6-2.4-.4-4.8-1.2-7.2-1.6-2.1-.3-2.4-1.7-4.1-2.7a33.92,33.92,0,0,1-3.9-2.7,67.37,67.37,0,0,0-8.2-5.8c-7.2-4.3-12.4-11.9-19.4-16.6-3.1-2.1-5.8-4.3-8.9-6.2-3.9-2.4-7.8-4.7-11.7-7.1-9-5.4-17.9-11.1-27.3-15.7a96.94,96.94,0,0,1-10.3-6.2c-3.1-1.9-6.6-3.2-9-6.1-1.6-2-1.3-2.5-3.7-1.8-2,.6-4,.8-6.1,1.3-1.8.4-26.9-.1-28.6-.7-3-1-6-2.2-9-3-3.5-1-7.2-2-10.7-2.7-2.1-.4-3.9.1-6.1-.6-2.6-.8-5.2-1.2-7.8-1.9-3.9-1.1-7-3.9-10.7-5.5-3.5-1.5-8.2-4.4-12.2-3.6-3.6.8-7.8,3.5-10.9,5.4-4.2,2.4-8.5,4.2-12.7,6.7-1.7,1-3.5,1.6-5.1,2.7-2.1,1.4-6.1,4.1-6.1,4.1-1.3.2-2.2-.5-3.3-.7-1.4-.3-2.7-.1-4.1-.4-2.1-.4-3.9-1.7-5.9-2.3-2.6-.7-5.3-1.3-7.9-1.8-1.2-.2-2.7.1-3.8-.3s-1.6-1.3-2.7-1.6a64.22,64.22,0,0,0-8.7-1.9,79.07,79.07,0,0,1-8.2-1.6c-5.4-1-11.9-.3-17.4-.2-4.3.1-8.8,1.3-13,2.5-4.5,1.2-9,2-13.4,3.1-7.5,1.9-19.9,2.7-27.9,2.7l25.6,15.2c2.8,0,4.7-3.3,7.5-2.9,2.2.3,4.3,1.3,6.5,1.8a41.6,41.6,0,0,1,6.7,1.8c3.5,1.4,7.1,2.9,10.7,4.1,3.2,1,7,2.8,10.4,3.1a66.89,66.89,0,0,0,8.9.8h8.3c2.8,0,6.3.5,9.1-.1,2.1-.4,42.4-2.5,65.7-3.6h0l-18.6,73.4c7.7,0,16.2-1,23.6,1,3.6,1,7.1,1.3,10.8,2.1a52.7,52.7,0,0,0,6.9,1.4c1,.1,2.2-.3,3.2-.1s1.8.8,2.8.9l-7.2,2.7c-2-.6-4.9,2.4-6.5,3.5a64.65,64.65,0,0,0-6.7,6.1,46.9,46.9,0,0,0-9.7,13.3,36.48,36.48,0,0,0-3.9,16.2c0,4.3,1,10.1-.1,14.3-.9.5-1.7-.5-2.6-.7a12.89,12.89,0,0,0-2.8.1h-9.1c-2,0-4.1-.3-6,.2-2.9.8-5.9.8-8.9,1.4-5,1-11,.2-16.1.2-3.4,0-6.5,1-9.8,1.6a42.69,42.69,0,0,0-10.5,2.7,31.4,31.4,0,0,1-3.7,1.8,15.72,15.72,0,0,0-3.5,1.1c-1.2.7-1.7,2-2.8,2.8a31.67,31.67,0,0,1-3.8,1.7c-3.1,1.6-5.7,4-8.9,5.4s-6.8,3-9.7,5.4c-4.9,3.9-9.3,6.2-11.4,12.5-1.5,4.5-3.3,9-4.7,13.4-.8,2.7-1.9,5.1-2.5,7.9s.6,3.2,2.5,5.3a23.66,23.66,0,0,0,3.4,2.9c1.3,1.1,1.8,2.4,2.9,3.4a16.47,16.47,0,0,0,2.7,1.9c1.9,1.4,3.1,3.6,4.7,5.2,5.2,5.2,11.5,9.1,16.7,14.4,1.7,1.7,4,3.4,5.3,5.5,1.5,2.4,2.8,4.8,4.5,7.2a57.26,57.26,0,0,0,4.7,6.3c2.1,2.2,4.4,4.1,6.2,6.4,4.8,6.2,10.7,11.4,16.3,17a81.38,81.38,0,0,1,12.6,16.1A65.54,65.54,0,0,1,758,418c1.5,3.4,2.5,7,3.8,10.6.7,2,1.5,3.6,1.6,5.7.1,3.3,1,6.4.9,9.7a24.67,24.67,0,0,0,.2,4.7c.2,1.4,1.3,2.9.6,4.3-1,2-4.6,3-6.2,4.4a69.42,69.42,0,0,0-11.1,13.1c-2.4,3.5-4.3,7.4-6.8,10.9-2.2,3.1-5.2,5.4-7.3,8.5-1.4,2.1-3.9,5.4-4.2,8.1-.2,1.2.3,1.9.8,3.2a54.4,54.4,0,0,1,2.6,9.8c1,6.5,1.3,13,2.2,19.5,1.1,8.1.2,16.2,1.3,24.2.4,2.4-.8,6.5,1.2,8.2,1.6,1.4,4.9,1.3,6.8,1.9,2.1.6,3.7,1.9,5.8,2.5,3.2.9,6.5,1.2,9.7,2,1.4.4,5.8,1.7,7,.3.9-1,.1-6,.1-7.5,0-9.6.1-19.2,0-28.7a114,114,0,0,1,3.3-27.3,72,72,0,0,1,3.6-12,55.69,55.69,0,0,1,5.5-10.2c5-7,10.6-13.9,16.2-20.3,1.8-2.1,3.3-4.3,5.3-6.3,2.9-2.9,5.3-6.2,8.5-8.7,6.4-4.9,10.4-12.2,15.7-18.1,2.7-3,4.6-6.6,6.9-9.9s5.2-6.6,7.4-10a67.88,67.88,0,0,0,9.1-24.1c.6-3.3,2-6.6,2.5-9.8.7-4.4.5-9.1,2.1-13.4,2.9-7.7,5.4-15.4,7.7-23.3a89,89,0,0,1,4.7-12.1c2.7-6.3,4.4-12.9,6.7-19.4,2.6-7.3,5.5-14.6,8.3-21.9,1.8-4.7,2.6-9.7,4.5-14.3,1.5-3.5,3.5-6.5,3.6-10.4.5-18.8-.5-37.5.7-56.2.3-4.6.2-9.1.2-13.7,0-2.1.4-4.9-.1-7a46,46,0,0,0-5.2-12.8c-3.6-6-9-8.6-15.4-10.7-3.3-1.1-6.5-2.1-9.8-3.2-1.4-.5-1.1-7-2.4-7.6-.5-.2-5.8-2.8-13-6.5,2.5-.3,4.9-.7,7.4-1.2a46.18,46.18,0,0,1,6.5-.6c2.1-.1,3.8-.9,5.8-1.4,3.4-.9,7.1-1.4,10.5-2,2.7-.5,5.7-.2,8.5-.2,3,0,7-.8,9.9,0s5.3,4.8,6.6,7.3c1.6,3,3.9,6.9,6.8,8.7,5.2,3.1,10.4,6.3,15.6,9.5,2.9,1.7,6.5,2.5,9.1,4.5,2.1,1.6,3.8,3.2,6.3,4a15.8,15.8,0,0,1,3.6,1.4c2.8,1.8,5,4.7,7.8,6.6,3.7,2.5,5.9,6,9.2,9,2.2,2,4.4,4.6,6.8,6.3,2.2,1.6,4.8,2.7,7,4.3,1.5,1,3,2,4.5,2.9s2.9,1.7,4.4,2.6,3.5,1.3,4.9,2.3,1.3,2.5,3.1,3a3.9,3.9,0,0,0,3.6-.8c3.2-2,5.9-3.7,7.3-7.2A27.55,27.55,0,0,0,999.9,193.1ZM823.5,301.7c-.7,1.4-1.7,2.7-2.5,4.1s-1.9,2.4-2.7,3.8-1.3,3.1-2.3,4.6a63.84,63.84,0,0,0-8.9,19.7c-1.3,5-.4,11.1-.4,16.2a31.73,31.73,0,0,0,3.1,13.9,64.73,64.73,0,0,0,4.9,8.5c1.3,1.9,5.9,5.5,4.2,7.9-.3.5-2.7,1.4-3.3,1.7-1.3.8-2.8,1.2-4.2,2-2.7,1.4-6,2.6-8.3,4.5-2.6,2.2-4.4,5.4-6.4,8s-3.8,5.4-5.9,8.1a32,32,0,0,0-4,7.8c-1,2.6-2.7,5.9-2.4,8.8-1-2.3-1.7-4.5-2.9-6.7s-1.4-3.9-2.2-6.1c-.6-1.8-1.8-3.4-2.5-5.1a25.35,25.35,0,0,0-2.2-5.1c-2.5-4-4.2-8.3-6.8-12.3a72.06,72.06,0,0,0-4.7-6.2c-1.8-2.3-2.8-5-4.7-7.2a154.59,154.59,0,0,1-10.7-13.5c-3.1-4.6-5.4-9.8-9.4-13.7-2.2-2.1-4-4.3-6.7-5.8l-6.3-3.6c-1.9-1.1-3.9-2.1-5.8-3.2-1.7-1.1-3.8-2.7-5.8-3l-11.6-.9c2.5,0,4.8.3,7.1-.6a33.29,33.29,0,0,1,7-2.1c4.7-.8,9.7-2.3,14.5-2.6,2.2-.2,4-1.3,6.1-1.9,1.3-.4,2.5-.6,3.8-1.1,2.4-.9,4.6-2.4,7-3.2,6.1-2,11.3-5.1,16.7-8.7a79.13,79.13,0,0,0,8.5-6.8,48,48,0,0,1,6.8-5.3,18,18,0,0,0,3.9-2.7c.9-.7,2.6-2.6,3.6-2.6,2.1-.1,4.5,2.2,6.8,2.6,5.3.9,10.6,2.5,16,2.7,2.2.1,4.4,0,6.7,0a17.73,17.73,0,0,0,8.1-1.8l1.5,3C824.5,298.4,824.3,300.2,823.5,301.7Z" transform="translate(-345.68 -89.06)"/><path class="0dfe68a0-7380-4eb5-81cb-652986febef9" d="M519.9,202.7a25.35,25.35,0,0,0,2.9.4,13.59,13.59,0,0,1,3.5.7c1,.2,1.9.2,2.9.4,1.4.3,2.9.3,4.3.6s2.9.4,4.3.7a14.62,14.62,0,0,1,2,.5c1.1.3,2.2.3,3.2.6a49.44,49.44,0,0,0,5.5,1.5c1.4.3,2.8.7,4.2.9a23.25,23.25,0,0,1,2.8.5c1.2.4,2.3,1,3.5,1.4.6.2,1.2.2,1.8.4.9.3,1.7,1,2.6,1.4,1.5.7,3.2,1.3,4.6,2.1,1,.7,2.2,1.1,3.2,1.7a14.48,14.48,0,0,1,1.8,1.7c.6.5,1.4.9,2,1.4,2.5,1.8,3.8,4.6,5.2,7.2a11.22,11.22,0,0,1,.8,2.6,25.61,25.61,0,0,1,.3,3.9,15.53,15.53,0,0,1,.4,2.1V241c0,2.9.3,6.1-.3,8.9-.4,1.8-.8,3.5-1.3,5.3-.4,1.4-1.2,2.3-2.7,1.8-.7-.2-1.1-.9-1.7-1.1a6.08,6.08,0,0,0-1.9-.1,106.6,106.6,0,0,0-11.3-.3h-8.7c-2.5,0-5.3.4-7.7-.1a44.27,44.27,0,0,1-8.8-2.5c-1.7-.7-3.6-1.1-5.1-2.1-2.5-1.6-4.7-3.5-7-5.3-1.7-1.3-2.6-3.1-3.8-4.8a14.75,14.75,0,0,1-2.5-4.4c-.5-1.8-1.3-3.3-1.5-5.1-.3-2.5-.9-5-1.1-7.5-.3-3.6,0-7.3,0-11v-2a17.15,17.15,0,0,1,.4-2.4,5.09,5.09,0,0,1,.7-1.7,21.86,21.86,0,0,0,.9-2.3Z" transform="translate(-345.68 -89.06)"/><path class="0dfe68a0-7380-4eb5-81cb-652986febef9" d="M976.8,275.6a3.41,3.41,0,0,1-1,2.1Z" transform="translate(-345.68 -89.06)"/><path class="0dfe68a0-7380-4eb5-81cb-652986febef9" d="M1009.4,326.9c-.3,1.2-2.3,2.7-3.2,3.5-1.5,1.4-3.4,2.2-5.1,3.4-1.5,1-2.7,2.3-4.2,3.3-2.3,1.7-4.3,3.6-6.5,5.4-2,1.6-3.7,3.6-5.6,5.4-1.2,1.2-2.4,2.2-3.5,3.5a91.06,91.06,0,0,1-11.4,11c-1.6,1.3-3.1,2.8-4.7,4.1a50.71,50.71,0,0,0-4.4,3.7c-2.2,2.2-5.5,3.1-7.8,5.2-1.4,1.3-2.9,2.4-4.3,3.7-1,.9-1.9,2-2.9,2.9a31.56,31.56,0,0,1-2.9,2.2c-2.5,1.9-5.6,2.4-8.6,2.9a37,37,0,0,1-5.8.3h-1.8a8.84,8.84,0,0,1-2.3,0c-.3-.1-.4-.4-.5-.8a13.57,13.57,0,0,1,0-3.5V382c1-.5,1.9-.9,2.9-1.4,16.7-8.2,33.2-18.6,42.9-34.2,3.4-5.5,7.6-8.8,11.9-13.3,1.9-2,3.7-2.5,6-3.8s3.6-2.9,5.9-3.9c3.7-1.6,7.2-1.4,11.2-1.4,1.8,0,3.5-.1,4.8-.1v1A6.56,6.56,0,0,1,1009.4,326.9Z" transform="translate(-345.68 -89.06)"/><path class="0dfe68a0-7380-4eb5-81cb-652986febef9" d="M432.8,485.1c-.5,2.6,1.4,3.5,2.7,5.2.6.8.5,1.6,1,2.5.7,1.1,1.5,1.9,2.2,3,2.6,4.2,4.1,9.2,6.3,13.6a86.22,86.22,0,0,0,8.1,12.5,43.33,43.33,0,0,1,4.1,6.1c1.7,3.2,4.7,5.2,7,7.9,4,4.6,7.5,9.5,11.5,14.1a82.1,82.1,0,0,0,5.9,5.9c2.5,2.3,4.2,5,6.8,7,1.6,1.3,3.7,3.2,4.4,5.2s.9,3.7,1.9,5.6c2.4,4.6,4.1,9.6,6.3,14.3,4.5,9.5,12.2,17.1,17.9,25.7,1.9,2.8,4.5,5,6.4,7.8a84.42,84.42,0,0,0,5.2,7c3.9,4.7,7.4,9.7,11.4,14.4,3.5,4.1,5.9,9.4,9.7,13.1,2.2,2.1,4,4.3,6.1,6.5,2.4,2.5,5,4.8,7.3,7.2,2.8,2.9.7,8.7,1.2,12.5.6,4.7,1.4,9.2,1.7,13.9a88.48,88.48,0,0,0,1.1,9c.4,2.2.4,4.3.8,6.5.8,5.2,1,10.5,1.6,15.8.5,4.4,0,8.9.1,13.3.1,2.5.2,3.5-2.6,3.7-2,.1-4.1-.4-6.1-.1-4,.6-7.6,3.5-11,5.3-1.4.7-4.7,2.3-4.4,4.4.3,1.8,4.4,3.3,5.8,4.1,3.7,2.1,7.4,4.5,11.2,6.4,3,1.5,1.9-.6,4.5-1.7,1.6-.7,4.2-.1,5.9-.1,2.1,0,4.2.1,6.3,0a8.09,8.09,0,0,0,6.2-3.7c1.3-1.9,1.9-4.6,3-6.7a121.39,121.39,0,0,0,4.8-11.8c2.5-7,6.9-13.1,9.7-19.9,1.3-3.2,2.2-6.5,3.4-9.8a68.84,68.84,0,0,0,3.4-10.9c.8-4.4,1.9-8.9,1.8-13.4,0-1.5.6-4.5-.1-5.9-.8-1.7-3.8-2.8-5.3-3.9-2-1.4-3.8-3.3-5.7-4.9-1.8-1.4-2.6-3-4.1-4.7s-3.5-2.6-5-4.2c-2.3-2.3-4.1-3.9-5.2-7-1.7-4.9-2.8-10.1-5.1-14.7a101.88,101.88,0,0,1-5.2-13.3c-1.7-5.3-4.3-10.2-6-15.5-1.3-4.2-4-6.7-7.2-9.7s-5.7-6.4-8.7-9.4c-3.7-3.7-8.3-7-12.3-10.2-3.1-2.5-5.9-5.3-8.7-8s-3.4-4.9-3.4-8.8a61.16,61.16,0,0,0-2-13.3c-1.2-4.8-2.1-9.3-2.9-14.2-1.1-6.5-2-13.1-3.2-19.6-.7-3.9-.6-7.8-1.1-11.7s-.5-8.2-2.2-11.8a51.86,51.86,0,0,1-3.1-8.6,34.59,34.59,0,0,0-2.2-6.9c-1.1-2.2-1.7-5.6-3.5-7.1l5.2-12.2c5.4-5.4,10.5-12.5,10.5-20.4V428.6a28.94,28.94,0,0,0-.4-6.6c-.4-1.6-.1-3.2-.4-4.7-.9-4.1-5.6-6.4-8.4-9.2-1.7-1.7-3.6-2.8-5.2-4.7a22,22,0,0,0-5.8-5.1c-5-3.3-8.9-8.1-13.1-12.4-3.2-3.3-3.5-5.3-3.5-9.6l-.9-7c1.2-1.2,1.5-3.1,2.6-4.4,1-1.1,2.2-2.2,3.3-3.2a57.22,57.22,0,0,1,9.6-8.1c6-3.9,12-7.3,17-12.4a15,15,0,0,1,4.2-3.3c2.2-1.2,3.5-2.7,5.3-4.4,2.6-2.5,5.9-4.1,8.5-6.7,1.3-1.3,2.5-2.6,3.9-3.8a31.25,31.25,0,0,0,4.3-4.6c2.7-3,5.7-5.7,8.6-8.5l-7.9-19.2c-.3,2.1,2.5,3.6,3.5,5a20.82,20.82,0,0,0,5.2,5.5A64.59,64.59,0,0,1,566,309c2.8,2.8,5.9,5.1,8.7,7.8,3.4,3.2,7,5.7,10.5,8.7,1.5,1.3,2.7,3.1,4.4,4.2a50,50,0,0,1,4.8,3.2c3.5,3,7.4,5.6,11.1,8.3s7.7,5.1,11.1,8.4a32.76,32.76,0,0,0,4.8,4.3,37.41,37.41,0,0,1,5.9,4.6c3.6,3.4,8,6,11.6,9.4a36.11,36.11,0,0,0,9.3,6.7c3.7,1.8,6.4,4.6,9.8,6.8a51.81,51.81,0,0,0,9.2,4.4c6.1,2.2,12.2,5.5,18.6,7a27.45,27.45,0,0,1,4.1,1.1c1.4.5,3.5.4,4.7,1.1,1.4.8,2.5,2.4,3.6,3.5,2.2,2.1,4.8,3.6,7.2,5.4,3.2,2.4,7.1,3,10.6,4.9a30.83,30.83,0,0,0,10.3,3.9,48.07,48.07,0,0,0,9.3.9c2.2,0,9.9,1.3,11.5-.8,1-1.3.3-4.3.3-5.8v-4.3c0-2.1,0-2.5-1.3-4-.4-.5-1-.5-1.3-1.2s0-2,0-2.9c0-4.1,1.8-7.6,1.8-11.6-.1-4.7-3-6.6-7.7-7-7-.6-14.3-1.9-21.1.3a96.3,96.3,0,0,0-10,4.2,29.25,29.25,0,0,1-3.6,1.7c-1.7.4-3.7,0-5.4.1-9.1.1-17.4-9-23.8-14.9-1.3-1.2-2.5-2.6-3.8-3.9-1.9-1.9-4-2.6-6.5-3.5-4.9-1.8-9.9-3.2-14.9-5-4.5-1.6-9.2-2.7-12.2-6.8-2.5-3.4-3.7-8.1-5.7-11.8a128.26,128.26,0,0,0-7.4-11.7,37.06,37.06,0,0,1-4.6-9.1c-1.9-5.1-4.5-9.9-6-15.1-2.6-9.5-6.3-18.6-9.6-27.8s-12.7-15.4-20.8-20c-4.4-2.5-8.5-5.7-13.3-7.4a77.55,77.55,0,0,1-9.7-4.4c-1.9-1-4.3-1-5.9-2.6l-27.9-6.1c-.2,0-.5-.1-.7-.1-.7-2.4-.2-5.7-.1-8.2a56.72,56.72,0,0,0-.7-8.2c-.5-3.5,0-7-.7-10.5-.8-4.1-2.1-8-2.8-12.2-1-6-3.2-11.9-3.6-18-.2-3.1-.3-6.2-.2-9.3,0-2-.7-5.8.4-7.6.4-.7,1-.9,1.7-1.3,3.5-1.8,7.4-2.9,11-5,10.3-5.9,19-14.3,28.7-21.1,5-3.5,13.7-10.5,20.2-10.1s17.2,7.4,22.8,10.7c8.3,5,11.2,11.2,21.4,10.9,4.5-.1,7.3.3,10.9-2.6s2.8-9.3,5.4-11.4,7-.3,9.9-1.2,3.9-5.5,8.9-5.6c-18-20.8-47.6-23-73.8-22.7-16.2.2-33.8,7-48,14.9-13,7.3-34.7,17.9-42.5,31-6.2,10.6-5.5,28.4-6.6,40.5-.9,9.1-1.9,18.3-3.1,27.4a31.05,31.05,0,0,1-.8,4.2,10.48,10.48,0,0,1-3.6,5.2,68.42,68.42,0,0,1-7.2,4.7,100.06,100.06,0,0,0-10.3,8.2,108.92,108.92,0,0,0-8.8,7.8c-2.3,2.4-4.7,4.5-7,6.9a109.08,109.08,0,0,0-10.2,13.3c-3.1,4.7-7.2,8.9-9.9,13.8-1.4,2.7-3.5,5-4.8,7.8a7.44,7.44,0,0,0-.7,3.7,81.69,81.69,0,0,1-.9,8.5c-.3,3.4-1.3,6.6-1.6,10-.4,4.4-1.2,8.5-2,12.9-1,5.2-2,10.7-3.3,15.8s-.7,10.3-1.5,15.5c-1.8,12.1-1.9,24.2-1.9,36.4,0,7.1.1,14.2,0,21.3,0,1.9.4,1.9,1.1,3.4a50.12,50.12,0,0,1,1.7,5.5c1.1,3.2,1.9,6.4,3.2,9.6,1.9,4.7,4.5,9,6.2,13.8a77.52,77.52,0,0,0,5.4,13,21.52,21.52,0,0,1,2.4,5.6,12.44,12.44,0,0,1-1.6,8.8c-1.9,3.5-4.3,6.7-6.2,10.2-2.3,4.1-4.2,8.5-6.9,12.4-3.3,4.6-6.4,9.4-9.9,13.9-2.9,3.7-6.2,6.9-9,10.6-3.1,4.1-5.5,8.8-8.5,12.9-1.7,2.4-1,3.5-1.4,6-.7,3.7-2.3,7.2-2.7,11a251.14,251.14,0,0,1-3.5,27.1c-1.3,6.6-2,13.1-2.8,19.8-.6,4.9-2.1,9.6-2.4,14.5-.2,3.7-.9,7.3-1,11-.1,3.5.1,6.7-.6,10.2a194.55,194.55,0,0,0-2.9,20.1c-.4,5.2-1.2,10.5-1.9,15.7a44.29,44.29,0,0,1-1.7,7.4c-.5,1.5-1.9,2.9-2.6,4.3a71.53,71.53,0,0,1-6.4,10.1,104.38,104.38,0,0,0-6.5,9.4c-1.7,2.7-5.7,5.1-6,8.5,1.1.8,2.2.8,3.4,1.2,1.7.7,3,2.1,4.7,2.8a69,69,0,0,1,9.5,5.5c4.6,2.9,9,6.3,13.6,8.9,1.8-2.5,2.2-6.6,2.9-9.6s1.2-6.1,2.2-9.1c2.8-8.9,6.7-18.4,11.8-26.2,1-1.5,1.6-3.2,2.6-4.7,1.2-1.8,2.8-3,3.5-5.3a20.89,20.89,0,0,0,.9-6.7,72.69,72.69,0,0,1,1-13.2c.3-2.1.9-4.1,1.2-6.2.3-1.8.1-3.8.5-5.6.6-2.7,1.1-5.6,2.5-8.1,4.4-7.5,8.6-15.2,13.1-22.7,1.3-2.2,2.7-4.2,4.1-6.3,1.9-2.6,3-5.7,4.8-8.4a65.68,65.68,0,0,0,6.3-10.9c.9-2.1.4-5.1.4-7.4,0-5.7,1.3-11.2,1.8-16.8.2-2.3.4-5.9,1.9-7.8,1.9-2.5,4.7-5,6.8-7.5,2.5-2.8,5.4-5.3,7.9-8.1,1-1.1,2.2-1.4,3.3-2.4.7-.7,1-2.1,1.7-2.3.1.3.1.5.2.8" transform="translate(-345.68 -89.06)"/><path class="3e50bb1e-b708-463c-a8a6-fc1646776182" d="M459,373.4c4.9,2.6,8.3,7.8,13.1,10.8a40.74,40.74,0,0,1,6.5,5.3c2.8,2.7,6.3,4.8,9,7.6a82.93,82.93,0,0,1,6.3,7A26.4,26.4,0,0,0,496,407c.9.9,2.1,1.3,2.9,2.1,1,1,1.2,1.9,2,3,.7.9,1.7,1.4,2.4,2.3,1.3,1.8,1,3.9,1,6,0,4.7.9,9,.9,13.6v11.8a69.93,69.93,0,0,1-.8,11.3c-.3,2-.9,3.6-.9,5.7,0,1.8-1.2,4-.9,5.6" transform="translate(-345.68 -89.06)"/><path class="b763c7a3-943f-4115-bda9-62580db67db3" d="M526.2,204.1c5.7,0,11-.9,16.8-.9,2.8,0,6.5.6,9.2.1,1.7-.4,2.5-1.4,3.7-2.7,1.6-1.7,2.8-2,4.7-3.1,2.9-1.8,5.2-4.1,8.4-5.6,3.7-1.8,7.4-3.7,10.9-5.8,2.7-1.6,5.5-3.9,8.6-4.6a12,12,0,0,1,5,.1,33.76,33.76,0,0,0,6.3.7,28.67,28.67,0,0,1,7.1,1.3c3.6.9,7.2,1.7,10.7,2.8a27.74,27.74,0,0,1,8.5,4.9c3.7,2.8,7.3,5.3,10.1,9.1,2.4,3.2,2.6,4.9,2.6,8.9a31.8,31.8,0,0,1-1.1,9.7c-.7,2.2-.8,4.3-2.4,6-1.3,1.4-2.6,1.5-4.2,2.5-3.1,1.9-6.4,5.9-8.5,8.8-2.8,3.7-5.4,7.8-8.3,11.4-2.7,3.3-6.2,2.4-9.9,2.5-5.7.3-11.1,2.1-16.9,1.9a26.35,26.35,0,0,1-2.8-.2,7,7,0,0,1-3.7-1.4,10.37,10.37,0,0,1-2.8-4.1c-.8-2.3,0-5.1-.6-7.5-.7-2.6-.6-5.4-1.4-8a21.43,21.43,0,0,0-11.1-12c-4.2-2-8.3-3.7-12.5-5.7-2-1-4.3-1.3-6.3-2.4-2.3-1.4-5.2-2.1-7.7-3-3.1-1.1-6.6-3.5-9.9-3.8-1-.1-2.1.1-3.1.1h.4" transform="translate(-345.68 -89.06)"/><path class="3e50bb1e-b708-463c-a8a6-fc1646776182" d="M508.1,347.3a31.72,31.72,0,0,1,3.2-13.8c1.1-2.4,2.7-4.5,3.5-7.1a38.27,38.27,0,0,1,2.2-6.5,33.47,33.47,0,0,0,2.7-7.7,45,45,0,0,1,2-5.1c1.9-4.4,2.7-10.4,3.3-15.2" transform="translate(-345.68 -89.06)"/><path class="3e50bb1e-b708-463c-a8a6-fc1646776182" d="M840.7,192.6A69.43,69.43,0,0,1,856.6,216c1.8,4.4,1.1,9.5,1.1,14.2,0,4,.5,8.2-.9,12-.6,1.7-.8,3.4-1.7,5-1.2,2.1-2.3,4.4-3.6,6.5-2.6,4.4-6.3,8.2-9.2,12.3-5.3,7.6-15.2,11.6-23.9,13.4" transform="translate(-345.68 -89.06)"/><path d="M826.4,298.1l-.3-.5a.1.1,0,0,0,.1-.1A1.42,1.42,0,0,1,826.4,298.1Z" transform="translate(-345.68 -89.06)"/><path class="3e50bb1e-b708-463c-a8a6-fc1646776182" d="M802.3,172.9c1.2,1.1,2.5,1.7,3.6,2.9.7.8,1,1.8,1.7,2.6a13,13,0,0,0,5.4,3.5c4.1.9,9,0,13.2,0,9.4.2,9.1-12.7,9.1-19.7" transform="translate(-345.68 -89.06)"/><path class="0dfe68a0-7380-4eb5-81cb-652986febef9" d="M1009.2,322.5c-.1-.7,0-1.3-.1-2a14.14,14.14,0,0,0-.6-2.2c-.1-.6,0-1.3-.1-1.9a11.5,11.5,0,0,1-.2-3.2,16,16,0,0,0-1.2-3.7,21,21,0,0,0-1.3-2.6c-.3-.7-.5-1.5-.8-2.1-.6-1.4-1.3-2.9-1.8-4.3a20.74,20.74,0,0,1-1-3.3c-.2-.7-.6-1.3-.8-2s-.5-1.5-.8-2.2c-.6-1.7-1.5-3.3-2.1-4.9a36.53,36.53,0,0,0-1.8-3.4c-.4-.8-.7-1.8-1.2-2.6a9.43,9.43,0,0,0-3.8-4.1l-2.7-1a15.19,15.19,0,0,0-2-.6,21.59,21.59,0,0,0-4.4-.1H977l-.3-1.3c.2-.7,0-1.1-.4-1a18.6,18.6,0,0,1-1.6,4.5c-2.1,1.6-5.4,2.9-7.4,3.8s-6.7.1-9.2,0-5.5-.4-8.1.3c-1.9.5-3.1,1.7-4.8,2.6-1.4.7-3.4.8-4.6,1.6-1.6,1-2.4,2.7-3.4,4.3-1.3,1.8-3.1,3.4-4.3,5.2-1.8,2.6-1.3,5.6-1.3,8.7v19.3c0,2.7.1,4.5-1,6.9-1.7,3.9-2.1,7.9-3.7,11.8a74.87,74.87,0,0,0-3.3,11.7c-.8,3.3-2.4,5.8-3.5,9a82.07,82.07,0,0,0-3.6,21.6c2.4-1.1,4.9-2.2,7.3-3.4,1-.5,1.9-.9,2.9-1.4,16.7-8.2,33.2-18.6,42.9-34.2,3.4-5.5,7.6-8.8,11.9-13.3,1.9-2,3.7-2.5,6-3.8s3.6-2.9,5.9-3.9c3.7-1.6,7.2-1.4,11.2-1.4,1.8,0,3.5-.1,4.8-.1A8.34,8.34,0,0,0,1009.2,322.5Zm-33.4-44.9,1-2.1A3,3,0,0,1,975.8,277.6Z" transform="translate(-345.68 -89.06)"/><path class="0dfe68a0-7380-4eb5-81cb-652986febef9" d="M926.7,380.6l-2.9,6-7.6,15.9c0-5.6-.1-11.4.2-17.1,2.4-1.1,4.9-2.2,7.3-3.4C924.8,381.5,925.8,381,926.7,380.6Z" transform="translate(-345.68 -89.06)"/><path class="0dfe68a0-7380-4eb5-81cb-652986febef9" d="M976.8,275.6a3.41,3.41,0,0,1-1,2.1Z" transform="translate(-345.68 -89.06)"/><path class="0dfe68a0-7380-4eb5-81cb-652986febef9" d="M980.5,246.2c0-6.2-1.1-13.5.6-19.4,1.5-5.2,4-9.9,6.4-14.8,3.3-6.8-.8-11.8-1.5-18.5-.4-3.3-.6-6.1-1.2-9.3a34.56,34.56,0,0,1-.2-8.5c.3-2.1,1.4-5.6,4.3-4.4,1.6.7,3.7,5.6,4,7.2.5,2.4-.4,5,0,7.4.7,3.9,4,4.9,6.8,7.3s3.5,5.2,5,8.5c1.2,2.6,2.8,4.6,3.7,7.2,1.2,3.4,2.5,6.4,3.8,9.8,1,2.6,2.1,5.2,1.7,8.1Z" transform="translate(-345.68 -89.06)"/><path class="0dfe68a0-7380-4eb5-81cb-652986febef9" d="M915.2,402.1c0,3.9.1,5.4-2.8,8.4a30.52,30.52,0,0,1-4.5,4.3c-2.1,1.3-4.1,1.6-6,3.3-3.6,3.4-5.7,8.3-9.1,12-2.9,3.2-6.3,7.2-8.3,11-4.8,9.3-11.2,17.5-16.4,26.5-1.1,1.9-1.8,4.1-3,6-1.5,2.2-3.6,4-5,6.3-1.3,2-1.8,4.1-3.4,6a46.93,46.93,0,0,0-4.9,6.8c-2.6,4.4-4.7,8.4-8.4,12.1a83.38,83.38,0,0,1-11.9,9.4c-3.3,2.4-6.6,4.5-10,6.6-1.7,1.1-3.6,1.4-5.3,2.7a56,56,0,0,1-6.8,4.9c-4.8,2.7-7.3,6.9-11.3,10.4-4.4,3.9-8.5,8-12.6,12.1a119.39,119.39,0,0,0-11.2,12.4c-3.3,4.3-6.2,9.1-9.7,13.2-3,3.6-5.4,7.1-9.3,9.7-4.5,2.9-9.2,5.4-13.7,8.4-3.7,2.4-7.2,5.2-11.3,7s-8,2.9-11.7,5.2c-3.3,2-7.5,3.4-10.5,5.9-3.7,3.2-1.2,8-2.3,12.5a56.9,56.9,0,0,1-2.9,8.2c-.4,1.1-2.2,3.3-2.3,4.4-.3,4.1,8.3,3.2,11.2,2.7,3.8-.6,7.8-3.5,11.5-4.8,4.2-1.5,7.9-3.5,12-5.3,4.6-2,9.6-.2,14.4-1.3A56.32,56.32,0,0,1,762,628c7.8,0,17.1-1.5,24.3-4.9,9.8-4.5,9.7-12.1,12.1-21.3,3.1-11.6,14-17.6,22-25.4,10.2-10,23.5-16.2,33.2-26.9,2.7-3,5.9-5.1,8.7-7.9,2.6-2.6,4.7-5.4,7.5-7.8,4.5-3.9,8.7-8.3,12.8-12.6A144.78,144.78,0,0,0,895,506.6c1.5-2,3.3-3.8,4.9-5.8,1.8-2.5,0-11.8,0-11.8,2.1,2.4,5.4,3.6,5.6,6.8.2,3.4,2.6,5.5,4.5,8.4,4.2,6.1,6.6,12.9,10.4,19.2,4.6,7.5,8.7,15.3,15.3,21.3,4,3.6,7.4,7.3,11.1,11.1,3.5,3.5,7.6,6.2,11.2,9.7,2.6,2.6,6,4.2,8.4,6.9,1.3,1.5,2,3.4,3.5,4.7,1.1,1,2.5,1.2,3.6,2.2,4.3,4.4-3.5,15-5,19.6-1.2,3.8-2,7.7-3.4,11.4-2,5.5-5.4,11.2-6.8,16.9-.9,3.6-1.7,7-2.7,10.6-.8,2.8-4.7,8.6-2.6,10.9,2.9-1,4.6-5.4,6.4-7.7a32.94,32.94,0,0,1,7.6-7.3c6.4-4,13.6-8.6,18.9-13.9,2.6-2.6,4.6-5.6,7-8.4,1.3-1.6,2.3-3.3,3.6-4.9s3.8-3,4.9-4.9a8.94,8.94,0,0,0-.1-9.8c-2.6-3.7-5.3-7.3-7.8-11.2-8-12.4-12.2-26.7-18.4-40-2.6-5.5-5.8-10.6-8.8-15.9-1.7-3.1-3.6-6.3-5.4-9.3-2.2-3.6-4.9-6-6.3-10.1-1.3-3.6-4.3-5.6-3.5-9.7l-4.2,9.8c1.7-1.7,1.7-4.9,2.8-7s2.4-4.5,3.5-6.9c2.8-6,6.7-11.8,8.5-18.2a64.55,64.55,0,0,1,5.7-13.9c1-1.9,2.5-4.1,3.6-5.9,1.6-2.4,3.7-3.8,5.9-5.8,3.9-3.7,7.7-7.7,10.3-12.4,1.2-2.2,1.4-3.6,3.4-5.6,2.7-2.8,4.4-4.1,5.7-7.7,2.6-6.9.9-24.4.9-31.8Z" transform="translate(-345.68 -89.06)"/><path class="0dfe68a0-7380-4eb5-81cb-652986febef9" d="M1012.9,359.3c0,5.1.4,9.8-1.7,14.6s-3.2,10.4-6.7,14.4c-2.9,3.4-6.3,7-10.8,8-4.8,1.1-10.5.3-15.4.3s-9.1,1.2-13.9,1.4c-4.5.2-8.4,2.2-12.8,3.1-5.1,1.1-9.9,3.7-15,5-5.9,1.4-12,1.9-17.8,3.8-6.8,2.1-13.7,2.8-20.6,4.6s-14.2,2.2-21.1,3.8c-12.9,3.1-25.4-1.9-38.2-2.1-6.3-.1-12.4-2.6-18.8-2.8-6-.2-11.8-2.4-17.7-2.8a148.89,148.89,0,0,1-37.9-8c-3.5-1.2-7.2-1.5-10.7-2.4-3.2-.8-5.9-1.9-9.2-2.1-4.8-.3-13.9-.8-17.6-4.1l20.9-8.4c8-.2,15,4.7,22.6,6.6,9,2.3,18.4,4.4,27.6,5.9,5.5.9,10.9,2.4,16.5,2.9,4.9.4,10.1-.1,15-.1h27.9c9.3,0,17.5-3.5,26.6-4.1,10.4-.8,20.1-5.7,29.4-9.9,1.1-.5,2.1-.9,3.2-1.4,2.4-1.1,4.9-2.2,7.3-3.4,1-.5,1.9-.9,2.9-1.4,16.7-8.2,33.2-18.6,42.9-34.2,3.4-5.5,7.6-8.8,11.9-13.3,1.9-2,3.7-2.5,6-3.8s3.6-2.9,5.9-3.9c3.7-1.6,7.2-1.4,11.2-1.4,1.8,0,3.5-.1,4.8-.1,2.9.1,4.8,1,4.9,5.7s-1.5,9.1-1.4,13.9C1012.9,348.8,1012.9,354,1012.9,359.3Z" transform="translate(-345.68 -89.06)"/><path class="3e50bb1e-b708-463c-a8a6-fc1646776182" d="M931.8,311c3.2,3.1,5.1,6.7,9,9,3.2,1.9,6,3.7,9.9,3.6" transform="translate(-345.68 -89.06)"/><path class="3e50bb1e-b708-463c-a8a6-fc1646776182" d="M965.4,327.8c-1.4,1.5-3.7,4.9-4.2,6.9s0,4.7,0,6.8c0,5-.4,8.7,3.1,12.6" transform="translate(-345.68 -89.06)"/><path class="3e50bb1e-b708-463c-a8a6-fc1646776182" d="M813.2,224.9h8.4" transform="translate(-345.68 -89.06)"/><path d="M906.6,497.8c.9-5.4-4.8-10.8-6.3-15.7-1.7-5.3-4.1-11.3-4.2-16.8-.1-3.1.3-6.3.1-9.4-.2-3.6-1.1-6.6-1.1-10.2,0-3.3-1.7-15.1,1-17.1" transform="translate(-345.68 -89.06)"/><path class="b763c7a3-943f-4115-bda9-62580db67db3" d="M805,147.8c1.4-1.4,3.8-2.3,4.2-4.5s-.5-3.8-1.1-5.8a16.8,16.8,0,0,0-2.9-5.2c-1.5-1.8-3.6-2.9-5.4-4.4a21,21,0,0,0-5-2.9c-1.2-.5-2-1.4-3.3-1.8-.9-.3-1.9-.7-2.9-1-2.4-.7-5.2-.3-7.7-.3-7.6,0-15.5-.5-22.7,2.4a48.72,48.72,0,0,0-11.4,6.7c-3.5,2.7-6.7,4.6-9.8,7.7-2.9,2.9-6.5,5-9,8.3-2,2.6-2.8,5.4-4,8.3-1.3,3.2-.5,7.8-.5,11.2,0,2.8-.3,5.8.4,8.4.8,2.8,2.3,5.1,3.5,7.6,2.8,5.7,7,12,12.6,15.2,2.6,1.5,5.6,2.3,8.2,4,2.2,1.5,5.3,3.6,7.9,4.1,2.8.5,5.2-.8,7.8-1.6,1.6-.5,3.4-.7,4.8-1.6a28,28,0,0,1,4-2.7c3.2-1.6,4.5-4.9,6.3-7.8a75.26,75.26,0,0,0,5-9.3c3.1-6.9,6.7-13.4,10.3-20.2a48.61,48.61,0,0,1,5.7-9.2C801.7,151.6,803.1,149.7,805,147.8Z" transform="translate(-345.68 -89.06)"/><path class="b763c7a3-943f-4115-bda9-62580db67db3" d="M1000,226.7c-4.9.1-10.8,8-13.8,11.1-3.8,3.8-8.4,5.7-9.6,11.3-1.5,7-.2,15.2-.3,22.3-.1,7.8,6.5,18.1,11.5,24a76.45,76.45,0,0,1,8.8,12.3c2.1,3.8,2.9,10.3,7.6,12.2,3-1.6,5.3-4.7,8.1-6.7a53.07,53.07,0,0,1,6.3-4.2c4.9-2.7,8-4.3,10.8-9.3,3.3-5.9,5.7-12.3,8.5-18.5,1.7-3.6,1.2-7.4,2.7-11.1,1.4-3.4,1.4-6,1.4-9.7,0-9.1-8.4-17.9-15.4-23.1a77.22,77.22,0,0,0-12.6-7.7c-2.2-1-3.7-3.1-5.9-4-1.9-.8-4.6-.2-6.7-.2" transform="translate(-345.68 -89.06)"/><path class="3e50bb1e-b708-463c-a8a6-fc1646776182" d="M929.9,421c-2.7,2.7-5.3,5.1-8.2,7.5-2.5,2.1-3.7,5.8-5.5,8.4a21.74,21.74,0,0,0-3.2,6.9,80.47,80.47,0,0,1-3.9,10.3,53.87,53.87,0,0,0-2.3,8.1c-.8,3-.6,6.2-1.6,9.3a51,51,0,0,0-2,15.6" transform="translate(-345.68 -89.06)"/><path class="3e50bb1e-b708-463c-a8a6-fc1646776182" d="M788.4,291.2c-1.5.3-3.6-1.1-4.7-2a17.49,17.49,0,0,1-3.4-3.8,52.14,52.14,0,0,1-2.4-4.7c-.6-1.3-.9-3.4-2.1-4.2" transform="translate(-345.68 -89.06)"/><path class="3e50bb1e-b708-463c-a8a6-fc1646776182" d="M807.8,117.1a20.45,20.45,0,0,0,4.3-.1,47.45,47.45,0,0,0,5-1.5c1.8-.6,3.7-.9,5.5-1.5a51.73,51.73,0,0,1,5.1-1.8c3.1-.7,6.2-1.1,9.1-2.3a26.71,26.71,0,0,1,4-1.3c.6-.2,1.2-.6,1.8-.8a8.51,8.51,0,0,1,2.2-.4" transform="translate(-345.68 -89.06)"/><path class="3e50bb1e-b708-463c-a8a6-fc1646776182" d="M526.6,231.8a18.18,18.18,0,0,1-3.3,0,17.33,17.33,0,0,0-3.2-.3H512c-1.8,0-3.6-.1-5.4,0-.8.1-1.5.4-2.3.5s-1.4.1-2.1.2c-1.2.2-2.3.5-3.5.7-1,.2-2,.5-3,.8-.6.1-1.9.1-2.3.5" transform="translate(-345.68 -89.06)"/></svg>