<svg id="6713728a-431a-401d-89df-458735700698" data-name="929a63f3-9ae3-4ac3-aaf2-1ac0400b1715" xmlns="http://www.w3.org/2000/svg" width="624.05" height="587.66" viewBox="0 0 624.05 587.66"><defs><style>.cc0f3825-4f42-4e58-9c0c-befcede81417{fill:#fff;stroke:#1e120d;stroke-miterlimit:10;}</style></defs><title>deams</title><path class="cc0f3825-4f42-4e58-9c0c-befcede81417" d="M594.7,158.8a59.71,59.71,0,0,0-8.3-.8c0-2.3,0-4.5-.1-6.8C584.2,77.5,542,11,492.1,2.6c-30-5-56,12.1-71.6,42.5C404.8,17.9,381,1.8,357.8,6c-19.5,3.6-34.2,20.7-41.4,44.5-19.2-25.2-44.5-39-69.2-34.4-42.5,7.8-67.2,66.8-55.3,131.7,4.3,23.3,12.7,44.1,23.7,60.9-26.1,18.7-42.9,58.5-41.5,107.6,2.1,73.6,44.3,140.1,94.2,148.5,38.3,6.4,70-23.2,81.9-70.5,21.2,29.2,49.8,45.4,77.7,40.2a57.77,57.77,0,0,0,22.7-9.6c.4,3.2.9,6.5,1.5,9.7,9.5,51.4,44.4,88.1,78.1,81.9,33.2-6.1,52.7-51.6,44.1-102.2a75,75,0,0,0,27.8,11c50,8.4,88.8-44.6,86.7-118.2C686.9,233.6,644.7,167.1,594.7,158.8Zm8.8,124.7a130.56,130.56,0,0,0-8.7-68,142.45,142.45,0,0,0,26.4,4c4.2.2,8.4.2,12.5.1-.2,2.3-.4,4.6-.5,7a134.7,134.7,0,0,0,8.7,55.1,95.1,95.1,0,0,0-31.9.4C607.8,282.5,605.6,283,603.5,283.5Z" transform="translate(-65.33 -1.24)"/><ellipse class="cc0f3825-4f42-4e58-9c0c-befcede81417" cx="209.81" cy="436.7" rx="47.2" ry="85.2" transform="translate(-126.23 33.66) rotate(-8.31)"/><ellipse class="cc0f3825-4f42-4e58-9c0c-befcede81417" cx="140.8" cy="514.37" rx="30.1" ry="54.2" transform="translate(-138.18 24.51) rotate(-8.31)"/><ellipse class="cc0f3825-4f42-4e58-9c0c-befcede81417" cx="83.54" cy="557.32" rx="17.3" ry="31.3" transform="translate(-144.98 16.68) rotate(-8.31)"/></svg>