<svg id="be266238-b51c-4222-a4b2-b7639f531f64" data-name="929a63f3-9ae3-4ac3-aaf2-1ac0400b1715" xmlns="http://www.w3.org/2000/svg" width="984.01" height="561.46" viewBox="0 0 984.01 561.46"><defs><style>.\37 fb79062-b100-4927-92bb-c61cccf0cc12{fill:#fff;}.\37 fb79062-b100-4927-92bb-c61cccf0cc12,.fbd36bfb-422f-4af9-8595-12b73117dccd{stroke:#1e120d;stroke-miterlimit:10;}.dfe60621-5cea-4f1a-af86-392d2adc004f{fill:#211915;}.fbd36bfb-422f-4af9-8595-12b73117dccd{fill:none;}</style></defs><title>dog</title><path class="7fb79062-b100-4927-92bb-c61cccf0cc12" d="M1211.7,369c2.1-17.6-252.4-75-449.5-54.8-96.4,9.9-151.5,73.7-139.3,88.2.3-12.3-6-24.6-18.3-36.2-5-4.8-12.8-10.1-27.5-11.5-23.8-2.4-43.8,6.4-52.7,14-13.9,12-22.1,24.7-24.1,37.4,3.6-15.1-7.5-30.4-31.5-43.4a53.1,53.1,0,0,0-22.1-6.6,70.66,70.66,0,0,0-39.6,8.9c-28.7,16.3-44.5,35.1-45.4,53.8,0-9-5.4-18-15.6-26.2-4-3.2-9.9-6.7-20.1-7.5-17.6-1.5-29.6,5.6-34.7,11.4-26.6,30.4-38.5,62.2-35.1,93.8,1.5,13.2,33.7,18.1,47,7a18.94,18.94,0,0,0,4.6-5.6c6.6-13.6,7.9-27.6,4.1-41.4-.1,15.1,7.8,33.2,49.2,39.6,30.2,4.6,66.8.7,93.5-6s47.2-15.6,72.6-22.8c48.2-13.5,132.6-17.9,167.2-.4,31.5,15.7-4.2,38.5-56.1,46.4-51.9,8.1-112.2,5.8-169.1,4.1-11.9-.4-24.3-.7-35.6.7-12,1.5-23.9,4.5-27.8,8.5-71.2,75.4,466.3,2.8,520.4-20.2,97.2-41.3,285.2-97,285.2-97Z" transform="translate(-228.2 -119.3)"/><ellipse class="dfe60621-5cea-4f1a-af86-392d2adc004f" cx="34.5" cy="316" rx="34.5" ry="47"/><ellipse class="7fb79062-b100-4927-92bb-c61cccf0cc12" cx="449.3" cy="225" rx="27.8" ry="47.5"/><ellipse class="dfe60621-5cea-4f1a-af86-392d2adc004f" cx="435.4" cy="221.2" rx="13.9" ry="20.5"/><path class="dfe60621-5cea-4f1a-af86-392d2adc004f" d="M900.3,312c-5.2-20.9,13.5-42.3,50.8-58.3,6.7-2.9,18.4-5.8,26.7-3.6a11.34,11.34,0,0,1,6.5,4.4c30,40.2,4.1,82.8-20.2,123.6Q910,468.55,865.9,559.9c-6.5,13.4-12.8,27-28.2,39.4-14.6,11.8-36.8,22.2-59.8,32.1-17.2,7.4-35.5,14.9-41.8,24.5-6.4,9.4,4.1,21.2,29.4,24.1,20.9,2.5,43-1.6,61.5-6,32.7-7.7,63.8-16.4,89.7-26.9,50-20.2,79.2-46.3,101.3-72.4,61.8-73.2,74.1-150.7,70.8-227.1-.9-20.9-3.2-42.3-25.3-61.8-16.9-14.8-45.4-27.9-81.2-37.3a77.08,77.08,0,0,0-16.1-2.8c-9.4-.4-18.3,1.7-25.5,4-48,14.6-72.8,38.8-62.6,61.1a41.26,41.26,0,0,0,17.5-.3" transform="translate(-228.2 -119.3)"/><path class="7fb79062-b100-4927-92bb-c61cccf0cc12" d="M683.6,488.3c-78.2,11.1-205.3-27.6-196.3,22.5,1.9,10.2-7.8,33.9-51.7,37.6-64.2,5.6-3.4,77.4,57.3,99.6,9.1,3.3,19.8,6.4,31,6.5,16.9.3,29.8-6.1,33.6-13.4s.5-15.1-2.2-22.6c-9.8-26.3-72-5.4-20.9-72.1,5.2-6.6,3.7-22.6,13.6-27.6,20.1-10.2,64.2-8.1,71.8-9.1,37.4-5.4,64.6-9.1,76.6-22.4" transform="translate(-228.2 -119.3)"/><path class="fbd36bfb-422f-4af9-8595-12b73117dccd" d="M507.8,632.4c-4.5-23-59.9-48-17.9-71.3,35.9-19.8,4.2-50.1,55.6-59.3" transform="translate(-228.2 -119.3)"/><path class="dfe60621-5cea-4f1a-af86-392d2adc004f" d="M852.4,310.6c-7.4-5.3-298.2-179.5-364.7-84.8-109.7,156.2-168,152-169.6,125-2.5-40.1,115.1-231.5,205.1-231.5S884.9,311.7,884.9,311.7Z" transform="translate(-228.2 -119.3)"/></svg>