<svg id="c20ff810-26b7-40a6-bfa0-e11ae08d3cca" data-name="929a63f3-9ae3-4ac3-aaf2-1ac0400b1715" xmlns="http://www.w3.org/2000/svg" width="744.1" height="424.28" viewBox="0 0 744.1 424.28"><defs><style>.\32 e12b672-25ff-40c9-a932-c20b1fc5e81a{fill:#fff;}.\32 e12b672-25ff-40c9-a932-c20b1fc5e81a,.f0ac6aca-9610-4cfa-a402-5f5c55309d0b{stroke:#1e120d;stroke-miterlimit:10;}.\32 1bb359d-aab4-4407-a74a-62700a5e3b05{fill:#211915;}.f0ac6aca-9610-4cfa-a402-5f5c55309d0b{fill:none;}</style></defs><title>dog</title><path class="2e12b672-25ff-40c9-a932-c20b1fc5e81a" d="M746.9,253.1c1.6-13.3-190.8-56.7-339.8-41.4-72.9,7.5-114.5,55.7-105.3,66.7.2-9.3-4.5-18.6-13.8-27.4-3.8-3.6-9.7-7.6-20.8-8.7-18-1.8-33.1,4.8-39.8,10.6-10.5,9.1-16.7,18.7-18.2,28.3,2.7-11.4-5.7-23-23.8-32.8a39.8,39.8,0,0,0-16.7-5,53.24,53.24,0,0,0-29.9,6.7c-21.7,12.3-33.6,26.5-34.3,40.7,0-6.8-4.1-13.6-11.8-19.8-3-2.4-7.5-5.1-15.2-5.7-13.3-1.1-22.4,4.2-26.2,8.6-20.1,23-29.1,47-26.5,70.9,1.1,10,25.5,13.7,35.5,5.3a14.45,14.45,0,0,0,3.5-4.2,43.36,43.36,0,0,0,3.1-31.3c-.1,11.4,5.9,25.1,37.2,29.9,22.8,3.5,50.5.5,70.7-4.5s35.7-11.8,54.9-17.2c36.4-10.2,100.2-13.5,126.4-.3,23.8,11.9-3.2,29.1-42.4,35.1s-84.8,4.4-127.8,3.1c-9-.3-18.4-.5-26.9.5-9.1,1.1-18.1,3.4-21,6.4-53.8,57,352.5,2.1,393.4-15.3C604.9,321.1,747,279,747,279Z" transform="translate(-3.4 -64.4)"/><ellipse class="21bb359d-aab4-4407-a74a-62700a5e3b05" cx="26.1" cy="238.8" rx="26.1" ry="35.5"/><ellipse class="2e12b672-25ff-40c9-a932-c20b1fc5e81a" cx="339.7" cy="170" rx="21" ry="35.9"/><ellipse class="21bb359d-aab4-4407-a74a-62700a5e3b05" cx="329.2" cy="167.2" rx="10.5" ry="15.5"/><path class="21bb359d-aab4-4407-a74a-62700a5e3b05" d="M511.5,210c-3.9-15.8,10.2-32,38.4-44.1,5.1-2.2,13.9-4.4,20.2-2.7a8.38,8.38,0,0,1,4.9,3.3c22.7,30.4,3.1,62.6-15.3,93.4q-40.95,68.4-74.2,137.4c-4.9,10.1-9.7,20.4-21.3,29.8-11,8.9-27.8,16.8-45.2,24.3-13,5.6-26.8,11.3-31.6,18.5s3.1,16,22.2,18.2c15.8,1.9,32.5-1.2,46.5-4.5,24.7-5.8,48.2-12.4,67.8-20.3,37.8-15.3,59.9-35,76.6-54.7,46.7-55.3,56-113.9,53.5-171.7-.7-15.8-2.4-32-19.1-46.7-12.8-11.2-34.3-21.1-61.4-28.2a55.37,55.37,0,0,0-12.2-2.1c-7.1-.3-13.8,1.3-19.3,3-36.3,11-55,29.3-47.3,46.2a32.56,32.56,0,0,0,13.2-.2" transform="translate(-3.4 -64.4)"/><path class="2e12b672-25ff-40c9-a932-c20b1fc5e81a" d="M347.7,343.3c-59.1,8.4-155.2-20.9-148.4,17,1.4,7.7-5.9,25.6-39.1,28.4-48.5,4.2-2.6,58.5,43.3,75.3,6.9,2.5,15,4.8,23.4,4.9,12.8.2,22.5-4.6,25.4-10.1s.4-11.4-1.7-17.1c-7.4-19.9-54.4-4.1-15.8-54.5,3.9-5,2.8-17.1,10.3-20.9,15.2-7.7,48.5-6.1,54.3-6.9,28.3-4.1,48.8-6.9,57.9-16.9" transform="translate(-3.4 -64.4)"/><path class="f0ac6aca-9610-4cfa-a402-5f5c55309d0b" d="M214.8,452.2c-3.4-17.4-45.3-36.3-13.5-53.9,27.1-15,3.2-37.9,42-44.8" transform="translate(-3.4 -64.4)"/><path class="21bb359d-aab4-4407-a74a-62700a5e3b05" d="M475.3,209c-5.6-4-225.4-135.7-275.7-64.1C116.7,263,72.6,259.8,71.4,239.4c-1.9-30.3,87-175,155-175S499.8,209.8,499.8,209.8Z" transform="translate(-3.4 -64.4)"/></svg>