<svg id="cc0570c2-28ba-4b9e-b7de-08d2440e591d" data-name="929a63f3-9ae3-4ac3-aaf2-1ac0400b1715" xmlns="http://www.w3.org/2000/svg" width="814.45" height="587.61" viewBox="0 0 814.45 587.61"><defs><style>.\34 e50fc06-77d2-406a-88b6-2d80c03f743f{fill:#fff;stroke:#1e120d;stroke-miterlimit:10;}</style></defs><title>dreams</title><path class="4e50fc06-77d2-406a-88b6-2d80c03f743f" d="M1006.2,264.2a101.81,101.81,0,0,0-10.8-.8c0-2.3,0-4.5-.1-6.8-2.7-73.7-57.8-140.2-123-148.6-39.2-5-73.1,12.1-93.5,42.5-20.5-27.2-51.6-43.3-81.8-39.1-25.5,3.6-44.6,20.7-54,44.5-25.1-25.2-58.1-39-90.3-34.4-55.5,7.8-87.7,66.8-72.2,131.7a147.24,147.24,0,0,0,30.9,60.9c-34.1,18.7-56,58.5-54.2,107.6,2.7,73.6,57.8,140.1,123,148.5,50,6.4,91.4-23.2,106.9-70.5,27.7,29.2,65,45.4,101.4,40.2a88.77,88.77,0,0,0,29.6-9.6c.5,3.2,1.2,6.5,2,9.7,12.4,51.4,58,88.1,101.9,81.9,43.3-6.1,68.8-51.6,57.6-102.2a117.22,117.22,0,0,0,36.3,11c65.3,8.4,115.9-44.6,113.2-118.2S1071.4,272.5,1006.2,264.2Zm11.4,124.7a99.27,99.27,0,0,0-1.2-41.6,106.13,106.13,0,0,0-10.2-26.4,239.4,239.4,0,0,0,34.5,4c5.5.2,11,.2,16.3.1-.3,2.3-.5,4.6-.7,7a106.55,106.55,0,0,0,11.4,55.1,161.24,161.24,0,0,0-41.6.4C1023.3,387.9,1020.4,388.4,1017.6,388.9Z" transform="translate(-315.26 -106.64)"/><ellipse class="4e50fc06-77d2-406a-88b6-2d80c03f743f" cx="503.76" cy="542.1" rx="61" ry="86.1" transform="translate(-440.34 45.33) rotate(-15.28)"/><ellipse class="4e50fc06-77d2-406a-88b6-2d80c03f743f" cx="413.71" cy="619.78" rx="38.9" ry="54.8" transform="translate(-464.41 24.8) rotate(-15.33)"/><ellipse class="4e50fc06-77d2-406a-88b6-2d80c03f743f" cx="338.92" cy="662.69" rx="22.4" ry="31.6" transform="translate(-477.61 5.83) rotate(-15.25)"/></svg>