<svg id="f2a6ff83-e69a-463b-a5ce-cd80b2759b1b" data-name="Calque 1" xmlns="http://www.w3.org/2000/svg" width="532.04" height="625.76" viewBox="0 0 532.04 625.76"><defs><style>.\37 dea6e30-7c30-4fea-a303-22e5ca7280ac{fill:#fff;}.\30 9dffe11-d7cf-47dc-9b01-feb02a097868,.\36 0922c87-9af1-4aab-8f27-5f93f2a051a1,.\37 dea6e30-7c30-4fea-a303-22e5ca7280ac,.b9b06b50-6b65-4e35-a789-beee757c12ac{stroke:#000;}.\36 0922c87-9af1-4aab-8f27-5f93f2a051a1,.\37 dea6e30-7c30-4fea-a303-22e5ca7280ac,.b9b06b50-6b65-4e35-a789-beee757c12ac{stroke-miterlimit:10;}.\30 9dffe11-d7cf-47dc-9b01-feb02a097868{stroke-linecap:round;stroke-linejoin:round;}.b9b06b50-6b65-4e35-a789-beee757c12ac{fill:none;}</style></defs><title>drugs</title><path class="7dea6e30-7c30-4fea-a303-22e5ca7280ac" d="M922.3,512.1c.6-23.5.4-46.9-3.4-70.2-2.1-12.8-3.8-25.7-4.8-38.7-1.5-19.4-2.1-38.9-3.4-58.4-1-14.7-2.2-29.5-4-44.1-2-16.6-4.4-33.2-7.5-49.6-2.2-11.8-5.7-23.3-9.1-34.8-1.4-5-4-9.7-6.3-15-2.9,1.3-5,2.3-7.1,3.2-4.5,2-8.9,4.2-13.5,5.9-5.5,2.1-11.2,3.7-16.8,5.5-3.2,1-6.3,2.2-9.6,2.9-22.4,4.8-45.3,6-68.1,7.3-14.5.8-29.1.4-43.7.8-16.3.4-32.7,1.3-49,1.7-11,.3-22.1.1-33.1.1-6.3,0-12.6,0-18.9-.1s-12.6.2-18.8-.7c-15.7-2.3-30.9-6.8-45.6-12.2-18.4-6.8-37.3-10.9-56.3-15.4a17,17,0,0,0-3.2,0c-1,5.4-.4,10.6.5,15.9,3.3,18.2,5.4,36.5,3.1,55.2-3.2,25.8-5.3,51.7-7.9,77.6-1.2,11.4-1.8,22.8-3.6,34.1a623.82,623.82,0,0,1-16.3,72.6c-4.9,16.9-60.8,170.2-84.2,228.1,0,0,89.6,19.5,136.5,21.5l373.4,14.1c6.1.2,13,.1,16.8-4.6,3-3.7,2.9-8.9,2.7-13.6-1.5-32.9-1.7-101.7-1.7-103.4.2-13.4.1-26.8.6-40.2C920.5,542.4,921.9,527.3,922.3,512.1ZM590.2,326.8c-4.6,11-13.7,19.5-19.4,29.9C558.9,378.3,563,405,557.3,429c-.5-10.8-1-21.7-1.5-32.6-.8-19.3-1.3-39.8,8.3-56.6,3.8-6.6,9-12.3,12-19.3s3.7-14.8,4.8-22.3c1.7-11.5,5.1-22.7,8.5-33.9,3-9.8,11.1-11.5,11.1-11.6C586.8,273.9,599.8,303.4,590.2,326.8ZM678,515.1c-.7,3.7-1.7,7.3-2.2,10.9-.2,1.7-.4,3.5-.6,5.2-1.4,11.3-2.7,22.6-4,34-.2,1.7-.4,3.5-.6,5.2-.3,2.2-1.2,9.5-1.3,10.6-.3,3.4-.1,6.9-.8,10.8a43.78,43.78,0,0,1-5.8-13.3c-.1-.5-.3-.9-.4-1.4a14.19,14.19,0,0,1-.5-2.2,44.53,44.53,0,0,1-1-7.2,45.44,45.44,0,0,1,.3-9c1-7.5,2.2-15.1,3.8-22.5.4-1.9.9-3.9,1.4-5.8a139.37,139.37,0,0,1,6.1-18.6c2.3-5.6,5.1-11.1,7.8-16.5a11.18,11.18,0,0,1,2-1.7C680.7,500.8,679.4,508,678,515.1Zm21.1-72c-2.3,5.7-4.7,11-5.6,17-1.2,8-3.2,15.7-7.7,22.6,3.7-19,7.7-37.9,16.1-55.5.5.2,3.6,1,4,1.1C704.3,433.3,701.1,438.3,699.1,443.1Zm142.3-59.4c-1-21.6-4.7-42.7-9.6-63.6-2.4-10.3-5.4-20.5-7-31a7.84,7.84,0,0,0,1.4-.5c2.8,6.7,5.9,13.2,8.3,20,2.8,8,5.5,16,7.5,24.2,3,12.1,4.1,24.4,4.4,36.9.2,8.5,1.2,17,.8,25.4-1.1,23.2-1.3,46.5-6.2,69.4-3.9,18.1-8.8,35.9-14.1,53.6-2.9,9.6-5.9,19.2-10.6,28a8,8,0,0,0-.8,1.6c-4.8,8.6-9.7,17.1-14.7,25.6a3.37,3.37,0,0,1-2.5,1.6c.8-2.5,1.6-5.1,2.6-7.6,3.1-7.9,6-15.8,8.8-23.8a634.63,634.63,0,0,0,20.9-72.7c3.2-14.8,4.9-29.9,7.7-44.8A182,182,0,0,0,841.4,383.7Z" transform="translate(-391.01 -94.2)"/><path class="60922c87-9af1-4aab-8f27-5f93f2a051a1" d="M534.8,682.2c-.8,5.4-1.3,10.9-1.6,16.3-6.3,3.1-13.7,3-20.7,2.9-11.7-.2-23.4-.5-35-1.7-21.7-2.4-43-8.3-63.7-15.4,1.3-5.5,2.4-11.1,3.3-16.7l.3-.2C421.8,669.5,534.8,682.2,534.8,682.2Z" transform="translate(-391.01 -94.2)"/><path class="09dffe11-d7cf-47dc-9b01-feb02a097868" d="M662.3,577.1h-3a105,105,0,0,0-16.6,1,71.88,71.88,0,0,0-11.9,3.1,57,57,0,0,0-9.7,4.5,45.07,45.07,0,0,0-17.8,17.9c-8.5,16.1-2,52.1-2,52.2a70.09,70.09,0,0,1-11.9-32.6c-1.2-11.9.5-24.4,6.8-34.5h0c8-12.8,21.1-19.5,35.4-21.8a82,82,0,0,1,29.2.9,59.33,59.33,0,0,0,1,7.2A16,16,0,0,0,662.3,577.1Z" transform="translate(-391.01 -94.2)"/><path class="09dffe11-d7cf-47dc-9b01-feb02a097868" d="M688.9,578.9s-19.6-1.8-19.2-1.9c.3-2.2.6-4.5.9-6.7a81.63,81.63,0,0,1,10.1,4A59.54,59.54,0,0,1,688.9,578.9Z" transform="translate(-391.01 -94.2)"/><path class="7dea6e30-7c30-4fea-a303-22e5ca7280ac" d="M660.7,567.7a59.33,59.33,0,0,0,1,7.2,12.66,12.66,0,0,1-2.5,2.1c-2.4,1.5-5.7,2.6-11.1,4.2-.4.1-.8.2-1.1.3-5,1.5-10.3,2.1-15.5,2.8h-.2c-.3,0-.7.1-1,.1l-9.3,1.2c-8.3,1-16.6,2-24.9,2.9h-.4c-8.6,1-16.8-1.2-24.9-3.6a95.55,95.55,0,0,1-15.2-6.3,13.51,13.51,0,0,1-5.4-5.2c-2.5-4.4-1.2-7.7,3.9-12.3,13-9.9,26.3-17.9,41.8-22.2a173,173,0,0,1,32.5-5.7h.1c1.1-.1,2.1-.2,3.2-.2,6.8-.5,13.5-.6,20.4-.5,3.1,0,6.2.9,9.3,1.5a5,5,0,0,1,3.5,2.2c-1.6,7.4-2.8,15-3.8,22.5A39.3,39.3,0,0,0,660.7,567.7Z" transform="translate(-391.01 -94.2)"/><path class="60922c87-9af1-4aab-8f27-5f93f2a051a1" d="M664.8,536.3c.4-1.9.9-3.9,1.4-5.8a134.1,134.1,0,0,0-34.6,2.7c-1,.2-2,.4-3,.7l-.1-.4-.2-.5c0,.2.1.3.1.5a156.52,156.52,0,0,1,3.1,33.5c-.1,4.8-.3,9.6-.8,14.3-.1,1.1-.2,2.2-.4,3.3v.1a5,5,0,0,1,1.2-.2c5.5-1,11.1-2.1,16.6-3.1,3.5-.6,7-1.3,10.4-2,1.4-.3,2.7-.5,4.1-.8-.1-.5-.3-.9-.4-1.4a14.19,14.19,0,0,1-.5-2.2,44.53,44.53,0,0,1-1-7.2,45.44,45.44,0,0,1,.3-9C662,551.2,663.2,543.7,664.8,536.3Zm35.5,1.9c-4.6-3.1-10.2-4.5-15.7-5.6-3.1-.6-6.3-1-9.4-1.4-1.4,11.3-2.7,22.6-4,34-.2,1.7-.4,3.5-.6,5.2-.3,2.2-.6,4.5-.9,6.7,3.7-.8,7.3-1.7,10.9-2.7a79.32,79.32,0,0,0,13.3-5.1c7.1-3.5,14.2-9.3,14.4-17.2C708.5,546.5,704.9,541.3,700.3,538.2Z" transform="translate(-391.01 -94.2)"/><path class="b9b06b50-6b65-4e35-a789-beee757c12ac" d="M600.8,655a73,73,0,0,0,18.8,19.2A75.65,75.65,0,0,0,680,685.6a46.8,46.8,0,0,0,14.8-6.1,42.84,42.84,0,0,0,13.1-14.9c14.5-25.6,8-60.6-13.3-81a53.81,53.81,0,0,0-6.8-5.4" transform="translate(-391.01 -94.2)"/><path class="7dea6e30-7c30-4fea-a303-22e5ca7280ac" d="M670.9,621.7c2.1,1.6,5,1.7,7.7,1.7a5.75,5.75,0,0,0,2.6-.5c1.7-.9,2.1-3.3,1.8-5.2-.4-2.7-1.3-6-3.9-7.1C668.9,606.4,667.6,619.2,670.9,621.7Z" transform="translate(-391.01 -94.2)"/><path class="7dea6e30-7c30-4fea-a303-22e5ca7280ac" d="M631.5,616.6a7,7,0,0,0-.1,3.5,5.54,5.54,0,0,0,1.2,1.9,8.87,8.87,0,0,0,8.4,2.7,7.79,7.79,0,0,0,6-6.3,7,7,0,0,0-4.2-7.5,9.19,9.19,0,0,0-5.2-.2,6.13,6.13,0,0,0-3.4,1.7C634.3,612.4,631.8,615,631.5,616.6Z" transform="translate(-391.01 -94.2)"/><path class="b9b06b50-6b65-4e35-a789-beee757c12ac" d="M608.3,632.3c5.4,14.3,15.8,26.9,29.4,33.7s30.6,7.3,44,.1,22.5-22.5,21.2-37.6c-.2-1.8-.5-3.7-1.9-4.8-2.3-1.7-5.8,0-7.1,2.6s-1.1,5.6-1.4,8.4c-1,10.5-8.5,19.8-18.1,24s-21.1,3.3-30.5-1.4-16.8-13-21.3-22.5c-1.3-2.8-2.5-5.8-4.7-8s-6-3.2-8.5-1.3S608.3,632.3,608.3,632.3Z" transform="translate(-391.01 -94.2)"/><path class="7dea6e30-7c30-4fea-a303-22e5ca7280ac" d="M738.3,615.5c-13.6,3.6-25.7,8.6-35.8,18.4-5.2-11.8-10.1-22.8-11.3-35.2-.5-4.9.2-9.4,3.7-13.2,2.1-2.3,3.4-5.3,5.8-7.1,3.3-2.7,7-2.9,10.9-.4,10.9,7.1,18.4,16.8,23.3,28.7C735.9,609.5,737,612.2,738.3,615.5Z" transform="translate(-391.01 -94.2)"/><path class="60922c87-9af1-4aab-8f27-5f93f2a051a1" d="M753.8,661.5a66,66,0,0,0-2.1-14.7c-3-11.7-8.6-22.9-14.1-33.8a56,56,0,0,0-35.9,18.4l.3,3c3.7,6.9,7.4,13.8,11.1,20.6a77.05,77.05,0,0,0,5.7,9.5,27.1,27.1,0,0,0,9,8.5,21,21,0,0,0,19.5.3,12.3,12.3,0,0,0,5.6-5.2A14.53,14.53,0,0,0,753.8,661.5Zm-8.7,10c-2.8-.4-7.5-4.7-7.3-6.7.2-2.7,3.4-5.4,6.2-5.1,3,.2,7,4.4,6.8,7.1S747.7,671.8,745.1,671.5Z" transform="translate(-391.01 -94.2)"/><path class="60922c87-9af1-4aab-8f27-5f93f2a051a1" d="M835.2,680.7c-4.1,7.8-11.4,13.2-19.1,17.6-6.2,3.5-12.6,6.5-19.1,9.4-4.7,2.1-9.4,4.2-14.4,5s-10.2.5-15.3-.1a258.53,258.53,0,0,1-30.5-5c-7.8-1.7-16.1-4.2-20.7-10.8-3.7-5.3-4.1-12-4.5-18.5l.1-.1.9-1.6c20.1-2.2,44.3-6.4,67.1-4.2,13.1,1.2,23.2-4.9,33.4-8.7-.3.2-.6.4-1,.7-4.9,3.8-10.4,6-16.1,8.3-8,3.3-16.4,4-24.7,4.5-7.6.4-15.3-.1-22.9-.4-4.7-.2-9.4-1-14.1-1.2-2-.1-4.1.7-4.4,3.1s1.1,3.6,3.3,4.2c1.1.3,2.3.7,3.4.9,8.7,1.7,17.2,4.1,26.2,3.3,2.2,0,4.3.1,6.5,0,4.9-.3,9.9-.3,14.7-1a120,120,0,0,0,17.8-3.8c4.3-1.3,8.2-3.7,12.1-6a64.08,64.08,0,0,0,8.9-6.6c1.8-1.5,1.6-3.4-.1-5.1a7,7,0,0,0-5.2-2.4c6.3-1.8,12.8-2.3,20.3.8.1,0,.2.1.4.1A29.54,29.54,0,0,1,835.2,680.7Z" transform="translate(-391.01 -94.2)"/><path class="7dea6e30-7c30-4fea-a303-22e5ca7280ac" d="M904.2,642.2c-16.3-1.4-31.5-4.5-45.9-11.7-17.1-8.5-32-20-45.9-32.9-2.3-2.1-4-4.8-5.9-7.4a5.1,5.1,0,0,1-.3-6.1c3.7-6,7.4-12.1,11.3-18a6.69,6.69,0,0,1,2.9-1.9c14.6-6.4,14.6-6.5,28.7.3a112.08,112.08,0,0,1,13.5,8.4c9.8,6.8,19.5,13.7,29.2,20.7,7,5,11.6,12.2,16,19.4a101.2,101.2,0,0,1,7,14.9,13.62,13.62,0,0,1,.5,7.5C914.2,640.7,911,642.2,904.2,642.2Z" transform="translate(-391.01 -94.2)"/><path class="7dea6e30-7c30-4fea-a303-22e5ca7280ac" d="M497.3,665.7c-9.1-1.2-18.3-2.3-27.8-3.6-3.2-9.3-4.8-18.3-.2-27.9,5.8-11.8,11.9-23.2,22.4-31.5,12.6-10.1,26.5-17.2,43-16.9,15.5.3,28.5,6.8,39.2,18a27,27,0,0,1,6,11c-9.8,6.6-19.3,12.8-28.6,19.3-7.9,5.5-15.6,11.3-23.3,17.1-3.3,2.5-6.1,5.5-9.3,8.2s-4.7,2.8-8.3.1c-5.2-4-10-8.2-13-14.2-1.2-2.3-2.6-4.2-5.4-5.1a6.92,6.92,0,0,0-7,1.8c-2.2,2-1.6,4.2-.7,6.5a40.94,40.94,0,0,0,11.1,14.3c.7.6,1.4,1.3,2.1,1.9A3,3,0,0,1,497.3,665.7Zm42.2-48.2a6.48,6.48,0,0,0-6.6,4.7c-.7,3.4,2.3,3.6,4.1,4.7.3.2.7.4,1,.6,2.6.9,5.5,1.8,7.7-.4a6.2,6.2,0,0,0,1.4-4.6c-.5-3.5-3.6-4.3-6.5-4.9A3.75,3.75,0,0,0,539.5,617.5Zm-33.1,15.4c3.8,0,6.3-1.9,6.2-4.8-.1-3.3-3.6-6.4-7.2-6.5-3.1-.1-5.9,2.9-5.8,6.2C499.7,630.6,502.8,632.9,506.4,632.9Z" transform="translate(-391.01 -94.2)"/><path class="7dea6e30-7c30-4fea-a303-22e5ca7280ac" d="M837.7,663.2c-.3-1.6-1.8-3-4.4-4.3-4-2-8.1-3.9-12.2-5.7-10.4-4.5-21.6-6-32.6-8.3-2.6-.5-23.2-.3-36.8,1.8-4.7.8-8.6,1.7-10.6,3a190.67,190.67,0,0,0-22.3,14.7c-.9.7-1.8,1.4-2.6,2-3.7,2.9-5,7.4-4.5,11.8a13.61,13.61,0,0,0,8.7,11.3c7.6,2.8,17,7.4,25.3,7.1,26.4,3.3,47-.3,68.1-8.8,8.3-2,16.3-11.7,21.7-18.8C837.3,666.7,838.1,664.8,837.7,663.2Zm-46.5-4.9c1.3-2.1,4-2.7,6.8-1.3s4.9,3.1,5.4,5.7c.2,3.8-3.3,6-6.7,4.8a13.62,13.62,0,0,1-3.9-2.5C790.2,662.8,789.8,660.6,791.2,658.3ZM744,659.6c3,.2,7,4.4,6.8,7.1a5.54,5.54,0,0,1-5.7,4.8c-2.8-.4-7.5-4.7-7.3-6.7C738,662.1,741.2,659.4,744,659.6Zm78.8,10.3a64.07,64.07,0,0,1-8.9,6.6c-3.9,2.3-7.9,4.7-12.1,6a120,120,0,0,1-17.8,3.8,143.21,143.21,0,0,1-14.7,1c-2.2.1-4.3,0-6.5,0-9,.7-17.6-1.7-26.2-3.3a33.73,33.73,0,0,1-3.4-.9c-2.2-.6-3.6-1.9-3.3-4.2s2.4-3.2,4.4-3.1c4.7.2,9.4,1,14.1,1.2,7.6.3,15.3.8,22.9.4,8.4-.5,16.7-1.2,24.7-4.5,5.7-2.3,11.2-4.5,16.1-8.3a3.59,3.59,0,0,1,1-.7,8,8,0,0,1,4.4-1.5,7,7,0,0,1,5.2,2.4C824.4,666.5,824.6,668.4,822.8,669.9Z" transform="translate(-391.01 -94.2)"/><path class="7dea6e30-7c30-4fea-a303-22e5ca7280ac" d="M532.1,679.9c11.8-8.1,23.1-15.9,34.1-23.5,8.5.7,17.1.9,25.5,2.3,9.3,1.5,18.4,4.2,27.6,6.4a17.51,17.51,0,0,1,2.4,1.4c-1.4,8.1-1.6,16.3-7.2,23.2a141.46,141.46,0,0,0-8.8,12.6c-2,3-4.4,3.9-8,3.2-14-3-28-6.3-41.5-11.5-5.3-2-10.7-3.9-15.9-6.2A18.84,18.84,0,0,1,532.1,679.9Z" transform="translate(-391.01 -94.2)"/><path class="7dea6e30-7c30-4fea-a303-22e5ca7280ac" d="M417.5,667.3c3.9-5.1,8.5-5.7,12.6-6.3a200.94,200.94,0,0,1,49.6-2.2c9.5.8,18.9,2,28.4,3,1.4.2,6.7.8,8.1,1.1-3.9,7.6-11.6,14.7-16.4,24-2.4,1.6-7.4.7-12.1,0-10.3-1.7-20.6-3.7-30.7-6.1-9.4-2.2-18.8-4.9-28-7.8C425.1,671.7,421.7,669.4,417.5,667.3Z" transform="translate(-391.01 -94.2)"/><path class="7dea6e30-7c30-4fea-a303-22e5ca7280ac" d="M883.4,94.9c-1.9,3.8-3.4,6.7-4.9,9.6-4.8,9-6.7,18.4-4.1,28.5,1.9,7.4,3.2,15,5,22.5,1.8,7.7.5,10.3-6.6,13.4-7.4,3.2-14.7,6.8-22.2,9.7-16.3,6.2-33.2,9.7-50.3,13a363.69,363.69,0,0,1-56.9,6.8,251.64,251.64,0,0,1-31.3-.7c-23.4-2-46.6-4.7-70-6.9-14.3-1.3-28.7-2.3-43-2.9a227.3,227.3,0,0,1-45-5.8c-12-2.9-24.5-4-36.7-5.9-3.5-.6-7-1.1-10.4-2-3.9-1-4.9-2.3-4.3-6.4a111,111,0,0,1,4.2-19c2.8-8.3.5-15-4.7-21.3-2.4-2.8-5-5.5-8.1-8.9,3.7-1.5,6.7-2.8,9.7-3.8,6.4-2.2,12.9-3,19.7-1.2,8.4,2.3,16.9,3.9,25.2,6.3a78.63,78.63,0,0,0,33.4,1.6c20.5-3.2,41.1-4.1,61.8-4.8,20.9-.7,41.7-2.5,62.5-3.7,9.8-.6,19.7-1.3,29.5-1.3,19.7-.1,39.5-.3,59.1.6,18.5.9,36.1-2.8,53.6-7.6,9.9-2.7,19.6-5.8,29.4-8.7C879.5,95.5,881,95.4,883.4,94.9Z" transform="translate(-391.01 -94.2)"/><path class="60922c87-9af1-4aab-8f27-5f93f2a051a1" d="M538.7,642c7.4-5.8,15.4-13,22.8-18.7,5.3-4.1,10.6-8.2,16.7-10.9s13.2-3.7,19.5-1.5,11.4,8.3,11.2,15c-.2,7-5.7,12.6-10.9,17.2a307.54,307.54,0,0,1-30.9,23.6c-5-12-16-20.5-28.4-24.7" transform="translate(-391.01 -94.2)"/><path class="60922c87-9af1-4aab-8f27-5f93f2a051a1" d="M619.4,665c9.8,2.4,20.9,9,28.9,15.1,3.4,2.6,6.7,5.7,8.6,9.6s2.1,8.9-.3,12.5c-3.3,4.9-10.1,5.8-16,5.9-12.8.2-30.3,0-42.8-2.8,8.1-11,17.6-27.2,21.6-40.3" transform="translate(-391.01 -94.2)"/><path class="7dea6e30-7c30-4fea-a303-22e5ca7280ac" d="M567.1,666.2c-21.1,12.8-42.9,22.5-68.5,21.3-1.1-5,1.6-7.8,3.7-10.8,8.3-11.7,19.1-20.9,29.9-30.1.1-.1.3-.2.5-.4,7.9-6.3,8.1-6.2,17-1.4C558.1,649.4,563.7,656.1,567.1,666.2Z" transform="translate(-391.01 -94.2)"/><path class="60922c87-9af1-4aab-8f27-5f93f2a051a1" d="M835.5,677.2c-7-8.3-14.1-16.6-21.1-24.9-5-5.9-10-11.8-13.4-18.7s-5-15-2.7-22.4,9-13.6,16.7-13.7c8.1-.2,14.8,5.9,20.4,11.7,10.4,10.8,19.4,22.5,28.2,34.5A53.13,53.13,0,0,0,835.8,677" transform="translate(-391.01 -94.2)"/><path class="7dea6e30-7c30-4fea-a303-22e5ca7280ac" d="M863.6,643.7c15.8,23.7,28.2,39.9,28.1,69.4-5.4,6.1-14.1,3.7-17.6,1.4C860.2,705.6,854,697,842.8,685c-.2-.2-.3-.4-.4-.5-7.6-8.8-7.5-9-2.5-19.6C844.6,655,852.1,648.2,863.6,643.7Z" transform="translate(-391.01 -94.2)"/><path class="60922c87-9af1-4aab-8f27-5f93f2a051a1" d="M471.6,589.4c12.3,22.8,35.8,40.1,61.7,41.8,7.8.5,16.6-.7,21.7-6.7a23.83,23.83,0,0,0,4.3-8.2c2.7-8.2,3.2-17.3.1-25.4-2-5.2-7.5-7.5-11.1-11.7-6.3-7.1-11.6-15.7-20.4-19.1a42.65,42.65,0,0,0-56.9,29" transform="translate(-391.01 -94.2)"/><path class="7dea6e30-7c30-4fea-a303-22e5ca7280ac" d="M471.1,589.1c-4.7-8-9.9-14.5-11.7-22.9-.5-2.3-1.8-4.3-2.8-6.5-3.5-7.4-3.9-15.3-2.8-23.2,1.4-10.3,11.7-16.7,22.5-14.7A46.08,46.08,0,0,1,493,529a255.63,255.63,0,0,1,39.3,33.1c-12.1.4-23.1,1.8-33.2,6.9S479.3,579.7,471.1,589.1Z" transform="translate(-391.01 -94.2)"/><path class="60922c87-9af1-4aab-8f27-5f93f2a051a1" d="M863.4,573.8a156.3,156.3,0,0,0-33.3,39.6l.5-1a139.3,139.3,0,0,1-42.3-36.7c-3.4-4.5-6.6-9.3-7.9-14.7s-.5-11.7,3.4-15.7c5.4-5.6,14.6-5.2,22.2-3,1.3.4,2.5.8,3.7,1.2-2.8,8-5.7,15.9-8.8,23.8-1,2.5-1.8,5.1-2.6,7.6a3.37,3.37,0,0,0,2.5-1.6c5-8.5,9.9-17,14.7-25.6a8,8,0,0,0,.8-1.6c7.8,3.5,15.2,8.1,22.6,12.6C847.1,563.7,855.2,568.8,863.4,573.8Z" transform="translate(-391.01 -94.2)"/></svg>