<svg id="4c9ff54e-b43f-4448-b55b-1ff25877c1c7" data-name="929a63f3-9ae3-4ac3-aaf2-1ac0400b1715" xmlns="http://www.w3.org/2000/svg" width="803.1" height="493.57" viewBox="0 0 803.1 493.57"><defs><style>.\33 83dc1a8-ffd6-496d-a50e-64ec93275d7b,.\35 dce97b3-9e94-45c6-80d7-308aec744f86,.bde5bb35-4ed6-4c26-a254-ff068c76cdb3{stroke:#000;stroke-miterlimit:10;}.\33 83dc1a8-ffd6-496d-a50e-64ec93275d7b{fill:#fff;}.bde5bb35-4ed6-4c26-a254-ff068c76cdb3{fill:none;}</style></defs><title>ecstasy</title><polygon class="5dce97b3-9e94-45c6-80d7-308aec744f86" points="443.55 448.75 669.15 388.75 588.95 71.95 386.55 124.35 443.55 448.75"/><polygon class="5dce97b3-9e94-45c6-80d7-308aec744f86" points="219.45 485.55 567.45 333.45 511.75 8.45 114.45 186.35 219.45 485.55"/><path class="5dce97b3-9e94-45c6-80d7-308aec744f86" d="M1122.4,297.2a164,164,0,0,1-91.5,213.2c-84.1,33.6-180.6-9.8-213.2-91.5a164.05,164.05,0,0,1,304.7-121.7Z" transform="translate(-331.55 -129.15)"/><path class="5dce97b3-9e94-45c6-80d7-308aec744f86" d="M1031.5,208.4a164,164,0,0,1-54.8,225.4C899.3,480.9,797,454.1,751.3,379a164,164,0,0,1,280.2-170.6Z" transform="translate(-331.55 -129.15)"/><path class="383dc1a8-ffd6-496d-a50e-64ec93275d7b" d="M809.9,568.5c-22.4,8.4-73,12.8-98.5,10.2-85-8.6-151.4-94.5-138.2-184.1,12.5-84.5,68.2-144.9,185.6-144.2" transform="translate(-331.55 -129.15)"/><path class="383dc1a8-ffd6-496d-a50e-64ec93275d7b" d="M915.1,438.8C901.6,528.4,818,590.1,728.5,576.6S577.6,476.9,590.7,390c13.5-89.6,97.1-151.3,186.6-137.8S928.6,349.3,915.1,438.8Z" transform="translate(-331.55 -129.15)"/><path class="bde5bb35-4ed6-4c26-a254-ff068c76cdb3" d="M609.5,392.1l1.7.3c13.2,2,26.3,4,39.5,5.9a7.77,7.77,0,0,0,1.6.2c-.9,2-2.3,2.8-4.2,2.5-13-2-26-3.9-39-5.9C609.2,394.2,609.4,393.1,609.5,392.1Z" transform="translate(-331.55 -129.15)"/><path class="bde5bb35-4ed6-4c26-a254-ff068c76cdb3" d="M608.7,397.5l8,1.2c9.8,1.5,19.5,2.9,29.3,4.4.5.1,1,.2,1.7.4a29.43,29.43,0,0,1-2.4,2.5c-.3.3-1,.2-1.5.1-7.7-1.1-15.3-2.3-23-3.4l-12.6-1.8C608.4,399.7,608.6,398.6,608.7,397.5Z" transform="translate(-331.55 -129.15)"/><path class="bde5bb35-4ed6-4c26-a254-ff068c76cdb3" d="M895.6,444.1l-1.7-.3c-11.7-1.8-23.3-3.5-35-5.3-.5-.1-1-.2-1.8-.4a19.64,19.64,0,0,1,2.5-2.5,2.19,2.19,0,0,1,1.6-.1c11.1,1.6,22.2,3.3,33.2,5,.6.1,1.1.1,1.7.2C895.9,441.9,895.8,443,895.6,444.1Z" transform="translate(-331.55 -129.15)"/><path class="bde5bb35-4ed6-4c26-a254-ff068c76cdb3" d="M894.8,449.3a5.7,5.7,0,0,1-1.3-.1c-13.2-2-26.3-4-39.5-5.9-.4-.1-.9-.1-1.6-.2,1-1,1.8-1.8,2.6-2.5a.78.78,0,0,1,.8-.1c13.1,2,26.2,4,39.4,5.9h.1C895.1,447.3,895,448.3,894.8,449.3Z" transform="translate(-331.55 -129.15)"/><path class="bde5bb35-4ed6-4c26-a254-ff068c76cdb3" d="M896.4,438.5l-34.1-5.1a3.6,3.6,0,0,1,3.8-2.6c9.7,1.5,19.4,2.9,29.2,4.4.5.1,1,.1,1.6.2C896.7,436.4,896.6,437.4,896.4,438.5Z" transform="translate(-331.55 -129.15)"/><path class="bde5bb35-4ed6-4c26-a254-ff068c76cdb3" d="M607.9,403.1c.5.1,1.1.1,1.6.2,10.6,1.6,21.2,3.2,31.9,4.8.4.1.9.1,1.4.2a3.59,3.59,0,0,1-4.1,2.5L609,406.3c-.5-.1-1-.2-1.4-.3A13.57,13.57,0,0,1,607.9,403.1Z" transform="translate(-331.55 -129.15)"/><path class="bde5bb35-4ed6-4c26-a254-ff068c76cdb3" d="M729.3,407c.4-.4.5-.7.7-.9l20-20.3a2.52,2.52,0,0,1,1.7-.6l24.4,3.6a3,3,0,0,1,1.1.3L765,401.6c2.2.3,4.1.6,6,.9,1.5.2,3,.4,4.5.7a1.72,1.72,0,0,0,1.8-.6c3.5-3.7,7.1-7.3,10.7-11a2.11,2.11,0,0,1,2-.7c8,1.2,16.1,2.4,24.1,3.7a13,13,0,0,0,1.3.3,5.77,5.77,0,0,0-.8,1c-6.6,6.7-13.1,13.4-19.7,20.1a2.2,2.2,0,0,1-2,.7c-20.8-3.1-41.5-6.3-62.3-9.4C730.2,407.2,729.8,407.1,729.3,407Z" transform="translate(-331.55 -129.15)"/><path class="bde5bb35-4ed6-4c26-a254-ff068c76cdb3" d="M653.2,383.6a5.77,5.77,0,0,0,.8-1l9.5-9.8a2,2,0,0,1,1.9-.6l51.5,7.8a20.07,20.07,0,0,1,7.9,2.7,11.53,11.53,0,0,1,5.6,9.6,8.14,8.14,0,0,1-2.4,6.1c-2.2,2.3-4.4,4.5-6.6,6.7a1.94,1.94,0,0,1-1.6.5c-6.7-1-13.3-1.9-20-3a6.5,6.5,0,0,1-2.2-1.1,12.81,12.81,0,0,1,1.1-2c1.9-2.1,3.9-4.1,5.8-6.2,1-1,.7-1.6-.6-1.9l-1.7-.3c-15.8-2.4-31.6-4.8-47.4-7.1C654.4,383.9,653.9,383.8,653.2,383.6Z" transform="translate(-331.55 -129.15)"/><path class="bde5bb35-4ed6-4c26-a254-ff068c76cdb3" d="M718.1,408.6c-1.3,1.2-2.4,2.3-3.6,3.2-6.1,4.7-12.9,7.4-20.7,7.2-1,0-2-.2-3-.3-14.8-2.2-29.6-4.4-44.3-6.7-.4-.1-.7-.1-1.4-.2a4.67,4.67,0,0,1,.9-1c6.9-7,13.8-14,20.6-21.1a1.76,1.76,0,0,1,1.9-.6c7.2,1.1,14.4,2.2,21.5,3.3h.2c.7.4,1.3.7,2,1.1a7.24,7.24,0,0,1-1.1,1.9l-5.7,6c-1.2,1.2-1,1.9.7,2.4a11.63,11.63,0,0,0,1.8.4c9.5,1.4,18.9,2.9,28.4,4.3A2.84,2.84,0,0,1,718.1,408.6Z" transform="translate(-331.55 -129.15)"/><path class="bde5bb35-4ed6-4c26-a254-ff068c76cdb3" d="M859.8,429.9a3.63,3.63,0,0,1-.8.9c-3.5,3.6-7,7.1-10.5,10.7a1.92,1.92,0,0,1-2,.6C833,440,819.5,438,806,436a21,21,0,0,1-7.4-2.1,16.44,16.44,0,0,1-3.3-2.6,4,4,0,0,1-.4-5.2,42.34,42.34,0,0,1,4.5-5c.3-.3.9-.2,1.4-.2,3.7.5,7.4,1.1,11.1,1.7,15.4,2.3,30.8,4.6,46.1,7C858.7,429.7,859.2,429.8,859.8,429.9Z" transform="translate(-331.55 -129.15)"/><path class="bde5bb35-4ed6-4c26-a254-ff068c76cdb3" d="M852,400.4c-.4.4-.6.7-.8.9l-19.8,20.1a2.2,2.2,0,0,1-2,.7l-25.5-3.9c-.4-.1-.8-.2-1.4-.3a11.15,11.15,0,0,1,.9-1c6.6-6.7,13.1-13.3,19.6-20a2.29,2.29,0,0,1,2.1-.7l25.5,3.9C851,400.2,851.4,400.3,852,400.4Z" transform="translate(-331.55 -129.15)"/><path class="bde5bb35-4ed6-4c26-a254-ff068c76cdb3" d="M714.6,422.1a6.53,6.53,0,0,1,.7-.8l10.5-10.8a1.93,1.93,0,0,1,1.8-.6c8.1,1.2,16.2,2.5,24.3,3.7a9.69,9.69,0,0,1,1.1.3c-.4.4-.6.7-.8.9-3.5,3.6-7,7.1-10.5,10.7a1.83,1.83,0,0,1-1.7.6c-8.1-1.3-16.3-2.5-24.4-3.7C715.3,422.3,715,422.2,714.6,422.1Z" transform="translate(-331.55 -129.15)"/><path class="bde5bb35-4ed6-4c26-a254-ff068c76cdb3" d="M752.7,427.9a6.53,6.53,0,0,1,.7-.8c3.6-3.6,7.1-7.2,10.7-10.8a2.52,2.52,0,0,1,1.7-.6l24.4,3.6a2.24,2.24,0,0,1,1,.3c-.3.3-.5.6-.7.8-3.6,3.6-7.1,7.2-10.7,10.8a2,2,0,0,1-1.5.5c-8.3-1.2-16.5-2.5-24.8-3.7A2.81,2.81,0,0,1,752.7,427.9Z" transform="translate(-331.55 -129.15)"/><path class="383dc1a8-ffd6-496d-a50e-64ec93275d7b" d="M638.3,551.2c-15.2,18.5-56.7,47.8-80,58.3-77.8,35.3-178.3-5.5-212-89.6-31.7-79.3-13.9-159.5,87.9-218" transform="translate(-331.55 -129.15)"/><path class="383dc1a8-ffd6-496d-a50e-64ec93275d7b" d="M664,386.1a164.1,164.1,0,0,1-92,213c-84.2,33.4-180.5-10.3-213-92a164.06,164.06,0,1,1,305-121Z" transform="translate(-331.55 -129.15)"/><path class="bde5bb35-4ed6-4c26-a254-ff068c76cdb3" d="M524.5,358.8c-4.8,8.9-6.7,17.8-1.8,27,4.8,9,12.2,13.9,22.7,14.4.1,1,.2,2.2.2,3.3a66.44,66.44,0,0,1-3.5,23.8c-1.4,4-3.3,7.9-7.1,9.9-2.4,1.3-5.3,1.8-8.1,2.4-2.2.4-4.4.4-6.7.6a22,22,0,0,0-14,6.6q-2.1,2.1-4.2,3.9a13.81,13.81,0,0,1-14.1,3,45.36,45.36,0,0,1-9.3-4.1c-10.8-6.6-19.9-15-26.2-26.1-4.9-8.5-7.9-17.6-6.9-27.5,1.1-10.5,5.8-18.6,16.2-22.3a44,44,0,0,1,11.2-2.4,26.8,26.8,0,0,0,17.5-7.9c4.9-4.7,10.6-7.9,17.6-8.6C513.9,354.2,519.2,356,524.5,358.8Z" transform="translate(-331.55 -129.15)"/><path class="bde5bb35-4ed6-4c26-a254-ff068c76cdb3" d="M421.8,515.4c1.7,4.4,3.4,8.9,5.1,13.3,2.4,6.1,4.7,12.2,7.1,18.2,1.4,3.7,2.6,4.4,6.6,4.1.5,0,.9.1,1.4.1-.7,1.9-10.5,6.1-13,5.5a8.83,8.83,0,0,1,1.6-1.7c2.4-2,2.8-3.3,1.7-6.2-4.7-12.1-9.3-24.2-14-36.3-.8-2-1.8-2.4-4.2-2a16.05,16.05,0,0,1-3.1,0,15.66,15.66,0,0,1,2.5-2c2-1,4.1-1.7,6.1-2.7,1.2-.6,1.8-.3,2.6.7,7.8,9.6,15.6,19.1,23.4,28.7.4.5.8.9,1.5,1.8-.2-1.7-.3-2.9-.5-4.2-1.4-11.5-2.8-23-4.4-34.5-.2-1.6.1-2.4,1.7-2.9,2-.6,3.8-1.5,5.7-2.2a4.15,4.15,0,0,1,1.9.1c-.3.5-.4,1.2-.9,1.6-2.2,1.8-2.4,2.5-1.2,5.1,5.4,11.6,10.9,23.2,16.3,34.7a22.45,22.45,0,0,0,1.2,2.1c.8,1.6,2.1,1.9,3.8,1.5a6.48,6.48,0,0,1,1.9.2,5,5,0,0,1-1.4,1.5c-3.6,1.6-7.3,3.1-11,4.6a5.43,5.43,0,0,1-1.8,0,5.6,5.6,0,0,1,1-1.5c2.4-1.9,2.7-2.6,1.5-5.3-4.9-10.6-9.8-21.2-14.8-31.7a1,1,0,0,0-.7-.5c.5,3.8.9,7.6,1.4,11.5,1.2,9.7,2.4,19.3,3.6,29,0,.2.1.5.1.7a14.62,14.62,0,0,1-.5,2,10.82,10.82,0,0,1-1.8-1.1c-2.2-2.6-4.2-5.2-6.3-7.8L422.6,516l-.6-.6C422,515.3,421.9,515.4,421.8,515.4Z" transform="translate(-331.55 -129.15)"/><path class="bde5bb35-4ed6-4c26-a254-ff068c76cdb3" d="M508.8,487.9l5.7-7.5a1.5,1.5,0,0,1,1.3.1,7.24,7.24,0,0,1,1.1,1.9c3.7,8.9,7.4,17.9,11.2,26.8,1.3,3,2.4,3.5,5.1,2.3s3.1-2.2,2-5c-2.9-7-5.9-14-8.8-20.9-1.2-2.7-1.2-2.7-4.1-2a9.27,9.27,0,0,1-2,.1c2.2-3.4,4-6.4,6.2-9.9,1,2.2,1.8,3.8,2.8,5.8.8-1.4,1.4-2.5,2.1-3.7a12.45,12.45,0,0,1,5.8-5.3c5-2.2,9.5-.8,12,4,1.7,3.2,3,6.7,4.5,10,1.8,4.1,3.5,8.2,5.3,12.3,1.1,2.4,1.8,2.7,4.4,2.3.5-.1,1.2.3,1.7.4-.4.4-.6,1.1-1.1,1.3-3.3,1.5-6.7,2.9-10.1,4.3a11,11,0,0,1-2.2.2,11.52,11.52,0,0,1,.7-1.1c2.5-2.4,2.6-2.8,1.3-5.9l-8.1-19.2c-2-4.6-5.4-6.4-9.2-4.8a8.08,8.08,0,0,0-4.5,10.8l8.1,19.2c1.3,3.1,2,3.4,5.3,2.6a5.84,5.84,0,0,1,1.8.2c-.4.5-.7,1.2-1.2,1.4-3,1.4-6,2.6-9.1,3.9-4.2,1.8-8.3,3.5-12.5,5.3a21.38,21.38,0,0,1-2.7.6,4.88,4.88,0,0,1-.3-.7,11.37,11.37,0,0,1,1.6-1.5,2.35,2.35,0,0,0,.9-3.2c-3.2-7.5-6.3-15-9.5-22.5a3.1,3.1,0,0,0-3.4-2,10.82,10.82,0,0,1-1.8,0Z" transform="translate(-331.55 -129.15)"/><path class="bde5bb35-4ed6-4c26-a254-ff068c76cdb3" d="M553.2,469.2c-1.5.1-2.6.2-3.8.3.1-1.2.2-2.4.4-3.5.5-2.9,1.1-5.8,1.7-8.7l.6-3c.2,0,.4-.1.7-.1.7,1.5,1.3,3.1,2,4.6s1.3,3.2,2.1,5c1.6-.7,3.1-1.3,4.5-1.9,1-.4,2.1-.9,2.7.5s-.5,2-1.6,2.4l-4.2,1.8a3.54,3.54,0,0,1-.1.6c3.4,8,6.7,16,10.1,24a5.37,5.37,0,0,0,1,1.6c1.5,1.8,3.4,1.6,4.5-.4a4.55,4.55,0,0,0-.7-5.6c-5-5.4-7.9-11.6-7.4-19a18.22,18.22,0,0,1,1.5-6.1c2.8-6.4,9.2-9,15.8-6.6,11.2,4.1,17.4,19.7,12,30.3-2.8,5.6-8,7.8-14,6-1.4-.4-2.7-1-4.1-1.5-.1.7-.2,1.3-.3,2a8.61,8.61,0,0,1-3.4,6c-2.4,1.7-5.3,1.7-7.2-.6a24.37,24.37,0,0,1-3.3-5.4c-3-6.9-5.9-13.9-8.9-20.9A7.59,7.59,0,0,0,553.2,469.2Zm19.2,6.5c2.3,3.9,4.3,7.9,7.6,10.9,2.5,2.3,5.3,4.2,8.9,2.4s3.9-5,3.7-8.4c-.3-5.2-2.3-9.9-4.7-14.4a20.54,20.54,0,0,0-6.4-7.6,7.33,7.33,0,0,0-6.7-1.2c-3,1-4.9,3.5-4.5,7.3A88.56,88.56,0,0,0,572.4,475.7Z" transform="translate(-331.55 -129.15)"/><path class="bde5bb35-4ed6-4c26-a254-ff068c76cdb3" d="M634,470.4c-.9,1.7-11.6,6.5-13.8,6.1a5.3,5.3,0,0,1,.9-1.1c2.1-2,2.3-3.1,1.2-5.8-1.8-4.4-3.7-8.8-5.6-13.2-3.1-7.3-6.2-14.6-9.3-22-1.4-3.3-1.6-3.4-5.3-3.2-.3,0-.6-.1-1.4-.2,2.3-3.1,4.5-5.9,7-9.2,3.7,6.8,5.9,13.7,9.1,20.4a34,34,0,0,1,2-3.1A20.34,20.34,0,0,1,623,435c6-3.5,11.7-1.5,14.7,5.2,2.8,6.2,5.4,12.5,8,18.9,1,2.6,2.4,4.4,5.5,3.6a1.69,1.69,0,0,1,.5.2c-.6,1.7-10.4,6.1-12.7,5.5a10,10,0,0,1,1.3-1.5,2.94,2.94,0,0,0,1.1-3.9c-2.9-6.8-5.7-13.7-8.7-20.4-2-4.4-5.4-5.9-9.1-4.4a7.79,7.79,0,0,0-4.3,10.1c1.1,3.2,2.6,6.3,3.9,9.5s2.7,6.4,4.1,9.6c1.2,2.8,2,3.3,5,3A9.58,9.58,0,0,1,634,470.4Z" transform="translate(-331.55 -129.15)"/><path class="bde5bb35-4ed6-4c26-a254-ff068c76cdb3" d="M485.8,528.7c-1.2,2.2-2.2,4.3-3.5,6.3-2.3,3.5-5.3,4.5-8.4,3.2a7.26,7.26,0,0,1-4.4-8.7,36.45,36.45,0,0,1,3.4-8.2c1.4-2.8,3.2-5.5,4.7-8.2a3.13,3.13,0,0,0,.2-2.5c-.9-2.6-2-5.1-3.1-7.6-1-2.2-2.3-2.6-4.5-1.3a5.77,5.77,0,0,0-2.8,5.1,56.13,56.13,0,0,1-.1,5.8,8.77,8.77,0,0,1-1.7,4.1c-1.3,1.5-2.9,1.1-3.5-.8a9.46,9.46,0,0,1-.4-4.4,17.86,17.86,0,0,1,12.2-13.4c3-1,4.7-.2,6,2.7,1.6,3.4,3,6.8,4.4,10.3l5.4,12.9a8.43,8.43,0,0,0,.6,1.4c.6,1.1,1.2,2.5,2.8,2.2s1.4-1.8,1.6-3a8.27,8.27,0,0,1,.8-2.2,9.8,9.8,0,0,1,1.3,2.2,8.12,8.12,0,0,1-1.8,6.3,4.17,4.17,0,0,1-6.5.8C487.5,530.6,486.7,529.7,485.8,528.7Zm-6.5-14.6c-2.4,4.1-4.6,7.8-5.2,12.1a7,7,0,0,0,1.6,6.1,4.84,4.84,0,0,0,3.4,1.3c2.6-.3,5.9-5.8,4.9-8.2C482.7,521.7,481,518.1,479.3,514.1Z" transform="translate(-331.55 -129.15)"/><path class="bde5bb35-4ed6-4c26-a254-ff068c76cdb3" d="M479.3,367.5c-5.4-11.7-3.2-25.6,9.7-33.7C497.2,341.4,490.9,363.4,479.3,367.5Z" transform="translate(-331.55 -129.15)"/><path class="bde5bb35-4ed6-4c26-a254-ff068c76cdb3" d="M599.6,479.2a31,31,0,0,1-1.3-4c-.1-.6.3-1.2.4-1.8.6.2,1.4.2,1.8.6,1.2,1.1,2.3,2.4,3.5,3.6,3.4,3.2,7.1,3.4,9.4.4a7.5,7.5,0,0,0-1.7-10.7,12.23,12.23,0,0,0-3.6-1.4c-2.6-.7-5.3-1.1-8-1.7-4.9-1.1-7.9-4-8.5-8.2s1.9-8.5,6-10.7a17,17,0,0,1,8.2-2.1,1.77,1.77,0,0,1,2,1.2c.7,1.9,1.6,3.6,2.3,5.5.2.4.1,1.4-.1,1.4a2,2,0,0,1-1.7-.1,39.68,39.68,0,0,1-2.9-2.9c-2.1-2-4.3-2.5-6.6-1.4a5.25,5.25,0,0,0-3.3,5.2,5.51,5.51,0,0,0,4,5.7c3.3,1,6.8,1.5,10.2,2.3a10.77,10.77,0,0,1,7.9,5.7,11.5,11.5,0,0,1-4.6,15.6,26.27,26.27,0,0,1-7.3,2.5c-2.9.6-3.9-.1-5-2.8-.4-.7-.7-1.3-1.1-1.9Z" transform="translate(-331.55 -129.15)"/><path class="bde5bb35-4ed6-4c26-a254-ff068c76cdb3" d="M489.8,512.5c-2.3-5.7-3.2-11.3-.8-17,2.3-5.5,8.5-9.4,14.1-8.8,1.7.2,3,.7,3.6,2.6.4,1.5,1.2,2.9,1.7,4.3a2.61,2.61,0,0,1-.3,2,2.8,2.8,0,0,1-2.2,0,33.77,33.77,0,0,1-3.5-3.1c-4-3.7-8-2.6-9.4,2.6a19.83,19.83,0,0,0,.5,10.8,28,28,0,0,0,7.1,12.5c2.6,2.5,5.6,3.9,9.3,2.7a6.3,6.3,0,0,0,4.6-5.5c.2-1.3.1-2.6.2-3.9,0-.5.4-.9.7-1.3a3.57,3.57,0,0,1,1.1,1,3.26,3.26,0,0,1,.4,1.4,11.3,11.3,0,0,1-14.8,12.6c-5.1-1.8-8.5-5.6-11.1-10.3C490.6,514.3,490.2,513.3,489.8,512.5Z" transform="translate(-331.55 -129.15)"/><path class="bde5bb35-4ed6-4c26-a254-ff068c76cdb3" d="M512.6,470.8a10.8,10.8,0,0,1,.5,2.5c-.2,1-.6,2.3-1.4,2.7a3.77,3.77,0,0,1-3.1-.2c-1.9-1-2.8-4.1-2.1-6.1a2.37,2.37,0,0,1,3.7-1.4A27.13,27.13,0,0,1,512.6,470.8Z" transform="translate(-331.55 -129.15)"/></svg>