<svg id="6b393f9c-cb01-43fe-9006-57ed973735e4" data-name="Calque 1" xmlns="http://www.w3.org/2000/svg" width="793.61" height="694.11" viewBox="0 0 793.61 694.11"><defs><style>.\30 f77cee6-0d6f-4ce9-b8ef-ef7b18af3584{fill:#fff;}.\30 f77cee6-0d6f-4ce9-b8ef-ef7b18af3584,.\32 1c85026-cfb0-4c87-b08a-39cbf6855686{stroke:#1c0a05;stroke-miterlimit:10;}.\32 1c85026-cfb0-4c87-b08a-39cbf6855686{fill:none;}.ee4e7b8b-a57e-41f0-aae1-740027b289a6{fill:#1c0a05;}</style></defs><title>everybody</title><path class="0f77cee6-0d6f-4ce9-b8ef-ef7b18af3584" d="M572.2,138.2c3.5,53,3.9,282.4,3.9,282.4-3.8,24.4-1.1,50.8-21.8,69.6-19.1,17.3-48.5,25.5-77,31.5h1.1c-3.9,1.2-7.7,2.3-11.6,3.5-4.7,1.4-9.5,2.9-14.5,3.9a96.59,96.59,0,0,1-32.2,1.3c-3.3-.4-6.8-1-9.8-.2s-5.3,3.1-5.7,5.5,3.2,6,6,7.3c-5.1.1-10.1.3-14.7,1.8a8.17,8.17,0,0,0-2.3,1.1,5.22,5.22,0,0,0-1.4,2,14.29,14.29,0,0,0-1.4,7.8c-.8,0-1.6-.1-2.3-.1a75,75,0,0,0-10.6-.2c-3.5.3-7.1,1.3-9.4,3.3a9.08,9.08,0,0,0-2.9,7.1c0,2.5,1.1,5,2.2,7.4V573c-1.1-.1-2.3-.1-3.4-.2-3.7-.3-7.6-.7-10.9.5a8.13,8.13,0,0,0-5.6,7.9,11.4,11.4,0,0,0,3.2,6.6l.2.1c-3.9-.2-7.7.2-10.7,2.1a8.62,8.62,0,0,0-4.1,9.2c.7,3.4,2.9,6.4,5.7,9.1,11.3,10.9,31.6,15.8,49.1,12,14-3.1,20.3-6.6,30.2-6.5,3,0,22.9,2.1,30.5,2.7a62.33,62.33,0,0,0,26.2-3.8c8.8-3.3,46.9-11.3,55.1-13,31-6.6,61.1,15.1,93.4,14.4,10.3-.2,20.3-2.1,30.2-4.2,11.8-2.4,24.3-5.6,31.4-13.2,6.3-6.8,6.9-15.8,4.8-24s-6.6-15.8-9.7-23.8c-9.1-23.4-5.9-48.6,1.7-72.3s19.5-46.5,27.9-70v.1c17.2-50.5,34.5-223.8,27.6-275.7,0,0-39.9,10.9-72.6,12.7C635.2,145.7,572.2,138.2,572.2,138.2Z" transform="translate(-323.75 -52.17)"/><path class="21c85026-cfb0-4c87-b08a-39cbf6855686" d="M416.2,567.7c-3.3-.5-6.7.5-9.8,1.4a126.2,126.2,0,0,1-42.1,3.8c-3.7-.3-7.6-.7-10.9.5a8.13,8.13,0,0,0-5.6,7.9c.2,3.2,2.4,6.1,5.3,8.4" transform="translate(-323.75 -52.17)"/><path class="21c85026-cfb0-4c87-b08a-39cbf6855686" d="M416.4,553.1a13.61,13.61,0,0,1-5.4,1.6,124,124,0,0,1-22.8.9,75,75,0,0,0-10.6-.2c-3.5.3-7.1,1.3-9.4,3.3a9.08,9.08,0,0,0-2.9,7.1c0,2.5,1.1,5,2.2,7.4" transform="translate(-323.75 -52.17)"/><path class="21c85026-cfb0-4c87-b08a-39cbf6855686" d="M426.5,541.5a37.9,37.9,0,0,1-10.7,1.5c-6.8.2-13.9-.2-20.1,1.9a8.17,8.17,0,0,0-2.3,1.1,5.22,5.22,0,0,0-1.4,2,14.29,14.29,0,0,0-1.4,7.8" transform="translate(-323.75 -52.17)"/><path class="21c85026-cfb0-4c87-b08a-39cbf6855686" d="M478.2,521.6c-3.9,1.2-7.7,2.3-11.6,3.5-4.7,1.4-9.5,2.9-14.5,3.9a96.59,96.59,0,0,1-32.2,1.3c-3.3-.4-6.8-1-9.8-.2s-5.3,3.1-5.7,5.5,3.2,6,6,7.3" transform="translate(-323.75 -52.17)"/><path class="ee4e7b8b-a57e-41f0-aae1-740027b289a6" d="M344.6,599.2a40.9,40.9,0,0,1,0-7,10,10,0,0,1,.5-3.4c.3-.7.2-.6,1.3-.6.7,0,1.4-.1,2.1-.1a99.3,99.3,0,0,1,17.3,1.2c1.4.2,2.9.1,3.2,1.3a17.11,17.11,0,0,1-.1,3.9,39.33,39.33,0,0,1-1.5,7.6,2.85,2.85,0,0,1-1.2,1.7,3.71,3.71,0,0,1-2.3.3,77.17,77.17,0,0,1-16.1-2.3,4.9,4.9,0,0,1-2.7-1.3A3.5,3.5,0,0,1,344.6,599.2Z" transform="translate(-323.75 -52.17)"/><path class="ee4e7b8b-a57e-41f0-aae1-740027b289a6" d="M372.3,573.4a14,14,0,0,1-.8,6.4,7.29,7.29,0,0,1-5.5,4.1c-2.8.4-5.5-.7-7.9-1.8a4.44,4.44,0,0,1-1.9-1.2,2.3,2.3,0,0,1-.4-1.4,13.32,13.32,0,0,1,1.6-7.2Z" transform="translate(-323.75 -52.17)"/><path class="ee4e7b8b-a57e-41f0-aae1-740027b289a6" d="M390.3,556c-1.4,2.6-2.3,5.2-4.3,7.5a4.07,4.07,0,0,1-1.4,1.2,5.83,5.83,0,0,1-2.3.3H376a4.78,4.78,0,0,1-3-.6c-1-.8-.8-6.1,2-8.7C375,555.8,390.9,554.8,390.3,556Z" transform="translate(-323.75 -52.17)"/><path class="ee4e7b8b-a57e-41f0-aae1-740027b289a6" d="M409.8,543.2a21.74,21.74,0,0,1-2.9,7.1,3.48,3.48,0,0,1-1.1,1.3,5.28,5.28,0,0,1-2.5.4c-3.1,0-6.9-.3-8.1-2.5-.9-1.6-.2-3.3.5-4.8l6.2-1.4Z" transform="translate(-323.75 -52.17)"/><path class="ee4e7b8b-a57e-41f0-aae1-740027b289a6" d="M424.6,531c1.8,1.9.2,4.8-2.6,5.8s-6,.9-9,.6a6.46,6.46,0,0,1-2-.4,2.09,2.09,0,0,1-1.1-2.7c.4-1,1.4-3.8,2.3-4.6l6.2.2Z" transform="translate(-323.75 -52.17)"/><path class="21c85026-cfb0-4c87-b08a-39cbf6855686" d="M653.5,520.8a36.43,36.43,0,0,0-15.9,8.5c-7.2,6.9-9.3,16.1-11.3,24.8" transform="translate(-323.75 -52.17)"/><path class="21c85026-cfb0-4c87-b08a-39cbf6855686" d="M713.1,405.7l-.2,1c-8.4,23.5-20.3,46.3-27.9,70s-10.8,48.9-1.7,72.3c3.1,8,7.6,15.6,9.7,23.8s1.5,17.2-4.8,24c-7.1,7.6-19.7,10.7-31.4,13.2-9.9,2.1-20,3.9-30.2,4.2-32.2.7-62.3-21.1-93.4-14.4-8.2,1.8-46.4,9.7-55.1,13a62.33,62.33,0,0,1-26.2,3.8c-7.7-.5-27.5-2.6-30.5-2.7-10-.1-16.3,3.4-30.2,6.5-17.6,3.8-37.8-1.1-49.1-12-2.8-2.7-5.1-5.7-5.7-9.1a8.86,8.86,0,0,1,4.1-9.2c5.6-3.5,13.7-1.8,20.9-1a74.44,74.44,0,0,0,20-.3c11-1.6,21.6-5.6,32.7-4.8" transform="translate(-323.75 -52.17)"/><path class="0f77cee6-0d6f-4ce9-b8ef-ef7b18af3584" d="M946.9,125.9c3.5,53,3.9,282.4,3.9,282.4-3.8,24.4-1.1,50.8-21.8,69.6-19.1,17.3-48.5,25.5-77,31.5h1.1c-3.9,1.2-7.7,2.3-11.6,3.5-4.7,1.4-9.5,2.9-14.5,3.9a96.59,96.59,0,0,1-32.2,1.3c-3.3-.4-6.8-1-9.8-.2s-5.3,3.1-5.7,5.5,3.2,6,6,7.3c-5.1.1-10.1.3-14.7,1.8a8.17,8.17,0,0,0-2.3,1.1,5.22,5.22,0,0,0-1.4,2c-1.2,2.8-1.8,4.9-1.4,7.8a17,17,0,0,1-2.3-.1,75,75,0,0,0-10.6-.2c-3.5.3-7.1,1.3-9.4,3.3a9.08,9.08,0,0,0-2.9,7.1c.2,2.5,2.7,7.1,2.7,7.1-1.1-.1-2.8-.2-3.9-.2-3.7-.1-8-.8-10.9.5-3.6,1.7-5.8,4.8-5.6,7.9a11.4,11.4,0,0,0,3.2,6.6l.2.1c-3.9-.2-7.7.2-10.7,2.1a8.62,8.62,0,0,0-4.1,9.2c.6,3.4,2.9,6.4,5.7,9.1,11.3,10.9,31.6,15.8,49.1,12,14-3.1,20.3-6.6,30.2-6.5,3,0,22.9,2.1,30.5,2.7a62.33,62.33,0,0,0,26.2-3.8c8.8-3.3,46.9-11.3,55.1-13,31-6.6,61.1,15.1,93.4,14.4,10.3-.2,20.3-2.1,30.2-4.2,11.8-2.4,24.3-5.6,31.4-13.2,6.3-6.8,6.9-15.8,4.8-24s-6.6-15.8-9.7-23.8c-9.1-23.4-5.9-48.6,1.7-72.3s19.5-46.5,27.9-70v.1c17.2-50.5,34.5-223.8,27.6-275.7,0,0-39.9,10.9-72.6,12.7C1009.9,133.4,946.9,125.9,946.9,125.9Z" transform="translate(-323.75 -52.17)"/><path class="21c85026-cfb0-4c87-b08a-39cbf6855686" d="M790.9,555.4c-3.3-.5-6.7.5-9.8,1.4a124.71,124.71,0,0,1-34,4.1" transform="translate(-323.75 -52.17)"/><path class="21c85026-cfb0-4c87-b08a-39cbf6855686" d="M742.4,560.9" transform="translate(-323.75 -52.17)"/><path class="21c85026-cfb0-4c87-b08a-39cbf6855686" d="M791.1,540.8a13.61,13.61,0,0,1-5.4,1.6,125,125,0,0,1-20.3,1" transform="translate(-323.75 -52.17)"/><path class="21c85026-cfb0-4c87-b08a-39cbf6855686" d="M801.2,529.1a37.9,37.9,0,0,1-10.7,1.5c-6.8.2-13.9-.2-20.1,1.9a8.17,8.17,0,0,0-2.3,1.1,5.22,5.22,0,0,0-1.4,2,14.29,14.29,0,0,0-1.4,7.8" transform="translate(-323.75 -52.17)"/><path class="21c85026-cfb0-4c87-b08a-39cbf6855686" d="M852.8,509.3c-3.9,1.2-7.7,2.3-11.6,3.5-4.7,1.4-9.5,2.9-14.5,3.9a96.59,96.59,0,0,1-32.2,1.3c-3.3-.4-6.8-1-9.8-.2s-5.3,3.1-5.7,5.5,3.4,6,6.2,7.3" transform="translate(-323.75 -52.17)"/><path class="21c85026-cfb0-4c87-b08a-39cbf6855686" d="M743.3,577.2a2.19,2.19,0,0,1,.5,1.2,17.11,17.11,0,0,1-.1,3.9,39.33,39.33,0,0,1-1.5,7.6,2.85,2.85,0,0,1-1.2,1.7,3.71,3.71,0,0,1-2.3.3,77.17,77.17,0,0,1-16.1-2.3,4.9,4.9,0,0,1-2.7-1.3,2.3,2.3,0,0,1-.4-1.4,40.9,40.9,0,0,1,0-7,10,10,0,0,1,.5-3.4c.2-.3.2-.5.4-.5" transform="translate(-323.75 -52.17)"/><path class="21c85026-cfb0-4c87-b08a-39cbf6855686" d="M747.1,560.9c.1,2,.1,4.7-.8,6.6a7.29,7.29,0,0,1-5.5,4.1c-2.8.4-5.5-.7-7.9-1.8a4.45,4.45,0,0,1-1.9-1.2,2.3,2.3,0,0,1-.4-1.4,12,12,0,0,1,1.4-6.9" transform="translate(-323.75 -52.17)"/><path class="21c85026-cfb0-4c87-b08a-39cbf6855686" d="M743,560.7l4.1.2" transform="translate(-323.75 -52.17)"/><path class="21c85026-cfb0-4c87-b08a-39cbf6855686" d="M784.5,530.7a25.31,25.31,0,0,1-2.9,7.3,3.48,3.48,0,0,1-1.1,1.3,5.28,5.28,0,0,1-2.5.4c-3.1,0-6.9-.3-8.1-2.5-.9-1.6-.2-3.3.5-4.8" transform="translate(-323.75 -52.17)"/><path class="21c85026-cfb0-4c87-b08a-39cbf6855686" d="M765.5,543.5c-1.4,2.6-2.6,5.4-4.7,7.8a4.07,4.07,0,0,1-1.4,1.2,5.83,5.83,0,0,1-2.3.3h-6.3a4.78,4.78,0,0,1-3-.6c-1-.8-.8-6.1,2-8.7" transform="translate(-323.75 -52.17)"/><path class="21c85026-cfb0-4c87-b08a-39cbf6855686" d="M799.2,518.5c1.8,1.9.2,5-2.5,6s-6,.9-9,.6a6.46,6.46,0,0,1-2-.4,2.09,2.09,0,0,1-1.1-2.7c.4-1,1.4-3.8,2.3-4.6" transform="translate(-323.75 -52.17)"/><path class="21c85026-cfb0-4c87-b08a-39cbf6855686" d="M1028.1,508.5a36.43,36.43,0,0,0-15.9,8.5c-7.2,6.9-9.3,16.1-11.3,24.8" transform="translate(-323.75 -52.17)"/><path class="21c85026-cfb0-4c87-b08a-39cbf6855686" d="M1087.9,393.4l-.2,1c-8.4,23.5-20.3,46.3-27.9,70s-10.8,48.9-1.7,72.3c3.1,8,7.6,15.6,9.7,23.8s1.5,17.2-4.8,24c-7.1,7.6-19.7,10.7-31.4,13.2-9.9,2.1-20,3.9-30.2,4.2-32.2.7-62.3-21.1-93.4-14.4-8.2,1.8-46.4,9.7-55.1,13a62.33,62.33,0,0,1-26.2,3.8c-7.7-.5-27.5-2.6-30.5-2.7-10-.1-16.3,3.4-30.2,6.5-17.6,3.8-37.8-1.1-49.1-12-2.8-2.7-5.1-5.7-5.7-9.1a8.86,8.86,0,0,1,4.1-9.2c5.6-3.5,13.7-1.8,20.9-1a74.44,74.44,0,0,0,20-.3c11-1.6,21.6-5.6,32.7-4.8" transform="translate(-323.75 -52.17)"/><path class="0f77cee6-0d6f-4ce9-b8ef-ef7b18af3584" d="M494.2,60c-3.5,53-3.9,282.4-3.9,282.4,3.8,24.4,1.1,50.8,21.8,69.6,19.1,17.3,48.5,25.5,77,31.5H588c3.9,1.2,7.7,2.3,11.6,3.5,4.7,1.4,9.5,2.9,14.5,3.9a96.59,96.59,0,0,0,32.2,1.3c3.3-.4,6.8-1,9.8-.2s5.3,3.1,5.7,5.5-3.2,6-6,7.3c5.1.1,10.1.3,14.7,1.8a8.17,8.17,0,0,1,2.3,1.1,5.22,5.22,0,0,1,1.4,2,14.29,14.29,0,0,1,1.4,7.8c.8,0,1.6-.1,2.3-.1a75,75,0,0,1,10.6-.2c3.5.3,7.1,1.3,9.4,3.3a9.08,9.08,0,0,1,2.9,7.1,22.45,22.45,0,0,1-2.2,7.4v-.2c1.1-.1,2.3-.1,3.4-.2,3.7-.3,7.6-.7,10.9.5a8.13,8.13,0,0,1,5.6,7.9,11.4,11.4,0,0,1-3.2,6.6l-.2.1c3.9-.2,7.7.2,10.7,2.1a8.62,8.62,0,0,1,4.1,9.2c-.6,3.4-2.9,6.4-5.7,9.1-11.3,10.9-31.6,15.8-49.1,12-14-3.1-20.3-6.6-30.2-6.5-3,0-22.9,2.1-30.5,2.7a62.33,62.33,0,0,1-26.2-3.8c-8.8-3.3-46.9-11.3-55.1-13-31-6.6-61.1,15.1-93.4,14.4-10.3-.2-20.3-2.1-30.2-4.2-11.8-2.4-24.3-5.6-31.4-13.2-6.3-6.8-6.9-15.8-4.8-24s6.6-15.8,9.7-23.8c9.1-23.4,5.9-48.6-1.7-72.3s-19.5-46.5-27.9-70v.1C336.2,278,318.9,104.7,325.8,52.8c0,0,39.9,10.9,72.6,12.7S494.2,60,494.2,60Z" transform="translate(-323.75 -52.17)"/><path class="21c85026-cfb0-4c87-b08a-39cbf6855686" d="M650.2,489.4c3.3-.5,6.7.5,9.8,1.4a126.2,126.2,0,0,0,42.1,3.8c3.7-.3,7.6-.7,10.9.5a8.13,8.13,0,0,1,5.6,7.9c-.2,3.2-2.4,6.1-5.3,8.4" transform="translate(-323.75 -52.17)"/><path class="21c85026-cfb0-4c87-b08a-39cbf6855686" d="M650,474.9a13.61,13.61,0,0,0,5.4,1.6,124,124,0,0,0,22.8.9,75,75,0,0,1,10.6-.2c3.5.3,7.1,1.3,9.4,3.3a9.08,9.08,0,0,1,2.9,7.1,22.45,22.45,0,0,1-2.2,7.4" transform="translate(-323.75 -52.17)"/><path class="21c85026-cfb0-4c87-b08a-39cbf6855686" d="M640,463.2a37.9,37.9,0,0,0,10.7,1.5c6.8.2,13.9-.2,20.1,1.9a8.17,8.17,0,0,1,2.3,1.1,5.22,5.22,0,0,1,1.4,2,14.29,14.29,0,0,1,1.4,7.8" transform="translate(-323.75 -52.17)"/><path class="21c85026-cfb0-4c87-b08a-39cbf6855686" d="M588.3,443.4c3.9,1.2,7.7,2.3,11.6,3.5,4.7,1.4,9.5,2.9,14.5,3.9a96.59,96.59,0,0,0,32.2,1.3c3.3-.4,6.8-1,9.8-.2s5.3,3.1,5.7,5.5-3.2,6-6,7.3" transform="translate(-323.75 -52.17)"/><path class="ee4e7b8b-a57e-41f0-aae1-740027b289a6" d="M721.7,520.9a40.9,40.9,0,0,0,0-7,10,10,0,0,0-.5-3.4c-.3-.7-.2-.6-1.3-.6-.7,0-1.4-.1-2.1-.1a99.29,99.29,0,0,0-17.3,1.2c-1.4.2-2.9.1-3.2,1.3a17.11,17.11,0,0,0,.1,3.9,39.33,39.33,0,0,0,1.5,7.6,2.85,2.85,0,0,0,1.2,1.7,3.71,3.71,0,0,0,2.3.3,77.17,77.17,0,0,0,16.1-2.3,4.9,4.9,0,0,0,2.7-1.3C721.7,521.9,721.7,521.4,721.7,520.9Z" transform="translate(-323.75 -52.17)"/><path class="ee4e7b8b-a57e-41f0-aae1-740027b289a6" d="M694.1,495.1a14,14,0,0,0,.8,6.4,7.29,7.29,0,0,0,5.5,4.1c2.8.4,5.5-.7,7.9-1.8a4.45,4.45,0,0,0,1.9-1.2,2.3,2.3,0,0,0,.4-1.4A13.32,13.32,0,0,0,709,494Z" transform="translate(-323.75 -52.17)"/><path class="ee4e7b8b-a57e-41f0-aae1-740027b289a6" d="M676.1,477.8c1.4,2.6,2.3,5.2,4.3,7.5a4.07,4.07,0,0,0,1.4,1.2,5.83,5.83,0,0,0,2.3.3h6.3a4.78,4.78,0,0,0,3-.6c1-.8.8-6.1-2-8.7C691.5,477.6,675.5,476.5,676.1,477.8Z" transform="translate(-323.75 -52.17)"/><path class="ee4e7b8b-a57e-41f0-aae1-740027b289a6" d="M656.6,465a21.74,21.74,0,0,0,2.9,7.1,3.48,3.48,0,0,0,1.1,1.3,5.28,5.28,0,0,0,2.5.4c3.1,0,6.9-.3,8.1-2.5.9-1.6.2-3.3-.5-4.8l-6.2-1.4Z" transform="translate(-323.75 -52.17)"/><path class="ee4e7b8b-a57e-41f0-aae1-740027b289a6" d="M641.8,452.8c-1.8,1.9-.2,4.8,2.6,5.8s6,.9,9,.6a6.47,6.47,0,0,0,2-.4,2.09,2.09,0,0,0,1.1-2.7c-.4-1-1.4-3.8-2.3-4.6l-6.2.2Z" transform="translate(-323.75 -52.17)"/><path class="21c85026-cfb0-4c87-b08a-39cbf6855686" d="M413,442.6a36.43,36.43,0,0,1,15.9,8.5c7.2,6.9,9.3,16.1,11.3,24.8" transform="translate(-323.75 -52.17)"/><path class="21c85026-cfb0-4c87-b08a-39cbf6855686" d="M353.3,327.5l.2,1c8.4,23.5,20.3,46.3,27.9,70s10.8,48.9,1.7,72.3c-3.1,8-7.6,15.6-9.7,23.8s-1.5,17.2,4.8,24c7.1,7.6,19.7,10.7,31.4,13.2,9.9,2.1,20,3.9,30.2,4.2,32.2.7,62.3-21.1,93.4-14.4,8.2,1.8,46.4,9.7,55.1,13a62.33,62.33,0,0,0,26.2,3.8c7.7-.5,27.5-2.6,30.5-2.7,10-.1,16.3,3.4,30.2,6.5,17.6,3.8,37.8-1.1,49.1-12,2.8-2.7,5.1-5.7,5.7-9.1a8.86,8.86,0,0,0-4.1-9.2c-5.6-3.5-13.7-1.8-20.9-1a74.44,74.44,0,0,1-20-.3c-11-1.6-21.6-5.6-32.7-4.8" transform="translate(-323.75 -52.17)"/><path class="0f77cee6-0d6f-4ce9-b8ef-ef7b18af3584" d="M735.2,645.6a8.1,8.1,0,0,1,3.8,8.5c-.6,3.1-2.7,5.9-5.3,8.3-10.4,10-29,14.5-45.2,11-12.8-2.8-18.6-6.1-27.8-6-2.8,0-21.1,2-28.1,2.4a56.76,56.76,0,0,1-24-3.5c-8-3.1-43.1-10.3-50.6-11.9-28.5-6.1-56.2,13.9-85.7,13.3-9.4-.2-18.6-1.9-27.7-3.8-10.8-2.2-22.4-5.2-28.9-12.1-5.9-6.2-6.4-14.5-4.4-22s6.1-14.5,8.9-21.8c8.4-21.5,5.5-44.6-1.5-66.4s-17.9-42.7-25.6-64.3l.1-.6c-14.8-27.2-29.7-54.5-38.8-83.2a217.19,217.19,0,0,1-3.3-120.9,757.55,757.55,0,0,0,83.5,4.7c43.1-.2,84.8-11,84.8-11-6.6,21.8-13.1,106.9-15.5,124.1-4.7,34,15.9,146.2,34.9,163.5,17.5,15.9,76.9,31.1,80.5,32.2,4.4,1.3,8.8,2.6,13.3,3.6a91.74,91.74,0,0,0,29.6,1.2c3-.4,6.2-.9,9.1-.2s5,2.8,5.3,5.1-3,5.5-5.6,6.7c4.7.1,9.3.3,13.5,1.7a10.24,10.24,0,0,1,2.1,1,5.5,5.5,0,0,1,1.3,1.8,13,13,0,0,1,1.4,7.2c.8,0,1.4-.1,2.2-.1,3.2-.2,6.5-.2,9.7-.2a13.29,13.29,0,0,1,8.6,3.1,8,8,0,0,1,2.6,6.5,20.1,20.1,0,0,1-2,6.6c1-.1,2-.1,3-.2,3.4-.3,7-.7,10.1.5a7.41,7.41,0,0,1,5.1,7.3c-.2,2.9-.7,4.2-3.3,6.3C725.3,643.9,732.4,643.9,735.2,645.6Z" transform="translate(-323.75 -52.17)"/><path class="21c85026-cfb0-4c87-b08a-39cbf6855686" d="M656.2,601a35.71,35.71,0,0,0,9.8,1.4c6.2.1,12.8-.2,18.5,1.7a10.24,10.24,0,0,1,2.1,1,5.5,5.5,0,0,1,1.3,1.8,13,13,0,0,1,1.4,7.2" transform="translate(-323.75 -52.17)"/><path class="21c85026-cfb0-4c87-b08a-39cbf6855686" d="M731.4,654a34.21,34.21,0,0,0,0-6.4,8.39,8.39,0,0,0-.5-3.1c-.3-.6-.2-.5-1.1-.6-.7,0-1.3-.1-2-.1-5.4.1-10.6.7-15.9,1.1-1.3.1-2.7.1-2.9,1.2a13.68,13.68,0,0,0,.1,3.5,33.41,33.41,0,0,0,1.4,7,2.92,2.92,0,0,0,1.1,1.6,5.11,5.11,0,0,0,2.2.3,74.33,74.33,0,0,0,14.9-2.1,4.53,4.53,0,0,0,2.5-1.2C731.3,654.9,731.3,654.4,731.4,654Z" transform="translate(-323.75 -52.17)"/><path class="21c85026-cfb0-4c87-b08a-39cbf6855686" d="M706,630.3a13.16,13.16,0,0,0,.7,5.9,6.69,6.69,0,0,0,5,3.8c2.6.4,5-.7,7.2-1.7a3.6,3.6,0,0,0,1.7-1.1,2.84,2.84,0,0,0,.4-1.2,10.41,10.41,0,0,0-1.4-6.4Z" transform="translate(-323.75 -52.17)"/><path class="21c85026-cfb0-4c87-b08a-39cbf6855686" d="M689.2,614.1c1.2,2.4,2,5,3.9,7.2a5.25,5.25,0,0,0,1.4,1.1,5.11,5.11,0,0,0,2.1.3h5.8a4.32,4.32,0,0,0,2.8-.6c.9-.7,1.1-5.8-2.4-8.1Z" transform="translate(-323.75 -52.17)"/><path class="21c85026-cfb0-4c87-b08a-39cbf6855686" d="M671.6,602.6a21.91,21.91,0,0,0,2.7,6.6,2.13,2.13,0,0,0,1.1,1.2,4.31,4.31,0,0,0,2.3.4c2.9,0,6.4-.3,7.4-2.3.8-1.5.2-3-.5-4.4l-5.8-1.2Z" transform="translate(-323.75 -52.17)"/><path class="21c85026-cfb0-4c87-b08a-39cbf6855686" d="M658,591.4c-1.7,1.7-.1,4.4,2.4,5.3s5.5.8,8.3.6a3.66,3.66,0,0,0,1.8-.4,2,2,0,0,0,1.1-2.5,16.52,16.52,0,0,0-2.1-4.2l-5.6.2Z" transform="translate(-323.75 -52.17)"/><path class="21c85026-cfb0-4c87-b08a-39cbf6855686" d="M447.8,582.1a33.17,33.17,0,0,1,14.6,7.8c6.6,6.4,8.6,14.8,10.3,22.8" transform="translate(-323.75 -52.17)"/><path class="21c85026-cfb0-4c87-b08a-39cbf6855686" d="M407.8,464.3a109.2,109.2,0,0,0,5.1,17.5" transform="translate(-323.75 -52.17)"/><path class="21c85026-cfb0-4c87-b08a-39cbf6855686" d="M430.5,474.6a46,46,0,0,0,.6,14.8" transform="translate(-323.75 -52.17)"/><path class="21c85026-cfb0-4c87-b08a-39cbf6855686" d="M446.5,461.6c1,4.4,2,8.8,2.9,13.1" transform="translate(-323.75 -52.17)"/><path class="21c85026-cfb0-4c87-b08a-39cbf6855686" d="M463.2,480.7l2.4,15.3" transform="translate(-323.75 -52.17)"/><path class="21c85026-cfb0-4c87-b08a-39cbf6855686" d="M475.7,460.4l3,10.5" transform="translate(-323.75 -52.17)"/><path class="21c85026-cfb0-4c87-b08a-39cbf6855686" d="M491.7,485.1c1.9,6,3.8,12.1,5.6,18.1" transform="translate(-323.75 -52.17)"/><path class="21c85026-cfb0-4c87-b08a-39cbf6855686" d="M471.6,505a14.55,14.55,0,0,1,5.2,11.8" transform="translate(-323.75 -52.17)"/><path class="21c85026-cfb0-4c87-b08a-39cbf6855686" d="M440.2,500.4a29.52,29.52,0,0,0,3,12.6" transform="translate(-323.75 -52.17)"/><path class="21c85026-cfb0-4c87-b08a-39cbf6855686" d="M420,503.1c1.7,4.4,3.4,8.8,5,13.1" transform="translate(-323.75 -52.17)"/><path class="21c85026-cfb0-4c87-b08a-39cbf6855686" d="M437.4,528.8a10.48,10.48,0,0,0,3.5,8.8" transform="translate(-323.75 -52.17)"/><path class="21c85026-cfb0-4c87-b08a-39cbf6855686" d="M455.7,519.9a23.36,23.36,0,0,1,4.4,10.6" transform="translate(-323.75 -52.17)"/><path class="21c85026-cfb0-4c87-b08a-39cbf6855686" d="M496,510.2a58.23,58.23,0,0,0,3.5,14.1" transform="translate(-323.75 -52.17)"/><path class="21c85026-cfb0-4c87-b08a-39cbf6855686" d="M476.7,527.8c1.3,4.6,2.5,9.1,3.8,13.7" transform="translate(-323.75 -52.17)"/><path class="21c85026-cfb0-4c87-b08a-39cbf6855686" d="M500.2,531.6a75.46,75.46,0,0,0,8.6,17.3" transform="translate(-323.75 -52.17)"/><path class="21c85026-cfb0-4c87-b08a-39cbf6855686" d="M460.2,540.9c1.1,2.9,2,5.8,3.1,8.7" transform="translate(-323.75 -52.17)"/><path class="21c85026-cfb0-4c87-b08a-39cbf6855686" d="M426.7,538.8c1.3-.8,2.9.5,3.6,1.7a114.72,114.72,0,0,1,6.5,11.9" transform="translate(-323.75 -52.17)"/><path class="21c85026-cfb0-4c87-b08a-39cbf6855686" d="M448.1,548a28.14,28.14,0,0,0,3,10.4" transform="translate(-323.75 -52.17)"/><path class="21c85026-cfb0-4c87-b08a-39cbf6855686" d="M489.7,548.6c3.6,4.2,7.3,8.3,10.9,12.5" transform="translate(-323.75 -52.17)"/><path class="21c85026-cfb0-4c87-b08a-39cbf6855686" d="M523.6,552.3a53.56,53.56,0,0,0,9.2,9.9" transform="translate(-323.75 -52.17)"/><path class="21c85026-cfb0-4c87-b08a-39cbf6855686" d="M475.7,551.7a31.71,31.71,0,0,1,7,15.4" transform="translate(-323.75 -52.17)"/><path class="21c85026-cfb0-4c87-b08a-39cbf6855686" d="M688.8,652.4c1.4-3.1,5.6-5.2,9.9-5.1" transform="translate(-323.75 -52.17)"/><path class="21c85026-cfb0-4c87-b08a-39cbf6855686" d="M692.3,655c2.3-.3,4.4-.5,6.7-.8" transform="translate(-323.75 -52.17)"/><path class="21c85026-cfb0-4c87-b08a-39cbf6855686" d="M695.1,651.8c1.4.4,3.1-.1,4.6,0a4.22,4.22,0,0,1,3.3,1.8" transform="translate(-323.75 -52.17)"/><path class="21c85026-cfb0-4c87-b08a-39cbf6855686" d="M694.3,635.8a17.78,17.78,0,0,0,6.5-.6" transform="translate(-323.75 -52.17)"/><path class="21c85026-cfb0-4c87-b08a-39cbf6855686" d="M689.7,635.7a10.88,10.88,0,0,1,6.5-3.2" transform="translate(-323.75 -52.17)"/><path class="21c85026-cfb0-4c87-b08a-39cbf6855686" d="M679,619.9a15.22,15.22,0,0,0,7.1,2.2" transform="translate(-323.75 -52.17)"/><path class="21c85026-cfb0-4c87-b08a-39cbf6855686" d="M681.1,618.6a25.68,25.68,0,0,1,4.8.1" transform="translate(-323.75 -52.17)"/><path class="21c85026-cfb0-4c87-b08a-39cbf6855686" d="M660.4,608.2c1.8-.6,3.6-1.1,5.4-1.7" transform="translate(-323.75 -52.17)"/><path class="21c85026-cfb0-4c87-b08a-39cbf6855686" d="M658.2,605.1a43,43,0,0,1,6.2.1" transform="translate(-323.75 -52.17)"/><path class="21c85026-cfb0-4c87-b08a-39cbf6855686" d="M643.9,597.1c2.7-.6,5.4-1.1,8.1-1.7" transform="translate(-323.75 -52.17)"/><path class="21c85026-cfb0-4c87-b08a-39cbf6855686" d="M647.3,594.5a32,32,0,0,1,6.2-.9" transform="translate(-323.75 -52.17)"/><path class="21c85026-cfb0-4c87-b08a-39cbf6855686" d="M710.4,630a114.49,114.49,0,0,1-35.6-3.7c-2.9-.8-6-1.7-9-1.3" transform="translate(-323.75 -52.17)"/><path class="21c85026-cfb0-4c87-b08a-39cbf6855686" d="M725.3,643.9c2.6-2.1,3.1-3.4,3.3-6.3a7.54,7.54,0,0,0-5.1-7.3c-3.1-1.2-6.7-.8-10.1-.5-1,.1-2,.1-3,.2" transform="translate(-323.75 -52.17)"/><path class="21c85026-cfb0-4c87-b08a-39cbf6855686" d="M665.5,611.7a13.29,13.29,0,0,0,5,1.5,112.49,112.49,0,0,0,20.9.8c3.2-.2,6.5-.2,9.7-.2a13.29,13.29,0,0,1,8.6,3.1,8,8,0,0,1,2.6,6.5,20.1,20.1,0,0,1-2,6.6" transform="translate(-323.75 -52.17)"/><path class="21c85026-cfb0-4c87-b08a-39cbf6855686" d="M667.6,640c10.2-.8,20,2.9,30,4.4a70.86,70.86,0,0,0,18.4.3c6.5-.8,14-2.3,19.1.9a8.1,8.1,0,0,1,3.8,8.5c-.6,3.1-2.7,5.9-5.3,8.3-10.4,10-29,14.5-45.2,11-12.8-2.8-18.6-6.1-27.8-6-2.8,0-21.1,2-28.1,2.4a56.76,56.76,0,0,1-24-3.5c-8-3.1-43.1-10.3-50.6-11.9-28.5-6.1-56.2,13.9-85.7,13.3-9.4-.2-18.6-1.9-27.7-3.8-10.8-2.2-22.4-5.2-28.9-12.1-5.9-6.2-6.4-14.5-4.4-22s6.1-14.5,8.9-21.8c8.4-21.5,5.5-44.6-1.5-66.4s-17.9-42.7-25.6-64.3l.1-.6c-14.8-27.2-29.7-54.5-38.8-83.2A217.19,217.19,0,0,1,351,272.6a757.55,757.55,0,0,0,83.5,4.7c43.1-.2,84.8-11,84.8-11-6.6,21.8-13.1,106.9-15.5,124.1-4.7,34,15.9,146.2,34.9,163.5,17.5,15.9,76.9,31.1,80.5,32.2,4.4,1.3,8.8,2.6,13.3,3.6a91.74,91.74,0,0,0,29.6,1.2c3-.4,6.2-.9,9.1-.2s5,2.8,5.3,5.1-3,5.5-5.6,6.7" transform="translate(-323.75 -52.17)"/><path class="21c85026-cfb0-4c87-b08a-39cbf6855686" d="M491.3,449.8a58.92,58.92,0,0,1,6.2,12.6" transform="translate(-323.75 -52.17)"/><path class="21c85026-cfb0-4c87-b08a-39cbf6855686" d="M470.7,428.9A16,16,0,0,0,472,438" transform="translate(-323.75 -52.17)"/><path class="21c85026-cfb0-4c87-b08a-39cbf6855686" d="M450.3,417.8a39,39,0,0,0,6.5,20.2" transform="translate(-323.75 -52.17)"/><path class="21c85026-cfb0-4c87-b08a-39cbf6855686" d="M437.1,430v18.1" transform="translate(-323.75 -52.17)"/><path class="21c85026-cfb0-4c87-b08a-39cbf6855686" d="M416.9,424.7a22.6,22.6,0,0,0,4.1,14.9" transform="translate(-323.75 -52.17)"/><path class="21c85026-cfb0-4c87-b08a-39cbf6855686" d="M391.5,426.8a86.06,86.06,0,0,0,6.2,17.4" transform="translate(-323.75 -52.17)"/><path class="21c85026-cfb0-4c87-b08a-39cbf6855686" d="M369.4,404.5a15.76,15.76,0,0,0,4.8,12.8" transform="translate(-323.75 -52.17)"/><path class="21c85026-cfb0-4c87-b08a-39cbf6855686" d="M393.8,402.9a54.94,54.94,0,0,1,8.9,12.3" transform="translate(-323.75 -52.17)"/><path class="21c85026-cfb0-4c87-b08a-39cbf6855686" d="M419.4,392.8a41,41,0,0,0,8.6,17" transform="translate(-323.75 -52.17)"/><path class="21c85026-cfb0-4c87-b08a-39cbf6855686" d="M457.2,393.3A42.32,42.32,0,0,0,465,406" transform="translate(-323.75 -52.17)"/><path class="21c85026-cfb0-4c87-b08a-39cbf6855686" d="M483.9,393.8a70.24,70.24,0,0,0,.7,16.5" transform="translate(-323.75 -52.17)"/><path class="21c85026-cfb0-4c87-b08a-39cbf6855686" d="M488.7,422a31.32,31.32,0,0,0,6.4,10.1" transform="translate(-323.75 -52.17)"/><path class="21c85026-cfb0-4c87-b08a-39cbf6855686" d="M493,364.6a63.52,63.52,0,0,0,2.7,22.4" transform="translate(-323.75 -52.17)"/><path class="21c85026-cfb0-4c87-b08a-39cbf6855686" d="M469.9,367.7v15.4" transform="translate(-323.75 -52.17)"/><path class="21c85026-cfb0-4c87-b08a-39cbf6855686" d="M439.9,368.8V389" transform="translate(-323.75 -52.17)"/><path class="21c85026-cfb0-4c87-b08a-39cbf6855686" d="M399,364.1a27.42,27.42,0,0,0,2.9,20.3" transform="translate(-323.75 -52.17)"/><path class="21c85026-cfb0-4c87-b08a-39cbf6855686" d="M384.2,376.8c-.2,5.7-.4,11.4-.5,17" transform="translate(-323.75 -52.17)"/><path class="21c85026-cfb0-4c87-b08a-39cbf6855686" d="M357.8,351.3a27.94,27.94,0,0,0,2.5,19.6" transform="translate(-323.75 -52.17)"/><path class="21c85026-cfb0-4c87-b08a-39cbf6855686" d="M372.9,352.3V328.4" transform="translate(-323.75 -52.17)"/><path class="21c85026-cfb0-4c87-b08a-39cbf6855686" d="M394.3,348.7c0-5,6.3-9.6,4.6-14.5" transform="translate(-323.75 -52.17)"/><path class="21c85026-cfb0-4c87-b08a-39cbf6855686" d="M419.4,342.2c1.6,7.4-2,15.5,2.8,22" transform="translate(-323.75 -52.17)"/><path class="21c85026-cfb0-4c87-b08a-39cbf6855686" d="M446.2,351.3V332.7" transform="translate(-323.75 -52.17)"/><path class="21c85026-cfb0-4c87-b08a-39cbf6855686" d="M461.4,346.5a83.6,83.6,0,0,1-1.4,23.4" transform="translate(-323.75 -52.17)"/><path class="21c85026-cfb0-4c87-b08a-39cbf6855686" d="M478.5,343.3c-1.4,6.8.8,14,5.9,19.8" transform="translate(-323.75 -52.17)"/><path class="21c85026-cfb0-4c87-b08a-39cbf6855686" d="M496.2,325.3a110.59,110.59,0,0,1,4.5,15.9" transform="translate(-323.75 -52.17)"/><path class="21c85026-cfb0-4c87-b08a-39cbf6855686" d="M484.6,326.8V313.5" transform="translate(-323.75 -52.17)"/><path class="21c85026-cfb0-4c87-b08a-39cbf6855686" d="M493.4,297.6a119.13,119.13,0,0,1,5.3,20.1" transform="translate(-323.75 -52.17)"/><path class="21c85026-cfb0-4c87-b08a-39cbf6855686" d="M463.5,325.2a104.57,104.57,0,0,0-.8-25.6" transform="translate(-323.75 -52.17)"/><path class="21c85026-cfb0-4c87-b08a-39cbf6855686" d="M429.9,325.1c1.7-5.2.2-11-4-15.3" transform="translate(-323.75 -52.17)"/><path class="21c85026-cfb0-4c87-b08a-39cbf6855686" d="M393.6,318.8a59.45,59.45,0,0,1,1.7-25.5" transform="translate(-323.75 -52.17)"/><path class="21c85026-cfb0-4c87-b08a-39cbf6855686" d="M359.7,319.3c-1.5-6.9,1.1-14.2,6.8-19.7" transform="translate(-323.75 -52.17)"/><path class="21c85026-cfb0-4c87-b08a-39cbf6855686" d="M379.2,292.7V282.1" transform="translate(-323.75 -52.17)"/><path class="21c85026-cfb0-4c87-b08a-39cbf6855686" d="M412.5,287.9" transform="translate(-323.75 -52.17)"/><path class="21c85026-cfb0-4c87-b08a-39cbf6855686" d="M434.8,283.2l3,15.9" transform="translate(-323.75 -52.17)"/><path class="21c85026-cfb0-4c87-b08a-39cbf6855686" d="M477.4,302.1a69.39,69.39,0,0,0-1-21.8" transform="translate(-323.75 -52.17)"/><path class="21c85026-cfb0-4c87-b08a-39cbf6855686" d="M499.5,281.6" transform="translate(-323.75 -52.17)"/><path class="21c85026-cfb0-4c87-b08a-39cbf6855686" d="M455.2,281" transform="translate(-323.75 -52.17)"/><path class="0f77cee6-0d6f-4ce9-b8ef-ef7b18af3584" d="M1004.5,436.1a8.1,8.1,0,0,1,3.8,8.5c-.6,3.1-2.7,5.9-5.3,8.3-10.4,10-29,14.5-45.2,11-12.8-2.8-18.6-6.1-27.8-6-2.8,0-21.1,2-28.1,2.4a56.76,56.76,0,0,1-24-3.5c-8-3.1-43.1-10.3-50.6-11.9-28.5-6.1-56.2,13.9-85.7,13.3-9.4-.2-18.6-1.9-27.7-3.8-10.8-2.2-22.4-5.2-28.9-12.1-5.9-6.2-6.4-14.5-4.4-22s6.1-14.5,8.9-21.8c8.4-21.5,5.5-44.6-1.5-66.4s-17.9-42.7-25.6-64.3l.1-.6C647.9,240,633,212.7,623.9,184a217.19,217.19,0,0,1-3.3-120.9,757.55,757.55,0,0,0,83.5,4.7c43.1-.2,84.8-11,84.8-11-6.6,21.8-13.1,106.9-15.5,124.1-4.7,34,15.9,146.2,34.9,163.5,17.5,15.9,76.9,31.1,80.5,32.2,4.4,1.3,8.8,2.6,13.3,3.6a91.75,91.75,0,0,0,29.6,1.2c3-.4,6.2-.9,9.1-.2s5,2.8,5.3,5.1-3,5.5-5.6,6.7c4.7.1,9.3.3,13.5,1.7a10.24,10.24,0,0,1,2.1,1,5.5,5.5,0,0,1,1.3,1.8,13,13,0,0,1,1.4,7.2c.8,0,1.4-.1,2.2-.1,3.2-.2,6.5-.2,9.7-.2a13.29,13.29,0,0,1,8.6,3.1,8,8,0,0,1,2.6,6.5,20.1,20.1,0,0,1-2,6.6c1-.1,2-.1,3-.2,3.4-.3,7-.7,10.1.5a7.41,7.41,0,0,1,5.1,7.3c-.1,2.9-.7,4.2-3.3,6.3C994.5,434.4,1001.7,434.4,1004.5,436.1Z" transform="translate(-323.75 -52.17)"/><path class="21c85026-cfb0-4c87-b08a-39cbf6855686" d="M925.5,391.5a35.71,35.71,0,0,0,9.8,1.4c6.2.1,12.8-.2,18.5,1.7a10.24,10.24,0,0,1,2.1,1,5.5,5.5,0,0,1,1.3,1.8,13,13,0,0,1,1.4,7.2" transform="translate(-323.75 -52.17)"/><path class="21c85026-cfb0-4c87-b08a-39cbf6855686" d="M1000.6,444.5c.1-2.1.1-4.3,0-6.4a8.39,8.39,0,0,0-.5-3.1c-.3-.6-.2-.5-1.1-.6-.7,0-1.3-.1-2-.1-5.4.1-10.6.7-15.9,1.1-1.3.1-2.7.1-2.9,1.2a13.68,13.68,0,0,0,.1,3.5,33.41,33.41,0,0,0,1.4,7,2.49,2.49,0,0,0,1.1,1.6,5.11,5.11,0,0,0,2.2.3,74.32,74.32,0,0,0,14.9-2.1,4.53,4.53,0,0,0,2.5-1.2A3.73,3.73,0,0,0,1000.6,444.5Z" transform="translate(-323.75 -52.17)"/><path class="21c85026-cfb0-4c87-b08a-39cbf6855686" d="M975.3,420.9a13.16,13.16,0,0,0,.7,5.9,6.69,6.69,0,0,0,5,3.8c2.6.4,5-.7,7.2-1.7a3.6,3.6,0,0,0,1.7-1.1,2.84,2.84,0,0,0,.4-1.2,10.41,10.41,0,0,0-1.4-6.4Z" transform="translate(-323.75 -52.17)"/><path class="21c85026-cfb0-4c87-b08a-39cbf6855686" d="M958.5,404.6c1.2,2.4,2,5,3.9,7.2a5.26,5.26,0,0,0,1.4,1.1,5.11,5.11,0,0,0,2.1.3h5.8a4.32,4.32,0,0,0,2.8-.6c.9-.7,1.1-5.8-2.4-8.1Z" transform="translate(-323.75 -52.17)"/><path class="21c85026-cfb0-4c87-b08a-39cbf6855686" d="M940.8,393.1a21.91,21.91,0,0,0,2.7,6.6,2.13,2.13,0,0,0,1.1,1.2,4.31,4.31,0,0,0,2.3.4c2.9,0,6.4-.3,7.4-2.3.8-1.5.1-3-.5-4.4l-5.8-1.2Z" transform="translate(-323.75 -52.17)"/><path class="21c85026-cfb0-4c87-b08a-39cbf6855686" d="M927.2,382c-1.7,1.7-.1,4.4,2.4,5.3s5.5.8,8.3.6a3.66,3.66,0,0,0,1.8-.4,2,2,0,0,0,1.1-2.5,16.52,16.52,0,0,0-2.1-4.2l-5.7.2Z" transform="translate(-323.75 -52.17)"/><path class="21c85026-cfb0-4c87-b08a-39cbf6855686" d="M717.1,372.6a33.17,33.17,0,0,1,14.6,7.8c6.6,6.4,8.6,14.8,10.3,22.8" transform="translate(-323.75 -52.17)"/><path class="21c85026-cfb0-4c87-b08a-39cbf6855686" d="M677,254.8a109.2,109.2,0,0,0,5.1,17.5" transform="translate(-323.75 -52.17)"/><path class="21c85026-cfb0-4c87-b08a-39cbf6855686" d="M699.8,265.2a46,46,0,0,0,.6,14.8" transform="translate(-323.75 -52.17)"/><path class="21c85026-cfb0-4c87-b08a-39cbf6855686" d="M715.7,252.1c1,4.4,2,8.8,2.9,13.1" transform="translate(-323.75 -52.17)"/><path class="21c85026-cfb0-4c87-b08a-39cbf6855686" d="M732.5,271.2l2.4,15.3" transform="translate(-323.75 -52.17)"/><path class="21c85026-cfb0-4c87-b08a-39cbf6855686" d="M745,250.9l3,10.5" transform="translate(-323.75 -52.17)"/><path class="21c85026-cfb0-4c87-b08a-39cbf6855686" d="M761,275.6c1.9,6,3.8,12.1,5.6,18.1" transform="translate(-323.75 -52.17)"/><path class="21c85026-cfb0-4c87-b08a-39cbf6855686" d="M740.9,295.6a14.55,14.55,0,0,1,5.2,11.8" transform="translate(-323.75 -52.17)"/><path class="21c85026-cfb0-4c87-b08a-39cbf6855686" d="M709.4,290.9a29.52,29.52,0,0,0,3,12.6" transform="translate(-323.75 -52.17)"/><path class="21c85026-cfb0-4c87-b08a-39cbf6855686" d="M689.2,293.7c1.7,4.4,3.4,8.8,5,13.1" transform="translate(-323.75 -52.17)"/><path class="21c85026-cfb0-4c87-b08a-39cbf6855686" d="M706.7,319.4a10.48,10.48,0,0,0,3.5,8.8" transform="translate(-323.75 -52.17)"/><path class="21c85026-cfb0-4c87-b08a-39cbf6855686" d="M725,310.4a23.35,23.35,0,0,1,4.4,10.6" transform="translate(-323.75 -52.17)"/><path class="21c85026-cfb0-4c87-b08a-39cbf6855686" d="M765.3,300.8a58.23,58.23,0,0,0,3.5,14.1" transform="translate(-323.75 -52.17)"/><path class="21c85026-cfb0-4c87-b08a-39cbf6855686" d="M746,318.3c1.3,4.6,2.5,9.1,3.8,13.7" transform="translate(-323.75 -52.17)"/><path class="21c85026-cfb0-4c87-b08a-39cbf6855686" d="M769.4,322.2a75.47,75.47,0,0,0,8.6,17.3" transform="translate(-323.75 -52.17)"/><path class="21c85026-cfb0-4c87-b08a-39cbf6855686" d="M729.5,331.4c1.1,2.9,2,5.8,3.1,8.7" transform="translate(-323.75 -52.17)"/><path class="21c85026-cfb0-4c87-b08a-39cbf6855686" d="M696,329.3c1.3-.8,2.9.5,3.6,1.7a114.72,114.72,0,0,1,6.5,11.9" transform="translate(-323.75 -52.17)"/><path class="21c85026-cfb0-4c87-b08a-39cbf6855686" d="M717.4,338.5a28.14,28.14,0,0,0,3,10.4" transform="translate(-323.75 -52.17)"/><path class="21c85026-cfb0-4c87-b08a-39cbf6855686" d="M759,339.1c3.6,4.2,7.3,8.3,10.9,12.5" transform="translate(-323.75 -52.17)"/><path class="21c85026-cfb0-4c87-b08a-39cbf6855686" d="M792.9,342.9a53.56,53.56,0,0,0,9.2,9.9" transform="translate(-323.75 -52.17)"/><path class="21c85026-cfb0-4c87-b08a-39cbf6855686" d="M745,342.2a31.71,31.71,0,0,1,7,15.4" transform="translate(-323.75 -52.17)"/><path class="21c85026-cfb0-4c87-b08a-39cbf6855686" d="M958.1,443c1.4-3.1,5.6-5.2,9.9-5.1" transform="translate(-323.75 -52.17)"/><path class="21c85026-cfb0-4c87-b08a-39cbf6855686" d="M961.6,445.6c2.3-.3,4.4-.5,6.7-.8" transform="translate(-323.75 -52.17)"/><path class="21c85026-cfb0-4c87-b08a-39cbf6855686" d="M964.3,442.3c1.4.4,3.1-.1,4.6,0a4.22,4.22,0,0,1,3.3,1.8" transform="translate(-323.75 -52.17)"/><path class="21c85026-cfb0-4c87-b08a-39cbf6855686" d="M963.6,426.3a17.78,17.78,0,0,0,6.5-.6" transform="translate(-323.75 -52.17)"/><path class="21c85026-cfb0-4c87-b08a-39cbf6855686" d="M959,426.3a10.88,10.88,0,0,1,6.5-3.2" transform="translate(-323.75 -52.17)"/><path class="21c85026-cfb0-4c87-b08a-39cbf6855686" d="M948.3,410.5a15.22,15.22,0,0,0,7.1,2.2" transform="translate(-323.75 -52.17)"/><path class="21c85026-cfb0-4c87-b08a-39cbf6855686" d="M950.4,409.1a25.67,25.67,0,0,1,4.8.1" transform="translate(-323.75 -52.17)"/><path class="21c85026-cfb0-4c87-b08a-39cbf6855686" d="M929.7,398.8c1.8-.6,3.6-1.1,5.4-1.7" transform="translate(-323.75 -52.17)"/><path class="21c85026-cfb0-4c87-b08a-39cbf6855686" d="M927.5,395.7a43,43,0,0,1,6.2.1" transform="translate(-323.75 -52.17)"/><path class="21c85026-cfb0-4c87-b08a-39cbf6855686" d="M913.2,387.6c2.7-.6,5.4-1.1,8.1-1.7" transform="translate(-323.75 -52.17)"/><path class="21c85026-cfb0-4c87-b08a-39cbf6855686" d="M916.6,385.1a32,32,0,0,1,6.2-.9" transform="translate(-323.75 -52.17)"/><path class="21c85026-cfb0-4c87-b08a-39cbf6855686" d="M979.7,420.5a114.49,114.49,0,0,1-35.6-3.7c-2.9-.8-6-1.7-9-1.3" transform="translate(-323.75 -52.17)"/><path class="21c85026-cfb0-4c87-b08a-39cbf6855686" d="M994.5,434.4c2.6-2.1,3.1-3.4,3.3-6.3a7.54,7.54,0,0,0-5.1-7.3c-3.1-1.2-6.7-.8-10.1-.5-1,.1-2,.1-3,.2" transform="translate(-323.75 -52.17)"/><path class="21c85026-cfb0-4c87-b08a-39cbf6855686" d="M934.8,402.3a13.29,13.29,0,0,0,5,1.5,112.49,112.49,0,0,0,20.9.8c3.2-.2,6.5-.2,9.7-.2a13.29,13.29,0,0,1,8.6,3.1,8,8,0,0,1,2.6,6.5,18,18,0,0,1-2,6.6" transform="translate(-323.75 -52.17)"/><path class="21c85026-cfb0-4c87-b08a-39cbf6855686" d="M936.9,430.6c10.2-.8,20,2.9,30,4.4a70.86,70.86,0,0,0,18.4.3c6.5-.8,14-2.3,19.1.9a8.1,8.1,0,0,1,3.8,8.5c-.5,3.1-2.7,5.9-5.3,8.3-10.4,10-29,14.5-45.2,11-12.8-2.8-18.6-6.1-27.8-6-2.8,0-21.1,2-28.1,2.4a56.76,56.76,0,0,1-24-3.5c-8-3.1-43.1-10.3-50.6-11.9-28.5-6.1-56.2,13.9-85.7,13.3-9.4-.2-18.6-1.9-27.7-3.8-10.8-2.2-22.4-5.2-28.9-12.1-5.9-6.2-6.4-14.5-4.4-22s6.1-14.5,8.9-21.8c8.4-21.5,5.5-44.6-1.5-66.4s-17.9-42.7-25.6-64.3l.1-.6c-14.8-27.2-29.7-54.5-38.8-83.2a217.19,217.19,0,0,1-3.3-120.9,757.55,757.55,0,0,0,83.5,4.7c43.1-.2,84.8-11,84.8-11C782,78.7,775.5,163.8,773.1,181,768.4,215,789,327.2,808,344.5c17.5,15.9,76.9,31.1,80.5,32.2,4.4,1.3,8.8,2.6,13.3,3.6a91.75,91.75,0,0,0,29.6,1.2c3-.4,6.2-.9,9.1-.2s5,2.8,5.3,5.1-3,5.5-5.6,6.7" transform="translate(-323.75 -52.17)"/><path class="21c85026-cfb0-4c87-b08a-39cbf6855686" d="M760.6,240.3a58.92,58.92,0,0,1,6.2,12.6" transform="translate(-323.75 -52.17)"/><path class="21c85026-cfb0-4c87-b08a-39cbf6855686" d="M740,219.5a16,16,0,0,0,1.3,9.1" transform="translate(-323.75 -52.17)"/><path class="21c85026-cfb0-4c87-b08a-39cbf6855686" d="M719.6,208.3a39,39,0,0,0,6.5,20.2" transform="translate(-323.75 -52.17)"/><path class="21c85026-cfb0-4c87-b08a-39cbf6855686" d="M706.4,220.5v18.1" transform="translate(-323.75 -52.17)"/><path class="21c85026-cfb0-4c87-b08a-39cbf6855686" d="M686.1,215.2a22.6,22.6,0,0,0,4.1,14.9" transform="translate(-323.75 -52.17)"/><path class="21c85026-cfb0-4c87-b08a-39cbf6855686" d="M660.7,217.4a86.06,86.06,0,0,0,6.2,17.4" transform="translate(-323.75 -52.17)"/><path class="21c85026-cfb0-4c87-b08a-39cbf6855686" d="M638.7,195a15.76,15.76,0,0,0,4.8,12.8" transform="translate(-323.75 -52.17)"/><path class="21c85026-cfb0-4c87-b08a-39cbf6855686" d="M663.1,193.4a54.94,54.94,0,0,1,8.9,12.3" transform="translate(-323.75 -52.17)"/><path class="21c85026-cfb0-4c87-b08a-39cbf6855686" d="M688.6,183.3a41,41,0,0,0,8.6,17" transform="translate(-323.75 -52.17)"/><path class="21c85026-cfb0-4c87-b08a-39cbf6855686" d="M726.5,183.8a42.32,42.32,0,0,0,7.8,12.7" transform="translate(-323.75 -52.17)"/><path class="21c85026-cfb0-4c87-b08a-39cbf6855686" d="M753.2,184.4a70.24,70.24,0,0,0,.7,16.5" transform="translate(-323.75 -52.17)"/><path class="21c85026-cfb0-4c87-b08a-39cbf6855686" d="M758,212.6a31.32,31.32,0,0,0,6.4,10.1" transform="translate(-323.75 -52.17)"/><path class="21c85026-cfb0-4c87-b08a-39cbf6855686" d="M762.2,155.1a63.52,63.52,0,0,0,2.7,22.4" transform="translate(-323.75 -52.17)"/><path class="21c85026-cfb0-4c87-b08a-39cbf6855686" d="M739.2,158.3v15.4" transform="translate(-323.75 -52.17)"/><path class="21c85026-cfb0-4c87-b08a-39cbf6855686" d="M709.2,159.4v20.2" transform="translate(-323.75 -52.17)"/><path class="21c85026-cfb0-4c87-b08a-39cbf6855686" d="M668.2,154.6a27.42,27.42,0,0,0,2.9,20.3" transform="translate(-323.75 -52.17)"/><path class="21c85026-cfb0-4c87-b08a-39cbf6855686" d="M653.5,167.3c-.2,5.7-.4,11.4-.5,17" transform="translate(-323.75 -52.17)"/><path class="21c85026-cfb0-4c87-b08a-39cbf6855686" d="M627.1,141.8a27.94,27.94,0,0,0,2.5,19.6" transform="translate(-323.75 -52.17)"/><path class="21c85026-cfb0-4c87-b08a-39cbf6855686" d="M642.1,142.9V119" transform="translate(-323.75 -52.17)"/><path class="21c85026-cfb0-4c87-b08a-39cbf6855686" d="M663.5,139.2c0-5,6.3-9.6,4.6-14.5" transform="translate(-323.75 -52.17)"/><path class="21c85026-cfb0-4c87-b08a-39cbf6855686" d="M688.6,132.8c1.6,7.4-2,15.5,2.8,22" transform="translate(-323.75 -52.17)"/><path class="21c85026-cfb0-4c87-b08a-39cbf6855686" d="M715.4,141.8V123.2" transform="translate(-323.75 -52.17)"/><path class="21c85026-cfb0-4c87-b08a-39cbf6855686" d="M730.7,137a83.6,83.6,0,0,1-1.4,23.4" transform="translate(-323.75 -52.17)"/><path class="21c85026-cfb0-4c87-b08a-39cbf6855686" d="M747.8,133.8c-1.4,6.8.8,14,5.9,19.8" transform="translate(-323.75 -52.17)"/><path class="21c85026-cfb0-4c87-b08a-39cbf6855686" d="M765.5,115.8a110.58,110.58,0,0,1,4.5,15.9" transform="translate(-323.75 -52.17)"/><path class="21c85026-cfb0-4c87-b08a-39cbf6855686" d="M753.8,117.3V104" transform="translate(-323.75 -52.17)"/><path class="21c85026-cfb0-4c87-b08a-39cbf6855686" d="M762.6,88.1a119.13,119.13,0,0,1,5.3,20.1" transform="translate(-323.75 -52.17)"/><path class="21c85026-cfb0-4c87-b08a-39cbf6855686" d="M732.8,115.7a104.57,104.57,0,0,0-.8-25.6" transform="translate(-323.75 -52.17)"/><path class="21c85026-cfb0-4c87-b08a-39cbf6855686" d="M699.2,115.7c1.7-5.2.2-11-4-15.3" transform="translate(-323.75 -52.17)"/><path class="21c85026-cfb0-4c87-b08a-39cbf6855686" d="M662.8,109.4a59.45,59.45,0,0,1,1.7-25.5" transform="translate(-323.75 -52.17)"/><path class="21c85026-cfb0-4c87-b08a-39cbf6855686" d="M629,109.9c-1.5-6.9,1.1-14.2,6.8-19.7" transform="translate(-323.75 -52.17)"/><path class="21c85026-cfb0-4c87-b08a-39cbf6855686" d="M648.4,83.3V72.7" transform="translate(-323.75 -52.17)"/><path class="21c85026-cfb0-4c87-b08a-39cbf6855686" d="M681.8,78.5" transform="translate(-323.75 -52.17)"/><path class="21c85026-cfb0-4c87-b08a-39cbf6855686" d="M704,73.7l3,15.9" transform="translate(-323.75 -52.17)"/><path class="21c85026-cfb0-4c87-b08a-39cbf6855686" d="M746.7,92.6a69.39,69.39,0,0,0-1-21.8" transform="translate(-323.75 -52.17)"/><path class="21c85026-cfb0-4c87-b08a-39cbf6855686" d="M768.7,72.1" transform="translate(-323.75 -52.17)"/><path class="21c85026-cfb0-4c87-b08a-39cbf6855686" d="M724.5,71.6" transform="translate(-323.75 -52.17)"/><path class="0f77cee6-0d6f-4ce9-b8ef-ef7b18af3584" d="M547.3,716.8a8.1,8.1,0,0,0-3.8,8.5c.6,3.1,2.7,5.9,5.3,8.3,10.4,10,29,14.5,45.2,11,12.8-2.8,18.6-6.1,27.8-6,2.8,0,21.1,2,28.1,2.4a56.76,56.76,0,0,0,24-3.5c8-3.1,43.1-10.3,50.6-11.9,28.5-6.1,56.2,13.9,85.7,13.3,9.4-.2,18.6-1.9,27.7-3.8,10.8-2.2,22.4-5.2,28.9-12.1,5.9-6.2,6.4-14.5,4.4-22s-6.1-14.5-8.9-21.8c-8.4-21.5-5.5-44.6,1.5-66.4s17.9-42.7,25.6-64.3l-.1-.6c14.8-27.2,29.7-54.5,38.8-83.2a217.19,217.19,0,0,0,3.3-120.9,757.55,757.55,0,0,1-83.5,4.7c-43.1-.2-84.8-11-84.8-11,6.6,21.8,13.1,106.9,15.5,124.1,4.7,34-15.9,146.2-34.9,163.5-17.5,15.9-76.9,31.1-80.5,32.2-4.4,1.3-8.8,2.6-13.3,3.6a91.74,91.74,0,0,1-29.6,1.2c-3-.4-6.2-.9-9.1-.2s-5,2.8-5.3,5.1,3,5.5,5.6,6.7c-4.7.1-9.3.3-13.5,1.7a10.24,10.24,0,0,0-2.1,1,5.5,5.5,0,0,0-1.3,1.8,13,13,0,0,0-1.4,7.2c-.8,0-1.4-.1-2.2-.1-3.2-.2-6.5-.2-9.7-.2a13.29,13.29,0,0,0-8.6,3.1,8,8,0,0,0-2.6,6.5,20.1,20.1,0,0,0,2,6.6c-1-.1-2-.1-3-.2-3.4-.3-7-.7-10.1.5a7.41,7.41,0,0,0-5.1,7.3c.2,2.9.7,4.2,3.3,6.3C557.3,715.1,550.1,715.1,547.3,716.8Z" transform="translate(-323.75 -52.17)"/><path class="21c85026-cfb0-4c87-b08a-39cbf6855686" d="M626.3,672.2a35.71,35.71,0,0,1-9.8,1.4c-6.2.1-12.8-.2-18.5,1.7a10.24,10.24,0,0,0-2.1,1,5.5,5.5,0,0,0-1.3,1.8,13,13,0,0,0-1.4,7.2" transform="translate(-323.75 -52.17)"/><path class="ee4e7b8b-a57e-41f0-aae1-740027b289a6" d="M551.2,725.2a34.21,34.21,0,0,1,0-6.4,8.39,8.39,0,0,1,.5-3.1c.3-.6.2-.5,1.1-.6.7,0,1.3-.1,2-.1,5.4.1,10.6.7,15.9,1.1,1.3.1,2.7.1,2.9,1.2a13.68,13.68,0,0,1-.1,3.5,33.41,33.41,0,0,1-1.4,7,2.92,2.92,0,0,1-1.1,1.6,5.11,5.11,0,0,1-2.2.3,74.33,74.33,0,0,1-14.9-2.1,4.53,4.53,0,0,1-2.5-1.2A2.17,2.17,0,0,1,551.2,725.2Z" transform="translate(-323.75 -52.17)"/><path class="21c85026-cfb0-4c87-b08a-39cbf6855686" d="M576.6,701.6a13.16,13.16,0,0,1-.7,5.9,6.69,6.69,0,0,1-5,3.8c-2.6.4-5-.7-7.2-1.7a3.6,3.6,0,0,1-1.7-1.1,2.84,2.84,0,0,1-.4-1.2,10.41,10.41,0,0,1,1.4-6.4Z" transform="translate(-323.75 -52.17)"/><path class="21c85026-cfb0-4c87-b08a-39cbf6855686" d="M593.3,685.3c-1.2,2.4-2,5-3.9,7.2a5.25,5.25,0,0,1-1.4,1.1,5.11,5.11,0,0,1-2.1.3h-5.8a4.32,4.32,0,0,1-2.8-.6c-.9-.7-1.1-5.8,2.4-8.1Z" transform="translate(-323.75 -52.17)"/><path class="ee4e7b8b-a57e-41f0-aae1-740027b289a6" d="M610.9,673.8a21.91,21.91,0,0,1-2.7,6.6,2.13,2.13,0,0,1-1.1,1.2,4.31,4.31,0,0,1-2.3.4c-2.9,0-6.4-.3-7.4-2.3-.8-1.5-.2-3,.5-4.4l5.8-1.2Z" transform="translate(-323.75 -52.17)"/><path class="21c85026-cfb0-4c87-b08a-39cbf6855686" d="M624.6,662.6c1.7,1.7.1,4.4-2.4,5.3s-5.5.8-8.3.6a3.66,3.66,0,0,1-1.8-.4,2,2,0,0,1-1.1-2.5,16.52,16.52,0,0,1,2.1-4.2l5.6.2Z" transform="translate(-323.75 -52.17)"/><path class="21c85026-cfb0-4c87-b08a-39cbf6855686" d="M834.7,653.3a33.17,33.17,0,0,0-14.6,7.8c-6.6,6.4-8.6,14.8-10.3,22.8" transform="translate(-323.75 -52.17)"/><path class="21c85026-cfb0-4c87-b08a-39cbf6855686" d="M874.8,535.5a109.2,109.2,0,0,1-5.1,17.5" transform="translate(-323.75 -52.17)"/><path class="21c85026-cfb0-4c87-b08a-39cbf6855686" d="M852,545.9a46,46,0,0,1-.6,14.8" transform="translate(-323.75 -52.17)"/><path class="21c85026-cfb0-4c87-b08a-39cbf6855686" d="M836,532.8c-1,4.4-2,8.8-2.9,13.1" transform="translate(-323.75 -52.17)"/><path class="21c85026-cfb0-4c87-b08a-39cbf6855686" d="M819.4,551.9,817,567.2" transform="translate(-323.75 -52.17)"/><path class="21c85026-cfb0-4c87-b08a-39cbf6855686" d="M806.8,531.6l-3,10.5" transform="translate(-323.75 -52.17)"/><path class="21c85026-cfb0-4c87-b08a-39cbf6855686" d="M790.8,556.3c-1.9,6-3.8,12.1-5.6,18.1" transform="translate(-323.75 -52.17)"/><path class="21c85026-cfb0-4c87-b08a-39cbf6855686" d="M811,576.2a14.55,14.55,0,0,0-5.2,11.8" transform="translate(-323.75 -52.17)"/><path class="21c85026-cfb0-4c87-b08a-39cbf6855686" d="M842.3,571.6a29.52,29.52,0,0,1-3,12.6" transform="translate(-323.75 -52.17)"/><path class="21c85026-cfb0-4c87-b08a-39cbf6855686" d="M862.6,574.4c-1.7,4.4-3.4,8.8-5,13.1" transform="translate(-323.75 -52.17)"/><path class="21c85026-cfb0-4c87-b08a-39cbf6855686" d="M845.2,600.1a10.48,10.48,0,0,1-3.5,8.8" transform="translate(-323.75 -52.17)"/><path class="21c85026-cfb0-4c87-b08a-39cbf6855686" d="M826.8,591.1a23.36,23.36,0,0,0-4.4,10.6" transform="translate(-323.75 -52.17)"/><path class="21c85026-cfb0-4c87-b08a-39cbf6855686" d="M786.5,581.5a58.23,58.23,0,0,1-3.5,14.1" transform="translate(-323.75 -52.17)"/><path class="21c85026-cfb0-4c87-b08a-39cbf6855686" d="M805.9,599c-1.3,4.6-2.5,9.1-3.8,13.7" transform="translate(-323.75 -52.17)"/><path class="21c85026-cfb0-4c87-b08a-39cbf6855686" d="M782.3,602.9a75.47,75.47,0,0,1-8.6,17.3" transform="translate(-323.75 -52.17)"/><path class="21c85026-cfb0-4c87-b08a-39cbf6855686" d="M822.4,612.1c-1.1,2.9-2,5.8-3.1,8.7" transform="translate(-323.75 -52.17)"/><path class="21c85026-cfb0-4c87-b08a-39cbf6855686" d="M855.8,610c-1.3-.8-2.9.5-3.6,1.7a114.72,114.72,0,0,0-6.5,11.9" transform="translate(-323.75 -52.17)"/><path class="21c85026-cfb0-4c87-b08a-39cbf6855686" d="M834.4,619.2a28.14,28.14,0,0,1-3,10.4" transform="translate(-323.75 -52.17)"/><path class="21c85026-cfb0-4c87-b08a-39cbf6855686" d="M792.8,619.8c-3.6,4.2-7.3,8.3-10.9,12.5" transform="translate(-323.75 -52.17)"/><path class="21c85026-cfb0-4c87-b08a-39cbf6855686" d="M758.9,623.6a53.56,53.56,0,0,1-9.2,9.9" transform="translate(-323.75 -52.17)"/><path class="21c85026-cfb0-4c87-b08a-39cbf6855686" d="M806.9,622.9a31.71,31.71,0,0,0-7,15.4" transform="translate(-323.75 -52.17)"/><path class="21c85026-cfb0-4c87-b08a-39cbf6855686" d="M593.8,723.7c-1.4-3.1-5.6-5.2-9.9-5.1" transform="translate(-323.75 -52.17)"/><path class="21c85026-cfb0-4c87-b08a-39cbf6855686" d="M590.2,726.3c-2.3-.3-4.4-.5-6.7-.8" transform="translate(-323.75 -52.17)"/><path class="21c85026-cfb0-4c87-b08a-39cbf6855686" d="M587.5,723c-1.4.4-3.1-.1-4.6,0a4.22,4.22,0,0,0-3.3,1.8" transform="translate(-323.75 -52.17)"/><path class="21c85026-cfb0-4c87-b08a-39cbf6855686" d="M588.3,707a17.78,17.78,0,0,1-6.5-.6" transform="translate(-323.75 -52.17)"/><path class="21c85026-cfb0-4c87-b08a-39cbf6855686" d="M592.9,707a10.88,10.88,0,0,0-6.5-3.2" transform="translate(-323.75 -52.17)"/><path class="21c85026-cfb0-4c87-b08a-39cbf6855686" d="M603.5,691.2a15.22,15.22,0,0,1-7.1,2.2" transform="translate(-323.75 -52.17)"/><path class="21c85026-cfb0-4c87-b08a-39cbf6855686" d="M601.4,689.8a25.68,25.68,0,0,0-4.8.1" transform="translate(-323.75 -52.17)"/><path class="21c85026-cfb0-4c87-b08a-39cbf6855686" d="M622.2,679.4c-1.8-.6-3.6-1.1-5.4-1.7" transform="translate(-323.75 -52.17)"/><path class="21c85026-cfb0-4c87-b08a-39cbf6855686" d="M624.4,676.4a43,43,0,0,0-6.2.1" transform="translate(-323.75 -52.17)"/><path class="21c85026-cfb0-4c87-b08a-39cbf6855686" d="M638.6,668.3c-2.7-.6-5.4-1.1-8.1-1.7" transform="translate(-323.75 -52.17)"/><path class="21c85026-cfb0-4c87-b08a-39cbf6855686" d="M635.2,665.8a32,32,0,0,0-6.2-.9" transform="translate(-323.75 -52.17)"/><path class="21c85026-cfb0-4c87-b08a-39cbf6855686" d="M572.2,701.2a114.49,114.49,0,0,0,35.6-3.7c2.9-.8,6-1.7,9-1.3" transform="translate(-323.75 -52.17)"/><path class="21c85026-cfb0-4c87-b08a-39cbf6855686" d="M557.3,715.1c-2.6-2.1-3.1-3.4-3.3-6.3a7.54,7.54,0,0,1,5.1-7.3c3.1-1.2,6.7-.8,10.1-.5,1,.1,2,.1,3,.2" transform="translate(-323.75 -52.17)"/><path class="21c85026-cfb0-4c87-b08a-39cbf6855686" d="M617,683a13.29,13.29,0,0,1-5,1.5,112.49,112.49,0,0,1-20.9.8c-3.2-.2-6.5-.2-9.7-.2a13.29,13.29,0,0,0-8.6,3.1,8,8,0,0,0-2.6,6.5,18,18,0,0,0,2,6.6" transform="translate(-323.75 -52.17)"/><path class="21c85026-cfb0-4c87-b08a-39cbf6855686" d="M614.8,711.2c-10.2-.8-20,2.9-30,4.4a70.86,70.86,0,0,1-18.4.3c-6.5-.8-14-2.3-19.1.9a8.1,8.1,0,0,0-3.8,8.5c.6,3.1,2.7,5.9,5.3,8.3,10.4,10,29,14.5,45.2,11,12.8-2.8,18.6-6.1,27.8-6,2.8,0,21.1,2,28.1,2.4a56.76,56.76,0,0,0,24-3.5c8-3.1,43.1-10.3,50.6-11.9,28.5-6.1,56.2,13.9,85.7,13.3,9.4-.2,18.6-1.9,27.7-3.8,10.8-2.2,22.4-5.2,28.9-12.1,5.9-6.2,6.4-14.5,4.4-22s-6.1-14.5-8.9-21.8c-8.4-21.5-5.5-44.6,1.5-66.4s17.9-42.7,25.6-64.3l-.1-.6c14.8-27.2,29.7-54.5,38.8-83.2a217.19,217.19,0,0,0,3.3-120.9,757.55,757.55,0,0,1-83.5,4.7c-43.1-.2-84.8-11-84.8-11,6.6,21.8,13.1,106.9,15.5,124.1,4.7,34-15.9,146.2-34.9,163.5-17.5,15.9-76.9,31.1-80.5,32.2-4.4,1.3-8.8,2.6-13.3,3.6a91.74,91.74,0,0,1-29.6,1.2c-3-.4-6.2-.9-9.1-.2s-5,2.8-5.3,5.1,3,5.5,5.6,6.7" transform="translate(-323.75 -52.17)"/><path class="21c85026-cfb0-4c87-b08a-39cbf6855686" d="M791.3,521a58.92,58.92,0,0,0-6.2,12.6" transform="translate(-323.75 -52.17)"/><path class="21c85026-cfb0-4c87-b08a-39cbf6855686" d="M811.9,500.2a16,16,0,0,1-1.3,9.1" transform="translate(-323.75 -52.17)"/><path class="21c85026-cfb0-4c87-b08a-39cbf6855686" d="M832.3,489a39,39,0,0,1-6.5,20.2" transform="translate(-323.75 -52.17)"/><path class="21c85026-cfb0-4c87-b08a-39cbf6855686" d="M845.4,501.2v18.1" transform="translate(-323.75 -52.17)"/><path class="21c85026-cfb0-4c87-b08a-39cbf6855686" d="M865.7,495.9a22.6,22.6,0,0,1-4.1,14.9" transform="translate(-323.75 -52.17)"/><path class="21c85026-cfb0-4c87-b08a-39cbf6855686" d="M891.1,498.1a86.06,86.06,0,0,1-6.2,17.4" transform="translate(-323.75 -52.17)"/><path class="21c85026-cfb0-4c87-b08a-39cbf6855686" d="M913.2,475.7a15.76,15.76,0,0,1-4.8,12.8" transform="translate(-323.75 -52.17)"/><path class="21c85026-cfb0-4c87-b08a-39cbf6855686" d="M888.8,474.1a54.94,54.94,0,0,0-8.9,12.3" transform="translate(-323.75 -52.17)"/><path class="21c85026-cfb0-4c87-b08a-39cbf6855686" d="M863.2,464a41,41,0,0,1-8.6,17" transform="translate(-323.75 -52.17)"/><path class="21c85026-cfb0-4c87-b08a-39cbf6855686" d="M825.3,464.5a42.32,42.32,0,0,1-7.8,12.7" transform="translate(-323.75 -52.17)"/><path class="21c85026-cfb0-4c87-b08a-39cbf6855686" d="M798.6,465.1a70.24,70.24,0,0,1-.7,16.5" transform="translate(-323.75 -52.17)"/><path class="21c85026-cfb0-4c87-b08a-39cbf6855686" d="M793.8,493.3a31.32,31.32,0,0,1-6.4,10.1" transform="translate(-323.75 -52.17)"/><path class="21c85026-cfb0-4c87-b08a-39cbf6855686" d="M789.5,435.8a63.52,63.52,0,0,1-2.7,22.4" transform="translate(-323.75 -52.17)"/><path class="21c85026-cfb0-4c87-b08a-39cbf6855686" d="M812.6,439v15.4" transform="translate(-323.75 -52.17)"/><path class="21c85026-cfb0-4c87-b08a-39cbf6855686" d="M842.6,440v20.2" transform="translate(-323.75 -52.17)"/><path class="21c85026-cfb0-4c87-b08a-39cbf6855686" d="M883.5,435.3a27.42,27.42,0,0,1-2.9,20.3" transform="translate(-323.75 -52.17)"/><path class="21c85026-cfb0-4c87-b08a-39cbf6855686" d="M898.4,448c.2,5.7.4,11.4.5,17" transform="translate(-323.75 -52.17)"/><path class="21c85026-cfb0-4c87-b08a-39cbf6855686" d="M924.8,422.5a27.94,27.94,0,0,1-2.5,19.6" transform="translate(-323.75 -52.17)"/><path class="21c85026-cfb0-4c87-b08a-39cbf6855686" d="M909.7,423.6V399.7" transform="translate(-323.75 -52.17)"/><path class="21c85026-cfb0-4c87-b08a-39cbf6855686" d="M888.3,419.9c0-5-6.3-9.6-4.6-14.5" transform="translate(-323.75 -52.17)"/><path class="21c85026-cfb0-4c87-b08a-39cbf6855686" d="M863.2,413.4c-1.6,7.4,2,15.5-2.8,22" transform="translate(-323.75 -52.17)"/><path class="21c85026-cfb0-4c87-b08a-39cbf6855686" d="M836.3,422.5V403.9" transform="translate(-323.75 -52.17)"/><path class="21c85026-cfb0-4c87-b08a-39cbf6855686" d="M821.1,417.7a83.6,83.6,0,0,0,1.4,23.4" transform="translate(-323.75 -52.17)"/><path class="21c85026-cfb0-4c87-b08a-39cbf6855686" d="M804.1,414.5c1.4,6.8-.8,14-5.9,19.8" transform="translate(-323.75 -52.17)"/><path class="21c85026-cfb0-4c87-b08a-39cbf6855686" d="M786.4,396.5a110.58,110.58,0,0,0-4.5,15.9" transform="translate(-323.75 -52.17)"/><path class="21c85026-cfb0-4c87-b08a-39cbf6855686" d="M797.9,398V384.7" transform="translate(-323.75 -52.17)"/><path class="21c85026-cfb0-4c87-b08a-39cbf6855686" d="M789.2,368.8a119.13,119.13,0,0,0-5.3,20.1" transform="translate(-323.75 -52.17)"/><path class="21c85026-cfb0-4c87-b08a-39cbf6855686" d="M819,396.4a104.57,104.57,0,0,1,.8-25.6" transform="translate(-323.75 -52.17)"/><path class="21c85026-cfb0-4c87-b08a-39cbf6855686" d="M852.7,396.4c-1.7-5.2-.2-11,4-15.3" transform="translate(-323.75 -52.17)"/><path class="21c85026-cfb0-4c87-b08a-39cbf6855686" d="M889,390.1a59.45,59.45,0,0,0-1.7-25.5" transform="translate(-323.75 -52.17)"/><path class="21c85026-cfb0-4c87-b08a-39cbf6855686" d="M922.8,390.6c1.5-6.9-1.1-14.2-6.8-19.7" transform="translate(-323.75 -52.17)"/><path class="21c85026-cfb0-4c87-b08a-39cbf6855686" d="M903.4,364V353.4" transform="translate(-323.75 -52.17)"/><path class="21c85026-cfb0-4c87-b08a-39cbf6855686" d="M870,359.2" transform="translate(-323.75 -52.17)"/><path class="21c85026-cfb0-4c87-b08a-39cbf6855686" d="M847.7,354.4l-3,15.9" transform="translate(-323.75 -52.17)"/><path class="21c85026-cfb0-4c87-b08a-39cbf6855686" d="M805.1,373.3a69.39,69.39,0,0,1,1-21.8" transform="translate(-323.75 -52.17)"/><path class="21c85026-cfb0-4c87-b08a-39cbf6855686" d="M783.1,352.8" transform="translate(-323.75 -52.17)"/><path class="21c85026-cfb0-4c87-b08a-39cbf6855686" d="M827.3,352.3" transform="translate(-323.75 -52.17)"/></svg>