<svg id="f5ee8243-ee48-4d02-bbc6-ec7da585ce32" data-name="929a63f3-9ae3-4ac3-aaf2-1ac0400b1715" xmlns="http://www.w3.org/2000/svg" width="709.26" height="561.92" viewBox="0 0 709.26 561.92"><defs><style>.af3090ef-3bc5-4622-85f2-f7441bb578f7{fill:#fff;stroke:#05051c;}.af3090ef-3bc5-4622-85f2-f7441bb578f7,.f260c2ab-c768-44c4-9786-1b107e005700{stroke-linecap:round;stroke-linejoin:round;}.f260c2ab-c768-44c4-9786-1b107e005700{fill:#05051c;stroke:#fff;}</style></defs><title>face</title><path class="af3090ef-3bc5-4622-85f2-f7441bb578f7" d="M491.2,168.9c-89.9-64.3,236.5-64.3,146.7,0,89.9-64.3,89.9-29.1,0,15.8,89.9-44.9-162.3-44.9-113.3,0-49-44.9-49,17.9,0,28.2-49-10.3,177.7-10.3,101.9,0,75.8-10.3,75.8,26.9,0,16.7,75.8,10.2-150.9,10.2-101.9,0-49,10.2-49,108.4,0,44.1-49,64.3-123.2,64.3-33.3,0C401.3,338.1,401.3,104.7,491.2,168.9Z" transform="translate(-365.34 -119.08)"/><path class="af3090ef-3bc5-4622-85f2-f7441bb578f7" d="M1001.4,273.6c122.8,64.7,40,64.7-37.2,0,77.2,64.7,36.4,12.5-18.3-23.5,54.8,35.9-157.6,35.9-95.4,0-62.2,35.9-98.3,88.1-16.2,23.5-82.1,64.7-156,64.7-33.2,0-122.8,64.7,42.1-170.2,74.1-105.5-32-64.7,70.4-64.7,46,0C945.6,103.4,1124.2,338.3,1001.4,273.6Zm-142-48.8c-43.4,29.6,114.1,29.6,70.8,0,43.4,29.6-38.8-78-36.9-48.4C891.4,146.8,816.1,254.5,859.4,224.8Z" transform="translate(-365.34 -119.08)"/><path class="af3090ef-3bc5-4622-85f2-f7441bb578f7" d="M647.7,461.2c116.5-18.9,29.1-18.9-39.3,0,64.5-22.7,63.7-27.4-6.6-8.4,22.7-68.9-45.9-65.3-64.8-13.7-44.1-42.2-94-24.4-41.2,25.3-78,2-76.8,26.6,1.4,26.9-49.8,50.2,1.2,65.7,41.5,22.4,20.2,48.6,91.4,47.7,67.2-16.7,75.5,15.2,79.1,3.7,6.2-9.5,72.9,13.2,155.9,13.2,37.3,0,65.2,89.2,12.7,105.3-80.4,44,.1,68.9-10.4,69.2-27.4.8C453,599.6,389.9,585.8,462,497c-126.4.2-129-27.4-3-34-84.3-81.1-8.1-97.8,70.6-39.8-28.2-65.6-12.7-67.9,7-1.1-2.1-69.5,21.1-69.2,28.1-1.1,14.7-68.2,26.2-68.2,5.1,0C629.3,352.9,732,371.3,647.7,461.2Z" transform="translate(-365.34 -119.08)"/><path class="af3090ef-3bc5-4622-85f2-f7441bb578f7" d="M993.4,424c85.4-64.3,85.4-32,0,14.5,85.4-46.5-169.5-46.5-114.5,0-55-46.5-55,14.8,0,27.5-55-12.8,170.5-12.8,101.3,0,69.2-12.8,69.2,24.2,0,16.6,69.2,7.6-156.3,7.6-101.3,0-55,7.6-55,74.5,0,30-55,44.4,219.2,44.4,123.2,0,96,44.4,96,80.5,0,16.2,96,64.3-252.7,64.3-156.7,0-96,64.3-96-169.2,0-104.9C749.4,359.7,1078.7,359.7,993.4,424Z" transform="translate(-365.34 -119.08)"/><ellipse class="f260c2ab-c768-44c4-9786-1b107e005700" cx="260.46" cy="168.52" rx="26.5" ry="78.2"/><ellipse class="f260c2ab-c768-44c4-9786-1b107e005700" cx="459.26" cy="230.92" rx="26.5" ry="78.2"/><path class="f260c2ab-c768-44c4-9786-1b107e005700" d="M957.9,604c0,42.2-104.8,76.5-234.1,76.5S489.7,646.2,489.7,604" transform="translate(-365.34 -119.08)"/></svg>