<svg id="f6bdd45b-08d6-4b4b-a620-81b34d601ed6" data-name="929a63f3-9ae3-4ac3-aaf2-1ac0400b1715" xmlns="http://www.w3.org/2000/svg" width="829.81" height="202.65" viewBox="0 0 829.81 202.65"><title>fat</title><path d="M372.5,348.1c-89.9-64.3,236.5-64.3,146.7,0,89.9-64.3,89.9-29.1,0,15.8,89.9-44.9-162.3-44.9-113.3,0-49-44.9-49,17.9,0,28.2-49-10.3,177.7-10.3,101.9,0,75.8-10.3,75.8,26.9,0,16.7,75.8,10.2-150.9,10.2-101.9,0-49,10.2-49,108.4,0,44.1-49,64.3-123.2,64.3-33.3,0C282.6,517.3,282.6,283.8,372.5,348.1Z" transform="translate(-305.09 -298.68)"/><path d="M823.2,452.8c122.8,64.7,40,64.7-37.2,0,77.2,64.7,36.4,12.5-18.3-23.5,54.8,35.9-157.6,35.9-95.4,0-62.2,35.9-98.3,88.1-16.2,23.5-82.1,64.7-156,64.7-33.2,0C500.2,517.5,665,282.5,697,347.2c-32-64.7,70.4-64.7,46,0C767.3,282.5,946,517.5,823.2,452.8ZM681.2,404c-43.4,29.6,114.1,29.6,70.8,0,43.4,29.6-38.8-78-36.9-48.4C713.2,326,637.8,433.6,681.2,404Z" transform="translate(-305.09 -298.68)"/><path d="M1057.2,348.1c103.6-64.3,103.6-27,0,16.7,103.6-43.8-47.7-43.8-68,0,20.3-43.8,20.3,152.4,0,88.2,20.3,64.3-55.1,64.3-33.9,0-21.2,64.3-21.2-131.9,0-88.2-21.2-43.8-170.8-43.8-67.2,0-103.6-43.8-103.6-81,0-16.7C784.5,283.8,1160.8,283.8,1057.2,348.1Z" transform="translate(-305.09 -298.68)"/></svg>