<svg id="5409e061-fd5b-4c5e-985f-b5b398bd3438" data-name="Layer 1" xmlns="http://www.w3.org/2000/svg" width="500.59" height="459.72" viewBox="0 0 500.59 459.72"><defs><style>.\30 3b10bb1-0f9b-4e2e-aaa3-d55958520fc1,.\34 5542ac4-225b-433a-acd1-677da488b413{fill:#fff;}.\34 5542ac4-225b-433a-acd1-677da488b413,.adfece11-b2a2-4a10-b119-81b172ef425d{stroke:#1d1d1b;}.\34 5542ac4-225b-433a-acd1-677da488b413,.\39 0441dc8-2b15-433f-9321-063eb108fc51,.adfece11-b2a2-4a10-b119-81b172ef425d,.d48d39c0-f9bb-49a3-8067-6c31ed0006c6{stroke-miterlimit:10;}.\39 0441dc8-2b15-433f-9321-063eb108fc51,.d48d39c0-f9bb-49a3-8067-6c31ed0006c6{stroke:#fff;}.adfece11-b2a2-4a10-b119-81b172ef425d,.d48d39c0-f9bb-49a3-8067-6c31ed0006c6{fill:none;}</style></defs><title>friends</title><path class="45542ac4-225b-433a-acd1-677da488b413" d="M473,175.7s398.7-11.3,491.1,0c0,0,11.3,363.7,2.1,439.8l-1.4,11.4-485.1,2.5C479.7,629.2,464,264.1,473,175.7Z" transform="translate(-469.72 -170.18)"/><path class="90441dc8-2b15-433f-9321-063eb108fc51" d="M500.2,198.5s230.7-22,440.7,2c0,0,5.6,141.8-2.3,330.4,0,0-300,13.8-437.3,0C501.3,530.9,490.2,216.8,500.2,198.5Z" transform="translate(-469.72 -170.18)"/><path class="d48d39c0-f9bb-49a3-8067-6c31ed0006c6" d="M512.3,205c14.7-6.2,370.8-21.1,414.5,5.3,15.4,9.2,13.7,309.4-5.6,310.3-18.5.9-197.5,20.2-408.7.8C502.6,520.5,493.3,213.1,512.3,205Z" transform="translate(-469.72 -170.18)"/><path id="94c0053e-47bc-44c4-bad6-59fd1096f8d9" data-name="SVGID" class="d48d39c0-f9bb-49a3-8067-6c31ed0006c6" d="M514.9,215c1.7-4.2,45.5-9.8,223.9-14,0,0,174.7-3.3,186.1,14.1,0,0,8.6,5.5,6.8,134-1.7,123.7-4.6,144.8-11.2,162.6-.3.9-14.5,13.3-226.6,12.9,0,0-165.3-3.6-177.7-11.4,0,0-10.7,0-8.9-173C507.3,340,503.8,242.8,514.9,215Z" transform="translate(-469.72 -170.18)"/><path class="adfece11-b2a2-4a10-b119-81b172ef425d" d="M477.8,581.3s292.7,6.7,490.7,0" transform="translate(-469.72 -170.18)"/><polygon class="adfece11-b2a2-4a10-b119-81b172ef425d" points="440.58 412.72 440.58 439.62 464.78 439.62 464.78 412.22 440.58 412.72"/><circle class="90441dc8-2b15-433f-9321-063eb108fc51" cx="416.78" cy="428.72" r="4.9"/><polygon class="adfece11-b2a2-4a10-b119-81b172ef425d" points="7.38 392.52 134.68 392.52 134.68 451.02 9.58 451.02 7.38 392.52"/><line class="d48d39c0-f9bb-49a3-8067-6c31ed0006c6" x1="457.08" y1="40.12" x2="471.08" y2="30.22"/><line class="d48d39c0-f9bb-49a3-8067-6c31ed0006c6" x1="42.58" y1="34.82" x2="30.48" y2="28.32"/><line class="d48d39c0-f9bb-49a3-8067-6c31ed0006c6" x1="31.58" y1="360.72" x2="42.78" y2="351.22"/><line class="d48d39c0-f9bb-49a3-8067-6c31ed0006c6" x1="468.98" y1="360.72" x2="451.58" y2="350.42"/><path class="03b10bb1-0f9b-4e2e-aaa3-d55958520fc1" d="M594.8,392.7l-2.1.7,1.5-2.3-.1-.8.2-.9-.1-.8-2-.4-.4-.8.5-.9-.2-.8-1.7-.9.3-.9-.4-.9,3.3-.4-1.4-1.1,2.9-.2-.2-.8-2-1.3H596l-4.1-1.8,1.3-.5,1.9-.3-2.1-1.3-.5-.9,2.3-.3,1.4-.5-1.4-1.1,1.9-.4-3.3-1.5h3.8l-2.6-1.3-1-1,1.4-.5,2-.4,1.9-.4-3.3-1.4,3.3-.1-.6-.9-.6-.9-.9-1,1.7-.4-2.4-1.3,3.1-.1v-.8l1-.6-3.6-1.6,1.6-.5,1.1-.6,1.5-.5-2.3-1.3.6-.7.2-.8.5-.7,2.2-.3-.7-1-2.3-1.4,3.2-.1-2.7-1.4.2-.8H603l.3-.7-1.5-1.2-.1-.8-1.5-1.2,1.1-.8,2.2,1.6-.3-.2.2-.6h.5l1.7-.9.9-.5.3,3,1.1.1,1.3.5.4-1.6-.3-2.5,1.4,1.1,1.7,1.4-.9-2.8,1.1.2,1.1.5.2-1.5L615,343l.3-3.5.8-.6.8,2.9.8-1.5h.8l.3,2.8,1-1.4.4,1.1.9-.3.7.1,1.9-1.7-.9,2.8-.4,1.4,3.2-2.2-1.6,2.2.2.6.5.5-.7.9,1,.4,3.8.1-2.7,1.2.1.7,2.2,1.5-4.5-1,2.5,2.3.1,1.4-.9.4-1.8-.7.4,1.8-1.3-.4-.6.6-1.9-1.7-1-.1,1,3.1-1.8-1.6-.3.8.9,2.9-1.8-1.6-.4.7-.9.2.7,2.3-1-.1-3-1.7,1.3,2.1,1.7-.4-1.3,2.4.2,1.8,1.6-2.2.1,2.1,1.3-1.3.3,1.6.9-.1,1.3-1.5.8-.1,1.2-1.2.7.1-.1,3.4.5,1.3.9-.4,1.4-3.4.3,2.8.9-.5.6,2.6,1.1-4.4,1.1.3.1,2.4-1.3,1.3,3.9-.5-2.8,1,1.4.7,2.1,1.2-3.3-.2.5,1.6-.3,1.8-2.2-4.5v3.5l-1-1.7-.8-1.3-.6,2.2-.7-1.7-.8,2-.9,1-.4-3.3-.9,1.5-.4-2.2-.8.4-1.2,1.9-.7-.4-.3-1.7-1.9,3.4-.6-.7.5-3.8-2.2,3.6,1-4.7-2,3.1.1-2.5-1.9,3-.7-.4-.4-1.3.3-3.6-1.2,1.1-1,.5-1,1.1-.7.1h-.7l-.7.5-.5-.1-1.1-1.4.3,1.6-2.8-1.7,1.3,2.1.8,1.5-3.4-1.3-1,.5,3.8,2.8-3.1-.5-.2.8.4,1,2.2,1.4-1.4.4.9.9-3.8.1,2.1,1.2-1.2.6,1.4,1-1.2.6.4.8,1.6.9-4.6.4,3.6,1.1-2.7.6,3.4,1,.4.8-2.5.7-1,.7,3.4.9-3.7.6-.8.7-.2,1,3.9,1.2-3-.3-.5-.1.5-.5Zm9.9-34.5,1.9.7-1.3,1.1.9.1,1.1.1.7-.2-.1-2,.5-.6,1,.1.6-.5-.3-1.9.7-.2.3-.8,2.5,2.1-.4-1.7,2.4,1.7.4-.8-.9-2.2,2.6,1.6-2.6-3.7,1.3.2,1.8.6-1.2-2.1v-1l2.2.8,1.6-.4-1.6-.8.2-2-1.2,3.3-1.2-3.5-.2,2.9-.4,1.3-1-1-1.3-1.6-1.4-1.4.6,3.6-2-2.7-.4,1.1-.4,1.1-.2,1.3-1.4-1,.6,2.6-2.2-2.1-.7.7-1.4.1,2.5,3-1.6-.1-1.2.5-1.5.7,2.4,1.1-.6.7-.1.7Z" transform="translate(-469.72 -170.18)"/><polygon class="03b10bb1-0f9b-4e2e-aaa3-d55958520fc1" points="77.88 214.12 74.08 212.62 74.58 212.22 77.58 211.82 75.48 210.92 77.18 210.32 74.88 209.22 77.58 208.82 76.38 207.82 78.98 207.32 75.28 206.02 77.78 205.62 76.38 204.62 78.28 204.02 77.88 203.22 76.38 202.22 77.88 201.62 76.78 200.72 77.88 200.02 78.68 199.32 76.78 198.32 80.38 197.72 79.58 196.92 78.58 196.02 79.68 195.22 76.18 194.62 79.78 193.62 76.38 193.22 77.68 192.32 75.78 191.82 79.98 190.72 79.18 189.32 76.48 189.72 77.48 188.52 76.98 188.02 77.18 187.32 77.18 186.72 78.58 186.72 77.28 185.22 76.28 183.52 78.78 184.22 79.38 183.62 80.08 183.12 80.58 182.42 79.18 180.92 79.18 180.12 79.98 179.62 80.08 178.82 78.58 177.62 78.98 176.92 78.68 176.12 81.98 176.02 80.58 174.92 83.48 174.82 83.28 174.12 81.38 172.62 84.38 173.12 80.78 170.52 82.18 170.32 83.98 170.62 82.68 168.62 82.78 167.52 84.88 168.42 86.18 168.82 85.78 167.12 87.48 168.12 86.08 164.72 88.68 167.52 87.98 164.72 88.18 163.32 89.48 164.12 90.98 165.52 92.28 166.92 91.78 163.42 93.38 166.32 93.88 165.42 94.38 164.42 94.98 163.32 95.88 164.72 96.48 162.12 97.28 165.02 97.98 164.92 98.58 165.82 99.78 162.12 100.38 163.72 100.88 164.72 101.28 166.22 102.68 164.02 103.08 164.92 103.48 165.52 103.38 166.22 101.28 166.42 101.98 166.92 103.78 168.92 100.98 167.52 102.28 170.22 101.38 170.72 99.88 167.82 99.08 167.82 98.58 169.72 97.88 170.22 97.58 172.12 96.68 171.62 94.98 169.22 94.38 169.82 93.78 170.62 93.18 171.12 93.08 173.02 92.68 174.12 90.88 171.72 90.08 171.92 88.98 171.62 88.48 173.72 89.98 175.82 88.18 175.62 85.98 175.32 88.18 177.32 87.08 177.72 85.78 178.12 86.78 179.32 84.28 179.42 87.38 181.12 87.78 182.02 85.18 182.82 86.88 182.42 87.38 182.42 88.38 185.02 88.98 183.42 89.88 184.22 90.58 183.62 91.38 183.32 91.98 180.82 93.08 183.62 93.98 184.92 94.38 181.02 95.38 183.62 96.08 183.72 96.88 183.52 97.68 184.42 98.38 183.42 98.88 179.72 99.88 182.42 100.58 182.22 101.18 179.62 102.28 184.02 102.78 180.62 103.38 179.62 104.18 179.92 105.18 181.52 106.18 179.92 106.88 181.32 107.78 181.92 105.58 183.22 105.08 183.32 107.48 185.12 105.68 183.52 105.38 184.12 104.78 187.12 103.78 184.92 103.08 185.52 102.28 185.42 102.08 187.72 101.18 187.22 99.48 184.32 99.38 186.72 99.38 188.72 97.58 186.32 96.28 185.12 96.58 187.82 95.08 186.32 95.08 188.22 93.78 187.22 93.18 187.82 93.08 189.82 92.48 190.42 92.08 192.02 91.18 192.42 89.58 189.42 88.58 188.52 87.98 189.22 87.88 192.92 86.18 190.52 85.68 191.32 83.48 189.82 86.18 193.32 85.98 193.52 83.68 193.32 81.58 193.72 85.28 195.32 82.28 195.52 83.48 196.52 85.58 197.72 82.28 197.92 83.68 198.92 85.08 200.02 80.08 199.92 83.28 201.22 81.38 201.72 79.88 202.32 81.88 203.42 80.08 203.92 81.98 205.02 82.88 205.92 79.58 206.22 80.98 207.22 78.88 207.72 79.28 208.62 81.38 209.72 80.98 210.42 79.38 210.92 83.08 212.32 82.48 213.02 78.68 213.22 82.68 214.62 77.78 214.62 81.28 215.92 78.88 216.32 82.18 217.62 81.88 218.32 80.68 218.92 77.08 219.22 78.38 220.12 78.88 220.92 79.38 222.42 78.28 223.12 76.88 223.12 75.38 222.82 74.68 221.62 76.18 220.72 74.68 220.02 77.98 219.32 75.68 218.52 74.18 217.72 77.68 216.92 78.38 216.12 73.78 215.32 76.78 214.52 77.88 214.12"/><polygon class="03b10bb1-0f9b-4e2e-aaa3-d55958520fc1" points="233.78 185.82 236.08 186.22 236.88 183.72 237.58 184.12 238.38 186.92 239.18 185.12 239.88 185.32 240.68 186.32 241.38 184.22 242.18 185.22 242.88 184.52 243.68 186.02 244.48 185.32 245.18 186.62 245.98 186.42 246.68 184.22 247.48 182.62 248.28 183.62 248.98 184.22 249.78 182.32 250.48 182.32 251.28 183.42 252.08 185.02 252.78 184.72 253.58 183.62 254.48 182.92 255.18 183.32 256.18 184.12 254.38 186.92 255.38 186.42 256.28 186.82 258.48 188.92 254.98 186.92 254.38 186.92 254.18 187.12 253.98 189.32 253.08 189.62 251.98 190.02 251.48 190.72 250.08 186.82 251.28 190.72 250.08 190.92 248.18 188.52 248.18 190.92 246.88 189.62 246.98 192.12 245.48 189.72 245.28 191.22 243.58 189.32 244.88 193.02 242.98 191.22 242.48 192.82 241.78 190.92 240.98 191.32 240.58 192.92 239.28 192.02 239.48 193.52 238.18 192.92 237.48 192.22 236.58 194.12 235.18 190.82 234.28 192.12 234.08 193.52 232.68 193.52 235.08 196.22 231.58 194.82 233.88 197.42 232.48 197.22 234.28 197.92 230.08 199.22 231.18 200.52 233.48 199.02 234.58 200.22 235.18 199.62 235.98 199.62 236.68 199.32 237.78 200.22 237.88 198.22 237.98 196.22 239.58 198.32 240.28 198.32 241.18 198.52 241.88 198.42 242.08 196.42 242.78 195.92 243.68 196.32 244.38 196.02 244.78 194.12 245.68 194.22 246.48 193.62 247.58 196.72 248.28 195.12 249.08 197.92 249.48 197.52 251.08 195.92 248.98 197.82 253.38 198.12 251.78 199.22 249.88 198.82 250.88 201.02 250.68 202.12 248.78 200.82 247.38 200.32 247.68 202.12 246.08 200.92 247.18 204.42 244.78 201.52 245.38 204.32 245.08 205.72 243.78 204.92 242.38 203.42 241.08 202.02 241.48 205.52 239.78 202.72 239.38 203.62 238.88 204.62 238.38 205.82 237.28 204.52 237.08 207.22 235.68 204.52 234.98 204.82 234.08 204.12 234.08 208.02 232.98 206.72 232.08 205.92 231.18 204.72 230.78 207.32 229.98 207.02 229.18 207.02 228.38 206.72 227.38 204.72 226.68 205.72 225.98 208.32 226.28 205.22 224.08 207.02 223.68 206.02 226.88 205.12 226.98 204.32 225.18 203.52 224.88 202.72 223.08 202.02 223.88 201.22 226.68 200.62 226.48 199.92 225.98 199.12 225.88 198.42 224.48 197.22 223.78 196.32 226.78 196.22 227.08 195.32 227.98 194.62 226.68 193.62 224.38 192.62 226.08 191.92 228.28 191.32 225.38 190.32 226.38 189.72 227.48 189.32 226.38 188.32 228.78 188.62 225.88 186.62 225.68 185.62 228.58 186.22 227.58 184.92 227.78 184.22 230.58 184.52 229.38 183.32 230.48 182.92 230.18 182.02 230.38 181.22 228.58 179.42 231.48 180.22 232.98 180.52 230.48 177.52 232.88 178.82 233.48 178.42 233.88 177.82 235.08 178.32 235.08 177.12 233.98 173.52 235.98 175.72 236.58 175.22 236.48 172.52 238.58 176.62 238.38 173.22 238.98 172.02 239.88 172.22 240.88 173.82 241.48 172.12 242.38 173.12 243.18 172.92 243.78 175.42 244.38 176.02 245.48 173.02 245.78 175.52 246.58 175.12 248.18 172.52 248.18 174.92 248.98 174.82 249.28 175.42 251.68 175.52 251.08 176.62 247.78 177.42 249.98 178.22 251.78 179.22 248.78 179.22 247.58 178.22 248.38 180.62 247.38 178.92 246.88 180.62 245.88 179.42 245.28 179.92 244.88 181.82 244.18 182.22 243.78 183.82 243.08 184.12 241.68 181.12 240.58 180.22 239.98 180.92 240.38 184.62 238.88 182.22 238.38 183.12 236.78 181.02 237.68 185.42 236.88 185.52 235.38 183.92 233.78 185.82"/><path class="03b10bb1-0f9b-4e2e-aaa3-d55958520fc1" d="M819.2,343.1l.7.7.5,2.3,1.1-3.1.6,1.7.6,2.1,1-1.9.6,1.6,1.2-4.3.5,2.6.7.8,1.1-2.7.7,3.8.7-4,.9,1,.9,1.6.9-1.1.5,1.5,1.4-2.9.6,1-.3,3.5,1-.8,1.1-.7-.2,2.1.8-.1,1.9-1.8.5.8-1.1,2.7,1.7-.9.4.6-.3,1.2,2.1-.7-.3,1.2,1,.3-.9,1.3.9.4-1,1.1.4.6,2.3.1,1.8.5-.9,1-.6.9,1.9.8v.9l-1.2.8-1.8.6.1.8.9,1.1.4,1.1-.7.7-.9.5-3.2-1.2.5,1.2.2,1.1,1.4,2.6-3.2-2.5-.7.1-.5.4.5,2.3-.6.7-.5.9-.5,1.1-2.2-3.6.6,4.1-.9-.2-1.6-2.6-.1,2.4-1.2-1.4-.2,2.5-1.4-2.5-.5,1.5-1.3-2.2V373l-1.3-2.2-.5,1.7-1.1-1.7-.6.7-.4,1.7-1-1.3-.5,1.3-.9-.9-.9-.6-.3,2.1-1.6-3.2-.5,1-.5,1.1-1.1-.9.3,3.6-1.9-3.2.5,3.5-1.2-.9,1.7.7-4.3.7.5.7,2.6.7-1.4.7.3.6-.5.3-.3.3-.7-1.1-.7,1.9-1,1.9-.3-2.7-.2-.4.2-.4-.1-.8-2-.2-.5-.7.3-.9-.4-.7-1.9-.3v-.9l-.6-.7,3-1.3-1.6-.6,2.8-.6-.3-.6-2.1-1.1,3,.1-4-2.1,1.3-.4,1.9-.1-1.8-1.6-.3-1,2.3.1,1.4-.2-1.2-1.3h2l-3-2.1,3.7.7-2.3-1.8-.8-1.1,1.5-.2h2.1l2-.1-3-1.9,3.3.3-.5-1-.5-1-.8-1,1.7-.4-2.4-1.2,3-.4-.1-.9.9-.8-3.8-.8,1.4-.8.8-.9,1.2-1-2.5-.6.8-.7.6-.5.8.1,1.1,1.9.6-1,.6-2.6Zm-3.6,21.5.2.4.8,2.2.5-3.2,1.1,1.4,1.4,1.6.1-2.2,1.1,1.2.8-4.2-.2,2.8-.1,1,2.6-1.2-2.4,3,3.2-2.3-.3,1,.9,1.4.2-1.4,1.1,1.1-.2-3.2.9.6,1.6,3.2.5-1.2.4-1.2,1.2,1.7.6-.6.1-2.6.8.2,1.5,2.5.2-2,.8-.1,1.1.7L836,363l1.1.5.3-1,1.5.7.1-1.1,1.6.2.3-.9-1.6-1.7-1.4-.5.9-.7.4-.9-2-.1-.2-.5.7-1.1,1-1.5-.7-.4-1.4.3-1,.2-.3-.6-.3-.9.5-3.5-1.2.8-1,.6-1.2,2.7-.3-4-.8-.4-.8.1-.9,2.1-.8.3-.8.6-.8.8-.7-4.2-.8,4-.8-.5-.6-3-.9,2.2-.6-1.7-1.1,2.3-.3-2.8-1,1.1h-2.6l3.6,1.4-2.6.2,1.3,1.1-2,.3.3.9,1.3,1.2-1.7.3.9,1.1-1.2.4-.9.5,1.6,1.4-3.6-.5.5,1,.6,1.1-1.3.3,3,2-3.7-.4,3,1.9Z" transform="translate(-469.72 -170.18)"/><polygon class="03b10bb1-0f9b-4e2e-aaa3-d55958520fc1" points="280.28 202.02 276.38 200.92 277.08 200.22 279.08 199.62 279.08 198.82 280.48 198.12 280.28 197.32 278.28 196.32 276.58 195.42 278.68 194.82 277.48 193.92 278.08 193.12 277.78 192.32 279.48 191.72 281.38 191.12 280.38 190.22 276.88 188.92 277.08 188.12 278.58 187.62 277.48 186.52 279.98 186.32 277.98 184.92 280.48 184.92 280.58 184.12 278.98 182.62 279.48 181.92 283.28 183.02 281.78 181.32 281.78 180.32 283.88 180.92 284.88 180.82 282.68 177.72 284.98 179.22 284.98 177.42 285.98 177.92 285.98 180.12 288.08 177.72 287.68 179.52 286.48 181.22 288.48 180.72 287.58 182.12 291.78 180.72 289.88 182.62 289.48 183.62 292.38 183.22 289.28 185.62 293.08 184.42 292.58 185.62 291.78 187.12 293.18 187.02 292.68 188.62 295.48 186.92 295.48 188.02 293.88 191.12 295.28 190.82 296.48 190.42 296.08 192.52 297.08 192.52 298.88 190.72 299.38 191.32 298.98 194.22 300.38 192.82 301.28 193.32 303.28 193.32 301.88 191.52 303.08 191.12 302.68 190.22 304.28 189.92 303.88 189.02 305.38 188.72 305.48 188.02 303.68 186.52 302.38 185.32 303.58 184.92 304.48 184.42 302.98 183.02 303.18 182.32 304.48 182.02 306.38 181.92 306.38 181.12 305.68 180.02 305.18 179.02 305.88 178.42 306.68 177.92 310.08 178.62 309.38 177.42 308.88 176.42 306.58 174.52 310.48 175.42 311.08 174.82 311.28 174.12 309.58 172.52 309.58 171.72 309.28 170.72 308.78 169.72 312.98 170.52 309.48 168.42 310.18 167.82 313.18 168.12 311.28 166.72 313.08 166.72 312.48 164.22 313.88 166.72 314.78 165.52 313.58 167.62 317.18 166.22 315.18 167.82 316.88 168.32 315.08 169.22 315.48 170.02 316.78 171.32 315.18 171.32 315.88 172.52 314.58 172.52 313.48 172.82 314.88 174.52 311.28 173.72 311.78 174.92 312.38 176.02 310.98 176.42 314.18 178.22 310.38 178.02 313.48 179.72 311.88 180.02 313.48 181.32 309.08 180.82 309.28 181.72 311.58 183.22 309.98 183.52 310.18 184.42 309.68 185.12 309.48 185.82 308.08 186.22 309.58 187.52 311.28 188.82 308.58 188.82 308.18 189.52 307.58 190.22 307.28 190.92 308.88 192.12 308.98 192.92 308.18 193.62 308.18 194.42 309.78 195.42 309.48 196.12 309.88 196.82 306.58 197.22 308.08 198.12 305.28 198.52 305.58 199.32 307.88 200.22 304.88 200.92 309.18 202.12 307.78 203.02 305.88 202.62 306.28 205.02 305.28 206.02 304.08 204.02 303.38 202.92 302.48 204.42 302.48 202.42 299.88 205.02 301.58 201.62 299.18 203.32 297.78 203.62 297.98 202.12 298.68 200.22 299.38 198.32 296.38 200.32 298.18 197.52 297.08 197.42 295.88 197.42 294.58 197.62 295.18 196.02 292.78 197.22 294.28 194.62 293.58 194.12 293.48 192.92 290.48 195.42 290.68 193.82 290.48 192.62 290.28 190.92 288.48 192.92 287.88 192.32 287.08 192.12 285.98 192.02 283.38 192.42 284.08 193.62 286.58 194.72 283.38 195.12 286.18 196.32 286.08 197.12 282.78 197.42 282.58 198.22 284.18 199.22 284.48 200.02 286.08 201.12 285.08 201.72 282.28 201.82 282.38 202.52 282.68 203.32 282.58 204.12 283.68 205.62 283.78 206.92 281.38 205.12 281.18 205.12 281.38 204.32 280.58 205.42 278.28 206.42 279.08 204.82 280.68 203.32 277.68 203.62 278.28 202.62 280.28 202.02"/><polygon class="03b10bb1-0f9b-4e2e-aaa3-d55958520fc1" points="418.58 190.52 419.38 192.42 420.08 189.72 420.88 191.52 421.68 189.72 422.38 191.72 423.18 191.02 424.08 187.72 424.78 189.92 425.78 188.02 426.28 190.42 427.38 188.92 427.58 191.62 427.88 193.22 428.78 192.72 431.28 189.92 430.58 192.52 430.08 193.42 431.38 193.52 430.38 194.02 431.98 195.22 429.08 195.12 431.18 196.62 429.38 196.52 430.18 197.82 431.68 199.82 429.88 199.52 428.58 199.42 428.08 199.92 427.58 200.52 428.48 203.02 426.48 201.82 426.28 203.02 423.88 200.42 424.98 204.42 423.98 204.22 422.38 202.72 421.68 203.12 420.48 202.12 419.88 202.72 419.88 204.82 419.78 206.82 418.38 205.12 418.18 206.52 417.28 206.32 416.68 206.82 415.38 205.62 414.08 204.22 413.78 205.52 414.58 209.12 413.88 209.42 412.68 208.62 412.78 210.02 410.78 208.52 411.68 210.82 409.48 209.32 408.78 209.72 406.98 211.32 405.78 210.02 408.98 207.92 406.88 207.42 406.48 206.42 408.58 206.32 409.48 206.12 406.78 203.42 409.38 204.42 408.88 202.72 409.98 202.82 411.28 204.82 411.28 201.52 412.48 202.92 413.78 204.62 413.98 202.42 415.28 203.62 414.48 199.32 416.18 201.32 417.18 201.72 416.78 198.82 419.18 201.92 418.08 198.02 419.28 198.62 420.78 199.62 420.78 198.22 422.28 198.92 420.98 195.92 421.58 196.62 424.98 197.72 424.28 195.52 422.88 195.52 422.48 193.52 421.48 193.92 420.48 196.42 419.78 196.02 418.88 193.12 418.18 195.02 417.38 194.92 416.48 193.92 415.88 196.02 414.98 195.22 414.28 195.92 413.28 194.62 412.58 195.32 411.78 194.02 410.98 194.22 410.08 196.42 409.18 198.02 408.38 196.92 407.58 196.12 406.18 197.72 405.28 197.32 404.88 195.92 405.18 194.12 404.48 193.72 403.08 193.82 401.88 193.32 401.88 192.22 402.18 191.22 405.58 190.52 404.58 189.82 403.88 189.02 401.58 187.12 405.48 188.32 406.08 187.92 406.38 187.32 405.28 185.32 405.68 184.52 405.98 183.52 406.18 182.32 409.08 185.42 407.88 181.52 408.78 181.52 410.78 183.92 410.58 181.52 411.98 182.62 411.58 180.12 413.48 182.12 413.58 180.62 415.48 182.32 414.18 178.62 416.18 180.32 415.98 178.62 417.58 179.72 417.98 178.82 417.68 177.12 419.18 177.82 419.18 176.42 420.38 176.82 421.48 176.92 420.88 174.92 423.68 177.22 423.48 176.32 423.68 175.32 424.38 176.42 425.38 172.92 425.48 176.62 426.98 173.42 427.28 175.32 429.38 175.52 425.28 177.02 425.88 177.62 428.48 177.92 427.08 178.72 427.58 179.42 427.18 180.02 426.88 180.62 425.68 180.12 426.18 182.02 426.08 184.12 424.58 182.02 423.78 182.12 422.88 181.92 422.08 182.12 422.18 184.12 421.58 184.72 420.68 184.52 420.08 185.02 420.28 186.82 419.58 187.02 419.18 187.82 416.88 185.52 417.08 187.22 414.88 185.32 414.48 186.12 415.18 188.42 412.88 186.52 414.98 190.42 413.68 189.92 412.08 189.62 414.38 189.92 413.28 188.22 414.38 190.22 415.38 191.32 416.08 189.62 416.98 191.42 417.68 187.82 418.58 190.52"/><polygon class="03b10bb1-0f9b-4e2e-aaa3-d55958520fc1" points="200.58 177.12 199.58 178.02 198.18 178.72 199.48 179.62 195.98 179.92 196.28 180.72 196.58 181.52 199.38 183.12 198.88 183.82 198.88 184.72 195.08 184.12 195.08 185.02 197.78 186.92 195.28 186.82 197.58 188.52 193.48 187.82 194.58 189.12 192.48 189.12 194.68 190.82 192.68 190.92 194.08 192.32 191.88 192.52 192.38 193.62 195.58 194.72 193.48 195.32 195.48 196.12 193.18 197.02 194.88 197.72 192.38 198.52 190.98 199.32 191.78 200.02 195.48 200.82 192.88 201.52 191.78 202.12 192.98 202.92 191.98 203.22 192.98 204.72 191.38 202.62 191.28 205.02 190.48 203.32 189.48 204.52 187.58 206.32 187.38 204.32 187.68 202.92 187.48 202.22 187.48 201.32 185.08 200.12 187.28 199.72 186.48 198.82 189.98 198.62 186.18 197.22 186.98 196.52 189.08 196.12 189.08 195.32 190.58 194.82 190.38 194.02 188.48 192.82 186.88 191.82 189.08 191.42 187.88 190.42 188.58 189.72 188.38 188.92 190.08 188.42 191.98 187.92 191.08 187.02 187.68 185.62 187.88 184.82 189.28 184.32 188.18 183.32 190.68 183.02 188.48 181.72 191.08 181.42 190.98 180.62 189.18 179.52 189.48 178.72 193.38 178.82 191.48 177.62 191.08 176.82 193.18 176.52 194.08 176.02 190.58 174.42 193.38 174.32 191.98 173.22 192.78 172.72 194.68 173.82 193.68 170.82 194.68 172.32 195.28 174.22 195.98 172.32 195.88 173.82 199.38 171.22 197.58 173.42 196.98 174.22 199.78 174.62 196.08 175.82 200.08 176.22 200.58 177.12"/><polygon class="03b10bb1-0f9b-4e2e-aaa3-d55958520fc1" points="114.98 198.22 113.78 198.22 113.38 196.02 113.28 194.72 110.38 196.72 110.38 195.12 111.08 193.72 109.48 193.22 112.78 192.12 112.38 191.62 112.18 190.92 109.78 188.72 110.78 188.02 111.38 187.02 113.98 189.82 114.38 189.42 114.88 186.12 115.58 188.62 117.28 186.32 116.08 190.22 117.48 189.42 116.28 191.12 118.98 190.32 117.38 191.52 119.28 192.02 117.28 192.52 117.78 193.22 120.28 195.62 117.98 195.12 118.48 197.22 116.48 195.82 116.08 197.72 114.98 198.22"/><polygon class="03b10bb1-0f9b-4e2e-aaa3-d55958520fc1" points="214.18 197.32 213.08 198.32 211.68 198.82 212.58 195.42 209.88 197.22 208.98 196.32 210.28 194.52 211.08 193.52 207.78 192.92 208.78 191.92 210.28 191.42 209.38 190.12 212.58 191.52 212.58 190.92 212.68 190.32 212.18 187.12 213.28 187.12 214.28 186.72 214.68 190.52 215.28 190.42 217.48 188.02 216.68 190.42 219.38 189.42 216.28 192.12 217.88 192.22 215.98 192.82 218.58 193.72 216.68 193.82 217.98 195.12 215.98 194.42 216.18 195.32 217.48 198.52 215.68 197.02 215.28 199.22 214.18 197.32"/><polygon class="03b10bb1-0f9b-4e2e-aaa3-d55958520fc1" points="271.58 193.92 271.38 194.72 271.58 195.62 271.28 196.42 270.68 197.02 270.78 198.52 270.18 199.92 268.28 196.92 267.68 200.12 266.58 200.22 266.18 198.02 266.08 196.82 263.48 199.02 263.38 197.52 263.98 196.12 262.48 195.82 265.68 194.42 265.18 194.02 264.78 193.32 262.08 191.62 262.88 190.72 263.38 189.62 266.48 191.92 266.78 191.42 266.48 188.12 267.68 190.32 268.98 187.72 268.48 191.82 269.68 190.82 268.88 192.62 271.28 191.52 269.98 192.92 271.98 193.12 271.58 193.92"/><polygon class="03b10bb1-0f9b-4e2e-aaa3-d55958520fc1" points="175.58 192.72 173.58 192.02 175.38 191.82 174.98 191.12 174.58 190.12 175.18 189.72 175.48 188.92 176.08 188.52 176.88 188.42 177.58 187.12 178.88 186.42 178.78 189.92 180.98 187.62 181.98 188.22 181.18 190.32 180.58 191.42 183.98 191.32 183.18 192.62 181.78 193.42 182.78 194.72 179.38 193.92 179.48 194.52 179.38 195.12 180.08 198.32 178.78 198.42 177.78 198.82 177.18 195.02 176.68 195.12 174.78 197.82 175.38 195.42 172.88 196.72 175.78 193.92 174.18 194.02 175.98 193.12 175.58 192.72"/><polygon class="03b10bb1-0f9b-4e2e-aaa3-d55958520fc1" points="391.68 196.32 390.58 198.22 389.38 198.32 390.58 194.62 390.18 194.42 388.18 195.22 389.48 193.82 388.58 193.52 387.78 192.92 387.98 192.22 387.68 191.42 387.88 190.72 388.38 190.12 388.18 188.72 388.58 187.32 390.68 190.12 390.68 186.92 391.78 186.62 392.58 188.72 392.88 190.02 395.38 187.62 395.58 189.02 395.18 190.62 396.78 190.82 393.78 192.42 394.18 192.92 394.58 193.52 397.38 195.22 396.58 196.12 396.08 197.22 392.98 194.92 392.68 195.32 392.78 198.62 391.68 196.32"/><polygon class="03b10bb1-0f9b-4e2e-aaa3-d55958520fc1" points="321.58 193.22 322.28 192.62 319.98 191.12 323.58 191.82 323.28 190.92 322.38 189.02 322.88 188.02 325.18 191.22 325.48 191.12 325.88 189.02 326.38 190.72 327.08 190.32 328.08 189.92 328.58 190.52 329.38 190.82 329.88 191.52 329.98 192.42 331.28 193.22 332.08 194.32 328.68 194.32 331.18 196.32 330.68 197.32 328.58 196.62 327.48 196.02 327.98 199.42 326.78 198.72 325.78 197.52 324.78 198.72 325.08 195.22 324.48 195.42 323.78 195.42 320.78 196.62 320.58 195.42 319.88 194.42 321.58 193.22"/><polyline class="03b10bb1-0f9b-4e2e-aaa3-d55958520fc1" points="138.28 189.92 137.98 191.22 136.78 190.92 135.58 189.52 134.68 188.92 135.28 188.02 132.78 187.12 136.48 186.72 135.78 185.92 133.98 184.92"/><polyline class="03b10bb1-0f9b-4e2e-aaa3-d55958520fc1" points="146.98 177.02 147.88 176.72 148.38 178.52 150.58 177.22 151.98 179.32 150.58 180.52 148.78 180.12"/></svg>