<svg id="9b03fcd5-e5d3-47ff-940c-da929ea97c5e" data-name="929a63f3-9ae3-4ac3-aaf2-1ac0400b1715" xmlns="http://www.w3.org/2000/svg" width="1054.41" height="202.27" viewBox="0 0 1054.41 202.27"><defs><style>.\38 0661727-e19e-4219-8e46-ad3a74f28e1a{stroke:#fff;}</style></defs><title>future</title><path class="80661727-e19e-4219-8e46-ad3a74f28e1a" d="M192.9,303.1c69.1,10.6,229.8,21.8,121.5,0,108.3,21.8,115.5,37.4,0,20.1,115.5,17.3-12.7,10.3-98.7,0,86,10.3,95.2,65.3,0,67,95.2-1.7,213.5-2.7,90.6,0,122.9-2.7,120.9,11.3,0,20.1,120.9-8.7,2.5-5.5-90.6,0,93.1-5.5,63.4,68.3,0,82.7,63.4-14.5,31.4-11.8-22.8,0C247.2,481.1,262,313.7,192.9,303.1Z" transform="translate(-192.79 -299.42)"/><path class="80661727-e19e-4219-8e46-ad3a74f28e1a" d="M505.8,430.3c100.3-1.6,52.8,27.8-72.6,69.8,70.2-42,54.3-59.4-72.6-69.8,126.9-17.9,117.2-103.2,0-130.3,117.2,27.2,140.7,29.1,23.5,0,117.1,29.1,125.9,112.2,0,131.7,125.9-3.6,135.4,10,49.1,47.7,126.1-37.7,156.8-57.8,49.1-47.7,107.8-23.9,101.2-95.8,0-131.7,101.2,36,117.7,37.3,23.5,0C599.9,337.2,606.1,406.1,505.8,430.3Z" transform="translate(-192.79 -299.42)"/><path class="80661727-e19e-4219-8e46-ad3a74f28e1a" d="M542.3,299.9c78.3,39.4,153.9,42.9,145.8,0,8.1,42.9,8.5,54,0,20.7,8.5,33.3-19.7,32.7-61.1,0,41.4,32.7,36,123.3,0,177.5,36-54.2,22.8-53.4-23.5,0,46.4-53.4,53.4-145.2,0-177.5,53.4,32.2,20.7,30.6-61.1,0C624,351.3,620.6,339.3,542.3,299.9Z" transform="translate(-192.79 -299.42)"/><path class="80661727-e19e-4219-8e46-ad3a74f28e1a" d="M864.6,430.3c-88.3-3.4-95.5,15.4-72.6,69.8-69.2-54.4-88.3-77.9-72.6-69.8-15.7-27.6-14.8-87.5,0-130.3-14.8,42.8-3.6,42.6,23.5,0-27.1,42.6-28.7,103.6,0,131.7-28.7-16.5-16.7-.5,49.1,47.7-32.8-48.1-29-61.6,49.1-47.7-78.1-26.4-73.7-91.9,0-131.7-73.7,39.9-59.5,38.9,23.5,0C781.6,338.8,776.3,405.2,864.6,430.3Z" transform="translate(-192.79 -299.42)"/><path class="80661727-e19e-4219-8e46-ad3a74f28e1a" d="M1127.5,304.1c-103.5,19.7,59.1,8.8,118.8,0-59.7,8.8-66.4,27.4,0,20.1-66.4,7.3-200.8,14-96,0-104.8,14-114.2,60.7,0,61.6-114.2-.8,9.5-.5,88.4,0-78.9-.5-77.5,16.6,0,20.1-77.5-3.4-201.1-6-88.4,0-112.7-6-91.8,48.8,0,68.1-91.8-19.2,42.6-9.3,96.8,0-54.2-9.3-45.2,10.6,0,20.1-45.2-9.5-207.3-23.7-119.6,0C1039.8,470.3,1023.9,323.8,1127.5,304.1Z" transform="translate(-192.79 -299.42)"/><path class="80661727-e19e-4219-8e46-ad3a74f28e1a" d="M999.7,410.9c-127.2-12.6-163-13.8-44.3,0-118.7-13.8-96.5,42,0,85.2-96.5-43.2-115.4-45.3-23.5,0-91.8-45.3-102.7-160.6,0-196.2-102.7,35.7-38.1,30.2,78.2,0-91.9,30.2-67,43.7,63.1,55.5-130.1,26.6-159.9,39.2-47.9,54.1-129.9-11.3-50.9,56,49.1,86.6-100-30.6-128.6-33.7-26.3,0C945.7,462.5,872.6,398.3,999.7,410.9Zm-44.2-20.7c-120.2-4.3-79.2-3.9,50.5,0-113.7-3.9-87.3-11.2,43.7-34.8-131-4.5-149.1-10.8-43.7-34.8-122.1,24-164.1,26.7-50.5,0C841.8,347.3,835.3,385.9,955.5,390.2Z" transform="translate(-192.79 -299.42)"/></svg>