<svg id="22e630fd-6d98-4af3-b60c-d418019a8f70" data-name="Calque 1" xmlns="http://www.w3.org/2000/svg" width="1293.6" height="346.04" viewBox="0 0 1293.6 346.04"><defs><style>.a0056ed7-702f-4e8b-b9e8-59b1faa42a48{stroke:#fff;}</style></defs><title>future</title><path class="a0056ed7-702f-4e8b-b9e8-59b1faa42a48" d="M.42,1.31c64.89,101.38,150.9,101.38,215.78,0-64.89,101.38-64.89,115.59,0,35.64-64.89,79.95-134.77,79.95-175.32,0,40.55,79.95,40.55,127.37,0,119,40.55,8.4,104.68,8.4,160.87,0-56.2,8.4-56.2,22.61,0,35.64-56.2-13-120.32-13-160.87,0,40.55-13,40.55,45.52,0,146.9,40.55-101.38,24.43-101.38-40.46,0C65.31,237.08,65.31,102.69.42,1.31Z"/><path class="a0056ed7-702f-4e8b-b9e8-59b1faa42a48" d="M445.59,224.26c-75-.95-95.57,16.52-124.75,119.93-29.18-103.41-49.72-120.88-124.75-119.93,75-31.28,75-120.56,0-224,75,103.41,91.15,103.41,40.46,0,50.69,103.41,50.69,193.65,0,226.38,50.69-14.88,62.21-.09,84.29,81.88,22.08-82,33.6-96.76,84.29-81.88-50.69-32.73-50.69-123,0-226.38-50.69,103.41-34.56,103.41,40.46,0C370.57,103.7,370.57,193,445.59,224.26Z"/><path class="a0056ed7-702f-4e8b-b9e8-59b1faa42a48" d="M409.15,1.31c75.31,101.38,175.15,101.38,250.46,0-75.31,101.38-75.31,115.59,0,35.64-75.31,79.95-117.17,79.95-105,0-12.17,79.95-12.17,200.13,0,301.52-12.17-101.38-28.29-101.38-40.46,0,12.17-101.38,12.17-221.57,0-301.52,12.17,79.95-29.69,79.95-105,0C484.47,116.9,484.47,102.69,409.15,1.31Z"/><path class="a0056ed7-702f-4e8b-b9e8-59b1faa42a48" d="M872.68,224.26c-75-.95-95.57,16.52-124.75,119.93C718.74,240.78,698.2,223.31,623.18,224.26c75-31.28,75-120.56,0-224,75,103.41,91.15,103.41,40.46,0,50.69,103.41,50.69,193.65,0,226.38,50.69-14.88,62.21-.09,84.29,81.88,22.08-82,33.6-96.76,84.29-81.88-50.69-32.73-50.69-123,0-226.38-50.69,103.41-34.56,103.41,40.46,0C797.65,103.7,797.65,193,872.68,224.26Z"/><path class="a0056ed7-702f-4e8b-b9e8-59b1faa42a48" d="M973.8,192c3.63-13.32-26.7-13.32-76.1,0,49.4-13.32,49.4,45,0,146.42,49.4-101.38,33.27-101.38-40.46,0C931,237.08,931,102.69,857.24,1.31c73.73,101.38,127.29,101.38,134.38,0,19.6,101.38,36.11,117.7,108.37,95.37-72.26,62.65-84.74,77.05-82.36,93-22.73-11.88,10.87,47.45,84.29,148.83-73.42-101.38-91.47-101.38-45.28,0C1010.46,237.08,977.43,178.72,973.8,192Zm-75.73-13.63c48.66-35.92,83.22-35.92,86.7,0,15.53-35.92,26.47-44.37,75.14-59.72-48.66-15.36-59.61-23.81-75.14-59.72-3.48,35.92-38,35.92-86.7,0C946.73,94.88,946.73,142.5,898.07,178.41Z"/><path class="a0056ed7-702f-4e8b-b9e8-59b1faa42a48" d="M1080.77,1.31c63.87,101.38,148,101.38,211,0-63,101.38-63,115.59,0,35.64-63,79.95-131,79.95-170.51,0,39.54,79.95,39.54,123.53,0,109.33,39.54,14.19,102.13,14.19,157,0-54.89,14.19-54.89,28.4,0,35.64-54.89-7.24-117.48-7.24-157,0,39.54-7.24,39.54,40.95,0,120.9,39.54-79.95,108.08-79.95,172,0-63.87-79.95-63.87-65.74,0,35.64-63.87-101.38-148.54-101.38-212.41,0C1144.64,237.08,1144.64,102.69,1080.77,1.31Z"/></svg>