<svg id="af36228b-939b-4599-a279-be2d5f568fee" data-name="929a63f3-9ae3-4ac3-aaf2-1ac0400b1715" xmlns="http://www.w3.org/2000/svg" width="727.51" height="205.24" viewBox="0 0 727.51 205.24"><defs><style>.\38 cf39727-603b-487a-8247-d11a7fc06fba{stroke:#fff;stroke-width:0.59px;}</style></defs><title>future</title><path class="8cf39727-603b-487a-8247-d11a7fc06fba" d="M11.4,193.24c36.49,60.12,84.86,60.12,121.35,0-36.49,60.12-36.49,68.54,0,21.14-36.49,47.41-75.79,47.41-98.6,0C57,261.78,57,289.9,34.15,284.92c22.81,5,58.87,5,90.47,0-31.6,5-31.6,13.41,0,21.14-31.6-7.73-67.66-7.73-90.47,0,22.81-7.73,22.81,27,0,87.11C57,333,47.89,333,11.4,393.17,47.89,333,47.89,253.36,11.4,193.24Z" transform="translate(-11.15 -192.47)"/><path class="8cf39727-603b-487a-8247-d11a7fc06fba" d="M261.75,325.45c-42.19-.56-53.74,9.8-70.15,71.12-16.41-61.32-28-71.68-70.15-71.12,42.19-18.55,42.19-71.49,0-132.81,42.19,61.32,51.26,61.32,22.75,0,28.51,61.32,28.51,114.83,0,134.24,28.51-8.82,35-.06,47.4,48.55,12.42-48.61,18.89-57.38,47.4-48.55-28.51-19.41-28.51-72.92,0-134.24-28.51,61.32-19.44,61.32,22.75,0C219.56,254,219.56,306.9,261.75,325.45Z" transform="translate(-11.15 -192.47)"/><path class="8cf39727-603b-487a-8247-d11a7fc06fba" d="M241.26,193.24c42.35,60.12,98.5,60.12,140.85,0-42.35,60.12-42.35,68.54,0,21.14-42.35,47.41-65.89,47.41-59,0-6.84,47.41-6.84,118.68,0,178.79-6.84-60.12-15.91-60.12-22.75,0,6.84-60.12,6.84-131.39,0-178.79,6.84,47.41-16.7,47.41-59,0C283.61,261.78,283.61,253.36,241.26,193.24Z" transform="translate(-11.15 -192.47)"/><path class="8cf39727-603b-487a-8247-d11a7fc06fba" d="M501.92,325.45c-42.19-.56-53.74,9.8-70.15,71.12-16.41-61.32-28-71.68-70.15-71.12,42.19-18.55,42.19-71.49,0-132.81,42.19,61.32,51.26,61.32,22.75,0,28.51,61.32,28.51,114.83,0,134.24,28.51-8.82,35-.06,47.4,48.55,12.42-48.61,18.89-57.38,47.4-48.55-28.51-19.41-28.51-72.92,0-134.24-28.51,61.32-19.44,61.32,22.75,0C459.73,254,459.73,306.9,501.92,325.45Z" transform="translate(-11.15 -192.47)"/><path class="8cf39727-603b-487a-8247-d11a7fc06fba" d="M558.79,306.34c2-7.9-15-7.9-42.8,0,27.78-7.9,27.78,26.71,0,86.83,27.78-60.12,18.71-60.12-22.75,0a176.22,176.22,0,0,0,0-199.93c41.46,60.12,71.59,60.12,75.57,0,11,60.12,20.31,69.8,60.94,56.55-40.64,37.15-47.66,45.69-46.32,55.12-12.78-7,6.11,28.14,47.4,88.26-41.29-60.12-51.44-60.12-25.46,0C579.41,333,560.84,298.44,558.79,306.34Zm-42.59-8.08c27.37-21.3,46.8-21.3,48.76,0,8.73-21.3,14.89-26.31,42.26-35.42-27.37-9.11-33.52-14.12-42.26-35.42-2,21.3-21.39,21.3-48.76,0C543.57,248.73,543.57,277,516.2,298.26Z" transform="translate(-11.15 -192.47)"/><path class="8cf39727-603b-487a-8247-d11a7fc06fba" d="M618.95,193.24c35.92,60.12,83.21,60.12,118.64,0-35.43,60.12-35.43,68.54,0,21.14-35.43,47.41-73.65,47.41-95.89,0,22.24,47.41,22.24,73.25,0,64.83,22.24,8.42,57.43,8.42,88.3,0-30.87,8.42-30.87,16.84,0,21.14-30.87-4.29-66.07-4.29-88.3,0,22.24-4.29,22.24,24.28,0,71.69,22.24-47.41,60.78-47.41,96.7,0-35.92-47.41-35.92-39,0,21.14-35.92-60.12-83.53-60.12-119.45,0C654.87,333,654.87,253.36,618.95,193.24Z" transform="translate(-11.15 -192.47)"/></svg>