<svg id="b4cdb977-3e72-4cf5-b142-0f07764290c7" data-name="929a63f3-9ae3-4ac3-aaf2-1ac0400b1715" xmlns="http://www.w3.org/2000/svg" width="750.8" height="386.09" viewBox="0 0 750.8 386.09"><defs><style>.\35 973bc87-71f9-410c-a827-c8489445d542{fill:#fff;stroke:#1e120d;}.\35 973bc87-71f9-410c-a827-c8489445d542,.d4eeb588-cae4-4d69-bdc2-c29e6ac0c4bb{stroke-miterlimit:10;}.d4eeb588-cae4-4d69-bdc2-c29e6ac0c4bb{fill:#1e120d;stroke:#fff;}</style></defs><title>game</title><path class="5973bc87-71f9-410c-a827-c8489445d542" d="M377,222v-.5H200.1v.1a68.41,68.41,0,1,0,66.6,96.2H306A68.43,68.43,0,1,0,377,222Z" transform="translate(0.52 -106.81)"/><circle class="5973bc87-71f9-410c-a827-c8489445d542" cx="372.12" cy="183.09" r="52.9"/><circle class="5973bc87-71f9-410c-a827-c8489445d542" cx="196.32" cy="175.59" r="40.5"/><path class="5973bc87-71f9-410c-a827-c8489445d542" d="M679.9,492.4c-20.7,0-36.8-20.4-46.7-33-18.9-23.9-40.9-45.7-63.1-66.5-27,20.6-55.2,39.9-86.4,53.9-25.3,11.4-52,19-79.1,24.1-8,4.7-17.6,4.4-24.8,4.1-42.4,5.9-85.2,6.8-125.2,7.6l-109,2.3c-3.3.1-7.5.4-12,.7-18.8,1.3-40.2,2.7-47.8-7-2-2.5-3.9-7-1.8-13.5,2.7-10.9,10.9-17.3,24.4-19,10.4-1.3,22.8.3,33.8,1.8,4.5.6,8.8,1.2,12.6,1.5,74.4,6.2,149.9,11.2,224.6,14.6,7.1-1,14.1-2.1,21.2-3.4a15,15,0,0,0,5.3-9.3,22.66,22.66,0,0,0-3.8-17.2c-5.7-7.9-15.9-13.4-30.4-16.3-20-4.1-41.1-3-62.6-1.4-9.5.7-19.3,1.5-28.7,2.3-71.8,5.8-146,11.8-215.6-9.6-21.6-6.6-26.7-17.4-27.3-25.2-.7-9.9,6-17.9,10.9-23.8a376.34,376.34,0,0,0,66.6-119c1.6-4.6,2.8-9.3,1.2-12.4-1.1-2.1-3.7-3.9-6.3-5.5-2.9-1.8-5.9-3.6-8.9-5.4-1-.6-2.1-1.2-3.1-1.8a249.08,249.08,0,0,1-39.6,4.8c-2.3.1-4.6.1-6.9.2-2.7.1-5.4.1-8.1.2A200.22,200.22,0,0,1,6.6,231.7a5.52,5.52,0,0,1-6.1-3.2,5.57,5.57,0,0,1,1.6-6.7c11.1-8.9,25.2-11,38.8-11.7a195.68,195.68,0,0,0,29.3-14.7c-10.8-11.6-16.3-25.3-14.9-38.2,1.1-10.7,6.8-21.5,16.9-31.9s20.5-16.3,31.1-17.7c14.3-1.9,28.4,5.7,32.8,17.6s.1,25.3-12.9,40a206.58,206.58,0,0,1-34.7,31.4c3.6,2.7,7.4,5.1,11.3,7.5,34.7-7.4,68.5-21.2,101.4-34.6,29.2-11.9,59.1-24.1,90-32.1a5.24,5.24,0,0,1,1-1.1,21.31,21.31,0,0,1,22.8-3,5.59,5.59,0,0,1,3.1,5.7,5.41,5.41,0,0,1-4.5,4.7c-37.1,7.1-73.2,21.9-108.2,36.1-29.8,12.1-60.3,24.6-91.8,32.5.7.4,1.4.9,2.1,1.3,3.7,2.3,7.9,5.2,10.3,9.9,3.5,6.8,1.8,14.1-.6,21.1A388.66,388.66,0,0,1,56.9,367.2c-4.1,4.9-8.7,10.5-8.3,15.9.6,8.3,12.4,13.1,19.4,15.3,67.6,20.7,140.7,14.8,211.5,9.1,9.4-.8,19.2-1.5,28.7-2.3,22.4-1.7,44.3-2.8,65.7,1.5,17.4,3.5,29.9,10.5,37.2,20.7a34.62,34.62,0,0,1,5.7,25.8,32.51,32.51,0,0,1-1.1,4.2,336.39,336.39,0,0,0,63.5-20.6c29.6-13.3,56.8-31.7,82.7-51.5-1.8-1.7-3.7-3.4-5.5-5.2-8.8-8.2-20.4-18.4-32.6-25.5a171.48,171.48,0,0,1-20.5,12.5c-5.9,3-13.1,6.6-21.3,6.5-8.9-.1-18.7-6.2-19.7-16.1-.5-5.3,1.6-10.4,6-14.5a30.37,30.37,0,0,1,12.9-6.9c14.5-3.8,28.4-.9,41.7,5.5,14.6-10.7,31.9-25.7,46.1-44.1,13.1-17,21.7-34.2,25.3-51.3,4.4-20.2,1.9-40.3-7.3-59.8-13.2-27.9-52-52.7-96.7-61.8a188.67,188.67,0,0,0-79.9.9c-29.5,6.9-56.4,18.8-80,39.8-20.3,18.1-37.3,37.1-40.2,59.4a5.6,5.6,0,0,1-11.1-1.5c3.7-28.3,26.9-49,43.9-64.1,25-22.2,53.5-37.2,84.9-44.5a199.3,199.3,0,0,1,84.6-1c23.9,4.9,46.5,13.9,65.2,26.2s32.2,26.6,39.3,41.7c10.3,21.8,13,44.3,8.1,66.9-4,18.8-13.2,37.5-27.4,55.8-13.6,17.5-29.8,32.2-44.2,43.2,10.8,6.8,21,15.6,30.5,24.4,2.3,2.1,4.6,4.3,6.9,6.4,10.1-7.9,20.1-16,30-24.1,29.2-23.6,59.3-48,92.2-67.4,5.6-3.3,11.8-6.6,18.8-7,7.2-.4,14.3,2.4,20.4,8.1a47.85,47.85,0,0,1,11.8,17.8c11.3,28.9,3.6,60.7-4.5,88.2-5.6,18.9-11.7,37.9-18.2,56.5-6,17.2-15.5,37.5-35.2,41.5A33.6,33.6,0,0,1,679.9,492.4ZM579.1,386c22,20.8,44,42.4,62.9,66.5,12.7,16.1,26.3,31.5,42.1,28.4,14.2-2.8,21.8-19.7,26.8-34.2,6.4-18.4,12.5-37.3,18-56,7.6-25.8,14.9-55.4,4.9-81-3.8-9.7-11.8-19.2-21.3-18.8-4.5.2-9,2.7-13.7,5.4-32.2,19-62,43.1-90.8,66.5C598.4,370.5,588.8,378.3,579.1,386ZM116.8,456.6a51.76,51.76,0,0,0-7,.4c-11.3,1.4-13.9,6.5-15,10.8,0,.1-.1.3-.1.4-.8,2.5-.2,3.2,0,3.4.5.7,3.1,2.9,13.4,3.5,7.6.4,16.8-.2,24.8-.7,4.6-.3,8.9-.6,12.5-.7l109-2.3c13-.3,26.3-.5,39.8-1-46.9-2.8-93.9-6.2-140.5-10.1-4.1-.3-8.5-.9-13.1-1.5C132.9,457.7,124.4,456.6,116.8,456.6ZM494.4,345.5a40.61,40.61,0,0,0-10.4,1.3c-5.5,1.4-11,5.4-10.6,9.6.3,3.5,4.9,6,8.8,6h.2c5.3,0,10.9-2.8,15.8-5.3a160.19,160.19,0,0,0,13.9-8.2A50.78,50.78,0,0,0,494.4,345.5ZM78.8,202.9c-3.1,2-6.2,3.8-9.4,5.6,4.9-.4,9.7-1,14.6-1.8A46,46,0,0,1,78.8,202.9Zm28.8-84.7a26.35,26.35,0,0,0-2.8.2q-12.15,1.65-24.6,14.4c-8.3,8.6-13,17-13.8,25.2-1,10.1,4,21.5,13.4,30.9a189.62,189.62,0,0,0,35.1-31.3c6.9-7.9,14.4-19.2,10.8-28.7C123.1,121.9,114.9,118.2,107.6,118.2Z" transform="translate(0.52 -106.81)"/><circle class="d4eeb588-cae4-4d69-bdc2-c29e6ac0c4bb" cx="349.22" cy="190.29" r="12.5"/><circle class="d4eeb588-cae4-4d69-bdc2-c29e6ac0c4bb" cx="365.32" cy="160.19" r="12.5"/><circle class="d4eeb588-cae4-4d69-bdc2-c29e6ac0c4bb" cx="379.02" cy="209.29" r="12.5"/><circle class="d4eeb588-cae4-4d69-bdc2-c29e6ac0c4bb" cx="395.12" cy="179.19" r="12.5"/><path class="d4eeb588-cae4-4d69-bdc2-c29e6ac0c4bb" d="M219.9,273.9H203.2v-17a4.27,4.27,0,0,0-4.3-4.3h-7.4a4.27,4.27,0,0,0-4.3,4.3v17H170.5a4.44,4.44,0,0,0-4.4,4.4v8.3a4.44,4.44,0,0,0,4.4,4.4h16.7v15.5a4.27,4.27,0,0,0,4.3,4.3h7.4a4.27,4.27,0,0,0,4.3-4.3V291h16.7a4.44,4.44,0,0,0,4.4-4.4v-8.3A4.44,4.44,0,0,0,219.9,273.9Z" transform="translate(0.52 -106.81)"/><path class="5973bc87-71f9-410c-a827-c8489445d542" d="M274.3,271.1l-13.1,13.1a2.42,2.42,0,0,1-3.5,0h0a2.42,2.42,0,0,1,0-3.5l13.1-13.1a2.42,2.42,0,0,1,3.5,0h0A2.61,2.61,0,0,1,274.3,271.1Z" transform="translate(0.52 -106.81)"/><path class="5973bc87-71f9-410c-a827-c8489445d542" d="M308.4,271.1l-13.1,13.1a2.42,2.42,0,0,1-3.5,0h0a2.42,2.42,0,0,1,0-3.5l13.1-13.1a2.42,2.42,0,0,1,3.5,0h0A2.61,2.61,0,0,1,308.4,271.1Z" transform="translate(0.52 -106.81)"/></svg>