<svg id="b2c84551-800c-4b7b-9d13-5c7fcc220bb3" data-name="929a63f3-9ae3-4ac3-aaf2-1ac0400b1715" xmlns="http://www.w3.org/2000/svg" width="1138.22" height="585.05" viewBox="0 0 1138.22 585.05"><defs><style>.\36 8deb5d2-c3b5-472b-b848-9706f7301177{fill:#1e120d;stroke:#fff;}.\36 8deb5d2-c3b5-472b-b848-9706f7301177,.\38 2e17211-8591-4f55-a282-ba96646e0df9{stroke-miterlimit:10;}.\38 2e17211-8591-4f55-a282-ba96646e0df9{fill:#fff;stroke:#1e120d;}</style></defs><title>game</title><path class="68deb5d2-c3b5-472b-b848-9706f7301177" d="M1182.7,697.3c-31.4,0-55.8-30.9-70.8-50.1-28.7-36.3-62-69.3-95.7-100.9-41,31.2-83.7,60.5-131.1,81.8-38.4,17.3-78.9,28.8-120,36.6-12.1,7.1-26.7,6.7-37.6,6.2-64.3,8.9-129.2,10.3-189.9,11.5l-165.3,3.5c-5,.2-11.4.6-18.2,1.1-28.5,2-61,4.1-72.5-10.6-3-3.8-5.9-10.6-2.7-20.5,4.1-16.5,16.5-26.2,37-28.8,15.8-2,34.6.5,51.3,2.7,6.8.9,13.3,1.8,19.1,2.3,112.9,9.4,227.4,17,340.7,22.1,10.8-1.5,21.4-3.2,32.2-5.2,5.2-3.9,7.3-9.9,8-14.1a34.34,34.34,0,0,0-5.8-26.1c-8.6-12-24.1-20.3-46.1-24.7-30.3-6.2-62.3-4.6-95-2.1-14.4,1.1-29.3,2.3-43.5,3.5-108.9,8.8-221.5,17.9-327-14.6-32.8-10-40.5-26.4-41.4-38.2-1.1-15,9.1-27.2,16.5-36.1a570.5,570.5,0,0,0,101-180.5c2.4-7,4.2-14.1,1.8-18.8-1.7-3.2-5.6-5.9-9.6-8.3-4.4-2.7-8.9-5.5-13.5-8.2-1.5-.9-3.2-1.8-4.7-2.7a387,387,0,0,1-60.1,7.3c-3.5.2-7,.2-10.5.3-4.1.2-8.2.2-12.3.3a303.38,303.38,0,0,1-55.7,15.9A8.35,8.35,0,0,1,152,297a8.52,8.52,0,0,1,2.4-10.2c16.8-13.5,38.2-16.7,58.9-17.7a297.26,297.26,0,0,0,44.4-22.3c-16.4-17.6-24.7-38.4-22.6-57.9,1.7-16.2,10.3-32.6,25.6-48.4,15.2-15.6,31.1-24.7,47.2-26.8,21.7-2.9,43.1,8.6,49.8,26.7,6.7,17.9.2,38.4-19.6,60.7a316.23,316.23,0,0,1-52.6,47.6c5.5,4.1,11.2,7.7,17.1,11.4,52.6-11.2,103.9-32.2,153.8-52.5,44.3-18.1,89.6-36.6,136.5-48.7a12.17,12.17,0,0,1,1.5-1.7c9.3-8,23.5-10,34.6-4.6a8.49,8.49,0,0,1,4.7,8.6,8.28,8.28,0,0,1-6.8,7.1c-56.3,10.8-111,33.2-164.1,54.8-45.2,18.4-91.5,37.3-139.2,49.3,1.1.6,2.1,1.4,3.2,2,5.6,3.5,12,7.9,15.6,15,5.3,10.3,2.7,21.4-.9,32a589.6,589.6,0,0,1-103.9,186c-6.2,7.4-13.2,15.9-12.6,24.1.9,12.6,18.8,19.9,29.4,23.2,102.5,31.4,213.4,22.4,320.8,13.8,14.3-1.2,29.1-2.3,43.5-3.5,34-2.6,67.2-4.2,99.7,2.3,26.4,5.3,45.4,15.9,56.4,31.4a52.06,52.06,0,0,1,8.6,39.1,55.34,55.34,0,0,1-1.7,6.4c33.1-7.4,65.4-17.4,96.3-31.2,44.9-20.2,86.2-48.1,125.4-78.1-2.7-2.6-5.6-5.2-8.3-7.9-13.3-12.4-30.9-27.9-49.5-38.7a261.69,261.69,0,0,1-31.1,19c-8.9,4.6-19.9,10-32.3,9.9-13.5-.2-28.4-9.4-29.9-24.4-.8-8,2.4-15.8,9.1-22A45.91,45.91,0,0,1,881,460.3c22-5.8,43.1-1.4,63.3,8.3,22.1-16.2,48.4-39,69.9-66.9,19.9-25.8,32.9-51.9,38.4-77.8,6.7-30.6,2.9-61.1-11.1-90.7-20-42.3-78.9-79.9-146.7-93.7a286.08,286.08,0,0,0-121.2,1.4c-44.7,10.5-85.6,28.5-121.3,60.4-30.8,27.5-56.6,56.3-61,90.1a8.53,8.53,0,1,1-16.9-2.3c5.6-42.9,40.8-74.3,66.6-97.2,37.9-33.7,81.2-56.4,128.8-67.5a301.46,301.46,0,0,1,128.3-1.5c36.3,7.4,70.5,21.1,98.9,39.7,28.2,18.5,48.8,40.3,59.6,63.3,15.6,33.1,19.7,67.2,12.3,101.5-6.1,28.5-20,56.9-41.6,84.6-20.6,26.5-45.2,48.8-67,65.5,16.4,10.3,31.9,23.7,46.3,37,3.5,3.2,7,6.5,10.5,9.7,15.3-12,30.5-24.3,45.5-36.6,44.3-35.8,90-72.8,139.9-102.2,8.5-5,17.9-10,28.5-10.6,10.9-.6,21.7,3.6,30.9,12.3a73,73,0,0,1,17.9,27c17.1,43.8,5.5,92.1-6.8,133.8-8.5,28.7-17.7,57.5-27.6,85.7-9.1,26.1-23.5,56.9-53.4,63A71.43,71.43,0,0,1,1182.7,697.3ZM1029.8,535.9c33.4,31.6,66.7,64.3,95.4,100.9,19.3,24.4,39.9,47.8,63.9,43.1,21.5-4.2,33.1-29.9,40.7-51.9,9.7-27.9,19-56.6,27.3-84.9,11.5-39.1,22.6-84,7.4-122.9-5.8-14.7-17.9-29.1-32.3-28.5-6.8.3-13.7,4.1-20.8,8.2-48.8,28.8-94,65.4-137.7,100.9C1059,512.4,1044.5,524.2,1029.8,535.9ZM328.5,643a87.86,87.86,0,0,0-10.6.6c-17.1,2.1-21.1,9.9-22.8,16.4,0,.2-.2.5-.2.6-1.2,3.8-.3,4.9,0,5.2.8,1.1,4.7,4.4,20.3,5.3,11.5.6,25.5-.3,37.6-1.1,7-.5,13.5-.9,19-1.1l165.3-3.5c19.7-.5,39.9-.8,60.4-1.5-71.1-4.2-142.4-9.4-213.1-15.3-6.2-.5-12.9-1.4-19.9-2.3C352.9,644.7,340,643,328.5,643ZM901.3,474.5a60.59,60.59,0,0,0-15.8,2c-8.3,2.1-16.7,8.2-16.1,14.6.5,5.3,7.4,9.1,13.3,9.1h.3c8,0,16.5-4.2,24-8a243.69,243.69,0,0,0,21.1-12.4A74.6,74.6,0,0,0,901.3,474.5ZM270.9,258.2c-4.7,3-9.4,5.8-14.3,8.5,7.4-.6,14.7-1.5,22.1-2.7A71.61,71.61,0,0,1,270.9,258.2Zm43.6-128.5c-1.4,0-2.9.2-4.2.3-12.3,1.7-24.7,8.9-37.3,21.8s-19.7,25.8-20.9,38.2c-1.5,15.3,6.1,32.6,20.3,46.9a282.36,282.36,0,0,0,53.2-47.5c10.5-12,21.8-29.1,16.4-43.5C338.1,135.3,325.6,129.7,314.5,129.7Z" transform="translate(-150.7 -112.75)"/><path class="82e17211-8591-4f55-a282-ba96646e0df9" d="M721.8,286.4H454.2c-54.3,3.2-96.9,48.5-96.9,103.8a103.83,103.83,0,0,0,198.6,42.4h59.6a103.83,103.83,0,0,0,198.6-42.4C813.9,337.2,772.5,286.4,721.8,286.4Z" transform="translate(-150.7 -112.75)"/><circle class="82e17211-8591-4f55-a282-ba96646e0df9" cx="564.3" cy="277.45" r="80.2"/><circle class="82e17211-8591-4f55-a282-ba96646e0df9" cx="297.6" cy="266.05" r="61.4"/><circle class="68deb5d2-c3b5-472b-b848-9706f7301177" cx="529.6" cy="288.35" r="19"/><circle class="68deb5d2-c3b5-472b-b848-9706f7301177" cx="554" cy="242.65" r="19"/><circle class="68deb5d2-c3b5-472b-b848-9706f7301177" cx="574.8" cy="317.15" r="19"/><circle class="68deb5d2-c3b5-472b-b848-9706f7301177" cx="599.2" cy="271.45" r="19"/><path class="68deb5d2-c3b5-472b-b848-9706f7301177" d="M484.9,365.9H459.6V340.1a6.49,6.49,0,0,0-6.5-6.5H441.9a6.49,6.49,0,0,0-6.5,6.5v25.8H410a6.77,6.77,0,0,0-6.7,6.7v12.6a6.77,6.77,0,0,0,6.7,6.7h25.3v23.5a6.49,6.49,0,0,0,6.5,6.5H453a6.49,6.49,0,0,0,6.5-6.5V391.9h25.3a6.77,6.77,0,0,0,6.7-6.7V372.6A6.62,6.62,0,0,0,484.9,365.9Z" transform="translate(-150.7 -112.75)"/><path class="82e17211-8591-4f55-a282-ba96646e0df9" d="M567.4,361.6l-19.9,19.9a3.68,3.68,0,0,1-5.3,0h0a3.68,3.68,0,0,1,0-5.3l19.9-19.9a3.68,3.68,0,0,1,5.3,0h0A3.87,3.87,0,0,1,567.4,361.6Z" transform="translate(-150.7 -112.75)"/><path class="82e17211-8591-4f55-a282-ba96646e0df9" d="M619.1,361.6l-19.9,19.9a3.68,3.68,0,0,1-5.3,0h0a3.68,3.68,0,0,1,0-5.3l19.9-19.9a3.68,3.68,0,0,1,5.3,0h0A3.87,3.87,0,0,1,619.1,361.6Z" transform="translate(-150.7 -112.75)"/></svg>