<svg id="a1d7ff22-9f70-483d-b572-4682294807ca" data-name="929a63f3-9ae3-4ac3-aaf2-1ac0400b1715" xmlns="http://www.w3.org/2000/svg" width="999.44" height="667.97" viewBox="0 0 999.44 667.97"><defs><style>.\30 4c34df4-f81b-48cf-adf5-74a8397f9abe{fill:#fff;stroke:#1e120d;stroke-miterlimit:10;}.\31 0b71006-c3c7-464b-a71e-550f5d757ca8{fill:#01031c;}</style></defs><title>ghost</title><path class="04c34df4-f81b-48cf-adf5-74a8397f9abe" d="M528.2,453.7C522,372.2,514.9,291.6,501.3,211c-5.8-33.5-11.8-67.9-29.7-96.7C453.5,85.5,420.4,63.5,386.9,69c-23.5,3.9-43.3,20.5-56,40.5s-19.3,43.3-24.7,66.5c-27.2,115.9-29.6,236.1-32,355.1-.9,48.8-10.2,93.3-53.3,116,52.8-26.1,86.3-86.6,80.7-145.1-1.9,33-3.8,66.5,3.5,98.6,7.1,32.3,24.5,63.7,52.9,80.4-25.7-110.6.7-120.2-2.4-180.2,7.1,92.1,56.8,179.8,132.1,233.3a426.87,426.87,0,0,1-41-203.8c.4,34.7,16.2,67.8,37.8,94.9s48.8,49.2,75.8,70.9a306.55,306.55,0,0,1-70.2-188.5c19.6,88.7,82.3,166.8,164.6,205.2C612.7,665.4,534.3,535.7,528.2,453.7Z" transform="translate(-220.67 -67.65)"/><ellipse class="10b71006-c3c7-464b-a71e-550f5d757ca8" cx="400.09" cy="254.49" rx="12.2" ry="93.1" transform="translate(-225.25 -60.3) rotate(-1.05)"/><ellipse class="10b71006-c3c7-464b-a71e-550f5d757ca8" cx="464.09" cy="253.19" rx="12.2" ry="93.1" transform="matrix(1, -0.02, 0.02, 1, -225.21, -59.14)"/><path class="04c34df4-f81b-48cf-adf5-74a8397f9abe" d="M1150.3,460.8c-5.9-76.6-19.4-152.2-29.1-228.2-4-31.6-8.3-64.2-22.2-91.5-13.8-27.5-39.9-48.8-66.6-44.2-18.6,3.2-34.6,18.5-45,37.3a171.59,171.59,0,0,0-20.5,62.2C952.7,307.1,940,417.9,936.3,530c-.8,23.5-8.8,45.3-18.4,64.1-4.6,9,9.5,4.7,15.3-3.4,20-27.7,18-50.9,25.1-87.8-2,31-3.9,62.4,1.3,93,4.2,24.7,13.7,48.9,28.9,65.8,3.9,4.3,10.1.3,9.1-5.9-13.7-88.8,5.1-99.6,3.6-153,3.9,78.3,35.2,153.8,84.6,205.7,4.3,4.4,10.7-.8,8.7-7.1a474.71,474.71,0,0,1-21.4-169.2c-.1,32.7,11.9,64.1,28.7,90a292.79,292.79,0,0,0,28.4,36.4c4.6,5,11.4-1.5,8.4-7.9a331.51,331.51,0,0,1-30.7-139.2c12.3,73,50.8,139,103.2,179.6,5.1,3.9,11-3.4,7.4-9.2C1194.6,642.7,1156,533.5,1150.3,460.8Z" transform="translate(-220.67 -67.65)"/><ellipse class="10b71006-c3c7-464b-a71e-550f5d757ca8" cx="993.98" cy="241.6" rx="58.2" ry="11.5" transform="translate(488.74 1156.49) rotate(-87.51)"/><ellipse class="10b71006-c3c7-464b-a71e-550f5d757ca8" cx="829.13" cy="174.05" rx="11.5" ry="58.2"/></svg>