<svg id="6865c91b-eea0-4e1b-89b5-94a2c19e712e" data-name="929a63f3-9ae3-4ac3-aaf2-1ac0400b1715" xmlns="http://www.w3.org/2000/svg" width="746.17" height="498.95" viewBox="0 0 746.17 498.95"><defs><style>.\32 897ac91-3610-42db-b389-20fc0247e073{fill:#fff;stroke:#1e120d;stroke-miterlimit:10;}.a5d424f5-f955-4ec4-a619-ce8e018d806f{fill:#01031c;}</style></defs><title>ghost</title><path class="2897ac91-3610-42db-b389-20fc0247e073" d="M231.8,334.9c-4.6-60.8-9.9-121-20.1-181.1-4.3-25-8.8-50.7-22.2-72.2s-38.2-37.9-63.2-33.8C108.8,50.7,94,63.1,84.5,78s-14.4,32.3-18.4,49.6C45.8,214.1,44,303.8,42.2,392.6c-.7,36.4-7.6,69.6-39.8,86.6,39.4-19.5,64.4-64.6,60.2-108.3-1.4,24.6-2.8,49.6,2.6,73.6s18.3,47.5,39.5,60c-19.2-82.5.5-89.7-1.8-134.5,5.3,68.7,42.4,134.2,98.6,174.1A319.49,319.49,0,0,1,170.9,392c.3,25.9,12.1,50.6,28.2,70.8s36.4,36.7,56.6,52.9A229.09,229.09,0,0,1,203.3,375c14.6,66.2,61.4,124.5,122.8,153.1C294.9,492.9,236.4,396.1,231.8,334.9Z" transform="translate(-2.17 -46.67)"/><ellipse class="a5d424f5-f955-4ec4-a619-ce8e018d806f" cx="136.21" cy="186.28" rx="9.1" ry="69.5" transform="translate(-5.55 -44.15) rotate(-1.05)"/><ellipse class="a5d424f5-f955-4ec4-a619-ce8e018d806f" cx="184.01" cy="185.29" rx="9.1" ry="69.5" transform="translate(-5.52 -43.28) rotate(-1.05)"/><path class="2897ac91-3610-42db-b389-20fc0247e073" d="M696.1,340.2c-4.4-57.2-14.5-113.6-21.7-170.3-3-23.6-6.2-47.9-16.6-68.3s-29.8-36.4-49.7-33c-13.9,2.4-25.8,13.8-33.6,27.8a128.92,128.92,0,0,0-15.3,46.4c-10.6,82.7-20.1,165.4-22.8,249.1-.6,17.5-6.6,33.8-13.7,47.8-3.4,6.7,7.1,3.5,11.4-2.5,14.9-20.7,13.4-38,18.7-65.5-1.5,23.1-2.9,46.6,1,69.4,3.1,18.4,10.2,36.5,21.6,49.1,2.9,3.2,7.5.2,6.8-4.4-10.2-66.3,3.8-74.3,2.7-114.2,2.9,58.4,26.3,114.8,63.1,153.5,3.2,3.3,8-.6,6.5-5.3a355.52,355.52,0,0,1-16-126.3c-.1,24.4,8.9,47.8,21.4,67.2a219.7,219.7,0,0,0,21.2,27.2c3.4,3.7,8.5-1.1,6.3-5.9a247.2,247.2,0,0,1-22.9-103.9c9.2,54.5,37.9,103.7,77,134,3.8,2.9,8.2-2.5,5.5-6.9C729.1,476,700.3,394.5,696.1,340.2Z" transform="translate(-2.17 -46.67)"/><ellipse class="a5d424f5-f955-4ec4-a619-ce8e018d806f" cx="579.4" cy="176.72" rx="43.4" ry="8.6" transform="translate(375.49 701.22) rotate(-87.51)"/><ellipse class="a5d424f5-f955-4ec4-a619-ce8e018d806f" cx="618.93" cy="130.03" rx="8.6" ry="43.4"/></svg>