<svg id="9648a502-6b9f-4889-9ca2-a5aff18a5e42" data-name="Calque 1" xmlns="http://www.w3.org/2000/svg" width="246.68" height="521.3" viewBox="0 0 246.68 521.3"><defs><style>.c546db9e-e6f9-45de-9021-6b0c9ea94998{fill:#fff;}.\31 dd7e230-1cac-4d63-b278-e19f959971df,.\35 a504403-8226-4dff-8f7b-7dd1468b2c1d{fill:none;}.\31 dd7e230-1cac-4d63-b278-e19f959971df,.\35 a504403-8226-4dff-8f7b-7dd1468b2c1d,.ad59fcac-0e53-489f-8954-4eaab97f05ef{stroke:#000;}.\31 dd7e230-1cac-4d63-b278-e19f959971df{stroke-linecap:round;stroke-linejoin:round;}.\35 a504403-8226-4dff-8f7b-7dd1468b2c1d{stroke-linecap:square;stroke-width:4px;}.\35 a504403-8226-4dff-8f7b-7dd1468b2c1d,.ad59fcac-0e53-489f-8954-4eaab97f05ef{stroke-miterlimit:10;}</style></defs><title>girl</title><path class="c546db9e-e6f9-45de-9021-6b0c9ea94998" d="M834.6,627.7c-6.2-6.5-23.1-12-23.1-12a177.68,177.68,0,0,0-20.1-48c-4.5-7.4-9.5-14.5-13.1-22.4-6.1-13.4-7.7-28.4-10.8-42.8-4.2-19.3-9.8-44.2-18.4-62.9a229.71,229.71,0,0,0,63.1-46.2c3.6-3.7,7.2-7.9,7.7-13a16.09,16.09,0,0,0-3.7-11.3c-2.5-3.3-5.7-5.8-8.9-8.3-9.5-7.5-33.1-30-38.3-30.9h-.1c-5.9-4.8-11.9-9.7-17.8-14.6l-1.9-1.4c-11.7,1.3-25.1-.7-34.1-6.5v-.1c-9.2,3.8-19.8,1.9-28.6-3.1l-.1.2c-7.5,4.1-18.1,7.2-28.4,8.2l-1,.1-1.9.1a28.25,28.25,0,0,0,2.9-.2l2.6-.4-8.7.7h0c-3.9,4.1-10.3,8.7-14.2,12.9l.2-.1c-9.9,6.3-18.1,15.1-27.9,21.4-4.4,2.8-9.2,6-11.1,10.9a16.31,16.31,0,0,0,.1,10.9,46,46,0,0,0,5,9.9c13.9,22.3,32.3,42.8,51.3,60.9h0c3.9,43.5,14.1,94.2,27.5,134.9,3.8,11.7,7.7,17.5,14.1,28,2.6,4.3,5.6,14.3,7.6,18.9s1.9,13.7,1.9,13.7a6.59,6.59,0,0,1-2.7,5.2,18.24,18.24,0,0,1-5.4,2.7c-3.1,1.2-9.6,3.6-9.6,3.6-3.4.4-7.5,4.1-8.2,7.5a8.49,8.49,0,0,0,3.9,8.9c3.1,1.9,7.1,1.5,10.7.7a51.27,51.27,0,0,0,18.3-8.2l-.1.1c3.1-1.1,6.2-.1,9.8-1.6V654c5.8,1.8,8.1-3.9,7-6.2-3.9-18.2-6.7-36.3-10.6-54.5-2.4-11.5-10.9-23-11.9-34.7-1.3-14.4,2.6-28.9.7-43.2-1.9-14.1-2.9-29.8-7.5-43.2,2.5,1.2,5.2,1.8,7.7.8l.1-.1c4.8,13.9,10.9,29,18.3,41.8,6.1,10.6,12.2,21.3,18.4,31.9,6.3,11,12.7,22,19.9,32.4,10.4,14.9,34.4,40.3,34.4,40.3a62.46,62.46,0,0,0,13.1,24.3c6.3,6.9,14.6,12,23.8,13.6,1.7.3,3.7.4,5.1-.6s1.7-2.7,1.9-4.4C844.6,643.3,840.9,634.2,834.6,627.7ZM658.4,386.6c-1,11.7-2.1,23.4-3.1,35A194.72,194.72,0,0,1,622.2,371c-.9-2.1-1.8-4.4-1-6.5.7-1.9,2.6-3,4.3-4,8.2-4.7,16.5-9.5,24.7-14.2l1.1-1.1c1.1,5-2.6,9.6-4.1,14.5a18.39,18.39,0,0,0,9.4,21.5C658.5,382,658.6,384.6,658.4,386.6ZM742,422.7l-.2.1a50.47,50.47,0,0,1-5.2-16.8c-1.1-8.4,0-16.8,1-25.1,1.2-10.1,2.5-20.2,5.6-29.9,1.8.6,5.4,1.7,5.4,1.7,12.9,7.7,26.2,15.2,39.1,22.9,1.7,1,3.7,2.4,3.7,4.5,0,1.8-1.5,3.1-2.8,4.2C774,396.3,756.5,410.7,742,422.7Z" transform="translate(-597.51 -143.66)"/><path class="c546db9e-e6f9-45de-9021-6b0c9ea94998" d="M686.7,304.3c8.8,5,19.4,6.9,28.6,3.1v.1c14.4,9.3,40,8.9,52,.5a6.3,6.3,0,0,0,2.1-2.2,8.08,8.08,0,0,0,.5-2.7c.2-5.9.4-11.9.7-17.8.6-15,1.1-30.1-1.1-45s-7.4-29.6-17-41.1a62.07,62.07,0,0,0-46.1-21.7s-36.5-2-53.9,25.4a102.72,102.72,0,0,0-10.3,21.7c-7,21-9.5,43.4-8.8,65.5l.1,2.4a77.15,77.15,0,0,0,2.4,17.9c14.2,5.6,37.4,1.4,50.7-5.9" transform="translate(-597.51 -143.66)"/><path class="1dd7e230-1cac-4d63-b278-e19f959971df" d="M671.6,197.4c1,10,2.4,17.2-2.4,25.3s-12.4,14.1-18.5,21.2a73.89,73.89,0,0,0-15,66.4c14.2,5.6,37.4,1.4,50.7-5.9" transform="translate(-597.51 -143.66)"/><path class="1dd7e230-1cac-4d63-b278-e19f959971df" d="M715.1,307.4c14.4,9.3,40,8.9,52,.5a6.3,6.3,0,0,0,2.1-2.2,8.08,8.08,0,0,0,.5-2.7c.2-5.9.4-11.9.7-17.8.6-15,1.1-30.1-1.1-45s-7.4-29.6-17-41.1a62.07,62.07,0,0,0-46.1-21.7s-36.5-2-53.9,25.4A102.72,102.72,0,0,0,642,224.5c-7,21-9.5,43.4-8.8,65.5" transform="translate(-597.51 -143.66)"/><path class="1dd7e230-1cac-4d63-b278-e19f959971df" d="M671.6,197.4c5.2,11.4,8.9,19.2,18.8,26.8,6.9,5.2,15.3,7.8,23.6,10.1a126.66,126.66,0,0,0,18.1,3.8,76.54,76.54,0,0,1,10.7,1.5,29.62,29.62,0,0,1,20,16.8c4.3,9.8,1.8,19.9,7.6,28.8" transform="translate(-597.51 -143.66)"/><path class="1dd7e230-1cac-4d63-b278-e19f959971df" d="M647.7,247.7a48.91,48.91,0,0,0,4.1,10.8c2.1,3.8,4.3,7.6,6.4,11.4,6.1,10.9,12.5,22,22.1,29.9s23.3,12.2,34.8,7.4c4.6-1.9,8.5-5.2,12.2-8.6A118,118,0,0,0,758,249.2" transform="translate(-597.51 -143.66)"/><path class="5a504403-8226-4dff-8f7b-7dd1468b2c1d" d="M654.8,216.6c9.6-15,16.8-27.9,48.7-27.7,33.4.1,42.6,16.6,53.3,32.4" transform="translate(-597.51 -143.66)"/><path class="1dd7e230-1cac-4d63-b278-e19f959971df" d="M668.2,258a37.26,37.26,0,0,1-3-3.2c2.1-4.4,5.3-8.5,9.7-10.7s10-2.2,13.8.8a14.47,14.47,0,0,1,3.4,4,44.22,44.22,0,0,1,3.7,9.4" transform="translate(-597.51 -143.66)"/><path d="M726,190.8c.6-4.4,6.2-31,19.6-41.8,3.3-2.4,7.5-5,11.5-3.8a2.4,2.4,0,0,1,1.2.7,1.64,1.64,0,0,1,.2,1.2c-.3,2.6-4.9,24.2-8.2,31.8s-5.1,13.6-13.6,16.5Z" transform="translate(-597.51 -143.66)"/><path d="M674.6,194.2c-8.4-2.9-10.2-9-13.6-16.5s-7.9-29.2-8.2-31.8a1.28,1.28,0,0,1,.2-1.2,1.64,1.64,0,0,1,1.2-.7c4-1.3,8.2,1.4,11.5,3.8,13.5,10.8,19,37.3,19.6,41.8Z" transform="translate(-597.51 -143.66)"/><circle cx="81.89" cy="106.94" r="6.8"/><circle class="c546db9e-e6f9-45de-9021-6b0c9ea94998" cx="79.19" cy="104.94" r="2.9"/><path class="1dd7e230-1cac-4d63-b278-e19f959971df" d="M708,256.6c2.1-4.4,5.3-8.5,9.7-10.7s10-2.2,13.8.8a14.47,14.47,0,0,1,3.4,4c1.6,2.6,3.8,7.1,3.7,7.4" transform="translate(-597.51 -143.66)"/><circle cx="124.69" cy="108.84" r="6.8"/><circle class="c546db9e-e6f9-45de-9021-6b0c9ea94998" cx="121.99" cy="106.84" r="2.9"/><path class="1dd7e230-1cac-4d63-b278-e19f959971df" d="M695.1,269c-.1,2.1,2.1,4,4.7,4.4a6.57,6.57,0,0,0,5-1.3,4,4,0,0,0,1.3-3.1" transform="translate(-597.51 -143.66)"/><path class="1dd7e230-1cac-4d63-b278-e19f959971df" d="M684.9,283.3a12.13,12.13,0,0,0,3.2,2.2,26.5,26.5,0,0,0,19.9,2,21.3,21.3,0,0,0,3.5-1.4,23.22,23.22,0,0,0,4.9-4" transform="translate(-597.51 -143.66)"/><path class="ad59fcac-0e53-489f-8954-4eaab97f05ef" d="M660.6,312.2c1.2,4.7.6,13.3,2.7,17.4s4.8,8,8.7,10.4c3.5,2.1,7.6,2.8,11.6,3.3,18.6,2.1,39.3-1.2,52.1-14.8a97.52,97.52,0,0,1,15.4-13.2c5.9,4.9,11.9,9.8,17.8,14.6a31.83,31.83,0,0,0-20.5,22.9c-1.7-.6-3.4-1.2-5.2-1.8-3.1,9.7-4.4,19.8-5.6,29.9-1,8.3-2.1,16.7-1,25.1a50.42,50.42,0,0,0,6.3,18.8c1.3,2.4,2.9,4.7,3.5,7.3s0,5.8-2.2,7.3a139.56,139.56,0,0,0-31.1,29.3c-1.3,1.7-2.7,3.5-4.6,4.3-2.9,1.2-6.3,0-9.1-1.6-15.5-8.7-24.4-26.2-39.9-34.8-2.4-1.3-5.3-3.1-5-5.8,1.3-14.7,2.6-29.4,3.9-44.2.2-2,.1-4.6-1.8-5.4a18.39,18.39,0,0,1-9.4-21.5c1.5-4.9,5.2-9.5,4.1-14.5a14.46,14.46,0,0,0-2.7-5.4c-2.7-4-8-10.1-10.9-14,3.9-4.2,10.3-8.8,14.2-12.9l5.1-.2Z" transform="translate(-597.51 -143.66)"/><path class="1dd7e230-1cac-4d63-b278-e19f959971df" d="M637.9,325.7c-9.9,6.3-18.1,15.1-27.9,21.4-4.4,2.8-9.2,6-11.1,10.9a16.31,16.31,0,0,0,.1,10.9,46,46,0,0,0,5,9.9c13.9,22.3,32.3,42.8,51.3,60.9" transform="translate(-597.51 -143.66)"/><path class="1dd7e230-1cac-4d63-b278-e19f959971df" d="M650.2,346.3c-8.2,4.7-16.5,9.5-24.7,14.2-1.7,1-3.6,2.1-4.3,4-.8,2.1.1,4.4,1,6.5a195.61,195.61,0,0,0,33.2,50.7" transform="translate(-597.51 -143.66)"/><path class="1dd7e230-1cac-4d63-b278-e19f959971df" d="M748.6,352.7c12.9,7.7,26.2,15.2,39.1,22.9,1.7,1,3.7,2.4,3.7,4.5,0,1.8-1.5,3.1-2.8,4.2-14.6,12-32.1,26.4-46.6,38.4" transform="translate(-597.51 -143.66)"/><path class="1dd7e230-1cac-4d63-b278-e19f959971df" d="M769,329.9c5.2.9,28.8,23.4,38.3,30.9,3.2,2.5,6.4,5,8.9,8.3a16.09,16.09,0,0,1,3.7,11.3c-.5,5.1-4.1,9.3-7.7,13a229,229,0,0,1-63.3,46.3" transform="translate(-597.51 -143.66)"/><path class="1dd7e230-1cac-4d63-b278-e19f959971df" d="M700.8,472c4.6,13.5,5.6,29.2,7.5,43.4s-2,28.8-.7,43.2c1,11.7,9.5,23.2,11.9,34.7,3.9,18.2,6.7,36.3,10.6,54.5" transform="translate(-597.51 -143.66)"/><path class="1dd7e230-1cac-4d63-b278-e19f959971df" d="M708.6,472.9c4.8,13.9,10.9,29,18.3,41.8,6.1,10.6,12.2,21.3,18.4,31.9,6.3,11,12.7,22,19.9,32.4,10.4,14.9,34.4,40.3,34.4,40.3a62.46,62.46,0,0,0,13.1,24.3c6.3,6.9,14.6,12,23.8,13.6,1.7.3,3.7.4,5.1-.6s1.7-2.7,1.9-4.4c1.1-8.9-2.6-18-8.9-24.5s-23.1-12-23.1-12a177.68,177.68,0,0,0-20.1-48c-4.5-7.4-9.5-14.5-13.1-22.4-6.1-13.4-7.7-28.4-10.8-42.8C763,481.6,756.7,454,746.8,435" transform="translate(-597.51 -143.66)"/><path class="1dd7e230-1cac-4d63-b278-e19f959971df" d="M806.2,634.8l15.1-15.4" transform="translate(-597.51 -143.66)"/><path class="1dd7e230-1cac-4d63-b278-e19f959971df" d="M819.5,649.8c6.5-7.5,10.6-12.2,17.1-19.7" transform="translate(-597.51 -143.66)"/><path d="M819.6,650.4c6.5-7.5,10.6-12.2,17.1-19.7,4.9,6.2,7.6,14.2,6.7,22-.2,1.6-.6,3.4-1.9,4.4s-3.3.9-5.1.6a38.41,38.41,0,0,1-16.8-7.3" transform="translate(-597.51 -143.66)"/><path class="1dd7e230-1cac-4d63-b278-e19f959971df" d="M704.5,639.6c4,.8,5.4.3,8.6,2.5a22.1,22.1,0,0,1,7.3,9,4.86,4.86,0,0,0,2.7,2.9c6,1.9,8.2-4.2,6.9-6.4" transform="translate(-597.51 -143.66)"/><path class="1dd7e230-1cac-4d63-b278-e19f959971df" d="M654.6,430.7c3.2,45.4,13.9,100.4,28.2,143.9,3.8,11.7,7.7,17.5,14.1,28,2.6,4.3,5.6,14.3,7.6,18.9s1.9,13.7,1.9,13.7a6.59,6.59,0,0,1-2.7,5.2,18.24,18.24,0,0,1-5.4,2.7c-3.1,1.2-9.6,3.6-9.6,3.6-3.4.4-7.5,4.1-8.2,7.5a8.49,8.49,0,0,0,3.9,8.9c3.1,1.9,7.1,1.5,10.7.7a51.27,51.27,0,0,0,18.3-8.2c-3.2-.9-5-4-7.4-6.2a16.67,16.67,0,0,0-15-3.6" transform="translate(-597.51 -143.66)"/><path d="M688.1,646.7c-3.4.4-7.5,4.1-8.2,7.5a8.49,8.49,0,0,0,3.9,8.9c3.1,1.9,7.1,1.5,10.7.7a51.27,51.27,0,0,0,18.3-8.2c-3.2-.9-5-4-7.4-6.2a16.67,16.67,0,0,0-15-3.6Z" transform="translate(-597.51 -143.66)"/><path class="1dd7e230-1cac-4d63-b278-e19f959971df" d="M713.3,655.7c3.1-1.1,6.2-.1,9.8-1.6" transform="translate(-597.51 -143.66)"/><path d="M696.1,283.5a5.1,5.1,0,0,1,4.9,1.8,3.55,3.55,0,0,1,3.2-1.8,5.08,5.08,0,0,1,3.9,1.1c.9.8.7,2.6.5,3.6-.3,1.8-.7,3.4-2.8,4.7-1.6,1-4,1.2-6.5.8a5.88,5.88,0,0,1-4-2.4C694.1,289.4,692.8,284.1,696.1,283.5Z" transform="translate(-597.51 -143.66)"/></svg>