<svg id="51744e84-9a63-48e9-8e43-9ba44570b5b2" data-name="Calque 1" xmlns="http://www.w3.org/2000/svg" width="964.18" height="521.3" viewBox="0 0 964.18 521.3"><defs><style>.\31 cdba084-0894-452c-8fe9-2c1168d4d3c9{fill:#fff;}.\31 e8c8079-727e-4d44-80ca-3152f1601ca6,.c78b6913-aed1-4c8a-8a1e-66540c246bdf{fill:none;}.\31 e8c8079-727e-4d44-80ca-3152f1601ca6,.\32 ab03cf3-1122-4898-93c3-3ac30a972cdc,.c78b6913-aed1-4c8a-8a1e-66540c246bdf{stroke:#000;}.\31 e8c8079-727e-4d44-80ca-3152f1601ca6{stroke-linecap:round;stroke-linejoin:round;}.c78b6913-aed1-4c8a-8a1e-66540c246bdf{stroke-linecap:square;stroke-width:4px;}.\32 ab03cf3-1122-4898-93c3-3ac30a972cdc,.c78b6913-aed1-4c8a-8a1e-66540c246bdf{stroke-miterlimit:10;}</style></defs><title>girls</title><path class="1cdba084-0894-452c-8fe9-2c1168d4d3c9" d="M477.1,624.6c-6.2-6.5-23.1-12-23.1-12a177.68,177.68,0,0,0-20.1-48c-4.5-7.4-9.5-14.5-13.1-22.4-6.1-13.4-7.7-28.4-10.8-42.8-4.2-19.3-9.8-44.2-18.4-62.9a229.71,229.71,0,0,0,63.1-46.2c3.6-3.7,7.2-7.9,7.7-13a16.09,16.09,0,0,0-3.7-11.3c-2.5-3.3-5.7-5.8-8.9-8.3-9.5-7.5-33.1-30-38.3-30.9h-.1c-5.9-4.8-11.9-9.7-17.8-14.6l-1.9-1.4c-11.7,1.3-25.1-.7-34.1-6.5v-.1c-9.2,3.8-19.8,1.9-28.6-3.1l-.1.2c-7.5,4.1-18.1,7.2-28.4,8.2l-1,.1-1.9.1a28.25,28.25,0,0,0,2.9-.2l2.6-.4-8.7.7h0c-3.9,4.1-10.3,8.7-14.2,12.9l.2-.1c-9.9,6.3-18.1,15.1-27.9,21.4-4.4,2.8-9.2,6-11.1,10.9a16.31,16.31,0,0,0,.1,10.9,46,46,0,0,0,5,9.9c13.9,22.3,32.3,42.8,51.3,60.9h0c3.9,43.5,14.1,94.2,27.5,134.9,3.8,11.7,7.7,17.5,14.1,28,2.6,4.3,5.6,14.3,7.6,18.9s1.9,13.7,1.9,13.7a6.59,6.59,0,0,1-2.7,5.2,18.24,18.24,0,0,1-5.4,2.7c-3.1,1.2-9.6,3.6-9.6,3.6-3.4.4-7.5,4.1-8.2,7.5a8.49,8.49,0,0,0,3.9,8.9c3.1,1.9,7.1,1.5,10.7.7a51.27,51.27,0,0,0,18.3-8.2l-.1.1c3.1-1.1,6.2-.1,9.8-1.6v-.1c5.8,1.8,8.1-3.9,7-6.2-3.9-18.2-6.7-36.3-10.6-54.5-2.4-11.5-10.9-23-11.9-34.7-1.3-14.4,2.6-28.9.7-43.2-1.9-14.1-2.9-29.8-7.5-43.2,2.5,1.2,5.2,1.8,7.7.8l.1-.1c4.8,13.9,10.9,29,18.3,41.8,6.1,10.6,12.2,21.3,18.4,31.9,6.3,11,12.7,22,19.9,32.4,10.4,14.9,34.4,40.3,34.4,40.3a62.46,62.46,0,0,0,13.1,24.3c6.3,6.9,14.6,12,23.8,13.6,1.7.3,3.7.4,5.1-.6s1.7-2.7,1.9-4.4C487.1,640.2,483.4,631.1,477.1,624.6ZM300.9,383.5c-1,11.7-2.1,23.4-3.1,35a194.72,194.72,0,0,1-33.1-50.6c-.9-2.1-1.8-4.4-1-6.5.7-1.9,2.6-3,4.3-4,8.2-4.7,16.5-9.5,24.7-14.2l1.1-1.1c1.1,5-2.6,9.6-4.1,14.5a18.39,18.39,0,0,0,9.4,21.5C301,378.9,301.1,381.5,300.9,383.5Zm83.6,36.1-.2.1a50.47,50.47,0,0,1-5.2-16.8c-1.1-8.4,0-16.8,1-25.1,1.2-10.1,2.5-20.2,5.6-29.9,1.8.6,5.4,1.7,5.4,1.7,12.9,7.7,26.2,15.2,39.1,22.9,1.7,1,3.7,2.4,3.7,4.5,0,1.8-1.5,3.1-2.8,4.2C416.5,393.2,399,407.6,384.5,419.6Z" transform="translate(-239.91 -140.56)"/><path class="1cdba084-0894-452c-8fe9-2c1168d4d3c9" d="M329.2,301.3c8.8,5,19.4,6.9,28.6,3.1v.1c14.4,9.3,40,8.9,52,.5a6.3,6.3,0,0,0,2.1-2.2,8.08,8.08,0,0,0,.5-2.7c.2-5.9.4-11.9.7-17.8.6-15,1.1-30.1-1.1-45s-7.4-29.6-17-41.1a62.07,62.07,0,0,0-46.1-21.7s-36.5-2-53.9,25.4a102.72,102.72,0,0,0-10.3,21.7c-7,21-9.5,43.4-8.8,65.5l.1,2.4a77.15,77.15,0,0,0,2.4,17.9c14.2,5.6,37.4,1.4,50.7-5.9" transform="translate(-239.91 -140.56)"/><path class="1e8c8079-727e-4d44-80ca-3152f1601ca6" d="M314,194.3c1,10,2.4,17.2-2.4,25.3s-12.4,14.1-18.5,21.2a73.89,73.89,0,0,0-15,66.4c14.2,5.6,37.4,1.4,50.7-5.9" transform="translate(-239.91 -140.56)"/><path class="1e8c8079-727e-4d44-80ca-3152f1601ca6" d="M357.5,304.3c14.4,9.3,40,8.9,52,.5a6.3,6.3,0,0,0,2.1-2.2,8.08,8.08,0,0,0,.5-2.7c.2-5.9.4-11.9.7-17.8.6-15,1.1-30.1-1.1-45s-7.4-29.6-17-41.1a62.07,62.07,0,0,0-46.1-21.7s-36.5-2-53.9,25.4a102.72,102.72,0,0,0-10.3,21.7c-7,21-9.5,43.4-8.8,65.5" transform="translate(-239.91 -140.56)"/><path class="1e8c8079-727e-4d44-80ca-3152f1601ca6" d="M314,194.3c5.2,11.4,8.9,19.2,18.8,26.8,6.9,5.2,15.3,7.8,23.6,10.1a126.66,126.66,0,0,0,18.1,3.8,76.54,76.54,0,0,1,10.7,1.5,29.62,29.62,0,0,1,20,16.8c4.3,9.8,1.8,19.9,7.6,28.8" transform="translate(-239.91 -140.56)"/><path class="1e8c8079-727e-4d44-80ca-3152f1601ca6" d="M290.1,244.7a48.91,48.91,0,0,0,4.1,10.8c2.1,3.8,4.3,7.6,6.4,11.4,6.1,10.9,12.5,22,22.1,29.9s23.3,12.2,34.8,7.4c4.6-1.9,8.5-5.2,12.2-8.6a118,118,0,0,0,30.7-49.4" transform="translate(-239.91 -140.56)"/><path class="c78b6913-aed1-4c8a-8a1e-66540c246bdf" d="M297.2,213.5c9.6-15,16.8-27.9,48.7-27.7,33.4.1,42.6,16.6,53.3,32.4" transform="translate(-239.91 -140.56)"/><path class="1e8c8079-727e-4d44-80ca-3152f1601ca6" d="M310.6,254.9a37.26,37.26,0,0,1-3-3.2c2.1-4.4,5.3-8.5,9.7-10.7s10-2.2,13.8.8a14.47,14.47,0,0,1,3.4,4,44.22,44.22,0,0,1,3.7,9.4" transform="translate(-239.91 -140.56)"/><path d="M368.4,187.7c.6-4.4,6.2-31,19.6-41.8,3.3-2.4,7.5-5,11.5-3.8a2.4,2.4,0,0,1,1.2.7,1.64,1.64,0,0,1,.2,1.2c-.3,2.6-4.9,24.2-8.2,31.8s-5.1,13.6-13.6,16.5Z" transform="translate(-239.91 -140.56)"/><path d="M317,191.1c-8.4-2.9-10.2-9-13.6-16.5s-7.9-29.2-8.2-31.8a1.28,1.28,0,0,1,.2-1.2,1.64,1.64,0,0,1,1.2-.7c4-1.3,8.2,1.4,11.5,3.8,13.5,10.8,19,37.3,19.6,41.8Z" transform="translate(-239.91 -140.56)"/><circle cx="81.89" cy="106.94" r="6.8"/><circle class="1cdba084-0894-452c-8fe9-2c1168d4d3c9" cx="79.19" cy="104.94" r="2.9"/><path class="1e8c8079-727e-4d44-80ca-3152f1601ca6" d="M350.4,253.5c2.1-4.4,5.3-8.5,9.7-10.7s10-2.2,13.8.8a14.47,14.47,0,0,1,3.4,4c1.6,2.6,3.8,7.1,3.7,7.4" transform="translate(-239.91 -140.56)"/><circle cx="124.69" cy="108.84" r="6.8"/><circle class="1cdba084-0894-452c-8fe9-2c1168d4d3c9" cx="121.99" cy="106.84" r="2.9"/><path class="1e8c8079-727e-4d44-80ca-3152f1601ca6" d="M337.5,265.9c-.1,2.1,2.1,4,4.7,4.4a6.57,6.57,0,0,0,5-1.3,4,4,0,0,0,1.3-3.1" transform="translate(-239.91 -140.56)"/><path class="1e8c8079-727e-4d44-80ca-3152f1601ca6" d="M327.3,280.2a12.13,12.13,0,0,0,3.2,2.2,26.5,26.5,0,0,0,19.9,2,21.3,21.3,0,0,0,3.5-1.4,23.22,23.22,0,0,0,4.9-4" transform="translate(-239.91 -140.56)"/><path class="2ab03cf3-1122-4898-93c3-3ac30a972cdc" d="M303,309.1c1.2,4.7.6,13.3,2.7,17.4s4.8,8,8.7,10.4c3.5,2.1,7.6,2.8,11.6,3.3,18.6,2.1,39.3-1.2,52.1-14.8a97.52,97.52,0,0,1,15.4-13.2c5.9,4.9,11.9,9.8,17.8,14.6a31.83,31.83,0,0,0-20.5,22.9c-1.7-.6-3.4-1.2-5.2-1.8-3.1,9.7-4.4,19.8-5.6,29.9-1,8.3-2.1,16.7-1,25.1a50.42,50.42,0,0,0,6.3,18.8c1.3,2.4,2.9,4.7,3.5,7.3s0,5.8-2.2,7.3a139.57,139.57,0,0,0-31.1,29.3c-1.3,1.7-2.7,3.5-4.6,4.3-2.9,1.2-6.3,0-9.1-1.6-15.5-8.7-24.4-26.2-39.9-34.8-2.4-1.3-5.3-3.1-5-5.8,1.3-14.7,2.6-29.4,3.9-44.2.2-2,.1-4.6-1.8-5.4a18.39,18.39,0,0,1-9.4-21.5c1.5-4.9,5.2-9.5,4.1-14.5a14.46,14.46,0,0,0-2.7-5.4c-2.7-4-8-10.1-10.9-14,3.9-4.2,10.3-8.8,14.2-12.9l5.1-.2Z" transform="translate(-239.91 -140.56)"/><path class="1e8c8079-727e-4d44-80ca-3152f1601ca6" d="M280.3,322.6c-9.9,6.3-18.1,15.1-27.9,21.4-4.4,2.8-9.2,6-11.1,10.9a16.31,16.31,0,0,0,.1,10.9,46,46,0,0,0,5,9.9c13.9,22.3,32.3,42.8,51.3,60.9" transform="translate(-239.91 -140.56)"/><path class="1e8c8079-727e-4d44-80ca-3152f1601ca6" d="M292.6,343.2c-8.2,4.7-16.5,9.5-24.7,14.2-1.7,1-3.6,2.1-4.3,4-.8,2.1.1,4.4,1,6.5a195.61,195.61,0,0,0,33.2,50.7" transform="translate(-239.91 -140.56)"/><path class="1e8c8079-727e-4d44-80ca-3152f1601ca6" d="M391,349.6c12.9,7.7,26.2,15.2,39.1,22.9,1.7,1,3.7,2.4,3.7,4.5,0,1.8-1.5,3.1-2.8,4.2-14.6,12-32.1,26.4-46.6,38.4" transform="translate(-239.91 -140.56)"/><path class="1e8c8079-727e-4d44-80ca-3152f1601ca6" d="M411.4,326.8c5.2.9,28.8,23.4,38.3,30.9,3.2,2.5,6.4,5,8.9,8.3a16.09,16.09,0,0,1,3.7,11.3c-.5,5.1-4.1,9.3-7.7,13a229,229,0,0,1-63.3,46.3" transform="translate(-239.91 -140.56)"/><path class="1e8c8079-727e-4d44-80ca-3152f1601ca6" d="M343.2,468.9c4.6,13.5,5.6,29.2,7.5,43.4s-2,28.8-.7,43.2c1,11.7,9.5,23.2,11.9,34.7,3.9,18.2,6.7,36.3,10.6,54.5" transform="translate(-239.91 -140.56)"/><path class="1e8c8079-727e-4d44-80ca-3152f1601ca6" d="M351,469.8c4.8,13.9,10.9,29,18.3,41.8,6.1,10.6,12.2,21.3,18.4,31.9,6.3,11,12.7,22,19.9,32.4C418,590.8,442,616.2,442,616.2a62.46,62.46,0,0,0,13.1,24.3c6.3,6.9,14.6,12,23.8,13.6,1.7.3,3.7.4,5.1-.6s1.7-2.7,1.9-4.4c1.1-8.9-2.6-18-8.9-24.5s-23.1-12-23.1-12a177.68,177.68,0,0,0-20.1-48c-4.5-7.4-9.5-14.5-13.1-22.4-6.1-13.4-7.7-28.4-10.8-42.8-4.5-20.9-10.8-48.5-20.7-67.5" transform="translate(-239.91 -140.56)"/><path class="1e8c8079-727e-4d44-80ca-3152f1601ca6" d="M448.6,631.7l15.1-15.4" transform="translate(-239.91 -140.56)"/><path class="1e8c8079-727e-4d44-80ca-3152f1601ca6" d="M461.9,646.7c6.5-7.5,10.6-12.2,17.1-19.7" transform="translate(-239.91 -140.56)"/><path d="M462,647.3c6.5-7.5,10.6-12.2,17.1-19.7,4.9,6.2,7.6,14.2,6.7,22-.2,1.6-.6,3.4-1.9,4.4s-3.3.9-5.1.6a38.41,38.41,0,0,1-16.8-7.3" transform="translate(-239.91 -140.56)"/><path class="1e8c8079-727e-4d44-80ca-3152f1601ca6" d="M346.9,636.5c4,.8,5.4.3,8.6,2.5a22.1,22.1,0,0,1,7.3,9,4.86,4.86,0,0,0,2.7,2.9c6,1.9,8.2-4.2,6.9-6.4" transform="translate(-239.91 -140.56)"/><path class="1e8c8079-727e-4d44-80ca-3152f1601ca6" d="M297,427.6c3.2,45.4,13.9,100.4,28.2,143.9,3.8,11.7,7.7,17.5,14.1,28,2.6,4.3,5.6,14.3,7.6,18.9s1.9,13.7,1.9,13.7a6.59,6.59,0,0,1-2.7,5.2,18.24,18.24,0,0,1-5.4,2.7c-3.1,1.2-9.6,3.6-9.6,3.6-3.4.4-7.5,4.1-8.2,7.5a8.49,8.49,0,0,0,3.9,8.9c3.1,1.9,7.1,1.5,10.7.7a51.27,51.27,0,0,0,18.3-8.2c-3.2-.9-5-4-7.4-6.2a16.67,16.67,0,0,0-15-3.6" transform="translate(-239.91 -140.56)"/><path d="M330.5,643.6c-3.4.4-7.5,4.1-8.2,7.5a8.49,8.49,0,0,0,3.9,8.9c3.1,1.9,7.1,1.5,10.7.7a51.27,51.27,0,0,0,18.3-8.2c-3.2-.9-5-4-7.4-6.2a16.67,16.67,0,0,0-15-3.6Z" transform="translate(-239.91 -140.56)"/><path class="1e8c8079-727e-4d44-80ca-3152f1601ca6" d="M355.7,652.6c3.1-1.1,6.2-.1,9.8-1.6" transform="translate(-239.91 -140.56)"/><path d="M338.5,280.4a5.1,5.1,0,0,1,4.9,1.8,3.55,3.55,0,0,1,3.2-1.8,5.08,5.08,0,0,1,3.9,1.1c.9.8.7,2.6.5,3.6-.3,1.8-.7,3.4-2.8,4.7-1.6,1-4,1.2-6.5.8a5.88,5.88,0,0,1-4-2.4C336.5,286.3,335.2,281,338.5,280.4Z" transform="translate(-239.91 -140.56)"/><path class="1cdba084-0894-452c-8fe9-2c1168d4d3c9" d="M716.8,624.6c-6.2-6.5-23.1-12-23.1-12a177.68,177.68,0,0,0-20.1-48c-4.5-7.4-9.5-14.5-13.1-22.4-6.1-13.4-7.7-28.4-10.8-42.8-4.2-19.3-9.8-44.2-18.4-62.9a229.71,229.71,0,0,0,63.1-46.2c3.6-3.7,7.2-7.9,7.7-13a16.09,16.09,0,0,0-3.7-11.3c-2.5-3.3-5.7-5.8-8.9-8.3-9.5-7.5-33.1-30-38.3-30.9h-.1c-5.9-4.8-11.9-9.7-17.8-14.6l-1.9-1.4c-11.7,1.3-25.1-.7-34.1-6.5v-.1c-9.2,3.8-19.8,1.9-28.6-3.1l-.1.2c-7.5,4.1-18.1,7.2-28.4,8.2l-1,.1-1.9.1a28.25,28.25,0,0,0,2.9-.2l2.6-.4-8.7.7h0c-3.9,4.1-10.3,8.7-14.2,12.9l.2-.1c-9.9,6.3-18.1,15.1-27.9,21.4-4.4,2.8-9.2,6-11.1,10.9a16.31,16.31,0,0,0,.1,10.9,46,46,0,0,0,5,9.9c13.9,22.3,32.3,42.8,51.3,60.9h0c3.9,43.5,14.1,94.2,27.5,134.9,3.8,11.7,7.7,17.5,14.1,28,2.6,4.3,5.6,14.3,7.6,18.9s1.9,13.7,1.9,13.7a6.59,6.59,0,0,1-2.7,5.2,18.24,18.24,0,0,1-5.4,2.7c-3.1,1.2-9.6,3.6-9.6,3.6-3.4.4-7.5,4.1-8.2,7.5a8.49,8.49,0,0,0,3.9,8.9c3.1,1.9,7.1,1.5,10.7.7a51.27,51.27,0,0,0,18.3-8.2l-.1.1c3.1-1.1,6.2-.1,9.8-1.6v-.1c5.8,1.8,8.1-3.9,7-6.2-3.9-18.2-6.7-36.3-10.6-54.5-2.4-11.5-10.9-23-11.9-34.7-1.3-14.4,2.6-28.9.7-43.2-1.9-14.1-2.9-29.8-7.5-43.2,2.5,1.2,5.2,1.8,7.7.8l.1-.1c4.8,13.9,10.9,29,18.3,41.8,6.1,10.6,12.2,21.3,18.4,31.9,6.3,11,12.7,22,19.9,32.4,10.4,14.9,34.4,40.3,34.4,40.3a62.46,62.46,0,0,0,13.1,24.3c6.3,6.9,14.6,12,23.8,13.6,1.7.3,3.7.4,5.1-.6s1.7-2.7,1.9-4.4C726.8,640.2,723.1,631.1,716.8,624.6ZM540.6,383.5c-1,11.7-2.1,23.4-3.1,35a194.72,194.72,0,0,1-33.1-50.6c-.9-2.1-1.8-4.4-1-6.5.7-1.9,2.6-3,4.3-4,8.2-4.7,16.5-9.5,24.7-14.2l1.1-1.1c1.1,5-2.6,9.6-4.1,14.5a18.39,18.39,0,0,0,9.4,21.5C540.7,378.9,540.8,381.5,540.6,383.5Zm83.6,36.1-.2.1a50.47,50.47,0,0,1-5.2-16.8c-1.1-8.4,0-16.8,1-25.1,1.2-10.1,2.5-20.2,5.6-29.9,1.8.6,5.4,1.7,5.4,1.7,12.9,7.7,26.2,15.2,39.1,22.9,1.7,1,3.7,2.4,3.7,4.5,0,1.8-1.5,3.1-2.8,4.2C656.2,393.2,638.7,407.6,624.2,419.6Z" transform="translate(-239.91 -140.56)"/><path class="1cdba084-0894-452c-8fe9-2c1168d4d3c9" d="M568.9,301.3c8.8,5,19.4,6.9,28.6,3.1v.1c14.4,9.3,40,8.9,52,.5a6.3,6.3,0,0,0,2.1-2.2,8.08,8.08,0,0,0,.5-2.7c.2-5.9.4-11.9.7-17.8.6-15,1.1-30.1-1.1-45s-7.4-29.6-17-41.1a62.07,62.07,0,0,0-46.1-21.7s-36.5-2-53.9,25.4a102.72,102.72,0,0,0-10.3,21.7c-7,21-9.5,43.4-8.8,65.5l.1,2.4a77.15,77.15,0,0,0,2.4,17.9c14.2,5.6,37.4,1.4,50.7-5.9" transform="translate(-239.91 -140.56)"/><path class="1e8c8079-727e-4d44-80ca-3152f1601ca6" d="M553.8,194.3c1,10,2.4,17.2-2.4,25.3s-12.4,14.1-18.5,21.2a73.89,73.89,0,0,0-15,66.4c14.2,5.6,37.4,1.4,50.7-5.9" transform="translate(-239.91 -140.56)"/><path class="1e8c8079-727e-4d44-80ca-3152f1601ca6" d="M597.3,304.3c14.4,9.3,40,8.9,52,.5a6.3,6.3,0,0,0,2.1-2.2,8.08,8.08,0,0,0,.5-2.7c.2-5.9.4-11.9.7-17.8.6-15,1.1-30.1-1.1-45s-7.4-29.6-17-41.1a62.07,62.07,0,0,0-46.1-21.7s-36.5-2-53.9,25.4a102.72,102.72,0,0,0-10.3,21.7c-7,21-9.5,43.4-8.8,65.5" transform="translate(-239.91 -140.56)"/><path class="1e8c8079-727e-4d44-80ca-3152f1601ca6" d="M553.8,194.3c5.2,11.4,8.9,19.2,18.8,26.8,6.9,5.2,15.3,7.8,23.6,10.1a126.66,126.66,0,0,0,18.1,3.8,76.54,76.54,0,0,1,10.7,1.5,29.62,29.62,0,0,1,20,16.8c4.3,9.8,1.8,19.9,7.6,28.8" transform="translate(-239.91 -140.56)"/><path class="1e8c8079-727e-4d44-80ca-3152f1601ca6" d="M529.9,244.7a48.91,48.91,0,0,0,4.1,10.8c2.1,3.8,4.3,7.6,6.4,11.4,6.1,10.9,12.5,22,22.1,29.9s23.3,12.2,34.8,7.4c4.6-1.9,8.5-5.2,12.2-8.6a118,118,0,0,0,30.7-49.4" transform="translate(-239.91 -140.56)"/><path class="c78b6913-aed1-4c8a-8a1e-66540c246bdf" d="M537,213.5c9.6-15,16.8-27.9,48.7-27.7,33.4.1,42.6,16.6,53.3,32.4" transform="translate(-239.91 -140.56)"/><path class="1e8c8079-727e-4d44-80ca-3152f1601ca6" d="M550.4,254.9a37.26,37.26,0,0,1-3-3.2c2.1-4.4,5.3-8.5,9.7-10.7s10-2.2,13.8.8a14.47,14.47,0,0,1,3.4,4,44.22,44.22,0,0,1,3.7,9.4" transform="translate(-239.91 -140.56)"/><path d="M608.2,187.7c.6-4.4,6.2-31,19.6-41.8,3.3-2.4,7.5-5,11.5-3.8a2.4,2.4,0,0,1,1.2.7,1.64,1.64,0,0,1,.2,1.2c-.3,2.6-4.9,24.2-8.2,31.8s-5.1,13.6-13.6,16.5Z" transform="translate(-239.91 -140.56)"/><path d="M556.8,191.1c-8.4-2.9-10.2-9-13.6-16.5s-7.9-29.2-8.2-31.8a1.28,1.28,0,0,1,.2-1.2,1.64,1.64,0,0,1,1.2-.7c4-1.3,8.2,1.4,11.5,3.8,13.5,10.8,19,37.3,19.6,41.8Z" transform="translate(-239.91 -140.56)"/><circle cx="321.69" cy="106.94" r="6.8"/><circle class="1cdba084-0894-452c-8fe9-2c1168d4d3c9" cx="318.99" cy="104.94" r="2.9"/><path class="1e8c8079-727e-4d44-80ca-3152f1601ca6" d="M590.2,253.5c2.1-4.4,5.3-8.5,9.7-10.7s10-2.2,13.8.8a14.47,14.47,0,0,1,3.4,4c1.6,2.6,3.8,7.1,3.7,7.4" transform="translate(-239.91 -140.56)"/><circle cx="364.49" cy="108.84" r="6.8"/><circle class="1cdba084-0894-452c-8fe9-2c1168d4d3c9" cx="361.79" cy="106.84" r="2.9"/><path class="1e8c8079-727e-4d44-80ca-3152f1601ca6" d="M577.3,265.9c-.1,2.1,2.1,4,4.7,4.4a6.57,6.57,0,0,0,5-1.3,4,4,0,0,0,1.3-3.1" transform="translate(-239.91 -140.56)"/><path class="1e8c8079-727e-4d44-80ca-3152f1601ca6" d="M567.1,280.2a12.13,12.13,0,0,0,3.2,2.2,26.5,26.5,0,0,0,19.9,2,21.3,21.3,0,0,0,3.5-1.4,23.22,23.22,0,0,0,4.9-4" transform="translate(-239.91 -140.56)"/><path class="2ab03cf3-1122-4898-93c3-3ac30a972cdc" d="M542.8,309.1c1.2,4.7.6,13.3,2.7,17.4s4.8,8,8.7,10.4c3.5,2.1,7.6,2.8,11.6,3.3,18.6,2.1,39.3-1.2,52.1-14.8a97.52,97.52,0,0,1,15.4-13.2c5.9,4.9,11.9,9.8,17.8,14.6a31.83,31.83,0,0,0-20.5,22.9c-1.7-.6-3.4-1.2-5.2-1.8-3.1,9.7-4.4,19.8-5.6,29.9-1,8.3-2.1,16.7-1,25.1a50.42,50.42,0,0,0,6.3,18.8c1.3,2.4,2.9,4.7,3.5,7.3s0,5.8-2.2,7.3a139.56,139.56,0,0,0-31.1,29.3c-1.3,1.7-2.7,3.5-4.6,4.3-2.9,1.2-6.3,0-9.1-1.6-15.5-8.7-24.4-26.2-39.9-34.8-2.4-1.3-5.3-3.1-5-5.8,1.3-14.7,2.6-29.4,3.9-44.2.2-2,.1-4.6-1.8-5.4a18.39,18.39,0,0,1-9.4-21.5c1.5-4.9,5.2-9.5,4.1-14.5a14.46,14.46,0,0,0-2.7-5.4c-2.7-4-8-10.1-10.9-14,3.9-4.2,10.3-8.8,14.2-12.9l5.1-.2Z" transform="translate(-239.91 -140.56)"/><path class="1e8c8079-727e-4d44-80ca-3152f1601ca6" d="M520.1,322.6c-9.9,6.3-18.1,15.1-27.9,21.4-4.4,2.8-9.2,6-11.1,10.9a16.31,16.31,0,0,0,.1,10.9,46,46,0,0,0,5,9.9c13.9,22.3,32.3,42.8,51.3,60.9" transform="translate(-239.91 -140.56)"/><path class="1e8c8079-727e-4d44-80ca-3152f1601ca6" d="M532.4,343.2c-8.2,4.7-16.5,9.5-24.7,14.2-1.7,1-3.6,2.1-4.3,4-.8,2.1.1,4.4,1,6.5a195.61,195.61,0,0,0,33.2,50.7" transform="translate(-239.91 -140.56)"/><path class="1e8c8079-727e-4d44-80ca-3152f1601ca6" d="M630.8,349.6c12.9,7.7,26.2,15.2,39.1,22.9,1.7,1,3.7,2.4,3.7,4.5,0,1.8-1.5,3.1-2.8,4.2-14.6,12-32.1,26.4-46.6,38.4" transform="translate(-239.91 -140.56)"/><path class="1e8c8079-727e-4d44-80ca-3152f1601ca6" d="M651.2,326.8c5.2.9,28.8,23.4,38.3,30.9,3.2,2.5,6.4,5,8.9,8.3a16.09,16.09,0,0,1,3.7,11.3c-.5,5.1-4.1,9.3-7.7,13a229,229,0,0,1-63.3,46.3" transform="translate(-239.91 -140.56)"/><path class="1e8c8079-727e-4d44-80ca-3152f1601ca6" d="M583,468.9c4.6,13.5,5.6,29.2,7.5,43.4s-2,28.8-.7,43.2c1,11.7,9.5,23.2,11.9,34.7,3.9,18.2,6.7,36.3,10.6,54.5" transform="translate(-239.91 -140.56)"/><path class="1e8c8079-727e-4d44-80ca-3152f1601ca6" d="M590.8,469.8c4.8,13.9,10.9,29,18.3,41.8,6.1,10.6,12.2,21.3,18.4,31.9,6.3,11,12.7,22,19.9,32.4,10.4,14.9,34.4,40.3,34.4,40.3a62.46,62.46,0,0,0,13.1,24.3c6.3,6.9,14.6,12,23.8,13.6,1.7.3,3.7.4,5.1-.6s1.7-2.7,1.9-4.4c1.1-8.9-2.6-18-8.9-24.5s-23.1-12-23.1-12a177.68,177.68,0,0,0-20.1-48c-4.5-7.4-9.5-14.5-13.1-22.4-6.1-13.4-7.7-28.4-10.8-42.8-4.5-20.9-10.8-48.5-20.7-67.5" transform="translate(-239.91 -140.56)"/><path class="1e8c8079-727e-4d44-80ca-3152f1601ca6" d="M688.4,631.7l15.1-15.4" transform="translate(-239.91 -140.56)"/><path class="1e8c8079-727e-4d44-80ca-3152f1601ca6" d="M701.7,646.7c6.5-7.5,10.6-12.2,17.1-19.7" transform="translate(-239.91 -140.56)"/><path d="M701.8,647.3c6.5-7.5,10.6-12.2,17.1-19.7,4.9,6.2,7.6,14.2,6.7,22-.2,1.6-.6,3.4-1.9,4.4s-3.3.9-5.1.6a38.41,38.41,0,0,1-16.8-7.3" transform="translate(-239.91 -140.56)"/><path class="1e8c8079-727e-4d44-80ca-3152f1601ca6" d="M586.7,636.5c4,.8,5.4.3,8.6,2.5a22.1,22.1,0,0,1,7.3,9,4.86,4.86,0,0,0,2.7,2.9c6,1.9,8.2-4.2,6.9-6.4" transform="translate(-239.91 -140.56)"/><path class="1e8c8079-727e-4d44-80ca-3152f1601ca6" d="M536.8,427.6C540,473,550.7,528,565,571.5c3.8,11.7,7.7,17.5,14.1,28,2.6,4.3,5.6,14.3,7.6,18.9s1.9,13.7,1.9,13.7a6.59,6.59,0,0,1-2.7,5.2,18.24,18.24,0,0,1-5.4,2.7c-3.1,1.2-9.6,3.6-9.6,3.6-3.4.4-7.5,4.1-8.2,7.5a8.49,8.49,0,0,0,3.9,8.9c3.1,1.9,7.1,1.5,10.7.7a51.27,51.27,0,0,0,18.3-8.2c-3.2-.9-5-4-7.4-6.2a16.67,16.67,0,0,0-15-3.6" transform="translate(-239.91 -140.56)"/><path d="M570.3,643.6c-3.4.4-7.5,4.1-8.2,7.5A8.49,8.49,0,0,0,566,660c3.1,1.9,7.1,1.5,10.7.7a51.27,51.27,0,0,0,18.3-8.2c-3.2-.9-5-4-7.4-6.2a16.67,16.67,0,0,0-15-3.6Z" transform="translate(-239.91 -140.56)"/><path class="1e8c8079-727e-4d44-80ca-3152f1601ca6" d="M595.5,652.6c3.1-1.1,6.2-.1,9.8-1.6" transform="translate(-239.91 -140.56)"/><path d="M578.3,280.4a5.1,5.1,0,0,1,4.9,1.8,3.55,3.55,0,0,1,3.2-1.8,5.08,5.08,0,0,1,3.9,1.1c.9.8.7,2.6.5,3.6-.3,1.8-.7,3.4-2.8,4.7-1.6,1-4,1.2-6.5.8a5.88,5.88,0,0,1-4-2.4C576.3,286.3,575,281,578.3,280.4Z" transform="translate(-239.91 -140.56)"/><path class="1cdba084-0894-452c-8fe9-2c1168d4d3c9" d="M954.7,624.6c-6.2-6.5-23.1-12-23.1-12a177.68,177.68,0,0,0-20.1-48c-4.5-7.4-9.5-14.5-13.1-22.4-6.1-13.4-7.7-28.4-10.8-42.8-4.2-19.3-9.8-44.2-18.4-62.9a229.71,229.71,0,0,0,63.1-46.2c3.6-3.7,7.2-7.9,7.7-13a16.09,16.09,0,0,0-3.7-11.3c-2.5-3.3-5.7-5.8-8.9-8.3-9.5-7.5-33.1-30-38.3-30.9H889c-5.9-4.8-11.9-9.7-17.8-14.6l-1.9-1.4c-11.7,1.3-25.1-.7-34.1-6.5v-.1c-9.2,3.8-19.8,1.9-28.6-3.1l-.1.2c-7.5,4.1-18.1,7.2-28.4,8.2l-1,.1-1.9.1a28.25,28.25,0,0,0,2.9-.2l2.6-.4-8.7.7h0c-3.9,4.1-10.3,8.7-14.2,12.9l.2-.1c-9.9,6.3-18.1,15.1-27.9,21.4-4.4,2.8-9.2,6-11.1,10.9a16.31,16.31,0,0,0,.1,10.9,46,46,0,0,0,5,9.9c13.9,22.3,32.3,42.8,51.3,60.9h0c3.9,43.5,14.1,94.2,27.5,134.9,3.8,11.7,7.7,17.5,14.1,28,2.6,4.3,5.6,14.3,7.6,18.9s1.9,13.7,1.9,13.7a6.59,6.59,0,0,1-2.7,5.2,18.24,18.24,0,0,1-5.4,2.7c-3.1,1.2-9.6,3.6-9.6,3.6-3.4.4-7.5,4.1-8.2,7.5a8.49,8.49,0,0,0,3.9,8.9c3.1,1.9,7.1,1.5,10.7.7a51.27,51.27,0,0,0,18.3-8.2l-.1.1c3.1-1.1,6.2-.1,9.8-1.6v-.1c5.8,1.8,8.1-3.9,7-6.2-3.9-18.2-6.7-36.3-10.6-54.5-2.4-11.5-10.9-23-11.9-34.7-1.3-14.4,2.6-28.9.7-43.2-1.9-14.1-2.9-29.8-7.5-43.2,2.5,1.2,5.2,1.8,7.7.8l.1-.1c4.8,13.9,10.9,29,18.3,41.8,6.1,10.6,12.2,21.3,18.4,31.9,6.3,11,12.7,22,19.9,32.4,10.4,14.9,34.4,40.3,34.4,40.3a62.46,62.46,0,0,0,13.1,24.3c6.3,6.9,14.6,12,23.8,13.6,1.7.3,3.7.4,5.1-.6s1.7-2.7,1.9-4.4C964.7,640.2,961,631.1,954.7,624.6ZM778.5,383.5c-1,11.7-2.1,23.4-3.1,35a194.72,194.72,0,0,1-33.1-50.6c-.9-2.1-1.8-4.4-1-6.5.7-1.9,2.6-3,4.3-4,8.2-4.7,16.5-9.5,24.7-14.2l1.1-1.1c1.1,5-2.6,9.6-4.1,14.5a18.39,18.39,0,0,0,9.4,21.5C778.6,378.9,778.7,381.5,778.5,383.5Zm83.6,36.1-.2.1a50.47,50.47,0,0,1-5.2-16.8c-1.1-8.4,0-16.8,1-25.1,1.2-10.1,2.5-20.2,5.6-29.9,1.8.6,5.4,1.7,5.4,1.7,12.9,7.7,26.2,15.2,39.1,22.9,1.7,1,3.7,2.4,3.7,4.5,0,1.8-1.5,3.1-2.8,4.2C894.1,393.2,876.6,407.6,862.1,419.6Z" transform="translate(-239.91 -140.56)"/><path class="1cdba084-0894-452c-8fe9-2c1168d4d3c9" d="M806.8,301.3c8.8,5,19.4,6.9,28.6,3.1v.1c14.4,9.3,40,8.9,52,.5a6.3,6.3,0,0,0,2.1-2.2,8.08,8.08,0,0,0,.5-2.7c.2-5.9.4-11.9.7-17.8.6-15,1.1-30.1-1.1-45s-7.4-29.6-17-41.1a62.07,62.07,0,0,0-46.1-21.7s-36.5-2-53.9,25.4a102.72,102.72,0,0,0-10.3,21.7c-7,21-9.5,43.4-8.8,65.5l.1,2.4a77.15,77.15,0,0,0,2.4,17.9c14.2,5.6,37.4,1.4,50.7-5.9" transform="translate(-239.91 -140.56)"/><path class="1e8c8079-727e-4d44-80ca-3152f1601ca6" d="M791.7,194.3c1,10,2.4,17.2-2.4,25.3s-12.4,14.1-18.5,21.2a73.89,73.89,0,0,0-15,66.4c14.2,5.6,37.4,1.4,50.7-5.9" transform="translate(-239.91 -140.56)"/><path class="1e8c8079-727e-4d44-80ca-3152f1601ca6" d="M835.2,304.3c14.4,9.3,40,8.9,52,.5a6.3,6.3,0,0,0,2.1-2.2,8.08,8.08,0,0,0,.5-2.7c.2-5.9.4-11.9.7-17.8.6-15,1.1-30.1-1.1-45s-7.4-29.6-17-41.1a62.07,62.07,0,0,0-46.1-21.7s-36.5-2-53.9,25.4a102.72,102.72,0,0,0-10.3,21.7c-7,21-9.5,43.4-8.8,65.5" transform="translate(-239.91 -140.56)"/><path class="1e8c8079-727e-4d44-80ca-3152f1601ca6" d="M791.7,194.3c5.2,11.4,8.9,19.2,18.8,26.8,6.9,5.2,15.3,7.8,23.6,10.1a126.66,126.66,0,0,0,18.1,3.8,76.54,76.54,0,0,1,10.7,1.5,29.62,29.62,0,0,1,20,16.8c4.3,9.8,1.8,19.9,7.6,28.8" transform="translate(-239.91 -140.56)"/><path class="1e8c8079-727e-4d44-80ca-3152f1601ca6" d="M767.8,244.7a48.91,48.91,0,0,0,4.1,10.8c2.1,3.8,4.3,7.6,6.4,11.4,6.1,10.9,12.5,22,22.1,29.9s23.3,12.2,34.8,7.4c4.6-1.9,8.5-5.2,12.2-8.6a118,118,0,0,0,30.7-49.4" transform="translate(-239.91 -140.56)"/><path class="c78b6913-aed1-4c8a-8a1e-66540c246bdf" d="M774.9,213.5c9.6-15,16.8-27.9,48.7-27.7,33.4.1,42.6,16.6,53.3,32.4" transform="translate(-239.91 -140.56)"/><path class="1e8c8079-727e-4d44-80ca-3152f1601ca6" d="M788.3,254.9a37.26,37.26,0,0,1-3-3.2c2.1-4.4,5.3-8.5,9.7-10.7s10-2.2,13.8.8a14.47,14.47,0,0,1,3.4,4,44.22,44.22,0,0,1,3.7,9.4" transform="translate(-239.91 -140.56)"/><path d="M846.1,187.7c.6-4.4,6.2-31,19.6-41.8,3.3-2.4,7.5-5,11.5-3.8a2.4,2.4,0,0,1,1.2.7,1.64,1.64,0,0,1,.2,1.2c-.3,2.6-4.9,24.2-8.2,31.8s-5.1,13.6-13.6,16.5Z" transform="translate(-239.91 -140.56)"/><path d="M794.7,191.1c-8.4-2.9-10.2-9-13.6-16.5s-7.9-29.2-8.2-31.8a1.28,1.28,0,0,1,.2-1.2,1.64,1.64,0,0,1,1.2-.7c4-1.3,8.2,1.4,11.5,3.8,13.5,10.8,19,37.3,19.6,41.8Z" transform="translate(-239.91 -140.56)"/><circle cx="559.59" cy="106.94" r="6.8"/><circle class="1cdba084-0894-452c-8fe9-2c1168d4d3c9" cx="556.89" cy="104.94" r="2.9"/><path class="1e8c8079-727e-4d44-80ca-3152f1601ca6" d="M828.1,253.5c2.1-4.4,5.3-8.5,9.7-10.7s10-2.2,13.8.8a14.47,14.47,0,0,1,3.4,4c1.6,2.6,3.8,7.1,3.7,7.4" transform="translate(-239.91 -140.56)"/><circle cx="602.39" cy="108.84" r="6.8"/><circle class="1cdba084-0894-452c-8fe9-2c1168d4d3c9" cx="599.69" cy="106.84" r="2.9"/><path class="1e8c8079-727e-4d44-80ca-3152f1601ca6" d="M815.2,265.9c-.1,2.1,2.1,4,4.7,4.4a6.57,6.57,0,0,0,5-1.3,4,4,0,0,0,1.3-3.1" transform="translate(-239.91 -140.56)"/><path class="1e8c8079-727e-4d44-80ca-3152f1601ca6" d="M805,280.2a12.13,12.13,0,0,0,3.2,2.2,26.5,26.5,0,0,0,19.9,2,21.3,21.3,0,0,0,3.5-1.4,23.22,23.22,0,0,0,4.9-4" transform="translate(-239.91 -140.56)"/><path class="2ab03cf3-1122-4898-93c3-3ac30a972cdc" d="M780.7,309.1c1.2,4.7.6,13.3,2.7,17.4s4.8,8,8.7,10.4c3.5,2.1,7.6,2.8,11.6,3.3,18.6,2.1,39.3-1.2,52.1-14.8a97.52,97.52,0,0,1,15.4-13.2c5.9,4.9,11.9,9.8,17.8,14.6a31.83,31.83,0,0,0-20.5,22.9c-1.7-.6-3.4-1.2-5.2-1.8-3.1,9.7-4.4,19.8-5.6,29.9-1,8.3-2.1,16.7-1,25.1a50.42,50.42,0,0,0,6.3,18.8c1.3,2.4,2.9,4.7,3.5,7.3s0,5.8-2.2,7.3a139.56,139.56,0,0,0-31.1,29.3c-1.3,1.7-2.7,3.5-4.6,4.3-2.9,1.2-6.3,0-9.1-1.6-15.5-8.7-24.4-26.2-39.9-34.8-2.4-1.3-5.3-3.1-5-5.8,1.3-14.7,2.6-29.4,3.9-44.2.2-2,.1-4.6-1.8-5.4a18.39,18.39,0,0,1-9.4-21.5c1.5-4.9,5.2-9.5,4.1-14.5a14.46,14.46,0,0,0-2.7-5.4c-2.7-4-8-10.1-10.9-14,3.9-4.2,10.3-8.8,14.2-12.9l5.1-.2Z" transform="translate(-239.91 -140.56)"/><path class="1e8c8079-727e-4d44-80ca-3152f1601ca6" d="M758,322.6c-9.9,6.3-18.1,15.1-27.9,21.4-4.4,2.8-9.2,6-11.1,10.9a16.31,16.31,0,0,0,.1,10.9,46,46,0,0,0,5,9.9c13.9,22.3,32.3,42.8,51.3,60.9" transform="translate(-239.91 -140.56)"/><path class="1e8c8079-727e-4d44-80ca-3152f1601ca6" d="M770.3,343.2c-8.2,4.7-16.5,9.5-24.7,14.2-1.7,1-3.6,2.1-4.3,4-.8,2.1.1,4.4,1,6.5a195.61,195.61,0,0,0,33.2,50.7" transform="translate(-239.91 -140.56)"/><path class="1e8c8079-727e-4d44-80ca-3152f1601ca6" d="M868.7,349.6c12.9,7.7,26.2,15.2,39.1,22.9,1.7,1,3.7,2.4,3.7,4.5,0,1.8-1.5,3.1-2.8,4.2-14.6,12-32.1,26.4-46.6,38.4" transform="translate(-239.91 -140.56)"/><path class="1e8c8079-727e-4d44-80ca-3152f1601ca6" d="M889.1,326.8c5.2.9,28.8,23.4,38.3,30.9,3.2,2.5,6.4,5,8.9,8.3a16.09,16.09,0,0,1,3.7,11.3c-.5,5.1-4.1,9.3-7.7,13A229,229,0,0,1,869,436.6" transform="translate(-239.91 -140.56)"/><path class="1e8c8079-727e-4d44-80ca-3152f1601ca6" d="M820.9,468.9c4.6,13.5,5.6,29.2,7.5,43.4s-2,28.8-.7,43.2c1,11.7,9.5,23.2,11.9,34.7,3.9,18.2,6.7,36.3,10.6,54.5" transform="translate(-239.91 -140.56)"/><path class="1e8c8079-727e-4d44-80ca-3152f1601ca6" d="M828.7,469.8c4.8,13.9,10.9,29,18.3,41.8,6.1,10.6,12.2,21.3,18.4,31.9,6.3,11,12.7,22,19.9,32.4,10.4,14.9,34.4,40.3,34.4,40.3a62.46,62.46,0,0,0,13.1,24.3c6.3,6.9,14.6,12,23.8,13.6,1.7.3,3.7.4,5.1-.6s1.7-2.7,1.9-4.4c1.1-8.9-2.6-18-8.9-24.5s-23.1-12-23.1-12a177.68,177.68,0,0,0-20.1-48c-4.5-7.4-9.5-14.5-13.1-22.4-6.1-13.4-7.7-28.4-10.8-42.8-4.5-20.9-10.8-48.5-20.7-67.5" transform="translate(-239.91 -140.56)"/><path class="1e8c8079-727e-4d44-80ca-3152f1601ca6" d="M926.3,631.7l15.1-15.4" transform="translate(-239.91 -140.56)"/><path class="1e8c8079-727e-4d44-80ca-3152f1601ca6" d="M939.6,646.7c6.5-7.5,10.6-12.2,17.1-19.7" transform="translate(-239.91 -140.56)"/><path d="M939.7,647.3c6.5-7.5,10.6-12.2,17.1-19.7,4.9,6.2,7.6,14.2,6.7,22-.2,1.6-.6,3.4-1.9,4.4s-3.3.9-5.1.6a38.41,38.41,0,0,1-16.8-7.3" transform="translate(-239.91 -140.56)"/><path class="1e8c8079-727e-4d44-80ca-3152f1601ca6" d="M824.6,636.5c4,.8,5.4.3,8.6,2.5a22.1,22.1,0,0,1,7.3,9,4.86,4.86,0,0,0,2.7,2.9c6,1.9,8.2-4.2,6.9-6.4" transform="translate(-239.91 -140.56)"/><path class="1e8c8079-727e-4d44-80ca-3152f1601ca6" d="M774.7,427.6c3.2,45.4,13.9,100.4,28.2,143.9,3.8,11.7,7.7,17.5,14.1,28,2.6,4.3,5.6,14.3,7.6,18.9s1.9,13.7,1.9,13.7a6.59,6.59,0,0,1-2.7,5.2,18.24,18.24,0,0,1-5.4,2.7c-3.1,1.2-9.6,3.6-9.6,3.6-3.4.4-7.5,4.1-8.2,7.5a8.49,8.49,0,0,0,3.9,8.9c3.1,1.9,7.1,1.5,10.7.7a51.27,51.27,0,0,0,18.3-8.2c-3.2-.9-5-4-7.4-6.2a16.67,16.67,0,0,0-15-3.6" transform="translate(-239.91 -140.56)"/><path d="M808.2,643.6c-3.4.4-7.5,4.1-8.2,7.5a8.49,8.49,0,0,0,3.9,8.9c3.1,1.9,7.1,1.5,10.7.7a51.27,51.27,0,0,0,18.3-8.2c-3.2-.9-5-4-7.4-6.2a16.67,16.67,0,0,0-15-3.6Z" transform="translate(-239.91 -140.56)"/><path class="1e8c8079-727e-4d44-80ca-3152f1601ca6" d="M833.4,652.6c3.1-1.1,6.2-.1,9.8-1.6" transform="translate(-239.91 -140.56)"/><path d="M816.2,280.4a5.1,5.1,0,0,1,4.9,1.8,3.55,3.55,0,0,1,3.2-1.8,5.08,5.08,0,0,1,3.9,1.1c.9.8.7,2.6.5,3.6-.3,1.8-.7,3.4-2.8,4.7-1.6,1-4,1.2-6.5.8a5.88,5.88,0,0,1-4-2.4C814.2,286.3,812.9,281,816.2,280.4Z" transform="translate(-239.91 -140.56)"/><path class="1cdba084-0894-452c-8fe9-2c1168d4d3c9" d="M1194.5,624.6c-6.2-6.5-23.1-12-23.1-12a177.68,177.68,0,0,0-20.1-48c-4.5-7.4-9.5-14.5-13.1-22.4-6.1-13.4-7.7-28.4-10.8-42.8-4.2-19.3-9.8-44.2-18.4-62.9a229.71,229.71,0,0,0,63.1-46.2c3.6-3.7,7.2-7.9,7.7-13a16.09,16.09,0,0,0-3.7-11.3c-2.5-3.3-5.7-5.8-8.9-8.3-9.5-7.5-33.1-30-38.3-30.9h-.1c-5.9-4.8-11.9-9.7-17.8-14.6l-1.9-1.4c-11.7,1.3-25.1-.7-34.1-6.5v-.1c-9.2,3.8-19.8,1.9-28.6-3.1l-.1.2c-7.5,4.1-18.1,7.2-28.4,8.2l-1,.1-1.9.1a28.25,28.25,0,0,0,2.9-.2l2.6-.4-8.7.7h0c-3.9,4.1-10.3,8.7-14.2,12.9l.2-.1c-9.9,6.3-18.1,15.1-27.9,21.4-4.4,2.8-9.2,6-11.1,10.9a16.31,16.31,0,0,0,.1,10.9,46,46,0,0,0,5,9.9c13.9,22.3,32.3,42.8,51.3,60.9h0c3.9,43.5,14.1,94.2,27.5,134.9,3.8,11.7,7.7,17.5,14.1,28,2.6,4.3,5.6,14.3,7.6,18.9s1.9,13.7,1.9,13.7a6.59,6.59,0,0,1-2.7,5.2,18.24,18.24,0,0,1-5.4,2.7c-3.1,1.2-9.6,3.6-9.6,3.6-3.4.4-7.5,4.1-8.2,7.5a8.49,8.49,0,0,0,3.9,8.9c3.1,1.9,7.1,1.5,10.7.7a51.27,51.27,0,0,0,18.3-8.2l-.1.1c3.1-1.1,6.2-.1,9.8-1.6v-.1c5.8,1.8,8.1-3.9,7-6.2-3.9-18.2-6.7-36.3-10.6-54.5-2.4-11.5-10.9-23-11.9-34.7-1.3-14.4,2.6-28.9.7-43.2-1.9-14.1-2.9-29.8-7.5-43.2,2.5,1.2,5.2,1.8,7.7.8l.1-.1c4.8,13.9,10.9,29,18.3,41.8,6.1,10.6,12.2,21.3,18.4,31.9,6.3,11,12.7,22,19.9,32.4,10.4,14.9,34.4,40.3,34.4,40.3a62.46,62.46,0,0,0,13.1,24.3c6.3,6.9,14.6,12,23.8,13.6,1.7.3,3.7.4,5.1-.6s1.7-2.7,1.9-4.4C1204.5,640.2,1200.8,631.1,1194.5,624.6ZM1018.3,383.5c-1,11.7-2.1,23.4-3.1,35a194.72,194.72,0,0,1-33.1-50.6c-.9-2.1-1.8-4.4-1-6.5.7-1.9,2.6-3,4.3-4,8.2-4.7,16.5-9.5,24.7-14.2l1.1-1.1c1.1,5-2.6,9.6-4.1,14.5a18.39,18.39,0,0,0,9.4,21.5C1018.4,378.9,1018.5,381.5,1018.3,383.5Zm83.6,36.1-.2.1a50.47,50.47,0,0,1-5.2-16.8c-1.1-8.4,0-16.8,1-25.1,1.2-10.1,2.5-20.2,5.6-29.9,1.8.6,5.4,1.7,5.4,1.7,12.9,7.7,26.2,15.2,39.1,22.9,1.7,1,3.7,2.4,3.7,4.5,0,1.8-1.5,3.1-2.8,4.2C1133.9,393.2,1116.4,407.6,1101.9,419.6Z" transform="translate(-239.91 -140.56)"/><path class="1cdba084-0894-452c-8fe9-2c1168d4d3c9" d="M1046.6,301.3c8.8,5,19.4,6.9,28.6,3.1v.1c14.4,9.3,40,8.9,52,.5a6.3,6.3,0,0,0,2.1-2.2,8.08,8.08,0,0,0,.5-2.7c.2-5.9.4-11.9.7-17.8.6-15,1.1-30.1-1.1-45s-7.4-29.6-17-41.1a62.07,62.07,0,0,0-46.1-21.7s-36.5-2-53.9,25.4a102.72,102.72,0,0,0-10.3,21.7c-7,21-9.5,43.4-8.8,65.5l.1,2.4a77.15,77.15,0,0,0,2.4,17.9c14.2,5.6,37.4,1.4,50.7-5.9" transform="translate(-239.91 -140.56)"/><path class="1e8c8079-727e-4d44-80ca-3152f1601ca6" d="M1031.5,194.3c1,10,2.4,17.2-2.4,25.3s-12.4,14.1-18.5,21.2a73.89,73.89,0,0,0-15,66.4c14.2,5.6,37.4,1.4,50.7-5.9" transform="translate(-239.91 -140.56)"/><path class="1e8c8079-727e-4d44-80ca-3152f1601ca6" d="M1075,304.3c14.4,9.3,40,8.9,52,.5a6.3,6.3,0,0,0,2.1-2.2,8.08,8.08,0,0,0,.5-2.7c.2-5.9.4-11.9.7-17.8.6-15,1.1-30.1-1.1-45s-7.4-29.6-17-41.1a62.07,62.07,0,0,0-46.1-21.7s-36.5-2-53.9,25.4a102.72,102.72,0,0,0-10.3,21.7c-7,21-9.5,43.4-8.8,65.5" transform="translate(-239.91 -140.56)"/><path class="1e8c8079-727e-4d44-80ca-3152f1601ca6" d="M1031.5,194.3c5.2,11.4,8.9,19.2,18.8,26.8,6.9,5.2,15.3,7.8,23.6,10.1A126.66,126.66,0,0,0,1092,235a76.54,76.54,0,0,1,10.7,1.5,29.62,29.62,0,0,1,20,16.8c4.3,9.8,1.8,19.9,7.6,28.8" transform="translate(-239.91 -140.56)"/><path class="1e8c8079-727e-4d44-80ca-3152f1601ca6" d="M1007.6,244.7a48.91,48.91,0,0,0,4.1,10.8c2.1,3.8,4.3,7.6,6.4,11.4,6.1,10.9,12.5,22,22.1,29.9s23.3,12.2,34.8,7.4c4.6-1.9,8.5-5.2,12.2-8.6a118,118,0,0,0,30.7-49.4" transform="translate(-239.91 -140.56)"/><path class="c78b6913-aed1-4c8a-8a1e-66540c246bdf" d="M1014.7,213.5c9.6-15,16.8-27.9,48.7-27.7,33.4.1,42.6,16.6,53.3,32.4" transform="translate(-239.91 -140.56)"/><path class="1e8c8079-727e-4d44-80ca-3152f1601ca6" d="M1028.1,254.9a37.26,37.26,0,0,1-3-3.2c2.1-4.4,5.3-8.5,9.7-10.7s10-2.2,13.8.8a14.47,14.47,0,0,1,3.4,4,44.21,44.21,0,0,1,3.7,9.4" transform="translate(-239.91 -140.56)"/><path d="M1085.9,187.7c.6-4.4,6.2-31,19.6-41.8,3.3-2.4,7.5-5,11.5-3.8a2.4,2.4,0,0,1,1.2.7,1.64,1.64,0,0,1,.2,1.2c-.3,2.6-4.9,24.2-8.2,31.8s-5.1,13.6-13.6,16.5Z" transform="translate(-239.91 -140.56)"/><path d="M1034.5,191.1c-8.4-2.9-10.2-9-13.6-16.5s-7.9-29.2-8.2-31.8a1.28,1.28,0,0,1,.2-1.2,1.64,1.64,0,0,1,1.2-.7c4-1.3,8.2,1.4,11.5,3.8,13.5,10.8,19,37.3,19.6,41.8Z" transform="translate(-239.91 -140.56)"/><circle cx="799.39" cy="106.94" r="6.8"/><circle class="1cdba084-0894-452c-8fe9-2c1168d4d3c9" cx="796.69" cy="104.94" r="2.9"/><path class="1e8c8079-727e-4d44-80ca-3152f1601ca6" d="M1067.9,253.5c2.1-4.4,5.3-8.5,9.7-10.7s10-2.2,13.8.8a14.47,14.47,0,0,1,3.4,4c1.6,2.6,3.8,7.1,3.7,7.4" transform="translate(-239.91 -140.56)"/><circle cx="842.19" cy="108.84" r="6.8"/><circle class="1cdba084-0894-452c-8fe9-2c1168d4d3c9" cx="839.49" cy="106.84" r="2.9"/><path class="1e8c8079-727e-4d44-80ca-3152f1601ca6" d="M1055,265.9c-.1,2.1,2.1,4,4.7,4.4a6.57,6.57,0,0,0,5-1.3,4,4,0,0,0,1.3-3.1" transform="translate(-239.91 -140.56)"/><path class="1e8c8079-727e-4d44-80ca-3152f1601ca6" d="M1044.8,280.2a12.13,12.13,0,0,0,3.2,2.2,26.5,26.5,0,0,0,19.9,2,21.3,21.3,0,0,0,3.5-1.4,23.22,23.22,0,0,0,4.9-4" transform="translate(-239.91 -140.56)"/><path class="2ab03cf3-1122-4898-93c3-3ac30a972cdc" d="M1020.5,309.1c1.2,4.7.6,13.3,2.7,17.4s4.8,8,8.7,10.4c3.5,2.1,7.6,2.8,11.6,3.3,18.6,2.1,39.3-1.2,52.1-14.8a97.52,97.52,0,0,1,15.4-13.2c5.9,4.9,11.9,9.8,17.8,14.6a31.83,31.83,0,0,0-20.5,22.9c-1.7-.6-3.4-1.2-5.2-1.8-3.1,9.7-4.4,19.8-5.6,29.9-1,8.3-2.1,16.7-1,25.1a50.42,50.42,0,0,0,6.3,18.8c1.3,2.4,2.9,4.7,3.5,7.3s0,5.8-2.2,7.3a139.56,139.56,0,0,0-31.1,29.3c-1.3,1.7-2.7,3.5-4.6,4.3-2.9,1.2-6.3,0-9.1-1.6-15.5-8.7-24.4-26.2-39.9-34.8-2.4-1.3-5.3-3.1-5-5.8,1.3-14.7,2.6-29.4,3.9-44.2.2-2,.1-4.6-1.8-5.4a18.39,18.39,0,0,1-9.4-21.5c1.5-4.9,5.2-9.5,4.1-14.5a14.46,14.46,0,0,0-2.7-5.4c-2.7-4-8-10.1-10.9-14,3.9-4.2,10.3-8.8,14.2-12.9l5.1-.2Z" transform="translate(-239.91 -140.56)"/><path class="1e8c8079-727e-4d44-80ca-3152f1601ca6" d="M997.8,322.6c-9.9,6.3-18.1,15.1-27.9,21.4-4.4,2.8-9.2,6-11.1,10.9a16.31,16.31,0,0,0,.1,10.9,46,46,0,0,0,5,9.9c13.9,22.3,32.3,42.8,51.3,60.9" transform="translate(-239.91 -140.56)"/><path class="1e8c8079-727e-4d44-80ca-3152f1601ca6" d="M1010.1,343.2c-8.2,4.7-16.5,9.5-24.7,14.2-1.7,1-3.6,2.1-4.3,4-.8,2.1.1,4.4,1,6.5a195.61,195.61,0,0,0,33.2,50.7" transform="translate(-239.91 -140.56)"/><path class="1e8c8079-727e-4d44-80ca-3152f1601ca6" d="M1108.5,349.6c12.9,7.7,26.2,15.2,39.1,22.9,1.7,1,3.7,2.4,3.7,4.5,0,1.8-1.5,3.1-2.8,4.2-14.6,12-32.1,26.4-46.6,38.4" transform="translate(-239.91 -140.56)"/><path class="1e8c8079-727e-4d44-80ca-3152f1601ca6" d="M1128.9,326.8c5.2.9,28.8,23.4,38.3,30.9,3.2,2.5,6.4,5,8.9,8.3a16.09,16.09,0,0,1,3.7,11.3c-.5,5.1-4.1,9.3-7.7,13a229,229,0,0,1-63.3,46.3" transform="translate(-239.91 -140.56)"/><path class="1e8c8079-727e-4d44-80ca-3152f1601ca6" d="M1060.7,468.9c4.6,13.5,5.6,29.2,7.5,43.4s-2,28.8-.7,43.2c1,11.7,9.5,23.2,11.9,34.7,3.9,18.2,6.7,36.3,10.6,54.5" transform="translate(-239.91 -140.56)"/><path class="1e8c8079-727e-4d44-80ca-3152f1601ca6" d="M1068.5,469.8c4.8,13.9,10.9,29,18.3,41.8,6.1,10.6,12.2,21.3,18.4,31.9,6.3,11,12.7,22,19.9,32.4,10.4,14.9,34.4,40.3,34.4,40.3a62.46,62.46,0,0,0,13.1,24.3c6.3,6.9,14.6,12,23.8,13.6,1.7.3,3.7.4,5.1-.6s1.7-2.7,1.9-4.4c1.1-8.9-2.6-18-8.9-24.5s-23.1-12-23.1-12a177.68,177.68,0,0,0-20.1-48c-4.5-7.4-9.5-14.5-13.1-22.4-6.1-13.4-7.7-28.4-10.8-42.8-4.5-20.9-10.8-48.5-20.7-67.5" transform="translate(-239.91 -140.56)"/><path class="1e8c8079-727e-4d44-80ca-3152f1601ca6" d="M1166.1,631.7l15.1-15.4" transform="translate(-239.91 -140.56)"/><path class="1e8c8079-727e-4d44-80ca-3152f1601ca6" d="M1179.4,646.7c6.5-7.5,10.6-12.2,17.1-19.7" transform="translate(-239.91 -140.56)"/><path d="M1179.5,647.3c6.5-7.5,10.6-12.2,17.1-19.7,4.9,6.2,7.6,14.2,6.7,22-.2,1.6-.6,3.4-1.9,4.4s-3.3.9-5.1.6a38.41,38.41,0,0,1-16.8-7.3" transform="translate(-239.91 -140.56)"/><path class="1e8c8079-727e-4d44-80ca-3152f1601ca6" d="M1064.4,636.5c4,.8,5.4.3,8.6,2.5a22.1,22.1,0,0,1,7.3,9,4.86,4.86,0,0,0,2.7,2.9c6,1.9,8.2-4.2,6.9-6.4" transform="translate(-239.91 -140.56)"/><path class="1e8c8079-727e-4d44-80ca-3152f1601ca6" d="M1014.5,427.6c3.2,45.4,13.9,100.4,28.2,143.9,3.8,11.7,7.7,17.5,14.1,28,2.6,4.3,5.6,14.3,7.6,18.9s1.9,13.7,1.9,13.7a6.59,6.59,0,0,1-2.7,5.2,18.24,18.24,0,0,1-5.4,2.7c-3.1,1.2-9.6,3.6-9.6,3.6-3.4.4-7.5,4.1-8.2,7.5a8.49,8.49,0,0,0,3.9,8.9c3.1,1.9,7.1,1.5,10.7.7a51.27,51.27,0,0,0,18.3-8.2c-3.2-.9-5-4-7.4-6.2a16.67,16.67,0,0,0-15-3.6" transform="translate(-239.91 -140.56)"/><path d="M1048,643.6c-3.4.4-7.5,4.1-8.2,7.5a8.49,8.49,0,0,0,3.9,8.9c3.1,1.9,7.1,1.5,10.7.7a51.27,51.27,0,0,0,18.3-8.2c-3.2-.9-5-4-7.4-6.2a16.67,16.67,0,0,0-15-3.6Z" transform="translate(-239.91 -140.56)"/><path class="1e8c8079-727e-4d44-80ca-3152f1601ca6" d="M1073.2,652.6c3.1-1.1,6.2-.1,9.8-1.6" transform="translate(-239.91 -140.56)"/><path d="M1056,280.4a5.1,5.1,0,0,1,4.9,1.8,3.55,3.55,0,0,1,3.2-1.8,5.08,5.08,0,0,1,3.9,1.1c.9.8.7,2.6.5,3.6-.3,1.8-.7,3.4-2.8,4.7-1.6,1-4,1.2-6.5.8a5.88,5.88,0,0,1-4-2.4C1054,286.3,1052.7,281,1056,280.4Z" transform="translate(-239.91 -140.56)"/></svg>