<svg id="ab5025a5-d01d-4cbd-8a1a-ff6f36843b9f" data-name="Calque 1" xmlns="http://www.w3.org/2000/svg" width="1308.2" height="376.07" viewBox="0 0 1308.2 376.07"><defs><style>.\30 f581c1a-198c-4759-a0ca-c3d579cd72dc,.\35 acad75c-99c3-4a99-b5c3-42c75e20b9e4,.ef2ef85e-5795-4f94-9f9b-02aebdbac970{fill:#fff;}.\32 875525e-14d6-4486-a501-2aa7d4439b1c{fill:none;stroke-width:0.95px;}.\30 f581c1a-198c-4759-a0ca-c3d579cd72dc,.\32 875525e-14d6-4486-a501-2aa7d4439b1c,.\35 acad75c-99c3-4a99-b5c3-42c75e20b9e4{stroke:#000116;stroke-miterlimit:10;}.\35 acad75c-99c3-4a99-b5c3-42c75e20b9e4{stroke-width:0.95px;}</style></defs><title>good-bye</title><path class="ef2ef85e-5795-4f94-9f9b-02aebdbac970" d="M179.76,268.89C221.64,314.74,205,341.14,146.2,313c-20.88,37.59-46.12,51.06-67.12,45-20.63-6.19-37-32-31.44-75.28-39.56-18-53.51-45.41-44.54-68,8.63-22.38,40.18-40,83.94-32.41,34.43-71.65,84-65.68,77,2.92,38.72-43.91,19.86-20.47-10.35,14.07C149,141.32,115.24,140.81,93,195.55,27.36,182,3.57,241.46,65,273.34c-4.86,68.12,45.46,84.91,75.53,26.19,62.22,15.41,73.9-20.93,26.52-59.53,37.65-5.91-48.2,31.13-50.57,22.71,2.61,9.34-7.52-11.85-5.93-12.46-2.11-1.06,115.79-50.09,68.77-30.25,47.74-18.69,87.31,92.33,25.93,64.15,61.67,28.08,42.67,35-11.51,4.72C247.89,319.35,225.45,284.42,179.76,268.89Z"/><path class="2875525e-14d6-4486-a501-2aa7d4439b1c" d="M179.76,268.89C221.64,314.74,205,341.14,146.2,313c-20.88,37.59-46.12,51.06-67.12,45-20.63-6.19-37-32-31.44-75.28-39.56-18-53.51-45.41-44.54-68,8.63-22.38,40.18-40,83.94-32.41,34.43-71.65,84-65.68,77,2.92,38.72-43.91,19.86-20.47-10.35,14.07C149,141.32,115.24,140.81,93,195.55,27.36,182,3.57,241.46,65,273.34c-4.86,68.12,45.46,84.91,75.53,26.19,62.22,15.41,73.9-20.93,26.52-59.53,37.65-5.91-48.2,31.13-50.57,22.71,2.61,9.34-7.52-11.85-5.93-12.46-2.11-1.06,115.79-50.09,68.77-30.25,47.74-18.69,87.31,92.33,25.93,64.15,61.67,28.08,42.67,35-11.51,4.72C247.89,319.35,225.45,284.42,179.76,268.89Z"/><path class="ef2ef85e-5795-4f94-9f9b-02aebdbac970" d="M667.52,60.72c-46-49.12,34.31-48.21,45.41,1.54,36-22.6,69.88-20.45,86.08-4.59,16.55,16,15.45,45.63-10.44,80.08,16.86,39.82,9.06,68.3-8.21,80.34-17.62,12.05-44.71,7.67-74.5-18-14.4,47.27-80.72,46.58-40.64-1.38C625.56,247,621.16,12,667.52,60.72Zm101.88,75c37.48-60-5.09-94.53-58.46-58.93-12.24-39.05-54.69-40-24.19-1-30.74-39-32.08,146.33-3.44,108.76-28.89,37.48,7.64,38.32,22.17.91C748.28,225.82,791.06,202.29,769.4,135.69Z"/><path class="2875525e-14d6-4486-a501-2aa7d4439b1c" d="M667.52,60.72c-46-49.12,34.31-48.21,45.41,1.54,36-22.6,69.88-20.45,86.08-4.59,16.55,16,15.45,45.63-10.44,80.08,16.86,39.82,9.06,68.3-8.21,80.34-17.62,12.05-44.71,7.67-74.5-18-14.4,47.27-80.72,46.58-40.64-1.38C625.56,247,621.16,12,667.52,60.72Zm101.88,75c37.48-60-5.09-94.53-58.46-58.93-12.24-39.05-54.69-40-24.19-1-30.74-39-32.08,146.33-3.44,108.76-28.89,37.48,7.64,38.32,22.17.91C748.28,225.82,791.06,202.29,769.4,135.69Z"/><path class="ef2ef85e-5795-4f94-9f9b-02aebdbac970" d="M862,78.45c-34.28-55.27,71-36.9,59.43,11.33,65.2-35.33,93.71-1.9,42.44,44.21,34.75,12.26,9.31,21.17-34.26,22.87,45.86,16.84,64.09,39.38,23.4,41.52,19.82,69.74-24.87,83.62-60.13,26.41-9.29,46.64-96.91,31.37-53.6-10.23C796.14,256.91,827.34,24,862,78.45Zm10.4,48.83c-27.07,10.68,35.47,22.4,37.14,7.32,29.14,22.12,55.71,18.09,37.68-14.1,31.46-19.8,9-36.91-28.49-29.09,5-15.26-61.34-27.69-38.44-7.58C857.29,64.06,845.33,138.3,872.4,127.28Zm-14.83,86.8c-27.67,13.58,28.59,24,33.52,6.62,28.92,25,59.22,21.09,42.73-17.1,33.41-25.39,7.16-44.7-31.81-34.19,2.81-18.65-57.82-29.92-35-6.92C844.06,139.78,829.93,227.95,857.56,214.08Z"/><path class="2875525e-14d6-4486-a501-2aa7d4439b1c" d="M862,78.45c-34.28-55.27,71-36.9,59.43,11.33,65.2-35.33,93.71-1.9,42.44,44.21,34.75,12.26,9.31,21.17-34.26,22.87,45.86,16.84,64.09,39.38,23.4,41.52,19.82,69.74-24.87,83.62-60.13,26.41-9.29,46.64-96.91,31.37-53.6-10.23C796.14,256.91,827.34,24,862,78.45Zm10.4,48.83c-27.07,10.68,35.47,22.4,37.14,7.32,29.14,22.12,55.71,18.09,37.68-14.1,31.46-19.8,9-36.91-28.49-29.09,5-15.26-61.34-27.69-38.44-7.58C857.29,64.06,845.33,138.3,872.4,127.28Zm-14.83,86.8c-27.67,13.58,28.59,24,33.52,6.62,28.92,25,59.22,21.09,42.73-17.1,33.41-25.39,7.16-44.7-31.81-34.19,2.81-18.65-57.82-29.92-35-6.92C844.06,139.78,829.93,227.95,857.56,214.08Z"/><path class="ef2ef85e-5795-4f94-9f9b-02aebdbac970" d="M1040.71,207c-4.22,3-16.63-35.14-26.18-66.69-9.21-31.55-15.55-56.46.09-26.89-31.27-59.14,5.56-49.19,20.71,6.25-14.33-55.29,17.54,58.73,17.09,67-.92-8.22,1.17,1.36,1.57,10.76,6.14-7.13,13.72-13.36,7.9-7.47,4.67-6.76,100.63-76.41,55-41.94,46.39-34.07,81.88-18.88,20.26,8,59.85-28.23-77.62,65.84-78.68,57.2,3.31,10.45-29.46,101-19,53.31-10.54,47.63-38.17,38-16.94-5.88C1001.27,304.54,1031.65,213.12,1040.71,207Z"/><path class="2875525e-14d6-4486-a501-2aa7d4439b1c" d="M1040.71,207c-4.22,3-16.63-35.14-26.18-66.69-9.21-31.55-15.55-56.46.09-26.89-31.27-59.14,5.56-49.19,20.71,6.25-14.33-55.29,17.54,58.73,17.09,67-.92-8.22,1.17,1.36,1.57,10.76,6.14-7.13,13.72-13.36,7.9-7.47,4.67-6.76,100.63-76.41,55-41.94,46.39-34.07,81.88-18.88,20.26,8,59.85-28.23-77.62,65.84-78.68,57.2,3.31,10.45-29.46,101-19,53.31-10.54,47.63-38.17,38-16.94-5.88C1001.27,304.54,1031.65,213.12,1040.71,207Z"/><path class="ef2ef85e-5795-4f94-9f9b-02aebdbac970" d="M1175.7,172.19c-8-29.81,30.86-26.74,63.62-10.43,32.91,15.87,59.74,45,31.31,57,56.42-24.19,44-2.68-6.94,12.83,51.89-17.09-80.54-84.14-75.66-37.81-5.33-44.38-35.9,25.42-18.68,40.66-16.85-16.79,98.3,40.88,67.34,33.43,30.44,8.86,18.19,30.47-6.87,12.87,25.59,16.22-87.27-40.3-66.56-33-21.35-5.86-55.15,71.32-20.66,45-33.72,24.79,81.15,83,69.9,35,11,49.82-1.45,71.31-6.95,12.83,2.56,29.15-30.27,24.41-58.46,10.8-28.06-14-51.5-36.84-27.06-52.76C1071.19,330.25,1159.76,112.57,1175.7,172.19Z"/><path class="2875525e-14d6-4486-a501-2aa7d4439b1c" d="M1175.7,172.19c-8-29.81,30.86-26.74,63.62-10.43,32.91,15.87,59.74,45,31.31,57,56.42-24.19,44-2.68-6.94,12.83,51.89-17.09-80.54-84.14-75.66-37.81-5.33-44.38-35.9,25.42-18.68,40.66-16.85-16.79,98.3,40.88,67.34,33.43,30.44,8.86,18.19,30.47-6.87,12.87,25.59,16.22-87.27-40.3-66.56-33-21.35-5.86-55.15,71.32-20.66,45-33.72,24.79,81.15,83,69.9,35,11,49.82-1.45,71.31-6.95,12.83,2.56,29.15-30.27,24.41-58.46,10.8-28.06-14-51.5-36.84-27.06-52.76C1071.19,330.25,1159.76,112.57,1175.7,172.19Z"/><path id="13678378-b137-4505-acbe-5c316d36130c" data-name="&lt;Tracé&gt;" class="0f581c1a-198c-4759-a0ca-c3d579cd72dc" d="M342.25,236.77c-20.71,7.67,10.08,48.06-33.48,67.42-13.83,6.15-50.33-15.09-53.79-41.3-11.56-1.4-23.46-2.78-34.72.2-9.42,2.49-19.33,16.31-19.33,16.31s-2.71.34-6.19-3.38c-14.2-15.15,2.4-42.37,19.58-48,9.94-3.26,20.27-5,30.37-1.89,11,3.41,12.62,7.52,19.39,15.91-4.5-9.05,9.14-63.51,47.95-24.31"/><path id="c53504a7-48bb-4816-af47-7dc5019c7157" data-name="&lt;Tracé&gt;" class="5acad75c-99c3-4a99-b5c3-42c75e20b9e4" d="M262.24,212.64c-9.67-21.66-19.51-43.72-24.51-67-2.31-10.76-10.38-50.54.27-58.13s33.68,70.67,39.51,80c-3.09-5.38-4.28-9-5.74-15.72-5.93-27.29-13.3-48.86-12.12-77.1.23-5.53.24-18.53,6.54-21.13,10.11-4.18,16.38,19.83,18.31,26.28,3.71,12.41,6,23.55,8.66,36.29,2.18,10.55,3,13.12,9.81,35.28,1.23.56-4.08-30-1.83-16.27-3.27-20-7.52-75-1.8-79.46,6.07.8,17.19,24.76,18.6,30.82a530.45,530.45,0,0,1,11,65.06c-1-9.94,1.87-22.24,4.92-31.71,5.32-16.51,12.64-15.18,15.51,2.37,2.72,16.64.79,44.19,5.86,59.36,8.9,26.61,24.05,40.29,14.22,70.39-2.44,7.47-7.46,14.56-14.61,17.52-4.64,1.92-9.75,2-14.62,1.39"/><path id="32fba489-0c10-41de-bf81-bfe125b62cc1" data-name="&lt;Tracé&gt;" class="0f581c1a-198c-4759-a0ca-c3d579cd72dc" d="M274,186.2c15.23-15.62,40.43-20.49,60.39-11.68"/><path id="c09822fa-3ae0-4bbc-ae2b-d6207ad06f6b" data-name="&lt;Tracé&gt;" class="0f581c1a-198c-4759-a0ca-c3d579cd72dc" d="M460.94,188.61c-20.19,5.15,4.73,46.09-38.06,60-13.58,4.4-45.73-19.12-46.4-44.05-10.71-2.45-21.74-4.92-32.59-3.23-9.08,1.41-19.74,13.4-19.74,13.4s-2.58,0-5.48-3.78c-11.83-15.62,6.42-39.52,23.1-43.12,9.65-2.08,19.51-2.72,28.69,1.21,10,4.28,11.1,8.3,16.63,16.84-3.33-8.93,14.84-58.69,47.38-18.08"/><path id="d1956ae9-2c54-400a-8a47-23c89ffee6ae" data-name="&lt;Tracé&gt;" class="5acad75c-99c3-4a99-b5c3-42c75e20b9e4" d="M388.24,158.1c-6.94-21.28-14-42.94-16.4-65.3-1.11-10.32-4.76-48.44,6-54.51s24.64,69.63,29.19,78.93c-2.36-5.35-3.13-8.87-3.84-15.32-2.88-26.19-7.66-47.15-3.78-73.53.76-5.16,2.05-17.36,8.22-19.19C417.51,6.25,421,29.4,422.2,35.64c2.26,12,3.33,22.69,4.55,34.9,1,10.11,1.54,12.61,5.73,34.07,1.1.65-.87-28.59-.11-15.44-1.1-19.09.33-71.08,6.14-74.74,5.61,1.35,13.69,24.92,14.41,30.75a500.45,500.45,0,0,1,3.92,62.13c0-9.43,3.94-20.69,7.74-29.27,6.61-15,13.35-13,14.32,3.75.92,15.88-3.61,41.54-.35,56.27,5.73,25.85,18.6,40.17,6.41,67.45-3,6.77-8.44,12.92-15.44,15-4.54,1.35-9.34.88-13.85-.14"/><path id="13e9da4f-ba90-47f6-95df-decbc8f6d214" data-name="&lt;Tracé&gt;" class="0f581c1a-198c-4759-a0ca-c3d579cd72dc" d="M401.91,134.44c15.83-13.16,40-15.25,57.82-5"/><path id="0e596f9a-21b1-4a72-a17b-202482e15cba" data-name="&lt;Tracé&gt;" class="0f581c1a-198c-4759-a0ca-c3d579cd72dc" d="M579.42,187c-20.84.23-6.3,45.9-51.15,49.26-14.24,1.07-39.92-29.39-34.67-53.77-9.83-4.92-20-9.92-30.91-10.85-9.16-.77-22.35,8.35-22.35,8.35s-2.52-.56-4.43-5c-7.8-18,15.58-36.88,32.64-36.44,9.86.26,19.6,2,27.59,8,8.69,6.52,8.83,10.69,12.18,20.29-1.12-9.47,28.29-53.52,50.31-6.37"/><path id="17467832-6e8c-4580-971d-15bf00f68369" data-name="&lt;Tracé&gt;" class="ef2ef85e-5795-4f94-9f9b-02aebdbac970" d="M516,140.13c-1.71-22.32-3.45-45-.5-67.33,1.36-10.29,6.83-48.19,18.7-51.55s7.48,73.48,9.7,83.59c-1-5.76-.95-9.35-.11-15.79,3.39-26.13,3.7-47.63,13.71-72.34C559.46,11.87,563.6.32,570,0c10.31-.51,8.26,22.82,7.92,29.16-.65,12.2-2.13,22.83-3.83,35-1.41,10.06-1.48,12.61-2.49,34.45.92.89,5.91-28,3.54-15,3.44-18.81,17.12-69,23.63-71.17,5.13,2.64,7.41,27.45,6.73,33.28A500.45,500.45,0,0,1,594.65,107c2.24-9.16,8.72-19.17,14.43-26.61,10-13,16-9.47,13,7-2.86,15.65-13.33,39.51-13.64,54.6-.55,26.47,8.58,43.43-9.72,67.05-4.54,5.86-11.25,10.56-18.55,10.92-4.73.23-9.28-1.35-13.43-3.41"/><path id="0d6a63cf-2d39-4a7b-8499-5102444288aa" data-name="&lt;Tracé&gt;" class="0f581c1a-198c-4759-a0ca-c3d579cd72dc" d="M534.87,120.38c18.49-9,42.43-5.37,57.36,8.8"/></svg>