<svg id="701ed533-9ea5-4a26-83bb-d27a1f297270" data-name="929a63f3-9ae3-4ac3-aaf2-1ac0400b1715" xmlns="http://www.w3.org/2000/svg" width="737" height="214.92" viewBox="0 0 737 214.92"><defs><style>.c43fd17b-1c2e-4972-a2fe-94ed9ebb1755{fill:#fff;}.\33 417a65c-5f0e-4cca-af67-7c8819c994d4{fill:#000116;}</style></defs><title>goodbye</title><path class="c43fd17b-1c2e-4972-a2fe-94ed9ebb1755" d="M88.8,375.47c-11.69,21.11-25.84,28.7-37.63,25.3-11.58-3.46-20.8-17.9-17.71-42.22C11.24,348.5,3.38,333.11,8.4,320.4c4.83-12.57,22.52-22.47,47.08-18.26,19.26-40.24,47.06-36.93,43.22,1.57,21.69-24.68,14.22-8.45-5.8,7.91-2.66-32.5-21.62-32.76-34.05-2C22,302.06,8.69,335.44,43.21,353.28c-2.67,38.24,25.59,47.61,42.42,14.63,34.93,8.6,41.46-11.81,14.83-33.43,21.13-3.35-27,17.51-28.36,12.79,1.48,5.24-4.23-6.65-3.34-7-1.18-.59,33.72-15.05,38.57-17,26.78-10.53,49.08,51.75,14.61,36C139.56,369.36,121.84,391.21,88.8,375.47Z" transform="translate(-6.4 -187.14)"/><path class="3417a65c-5f0e-4cca-af67-7c8819c994d4" d="M56.68,402.06a20.35,20.35,0,0,1-5.66-.8c-10.4-3.11-21.35-16.07-18.12-42.4-20.71-9.49-30.51-24.63-25-38.64,2.55-6.63,8.37-12.21,16.41-15.7,8.78-3.82,19.44-4.83,30.85-2.94,9.7-20.09,22.62-31.18,33-28.28,3.15.88,13.07,5.55,11.18,28.92,5.12-5.77,11.07-12,12.48-11.64a.66.66,0,0,1,.49.51c.39,1.78-8,11.87-19.09,20.93l-.75.61-.08-1c-1.16-14.16-5.66-23.2-12-24.18-7-1.06-15,7.49-21,22.31l-.16.39-.41-.08c-19.18-3.92-30.95,3.35-34.11,12.3-2.85,8.08.37,20.89,18.82,30.43l.3.15,0,.33C42.48,371.06,48.09,384.3,58,387c9.34,2.59,19.75-4.83,27.16-19.37l.18-.36.39.1c15.29,3.76,26.36,2.11,29.61-4.42,3.15-6.32-1.44-15.85-12-25.39-5.8,3.65-18.61,8.63-25.16,10.21a13.62,13.62,0,0,1-5.33.56c0,.35-.09.61-.41.71-1.22.37-3.84-6.75-3.87-6.82-.36-1-.54-1.75-.35-2.15s1.23-1.4,17.82-8.5c9.36-4,19-8,21.08-8.84,8.76-3.44,18.35.48,25.67,10.5,7.88,10.8,8.82,21.86,5.18,26.32-1.76,2.15-5.31,4-12.47,1.6,3.83,3.52,4.94,8,2.77,12.13-4.35,8.29-19.56,12-39.29,2.8C79.69,392.78,68,402.06,56.68,402.06ZM44.89,301.75c-15.56,0-31,5.83-36,18.83-5.34,13.55,4.39,28.27,24.79,37.5l.34.15,0,.37c-3.3,25.95,7.28,38.66,17.35,41.67,12.51,3.61,26.36-5.76,37-25.06l.23-.42L89,375c21.71,10.34,35.07,4.17,38.38-2.16,2.46-4.69.27-9.75-5.71-13.19l.46-.9c7.24,3.31,12.45,3.38,15.05.19,3.81-4.66,1.47-15.91-5.22-25.07-7-9.62-16.17-13.42-24.46-10.16-8.84,3.62-33.87,14.1-37.87,16.44l.37.19-.85.32A33.17,33.17,0,0,0,72,347.31l.63-.18h0c0,.16.5.41,1.88.3,6.77-.5,21.87-6.87,28.09-10.53q-1.16-1-2.41-2l-.88-.72,1.13-.18c4-.63,5.72-.47,5.92.57.12.63-.67,1.49-2.09,2.48,10.8,9.81,15.4,19.72,12.06,26.43-3.45,6.93-14.79,8.81-30.38,5C78.26,383.26,67.49,390.73,57.74,388c-10.34-2.87-16.23-16.38-15.05-34.45-18.77-9.82-22-23.1-19-31.52,3.29-9.3,15.33-16.9,34.86-13,6.26-15.27,14.45-23.69,22-22.54,6.83,1,11.48,9.82,12.82,24.13,10.2-8.47,16.58-16.43,17.78-18.78-1.35.89-4.92,4.12-12,12.21l-1,1.19.16-1.58c1.59-15.9-2.36-27.17-10.3-29.39-11.28-3.16-24.17,11.83-31.95,28.09l-.17.35-.38-.07A62.46,62.46,0,0,0,44.89,301.75Zm56.78,33.07q.92.77,1.79,1.54c1.13-.72,1.8-1.29,1.84-1.63a4,4,0,0,0-1.1-.11A19.89,19.89,0,0,0,101.67,334.82Z" transform="translate(-6.4 -187.14)"/><path class="c43fd17b-1c2e-4972-a2fe-94ed9ebb1755" d="M386,220.5c-25.83-27.53,19.22-27.09,25.49.82,20.19-12.72,39.2-11.54,48.31-2.65,9.3,8.94,8.71,25.6-5.79,45,9.5,22.33,5.15,38.32-4.54,45.09-9.88,6.78-25.09,4.34-41.83-10.05-8,26.54-45.26,26.21-22.81-.74C362.62,325.07,360,193.2,386,220.5Zm57.24,42c21-33.7-2.94-53-32.86-33-6.9-21.91-30.73-22.43-13.58-.53-17.29-21.84-17.88,82.15-1.84,61-16.18,21.06,4.32,21.5,12.44.49C431.48,313.09,455.47,299.84,443.26,262.48Z" transform="translate(-6.4 -187.14)"/><path class="3417a65c-5f0e-4cca-af67-7c8819c994d4" d="M385,318.87c-3.33,0-5.86-1.24-7-3.49-1.71-3.24-.47-8.06,3.49-13.84a4.79,4.79,0,0,1-3.8.37c-7-2.34-10.13-21.67-10.73-37.51-.78-20.55,2.12-44.25,10.33-47.72a5.89,5.89,0,0,1,5.09.32c-4.3-5.57-5.75-10.3-4.1-13.55,1.5-2.95,5.45-4.33,10.53-3.69a28.34,28.34,0,0,1,23.05,20.75c9.37-5.78,19-8.93,28-9.13,8.36-.18,15.6,2.28,20.36,6.92,10.16,9.76,8,27.13-5.56,45.39,10.09,23.95,4.14,39.17-4.83,45.44-10.57,7.25-26.18,3.66-41.86-9.58-3.84,11.65-13.63,18.49-21.48,19.25C386,318.85,385.48,318.87,385,318.87Zm0-20.41c-5.77,7-8,13-6.19,16.44,1.15,2.18,3.86,3.23,7.45,2.89,7.68-.74,17.3-7.59,20.84-19.27l.23-.75.59.51c15.51,13.34,30.91,17.08,41.2,10,8.67-6.06,14.37-20.93,4.36-44.48l-.12-.27.18-.23c13.41-17.89,15.65-34.86,5.84-44.28-10-9.78-29.62-8.66-47.68,2.71l-.61.38-.16-.7a27.26,27.26,0,0,0-22.35-20.66c-4.65-.59-8.2.59-9.5,3.14-1.05,2.07-1.51,6.92,7.23,16.24l-.74.7c-3-3.13-5.68-4.21-8-3.23-7.42,3.14-10.5,25.89-9.71,46.74.76,20.12,4.8,34.82,10,36.58,1.9.64,4-.42,6.29-3.13l.17-.21.78.65Zm7.16,8a3.51,3.51,0,0,1-3.31-1.8c-1.26-2.37-.08-6.5,3.23-11.61a3.07,3.07,0,0,1-2.15.09c-5.05-1.67-7-17.34-7.12-30.25-.16-16.52,2.36-35.25,8.27-37.34a3.6,3.6,0,0,1,2.74.16c-3.31-5.06-4.45-9.17-3.13-11.57.78-1.41,2.31-2.08,4.33-1.88,5.11.51,12.22,6.4,15.58,16.38,14.13-9.24,28.15-10.42,35.86-3s6.7,21.6-2.72,36.84c5.71,17.63,3.83,31.5-5,37.14-8.07,5.13-20,1.92-31.15-8.35-3.92,9.6-10.48,14.88-15.05,15.15Zm3.07-16.11c-7,9.18-6,12.91-5.49,13.83a2.66,2.66,0,0,0,2.69,1.25c4.25-.25,10.76-5.66,14.44-15.2l.27-.7.55.52c11,10.34,22.66,13.69,30.45,8.74,8.49-5.39,10.19-18.92,4.55-36.19l-.07-.23.13-.2c9.27-14.89,10.42-28.59,3-35.77s-21.25-5.86-35.15,3.44l-.56.38-.2-.65c-3.13-9.94-10-15.83-14.92-16.31a3.17,3.17,0,0,0-3.34,1.36c-1.38,2.52.7,7.73,5.56,13.95h0l-.8.63c-1.82-2.3-3.48-3.21-4.92-2.7-5.15,1.82-7.75,20.1-7.59,36.37.16,16,2.8,28.09,6.42,29.29,1.21.4,2.61-.42,4.17-2.43l.09-.11.81.62Z" transform="translate(-6.4 -187.14)"/><path class="c43fd17b-1c2e-4972-a2fe-94ed9ebb1755" d="M490.33,235.36c-19.28-31,39.8-20.77,33.36,6.31,36.56-19.89,52.59-1.15,23.85,24.78,19.51,6.85,5.25,11.87-19.21,12.86,25.75,9.41,36,22,13.17,23.28,11.19,39.12-13.88,46.95-33.72,14.87-5.17,26.18-54.36,17.69-30.09-5.69C453.53,335.57,470.83,204.82,490.33,235.36Zm5.88,27.4c-15.18,6,19.93,12.54,20.85,4.08,16.37,12.39,31.28,10.11,21.14-7.95,17.64-11.14,5-20.72-16-16.3,2.79-8.57-34.45-15.49-21.58-4.22C487.68,227.29,481,269,496.21,262.75ZM488,311.48c-15.52,7.64,16.07,13.46,18.82,3.69,16.25,14,33.26,11.79,24-9.63,18.73-14.28,4-25.09-17.88-19.16,1.56-10.47-32.48-16.74-19.65-3.85C480.32,269.79,472.46,319.29,488,311.48Z" transform="translate(-6.4 -187.14)"/><path class="3417a65c-5f0e-4cca-af67-7c8819c994d4" d="M532.46,337.94c-8.38,0-17.82-8.86-24.45-19.18-1.76,6.59-7.45,13.7-18.62,15.11-8.28,1-15.72-1.7-18.1-6.66-1.25-2.61-1.56-6.73,2.89-12.36a4.18,4.18,0,0,1-3.43,0c-6.06-2.95-6.13-22.37-4.36-38.1,3.38-30,11.09-45,16.82-46.37a5.15,5.15,0,0,1,4.44,1.16c-3-6.61-1.59-10.37.35-12.43,4.32-4.61,15-4.31,24.22.67s13.65,12.71,12.19,21c17.31-9.18,31.67-10.51,36.75-3.33,3.6,5.08,2.12,15.31-12.65,28.87,6.14,2.25,9,4.4,8.65,6.56-.73,4.89-18,6.43-26.34,6.89,15.29,5.9,24.56,12.8,23.82,17.82-.33,2.2-2.77,4.92-12.47,5.55,5.79,20.75,1.1,31.14-5.26,34A10.91,10.91,0,0,1,532.46,337.94ZM508,316.85l.21.34c9.12,14.74,20.48,22.34,28.28,18.89,6-2.67,10.39-12.83,4.52-33.36l-.18-.61.64,0c7.44-.4,11.76-2.08,12.15-4.72.69-4.62-9.78-11.85-25.47-17.58l-2.41-.88,2.57-.1c18.71-.76,27.46-3.63,27.84-6.14.14-.94-.81-2.94-8.78-5.73l-.81-.28.64-.57c12.24-11,17.4-22.07,13.13-28.1-3.91-5.52-16.33-6.49-35.37,3.6,10.84-1.68,19.75.39,21.72,5.25.87,2.14,1,6.56-7.8,12.25,5,9.13,2.93,13,1.23,14.45-4,3.52-13.31,1.12-22.73-5.81-.78,2.11-3.68,3.39-8.32,3.64-6.37.35-16.38-1.62-17.12-5a2.46,2.46,0,0,1,1.14-2.45,5.29,5.29,0,0,1-4.39-2.76c-3.51-5.77-1.31-19.26,3.86-23.65a5.49,5.49,0,0,1,5.43-1.24,2.45,2.45,0,0,1-.29-2.77c2-3,13.06-.95,19.2,2,4,2,6.12,4.22,5.93,6.46l.29-.06.08-.33c1.95-8.2-2.33-16-11.46-20.93-8.73-4.69-19-5.08-23-.87-3,3.16-2.26,8.46,2,15.34l-.86.54c-2.15-3.36-4.32-4.82-6.46-4.32-7.27,1.69-13.69,24.7-16,45.5-2.26,20-.73,34.88,3.79,37.08,1.56.76,3.55,0,5.92-2.27l.22-.22.71.73-.22.21c-5.51,5.38-7.5,10.5-5.62,14.43,2.16,4.51,9.33,7.07,17.05,6.09,9.61-1.21,16.35-7,18-15.5l.19-.94L507,316c-1.66,3.73-7.37,4.94-12.36,4.78-5.2-.16-10.79-1.8-11.41-4.64-.24-1.12.29-2.24,1.59-3.33a4.75,4.75,0,0,1-4-2.39c-4.12-6.36-1.18-24.38,4.77-29.22a5,5,0,0,1,5-1c-.93-1.51-1.09-2.76-.46-3.74,1.64-2.54,8.29-1.91,13.77.16,6,2.27,9.48,5.63,9.47,9.09,12.09-3.1,22.83-1.21,25.69,4.59,1.26,2.55,1.91,7.93-7.74,15.41,4.75,11.2,1.75,15.63-.49,17.27C526.13,326.46,516.9,323.94,508,316.85Zm-1.51-2.59.61.52c8.85,7.63,18.59,10.73,23.16,7.37,3.48-2.56,3.48-8.39,0-16.41l-.16-.37.32-.24c6.86-5.23,9.69-10.48,7.76-14.4-2.31-4.69-11.72-7.53-25.21-3.87l-.75.2.12-.77c.56-3.78-4.16-7-8.77-8.74-5.53-2.09-11.4-2.35-12.56-.56-.66,1,.24,2.85,2.53,5.16l-.72.72c-2.3-2.27-4.51-2.56-6.6-.87-5.67,4.62-8.48,21.81-4.55,27.88,1.33,2.06,3.33,2.46,5.92,1.19l.12-.06.45.91-.12.06c-2.73,1.37-4.09,2.77-3.83,4,.42,2,5.11,3.68,10.44,3.84,4.69.15,10.56-1,11.61-4.76Zm10.15-48.38.72.54c9.1,6.88,18.38,9.54,22.07,6.32,2.58-2.25,2-7.09-1.68-13.61l-.24-.42.41-.26c6.26-4,9.11-8.06,7.81-11.27-1.93-4.75-12-6.51-23.45-4.11l-.86.18.27-.84c.86-2.64-2.92-4.91-5.25-6-6.63-3.2-16.5-4.51-17.91-2.37-.5.75.38,2.19,2.4,4l-.67.77c-2.53-2.17-4.9-2.34-7.06-.51-4.78,4.06-6.9,17-3.65,22.35,1.38,2.26,3.5,2.85,6.32,1.75l.15-.06.38.94-.15.06c-2.34.95-3.51,1.95-3.32,2.83.51,2.34,9.07,4.6,16.07,4.22,4.58-.24,7.33-1.54,7.55-3.55Z" transform="translate(-6.4 -187.14)"/><path class="c43fd17b-1c2e-4972-a2fe-94ed9ebb1755" d="M665.91,286.58c-4.5-16.73,17.3-15,35.7-5.91,18.49,8.88,38.36,22,22.42,28.76,31.64-13.62,19.88,1.64-8.68,10.39,29.11-9.64-45.27-47.16-42.49-21.15-3-24.9-20.13,14.3-10.45,22.84-9.47-9.41,55.21,22.86,37.82,18.71,17.09,4.95,10.23,17.09-3.85,7.23,14.37,9.08-49-22.55-37.38-18.49-12-3.27-30.89,40.07-11.56,25.25-18.9,13.94,45.62,46.54,39.26,19.56,6.23,28-1.82,35.18-4.64,13.7,1.1,8.55-16.22,7.24-32.05-.38-15.76-7.83-28.93-20.63-15.23-29.58C607.39,375.37,656.91,253.13,665.91,286.58Z" transform="translate(-6.4 -187.14)"/><path class="3417a65c-5f0e-4cca-af67-7c8819c994d4" d="M686.65,400.47a1.49,1.49,0,0,1-.54-.1c-1.65-.63-3.1-4.14-4.1-9.8a4.84,4.84,0,0,1-1.41,1.55c-4.85,3.5-18.1,1.53-30.82-4.59-12.91-6.41-20.85-14.2-21.24-20.85a9.2,9.2,0,0,1,2.78-7,3.69,3.69,0,0,1-3.3-.58c-4.71-3.79-.07-21.67,5.83-37.13,7.95-20.82,19.79-41.7,27.2-41.7h.2a4.46,4.46,0,0,1,3.54,2.32,8,8,0,0,1,2.87-6.63c6.62-5.43,22.35-1.59,34.17,4.27,10.73,5.15,28.72,15,28.53,23.06a5.49,5.49,0,0,1-1.54,3.64c5.78-2.25,12.4-4.35,14.13-3a1.23,1.23,0,0,1,.43,1.25c-.63,3.29-12.69,10.46-27.88,15.11l-.31-1c5-1.65,7.08-4.18,6.24-7.51-2.5-9.84-29.6-23.66-42-21.43-4.5.81-6.53,3.57-6,8.21l-1,.12c-.78-6.37-2.35-7.56-3.21-7.7-1.48-.24-3.62,2.06-5.49,6-3.09,6.55-5.22,17.14-2.25,22.38,3.39-1.27,26.92,10.78,33.26,14.31,9.58,5.34,9.22,6.25,9,6.79a.74.74,0,0,1-.17.27c4.94,2,7,4.72,7.31,6.75a3.3,3.3,0,0,1-1.65,3.36c-1.91,1.16-5.54,1.27-10.4-1.4-.52.25-2.47-.35-13.25-5.55-6.07-2.93-13.25-6.53-18.73-9.41-6.09-3.19-8.43-4.57-9.28-5.28-4.77.16-10.55,7.1-14.21,14.06-3.25,6.19-4.52,11.83-3,13.14.58.49,2.19.8,6.55-2.48l.29-.22.61.81-.28.21c-3.34,2.61-3.9,6-1.68,10.06,5.75,10.5,28.34,21.5,37.18,18.11,3.14-1.2,4.27-4.08,3.35-8.54l-.13-.57,1-.23q.07.3.13.58c3.15,14.44,2.57,23.92.34,25.85A1.54,1.54,0,0,1,686.65,400.47Zm-4.09-13.08c1.15,8.76,3,11.68,3.92,12a.46.46,0,0,0,.52-.12c1.47-1.27,2.32-8.07.34-19.67a6.28,6.28,0,0,1-4,4.3,12.18,12.18,0,0,1-4.32.69c-10.8,0-28.85-9.65-34.12-19.26-1.74-3.18-1.92-6.06-.56-8.52-2.13,1.11-3.7,1.26-4.69.42-2.47-2.08-.07-9.05,2.73-14.39,3.84-7.32,9.66-14.17,14.8-14.59.29-.38.94-.18,2,.18l-.2.65c5.24,3.32,29.43,15.43,37.17,18.66l.51-.77c.62.39,1.09.7,1.44,1,5.08,3.14,8.81,3.14,10.53,2.09a2.29,2.29,0,0,0,1.17-2.36c-.27-2-3-5-9.71-7l.26-1a10,10,0,0,0,2.22.36c-1.63-2.06-15.84-9.8-28.36-15.4-9.13-4.08-11.6-4.41-12.17-4.39a4.61,4.61,0,0,0,.73.86l-.7.74c-5.43-4.79-2.82-17.91.66-25.27,2.14-4.52,4.52-6.93,6.57-6.59,1.46.24,2.57,1.78,3.33,4.59.82-2.8,3-4.58,6.59-5.22,13.1-2.35,40.54,11.75,43.19,22.18a5.76,5.76,0,0,1-1.76,5.94c13.48-4.86,21.36-10.6,21.73-12.52,0-.18,0-.22-.07-.26-.22-.18-2.55-1.51-17.86,5.07l-.22.09-.4-.94.22-.09c3.47-1.51,5.25-3.4,5.3-5.62.13-5.47-10.06-13.53-28-22.12-13.88-6.89-27.79-8.73-33.07-4.4-2.46,2-3.1,5.29-1.91,9.72h0l-1,.26v0c-.95-3.51-2.36-5.33-4.21-5.43h-.14c-5.16,0-16,14.28-26.26,41-7.15,18.72-9.62,33.18-6.14,36,1.17.95,3.13.54,5.83-1.22l.56.85h0c-3.83,2.5-5.67,5.43-5.48,8.71.44,7.39,11,15.17,20.67,20,12.2,5.86,25.29,7.92,29.78,4.68a3.71,3.71,0,0,0,1.54-3.78l1-.13Z" transform="translate(-6.4 -187.14)"/><g id="6383a3ac-eee0-40df-8ac7-da6292c651c9" data-name="&lt;Groupe&gt;"><path class="c43fd17b-1c2e-4972-a2fe-94ed9ebb1755" d="M156.17,308.63c-5.29-11.8-10.67-23.82-13.42-36.52-1.27-5.86-5.7-27.55.1-31.69s18.42,38.5,21.61,43.57a25.84,25.84,0,0,1-3.14-8.57c-3.26-14.88-7.29-26.63-6.67-42,.12-3,.12-10.1,3.55-11.53,5.51-2.29,8.95,10.8,10,14.31,2,6.76,3.3,12.84,4.75,19.78,1.2,5.75,1.66,7.15,5.38,19.23.67.31-2.25-16.38-1-8.87-1.8-10.9-4.16-40.86-1-43.32,3.31.43,9.39,13.48,10.16,16.79a289.21,289.21,0,0,1,6.05,35.46c-.57-5.42,1-12.13,2.65-17.29,2.88-9,6.88-8.28,8.46,1.28,1.5,9.07.47,24.09,3.25,32.36,4.87,14.5,13.15,21.95,7.81,38.37-1.32,4.07-4.06,7.94-8,9.56a15.87,15.87,0,0,1-8,.77" transform="translate(-6.4 -187.14)"/><path class="3417a65c-5f0e-4cca-af67-7c8819c994d4" d="M201.49,341a24.37,24.37,0,0,1-2.82-.18l.12-1a15.11,15.11,0,0,0,7.71-.73c3.37-1.4,6.24-4.86,7.66-9.25,3.82-11.75.64-18.65-3.39-27.38a103.28,103.28,0,0,1-4.42-10.67c-1.68-5-2-12.32-2.27-19.41a115.69,115.69,0,0,0-1-13c-.86-5.18-2.32-7.12-3.41-7.2-1.28-.09-2.83,2.14-4.06,6-1.52,4.75-3.21,11.57-2.63,17.08l-1,.11a286.73,286.73,0,0,0-6-35.4c-.84-3.6-6.63-15.39-9.51-16.35-2.34,3-.71,28.71,1.16,41.24.2,1,.5,3,.75,4.74.8,5.48.61,5.72.43,6l-.25.31-.62-.25-.54-1.74c-3.27-10.6-3.77-12.23-4.92-17.75-1.45-7-2.71-13-4.74-19.74l-.22-.74c-.93-3.16-3.38-11.54-6.84-13.2a2.63,2.63,0,0,0-2.26-.05c-2.9,1.2-3.11,7.42-3.21,10.4l0,.67c-.48,12,1.82,21.54,4.49,32.6.72,3,1.47,6.07,2.17,9.3.25,1.16.49,2.14.75,3.05.83,2.16,1.53,3.87,2,4.86l.29.51-.87.52c-.09-.15-.2-.33-.31-.54a23.4,23.4,0,0,1-2.11-5c-.75-2-1.62-4.3-2.56-6.86-4.4-11.92-11.05-29.94-15-31.16a.93.93,0,0,0-.88.13c-3.66,2.61-3.62,14,.1,31.17,2.74,12.68,8.15,24.75,13.39,36.42l-.93.42C150.45,297.11,145,285,142.25,272.21c-2.24-10.35-5.18-28.3.3-32.21a1.94,1.94,0,0,1,1.77-.28c4.06,1.25,9.38,14.75,15.41,31.07q-.54-2.31-1.09-4.54c-2.57-10.67-5-20.74-4.52-32.87l0-.67c.12-3.44.34-9.85,3.84-11.31a3.64,3.64,0,0,1,3.09.08c3.87,1.85,6.33,10.25,7.38,13.83l.22.73c2,6.8,3.3,12.83,4.76,19.82a132.31,132.31,0,0,0,4,14.88c-.21-1.51-.46-3.12-.65-4.34h0c-.14-.84-.23-1.38-.27-1.73l0-.18h0c-1.59-11.21-3.93-39.24-.57-41.9l.17-.13.21,0c3.74.49,9.85,14,10.59,17.18,2.29,9.84,4,19.28,5.25,28.66a62.81,62.81,0,0,1,2.47-10.53c1.45-4.52,3.22-6.83,5.1-6.69s3.51,3,4.34,8a116.29,116.29,0,0,1,1,13.15c.29,7,.59,14.28,2.22,19.13A102.43,102.43,0,0,0,211.7,302c4,8.58,7.37,16,3.43,28.12-1.54,4.74-4.54,8.34-8.24,9.88A13.79,13.79,0,0,1,201.49,341Z" transform="translate(-6.4 -187.14)"/></g><g id="b3e75113-2034-4890-9c4f-c3cf91e40762" data-name="&lt;Groupe&gt;"><path class="c43fd17b-1c2e-4972-a2fe-94ed9ebb1755" d="M162.58,294.2a30.18,30.18,0,0,1,32.92-6.42" transform="translate(-6.4 -187.14)"/><path class="3417a65c-5f0e-4cca-af67-7c8819c994d4" d="M162.94,294.55l-.73-.71a30.84,30.84,0,0,1,33.49-6.53l-.41.93A29.8,29.8,0,0,0,162.94,294.55Z" transform="translate(-6.4 -187.14)"/></g><g id="57cabbf9-5fcf-430d-ab4f-517c1ca78e31" data-name="&lt;Groupe&gt;"><path class="c43fd17b-1c2e-4972-a2fe-94ed9ebb1755" d="M199.81,321.72c-11.29,4.2,5.54,26.19-18.2,36.79-7.53,3.36-27.45-8.19-29.36-22.47-6.31-.75-12.79-1.5-18.93.14-5.13,1.37-10.52,8.91-10.52,8.91s-1.48.19-3.38-1.84c-7.75-8.25,1.27-23.11,10.64-26.19,5.42-1.79,11-2.76,16.56-1.06,6,1.85,6.89,4.09,10.59,8.66-2.46-4.93,4.93-34.64,26.12-13.29" transform="translate(-6.4 -187.14)"/><path class="3417a65c-5f0e-4cca-af67-7c8819c994d4" d="M178.44,359.6c-3,0-6.86-1.18-10.87-3.41-6.45-3.6-14.38-10.89-15.76-19.7-5.82-.7-12.36-1.43-18.35.17-4.9,1.31-10.19,8.64-10.24,8.71l-.13.18-.22,0c-.07,0-1.76.19-3.81-2-2.83-3-3.74-7.22-2.57-11.85,1.7-6.69,7.47-13.22,13.41-15.18,6.7-2.21,12.06-2.54,16.87-1.06,5.22,1.61,6.74,3.58,9.28,6.85l.24.31c-.25-4.66,2.05-13.65,7.48-17.55,3.75-2.69,10.26-3.86,19.92,5.87l-.72.72c-7.25-7.3-13.68-9.29-18.6-5.76-6,4.32-8.07,15.73-6.7,18.47l2.08,4.17L156.81,325c-.58-.72-1.09-1.38-1.57-2-2.49-3.22-3.87-5-8.78-6.5-4.6-1.42-9.76-1.08-16.25,1.06-5.64,1.86-11.12,8.08-12.75,14.46-.77,3-1,7.37,2.32,10.9a4.69,4.69,0,0,0,2.76,1.67c1-1.29,5.84-7.6,10.65-8.88,6.32-1.68,13.12-.87,19.12-.15l.39,0,.05.39c1.15,8.61,9,15.8,15.31,19.34,5.34,3,10.45,4,13.34,2.73,13.75-6.13,13.59-16.19,13.46-24.27-.09-5.74-.17-10.69,4.77-12.53l.35,1c-4.27,1.59-4.2,6-4.11,11.56.13,8.38.3,18.81-14.06,25.22A8.29,8.29,0,0,1,178.44,359.6Z" transform="translate(-6.4 -187.14)"/></g><g id="f322f49e-14e3-4d3b-a9aa-66585226fb71" data-name="&lt;Groupe&gt;"><path class="c43fd17b-1c2e-4972-a2fe-94ed9ebb1755" d="M227.88,280.47c-3.91-11.94-7.89-24.09-9.26-36.63-.63-5.79-2.71-27.18,3.31-30.6s13.89,39.06,16.45,44.27a25.09,25.09,0,0,1-2.17-8.59c-1.64-14.7-4.34-26.46-2.18-41.27.42-2.9,1.14-9.74,4.6-10.77,5.55-1.65,7.55,11.34,8.21,14.84,1.28,6.74,1.89,12.73,2.58,19.58.58,5.67.88,7.07,3.25,19.11.62.36-.51-16-.08-8.67-.63-10.71.12-39.89,3.38-42,3.15.75,7.71,14,8.11,17.24a280.87,280.87,0,0,1,2.25,34.87c0-5.29,2.2-11.61,4.32-16.43,3.7-8.41,7.48-7.3,8,2.09.53,8.91-2,23.32-.15,31.58,3.24,14.5,10.47,22.53,3.66,37.85-1.69,3.8-4.72,7.26-8.65,8.43a15.42,15.42,0,0,1-7.77-.06" transform="translate(-6.4 -187.14)"/><path class="3417a65c-5f0e-4cca-af67-7c8819c994d4" d="M270.13,316.41a20.41,20.41,0,0,1-4.46-.55l.22-1a14.64,14.64,0,0,0,7.52.07c3.4-1,6.51-4.06,8.33-8.15,4.88-11,2.51-17.94-.5-26.78A100.13,100.13,0,0,1,278,269.26c-1.11-5-.66-12.11-.23-19a112.33,112.33,0,0,0,.36-12.68c-.3-5.09-1.52-7.1-2.55-7.28-1.25-.22-2.94,1.78-4.51,5.36-1.95,4.43-4.27,10.84-4.27,16.23h-1a278.47,278.47,0,0,0-2.25-34.8c-.44-3.56-4.83-15.5-7.51-16.74-2.56,2.66-3.58,27.65-3,39.93.07.84.16,2.4.25,4.66.22,5.38,0,5.6-.2,5.8l-.28.28-.59-.31-.34-1.73c-2.08-10.58-2.4-12.2-3-17.66-.7-6.87-1.3-12.81-2.58-19.54l-.14-.73c-.57-3.14-2.1-11.49-5.27-13.43a2.55,2.55,0,0,0-2.16-.28c-2.91.87-3.75,6.84-4.15,9.71l-.09.65c-1.68,11.53-.42,21,1,31.93.39,3,.8,6,1.16,9.2.13,1.14.26,2.13.43,3.06.58,2.14,1.08,3.85,1.47,4.85l.23.53-.92.43c-.08-.16-.16-.34-.24-.56a22.78,22.78,0,0,1-1.53-5c-.53-2-1.13-4.31-1.78-6.88-3-12-7.64-30-11.34-31.61a.89.89,0,0,0-.85,0c-3.79,2.15-4.9,13.12-3.05,30.1,1.36,12.52,5.37,24.73,9.24,36.53l-1,.32c-3.89-11.85-7.91-24.11-9.28-36.74C217,233.66,216,216,221.68,212.79a1.91,1.91,0,0,1,1.75-.09c3.78,1.61,7.54,15.07,11.69,31.35q-.28-2.17-.56-4.26c-1.4-10.56-2.73-20.54-1-32.21l.09-.64c.46-3.32,1.33-9.49,4.86-10.54a3.55,3.55,0,0,1,3,.39c3.56,2.18,5.08,10.55,5.73,14.12l.13.73c1.28,6.78,1.89,12.73,2.59,19.63a125,125,0,0,0,2.36,14.63c-.05-1.43-.12-2.95-.19-4.1h0c0-.81-.08-1.34-.08-1.68,0-.08,0-.14,0-.18h0c-.4-11,.18-38.31,3.7-40.54l.18-.12.21.05c3.57.86,8.11,14.52,8.5,17.68,1.21,9.7,1.93,19,2.17,28.11a61.08,61.08,0,0,1,3.43-9.81c1.86-4.22,3.8-6.28,5.62-6s3.1,3.26,3.39,8.22a112.89,112.89,0,0,1-.36,12.8c-.43,6.81-.88,13.85.21,18.7a99.4,99.4,0,0,0,3.16,10.65c3,8.69,5.5,16.2.46,27.52-2,4.42-5.24,7.6-9,8.71A12.35,12.35,0,0,1,270.13,316.41Z" transform="translate(-6.4 -187.14)"/></g><g id="5069f6ea-d229-4b04-bb36-1e9df07f6d6c" data-name="&lt;Groupe&gt;"><path class="c43fd17b-1c2e-4972-a2fe-94ed9ebb1755" d="M235.54,267.18A29.3,29.3,0,0,1,268,264.32" transform="translate(-6.4 -187.14)"/><path class="3417a65c-5f0e-4cca-af67-7c8819c994d4" d="M235.86,267.57l-.65-.78a30,30,0,0,1,33-2.91l-.5.88A28.92,28.92,0,0,0,235.86,267.57Z" transform="translate(-6.4 -187.14)"/></g><g id="ac2bf432-2eef-4793-8d38-35ee6f03e669" data-name="&lt;Groupe&gt;"><path class="c43fd17b-1c2e-4972-a2fe-94ed9ebb1755" d="M268.71,297.53c-11.33,2.91,2.69,25.86-21.31,33.68-7.62,2.48-25.68-10.69-26.08-24.68-6-1.37-12.2-2.74-18.3-1.79-5.09.8-11.07,7.54-11.07,7.54s-1.45,0-3.08-2.12c-6.65-8.76,3.57-22.19,12.93-24.22,5.41-1.18,10.95-1.54,16.1.66,5.61,2.39,6.24,4.65,9.35,9.44-1.88-5,8.28-33,26.58-10.19" transform="translate(-6.4 -187.14)"/><path class="3417a65c-5f0e-4cca-af67-7c8819c994d4" d="M245.3,332c-3.12,0-7.14-1.57-11.24-4.46-5.87-4.13-12.79-12-13.23-20.63-5.54-1.26-11.78-2.63-17.72-1.69-4.85.76-10.71,7.3-10.77,7.37l-.15.17H192c-.08,0-1.73,0-3.49-2.32-2.43-3.2-2.89-7.36-1.28-11.72,2.32-6.3,8.56-12,14.51-13.31,6.69-1.45,11.91-1.24,16.41.69,4.88,2.08,6.16,4.15,8.27,7.56l.16.26a21.89,21.89,0,0,1,1.65-6.71c1-2.53,3.35-7.12,7.38-9.42s10.31-2.69,18.66,7.7l-.79.64c-6.26-7.78-12.26-10.36-17.36-7.45-6.25,3.56-9.38,14.36-8.34,17.14l1.63,4.36-2.54-3.91c-.49-.75-.92-1.44-1.31-2.08-2.08-3.36-3.23-5.21-7.81-7.17-4.3-1.84-9.32-2-15.79-.63-5.63,1.22-11.55,6.67-13.77,12.67-1,2.84-1.7,7,1.14,10.75a4.56,4.56,0,0,0,2.47,1.89c1.07-1.16,6.42-6.75,11.19-7.5,6.27-1,12.76.49,18.49,1.79l.38.09v.39c.24,8.43,7.05,16.16,12.81,20.22,4.85,3.42,9.68,4.94,12.6,4,13.89-4.53,14.75-14.25,15.45-22.06.49-5.55.92-10.35,5.89-11.63l.25,1c-4.27,1.1-4.65,5.35-5.13,10.73-.72,8.11-1.62,18.21-16.15,22.94A7.29,7.29,0,0,1,245.3,332Z" transform="translate(-6.4 -187.14)"/></g><g id="452dbaf4-39e9-458e-a909-0d9cc3e4f6db" data-name="&lt;Groupe&gt;"><path class="c43fd17b-1c2e-4972-a2fe-94ed9ebb1755" d="M302.93,266.34c-1-12.52-2-25.27-.34-37.79.76-5.78,3.79-27.05,10.45-28.95s4.26,41.23,5.52,46.91a25.09,25.09,0,0,1-.08-8.86c1.88-14.67,2-26.73,7.63-40.61,1.1-2.72,3.41-9.2,7-9.38,5.79-.29,4.65,12.8,4.47,16.36-.35,6.85-1.18,12.82-2.12,19.64-.78,5.65-.82,7.08-1.37,19.34.51.5,3.3-15.71,2-8.44,1.92-10.56,9.55-38.73,13.2-40,2.88,1.48,4.18,15.4,3.81,18.67A280.87,280.87,0,0,1,347,247.67c1.25-5.14,4.88-10.76,8.08-14.95,5.58-7.29,9-5.33,7.32,3.94-1.59,8.79-7.45,22.19-7.61,30.65-.28,14.86,4.85,24.37-5.4,37.64-2.54,3.29-6.31,5.94-10.4,6.15a15.42,15.42,0,0,1-7.54-1.9" transform="translate(-6.4 -187.14)"/><path class="3417a65c-5f0e-4cca-af67-7c8819c994d4" d="M338.48,311.63a16.19,16.19,0,0,1-7.21-2l.45-.91A14.62,14.62,0,0,0,339,310.6c3.54-.18,7.29-2.4,10-5.95,7.33-9.49,6.67-16.84,5.85-26.14a100.24,100.24,0,0,1-.56-11.2c.1-5.11,2.22-11.92,4.27-18.5a112.17,112.17,0,0,0,3.35-12.23c.91-5,.2-7.25-.76-7.68-1.16-.51-3.27,1-5.65,4.14-2.94,3.85-6.72,9.53-8,14.76h0l-1-.24a278.5,278.5,0,0,0,6-34.35c.41-3.56-1-16.21-3.34-18-3.11,2-10,26-12.4,38.07-.13.83-.42,2.37-.86,4.59-1.06,5.28-1.32,5.44-1.56,5.59l-.34.21-.5-.44.08-1.74c.48-10.78.55-12.44,1.3-17.87.95-6.84,1.76-12.75,2.12-19.6l0-.75c.19-3.19.68-11.66-1.94-14.3a2.52,2.52,0,0,0-2-.78c-3,.15-5.26,5.76-6.33,8.45l-.24.61c-4.36,10.81-5.37,20.29-6.55,31.27-.32,3-.65,6-1.05,9.22-.15,1.14-.25,2.11-.31,3,.05,2.24.14,4,.28,5.11q0,.27.1.56l-1,.2c0-.17-.07-.37-.1-.59a22.73,22.73,0,0,1-.3-5.27c0-2-.07-4.46-.1-7.11-.13-12.34-.32-31-3.55-33.39a.89.89,0,0,0-.83-.16c-4.19,1.19-7.87,11.59-10.08,28.53-1.63,12.49-.63,25.3.34,37.68l-1,.08c-1-12.44-2-25.3-.33-37.89,1.33-10.2,4.51-27.58,10.81-29.37a1.9,1.9,0,0,1,1.72.33c3.29,2.46,3.76,16.42,3.94,33.22q.24-2.17.46-4.27c1.13-10.6,2.2-20.6,6.62-31.54l.24-.6c1.23-3.11,3.53-8.91,7.22-9.1a3.55,3.55,0,0,1,2.81,1.08c2.94,3,2.45,11.45,2.24,15.07l0,.74c-.35,6.89-1.18,12.82-2.13,19.68a125.24,125.24,0,0,0-1.16,14.77c.29-1.4.58-2.89.79-4h0c.15-.81.24-1.33.32-1.67l0-.18h0c2.21-10.78,9.23-37.18,13.18-38.51l.2-.07.19.1c3.27,1.68,4.44,16,4.08,19.19-1.11,9.71-2.61,18.87-4.54,27.82a61.16,61.16,0,0,1,5.65-8.73c2.8-3.66,5.18-5.2,6.87-4.46s2.24,3.9,1.35,8.79a113,113,0,0,1-3.38,12.35c-2,6.51-4.12,13.25-4.22,18.22a99.43,99.43,0,0,0,.55,11.09c.82,9.14,1.52,17-6.05,26.85-3,3.83-6.89,6.15-10.78,6.34Z" transform="translate(-6.4 -187.14)"/></g><g id="7fea8c53-99ab-4729-8bd0-ae03cc49fdb3" data-name="&lt;Groupe&gt;"><path class="c43fd17b-1c2e-4972-a2fe-94ed9ebb1755" d="M313.51,255.24a29.3,29.3,0,0,1,32.2,4.89" transform="translate(-6.4 -187.14)"/><path class="3417a65c-5f0e-4cca-af67-7c8819c994d4" d="M345.36,260.5a28.92,28.92,0,0,0-31.63-4.8l-.45-.91a30,30,0,0,1,32.77,5Z" transform="translate(-6.4 -187.14)"/></g><g id="854a8c2c-aabb-4874-88e3-f182e383df6f" data-name="&lt;Groupe&gt;"><path class="c43fd17b-1c2e-4972-a2fe-94ed9ebb1755" d="M338.57,292.57c-11.69.15-3.5,25.76-28.67,27.69-8,.61-22.43-16.46-19.51-30.15-5.52-2.75-11.21-5.55-17.36-6.06-5.14-.43-12.54,4.71-12.54,4.71s-1.41-.31-2.49-2.79c-4.39-10.08,8.71-20.71,18.29-20.48,5.54.14,11,1.09,15.49,4.44,4.88,3.65,5,6,6.85,11.38-.64-5.31,15.83-30.06,28.23-3.62" transform="translate(-6.4 -187.14)"/><path class="3417a65c-5f0e-4cca-af67-7c8819c994d4" d="M309.47,320.79c-3.37,0-7.69-2.66-11.67-7.22-4.72-5.4-9.59-14.66-8-23.17-5.09-2.53-10.82-5.34-16.82-5.84-4.91-.41-12.13,4.57-12.2,4.62l-.18.13-.22,0c-.07,0-1.68-.4-2.85-3.08-1.61-3.69-1.06-7.84,1.53-11.69,3.75-5.57,11.16-9.66,17.24-9.5,6.85.17,11.86,1.62,15.78,4.55,4.25,3.18,5,5.48,6.25,9.31l.11.32c1.31-4.35,6.35-11.79,12.57-13.57,4.32-1.24,10.65-.18,16.31,11.89l-.92.43c-4.24-9-9.46-13-15.11-11.34-6.91,2-12.51,11.74-12.16,14.69l.56,4.62-1.54-4.4c-.3-.85-.55-1.62-.78-2.33-1.23-3.75-1.9-5.82-5.89-8.81-3.74-2.8-8.57-4.18-15.2-4.34-5.79-.15-12.8,3.75-16.37,9.05-1.69,2.51-3.31,6.41-1.44,10.71a4.55,4.55,0,0,0,2,2.42c1.31-.87,7.83-5,12.64-4.64,6.33.53,12.29,3.49,17.54,6.11l.35.18-.08.39c-1.76,8.25,3,17.37,7.67,22.68,3.9,4.47,8.25,7.1,11.3,6.86,14.57-1.12,17.7-10.36,20.23-17.79,1.79-5.28,3.34-9.84,8.47-9.91v1c-4.41.06-5.78,4.1-7.52,9.22-2.62,7.71-5.88,17.31-21.11,18.47Z" transform="translate(-6.4 -187.14)"/></g><path class="c43fd17b-1c2e-4972-a2fe-94ed9ebb1755" d="M591.59,281.74c-2.34,1.68-9.2-19.47-14.47-37-5.09-17.48-8.58-31.28.06-14.9-17.29-32.78,3.11-27.24,11.47,3.47,0,0,9.69,32.54,9.43,37.1-.51-4.55.65.75.87,6,3.4-3.95,7.61-7.39,4.38-4.13,2.59-3.74,55.78-42.27,30.48-23.2,25.72-18.85,45.36-10.41,11.22,4.43,33.16-15.6-43,36.43-43.61,31.65,1.83,5.79-16.37,56-10.53,29.52-5.86,26.38-21.16,21.05-9.38-3.26C569.69,335.77,586.57,285.15,591.59,281.74Z" transform="translate(-6.4 -187.14)"/><path class="3417a65c-5f0e-4cca-af67-7c8819c994d4" d="M578.26,358.18a3.08,3.08,0,0,1-2.46-1.23c-1.5-1.89-2.07-6.35.2-13.4a.72.72,0,0,1-.67.26.69.69,0,0,1-.59-.56c-.77-3,9.3-30.9,13.8-36.37-1.64-1.22-5-7.49-14.1-37.62-6-20.78-5.75-22.69-4.68-23.12.26-.11.56-.12,1,.27-3-7.18-3.94-12.37-2.41-14.45a2.33,2.33,0,0,1,2.46-.88c4.61.86,12.14,11.17,16.26,26.32.36,1.22,8.17,27.51,9.41,35.82.48,1.11.81,4.78,1,6.71,1.43-1.55,4.32-4.59,5.17-4.77,6.74-5.87,32.21-25.15,36.22-27.34h0a1.24,1.24,0,0,1,.48-.19l.33.06.08.32v.06c9.73-5.48,18.24-7.24,21.56-5.47a2.35,2.35,0,0,1,1.39,2.24c-.1,2.55-4,6-10.7,9.67a.85.85,0,0,1,.48.26c.2.21.36.6,0,1.24-3.07,5.56-46.23,34.13-52.34,34.81.22,6.91-9.25,35.26-11.76,37.18a.69.69,0,0,1-.82.08.73.73,0,0,1-.36-.63c-2.59,6.94-5.81,10.09-8.16,10.63A3.57,3.57,0,0,1,578.26,358.18Zm1.58-21.33c-4.9,10.11-5.16,17.06-3.24,19.47a2.07,2.07,0,0,0,2.24.78c3-.69,7.11-6.3,9.55-17.27h0l1,.22a48.11,48.11,0,0,0-1.16,6.59c1.17-2,3.79-8.52,6.45-16.81,3.18-9.89,4.9-17.5,4.43-19.53a.91.91,0,0,1-.05-.21l1-.21-.07-.06c.69.25,5.41-1.59,18.76-10.06,16-10.17,31.95-21.91,32.94-24.27-.38,0-1.48.2-4.6,1.53q-1.49.7-3.11,1.4l-.42-.93c1.23-.58,2.28-1.05,3.19-1.44,10.88-5.11,14.92-9.2,15-11.26a1.36,1.36,0,0,0-.85-1.3c-3.41-1.81-15.1.78-28.19,10.38l-.24-.32c-9.44,6.89-25.45,18.91-29.6,22.75-.2.23-.51.56-1,1l-.21-.18a56.65,56.65,0,0,0-4.2,4.34l-.84,1-.05-1.28a56.71,56.71,0,0,0-.6-6h-.28a13.32,13.32,0,0,1-.13-1.73c-1.15-8-9.31-35.47-9.41-35.77-4.25-15.62-11.72-24.9-15.47-25.6a1.34,1.34,0,0,0-1.46.48c-1.33,1.81-.49,8.45,6.25,21.22h0l-.9.47v0c-2.8-5.3-3.93-6.68-4.36-7-.42,2.29,3.82,16.86,5.24,21.76,10,33.33,13,37.11,13.87,37.17h0l.58.83,0,0c-1.6,1.12-5,8.22-8.73,18.12-3.05,8.14-5.07,14.91-5.38,17.18a48,48,0,0,0,3.17-5.87h0l.92.44Z" transform="translate(-6.4 -187.14)"/></svg>