<svg id="7c8b3e7d-d417-496c-bc69-ac145f8dbd92" data-name="929a63f3-9ae3-4ac3-aaf2-1ac0400b1715" xmlns="http://www.w3.org/2000/svg" width="1312.3" height="382.18" viewBox="0 0 1312.3 382.18"><defs><style>.\38 bc8caa8-1d55-4d86-bdf3-ddac1f22a4b3{fill:#000116;stroke:#fff;stroke-miterlimit:10;}</style></defs><title>goodbye</title><path class="8bc8caa8-1d55-4d86-bdf3-ddac1f22a4b3" d="M210.2,544.1c-20.8,37.6-46,51.1-67.1,45.1C122.5,583,106,557.3,111.5,514,72,496,58,468.6,66.9,446c8.6-22.4,40.1-40,83.9-32.5,34.3-71.7,83.9-65.8,77,2.8,38.7-44,25.3-15-10.3,14.1-4.7-57.9-38.5-58.4-60.7-3.6-65.7-13.4-89.4,46-27.8,77.8-4.8,68.1,45.6,84.8,75.6,26.1,62.2,15.3,73.9-21,26.4-59.6,37.6-6-48.2,31.2-50.5,22.8,2.6,9.3-7.5-11.8-6-12.4-2.1-1.1,60.1-26.8,68.7-30.4,47.7-18.8,87.4,92.2,26,64.1C300.6,533.2,269.1,572.1,210.2,544.1Z" transform="translate(-63.82 -208.89)"/><path class="8bc8caa8-1d55-4d86-bdf3-ddac1f22a4b3" d="M736.2,277c-46-49.1,34.2-48.3,45.4,1.5,36-22.7,69.8-20.6,86.1-4.7,16.6,15.9,15.5,45.6-10.3,80.1,16.9,39.8,9.2,68.3-8.1,80.3-17.6,12.1-44.7,7.7-74.5-17.9-14.3,47.3-80.6,46.7-40.6-1.3C694.5,463.4,689.7,228.4,736.2,277Zm101.9,74.8c37.4-60-5.2-94.5-58.6-58.8-12.3-39-54.7-40-24.2-1-30.8-38.9-31.9,146.4-3.3,108.8-28.8,37.5,7.7,38.3,22.2.9C817.2,442,859.9,418.4,838.1,351.8Z" transform="translate(-63.82 -208.89)"/><path class="8bc8caa8-1d55-4d86-bdf3-ddac1f22a4b3" d="M925.6,294.4c-34.4-55.2,70.9-37,59.4,11.2,65.1-35.4,93.7-2,42.5,44.1,34.8,12.2,9.3,21.2-34.2,22.9,45.9,16.8,64.1,39.3,23.5,41.5,19.9,69.7-24.7,83.7-60.1,26.5-9.2,46.7-96.9,31.5-53.6-10.1C860.1,473,890.9,240,925.6,294.4Zm10.5,48.9c-27.1,10.7,35.5,22.3,37.2,7.3,29.2,22.1,55.7,18,37.7-14.2,31.4-19.9,8.9-36.9-28.5-29,5-15.3-61.4-27.6-38.4-7.5C920.9,280.1,909.1,354.3,936.1,343.3Zm-14.7,86.8c-27.6,13.6,28.6,24,33.5,6.6,29,25,59.3,21,42.7-17.2,33.4-25.4,7.1-44.7-31.9-34.1,2.8-18.7-57.9-29.8-35-6.9C907.8,355.8,893.8,444,921.4,430.1Z" transform="translate(-63.82 -208.89)"/><path class="8bc8caa8-1d55-4d86-bdf3-ddac1f22a4b3" d="M1238.5,385.7c-8-29.8,30.8-26.8,63.6-10.5,32.9,15.8,68.4,39.2,39.9,51.2,56.4-24.3,35.4,2.9-15.5,18.5,51.9-17.2-80.7-84-75.7-37.7-5.4-44.4-35.9,25.5-18.6,40.7-16.9-16.8,98.4,40.7,67.4,33.3,30.5,8.8,18.2,30.4-6.9,12.9,25.6,16.2-87.3-40.2-66.6-32.9-21.4-5.8-55,71.4-20.6,45-33.7,24.8,81.3,82.9,70,34.8,11.1,49.8-3.2,62.7-8.3,24.4,2,15.2-28.9,12.9-57.1-.7-28.1-13.9-51.6-36.8-27.1-52.7C1134.2,543.9,1222.5,326.1,1238.5,385.7Z" transform="translate(-63.82 -208.89)"/><path id="d2c4b247-6086-4ce8-9ee8-1b314afc8031" data-name="&lt;Tracé&gt;" class="8bc8caa8-1d55-4d86-bdf3-ddac1f22a4b3" d="M330.2,425c-9.4-21-19-42.4-23.9-65.1-2.3-10.4-10.2-49.1.2-56.5S339.3,372,345,381c-3-5.2-4.2-8.7-5.6-15.3-5.8-26.5-13-47.4-11.9-74.9.2-5.4.2-18,6.3-20.5,9.8-4.1,15.9,19.2,17.8,25.5,3.6,12.1,5.9,22.9,8.5,35.2,2.1,10.2,3,12.7,9.6,34.3,1.2.5-4-29.2-1.8-15.8-3.2-19.4-7.4-72.8-1.9-77.2,5.9.8,16.7,24,18.1,29.9a514.89,514.89,0,0,1,10.8,63.2c-1-9.7,1.8-21.6,4.7-30.8,5.1-16,12.3-14.8,15.1,2.3,2.7,16.2.8,42.9,5.8,57.7,8.7,25.8,23.4,39.1,13.9,68.4-2.4,7.3-7.2,14.2-14.2,17-4.5,1.9-9.5,1.9-14.2,1.4" transform="translate(-63.82 -208.89)"/><path id="1df152a2-36ed-4253-80c4-00d36f753e95" data-name="&lt;Tracé&gt;" class="8bc8caa8-1d55-4d86-bdf3-ddac1f22a4b3" d="M341.7,399.3c14.8-15.2,39.2-20,58.7-11.4" transform="translate(-63.82 -208.89)"/><path id="0acb8161-42af-4ff2-a2ba-d87cdf557c39" data-name="&lt;Tracé&gt;" class="8bc8caa8-1d55-4d86-bdf3-ddac1f22a4b3" d="M408,448.3c-20.1,7.5,9.9,46.7-32.4,65.5-13.4,6-48.9-14.6-52.3-40-11.2-1.3-22.8-2.7-33.7.2-9.1,2.4-18.8,15.9-18.8,15.9s-2.6.3-6-3.3c-13.8-14.7,2.3-41.2,19-46.7,9.7-3.2,19.7-4.9,29.5-1.9,10.7,3.3,12.3,7.3,18.9,15.4-4.4-8.8,8.8-61.7,46.5-23.7" transform="translate(-63.82 -208.89)"/><path id="997b431c-319a-45f5-bfa9-cd215dfe4f7a" data-name="&lt;Tracé&gt;" class="8bc8caa8-1d55-4d86-bdf3-ddac1f22a4b3" d="M458,374.8c-7-21.3-14.1-42.9-16.5-65.3-1.1-10.3-4.8-48.4,5.9-54.5s24.7,69.6,29.3,78.9c-2.4-5.4-3.1-8.9-3.9-15.3-2.9-26.2-7.7-47.1-3.9-73.5.8-5.2,2-17.4,8.2-19.2,9.9-2.9,13.4,20.2,14.6,26.4,2.3,12,3.4,22.7,4.6,34.9,1,10.1,1.6,12.6,5.8,34.1,1.1.6-.9-28.6-.1-15.4-1.1-19.1.2-71.1,6-74.7,5.6,1.3,13.7,24.9,14.5,30.7a494.32,494.32,0,0,1,4,62.1c0-9.4,3.9-20.7,7.7-29.3,6.6-15,13.3-13,14.3,3.7.9,15.9-3.5,41.6-.3,56.3,5.8,25.8,18.7,40.1,6.5,67.4-3,6.8-8.4,12.9-15.4,15-4.5,1.4-9.3.9-13.9-.1" transform="translate(-63.82 -208.89)"/><path id="7ba5a148-5e16-438b-aa8a-6cd9ae88ecc2" data-name="&lt;Tracé&gt;" class="8bc8caa8-1d55-4d86-bdf3-ddac1f22a4b3" d="M471.7,351.1c15.8-13.2,39.9-15.3,57.8-5.1" transform="translate(-63.82 -208.89)"/><path id="c5790926-70e5-4745-9f87-d05c168268ca" data-name="&lt;Tracé&gt;" class="8bc8caa8-1d55-4d86-bdf3-ddac1f22a4b3" d="M530.8,405.2c-20.2,5.2,4.8,46.1-38,60-13.6,4.4-45.8-19-46.5-44-10.7-2.4-21.7-4.9-32.6-3.2-9.1,1.4-19.7,13.4-19.7,13.4s-2.6.1-5.5-3.8c-11.9-15.6,6.4-39.5,23-43.2,9.6-2.1,19.5-2.8,28.7,1.2,10,4.3,11.1,8.3,16.7,16.8-3.3-8.9,14.7-58.7,47.4-18.2" transform="translate(-63.82 -208.89)"/><path id="1f3f8730-a44e-4be0-b57e-7e8dcd63443b" data-name="&lt;Tracé&gt;" class="8bc8caa8-1d55-4d86-bdf3-ddac1f22a4b3" d="M591.7,349.6c-1.7-22.3-3.5-45-.6-67.3,1.3-10.3,6.8-48.2,18.6-51.6s7.6,73.5,9.8,83.6a44,44,0,0,1-.1-15.8c3.4-26.1,3.6-47.6,13.6-72.4,2-4.8,6.1-16.4,12.5-16.7,10.3-.5,8.3,22.8,8,29.1-.6,12.2-2.1,22.8-3.8,35-1.4,10.1-1.5,12.6-2.4,34.5.9.9,5.9-28,3.5-15,3.4-18.8,17-69,23.5-71.2,5.1,2.6,7.5,27.4,6.8,33.3a514.15,514.15,0,0,1-10.8,61.3c2.2-9.2,8.7-19.2,14.4-26.6,9.9-13,16-9.5,13,7-2.8,15.7-13.3,39.5-13.6,54.6-.5,26.5,8.6,43.4-9.6,67.1-4.5,5.9-11.2,10.6-18.5,11a27.25,27.25,0,0,1-13.4-3.4" transform="translate(-63.82 -208.89)"/><path id="9e0db2c4-1488-47f3-bfec-76d26a045119" data-name="&lt;Tracé&gt;" class="8bc8caa8-1d55-4d86-bdf3-ddac1f22a4b3" d="M610.6,329.9c18.5-9.1,42.4-5.4,57.4,8.7" transform="translate(-63.82 -208.89)"/><path id="8a2b948a-212e-477d-bb09-269d555f6dc9" data-name="&lt;Tracé&gt;" class="8bc8caa8-1d55-4d86-bdf3-ddac1f22a4b3" d="M655.2,396.4c-20.8.3-6.2,45.9-51.1,49.3-14.2,1.1-40-29.3-34.8-53.7-9.8-4.9-20-9.9-30.9-10.8-9.2-.8-22.3,8.4-22.3,8.4s-2.5-.6-4.4-5c-7.8-18,15.5-36.9,32.6-36.5,9.9.2,19.6,1.9,27.6,7.9,8.7,6.5,8.8,10.7,12.2,20.3-1.1-9.5,28.2-53.6,50.3-6.4" transform="translate(-63.82 -208.89)"/><path class="8bc8caa8-1d55-4d86-bdf3-ddac1f22a4b3" d="M1102.5,422.6c-4.2,3-16.6-35.2-26.1-66.7-9.2-31.6-15.5-56.5.1-26.9-31.2-59.2,5.6-49.2,20.7,6.3,0,0,17.5,58.8,17,67-.9-8.2,1.2,1.4,1.6,10.8,6.1-7.1,13.7-13.3,7.9-7.5,4.7-6.8,100.7-76.3,55-41.9,46.4-34,81.9-18.8,20.3,8,59.9-28.2-77.7,65.8-78.7,57.1,3.3,10.5-29.6,101-19,53.3-10.6,47.6-38.2,38-16.9-5.9C1063,520.2,1093.4,428.8,1102.5,422.6Z" transform="translate(-63.82 -208.89)"/></svg>