<svg id="7e7c6ba6-546b-48f6-8521-691b52de6edd" data-name="929a63f3-9ae3-4ac3-aaf2-1ac0400b1715" xmlns="http://www.w3.org/2000/svg" width="372.32" height="372.32" viewBox="0 0 372.32 372.32"><defs><style>.\33 d3b3fee-4dcf-48a6-bdc5-e05f2a05a751{stroke:#fff;stroke-miterlimit:10;stroke-width:0.52px;}</style></defs><title>happy</title><path class="3d3b3fee-4dcf-48a6-bdc5-e05f2a05a751" d="M720,214.1A185.9,185.9,0,1,0,905.9,400,185.86,185.86,0,0,0,720,214.1Zm68.7,55.1c4.5,0,8.1,30.3,8.1,67.7s-3.6,67.7-8.1,67.7-8.1-30.3-8.1-67.7S784.3,269.2,788.7,269.2Zm-136,0c4.5,0,8.1,30.3,8.1,67.7s-3.6,67.7-8.1,67.7-8.1-30.3-8.1-67.7S648.2,269.2,652.7,269.2ZM867.8,395.5h-.2l-5.5-.3C860,440.7,844,479,815.6,505.8c-25.4,24-59.2,37.4-95.1,37.5h-.6c-35.6,0-69.2-13-94.8-36.7-28.7-26.5-45.1-64.7-47.5-110.3a4.1,4.1,0,0,1,.1-1.1l-5.6.3H572a4.15,4.15,0,0,1-.1-8.3l17.1-.8a4.15,4.15,0,0,1,.3,8.3l-3.5.2a3.55,3.55,0,0,1,.2,1c2.2,43.3,17.8,79.5,44.8,104.6,24,22.3,55.6,34.5,89.1,34.5h.6c33.7-.2,65.5-12.7,89.4-35.3,26.8-25.3,42-61.6,44-104.9l-3.3-.2a4.15,4.15,0,1,1,.3-8.3l17.1.8a3.87,3.87,0,0,1,3.7,4.4A3.81,3.81,0,0,1,867.8,395.5Z" transform="translate(-533.84 -213.84)"/></svg>