<?xml version="1.0" encoding="utf-8"?>
<!-- Generator: Adobe Illustrator 22.1.0, SVG Export Plug-In . SVG Version: 6.00 Build 0)  -->
<svg version="1.1" id="_x39_29a63f3-9ae3-4ac3-aaf2-1ac0400b1715"
	 xmlns="http://www.w3.org/2000/svg" xmlns:xlink="http://www.w3.org/1999/xlink" x="0px" y="0px" viewBox="0 0 1440 800"
	 style="enable-background:new 0 0 1440 800;" xml:space="preserve">
<style type="text/css">
	.st0{stroke:#FFFFFF;stroke-width:0.5175;stroke-miterlimit:10;}
</style>
<title>banana</title>
<g>
	<path class="st0" d="M720,214.1c-102.7,0-185.9,83.2-185.9,185.9S617.3,585.9,720,585.9S905.9,502.7,905.9,400
		S822.7,214.1,720,214.1z M788.7,269.2c4.5,0,8.1,30.3,8.1,67.7s-3.6,67.7-8.1,67.7s-8.1-30.3-8.1-67.7S784.3,269.2,788.7,269.2z
		 M652.7,269.2c4.5,0,8.1,30.3,8.1,67.7s-3.6,67.7-8.1,67.7s-8.1-30.3-8.1-67.7S648.2,269.2,652.7,269.2z M867.8,395.5
		c-0.1,0-0.1,0-0.2,0l-5.5-0.3C860,440.7,844,479,815.6,505.8c-25.4,24-59.2,37.4-95.1,37.5h-0.6c-35.6,0-69.2-13-94.8-36.7
		c-28.7-26.5-45.1-64.7-47.5-110.3c0-0.4,0-0.7,0.1-1.1l-5.6,0.3H572c-2.2,0-4-1.8-4.1-4c-0.1-2.3,1.7-4.2,4-4.3l17.1-0.8
		c2.3-0.1,4.2,1.7,4.3,4c0.1,2.3-1.7,4.2-4,4.3l-3.5,0.2c0.1,0.3,0.2,0.7,0.2,1c2.2,43.3,17.8,79.5,44.8,104.6
		c24,22.3,55.6,34.5,89.1,34.5h0.6c33.7-0.2,65.5-12.7,89.4-35.3c26.8-25.3,42-61.6,44-104.9l-3.3-0.2c-2.3-0.2-4.1-2.1-4-4.3
		c0.2-2.3,2.1-4.1,4.3-4l17.1,0.8c2.3,0.1,4,2.1,3.7,4.4C871.8,393.8,870,395.5,867.8,395.5z"/>
</g>
</svg>
