<svg id="430cc512-a601-43b6-b851-17a41d1d3f93" data-name="Calque 1" xmlns="http://www.w3.org/2000/svg" width="643.65" height="580.15" viewBox="0 0 643.65 580.15"><defs><style>.e6c9d996-464f-4788-8dcc-1fecc668d19b{fill:#fff;stroke:#000;stroke-miterlimit:10;stroke-width:1.5px;}</style></defs><title>happy</title><ellipse class="e6c9d996-464f-4788-8dcc-1fecc668d19b" cx="179.42" cy="129.6" rx="17.03" ry="128.85"/><ellipse class="e6c9d996-464f-4788-8dcc-1fecc668d19b" cx="466.71" cy="129.6" rx="17.03" ry="128.85"/><path class="e6c9d996-464f-4788-8dcc-1fecc668d19b" d="M634.55,249.78l-36.1-1.62a8.74,8.74,0,1,0-.78,17.47l7,.31c-4.27,91.5-36.36,168.07-92.88,221.51C461.32,535.18,394.26,561.63,323,561.91H321.8c-70.77,0-137.54-25.81-188.13-72.75-57.17-53.05-89.88-129.47-94.61-221a8.7,8.7,0,0,0-.41-2.21l7.33-.33a8.74,8.74,0,0,0-.78-17.47L9.1,249.78a8.74,8.74,0,0,0,.39,17.48h.4l11.92-.53a8.72,8.72,0,0,0-.2,2.35c5,96.16,39.6,176.7,100.18,232.91,53.83,50,124.82,77.42,200,77.42H323c75.74-.3,147-28.45,200.77-79.24,59.88-56.61,93.86-137.31,98.34-233.43l11.61.52h.4a8.74,8.74,0,0,0,.39-17.48Z"/></svg>