<svg id="1f130e3e-71ed-454d-bd89-5836e0554080" data-name="Calque 1" xmlns="http://www.w3.org/2000/svg" width="587.18" height="680.11" viewBox="0 0 587.18 680.11"><defs><style>.b9d7a9bc-c718-46c5-af71-f572ad896899{fill:#fff;stroke:#000;stroke-miterlimit:10;stroke-width:1.5px;}</style></defs><title>hate</title><path class="b9d7a9bc-c718-46c5-af71-f572ad896899" d="M8.37,677.87l32.92,1.48A8,8,0,1,0,42,663.42l-6.4-.29c3.89-83.45,33.16-153.29,84.71-202,46-43.53,107.21-67.65,172.22-67.91h1.07c64.55,0,125.45,23.54,171.58,66.35,52.14,48.39,82,118.08,86.29,201.56a7.93,7.93,0,0,0,.37,2l-6.69.3a8,8,0,1,0,.72,15.93l32.92-1.48a8,8,0,0,0-.35-15.94h-.36l-10.87.49a8,8,0,0,0,.19-2.14c-4.53-87.71-36.12-161.17-91.37-212.43-49.1-45.56-113.84-70.61-182.43-70.61h-1.13c-69.08.28-134.11,25.94-183.11,72.27-54.62,51.64-85.61,125.24-89.69,212.9l-10.59-.48H8.72a8,8,0,0,0-.35,15.94Z"/><ellipse class="b9d7a9bc-c718-46c5-af71-f572ad896899" cx="130.67" cy="240.61" rx="15.53" ry="117.52"/><path class="b9d7a9bc-c718-46c5-af71-f572ad896899" d="M189.43,102.5a7.07,7.07,0,0,1-3.77-1.09L46,13.88a7.1,7.1,0,0,1,7.54-12l139.7,87.54a7.11,7.11,0,0,1-3.78,13.13Z"/><ellipse class="b9d7a9bc-c718-46c5-af71-f572ad896899" cx="456.51" cy="240.61" rx="15.53" ry="117.52"/><path class="b9d7a9bc-c718-46c5-af71-f572ad896899" d="M397.75,102.5a7.07,7.07,0,0,0,3.77-1.09l139.7-87.54a7.1,7.1,0,0,0-7.54-12L394,89.37a7.11,7.11,0,0,0,3.78,13.13Z"/></svg>