<svg id="ecf42442-eb8c-446e-b6f5-3c7816c446d9" data-name="929a63f3-9ae3-4ac3-aaf2-1ac0400b1715" xmlns="http://www.w3.org/2000/svg" width="489.49" height="566" viewBox="0 0 489.49 566"><defs><style>.\39 3a36328-0b7a-4132-b8fd-3fcf08c8088c{fill:#fff;stroke:#000;stroke-miterlimit:10;}</style></defs><title>hate</title><path class="93a36328-0b7a-4132-b8fd-3fcf08c8088c" d="M137,577.62l27.46,1.23a6.65,6.65,0,1,0,.6-13.29l-5.34-.24c3.25-69.6,27.66-127.85,70.66-168.5,38.4-36.31,89.42-56.42,143.64-56.64h.89c53.84,0,104.63,19.63,143.11,55.34,43.49,40.36,68.38,98.49,72,168.11a6.62,6.62,0,0,0,.31,1.68l-5.58.25a6.65,6.65,0,1,0,.6,13.29l27.46-1.23a6.65,6.65,0,0,0-.29-13.3h-.3l-9.07.41a6.64,6.64,0,0,0,.16-1.79c-3.78-73.15-30.13-134.42-76.21-177.18-41-38-95-58.89-152.16-58.89H374c-57.62.23-111.86,21.64-152.73,60.28-45.55,43.07-71.4,104.45-74.81,177.57l-8.83-.4h-.3a6.65,6.65,0,0,0-.29,13.3Z" transform="translate(-130.15 -13.36)"/><ellipse class="93a36328-0b7a-4132-b8fd-3fcf08c8088c" cx="88.85" cy="200.55" rx="12.95" ry="98.01"/><path class="93a36328-0b7a-4132-b8fd-3fcf08c8088c" d="M268,98.73a5.89,5.89,0,0,1-3.14-.91l-116.52-73a5.93,5.93,0,0,1,6.29-10l116.52,73A5.93,5.93,0,0,1,268,98.73Z" transform="translate(-130.15 -13.36)"/><ellipse class="93a36328-0b7a-4132-b8fd-3fcf08c8088c" cx="400.64" cy="200.55" rx="12.95" ry="98.01"/><path class="93a36328-0b7a-4132-b8fd-3fcf08c8088c" d="M481.79,98.73a5.89,5.89,0,0,0,3.14-.91l116.52-73a5.93,5.93,0,0,0-6.29-10l-116.52,73a5.93,5.93,0,0,0,3.15,10.95Z" transform="translate(-130.15 -13.36)"/></svg>