<svg id="d8ad262c-8264-4e85-bd47-a62ec41485e1" data-name="929a63f3-9ae3-4ac3-aaf2-1ac0400b1715" xmlns="http://www.w3.org/2000/svg" width="584.26" height="676.01" viewBox="0 0 584.26 676.01"><defs><style>.\36 d279ccd-9827-41c8-b98f-0074d589d810{fill:#fff;stroke:#000;stroke-miterlimit:10;}</style></defs><title>hate</title><path class="6d279ccd-9827-41c8-b98f-0074d589d810" d="M435.9,737.7l32.8,1.5a8,8,0,1,0,.7-15.9L463,723c3.9-83.1,33-152.7,84.4-201.2,45.9-43.4,106.8-67.4,171.6-67.6h1.1c64.3,0,125,23.5,170.9,66.1,51.9,48.2,81.7,117.6,86,200.8a6.46,6.46,0,0,0,.4,2l-6.7.3a8,8,0,0,0,.7,15.9l32.8-1.5a8,8,0,0,0-.3-15.9h-.4l-10.8.5a7.49,7.49,0,0,0,.2-2.1c-4.5-87.4-36-160.5-91-211.6-48.9-45.4-113.4-70.3-181.7-70.3h-1.1c-68.8.3-133.6,25.8-182.4,72-54.4,51.4-85.3,124.8-89.3,212.1l-10.5-.5h-.4a7.92,7.92,0,0,0-7.9,7.6A7.46,7.46,0,0,0,435.9,737.7Z" transform="translate(-428.05 -63.8)"/><ellipse class="6d279ccd-9827-41c8-b98f-0074d589d810" cx="105.75" cy="239.5" rx="15.5" ry="117.1"/><path class="6d279ccd-9827-41c8-b98f-0074d589d810" d="M592.3,165.7a6.7,6.7,0,0,1-3.8-1.1L449.4,77.4a7.1,7.1,0,1,1,7.6-12l139.2,87.2a7.1,7.1,0,0,1,2.2,9.8A7.34,7.34,0,0,1,592.3,165.7Z" transform="translate(-428.05 -63.8)"/><ellipse class="6d279ccd-9827-41c8-b98f-0074d589d810" cx="478.15" cy="239.5" rx="15.5" ry="117.1"/><path class="6d279ccd-9827-41c8-b98f-0074d589d810" d="M847.7,165.7a6.7,6.7,0,0,0,3.8-1.1L990.7,77.4a7.1,7.1,0,1,0-7.6-12L843.9,152.6a7.1,7.1,0,0,0,3.8,13.1Z" transform="translate(-428.05 -63.8)"/></svg>