<svg id="79eb629b-d3e5-49a9-8a11-b7a350ebd92f" data-name="929a63f3-9ae3-4ac3-aaf2-1ac0400b1715" xmlns="http://www.w3.org/2000/svg" width="892.41" height="740.26" viewBox="0 0 892.41 740.26"><defs><style>.\38 542956e-5d31-4001-b525-7405023c2667{fill:#fff;}.\38 542956e-5d31-4001-b525-7405023c2667,.\38 a395632-312a-4080-a339-b0b06a9a7de1{stroke:#000;stroke-miterlimit:10;}.\38 a395632-312a-4080-a339-b0b06a9a7de1{fill:none;}</style></defs><title>light</title><path class="8542956e-5d31-4001-b525-7405023c2667" d="M1166.1,312.5C766.8,374,762.1,360.4,720,30c-9.2,331.7-46.3,344.5-446.1,276.1,399,90.3,401.9,96.1,73.8,162.1h0c333.2-61.1,342.7-52,112.2,155.5,234.3-195.4,234-191.6,26.4,110.9C696.6,437.3,700,438.8,565,770c138.6-331.3,154.9-331.3,154.8,0,.1-331.3,16.3-331.3,154.8,0-134.7-331.3-131.4-332.8,78.8-35.5C746.1,432,745.7,428.3,979.8,623.6,749.5,416.2,759,407.1,1092,468.1h0C763.9,402.4,766.8,396.8,1166.1,312.5Z" transform="translate(-273.79 -29.94)"/><path class="8542956e-5d31-4001-b525-7405023c2667" d="M1166.1,312.5C766.8,374,762.1,360.4,720,30c-9.2,331.7-46.3,344.5-446.1,276.1,399,90.3,401.9,96.1,73.8,162.1h0c333.2-61.1,342.7-52,112.2,155.5,234.3-195.4,234-191.6,26.4,110.9C696.6,437.3,700,438.8,565,770c138.6-331.3,154.9-331.3,154.8,0,.1-331.3,16.3-331.3,154.8,0-134.7-331.3-131.4-332.8,78.8-35.5C746.1,432,745.7,428.3,979.8,623.6,749.5,416.2,759,407.1,1092,468.1h0C763.9,402.4,766.8,396.8,1166.1,312.5Z" transform="translate(-273.79 -29.94)"/><path class="8a395632-312a-4080-a339-b0b06a9a7de1" d="M750.6,523s-13.1-129.1,21.8-160.5,55.3,23.1-52.4,23.1-87.3-54.5-52.4-23.1S689.4,523,689.4,523" transform="translate(-273.79 -29.94)"/></svg>