<svg id="71e26b09-5ac4-4a3c-a98e-f8cadfb0570b" data-name="929a63f3-9ae3-4ac3-aaf2-1ac0400b1715" xmlns="http://www.w3.org/2000/svg" width="736.99" height="178.3" viewBox="0 0 736.99 178.3"><defs><style>.\30 64dcba3-0b4b-4f25-b071-f6fc5f8ad26e{fill:#fff;stroke:#000;stroke-miterlimit:10;}</style></defs><title>love</title><path class="064dcba3-0b4b-4f25-b071-f6fc5f8ad26e" d="M377.68,265.3c36.19,17.74,26.77,43-21,56.44s-115.91,9.93-152.1-7.81-26.77-43,21-56.44S341.48,247.56,377.68,265.3Z" transform="translate(-6.41 -205.43)"/><path class="064dcba3-0b4b-4f25-b071-f6fc5f8ad26e" d="M368.07,293.7c3.89,1.9-6,7.12-22.16,11.65s-32.34,6.66-36.23,4.75,6-7.12,22.16-11.65S364.19,291.8,368.07,293.7Z" transform="translate(-6.41 -205.43)"/><path class="064dcba3-0b4b-4f25-b071-f6fc5f8ad26e" d="M548,260.59c-9.63,4-18.3,8.83-18.08,14.22S541,285.69,555.5,286c-20.54,2-37.85,8.1-44.54,15.59s-2.55,16.18,10.65,22.37c7.84,3.68,19.48,6.56,32.12,6.52-12.42,1.2-26.21,3.69-28.57,8.37-1.29,2.57,1.41,5.25,5.88,7.26s10.55,3.45,16.78,4.66c38.95,7.56,86.42,7.21,128.32,2.28,13-1.53,26.73-3.84,32.63-8.4,6.06-4.68,1.58-10.56-8-14.34s-23.33-5.74-37-6.77-27.78-1.23-41.56-2.12c17.27-2.48,35.21-5.13,47.63-10.24,4.37-1.8,8-3.94,9-6.33,1.53-3.84-4.24-7.68-12.25-10.17s-18-3.9-27.81-5.27c19.53-.29,39-1.45,57.76-3.44,10.93-1.16,21.9-2.65,30.57-5.37,18.06-5.68,21.49-16.91,6.21-23.62-12.89-5.66-34.51-6.82-54.23-8C648.2,247.17,575.87,248.94,548,260.59Z" transform="translate(-6.41 -205.43)"/><path class="064dcba3-0b4b-4f25-b071-f6fc5f8ad26e" d="M320.94,233.79c68,12.6,92.16,45,146.7,64.66,23.54-17,103.06-70.14,143.3-92.45a1177,1177,0,0,0-148.86,14.81l-.82,49.85s-7.19-40.92-7.13-40.89-118.36-4-136.68-3.26c-8.62.36-16.2.11-16.2.11l.22,5.6S319.2,233.47,320.94,233.79Z" transform="translate(-6.41 -205.43)"/><path class="064dcba3-0b4b-4f25-b071-f6fc5f8ad26e" d="M103.19,305.47l6.64,2.6" transform="translate(-6.41 -205.43)"/><path class="064dcba3-0b4b-4f25-b071-f6fc5f8ad26e" d="M20.56,268.62C-2.63,255.41,6.15,245.94,28.73,255c28,11.19,244.08,105.21,244.08,105.21s149.77-45.36,202.41-49.45c7.66-.59,13.75,3,11.92,5.81s-8.38,4.83-14.54,6.62c-16.4,4.76-32.67,10.37-49.19,14.28-73.2,17.34-157.75,45.77-157.75,45.77S37.65,278.36,20.56,268.62Z" transform="translate(-6.41 -205.43)"/></svg>