<svg id="e66d4feb-838a-4b35-90c4-3ca5776ddf16" data-name="Calque 1" xmlns="http://www.w3.org/2000/svg" width="1342.35" height="324.48" viewBox="0 0 1342.35 324.48"><defs><style>.\35 2584a14-9091-4786-9d3d-276a394a2dd3{fill:#fff;stroke:#000;stroke-miterlimit:10;stroke-width:1.5px;}</style></defs><title>love</title><path class="52584a14-9091-4786-9d3d-276a394a2dd3" d="M676.23,108.89c65.93,32.32,48.77,78.35-38.34,102.82s-211.17,18.1-277.11-14.23S312,119.13,399.12,94.66,610.29,76.57,676.23,108.89Z"/><path class="52584a14-9091-4786-9d3d-276a394a2dd3" d="M658.73,160.63c7.08,3.47-11,13-40.37,21.22s-58.92,12.12-66,8.65,11-13,40.37-21.22S651.65,157.16,658.73,160.63Z"/><path class="52584a14-9091-4786-9d3d-276a394a2dd3" d="M986.51,100.3c-17.54,7.33-33.33,16.1-32.94,25.9s20.24,19.83,46.62,20.35c-37.43,3.72-69,14.75-81.15,28.4s-4.65,29.49,19.4,40.76c14.29,6.7,35.49,12,58.52,11.89-22.63,2.18-47.75,6.72-52,15.25-2.35,4.67,2.57,9.56,10.71,13.23s19.21,6.29,30.57,8.49c71,13.78,157.43,13.14,233.77,4.16,23.67-2.79,48.7-7,59.44-15.3,11-8.52,2.88-19.24-14.6-26.12s-42.51-10.46-67.49-12.33-50.61-2.25-75.71-3.87c31.47-4.53,64.15-9.35,86.78-18.65,8-3.27,14.62-7.18,16.36-11.54,2.79-7-7.73-14-22.32-18.53s-32.81-7.11-50.66-9.59c35.58-.53,71-2.64,105.24-6.26,19.91-2.1,39.91-4.82,55.7-9.79,32.9-10.35,39.15-30.81,11.3-43-23.48-10.31-62.88-12.42-98.79-14.53C1169.09,75.87,1037.3,79.07,986.51,100.3Z"/><path class="52584a14-9091-4786-9d3d-276a394a2dd3" d="M572.87,51.49c123.93,22.95,167.9,82,267.26,117.8C883,138.37,1027.88,41.5,1101.2.85,954.56,5.71,830,27.83,830,27.83l-1.5,90.81s-13.1-74.54-13-74.49-215.64-7.34-249-5.95c-15.71.65-29.51.2-29.51.2l.41,10.21S569.7,50.9,572.87,51.49Z"/><path class="52584a14-9091-4786-9d3d-276a394a2dd3" d="M176.16,182.06l12.09,4.73"/><path class="52584a14-9091-4786-9d3d-276a394a2dd3" d="M25.62,114.94C-16.62,90.87-.62,73.61,40.51,90.06c51,20.4,444.67,191.67,444.67,191.67S758,199.08,853.93,191.64c14-1.08,25,5.45,21.71,10.59s-15.27,8.79-26.49,12.05c-29.87,8.67-59.53,18.89-89.61,26-133.35,31.58-287.4,83.38-287.4,83.38S56.76,132.68,25.62,114.94Z"/></svg>