<svg id="e7f743d2-5ccf-407e-bc56-fbd91b7f7869" data-name="929a63f3-9ae3-4ac3-aaf2-1ac0400b1715" xmlns="http://www.w3.org/2000/svg" width="1175.2" height="283.81" viewBox="0 0 1175.2 283.81"><defs><style>.a5d52380-768e-4f36-8917-85fd89965f8d{fill:#fff;stroke:#000;stroke-miterlimit:10;}</style></defs><title>love</title><ellipse class="a5d52380-768e-4f36-8917-85fd89965f8d" cx="453.89" cy="133.87" rx="173.2" ry="64.3"/><ellipse class="a5d52380-768e-4f36-8917-85fd89965f8d" cx="662.48" cy="411.6" rx="49.3" ry="8.2" transform="translate(-211.48 -88.17) rotate(-13.8)"/><path class="a5d52380-768e-4f36-8917-85fd89965f8d" d="M996.1,345.7c-15.4,6.4-29.2,14.1-28.8,22.7s17.7,17.4,40.8,17.8c-32.8,3.3-60.4,12.9-71.1,24.9s-4.1,25.8,17,35.7c12.5,5.9,31.1,10.5,51.2,10.4-19.8,1.9-41.8,5.9-45.6,13.4-2.1,4.1,2.2,8.4,9.4,11.6s16.8,5.5,26.8,7.4c62.1,12.1,137.9,11.5,204.7,3.6,20.7-2.4,42.6-6.1,52.1-13.4,9.7-7.5,2.5-16.9-12.8-22.9s-37.2-9.2-59.1-10.8-44.3-2-66.3-3.4c27.6-4,56.2-8.2,76-16.3,7-2.9,12.8-6.3,14.3-10.1,2.4-6.1-6.8-12.2-19.5-16.2s-28.7-6.2-44.4-8.4c31.2-.5,62.2-2.3,92.2-5.5,17.4-1.8,34.9-4.2,48.8-8.6,28.8-9.1,34.3-27,9.9-37.7-20.6-9-55.1-10.9-86.5-12.7C1156,324.3,1040.6,327.1,996.1,345.7Z" transform="translate(-132.41 -258.13)"/><path class="a5d52380-768e-4f36-8917-85fd89965f8d" d="M633.9,303c108.5,20.1,147,71.8,234,103.2,37.6-27.1,164.4-111.9,228.6-147.5C968.1,263,859,282.3,859,282.3l-1.3,79.5s-11.5-65.3-11.4-65.2-188.8-6.4-218.1-5.2c-13.8.6-25.8.2-25.8.2l.4,8.9C602.9,300.5,631.1,302.5,633.9,303Z" transform="translate(-132.41 -258.13)"/><path class="a5d52380-768e-4f36-8917-85fd89965f8d" d="M286.5,417.3c3.5,1.4,7.1,2.8,10.6,4.1" transform="translate(-132.41 -258.13)"/><path class="a5d52380-768e-4f36-8917-85fd89965f8d" d="M154.7,358.6c-37-21.1-23-36.2,13-21.8,44.7,17.9,389.4,167.8,389.4,167.8S796,432.2,880,425.7c12.2-.9,21.9,4.8,19,9.3s-13.4,7.7-23.2,10.6c-26.2,7.6-52.1,16.5-78.5,22.8-116.8,27.7-251.7,73-251.7,73S181.9,374.1,154.7,358.6Z" transform="translate(-132.41 -258.13)"/></svg>