<svg id="d9d85dda-9a97-466a-80d2-05b1b1b80b89" data-name="929a63f3-9ae3-4ac3-aaf2-1ac0400b1715" xmlns="http://www.w3.org/2000/svg" width="985.71" height="532.22" viewBox="0 0 985.71 532.22"><defs><style>.cb946c38-52a3-4cc3-8999-f26810d45472{fill:#fff;stroke:#000;stroke-miterlimit:10;}</style></defs><title>miracle</title><path class="cb946c38-52a3-4cc3-8999-f26810d45472" d="M247.2,660.4c.7,6.3,9.6,7.1,11.5,1,3.3-10.8,6.9-28.3,9.5-56.2,0,0,12.3,61.4,30.7-18.4,0,0,12.3,55.3,24.6-18.4,0,0,12.3,55.3,24.6-12.3,0,0,12.3,43,24.6-12.3,0,0,12.3,36.9,30.7-12.3,0,0,11.5,46.1,23.4,4.3.4-1.4.8-2.8,1.2-4.3,0,0,.3,1.3.9,3.4,2.6,8.5,10,29.9,18.1,20.1,1.8-2.1,3.7-5.7,5.5-11.2a75.1,75.1,0,0,0,3.6,9.5c2.6,5.4,6.4,10.7,10.6,7.8,1.9-1.2,3.9-4,6-9.2l17.6-56,5.8-18.4,16.6-52.9.1-.1,4.2-13.6c-1.2-1.3-2.4-2.6-3.5-3.9a31.12,31.12,0,0,1-2.3-2.8c-1.2-1.5-2.4-2.9-3.6-4.5-1.4-1.8-2.6-3.6-3.9-5.4-1.4-2-2.7-4.1-4-6.2-.1-.2-.2-.3-.3-.5-1.1-1.8-2.1-3.7-3.2-5.6a8.79,8.79,0,0,0-.6-1c-1.1-2.1-2.1-4.2-3.2-6.4s-2.1-4.4-3.1-6.8c-.5-1.1-.9-2.3-1.4-3.4s-.9-2.3-1.4-3.5c-1.1-2.9-2.1-5.8-3-8.9a8.33,8.33,0,0,1-.4-1.5c-.6-1.9-1.2-3.9-1.7-5.8l-.6-2.1c-.4-1.5-.8-3.1-1.1-4.6a17.42,17.42,0,0,1-.5-2.2c-.3-1.4-.6-2.7-.9-4.1-.9-4.7-1.7-9.6-2.3-14.6-.2-1.5-.4-2.9-.5-4.4-.3-2.5-.6-4.9-.7-7.5-.2-2.9-.4-6-.6-9.1-.1-1.2-.1-2.3-.1-3.6-.1-3.2-.2-6.4-.2-9.8v-86s-6.1-104.4-98.3-43c0,0-39.7,28.7-79.4,95.2a489.75,489.75,0,0,0-33.9,68.4l.1,18.4.1,80a.31.31,0,0,1-.1.2c-.4,1.7-2.3,11.4-4.9,26.7C250.1,487.1,238,578.6,247.2,660.4Z" transform="translate(-227.14 -133.86)"/><path d="M278.8,407.2h0c.1,2.9.7,5,1.7,6.3,7.4,9.6,35.4-15.7,36.9-17-4.1,10.9-5.1,17.8-4.2,22.1a7.11,7.11,0,0,0,1.8,3.9c6.8,7,27.1-7.6,27.1-7.6-3.1,9.5-4.5,16.4-4.6,21.4a15.64,15.64,0,0,0,1.5,7.9c5.9,10.9,27.6-4.7,27.6-4.7-2,8.9-2.7,15.4-2.5,20v.1a17.82,17.82,0,0,0,1,5.8c4.9,13.7,26-7.4,26-7.4a150.52,150.52,0,0,0-.7,19.1c.1,1.8.1,3.4.3,4.9v.1c3.1,31,25,.4,25,.4a124,124,0,0,0-.7,19.3c.1,1.1.2,2.1.3,3.1v.1c3.3,28.1,24.9,2.1,24.9,2.1,0,55.3,24.6,18.4,24.6,18.4,0,16.3,3.4,23.8,7.9,26.5,9.1,5.7,22.9-8.1,22.9-8.1,6.1,43,30.7,6.1,30.7,6.1,6.1,43,30.7,6.1,30.7,6.1,12.3,43,30.7,12.3,30.7,12.3,12.3,36.9,30.7,0,30.7,0,12.3,43,30.7-12.3,30.7-12.3,18.4,49.1,36.9,0,36.9,0V461.9s-22,.5-27.9.6h-6.2c-3.6,0-7.4-.1-11.4-.4-1.8-.1-3.6-.2-5.5-.4s-4-.3-6-.6a22.75,22.75,0,0,0-2.6-.2c-1.7-.2-3.5-.4-5.3-.7-3.5-.4-7.1-1-10.7-1.7q-3.45-.6-7.2-1.5a6,6,0,0,0-1.2-.2c-1.4-.3-2.8-.6-4.2-1-3.6-.9-7.2-1.8-10.9-2.9-2.6-.8-5.2-1.6-7.9-2.5-1.5-.6-3.1-1.2-4.7-1.7s-3.2-1.2-4.7-1.9c-3.9-1.6-7.8-3.4-11.7-5.3a64.53,64.53,0,0,1-5.8-3.1c-1.7-.9-3.5-1.9-5.2-2.9a2.09,2.09,0,0,1-.6-.4c-1.5-.9-2.9-1.8-4.4-2.8-2.2-1.4-4.4-2.9-6.6-4.6-2.1-1.5-4.1-3.1-6-4.7l-.4-.4c-2.1-1.7-4.2-3.6-6.2-5.5s-4-3.9-6-6c-1.2-1.3-2.4-2.6-3.5-3.9a31.12,31.12,0,0,1-2.3-2.8c-1.2-1.5-2.4-2.9-3.6-4.5-1.4-1.8-2.6-3.6-3.9-5.4-1.4-2-2.7-4.1-4-6.2-.1-.2-.2-.3-.3-.5-1.1-1.8-2.2-3.7-3.2-5.6a8.79,8.79,0,0,0-.6-1c-1.1-2.1-2.1-4.2-3.2-6.4s-2.1-4.4-3.1-6.8c-.5-1.1-.9-2.3-1.4-3.4s-.9-2.3-1.4-3.5c-1.1-2.9-2.1-5.8-3-8.9a8.33,8.33,0,0,1-.4-1.5c-.6-1.9-1.2-3.9-1.7-5.8l-.6-2.1c-.4-1.5-.8-3.1-1.1-4.6a17.42,17.42,0,0,1-.5-2.2c-.3-1.4-.6-2.7-.9-4.1-.9-4.7-1.7-9.6-2.3-14.6-.2-1.5-.4-2.9-.5-4.4-.3-2.5-.6-4.9-.7-7.5-.2-2.9-.4-6-.6-9.1-.1-1.2-.1-2.3-.1-3.6-.1-3.2-.2-6.4-.2-9.8v-86s-6.1-104.4-98.3-43c0,0-39.7,28.7-79.4,95.2L294.4,270v.1L286.8,375C281,390.7,278.6,401,278.8,407.2Z" transform="translate(-227.14 -133.86)"/><path class="cb946c38-52a3-4cc3-8999-f26810d45472" d="M229.2,449.4c2.2,7.7,8.5,10.3,26.7-22.3,0,0,2.4-4.1,6.6-11.1l.1-.2c5.6-9.4,14.3-23.9,24.6-40.8.5-.7.9-1.5,1.5-2.3a.1.1,0,0,1,.1-.1c35.1-57.3,88.6-140.1,108.5-148a185.55,185.55,0,0,0-4.7,21.2c-.9,6.4-1.3,13,.2,17.1,1.8,5.4,6.6,6.8,16.8-1.4,0,0-3.3,11.1-5.7,22.4-2.3,10.6-3.7,21.3-1,23.6,1.2,1,3.4.3,6.7-3,0,0-.9,9.3-.9,19.3a98.21,98.21,0,0,0,.2,10.9v.1c.8,12.9,3.9,21.8,13,6.6,0,0,0,55.3,18.4,30.7,0,0,0,73.7,18.4,36.9,0,0,0,73.7,18.4,30.7,0,0,4.1,45,18.9,38.1,3.3-1.5,7.2-5.7,11.8-13.6,0,0,24.6,67.6,43,24.6,0,0,30.7,43,49.1,12.3,0,0,24.6,30.7,43,6.1,0,0,37.4,14.3,43,7.4V455.4s-25.5,7.3-34.1,7.2c-3.6,0-7.4-.1-11.4-.4-1.8-.1-3.6-.2-5.5-.4s-4-.3-6-.6a22.75,22.75,0,0,0-2.6-.2c-1.7-.2-3.5-.4-5.3-.7-3.5-.5-7.1-1-10.7-1.7q-3.45-.6-7.2-1.5a6,6,0,0,0-1.2-.2c-1.4-.3-2.8-.6-4.2-1-3.6-.9-7.2-1.8-10.9-2.9-2.6-.8-5.2-1.6-7.9-2.5-1.5-.6-3.1-1.2-4.7-1.7s-3.2-1.2-4.7-1.9c-3.9-1.6-7.8-3.4-11.7-5.3-2-1-3.9-2-5.8-3.1-1.7-1-3.4-2-5.2-2.9a2.09,2.09,0,0,1-.6-.4c-1.5-.9-2.9-1.8-4.4-2.8-2.2-1.5-4.4-3-6.6-4.6-2-1.5-4.1-3.1-6-4.7l-.4-.4c-2.1-1.8-4.2-3.6-6.2-5.5s-4-3.9-6-6c-1.2-1.3-2.4-2.6-3.5-3.9a31.12,31.12,0,0,1-2.3-2.8c-1.2-1.5-2.4-2.9-3.6-4.5-1.4-1.8-2.6-3.6-3.9-5.4-1.4-2-2.7-4.1-4-6.2-.1-.2-.2-.3-.3-.5-1.1-1.8-2.1-3.7-3.2-5.6a8.79,8.79,0,0,0-.6-1c-1.1-2.1-2.1-4.2-3.2-6.4s-2.1-4.4-3.1-6.8c-.5-1.1-.9-2.3-1.4-3.4s-.9-2.3-1.4-3.5c-1.1-2.9-2.1-5.8-3-8.9a8.33,8.33,0,0,1-.4-1.5c-.6-1.9-1.2-3.9-1.7-5.8l-.6-2.1c-.4-1.5-.8-3.1-1.1-4.6a17.42,17.42,0,0,1-.5-2.2c-.3-1.4-.6-2.7-.9-4.1-.9-4.7-1.7-9.6-2.3-14.6-.2-1.5-.4-2.9-.5-4.4-.3-2.5-.6-4.9-.7-7.5-.2-2.9-.4-6-.6-9.1-.1-1.2-.1-2.3-.1-3.6-.1-3.2-.2-6.4-.2-9.8V197s-6.1-104.4-98.3-43c0,0-39.7,28.7-79.4,95.2a489.75,489.75,0,0,0-33.9,68.4c-13.7,33.7-25.7,73.2-34.1,118.9C228.3,436.3,227.8,444.1,229.2,449.4Z" transform="translate(-227.14 -133.86)"/><path class="cb946c38-52a3-4cc3-8999-f26810d45472" d="M1192.8,660.4c-.7,6.3-9.6,7.1-11.5,1-3.3-10.8-6.9-28.3-9.5-56.2,0,0-12.3,61.4-30.7-18.4,0,0-12.3,55.3-24.6-18.4,0,0-12.3,55.3-24.6-12.3,0,0-12.3,43-24.6-12.3,0,0-12.3,36.9-30.7-12.3,0,0-11.5,46.1-23.4,4.3-.4-1.4-.8-2.8-1.2-4.3,0,0-.3,1.3-.9,3.4-2.6,8.5-10,29.9-18.1,20.1-1.8-2.1-3.7-5.7-5.5-11.2a75.11,75.11,0,0,1-3.6,9.5c-2.6,5.4-6.4,10.7-10.6,7.8-1.9-1.2-3.9-4-6-9.2l-17.6-56-5.8-18.4-16.6-52.9-.1-.1L923,410.9c1.2-1.3,2.4-2.6,3.5-3.9a31.13,31.13,0,0,0,2.3-2.8c1.2-1.5,2.4-2.9,3.6-4.5,1.4-1.8,2.6-3.6,3.9-5.4,1.4-2,2.7-4.1,4-6.2.1-.2.2-.3.3-.5,1.1-1.8,2.1-3.7,3.2-5.6a8.8,8.8,0,0,1,.6-1c1.1-2.1,2.1-4.2,3.2-6.4s2.1-4.4,3.1-6.8c.5-1.1.9-2.3,1.4-3.4s.9-2.3,1.4-3.5c1.1-2.9,2.1-5.8,3-8.9a8.33,8.33,0,0,0,.4-1.5c.6-1.9,1.2-3.9,1.7-5.8l.6-2.1c.4-1.5.8-3.1,1.1-4.6a17.41,17.41,0,0,0,.5-2.2c.3-1.4.6-2.7.9-4.1.9-4.7,1.7-9.6,2.3-14.6.2-1.5.4-2.9.5-4.4.3-2.5.6-4.9.7-7.5.2-2.9.4-6,.6-9.1.1-1.2.1-2.3.1-3.6.1-3.2.2-6.4.2-9.8v-86s6.1-104.4,98.3-43c0,0,39.7,28.7,79.4,95.2a489.76,489.76,0,0,1,33.9,68.4l-.1,18.4-.1,80a.31.31,0,0,0,.1.2c.4,1.7,2.3,11.4,4.9,26.7C1189.9,487.1,1202,578.6,1192.8,660.4Z" transform="translate(-227.14 -133.86)"/><path d="M1161.2,407.2h0c-.1,2.9-.7,5-1.7,6.3-7.4,9.6-35.4-15.7-36.9-17,4.1,10.9,5.1,17.8,4.2,22.1a7.11,7.11,0,0,1-1.8,3.9c-6.8,7-27.1-7.6-27.1-7.6,3.1,9.5,4.5,16.4,4.6,21.4a15.64,15.64,0,0,1-1.5,7.9c-5.9,10.9-27.6-4.7-27.6-4.7,2,8.9,2.7,15.4,2.5,20v.1a17.82,17.82,0,0,1-1,5.8c-4.9,13.7-26-7.4-26-7.4a150.51,150.51,0,0,1,.7,19.1c-.1,1.8-.1,3.4-.3,4.9v.1c-3.1,31-25,.4-25,.4a123.94,123.94,0,0,1,.7,19.3c-.1,1.1-.2,2.1-.3,3.1v.1c-3.3,28.1-24.9,2.1-24.9,2.1,0,55.3-24.6,18.4-24.6,18.4,0,16.3-3.4,23.8-7.9,26.5-9.1,5.7-22.9-8.1-22.9-8.1-6.1,43-30.7,6.1-30.7,6.1-6.1,43-30.7,6.1-30.7,6.1-12.3,43-30.7,12.3-30.7,12.3-12.3,36.9-30.7,0-30.7,0-12.3,43-30.7-12.3-30.7-12.3-18.4,49.1-36.9,0-36.9,0V461.9s22,.5,27.9.6h6.2c3.6,0,7.4-.1,11.4-.4,1.8-.1,3.6-.2,5.5-.4s4-.3,6-.6a22.75,22.75,0,0,1,2.6-.2c1.7-.2,3.5-.4,5.3-.7,3.5-.4,7.1-1,10.7-1.7q3.45-.6,7.2-1.5a6,6,0,0,1,1.2-.2c1.4-.3,2.8-.6,4.2-1,3.6-.9,7.2-1.8,10.9-2.9,2.6-.8,5.2-1.6,7.9-2.5,1.5-.6,3.1-1.2,4.7-1.7s3.2-1.2,4.7-1.9c3.9-1.6,7.8-3.4,11.7-5.3a64.53,64.53,0,0,0,5.8-3.1c1.7-.9,3.5-1.9,5.2-2.9a2.09,2.09,0,0,0,.6-.4c1.5-.9,2.9-1.8,4.4-2.8,2.2-1.4,4.4-2.9,6.6-4.6,2.1-1.5,4.1-3.1,6-4.7l.4-.4c2.1-1.7,4.2-3.6,6.2-5.5s4-3.9,6-6c1.2-1.3,2.4-2.6,3.5-3.9a31.13,31.13,0,0,0,2.3-2.8c1.2-1.5,2.4-2.9,3.6-4.5,1.4-1.8,2.6-3.6,3.9-5.4,1.4-2,2.7-4.1,4-6.2.1-.2.2-.3.3-.5,1.1-1.8,2.2-3.7,3.2-5.6a8.8,8.8,0,0,1,.6-1c1.1-2.1,2.1-4.2,3.2-6.4s2.1-4.4,3.1-6.8c.5-1.1.9-2.3,1.4-3.4s.9-2.3,1.4-3.5c1.1-2.9,2.1-5.8,3-8.9a8.33,8.33,0,0,0,.4-1.5c.6-1.9,1.2-3.9,1.7-5.8l.6-2.1c.4-1.5.8-3.1,1.1-4.6a17.41,17.41,0,0,0,.5-2.2c.3-1.4.6-2.7.9-4.1.9-4.7,1.7-9.6,2.3-14.6.2-1.5.4-2.9.5-4.4.3-2.5.6-4.9.7-7.5.2-2.9.4-6,.6-9.1.1-1.2.1-2.3.1-3.6.1-3.2.2-6.4.2-9.8v-86s6.1-104.4,98.3-43c0,0,39.7,28.7,79.4,95.2l1.5,20.9v.1l7.6,104.9C1159,390.7,1161.4,401,1161.2,407.2Z" transform="translate(-227.14 -133.86)"/><path class="cb946c38-52a3-4cc3-8999-f26810d45472" d="M1210.8,449.4c-2.2,7.7-8.5,10.3-26.7-22.3,0,0-2.4-4.1-6.6-11.1l-.1-.2c-5.6-9.4-14.3-23.9-24.6-40.8-.5-.7-.9-1.5-1.5-2.3a.1.1,0,0,0-.1-.1c-35.1-57.3-88.6-140.1-108.5-148a185.55,185.55,0,0,1,4.7,21.2c.9,6.4,1.3,13-.2,17.1-1.8,5.4-6.6,6.8-16.8-1.4,0,0,3.3,11.1,5.7,22.4,2.3,10.6,3.7,21.3,1,23.6-1.2,1-3.4.3-6.7-3,0,0,.9,9.3.9,19.3a98.24,98.24,0,0,1-.2,10.9v.1c-.8,12.9-3.9,21.8-13,6.6,0,0,0,55.3-18.4,30.7,0,0,0,73.7-18.4,36.9,0,0,0,73.7-18.4,30.7,0,0-4.1,45-18.9,38.1-3.3-1.5-7.2-5.7-11.8-13.6,0,0-24.6,67.6-43,24.6,0,0-30.7,43-49.1,12.3,0,0-24.6,30.7-43,6.1,0,0-37.4,14.3-43,7.4V455.4s25.5,7.3,34.1,7.2c3.6,0,7.4-.1,11.4-.4,1.8-.1,3.6-.2,5.5-.4s4-.3,6-.6a22.75,22.75,0,0,1,2.6-.2c1.7-.2,3.5-.4,5.3-.7,3.5-.5,7.1-1,10.7-1.7q3.45-.6,7.2-1.5a6,6,0,0,1,1.2-.2c1.4-.3,2.8-.6,4.2-1,3.6-.9,7.2-1.8,10.9-2.9,2.6-.8,5.2-1.6,7.9-2.5,1.5-.6,3.1-1.2,4.7-1.7s3.2-1.2,4.7-1.9c3.9-1.6,7.8-3.4,11.7-5.3,2-1,3.9-2,5.8-3.1,1.7-1,3.4-2,5.2-2.9a2.09,2.09,0,0,0,.6-.4c1.5-.9,2.9-1.8,4.4-2.8,2.2-1.5,4.4-3,6.6-4.6,2-1.5,4.1-3.1,6-4.7l.4-.4c2.1-1.8,4.2-3.6,6.2-5.5s4-3.9,6-6c1.2-1.3,2.4-2.6,3.5-3.9a31.13,31.13,0,0,0,2.3-2.8c1.2-1.5,2.4-2.9,3.6-4.5,1.4-1.8,2.6-3.6,3.9-5.4,1.4-2,2.7-4.1,4-6.2.1-.2.2-.3.3-.5,1.1-1.8,2.1-3.7,3.2-5.6a8.8,8.8,0,0,1,.6-1c1.1-2.1,2.1-4.2,3.2-6.4s2.1-4.4,3.1-6.8c.5-1.1.9-2.3,1.4-3.4s.9-2.3,1.4-3.5c1.1-2.9,2.1-5.8,3-8.9a8.33,8.33,0,0,0,.4-1.5c.6-1.9,1.2-3.9,1.7-5.8l.6-2.1c.4-1.5.8-3.1,1.1-4.6a17.41,17.41,0,0,0,.5-2.2c.3-1.4.6-2.7.9-4.1.9-4.7,1.7-9.6,2.3-14.6.2-1.5.4-2.9.5-4.4.3-2.5.6-4.9.7-7.5.2-2.9.4-6,.6-9.1.1-1.2.1-2.3.1-3.6.1-3.2.2-6.4.2-9.8V197s6.1-104.4,98.3-43c0,0,39.7,28.7,79.4,95.2a489.76,489.76,0,0,1,33.9,68.4c13.7,33.7,25.7,73.2,34.1,118.9C1211.7,436.3,1212.2,444.1,1210.8,449.4Z" transform="translate(-227.14 -133.86)"/><ellipse class="cb946c38-52a3-4cc3-8999-f26810d45472" cx="492.86" cy="47.24" rx="127.3" ry="23.1"/></svg>