<?xml version="1.0" encoding="utf-8"?>
<!-- Generator: Adobe Illustrator 22.1.0, SVG Export Plug-In . SVG Version: 6.00 Build 0)  -->
<svg version="1.1" id="_x39_29a63f3-9ae3-4ac3-aaf2-1ac0400b1715"
	 xmlns="http://www.w3.org/2000/svg" xmlns:xlink="http://www.w3.org/1999/xlink" x="0px" y="0px" viewBox="0 0 1440 800"
	 style="enable-background:new 0 0 1440 800;" xml:space="preserve">
<style type="text/css">
	.st0{fill:#FFFFFF;stroke:#000000;stroke-miterlimit:10;}
</style>
<g>
	<g>
		<g>
			<g>
				<path class="st0" d="M247.2,660.4c0.7,6.3,9.6,7.1,11.5,1c3.3-10.8,6.9-28.3,9.5-56.2c0,0,12.3,61.4,30.7-18.4
					c0,0,12.3,55.3,24.6-18.4c0,0,12.3,55.3,24.6-12.3c0,0,12.3,43,24.6-12.3c0,0,12.3,36.9,30.7-12.3c0,0,11.5,46.1,23.4,4.3
					c0.4-1.4,0.8-2.8,1.2-4.3c0,0,0.3,1.3,0.9,3.4c2.6,8.5,10,29.9,18.1,20.1c1.8-2.1,3.7-5.7,5.5-11.2c0,0,1.4,4.8,3.6,9.5
					c2.6,5.4,6.4,10.7,10.6,7.8c1.9-1.2,3.9-4,6-9.2l17.6-56l5.8-18.4l16.6-52.9l0.1-0.1l4.2-13.6c-1.2-1.3-2.4-2.6-3.5-3.9
					c-0.8-0.9-1.6-1.8-2.3-2.8c-1.2-1.5-2.4-2.9-3.6-4.5c-1.4-1.8-2.6-3.6-3.9-5.4c-1.4-2-2.7-4.1-4-6.2c-0.1-0.2-0.2-0.3-0.3-0.5
					c-1.1-1.8-2.1-3.7-3.2-5.6c-0.2-0.4-0.4-0.7-0.6-1c-1.1-2.1-2.1-4.2-3.2-6.4c-1-2.2-2.1-4.4-3.1-6.8c-0.5-1.1-0.9-2.3-1.4-3.4
					c-0.5-1.2-0.9-2.3-1.4-3.5c-1.1-2.9-2.1-5.8-3-8.9c-0.2-0.5-0.3-1-0.4-1.5c-0.6-1.9-1.2-3.9-1.7-5.8c-0.2-0.7-0.4-1.4-0.6-2.1
					c-0.4-1.5-0.8-3.1-1.1-4.6c-0.2-0.7-0.4-1.5-0.5-2.2c-0.3-1.4-0.6-2.7-0.9-4.1c-0.9-4.7-1.7-9.6-2.3-14.6
					c-0.2-1.5-0.4-2.9-0.5-4.4c-0.3-2.5-0.6-4.9-0.7-7.5c-0.2-2.9-0.4-6-0.6-9.1c-0.1-1.2-0.1-2.3-0.1-3.6c-0.1-3.2-0.2-6.4-0.2-9.8
					v-86c0,0-6.1-104.4-98.3-43c0,0-39.7,28.7-79.4,95.2c-11.7,19.5-23.3,42.2-33.9,68.4l0.1,18.4l0.1,80c0,0,0,0.1-0.1,0.2
					c-0.4,1.7-2.3,11.4-4.9,26.7C250.1,487.1,238,578.6,247.2,660.4z"/>
				<path d="M278.8,407.2L278.8,407.2c0.1,2.9,0.7,5,1.7,6.3c7.4,9.6,35.4-15.7,36.9-17c-4.1,10.9-5.1,17.8-4.2,22.1
					c0.3,1.7,0.9,3,1.8,3.9c6.8,7,27.1-7.6,27.1-7.6c-3.1,9.5-4.5,16.4-4.6,21.4c-0.1,3.5,0.5,6,1.5,7.9c5.9,10.9,27.6-4.7,27.6-4.7
					c-2,8.9-2.7,15.4-2.5,20c0,0.1,0,0.1,0,0.1c0.1,2.4,0.4,4.3,1,5.8c4.9,13.7,26-7.4,26-7.4c-0.7,7.7-0.9,14.1-0.7,19.1
					c0.1,1.8,0.1,3.4,0.3,4.9c0,0.1,0,0.1,0,0.1c3.1,31,25,0.4,25,0.4c-0.8,8-1,14.3-0.7,19.3c0.1,1.1,0.2,2.1,0.3,3.1
					c0,0,0,0,0,0.1c3.3,28.1,24.9,2.1,24.9,2.1c0,55.3,24.6,18.4,24.6,18.4c0,16.3,3.4,23.8,7.9,26.5c9.1,5.7,22.9-8.1,22.9-8.1
					c6.1,43,30.7,6.1,30.7,6.1c6.1,43,30.7,6.1,30.7,6.1c12.3,43,30.7,12.3,30.7,12.3c12.3,36.9,30.7,0,30.7,0
					c12.3,43,30.7-12.3,30.7-12.3c18.4,49.1,36.9,0,36.9,0v-94.2c0,0-22,0.5-27.9,0.6c-2,0-4,0-6.2,0c-3.6,0-7.4-0.1-11.4-0.4
					c-1.8-0.1-3.6-0.2-5.5-0.4c-2-0.1-4-0.3-6-0.6c-0.9-0.1-1.7-0.2-2.6-0.2c-1.7-0.2-3.5-0.4-5.3-0.7c-3.5-0.4-7.1-1-10.7-1.7
					c-2.3-0.4-4.7-0.9-7.2-1.5c-0.4-0.1-0.9-0.2-1.2-0.2c-1.4-0.3-2.8-0.6-4.2-1c-3.6-0.9-7.2-1.8-10.9-2.9
					c-2.6-0.8-5.2-1.6-7.9-2.5c-1.5-0.6-3.1-1.2-4.7-1.7c-1.6-0.6-3.2-1.2-4.7-1.9c-3.9-1.6-7.8-3.4-11.7-5.3c-2-0.9-3.9-2-5.8-3.1
					c-1.7-0.9-3.5-1.9-5.2-2.9c-0.2-0.1-0.4-0.2-0.6-0.4c-1.5-0.9-2.9-1.8-4.4-2.8c-2.2-1.4-4.4-2.9-6.6-4.6c-2.1-1.5-4.1-3.1-6-4.7
					c-0.1-0.1-0.2-0.2-0.4-0.4c-2.1-1.7-4.2-3.6-6.2-5.5c-2-1.9-4-3.9-6-6c-1.2-1.3-2.4-2.6-3.5-3.9c-0.8-0.9-1.6-1.8-2.3-2.8
					c-1.2-1.5-2.4-2.9-3.6-4.5c-1.4-1.8-2.6-3.6-3.9-5.4c-1.4-2-2.7-4.1-4-6.2c-0.1-0.2-0.2-0.3-0.3-0.5c-1.1-1.8-2.2-3.7-3.2-5.6
					c-0.2-0.4-0.4-0.7-0.6-1c-1.1-2.1-2.1-4.2-3.2-6.4c-1-2.2-2.1-4.4-3.1-6.8c-0.5-1.1-0.9-2.3-1.4-3.4c-0.5-1.2-0.9-2.3-1.4-3.5
					c-1.1-2.9-2.1-5.8-3-8.9c-0.2-0.5-0.3-1-0.4-1.5c-0.6-1.9-1.2-3.9-1.7-5.8c-0.2-0.7-0.4-1.4-0.6-2.1c-0.4-1.5-0.8-3.1-1.1-4.6
					c-0.2-0.7-0.4-1.5-0.5-2.2c-0.3-1.4-0.6-2.7-0.9-4.1c-0.9-4.7-1.7-9.6-2.3-14.6c-0.2-1.5-0.4-2.9-0.5-4.4
					c-0.3-2.5-0.6-4.9-0.7-7.5c-0.2-2.9-0.4-6-0.6-9.1c-0.1-1.2-0.1-2.3-0.1-3.6c-0.1-3.2-0.2-6.4-0.2-9.8v-86
					c0,0-6.1-104.4-98.3-43c0,0-39.7,28.7-79.4,95.2l-1.5,20.9v0.1l-7.6,104.9C281,390.7,278.6,401,278.8,407.2z"/>
				<path class="st0" d="M229.2,449.4c2.2,7.7,8.5,10.3,26.7-22.3c0,0,2.4-4.1,6.6-11.1c0.1-0.2,0.1-0.2,0.1-0.2
					c5.6-9.4,14.3-23.9,24.6-40.8c0.5-0.7,0.9-1.5,1.5-2.3c0-0.1,0.1-0.1,0.1-0.1c35.1-57.3,88.6-140.1,108.5-148
					c0,0-3.1,10.6-4.7,21.2c-0.9,6.4-1.3,13,0.2,17.1c1.8,5.4,6.6,6.8,16.8-1.4c0,0-3.3,11.1-5.7,22.4c-2.3,10.6-3.7,21.3-1,23.6
					c1.2,1,3.4,0.3,6.7-3c0,0-0.9,9.3-0.9,19.3c-0.1,3.7-0.1,7.4,0.2,10.9v0.1c0.8,12.9,3.9,21.8,13,6.6c0,0,0,55.3,18.4,30.7
					c0,0,0,73.7,18.4,36.9c0,0,0,73.7,18.4,30.7c0,0,4.1,45,18.9,38.1c3.3-1.5,7.2-5.7,11.8-13.6c0,0,24.6,67.6,43,24.6
					c0,0,30.7,43,49.1,12.3c0,0,24.6,30.7,43,6.1c0,0,37.4,14.3,43,7.4v-59.2c0,0-25.5,7.3-34.1,7.2c-3.6,0-7.4-0.1-11.4-0.4
					c-1.8-0.1-3.6-0.2-5.5-0.4c-2-0.1-4-0.3-6-0.6c-0.9-0.1-1.7-0.2-2.6-0.2c-1.7-0.2-3.5-0.4-5.3-0.7c-3.5-0.5-7.1-1-10.7-1.7
					c-2.3-0.4-4.7-0.9-7.2-1.5c-0.4-0.1-0.9-0.2-1.2-0.2c-1.4-0.3-2.8-0.6-4.2-1c-3.6-0.9-7.2-1.8-10.9-2.9
					c-2.6-0.8-5.2-1.6-7.9-2.5c-1.5-0.6-3.1-1.2-4.7-1.7c-1.6-0.6-3.2-1.2-4.7-1.9c-3.9-1.6-7.8-3.4-11.7-5.3c-2-1-3.9-2-5.8-3.1
					c-1.7-1-3.4-2-5.2-2.9c-0.2-0.1-0.4-0.2-0.6-0.4c-1.5-0.9-2.9-1.8-4.4-2.8c-2.2-1.5-4.4-3-6.6-4.6c-2-1.5-4.1-3.1-6-4.7
					c-0.1-0.1-0.2-0.2-0.4-0.4c-2.1-1.8-4.2-3.6-6.2-5.5c-2-1.9-4-3.9-6-6c-1.2-1.3-2.4-2.6-3.5-3.9c-0.8-0.9-1.6-1.8-2.3-2.8
					c-1.2-1.5-2.4-2.9-3.6-4.5c-1.4-1.8-2.6-3.6-3.9-5.4c-1.4-2-2.7-4.1-4-6.2c-0.1-0.2-0.2-0.3-0.3-0.5c-1.1-1.8-2.1-3.7-3.2-5.6
					c-0.2-0.4-0.4-0.7-0.6-1c-1.1-2.1-2.1-4.2-3.2-6.4c-1-2.2-2.1-4.4-3.1-6.8c-0.5-1.1-0.9-2.3-1.4-3.4c-0.5-1.2-0.9-2.3-1.4-3.5
					c-1.1-2.9-2.1-5.8-3-8.9c-0.2-0.5-0.3-1-0.4-1.5c-0.6-1.9-1.2-3.9-1.7-5.8c-0.2-0.7-0.4-1.4-0.6-2.1c-0.4-1.5-0.8-3.1-1.1-4.6
					c-0.2-0.7-0.4-1.5-0.5-2.2c-0.3-1.4-0.6-2.7-0.9-4.1c-0.9-4.7-1.7-9.6-2.3-14.6c-0.2-1.5-0.4-2.9-0.5-4.4
					c-0.3-2.5-0.6-4.9-0.7-7.5c-0.2-2.9-0.4-6-0.6-9.1c-0.1-1.2-0.1-2.3-0.1-3.6c-0.1-3.2-0.2-6.4-0.2-9.8v-86
					c0,0-6.1-104.4-98.3-43c0,0-39.7,28.7-79.4,95.2c-11.7,19.5-23.3,42.2-33.9,68.4c-13.7,33.7-25.7,73.2-34.1,118.9
					C228.3,436.3,227.8,444.1,229.2,449.4z"/>
			</g>
		</g>
		<g>
			<g>
				<path class="st0" d="M1192.8,660.4c-0.7,6.3-9.6,7.1-11.5,1c-3.3-10.8-6.9-28.3-9.5-56.2c0,0-12.3,61.4-30.7-18.4
					c0,0-12.3,55.3-24.6-18.4c0,0-12.3,55.3-24.6-12.3c0,0-12.3,43-24.6-12.3c0,0-12.3,36.9-30.7-12.3c0,0-11.5,46.1-23.4,4.3
					c-0.4-1.4-0.8-2.8-1.2-4.3c0,0-0.3,1.3-0.9,3.4c-2.6,8.5-10,29.9-18.1,20.1c-1.8-2.1-3.7-5.7-5.5-11.2c0,0-1.4,4.8-3.6,9.5
					c-2.6,5.4-6.4,10.7-10.6,7.8c-1.9-1.2-3.9-4-6-9.2l-17.6-56l-5.8-18.4l-16.6-52.9l-0.1-0.1l-4.2-13.6c1.2-1.3,2.4-2.6,3.5-3.9
					c0.8-0.9,1.6-1.8,2.3-2.8c1.2-1.5,2.4-2.9,3.6-4.5c1.4-1.8,2.6-3.6,3.9-5.4c1.4-2,2.7-4.1,4-6.2c0.1-0.2,0.2-0.3,0.3-0.5
					c1.1-1.8,2.1-3.7,3.2-5.6c0.2-0.4,0.4-0.7,0.6-1c1.1-2.1,2.1-4.2,3.2-6.4c1-2.2,2.1-4.4,3.1-6.8c0.5-1.1,0.9-2.3,1.4-3.4
					c0.5-1.2,0.9-2.3,1.4-3.5c1.1-2.9,2.1-5.8,3-8.9c0.2-0.5,0.3-1,0.4-1.5c0.6-1.9,1.2-3.9,1.7-5.8c0.2-0.7,0.4-1.4,0.6-2.1
					c0.4-1.5,0.8-3.1,1.1-4.6c0.2-0.7,0.4-1.5,0.5-2.2c0.3-1.4,0.6-2.7,0.9-4.1c0.9-4.7,1.7-9.6,2.3-14.6c0.2-1.5,0.4-2.9,0.5-4.4
					c0.3-2.5,0.6-4.9,0.7-7.5c0.2-2.9,0.4-6,0.6-9.1c0.1-1.2,0.1-2.3,0.1-3.6c0.1-3.2,0.2-6.4,0.2-9.8v-86c0,0,6.1-104.4,98.3-43
					c0,0,39.7,28.7,79.4,95.2c11.7,19.5,23.3,42.2,33.9,68.4l-0.1,18.4l-0.1,80c0,0,0,0.1,0.1,0.2c0.4,1.7,2.3,11.4,4.9,26.7
					C1189.9,487.1,1202,578.6,1192.8,660.4z"/>
				<path d="M1161.2,407.2L1161.2,407.2c-0.1,2.9-0.7,5-1.7,6.3c-7.4,9.6-35.4-15.7-36.9-17c4.1,10.9,5.1,17.8,4.2,22.1
					c-0.3,1.7-0.9,3-1.8,3.9c-6.8,7-27.1-7.6-27.1-7.6c3.1,9.5,4.5,16.4,4.6,21.4c0.1,3.5-0.5,6-1.5,7.9
					c-5.9,10.9-27.6-4.7-27.6-4.7c2,8.9,2.7,15.4,2.5,20c0,0.1,0,0.1,0,0.1c-0.1,2.4-0.4,4.3-1,5.8c-4.9,13.7-26-7.4-26-7.4
					c0.7,7.7,0.9,14.1,0.7,19.1c-0.1,1.8-0.1,3.4-0.3,4.9c0,0.1,0,0.1,0,0.1c-3.1,31-25,0.4-25,0.4c0.8,8,1,14.3,0.7,19.3
					c-0.1,1.1-0.2,2.1-0.3,3.1c0,0,0,0,0,0.1c-3.3,28.1-24.9,2.1-24.9,2.1c0,55.3-24.6,18.4-24.6,18.4c0,16.3-3.4,23.8-7.9,26.5
					c-9.1,5.7-22.9-8.1-22.9-8.1c-6.1,43-30.7,6.1-30.7,6.1c-6.1,43-30.7,6.1-30.7,6.1c-12.3,43-30.7,12.3-30.7,12.3
					c-12.3,36.9-30.7,0-30.7,0c-12.3,43-30.7-12.3-30.7-12.3c-18.4,49.1-36.9,0-36.9,0v-94.2c0,0,22,0.5,27.9,0.6c2,0,4,0,6.2,0
					c3.6,0,7.4-0.1,11.4-0.4c1.8-0.1,3.6-0.2,5.5-0.4c2-0.1,4-0.3,6-0.6c0.9-0.1,1.7-0.2,2.6-0.2c1.7-0.2,3.5-0.4,5.3-0.7
					c3.5-0.4,7.1-1,10.7-1.7c2.3-0.4,4.7-0.9,7.2-1.5c0.4-0.1,0.9-0.2,1.2-0.2c1.4-0.3,2.8-0.6,4.2-1c3.6-0.9,7.2-1.8,10.9-2.9
					c2.6-0.8,5.2-1.6,7.9-2.5c1.5-0.6,3.1-1.2,4.7-1.7c1.6-0.6,3.2-1.2,4.7-1.9c3.9-1.6,7.8-3.4,11.7-5.3c2-0.9,3.9-2,5.8-3.1
					c1.7-0.9,3.5-1.9,5.2-2.9c0.2-0.1,0.4-0.2,0.6-0.4c1.5-0.9,2.9-1.8,4.4-2.8c2.2-1.4,4.4-2.9,6.6-4.6c2.1-1.5,4.1-3.1,6-4.7
					c0.1-0.1,0.2-0.2,0.4-0.4c2.1-1.7,4.2-3.6,6.2-5.5c2-1.9,4-3.9,6-6c1.2-1.3,2.4-2.6,3.5-3.9c0.8-0.9,1.6-1.8,2.3-2.8
					c1.2-1.5,2.4-2.9,3.6-4.5c1.4-1.8,2.6-3.6,3.9-5.4c1.4-2,2.7-4.1,4-6.2c0.1-0.2,0.2-0.3,0.3-0.5c1.1-1.8,2.2-3.7,3.2-5.6
					c0.2-0.4,0.4-0.7,0.6-1c1.1-2.1,2.1-4.2,3.2-6.4c1-2.2,2.1-4.4,3.1-6.8c0.5-1.1,0.9-2.3,1.4-3.4c0.5-1.2,0.9-2.3,1.4-3.5
					c1.1-2.9,2.1-5.8,3-8.9c0.2-0.5,0.3-1,0.4-1.5c0.6-1.9,1.2-3.9,1.7-5.8c0.2-0.7,0.4-1.4,0.6-2.1c0.4-1.5,0.8-3.1,1.1-4.6
					c0.2-0.7,0.4-1.5,0.5-2.2c0.3-1.4,0.6-2.7,0.9-4.1c0.9-4.7,1.7-9.6,2.3-14.6c0.2-1.5,0.4-2.9,0.5-4.4c0.3-2.5,0.6-4.9,0.7-7.5
					c0.2-2.9,0.4-6,0.6-9.1c0.1-1.2,0.1-2.3,0.1-3.6c0.1-3.2,0.2-6.4,0.2-9.8v-86c0,0,6.1-104.4,98.3-43c0,0,39.7,28.7,79.4,95.2
					l1.5,20.9v0.1l7.6,104.9C1159,390.7,1161.4,401,1161.2,407.2z"/>
				<path class="st0" d="M1210.8,449.4c-2.2,7.7-8.5,10.3-26.7-22.3c0,0-2.4-4.1-6.6-11.1c-0.1-0.2-0.1-0.2-0.1-0.2
					c-5.6-9.4-14.3-23.9-24.6-40.8c-0.5-0.7-0.9-1.5-1.5-2.3c0-0.1-0.1-0.1-0.1-0.1c-35.1-57.3-88.6-140.1-108.5-148
					c0,0,3.1,10.6,4.7,21.2c0.9,6.4,1.3,13-0.2,17.1c-1.8,5.4-6.6,6.8-16.8-1.4c0,0,3.3,11.1,5.7,22.4c2.3,10.6,3.7,21.3,1,23.6
					c-1.2,1-3.4,0.3-6.7-3c0,0,0.9,9.3,0.9,19.3c0.1,3.7,0.1,7.4-0.2,10.9v0.1c-0.8,12.9-3.9,21.8-13,6.6c0,0,0,55.3-18.4,30.7
					c0,0,0,73.7-18.4,36.9c0,0,0,73.7-18.4,30.7c0,0-4.1,45-18.9,38.1c-3.3-1.5-7.2-5.7-11.8-13.6c0,0-24.6,67.6-43,24.6
					c0,0-30.7,43-49.1,12.3c0,0-24.6,30.7-43,6.1c0,0-37.4,14.3-43,7.4v-59.2c0,0,25.5,7.3,34.1,7.2c3.6,0,7.4-0.1,11.4-0.4
					c1.8-0.1,3.6-0.2,5.5-0.4c2-0.1,4-0.3,6-0.6c0.9-0.1,1.7-0.2,2.6-0.2c1.7-0.2,3.5-0.4,5.3-0.7c3.5-0.5,7.1-1,10.7-1.7
					c2.3-0.4,4.7-0.9,7.2-1.5c0.4-0.1,0.9-0.2,1.2-0.2c1.4-0.3,2.8-0.6,4.2-1c3.6-0.9,7.2-1.8,10.9-2.9c2.6-0.8,5.2-1.6,7.9-2.5
					c1.5-0.6,3.1-1.2,4.7-1.7c1.6-0.6,3.2-1.2,4.7-1.9c3.9-1.6,7.8-3.4,11.7-5.3c2-1,3.9-2,5.8-3.1c1.7-1,3.4-2,5.2-2.9
					c0.2-0.1,0.4-0.2,0.6-0.4c1.5-0.9,2.9-1.8,4.4-2.8c2.2-1.5,4.4-3,6.6-4.6c2-1.5,4.1-3.1,6-4.7c0.1-0.1,0.2-0.2,0.4-0.4
					c2.1-1.8,4.2-3.6,6.2-5.5c2-1.9,4-3.9,6-6c1.2-1.3,2.4-2.6,3.5-3.9c0.8-0.9,1.6-1.8,2.3-2.8c1.2-1.5,2.4-2.9,3.6-4.5
					c1.4-1.8,2.6-3.6,3.9-5.4c1.4-2,2.7-4.1,4-6.2c0.1-0.2,0.2-0.3,0.3-0.5c1.1-1.8,2.1-3.7,3.2-5.6c0.2-0.4,0.4-0.7,0.6-1
					c1.1-2.1,2.1-4.2,3.2-6.4c1-2.2,2.1-4.4,3.1-6.8c0.5-1.1,0.9-2.3,1.4-3.4c0.5-1.2,0.9-2.3,1.4-3.5c1.1-2.9,2.1-5.8,3-8.9
					c0.2-0.5,0.3-1,0.4-1.5c0.6-1.9,1.2-3.9,1.7-5.8c0.2-0.7,0.4-1.4,0.6-2.1c0.4-1.5,0.8-3.1,1.1-4.6c0.2-0.7,0.4-1.5,0.5-2.2
					c0.3-1.4,0.6-2.7,0.9-4.1c0.9-4.7,1.7-9.6,2.3-14.6c0.2-1.5,0.4-2.9,0.5-4.4c0.3-2.5,0.6-4.9,0.7-7.5c0.2-2.9,0.4-6,0.6-9.1
					c0.1-1.2,0.1-2.3,0.1-3.6c0.1-3.2,0.2-6.4,0.2-9.8v-86c0,0,6.1-104.4,98.3-43c0,0,39.7,28.7,79.4,95.2
					c11.7,19.5,23.3,42.2,33.9,68.4c13.7,33.7,25.7,73.2,34.1,118.9C1211.7,436.3,1212.2,444.1,1210.8,449.4z"/>
			</g>
		</g>
	</g>
	<ellipse class="st0" cx="720" cy="181.1" rx="127.3" ry="23.1"/>
</g>
</svg>
