<svg id="c083b466-8f6e-4e50-bb6c-b4776e5ba616" data-name="929a63f3-9ae3-4ac3-aaf2-1ac0400b1715" xmlns="http://www.w3.org/2000/svg" width="1205.4" height="232.8" viewBox="0 0 1205.4 232.8"><defs><style>.\36 0af6173-06f2-4f85-9e28-c277db22e9c4{fill:#fff;stroke:#1c0a05;stroke-miterlimit:10;}</style></defs><title>moon</title><path class="60af6173-06f2-4f85-9e28-c277db22e9c4" d="M233.7,284.1c1.1,0,2.3,0,3.4.1A115.93,115.93,0,0,0,124.6,400c0,62.8,50.1,114.1,112.5,115.8-1.1,0-2.3.1-3.4.1a115.9,115.9,0,1,1,0-231.8Z" transform="translate(-117.3 -283.6)"/><path class="60af6173-06f2-4f85-9e28-c277db22e9c4" d="M545.1,286.7c-13.5,31.9-21.4,71-21.4,113.3s7.9,81.4,21.4,113.3a113.42,113.42,0,0,1,0-226.6Z" transform="translate(-117.3 -283.6)"/><path class="60af6173-06f2-4f85-9e28-c277db22e9c4" d="M383.2,285.3c-31.6,23.9-52.4,64.7-52.4,111,0,51.5,25.8,96.2,63.5,118.4-60-5.1-107.1-54.9-107.1-115.4C287.2,342.5,328.6,295.2,383.2,285.3Z" transform="translate(-117.3 -283.6)"/><path class="60af6173-06f2-4f85-9e28-c277db22e9c4" d="M986,295.2c-6-2.5-21.6-7.5-40-8.5-63.4-2-116.5,53-116.5,113.3,0,60.5,51.7,109.9,116.8,113.4a110.79,110.79,0,0,0,39.6-8.5c30.3-23.4,47.8-61.6,47.8-104.8S1016.3,318.6,986,295.2Z" transform="translate(-117.3 -283.6)"/><path class="60af6173-06f2-4f85-9e28-c277db22e9c4" d="M726.6,286.6c1.9,0,3.7,0,5.6.1,17.3,30.4,27.8,70,27.8,113.3s-10.5,82.9-27.7,113.3c-1.9.1-3.7.1-5.6.1a113.4,113.4,0,0,1-.1-226.8Z" transform="translate(-117.3 -283.6)"/><circle class="60af6173-06f2-4f85-9e28-c277db22e9c4" cx="1089.5" cy="116.9" r="115.4"/></svg>