<svg id="a8224fe5-d521-490c-ace2-c42e5fa4f5ea" data-name="929a63f3-9ae3-4ac3-aaf2-1ac0400b1715" xmlns="http://www.w3.org/2000/svg" width="924.4" height="733.7" viewBox="0 0 924.4 733.7"><defs><style>.ce92ddd4-1398-4cb7-b348-b740985344f3{fill:#fff;stroke:#000116;stroke-miterlimit:10;}</style></defs><title>nigger</title><g id="97273517-0a89-4ab5-89c9-4ae30bd7040a" data-name="&lt;Groupe&gt;"><path id="be6cdd03-31ed-4883-a215-9858efaa1258" data-name="&lt;Tracé transparent&gt;" class="ce92ddd4-1398-4cb7-b348-b740985344f3" d="M1181.7,85a49.47,49.47,0,0,0-14.6-35.2,50,50,0,0,0-35.2-14.7h0A50,50,0,0,0,1082,84.9v87.8a49,49,0,0,0,.6,7.7,44.75,44.75,0,0,0-4.2,7l-29.7,61a49,49,0,0,0-3.8,32.4h0l-41.8,53.5a49.74,49.74,0,0,0-8.9,18L942.4,395a39.64,39.64,0,0,0-5.1,4.9,50.16,50.16,0,0,0-15.8,3.9l-62.4,26.7a49.48,49.48,0,0,0-23.6,21c-.5.1-.9.1-1.4.2l-66.6,12.9a50.42,50.42,0,0,0-15.7,5.9,33.11,33.11,0,0,0-4.2-1.2l-66-15.8a47.52,47.52,0,0,0-7.4-1.2c-1-.5-2.1-1-3.2-1.5l-62.7-26.1a49.16,49.16,0,0,0-17.5-3.8,49.86,49.86,0,0,0-21.1-14.7l-63-22.8a49.53,49.53,0,0,0-9.1-9.8L445.8,331a49.77,49.77,0,0,0-8.9-18l-41.8-53.5h0a49.49,49.49,0,0,0-3.8-32.4l-29.7-61a44.76,44.76,0,0,0-4.2-7,49,49,0,0,0,.6-7.7V83.5a49.89,49.89,0,0,0-49.9-49.8h0a49.89,49.89,0,0,0-49.8,49.9v67.9a49.14,49.14,0,0,0,9.2,28.8,49.47,49.47,0,0,0,4.4,29.5l29.7,61a53.14,53.14,0,0,0,5.5,8.9c-.3,1.5-.6,3-.8,4.5A50.1,50.1,0,0,0,316.4,321h0l41.8,53.5a49.72,49.72,0,0,0,7.1,7.4,49.13,49.13,0,0,0,16.4,25.7l52.4,43.2a50.57,50.57,0,0,0,14,8.1,48.51,48.51,0,0,0,23.8,18.2l63.8,23.1a48.17,48.17,0,0,0,15.3,2.9,48.28,48.28,0,0,0,18.9,13.8L632.6,543a52.52,52.52,0,0,0,14.9,3.7,49.64,49.64,0,0,0,10.8,3.9l30.9,7.4a112,112,0,1,0,116.2.9l47.6-9.2a49.62,49.62,0,0,0,33.7-24.1,48.43,48.43,0,0,0,11.5-3.3l62.4-26.7a50.45,50.45,0,0,0,17.3-12.3,49.74,49.74,0,0,0,27.9-11.2l52.4-43.2a49.81,49.81,0,0,0,16.5-25.7,49.72,49.72,0,0,0,7.1-7.4l41.7-53.5a49.11,49.11,0,0,0,10.1-36.8c-.2-1.5-.5-3-.8-4.5a47.33,47.33,0,0,0,5.5-8.9l29.7-61a50,50,0,0,0,4.4-29.5,49.14,49.14,0,0,0,9.2-28.8ZM1045.9,392.7a27.69,27.69,0,0,1-31.2-27.4,27.86,27.86,0,0,1,11.8-2.6,24.37,24.37,0,0,1,2.7.1,27.54,27.54,0,0,1,25.1,27.4A24.72,24.72,0,0,1,1045.9,392.7Zm-79.1,67.7a27.71,27.71,0,0,1-20.3-29.5,26.86,26.86,0,0,1,2-8,27.82,27.82,0,0,1,18.3,37.5Zm-95.5,42.8a27.9,27.9,0,0,1-18.2-15.9,27.4,27.4,0,0,1-2.1-13.4,27.73,27.73,0,0,1,19.9,21.5A29.63,29.63,0,0,1,871.3,503.2ZM749.6,518.9a27.33,27.33,0,0,1,4.3-20.8l.6-.9a33.69,33.69,0,0,1,5.1,6.1,27.73,27.73,0,0,1,3.4,21,29.47,29.47,0,0,1-4.6,10A27.48,27.48,0,0,1,749.6,518.9Zm-72.2-11.2a27.76,27.76,0,0,1-15.1,15,26.25,26.25,0,0,1-8.7,2,27.82,27.82,0,0,1,1.7-46.3,27.6,27.6,0,0,1,12.6-4.1A28,28,0,0,1,677.4,507.7Zm-98.5-45.1a28,28,0,0,1-16.3,16.5,27.63,27.63,0,0,1,15.9-34c.2-.1.5-.2.7-.3A27.84,27.84,0,0,1,578.9,462.6Zm-91.5-32.7a27.73,27.73,0,0,1-24.5,9.9,28.15,28.15,0,0,1-.2-19.2A28.2,28.2,0,0,1,489,402.2c1,0,2,.1,3,.2A28.12,28.12,0,0,1,487.4,429.9Zm-93.2-58.6a29.1,29.1,0,0,1-8.4-2.4,27.23,27.23,0,0,1,6.3-17.5,27.55,27.55,0,0,1,18.8-9.9,24.37,24.37,0,0,1,2.7-.1,27.41,27.41,0,0,1,11.7,2.6c0,1.1-.1,2.2-.2,3.3a27.18,27.18,0,0,1-10.5,18.5A27.6,27.6,0,0,1,394.2,371.3ZM308.1,55.6h0a27.87,27.87,0,0,1,27.8,27.8v58.5c-1-.4-2-.8-3-1.1a49.56,49.56,0,0,0-52.6,12.9,19.27,19.27,0,0,1-.1-2.4V83.4A28,28,0,0,1,308.1,55.6Zm24.3,109.3a28,28,0,0,1-24.3,14.3h0a27.29,27.29,0,0,1-15.7-4.9,27.73,27.73,0,0,1,40-9.4ZM291.7,200h0a15.39,15.39,0,0,1-.8-1.9,50.44,50.44,0,0,0,17.3,3.1h0A49.71,49.71,0,0,0,345.8,184l25.7,52.8a26.12,26.12,0,0,1,2.3,7,51.78,51.78,0,0,0-11.9-2.9A50.1,50.1,0,0,0,325.1,251a45,45,0,0,0-6,5.5Zm77,65.5a28.38,28.38,0,0,1-10.1,8.3,27.73,27.73,0,0,1-25.1-.4,29,29,0,0,1,5.2-5.3,27.53,27.53,0,0,1,17-5.8c1.2,0,2.3.1,3.5.2A30.16,30.16,0,0,1,368.7,265.5Zm-34.8,41.8h0a26.86,26.86,0,0,1-5.4-11.9,50,50,0,0,0,18,3.4,49.52,49.52,0,0,0,21.7-5,50.32,50.32,0,0,0,16-12.3l29.5,37.8c-1.7,0-3.3.1-5,.2A49.29,49.29,0,0,0,375,337.4a51.28,51.28,0,0,0-7.7,12.9Zm65.5,86.2A50,50,0,0,0,428.2,383,49.16,49.16,0,0,0,445,358.9l28.8,23.7a45.42,45.42,0,0,0-6.1,2.4A49.62,49.62,0,0,0,442,413.1a50.3,50.3,0,0,0-2.8,13.1Zm85.5,64.8a49.77,49.77,0,0,0,30.8-48.1L562.2,427a15.39,15.39,0,0,1,1.9.8,49.51,49.51,0,0,0-21,23.9,50.29,50.29,0,0,0-3.3,26.5Zm92.9,37.9a49.51,49.51,0,0,0,21.8-26.1,50.78,50.78,0,0,0,2.5-24.1l38.3,15.9a49.68,49.68,0,0,0-18.7,52.5l-43.2-18A1.45,1.45,0,0,1,577.8,496.2Zm107,38.1a50.23,50.23,0,0,0,13-18.1,49.7,49.7,0,0,0,1-35.8l35.1,8.4a49.5,49.5,0,0,0-5.8,34.3,48.25,48.25,0,0,0,8.4,19.5c-3.5.3-7.1.8-10.5,1.4Zm149.8,120a88.1,88.1,0,1,1-103.2-86.8c1.5.1,3,.2,4.4.2a48.12,48.12,0,0,0,12-1.5A88.29,88.29,0,0,1,834.6,654.3Zm14.2-126.2L782.2,541a18.11,18.11,0,0,1-2.3.3,49.65,49.65,0,0,0-1.5-49.5,50.47,50.47,0,0,0-4.3-6l54.8-10.6a48.65,48.65,0,0,0,4,20.7,49.81,49.81,0,0,0,27.7,26.8A26.58,26.58,0,0,1,848.8,528.1Zm44.6-27.7a47.56,47.56,0,0,0-.9-9.1,50,50,0,0,0-30.8-37,25.51,25.51,0,0,1,6-3.5l57.1-24.4a50,50,0,0,0,10.8,38.9,49.37,49.37,0,0,0,13.3,11.3Zm98.4-45.3-1.3,1a49.79,49.79,0,0,0-26.2-50.4L995,380.4a49.46,49.46,0,0,0,16.8,24.1,50,50,0,0,0,28.8,10.5Zm80.9-83.4a49.82,49.82,0,0,0-41.4-30.8,41.8,41.8,0,0,0-5-.2l29.5-37.8a48.93,48.93,0,0,0,16,12.3,50,50,0,0,0,21.7,5,49.18,49.18,0,0,0,16.4-2.8c.6-.2,1.1-.4,1.7-.6a27.73,27.73,0,0,1-5.4,12Zm-1.4-84.7a27.67,27.67,0,0,1,9.5-2.9c1.2-.1,2.3-.2,3.5-.2a27.53,27.53,0,0,1,17,5.8,25.09,25.09,0,0,1,5.1,5.2,25.43,25.43,0,0,1-3.8,1.6,27.8,27.8,0,0,1-21.2-1.2A28.38,28.38,0,0,1,1071.3,287Zm49.5-9.2a45,45,0,0,0-6-5.5,49.11,49.11,0,0,0-36.8-10.1,53.07,53.07,0,0,0-11.9,2.9,26.12,26.12,0,0,1,2.3-7l25.7-52.8c.8.9,1.6,1.8,2.4,2.6a50,50,0,0,0,35.2,14.7h0a50.44,50.44,0,0,0,17.3-3.1c-.3.6-.5,1.3-.8,1.9Zm-13.2-91.5a25.5,25.5,0,0,1,6.6-3.3,29.19,29.19,0,0,1,9.2-1.6,27.47,27.47,0,0,1,12.1,2.8,28.06,28.06,0,0,1,12.1,11.5,27.57,27.57,0,0,1-15.7,4.9h0a27.3,27.3,0,0,1-19.6-8.2A24.9,24.9,0,0,1,1107.6,186.3Zm37.5-21.8a49.42,49.42,0,0,0-41-1.1V85a27.87,27.87,0,0,1,27.8-27.8h0a27.3,27.3,0,0,1,19.6,8.2,27.64,27.64,0,0,1,8.2,19.6v87.8a19.27,19.27,0,0,1-.1,2.4A48.35,48.35,0,0,0,1145.1,164.5Z" transform="translate(-257.8 -33.2)"/><path class="ce92ddd4-1398-4cb7-b348-b740985344f3" d="M737.7,720.6c-24.9-3.5-38.8-19.5-43-40l21.1-10.7c2.7,15.3,9.3,25.5,21.8,29.1V661.5c-21.8-4.9-37.5-16.7-37.5-37.7,0-19.1,14.9-32.2,37.5-34.6v-16h18.9v16.7c17.5,3.1,30.2,13.7,36.9,31.7l-18.9,10.9c-3.5-10.4-9.6-17.7-18-21.1v32.2c26,6,39.1,17.8,39.1,38.6,0,18.7-14.6,35.5-39.1,38.6V737H737.6V720.6Zm0-81.9V609.8c-8.7,1.5-14.6,5.6-14.6,13.5C723.1,630.1,727.7,634.9,737.7,638.7Zm18.9,27.7v32.9c9.3-2.2,15.1-8.2,15.1-16.2S766.5,670,756.6,666.4Z" transform="translate(-257.8 -33.2)"/></g></svg>