<svg id="64d00890-4cf2-4787-8789-21549dd1d462" data-name="Calque 1" xmlns="http://www.w3.org/2000/svg" width="1115.49" height="885.54" viewBox="0 0 1115.49 885.54"><defs><style>.f8c0cfef-a6fc-49fe-ba9a-38091183c40b{fill:#000116;stroke:#fff;stroke-miterlimit:10;stroke-width:1.5px;}</style></defs><title>nigger</title><path id="f9f67e88-97c7-4add-8e31-0f75aead96b6" data-name="&lt;Tracé transparent&gt;" class="f8c0cfef-a6fc-49fe-ba9a-38091183c40b" d="M1114.74,86.81a60.27,60.27,0,0,0-60.11-60.17h0a60.21,60.21,0,0,0-60.14,60.11l0,81.88a60.51,60.51,0,0,0,.72,9.31,60.21,60.21,0,0,0-5,8.47L954.3,260a59.82,59.82,0,0,0-4.63,39.14h0L899.3,363.74a59.79,59.79,0,0,0-10.73,21.67L826,437a60.31,60.31,0,0,0-6.19,5.9,59.86,59.86,0,0,0-19,4.65l-75.3,32.18A59.82,59.82,0,0,0,697,505c-.55.09-1.09.17-1.64.27L615,520.83A59.87,59.87,0,0,0,596,528c-1.67-.56-3.37-1.06-5.11-1.47l-79.63-19.06a60.52,60.52,0,0,0-8.91-1.44c-1.25-.63-2.52-1.23-3.83-1.77L423,472.72a59.81,59.81,0,0,0-21.15-4.59,59.57,59.57,0,0,0-25.45-17.75l-76-27.47a60,60,0,0,0-10.95-11.84l-62.54-51.56a59.72,59.72,0,0,0-10.72-21.66l-50.36-64.56h0a59.82,59.82,0,0,0-4.63-39.14l-35.82-73.63a60.41,60.41,0,0,0-5-8.46,60.35,60.35,0,0,0,.72-9.31l0-81.88A60.2,60.2,0,0,0,60.89.75h0A60.21,60.21,0,0,0,.75,60.92l0,81.88a59.54,59.54,0,0,0,11.13,34.74,59.54,59.54,0,0,0,5.29,35.59L53,286.76a60.15,60.15,0,0,0,6.68,10.7c-.39,1.79-.7,3.61-.93,5.45A59.71,59.71,0,0,0,71,347.27h0l50.36,64.56a60.29,60.29,0,0,0,8.57,8.92,59.55,59.55,0,0,0,19.84,31l63.18,52.09a59.86,59.86,0,0,0,16.83,9.78,59.54,59.54,0,0,0,28.7,22l77,27.84A59.89,59.89,0,0,0,353.93,567a59.61,59.61,0,0,0,22.77,16.7l75.58,31.5a59.93,59.93,0,0,0,18,4.41,60.05,60.05,0,0,0,13,4.76l37.31,8.93a135.31,135.31,0,0,0-66.12,116.2c0,74.58,60.67,135.25,135.25,135.25S725,824.12,725,749.54a135.28,135.28,0,0,0-64.22-115l57.43-11.08a60,60,0,0,0,40.7-29.08,60,60,0,0,0,13.9-4l75.3-32.18a59.76,59.76,0,0,0,20.83-14.83,59.55,59.55,0,0,0,33.62-13.51l63.18-52.09a59.79,59.79,0,0,0,19.85-31.05,60.31,60.31,0,0,0,8.56-8.91l50.36-64.56a59.71,59.71,0,0,0,12.21-44.35c-.23-1.84-.55-3.66-.93-5.45a60.25,60.25,0,0,0,6.68-10.7L1098.27,239a59.79,59.79,0,0,0,5.3-35.61,59.54,59.54,0,0,0,11.12-34.72ZM950.82,434a33.44,33.44,0,0,1-37.65-33.06,33.3,33.3,0,0,1,14.18-3.16q1.65,0,3.32.16A33.42,33.42,0,0,1,961,431.07,33.92,33.92,0,0,1,950.82,434Zm-95.39,81.7a33.33,33.33,0,0,1-24.49-35.53,34,34,0,0,1,2.39-9.68,33.48,33.48,0,0,1,22.1,45.21Zm-115.2,51.63A33.5,33.5,0,0,1,715.74,532a33.52,33.52,0,0,1,24.49,35.3ZM593.44,586.24a33.32,33.32,0,0,1,5.2-25.13c.24-.35.48-.69.73-1a34,34,0,0,1,6.1,7.38A33.37,33.37,0,0,1,604,604.83,33.39,33.39,0,0,1,593.44,586.24Zm-87-13.6a33.31,33.31,0,0,1-18.23,18.07,33.9,33.9,0,0,1-10.44,2.47A33.6,33.6,0,0,1,495,532.45,33.61,33.61,0,0,1,506.4,572.64Zm-118.91-54.3a33.49,33.49,0,0,1-19.61,19.92,33.34,33.34,0,0,1,19.21-41l.85-.33A33.39,33.39,0,0,1,387.48,518.34ZM277.1,478.82a33.55,33.55,0,0,1-29.56,12,33.34,33.34,0,0,1,17.16-42.07A33.65,33.65,0,0,1,279,445.53a33,33,0,0,1,3.63.22A33.58,33.58,0,0,1,277.1,478.82ZM164.66,408.09a33.92,33.92,0,0,1-10.16-2.9A33.35,33.35,0,0,1,184.81,372q1.67-.16,3.32-.16A33.3,33.3,0,0,1,202.28,375a34.51,34.51,0,0,1-.25,3.93,33.37,33.37,0,0,1-37.36,29.15ZM60.87,27.32h0A33.6,33.6,0,0,1,94.45,60.87l0,70.54c-1.18-.49-2.36-1-3.58-1.38a60,60,0,0,0-63.41,15.59c-.08-.94-.13-1.89-.13-2.84l0-81.88A33.6,33.6,0,0,1,60.87,27.32ZM90.22,159.13a33.58,33.58,0,0,1-29.27,17.2h0A33.17,33.17,0,0,1,42,170.46a33.39,33.39,0,0,1,29.19-17.2A33.78,33.78,0,0,1,90.22,159.13ZM41.11,201.5h0c-.37-.76-.7-1.54-1-2.32a59.82,59.82,0,0,0,20.83,3.73h0a60,60,0,0,0,45.38-20.77l31,63.64a33.48,33.48,0,0,1,2.79,8.44,60.86,60.86,0,0,0-14.31-3.56,59.71,59.71,0,0,0-44.36,12.21,60.41,60.41,0,0,0-7.22,6.66ZM134,280.56a33.49,33.49,0,0,1-42.42,9.61,33.32,33.32,0,0,1,26.74-13.41,34.55,34.55,0,0,1,4.23.26A33.81,33.81,0,0,1,134,280.56Zm-42,50.36h0a33.16,33.16,0,0,1-6.48-14.4,60.46,60.46,0,0,0,21.75,4.07,60,60,0,0,0,45.49-20.92l35.6,45.64q-3,0-6,.28a60,60,0,0,0-49.94,37.11Zm79.1,104a59.89,59.89,0,0,0,55-41.69l34.74,28.64a61.42,61.42,0,0,0-7.32,2.86A59.94,59.94,0,0,0,219,474.4ZM274.12,513a59.91,59.91,0,0,0,37.1-58l56.11,20.29c.78.28,1.54.6,2.28.93A59.91,59.91,0,0,0,340.37,537Zm112.05,45.83a60,60,0,0,0,29.26-60.51l46.16,19.24a59.91,59.91,0,0,0-22.51,63.34l-52.16-21.74Zm129.1,45.87a59.94,59.94,0,0,0,16.8-65l42.3,10.13a59.91,59.91,0,0,0,3.12,65q-6.42.58-12.67,1.75ZM696,749.54A106.24,106.24,0,1,1,571.58,644.86c1.79.16,3.58.27,5.37.27a59.32,59.32,0,0,0,14.51-1.8A106.36,106.36,0,0,1,696,749.54Zm17.19-152.22-80.4,15.51c-.92.18-1.83.3-2.75.4a60,60,0,0,0-1.88-59.68,61.36,61.36,0,0,0-5.17-7.2l66.1-12.75A60,60,0,0,0,727.26,591,33.34,33.34,0,0,1,713.16,597.32Zm53.76-33.42a60,60,0,0,0-38.23-55.51,33.5,33.5,0,0,1,7.28-4.26l68.83-29.41a60.07,60.07,0,0,0,29.11,60.56Zm118.71-54.64c-.51.42-1,.82-1.56,1.2a60,60,0,0,0-31.63-60.84l37-30.53a59.95,59.95,0,0,0,55,41.68Zm97.52-100.68a60,60,0,0,0-49.94-37.1q-3-.29-6-.28l35.6-45.64a60.06,60.06,0,0,0,45.43,20.92,60.5,60.5,0,0,0,19.77-3.35c.69-.24,1.36-.5,2-.76a33.16,33.16,0,0,1-6.49,14.44Zm-1.64-102.13A33.82,33.82,0,0,1,993,302.92a34.58,34.58,0,0,1,4.23-.26A33.32,33.32,0,0,1,1023.92,316a34.4,34.4,0,0,1-4.61,2,33.4,33.4,0,0,1-37.8-11.56Zm59.77-11a60.41,60.41,0,0,0-7.22-6.66,59.7,59.7,0,0,0-44.36-12.21,60.87,60.87,0,0,0-14.31,3.56,33.47,33.47,0,0,1,2.79-8.44l31-63.66c.93,1.07,1.88,2.11,2.89,3.12a59.71,59.71,0,0,0,42.47,17.67h0a59.82,59.82,0,0,0,20.83-3.73c-.31.78-.64,1.56-1,2.33Zm-16-110.39a34.17,34.17,0,0,1,19-5.86,33.43,33.43,0,0,1,29.15,17.19,33.36,33.36,0,0,1-18.93,5.86h0a33.31,33.31,0,0,1-23.69-9.88A34,34,0,0,1,1025.29,185Zm45.21-26.39a60,60,0,0,0-49.5-1.36l0-70.51a33.6,33.6,0,0,1,33.56-33.55h0a33.7,33.7,0,0,1,33.55,33.58l0,81.88c0,1-.05,1.9-.13,2.84A59.81,59.81,0,0,0,1070.5,158.64Z"/></svg>