<svg id="e1f39b82-c022-4f02-bc22-fcb8634f7d12" data-name="929a63f3-9ae3-4ac3-aaf2-1ac0400b1715" xmlns="http://www.w3.org/2000/svg" width="725.32" height="575.81" viewBox="0 0 725.32 575.81"><defs><style>.dd292c71-a1b9-4667-b694-eb56704d55d2{fill:#fff;stroke:#000116;stroke-miterlimit:10;}</style></defs><title>nigger</title><g id="273f1edb-dc2b-4021-9c14-41d9f8c0c280" data-name="&lt;Groupe&gt;"><path id="37e53bb8-13b8-4561-8204-7663edd37d23" data-name="&lt;Tracé transparent&gt;" class="dd292c71-a1b9-4667-b694-eb56704d55d2" d="M737.06,47.5A39.19,39.19,0,0,0,698,8.38h0a39.15,39.15,0,0,0-39.1,39.08l0,68.9a39.34,39.34,0,0,0,.47,6.05,39.15,39.15,0,0,0-3.27,5.51l-23.29,47.88a38.9,38.9,0,0,0-3,25.45h0l-32.75,42a38.88,38.88,0,0,0-7,14.09l-40.66,33.52a39.22,39.22,0,0,0-4,3.84,38.92,38.92,0,0,0-12.36,3l-49,20.92a38.9,38.9,0,0,0-18.52,16.48l-1.07.18-52.28,10.09A38.92,38.92,0,0,0,399.8,350c-1.09-.36-2.19-.69-3.32-1L344.7,336.64a39.35,39.35,0,0,0-5.79-.94c-.81-.41-1.64-.8-2.49-1.15l-49.14-20.48a38.89,38.89,0,0,0-13.75-3A38.73,38.73,0,0,0,257,299.55l-49.4-17.86a39,39,0,0,0-7.12-7.7l-40.67-33.53a38.83,38.83,0,0,0-7-14.09l-32.75-42h0a38.9,38.9,0,0,0-3-25.45L93.77,111.08a39.28,39.28,0,0,0-3.27-5.5A39.24,39.24,0,0,0,91,99.52l0-53.24A39.14,39.14,0,0,0,51.84,7.2h0A39.15,39.15,0,0,0,12.74,46.32l0,53.24A38.72,38.72,0,0,0,20,122.15a38.71,38.71,0,0,0,3.44,23.14l23.29,47.88a39.11,39.11,0,0,0,4.34,7c-.25,1.16-.46,2.34-.61,3.54a38.82,38.82,0,0,0,7.94,28.84h0l32.75,42a39.2,39.2,0,0,0,5.58,5.8,38.72,38.72,0,0,0,12.9,20.18l41.08,33.87a38.92,38.92,0,0,0,10.94,6.36A38.71,38.71,0,0,0,180.31,355l50.07,18.1a38.94,38.94,0,0,0,12,2.31,38.76,38.76,0,0,0,14.81,10.86l49.14,20.48A39,39,0,0,0,318,409.6a39,39,0,0,0,8.45,3.1l24.26,5.81a87.94,87.94,0,1,0,91.13.75l37.34-7.2a39,39,0,0,0,26.46-18.91,39,39,0,0,0,9-2.63l49-20.92A38.86,38.86,0,0,0,577.23,360a38.72,38.72,0,0,0,21.86-8.79l41.08-33.87a38.88,38.88,0,0,0,12.91-20.19,39.21,39.21,0,0,0,5.56-5.79l32.75-42a38.82,38.82,0,0,0,7.94-28.84c-.15-1.2-.35-2.38-.61-3.55a39.17,39.17,0,0,0,4.34-7l23.29-47.88A38.87,38.87,0,0,0,729.8,139,38.71,38.71,0,0,0,737,116.39ZM630.48,288.89A21.74,21.74,0,0,1,606,267.39a21.65,21.65,0,0,1,9.22-2.05q1.07,0,2.16.1A21.73,21.73,0,0,1,637.11,287,22.05,22.05,0,0,1,630.48,288.89Zm-62,53.12a21.67,21.67,0,0,1-15.93-23.1,22.08,22.08,0,0,1,1.55-6.29A21.77,21.77,0,0,1,568.46,342Zm-74.91,33.57a21.78,21.78,0,0,1-15.92-23,21.79,21.79,0,0,1,15.92,23Zm-95.44,12.3a21.66,21.66,0,0,1,3.38-16.34c.15-.23.31-.45.48-.67a22.12,22.12,0,0,1,4,4.8,21.7,21.7,0,0,1-1,24.3A21.71,21.71,0,0,1,398.11,387.88ZM341.51,379a21.66,21.66,0,0,1-11.85,11.75,22,22,0,0,1-6.79,1.61,21.84,21.84,0,0,1,11.2-39.49A21.86,21.86,0,0,1,341.51,379Zm-77.32-35.3a21.77,21.77,0,0,1-12.75,13A21.68,21.68,0,0,1,263.94,330l.55-.21A21.71,21.71,0,0,1,264.2,343.74ZM192.42,318a21.82,21.82,0,0,1-19.22,7.8,21.68,21.68,0,0,1,11.15-27.35,21.88,21.88,0,0,1,9.31-2.09,21.48,21.48,0,0,1,2.36.15A21.83,21.83,0,0,1,192.42,318Zm-73.1-46a22.05,22.05,0,0,1-6.6-1.89,21.69,21.69,0,0,1,19.7-21.56q1.08-.1,2.16-.1a21.65,21.65,0,0,1,9.2,2,22.44,22.44,0,0,1-.16,2.56,21.7,21.7,0,0,1-24.29,19ZM51.83,24.47h0A21.85,21.85,0,0,1,73.67,46.29l0,45.86c-.76-.32-1.54-.62-2.33-.89a39,39,0,0,0-41.23,10.14c-.05-.61-.08-1.23-.08-1.85l0-53.24A21.85,21.85,0,0,1,51.83,24.47Zm19.08,85.7a21.84,21.84,0,0,1-19,11.18h0a21.57,21.57,0,0,1-12.28-3.82,21.71,21.71,0,0,1,19-11.18A22,22,0,0,1,70.91,110.18ZM39,137.73h0c-.24-.5-.46-1-.66-1.51a38.89,38.89,0,0,0,13.54,2.42h0a39,39,0,0,0,29.5-13.51l20.13,41.38a21.77,21.77,0,0,1,1.81,5.48,39.57,39.57,0,0,0-9.3-2.31,38.82,38.82,0,0,0-28.84,7.94A39.28,39.28,0,0,0,60.5,182Zm60.37,51.41a21.78,21.78,0,0,1-27.58,6.25,21.66,21.66,0,0,1,17.38-8.72,22.46,22.46,0,0,1,2.75.17A22,22,0,0,1,99.36,189.13ZM72,221.88h0a21.56,21.56,0,0,1-4.22-9.36A39.31,39.31,0,0,0,82,215.15a39,39,0,0,0,29.58-13.6l23.15,29.67q-2,0-3.92.19a39,39,0,0,0-32.47,24.13Zm51.43,67.6a38.94,38.94,0,0,0,35.73-27.11L181.78,281a39.94,39.94,0,0,0-4.76,1.86,39,39,0,0,0-22.39,32.32Zm67,50.82a39,39,0,0,0,24.13-37.69l36.48,13.19c.51.18,1,.39,1.48.61a39,39,0,0,0-19,39.47Zm72.86,29.8a39,39,0,0,0,19-39.34l30,12.51a39,39,0,0,0-14.64,41.19l-33.91-14.14Zm83.94,29.82a39,39,0,0,0,10.92-42.27l27.5,6.58a39,39,0,0,0,2,42.26q-4.18.38-8.24,1.14Zm117.49,94.15A69.08,69.08,0,1,1,383.9,426c1.16.11,2.33.17,3.49.17a38.57,38.57,0,0,0,9.43-1.17A69.15,69.15,0,0,1,464.78,494.06Zm11.18-99-52.28,10.09c-.6.12-1.19.2-1.79.26a39,39,0,0,0-1.22-38.81,39.89,39.89,0,0,0-3.36-4.68l43-8.29A39,39,0,0,0,485.12,391,21.68,21.68,0,0,1,476,395.09Zm35-21.73a39,39,0,0,0-24.86-36.09,21.78,21.78,0,0,1,4.74-2.77l44.75-19.13a39.05,39.05,0,0,0,18.93,39.37Zm77.19-35.52c-.33.27-.67.53-1,.78a39,39,0,0,0-20.57-39.56l24.08-19.85a39,39,0,0,0,35.74,27.1Zm63.41-65.47A39,39,0,0,0,619,248.25q-2-.19-3.92-.18l23.15-29.67A39,39,0,0,0,667.8,232a39.33,39.33,0,0,0,12.86-2.18c.45-.15.89-.33,1.33-.49a21.56,21.56,0,0,1-4.22,9.39ZM650.44,206a22,22,0,0,1,7.44-2.3,22.48,22.48,0,0,1,2.75-.17A21.66,21.66,0,0,1,678,212.2a22.37,22.37,0,0,1-3,1.28A21.71,21.71,0,0,1,650.44,206Zm38.86-7.18a39.28,39.28,0,0,0-4.69-4.33,38.82,38.82,0,0,0-28.84-7.94,39.58,39.58,0,0,0-9.3,2.31,21.76,21.76,0,0,1,1.81-5.48L668.42,142c.6.69,1.22,1.37,1.88,2a38.83,38.83,0,0,0,27.62,11.49h0a38.89,38.89,0,0,0,13.55-2.42c-.2.51-.42,1-.66,1.51ZM678.9,127a22.21,22.21,0,0,1,12.38-3.81,21.73,21.73,0,0,1,19,11.18,21.69,21.69,0,0,1-12.31,3.81h0a21.66,21.66,0,0,1-15.4-6.43A22.11,22.11,0,0,1,678.9,127Zm29.39-17.16a39,39,0,0,0-32.19-.89l0-61.5A21.85,21.85,0,0,1,698,25.65h0a21.91,21.91,0,0,1,21.81,21.83l0,68.9c0,.62,0,1.24-.08,1.85A38.89,38.89,0,0,0,708.3,109.85Z" transform="translate(-12.24 -6.7)"/><path class="dd292c71-a1b9-4667-b694-eb56704d55d2" d="M388.78,546.07c-19.56-2.71-30.41-15.28-33.69-31.41l16.56-8.42c2.14,12,7.28,20,17.13,22.84V499.67c-17.13-3.85-29.41-13.13-29.41-29.55,0-15,11.71-25.27,29.41-27.13V430.43h14.85v13.13c13.71,2.43,23.7,10.71,29,24.84L417.76,477c-2.71-8.14-7.57-13.85-14.13-16.56v25.27c20.42,4.71,30.69,14,30.69,30.27,0,14.71-11.42,27.84-30.69,30.27v12.71H388.78Zm0-64.24v-22.7c-6.85,1.14-11.42,4.43-11.42,10.56C377.36,475.11,380.93,478.82,388.78,481.82Zm14.85,21.7v25.84c7.28-1.71,11.85-6.42,11.85-12.71S411.34,506.38,403.63,503.52Z" transform="translate(-12.24 -6.7)"/></g></svg>