<svg id="67c774df-457a-44b7-892b-e3ace871dc54" data-name="929a63f3-9ae3-4ac3-aaf2-1ac0400b1715" xmlns="http://www.w3.org/2000/svg" width="242.24" height="642.19" viewBox="0 0 242.24 642.19"><defs><style>.\30 aec1af9-0bd6-4215-87b8-eda800a07fa6{fill:#fff;}.\30 aec1af9-0bd6-4215-87b8-eda800a07fa6,.\38 6752903-9cdf-4a30-b135-7a666bb2c52c,.\39 ac5d9b5-b0ba-4c74-9337-670a302a8e98{stroke:#000;stroke-miterlimit:10;}.\38 6752903-9cdf-4a30-b135-7a666bb2c52c,.\39 ac5d9b5-b0ba-4c74-9337-670a302a8e98{fill:none;}.\38 6752903-9cdf-4a30-b135-7a666bb2c52c{stroke-linecap:round;}</style></defs><title>no</title><path class="0aec1af9-0bd6-4215-87b8-eda800a07fa6" d="M638.8,585.3s84.5,38.5,185.4-8.2" transform="translate(-598.8 -78.61)"/><path d="M760.4,720.8c-9.1-5.4-16.7-15.9-23.8-33.2-4.7-11.3-9.3-25.7-13.6-42.9-7.2-28.6-11.4-57.7-11.5-58.8h33.6c0,.2,5.3,22.3,11.9,48.7,12,48.1,26.7,61.4,26.6,61.3Z" transform="translate(-598.8 -78.61)"/><path class="0aec1af9-0bd6-4215-87b8-eda800a07fa6" d="M633.1,577a9,9,0,0,0,9.1,9c18.2-.1,60-.3,86.7.1s71.5-4.9,91-7.4a10.42,10.42,0,0,0,9.1-10.9l-3.8-67.4c-.4-7.5.2-14.9,3.1-21.9,5.6-13.5,12.8-39.5,12.2-56.4-.3-9.8-1.4-18.9-3.8-26.3a113.84,113.84,0,0,1-5-41.4c1.7-27.1,2.4-76-6-139.2,0,0-3.9-54.1-4.5-74.7-.4-14.4-4-29.5-6.2-37.4a30.9,30.9,0,0,0-7.5-13.3c-6-6.3-16.8-13.6-32.1-9.5A33,33,0,0,0,753,99.7a41.69,41.69,0,0,0-3.4,18.1c.8,23.4,4.5,144.6-.1,153.3,0,0-42.8-38.2-73.6,18.7,0,0-37.5-5.8-46.7,32.1,0,0-29.9,5.9-29.9,41.3,0,22.9,3.6,52.2,6.2,69.9a161.61,161.61,0,0,0,8.1,32.2c3.2,8.8,7.5,19.8,12,29.2a70.8,70.8,0,0,1,7,30.3Z" transform="translate(-598.8 -78.61)"/><path class="86752903-9cdf-4a30-b135-7a666bb2c52c" d="M648.8,561.5l.7-24.8c0-16.7-1.5-31.9-8.3-47.1-12.1-27.2-33.8-78.9-27.8-130.1,0,0,1.4-29.6,35.4-23.4,0,0-14.3-20.1,12.1-32.8,7.6-3.7,18.9-5.4,29.4,1.4,0,0-10.4-27.6,22.5-35.4,25.9-6.1,42.1,28.6,42.1,28.6s14-2.5,8.1-158.3c-.2-4.2-.6-8.4-1.1-12.6-1.1-9.2-1.6-31.4,18.3-33.3,25.2-2.3,27.3,28.4,27.3,28.4l7.1,92.7c.7,12,3,28.6,3.8,35.1l.2,4.7c2.1,10.7,2,30.4,2.4,37.1.1,1.5.1,2.9.1,4.4-.2,14.1-1.4,65.2,2.1,86.9,0,0,4,19.6,5.4,30.9a96.43,96.43,0,0,1-2.1,35.9c0,.1,0,.1-.1.2l-7.3,23c-1.4,5.5-2.8,11.2-2.8,16.9V557" transform="translate(-598.8 -78.61)"/><path class="86752903-9cdf-4a30-b135-7a666bb2c52c" d="M624.3,387s7.5,3.4,14.3,15,18.1,32.7,24.5,38.8a15.41,15.41,0,0,0,11.6,4.4c13.7-.7,24.2-16.1,20.1-29.2l-.3-.9c-5.5-15.2-45.7-79.2-45.7-79.2" transform="translate(-598.8 -78.61)"/><path class="86752903-9cdf-4a30-b135-7a666bb2c52c" d="M769.4,433.4s-20.4-19.1-19.8-55.2" transform="translate(-598.8 -78.61)"/><path class="86752903-9cdf-4a30-b135-7a666bb2c52c" d="M759.5,379.7s-66.7-3.8-66.8-46.5a6,6,0,0,1,5.7-6c6.7-.4,18.3-.7,27.7.4,0,0,10.9-7.1,41-1a25.06,25.06,0,0,1,10.9,5.2c7.4,6.1,21.9,20.7,46.2,55.5" transform="translate(-598.8 -78.61)"/><path class="86752903-9cdf-4a30-b135-7a666bb2c52c" d="M644.7,391s4.8-10.4,15.3-9.9" transform="translate(-598.8 -78.61)"/><path class="86752903-9cdf-4a30-b135-7a666bb2c52c" d="M644.7,402.7s4.1-18.4,23.8-18.1" transform="translate(-598.8 -78.61)"/><path class="86752903-9cdf-4a30-b135-7a666bb2c52c" d="M651.7,401.3s5.3-14,16.2-9" transform="translate(-598.8 -78.61)"/><path class="86752903-9cdf-4a30-b135-7a666bb2c52c" d="M672.2,438.6l12.6-6.3c1.8-1,6.2-3.8,5.7-5.9-1.3-5.6-8.3-16.3-18.4-12.1-12.6,5.1-7.9,17.9-4.7,23A3.54,3.54,0,0,0,672.2,438.6Z" transform="translate(-598.8 -78.61)"/><path class="86752903-9cdf-4a30-b135-7a666bb2c52c" d="M712.9,418a25.14,25.14,0,0,0,14.7-12.6,7.24,7.24,0,0,0,.4-5.6c-1.9-5.6-7.2-16.5-19.2-10.2-11.4,6-6.8,18.7-3.5,25.3A6.31,6.31,0,0,0,712.9,418Z" transform="translate(-598.8 -78.61)"/><path class="86752903-9cdf-4a30-b135-7a666bb2c52c" d="M739.8,376.6s-.3,9.4,1.7,15.7a6,6,0,0,0,8.1,3.6h0" transform="translate(-598.8 -78.61)"/><path class="86752903-9cdf-4a30-b135-7a666bb2c52c" d="M622.2,368.3s-10.6-19.3,16.4-28.2" transform="translate(-598.8 -78.61)"/><path class="86752903-9cdf-4a30-b135-7a666bb2c52c" d="M695.7,419.1s13.7,12.6,26.8,2.7a32.46,32.46,0,0,0,13.2-24.1l-10.6-25.6" transform="translate(-598.8 -78.61)"/><path class="86752903-9cdf-4a30-b135-7a666bb2c52c" d="M752.8,403.4s-6.6,4.2-17.1-5.7" transform="translate(-598.8 -78.61)"/><path class="86752903-9cdf-4a30-b135-7a666bb2c52c" d="M653.1,332.9s-7.7-19.4,19.2-24.5" transform="translate(-598.8 -78.61)"/><path class="86752903-9cdf-4a30-b135-7a666bb2c52c" d="M718,275s-29.3,5.4-20.8,28.6" transform="translate(-598.8 -78.61)"/><path class="86752903-9cdf-4a30-b135-7a666bb2c52c" d="M726.5,322s2.8-6.1,14.7-7.8" transform="translate(-598.8 -78.61)"/><path class="86752903-9cdf-4a30-b135-7a666bb2c52c" d="M751.7,317.4s-11.1,1.1-11.9,6.1" transform="translate(-598.8 -78.61)"/><path class="86752903-9cdf-4a30-b135-7a666bb2c52c" d="M752.8,324.4s3.3,3.7,2.1,11.5" transform="translate(-598.8 -78.61)"/><path class="86752903-9cdf-4a30-b135-7a666bb2c52c" d="M757.8,346.7s8.1-10.7,4.2-20.6" transform="translate(-598.8 -78.61)"/><path class="86752903-9cdf-4a30-b135-7a666bb2c52c" d="M765,346.7s4.6-8,3.8-13.1" transform="translate(-598.8 -78.61)"/><path class="86752903-9cdf-4a30-b135-7a666bb2c52c" d="M694.6,344.7l16,1.3a13.6,13.6,0,0,0,14.7-11.5,27.53,27.53,0,0,0,.1-7.1" transform="translate(-598.8 -78.61)"/><path class="86752903-9cdf-4a30-b135-7a666bb2c52c" d="M679.9,355.5s4.7-7.3,12.8-7.3" transform="translate(-598.8 -78.61)"/><path class="86752903-9cdf-4a30-b135-7a666bb2c52c" d="M677.8,368.3s4-14.9,20.1-15.8" transform="translate(-598.8 -78.61)"/><path class="86752903-9cdf-4a30-b135-7a666bb2c52c" d="M684.3,368.3s1.7-8.3,17.3-11.6" transform="translate(-598.8 -78.61)"/><path class="86752903-9cdf-4a30-b135-7a666bb2c52c" d="M755,297.8s9.9,20.2,10.3,28.3" transform="translate(-598.8 -78.61)"/><path class="9ac5d9b5-b0ba-4c74-9337-670a302a8e98" d="M701.9,557.2V448.1a4.27,4.27,0,0,1,4.3-4.3h3.1a4.28,4.28,0,0,1,4.2,3.4l7.8,39.7c2.4,12.4,4.9,27.1,6.7,40.3h.2c-.6-15.5-.8-31.4-.8-49V448.1a4.27,4.27,0,0,1,4.3-4.3h0a4.27,4.27,0,0,1,4.3,4.3V557.2a4.27,4.27,0,0,1-4.3,4.3h-2a4.27,4.27,0,0,1-4.2-3.5l-8.1-41.9c-2.4-12.6-5.1-27.8-7.1-41.5l-.2.2c.2,15.5.4,32.1.4,51.3v31.2a4.27,4.27,0,0,1-4.3,4.3h0A4.42,4.42,0,0,1,701.9,557.2Z" transform="translate(-598.8 -78.61)"/><path class="9ac5d9b5-b0ba-4c74-9337-670a302a8e98" d="M753.8,510.3c-5.8,0-11.4-10.6-11.4-31.8s5.7-31.8,11.4-31.8,11.4,10.6,11.4,31.8S759.5,510.3,753.8,510.3Zm5.7-31.7c0-10.3-2.4-16.6-5.7-16.6s-5.7,6.3-5.7,16.6,2.5,16.6,5.7,16.6S759.5,488.7,759.5,478.6Z" transform="translate(-598.8 -78.61)"/></svg>