<svg id="59256561-d36d-482f-9edf-9c91bbacad5c" data-name="Calque 1" xmlns="http://www.w3.org/2000/svg" width="1265.47" height="355.61" viewBox="0 0 1265.47 355.61"><defs><style>.\39 8841289-61a7-4cbb-b719-8442d0d180bc{fill:#fff;stroke:#000;stroke-miterlimit:10;}</style></defs><title>numbers</title><path class="98841289-61a7-4cbb-b719-8442d0d180bc" d="M262.5,289.6c-8.9,10.6-148.2,166.7-157,176.1,8.9-9.4,9.9-8.4,1.1,1.1,14.9-12,34.4-14.1,43.8-5.2,21.7-8.9,38.6-5.3,58.3,7.5,13.6-6.7,29.9-3.1,53.7,7.5C253.5,466,253.5,300.1,262.5,289.6Zm46,186c19.8-8.6,34.1-25,56.6-18.4-11.8-6.4-9.7-4,6.9,6.3-16.6,5.7-59.1,15.8-63.5,26-9.4-10.2-9.4,24.6,0,39.2-9.4,4.4-7.3,14.6,2.3,37.5-9.7-14.7-11.8-13.2-7.5,6.3-8.8-19.6-42.6-19.6-38.1,0-9.2-19.6-11.2-21-7.5-6.3-3.6-22.9-1.6-33.1,2.3-37.5-4-14.6-4-49.4,0-39.2-15.1-10.2-33.1-14.7-54.2-8.7-16.2-12.2-36.2-14.8-61.1-6.3-27.7-8.5-40.5-1.2-60.6,8.1,12.9-9.4,11.4-10.4-5.2-4.6,16.6-13.4,21.2-17.1,9.3-13.2,15.6-7.3,185.5-199.2,191.7-216.5,1.6,8.5,7.7-1.2,22.5-20.8-5.1,19.6-3.1,25.7,6.3,16.7C299.1,261.7,299.1,467,308.5,475.6Z" transform="translate(-76.34 -222.46)"/><path class="98841289-61a7-4cbb-b719-8442d0d180bc" d="M1294.8,480.4l7.1-42.8-15-41,.1-3.7-3.5-1.8-28.7-32.5-42.5-6.4-10.7.2-9.3,5.3-6.6.8-4.5,4.7-16.8,11.4-9.9,17.6-4.3,3.4-.2,5.5-7.3,50,23.1,45,7,10.5,10.8,6.3,7.9,6.4,10.1,2.5,15.4,7.1,16.7-1.6,5.3,1.7,4.6-2.7,3.6.6,2.5-2.9,1.7,2.3,1.4-2.3,28.3-14.8,14-28.5,1.5-.8Zm20.4-243.8-10.7,47.7-29.3,39.1-15.9,5.5-15,6,58.1,30.4,34.4,57.4,2.1,21.1,2.4,21.1-4.1,11.6-.5,12.3-6.3,10.7-2.8,12.2-12.5,13.9-11.4,14.7-21.5,10.8-21.9,9.7-29.7-1.1-29.5-3.5-.6-3.1-2.8.8-40.6-27.3-30.2-38.8-3.3-15.3-5.8-14.5.5-18.2-1.6-18.2,4.1-11.1.5-11.8,9.7-16.5,7.3-17.6,10.2-8.8,8.1-10.6,16.6-9.2,15.3-11.4,63.2-30.9,29.9-61,16.7,3.5,15.9-1,.2,2.3Z" transform="translate(-76.34 -222.46)"/><path class="98841289-61a7-4cbb-b719-8442d0d180bc" d="M1004.1,394.1c21.9,10.2,41.7,14.1,56.1,21.6,14.5,8.1,23.5,19.9,23.8,61,.1,20.6-2.9,44.2-8.5,60.6-5.5,16.8-13.6,26.4-23.4,28.8-19.7,4.4-46.4-17.5-74.1-43.7-20.8-20-37.7-42.2-49.5-56.6-11.8-15-18.3-22.5-18.2-26.4.1-3.6,9.2-6,17.7-2.6,15.3,7,17.2,17.7,21.2,30.5,4.1,13.1,10.3,28.3,34,52.3,24.4,24.1,39.6,31.1,48.6,23.8,8.9-6.7,11.8-27.5,11.6-49.4-.2-35.6-6.9-78.4-41.8-92.4-32.5-14.8-27.8,12.4-46,3.3-6.1-2.6-8.8-5.5-8.8-8.8.1-6.6,20.3-5.8,40.3-9.2,20.1-2.7,40-26.7,39.9-75.3-.1-30.3-6.6-65.2-38.1-36.3-22.9,21.2-43.2,47.1-43.4,57.5-.1,8.1,11.3,11,25.8,11,7.2-.5,14.4-1.4,20.7-5.2-3.8,21-24.5,17.4-33.6,17.6-18-1-35.9,7.1-35.6-1.5.5-14.9,35.5-54.4,78-100.4,35-36.4,62.8-27.7,63.2,22.3.2,29.2-7.5,61.9-18.9,82.7-11.4,21.6-26.4,31.2-41.1,31.6C1004.1,392.2,1004.1,393.2,1004.1,394.1Z" transform="translate(-76.34 -222.46)"/><path class="98841289-61a7-4cbb-b719-8442d0d180bc" d="M834.3,306.9c-27.2,55-99.6,170-131.3,208.7,35.7-32.2,53-57.9,37.3-3.6,25.9-47.7,23.7-30.4,23.1,24.6,24.2-55,31.2-49.6,61.4-37.4-15.7-50.7-12.1-72,19.7-116.3C812.6,389.3,810.8,375.4,834.3,306.9ZM691.5,487.6c27.7-55.4,93.2-160.6,125.1-198.4-36.5,29.5-43.1,41.8-28.8-12.9-25,48.8-26.2,38-26-17.4-21,55.4-28,46.2-58.1,28.1,14.4,51.6,10.4,72.9-21.5,116.1,31.9-11.5,32-5.1,1,34.6C714.8,411.4,716.4,420.6,691.5,487.6Zm71.8-263.8c24.4,52.3,42.3,71,99.7,24.6-32.2,86.7-26,113.8,34.4,147.9-60.2,34.2-66.6,61.5-34.4,148.2-57.4-46.4-75.7-59.7-99.7,31.6-24-91.2-60.3-53.7-99.6-31.6,32.1-86.7,25.8-113.9-34.5-148.2,60.2-34.1,66.6-61.3,34.5-147.9C721.1,294.9,737.8,299.6,763.3,223.8Z" transform="translate(-76.34 -222.46)"/><path class="98841289-61a7-4cbb-b719-8442d0d180bc" d="M497,275.5c-.3-33.1,7.5-34.2,22-4.4,12.3-35.3,24.4-38.1,28.7-5.8,35.4-40,57.4-43.3,47.2-7.1,43.3-36.3,57.1-15.8,29.6,42.8,27.5-14.1,13.7-5.9-12.8,14.6,17.1-25.3,13.8-26.4-14.1-3.5.3-22.9-34.9-18-59.7,7.9-5.5-18.2-9.4-14.4-22.5,22.5-5.1-6.6-2.8,2.3.9,12.8,9.5-16,20.5-18.3,23.8-4.9,44.5-13.4,70,16.8,50.9,60.6,19.1,86.5-60.8,176.9-124.2,140.6-58.4,36.3-91.4,2.6-64.1-65.4-27.5-13.6-9.8-35,35.4-44.2-3.3,9.2,12.8,23.5,25.2,23.4-12.4,17.2-13.6,20.5-2.3,7.5-13,16.8-18.5,31.2-4.4,13.2-14.1,27.2-6.9,33.3,12,10.6,3.2,22.7,21.9,10.6,40.2-25.7,17.5-5.7,29.6-33.2,24.7-55.3,4.9-9.9-2.8-19.9-15-18.1-8.1-1.7-18.1,2.7-28.3,12.8-5.8,1.5-35.6,13-33.1,2.6-18.4-1.2-21.7-3.4-8.4-6.2-26.6-6.1-28.7-8.8-10.2-12.8-18.5-18.6,2.9-66,38.4-82.6C468,288.6,459.2,250.6,497,275.5Z" transform="translate(-76.34 -222.46)"/></svg>