<svg id="1e714e53-74b9-4ba8-b2e9-303debb844e7" data-name="929a63f3-9ae3-4ac3-aaf2-1ac0400b1715" xmlns="http://www.w3.org/2000/svg" width="577.49" height="552.69" viewBox="0 0 577.49 552.69"><defs><style>.b9d7eee3-ff28-4073-bdad-3cc5e55b3a22{fill:#fff;stroke:#000116;stroke-miterlimit:10;}</style></defs><title>penis</title><path class="b9d7eee3-ff28-4073-bdad-3cc5e55b3a22" d="M480,473.6c-23.6,13.4-46.6,44.1-48.1,71.8-1.3,22.9,6.2,46.7,22.6,63.1,14.2,14.2,33.7,22.6,54.2,24.5,5.8.5,60.3-4,58-13,16,61.4,98.1,67.2,142.8,41.2,42.3-24.6,49.5-76.1,39.4-112.1-9-32.2-44.5-45.1-71.8-56.5-49.1-20.4-107.7-44-161.7-32.8A127,127,0,0,0,480,473.6Z" transform="translate(-431.26 -123.61)"/><path class="b9d7eee3-ff28-4073-bdad-3cc5e55b3a22" d="M535.3,503.4C643.9,272.1,814.2,195.6,814.2,195.6c-9.4-71.1,149.4-94.7,187.3-45.4,29,37.8-41.3,166-99.9,140.4,0,0-155.2,101.3-203.5,236.7" transform="translate(-431.26 -123.61)"/><path class="b9d7eee3-ff28-4073-bdad-3cc5e55b3a22" d="M964.3,162c15-11.8,34.6-14.4,36.4-11.8,2.2,2.6-13.7,7.8-28.7,18.1-15.2,10.2-22.9,20.8-25,19.5C945.1,186.8,949.2,173.7,964.3,162Z" transform="translate(-431.26 -123.61)"/><path class="b9d7eee3-ff28-4073-bdad-3cc5e55b3a22" d="M964.3,162c15-11.8,34.6-14.4,36.4-11.8,2.2,2.6-13.7,7.8-28.7,18.1-15.2,10.2-22.9,20.8-25,19.5C945.1,186.8,949.2,173.7,964.3,162Z" transform="translate(-431.26 -123.61)"/></svg>