<?xml version="1.0" encoding="utf-8"?>
<!-- Generator: Adobe Illustrator 22.1.0, SVG Export Plug-In . SVG Version: 6.00 Build 0)  -->
<svg version="1.1" id="_x39_29a63f3-9ae3-4ac3-aaf2-1ac0400b1715"
	 xmlns="http://www.w3.org/2000/svg" xmlns:xlink="http://www.w3.org/1999/xlink" x="0px" y="0px" viewBox="0 0 1440 800"
	 style="enable-background:new 0 0 1440 800;" xml:space="preserve">
<style type="text/css">
	.st0{fill-rule:evenodd;clip-rule:evenodd;fill:#1C0A05;stroke:#1C0A05;stroke-miterlimit:10;}
	.st1{fill:#1C0A05;stroke:#FFFFFF;stroke-miterlimit:10;}
	.st2{fill-rule:evenodd;clip-rule:evenodd;fill:#FFFFFF;stroke:#1C0A05;stroke-miterlimit:10;}
</style>
<g>
	<path class="st0" d="M896.5,373.3c-0.1-0.4-0.1-0.8-0.2-1.3c-0.2-1.1-0.3-2.1-0.5-3.2c-0.1-0.4-0.1-0.7-0.2-1.1
		c-0.5-2.8-1.1-5.6-1.7-8.3c-0.1-0.3-0.2-0.7-0.2-1c-0.2-1-0.5-2.1-0.8-3.1c-0.1-0.4-0.2-0.8-0.3-1.3c-0.3-1-0.5-2-0.8-2.9
		c-0.1-0.4-0.2-0.8-0.3-1.2c-0.3-1.2-0.7-2.4-1.1-3.6c0-0.1-0.1-0.3-0.1-0.4c-0.4-1.3-0.8-2.6-1.3-4c-0.1-0.3-0.2-0.7-0.3-1
		c-0.3-1-0.7-1.9-1-2.9c-0.2-0.4-0.3-0.9-0.5-1.3c-0.3-0.9-0.7-1.7-1-2.6c-0.2-0.4-0.3-0.9-0.5-1.3c-0.4-1-0.8-2-1.2-2.9
		c-0.1-0.3-0.2-0.6-0.4-0.8c-0.5-1.2-1.1-2.5-1.6-3.7c-0.2-0.4-0.3-0.7-0.5-1.1c-0.4-0.9-0.8-1.7-1.2-2.5c-0.2-0.5-0.5-0.9-0.7-1.4
		c-0.4-0.8-0.7-1.5-1.1-2.2c-0.2-0.5-0.5-1-0.7-1.4c-0.4-0.8-0.8-1.6-1.2-2.3c-0.2-0.4-0.4-0.8-0.7-1.2c-0.6-1.1-1.2-2.2-1.9-3.3
		c-0.3-0.4-0.5-0.9-0.8-1.3c-0.4-0.7-0.8-1.4-1.3-2.1c-0.3-0.5-0.6-1-1-1.5c-0.4-0.6-0.8-1.2-1.2-1.8c-0.3-0.5-0.7-1.1-1-1.6
		c-0.4-0.6-0.8-1.2-1.2-1.8c-0.3-0.5-0.7-1-1-1.5c-0.6-0.9-1.2-1.8-1.9-2.7c-0.4-0.6-0.9-1.2-1.3-1.8c-0.4-0.5-0.8-1.1-1.2-1.6
		c-0.4-0.6-0.8-1.1-1.3-1.7c-0.4-0.5-0.7-0.9-1.1-1.4c-0.4-0.6-0.9-1.1-1.3-1.7c-0.4-0.4-0.7-0.9-1.1-1.3c-0.5-0.6-1-1.2-1.4-1.7
		c-0.2-0.3-0.5-0.6-0.7-0.9c-1-1.2-2.1-2.5-3.2-3.7c-0.3-0.3-0.6-0.6-0.9-1c-0.6-0.6-1.1-1.2-1.7-1.8c-0.3-0.3-0.6-0.7-0.9-1
		c-0.6-0.6-1.1-1.2-1.7-1.8c-0.3-0.3-0.6-0.6-0.9-0.9c-0.6-0.6-1.2-1.3-1.9-1.9c-0.1-0.1-0.1-0.1-0.2-0.2c-1.5-1.5-3.1-3-4.7-4.4
		c-0.1-0.1-0.2-0.2-0.3-0.3c-0.7-0.6-1.4-1.3-2.1-1.9c-0.2-0.2-0.5-0.4-0.7-0.6c-0.7-0.6-1.4-1.2-2.1-1.8c-0.2-0.2-0.4-0.4-0.6-0.5
		c-3.3-2.8-6.8-5.5-10.3-8c-0.1-0.1-0.3-0.2-0.4-0.3c-0.8-0.6-1.7-1.2-2.5-1.8c-0.1-0.1-0.3-0.2-0.4-0.3c-3.7-2.6-7.5-5-11.4-7.2
		c0,0-0.1-0.1-0.1-0.1c-1-0.6-1.9-1.1-2.9-1.6c-0.1,0-0.2-0.1-0.2-0.1c-5-2.8-10.2-5.3-15.5-7.6c0,0-0.1,0-0.1-0.1
		c-5.3-2.3-10.8-4.4-16.4-6.2c0,0-0.1,0-0.1,0c-5.6-1.8-11.2-3.3-17-4.6c0,0-0.1,0-0.1,0c0,0,0,0,0,0c-18-3.9-36.9-5.1-56.2-3.1
		c-99.1,10-171.3,98.4-161.3,197.5c10,99.1,98.4,171.3,197.5,161.3c11.8-1.2,23.2-3.5,34.1-6.8c0.3-0.1,0.7-0.2,1-0.3
		c0.9-0.3,1.8-0.6,2.7-0.9c0.4-0.1,0.9-0.3,1.3-0.4c0.9-0.3,1.7-0.6,2.6-0.9c0.4-0.2,0.9-0.3,1.3-0.5c0.9-0.3,1.7-0.6,2.6-0.9
		c0.4-0.2,0.9-0.3,1.3-0.5c0.9-0.3,1.7-0.7,2.6-1c0.4-0.2,0.8-0.3,1.2-0.5c0.9-0.4,1.7-0.7,2.6-1.1c0.4-0.2,0.7-0.3,1.1-0.5
		c0.9-0.4,1.8-0.8,2.7-1.2c0.2-0.1,0.3-0.1,0.5-0.2c3.3-1.5,6.5-3.1,9.7-4.8c0.2-0.1,0.4-0.2,0.5-0.3c0.9-0.5,1.7-1,2.6-1.4
		c0.3-0.2,0.7-0.4,1-0.6c0.8-0.5,1.6-0.9,2.4-1.4c0.4-0.2,0.8-0.4,1.1-0.7c0.8-0.5,1.5-0.9,2.3-1.4c0.4-0.2,0.8-0.5,1.2-0.7
		c0.8-0.5,1.5-1,2.3-1.5c0.4-0.2,0.8-0.5,1.1-0.7c0.8-0.5,1.5-1,2.3-1.5c0.3-0.2,0.7-0.5,1-0.7c0.8-0.5,1.6-1.1,2.3-1.6
		c0.2-0.2,0.5-0.4,0.7-0.5c2.8-2,5.5-4.2,8.2-6.4c0.1-0.1,0.3-0.2,0.4-0.4c0.7-0.6,1.4-1.2,2.2-1.8c0.3-0.3,0.6-0.5,1-0.8
		c0.7-0.6,1.3-1.2,2-1.7c0.4-0.3,0.7-0.6,1.1-1c0.6-0.6,1.2-1.1,1.9-1.7c0.4-0.3,0.7-0.7,1.1-1.1c0.6-0.6,1.2-1.2,1.8-1.7
		c0.4-0.4,0.7-0.7,1.1-1.1c0.6-0.6,1.2-1.2,1.8-1.8c0.4-0.4,0.7-0.7,1.1-1.1c0.6-0.6,1.2-1.2,1.7-1.8c0.3-0.3,0.6-0.7,1-1
		c0.6-0.6,1.2-1.3,1.8-2c0.1-0.2,0.3-0.3,0.4-0.5c1.3-1.5,2.7-3.1,4-4.6c0.2-0.3,0.5-0.5,0.7-0.8c0.5-0.6,1-1.3,1.5-1.9
		c0.3-0.4,0.7-0.9,1-1.3c0.5-0.6,0.9-1.2,1.4-1.8c0.4-0.5,0.7-0.9,1.1-1.4c0.5-0.6,0.9-1.2,1.3-1.8c0.4-0.5,0.7-1,1.1-1.5
		c0.4-0.6,0.9-1.2,1.3-1.8c0.4-0.5,0.7-1,1.1-1.5c0.4-0.6,0.8-1.2,1.2-1.8c0.4-0.5,0.7-1.1,1-1.6c0.4-0.6,0.8-1.2,1.2-1.8
		c0.3-0.6,0.7-1.1,1-1.7c0.4-0.6,0.7-1.2,1.1-1.8c0.4-0.6,0.7-1.2,1.1-1.8c0.5-0.9,1.1-1.8,1.6-2.8c0.4-0.8,0.9-1.6,1.3-2.4
		c0.3-0.6,0.6-1.1,0.9-1.7c0.3-0.6,0.7-1.3,1-2c0.3-0.6,0.6-1.2,0.9-1.8c0.3-0.6,0.6-1.3,1-1.9c0.3-0.6,0.6-1.2,0.8-1.8
		c0.3-0.7,0.6-1.3,0.9-2c0.3-0.6,0.5-1.2,0.8-1.8c0.3-0.7,0.6-1.3,0.9-2c0.3-0.6,0.5-1.2,0.8-1.8c0.3-0.7,0.6-1.4,0.8-2.1
		c0.2-0.6,0.5-1.2,0.7-1.7c0.3-0.7,0.6-1.5,0.8-2.2c0.2-0.5,0.4-1.1,0.6-1.6c0.3-0.9,0.6-1.8,0.9-2.7c0.1-0.4,0.3-0.8,0.4-1.3
		c0.4-1.3,0.9-2.6,1.3-3.9c0.1-0.4,0.2-0.8,0.4-1.2c0.3-0.9,0.6-1.9,0.8-2.8c0.1-0.5,0.3-1,0.4-1.6c0.2-0.8,0.5-1.7,0.7-2.5
		c0.1-0.6,0.3-1.1,0.4-1.7c0.2-0.8,0.4-1.6,0.6-2.4c0.1-0.6,0.3-1.1,0.4-1.7c0.2-0.8,0.4-1.6,0.5-2.4c0.1-0.6,0.2-1.1,0.4-1.7
		c0.2-0.8,0.3-1.7,0.5-2.5c0.1-0.6,0.2-1.1,0.3-1.7c0.2-0.9,0.3-1.8,0.4-2.7c0.1-0.5,0.2-1,0.2-1.5c0.2-1,0.3-2.1,0.4-3.1
		c0-0.4,0.1-0.7,0.1-1.1c0.2-1.4,0.3-2.9,0.5-4.3c0-0.1,0-0.2,0-0.4c0.1-1.3,0.2-2.6,0.3-3.9c0-0.4,0.1-0.9,0.1-1.3
		c0.1-1,0.1-2,0.2-3c0-0.5,0-1,0.1-1.5c0-0.9,0.1-1.9,0.1-2.8c0-0.5,0-1.1,0-1.6c0-0.9,0-1.8,0-2.7c0-0.5,0-1.1,0-1.6
		c0-0.9,0-1.9,0-2.8c0-0.5,0-1.1,0-1.6c0-1-0.1-2-0.1-2.9c0-0.5,0-1-0.1-1.4c-0.1-1.1-0.1-2.2-0.2-3.4c0-0.3,0-0.7-0.1-1
		c-0.1-1.5-0.2-3-0.4-4.5c-0.1-1.4-0.3-2.9-0.5-4.3c0-0.3-0.1-0.7-0.1-1C896.8,375.4,896.6,374.4,896.5,373.3z"/>
	<path class="st1" d="M806.7,557.1c-20.6-7.3-43.2-3.6-65.5,0c-23.3,3.8-46.2,7.6-67.3-0.7c-5.7-2.2-13.9-0.4-22.1,1.5
		c-5.4,1.2-10.7,2.5-15.7,2.6c-8.7-4.5-17.1-9.6-24.9-15.4c-0.1-1.2,0.1-2.4,0.8-3.4c5-8.2,43.2-3.8,71.3-0.5
		c14.3,1.7,25.8,3,26.9,2.5c11.4-4.8,28.9-5,46.3-5.2c22.5-0.2,44.8-0.5,49.7-10.5c3.5-7.3,22.9-9.7,42.7-12.2
		c2.7-0.3,5.5-0.7,8.2-1c-2.3,2.8-4.8,5.6-7.3,8.3c-17.8,2.2-35.2,4.4-37,8.1c-6.8,14.1-31.4,14.3-56.2,14.6
		c-16.7,0.2-33.4,0.3-43.5,4.6c-2.9,1.2-15.2-0.2-30.5-2c-26.1-3-61.7-7.2-64.2-3c-0.1,0.2,2.5,2,9.1,6c5.4,3.2,14,1.2,22.8-0.8
		c9.2-2.1,18.5-4.2,26.4-1.2c19.2,7.5,41.1,3.9,63.5,0.3c25.2-4.1,50.8-8.3,74.5,2.5C812,554,809.3,555.6,806.7,557.1 M870.5,496.4
		c1.4-2.2,2.8-4.5,4.1-6.8c-13.8-2.9-29.7,0.9-45.2,4.6l0,0c-12.9,3.1-25.5,6.1-35.7,4.8c-10.2-1.3-28.7-1.8-48-2.4
		c-29.5-0.9-61.1-1.8-65.9-5c-5.9-3.9-21-6-36.8-6.7c-18.2-0.8-37.7,0.3-45.3,2.9c-2.2,0.8-5.3,1.9-8.7,3.1
		c-6.7,2.5-14.5,5.3-21.9,7.5c1.4,2.1,2.8,4.3,4.3,6.3c6.9-2.1,14-4.7,20.1-7c3-1.1,5.7-2.1,8.5-3.1c6.7-2.3,25.2-3.3,42.6-2.5
		c14.7,0.6,28.3,2.4,33,5.5c6.6,4.3,39.2,5.3,69.7,6.2c19.2,0.6,37.5,1.1,47.3,2.3c11.5,1.4,24.8-1.7,38.3-5
		C844.7,498.1,858.7,494.8,870.5,496.4 M547.5,458.3c15.8-2.6,29.6,1.3,43.7,5.3c12.6,3.6,25.3,7.2,39.4,5.8
		c21.1-2.1,41.4-5.4,61.7-8.6c31-5,62.2-9.9,96.5-11.1c15.1-0.5,28.9-1.2,42.6-3.1c13.6-1.9,27.3-5.1,42.5-10.6
		c9.3-3.4,16.9-6.8,22.8-10.3c-0.4,3.1-0.9,6.1-1.5,9.1c-5.4,2.7-11.6,5.4-18.8,8c-15.7,5.8-29.9,9-44,11c-14.1,2-28,2.6-43.3,3.2
		c-33.9,1.2-64.9,6.1-95.7,11c-20.6,3.3-41,6.6-62.1,8.7c-15.5,1.6-28.9-2.2-42.1-6c-12.8-3.6-25.4-7.2-39.1-5.3
		C549.1,463,548.3,460.7,547.5,458.3 M898.5,398.8c0-2.5-0.1-5.1-0.2-7.6c-9.7-2.6-22.9-4.2-39.4-4.4c-26.5-0.3-56.1,1-85.6,3
		c-29.7,2-58.8,4.8-84.3,7.4c-22.2,2.2-45.8-0.1-69.7-2.5c-24.9-2.5-50.1-5-74.9-2.5c-2.1,0.2-4.2,0.5-6.3,0.8
		c-0.1,2.5-0.1,5-0.1,7.4c2.5-0.4,4.9-0.8,7.2-1c24.1-2.3,49,0.1,73.5,2.5c24.4,2.4,48.4,4.8,71.2,2.5c25.8-2.6,55.1-5.4,84-7.4
		c29.2-2,58.7-3.3,85.1-2.9C876.1,394.3,889.3,396,898.5,398.8 M541.1,365.8c-0.4,2.3-0.8,4.5-1.2,6.8c26.6,0.6,68.3,5.8,107.3,10.7
		c40.7,5.1,78.4,9.8,94.1,8.2l0,0c26.6-2.7,52.6-8.7,78.3-14.6c21.1-4.9,41.9-9.7,62.5-12.5c4.7-0.6,8.8-1.7,12.3-3.2
		c-0.5-2.5-1.1-4.9-1.8-7.4c-3.1,1.5-6.9,2.7-11.5,3.3c-20.9,2.8-41.9,7.7-63.2,12.6c-7.9,1.8-15.8,3.6-23.8,5.4
		c4.1-1.5,7.2-4.8,9-10.2c17.8-53.6,42.2-70.1,62.5-68.9c-1.8-2.5-3.6-4.9-5.4-7.3c-21.9,1.7-46.4,21-64.1,74
		c-2.2,6.7-8.9,7.3-17.7,4.4c-19.6-6.5-48.1-29.2-66.7-43.9c-8.7-6.9-15.3-12.2-18.4-13.6l0,0c-8.4-3.9-21-9.4-35-15.1l1-1.3
		c9.3-11.5,19.5-24.1,58-9.8c9.1,3.4,37-1.5,65.3-8.8c17.3-4.5,35-9.9,48.8-14.9c-2.2-1.8-4.4-3.5-6.7-5.2c-12.6,4.3-28.4,9-43.9,13
		c-27.2,7-53.4,11.8-61,9c-43.5-16.1-55.4-1.4-66.3,12c-0.8,1-1.7,2-2.5,3c-17.8-7.1-37-14.1-52.8-18.7c-2.2-0.6-4.4-1.2-6.4-1.8
		c-2,2-4,4-5.9,6.1c3.2,0.7,6.7,1.7,10.3,2.7c14.7,4.2,32.5,10.7,49.2,17.3c-3.5,2.8-7.6,4.6-13.3,4.4c-29.2-1.1-45.7,1-55,2.2
		c-4.7,0.6-7.2,0.9-7.9,0.6c-0.2-0.1,0.2-1.8,0.3-6l0-0.7c-2.3,3.3-4.5,6.8-6.6,10.3c0.6,1.4,1.6,2.4,3.3,3.2
		c2.6,1.1,5.9,0.7,11.8-0.1c9.1-1.2,25.2-3.3,53.8-2.1c9.9,0.4,16.1-3.4,21.2-8.6c14.8,6,28.2,11.8,37,15.9l0,0
		c2.2,1,8.5,6.1,16.9,12.7c19,15.1,48.1,38.2,69,45.2c5,1.7,9.5,2.5,13.5,2.1c-16.2,3.4-32.5,6.4-49.1,8.1l0,0
		c-14.8,1.5-52.1-3.2-92.4-8.2C609.9,371.3,569.1,366.2,541.1,365.8 M779.1,230.3c-10.1,3.5-19.8,7.1-28.1,10.1
		c-17.3,6.3-29.3,10.8-31.5,7.1c-6.5-10.9-64.2-4.4-75.7-3.1l0,0c-1,0.1-1.7,0.2-2,0.2l-4.2,0.4l0.3-4.2l0.1-2.4
		c1.3-0.6,2.5-1.2,3.8-1.8l3.6,0.2l0,0.1c16.4-1.8,72-7.3,80.4,6.9c1,1.6,8.8-5.2,22.7-10.3c5.8-2.1,12.3-4.5,19.1-7
		C771.5,227.7,775.3,228.9,779.1,230.3"/>
	<g>
		<path class="st2" d="M869.2,301.4c147.7-33.1,255.2-41.6,262.4-17c9.7,33.2-166.8,114.2-394.2,180.8s-419.8,93.7-429.5,60.5
			c-7.2-24.6,87.9-75.5,230.1-127.2c-0.1,2.4-0.1,4.8-0.1,7.3c-117.1,43.3-194,84.2-188.3,103.7c8.1,27.7,180,1.7,383.8-57.9
			c203.8-59.7,362.5-130.6,354.4-158.3c-5.7-19.5-92.5-12.4-214.5,14.3C871.9,305.4,870.6,303.4,869.2,301.4"/>
		<path class="st2" d="M873.9,308.5c115.4-25.7,196.9-33.5,201.9-16.5c7.2,24.5-147.5,91.4-345.4,149.4
			c-197.9,58-364.2,85.1-371.4,60.5c-5-17,67.8-54.4,178.9-95c0,1.8,0.1,3.5,0.1,5.3c-91.1,34.4-149.6,65.3-145.4,79.9
			c6.5,22.2,157.2-2.3,336.5-54.9c179.3-52.5,319.4-113.1,312.9-135.4c-4.3-14.5-70.2-9.1-165.5,11.2
			C875.7,311.5,874.8,310,873.9,308.5"/>
		<path class="st2" d="M877.4,314.3c89.7-18.7,151.3-23.6,155.4-9.7c6.3,21.6-129.8,80.4-303.9,131.4
			c-174.1,51-320.5,74.9-326.8,53.3c-4.1-13.8,50.5-43,136.1-75.6c0.2,3.5,0.4,7,0.8,10.5c-48.4,20.4-77.4,37.8-74.8,46.9
			c5.1,17.3,122.6-1.8,262.4-42.8c139.8-41,249.1-88.2,244-105.6c-2.7-9.1-36.5-8.1-88.3,0.8C880.8,320.5,879.1,317.4,877.4,314.3"
			/>
	</g>
</g>
</svg>
