<svg id="b3585d81-d8cc-41d5-98ee-7bd603d5626a" data-name="929a63f3-9ae3-4ac3-aaf2-1ac0400b1715" xmlns="http://www.w3.org/2000/svg" width="825.46" height="361.68" viewBox="0 0 825.46 361.68"><defs><style>.\32 88b1bc1-5443-4945-b8a6-82e8e21263bc,.\36 79f7ffa-4ce9-4955-b69b-69d6cbe0303c{fill:#1c0a05;}.\32 88b1bc1-5443-4945-b8a6-82e8e21263bc,.a71b963a-be10-479f-a77e-3c00bad1febd{stroke:#1c0a05;}.\32 88b1bc1-5443-4945-b8a6-82e8e21263bc,.\36 79f7ffa-4ce9-4955-b69b-69d6cbe0303c,.a71b963a-be10-479f-a77e-3c00bad1febd{stroke-miterlimit:10;}.\36 79f7ffa-4ce9-4955-b69b-69d6cbe0303c{stroke:#fff;}.a71b963a-be10-479f-a77e-3c00bad1febd{fill:#fff;}</style></defs><title>planet2</title><path class="288b1bc1-5443-4945-b8a6-82e8e21263bc" d="M896.5,373.3c-.1-.4-.1-.8-.2-1.3-.2-1.1-.3-2.1-.5-3.2-.1-.4-.1-.7-.2-1.1-.5-2.8-1.1-5.6-1.7-8.3a3.55,3.55,0,0,1-.2-1c-.2-1-.5-2.1-.8-3.1-.1-.4-.2-.8-.3-1.3-.3-1-.5-2-.8-2.9l-.3-1.2c-.3-1.2-.7-2.4-1.1-3.6,0-.1-.1-.3-.1-.4-.4-1.3-.8-2.6-1.3-4-.1-.3-.2-.7-.3-1-.3-1-.7-1.9-1-2.9-.2-.4-.3-.9-.5-1.3-.3-.9-.7-1.7-1-2.6-.2-.4-.3-.9-.5-1.3-.4-1-.8-2-1.2-2.9a2,2,0,0,0-.4-.8c-.5-1.2-1.1-2.5-1.6-3.7-.2-.4-.3-.7-.5-1.1-.4-.9-.8-1.7-1.2-2.5-.2-.5-.5-.9-.7-1.4-.4-.8-.7-1.5-1.1-2.2-.2-.5-.5-1-.7-1.4-.4-.8-.8-1.6-1.2-2.3a7.46,7.46,0,0,0-.7-1.2c-.6-1.1-1.2-2.2-1.9-3.3-.3-.4-.5-.9-.8-1.3a23.93,23.93,0,0,0-1.3-2.1,13,13,0,0,0-1-1.5l-1.2-1.8c-.3-.5-.7-1.1-1-1.6l-1.2-1.8c-.3-.5-.7-1-1-1.5-.6-.9-1.2-1.8-1.9-2.7-.4-.6-.9-1.2-1.3-1.8s-.8-1.1-1.2-1.6a19.23,19.23,0,0,0-1.3-1.7l-1.1-1.4c-.4-.6-.9-1.1-1.3-1.7-.4-.4-.7-.9-1.1-1.3-.5-.6-1-1.2-1.4-1.7-.2-.3-.5-.6-.7-.9-1-1.2-2.1-2.5-3.2-3.7a9,9,0,0,1-.9-1c-.6-.6-1.1-1.2-1.7-1.8-.3-.3-.6-.7-.9-1-.6-.6-1.1-1.2-1.7-1.8l-.9-.9c-.6-.6-1.2-1.3-1.9-1.9l-.2-.2c-1.5-1.5-3.1-3-4.7-4.4l-.3-.3c-.7-.6-1.4-1.3-2.1-1.9-.2-.2-.5-.4-.7-.6l-2.1-1.8a2.65,2.65,0,0,0-.6-.5c-3.3-2.8-6.8-5.5-10.3-8-.1-.1-.3-.2-.4-.3-.8-.6-1.7-1.2-2.5-1.8-.1-.1-.3-.2-.4-.3q-5.55-3.9-11.4-7.2l-.1-.1c-1-.6-1.9-1.1-2.9-1.6a.35.35,0,0,1-.2-.1,171.08,171.08,0,0,0-15.5-7.6.1.1,0,0,1-.1-.1c-5.3-2.3-10.8-4.4-16.4-6.2h-.1c-5.6-1.8-11.2-3.3-17-4.6h-.1a178.19,178.19,0,0,0-56.2-3.1,180.31,180.31,0,1,0,70.3,352l1-.3,2.7-.9c.4-.1.9-.3,1.3-.4.9-.3,1.7-.6,2.6-.9.4-.2.9-.3,1.3-.5.9-.3,1.7-.6,2.6-.9.4-.2.9-.3,1.3-.5.9-.3,1.7-.7,2.6-1,.4-.2.8-.3,1.2-.5.9-.4,1.7-.7,2.6-1.1.4-.2.7-.3,1.1-.5l2.7-1.2c.2-.1.3-.1.5-.2,3.3-1.5,6.5-3.1,9.7-4.8a2.19,2.19,0,0,0,.5-.3c.9-.5,1.7-1,2.6-1.4.3-.2.7-.4,1-.6.8-.5,1.6-.9,2.4-1.4a4.13,4.13,0,0,0,1.1-.7c.8-.5,1.5-.9,2.3-1.4.4-.2.8-.5,1.2-.7.8-.5,1.5-1,2.3-1.5a10.54,10.54,0,0,0,1.1-.7c.8-.5,1.5-1,2.3-1.5l1-.7c.8-.5,1.6-1.1,2.3-1.6a3,3,0,0,1,.7-.5c2.8-2,5.5-4.2,8.2-6.4.1-.1.3-.2.4-.4.7-.6,1.4-1.2,2.2-1.8a8.74,8.74,0,0,1,1-.8c.7-.6,1.3-1.2,2-1.7a10,10,0,0,0,1.1-1c.6-.6,1.2-1.1,1.9-1.7a11.4,11.4,0,0,0,1.1-1.1c.6-.6,1.2-1.2,1.8-1.7l1.1-1.1,1.8-1.8,1.1-1.1c.6-.6,1.2-1.2,1.7-1.8a9.42,9.42,0,0,1,1-1c.6-.6,1.2-1.3,1.8-2,.1-.2.3-.3.4-.5l4-4.6c.2-.3.5-.5.7-.8.5-.6,1-1.3,1.5-1.9.3-.4.7-.9,1-1.3.5-.6.9-1.2,1.4-1.8l1.1-1.4a20.28,20.28,0,0,0,1.3-1.8c.4-.5.7-1,1.1-1.5s.9-1.2,1.3-1.8.7-1,1.1-1.5l1.2-1.8a14,14,0,0,0,1-1.6l1.2-1.8c.3-.6.7-1.1,1-1.7s.7-1.2,1.1-1.8.7-1.2,1.1-1.8c.5-.9,1.1-1.8,1.6-2.8.4-.8.9-1.6,1.3-2.4.3-.6.6-1.1.9-1.7s.7-1.3,1-2l.9-1.8a17.37,17.37,0,0,1,1-1.9,14.17,14.17,0,0,0,.8-1.8c.3-.7.6-1.3.9-2s.5-1.2.8-1.8.6-1.3.9-2,.5-1.2.8-1.8a18,18,0,0,0,.8-2.1c.2-.6.5-1.2.7-1.7a19.46,19.46,0,0,0,.8-2.2c.2-.5.4-1.1.6-1.6l.9-2.7c.1-.4.3-.8.4-1.3.4-1.3.9-2.6,1.3-3.9a5.64,5.64,0,0,1,.4-1.2c.3-.9.6-1.9.8-2.8.1-.5.3-1,.4-1.6.2-.8.5-1.7.7-2.5.1-.6.3-1.1.4-1.7l.6-2.4c.1-.6.3-1.1.4-1.7a20.47,20.47,0,0,0,.5-2.4,10.46,10.46,0,0,1,.4-1.7c.2-.8.3-1.7.5-2.5.1-.6.2-1.1.3-1.7a25.13,25.13,0,0,0,.4-2.7,7.72,7.72,0,0,0,.2-1.5c.2-1,.3-2.1.4-3.1,0-.4.1-.7.1-1.1.2-1.4.3-2.9.5-4.3v-.4l.3-3.9c0-.4.1-.9.1-1.3.1-1,.1-2,.2-3a7.57,7.57,0,0,1,.1-1.5c0-.9.1-1.9.1-2.8V395.7c0-1-.1-2-.1-2.9a6.15,6.15,0,0,0-.1-1.4c-.1-1.1-.1-2.2-.2-3.4a3.4,3.4,0,0,0-.1-1c-.1-1.5-.2-3-.4-4.5s-.3-2.9-.5-4.3c0-.3-.1-.7-.1-1C896.8,375.4,896.6,374.4,896.5,373.3Z" transform="translate(-307.02 -219.35)"/><path class="679f7ffa-4ce9-4955-b69b-69d6cbe0303c" d="M806.7,557.1c-20.6-7.3-43.2-3.6-65.5,0-23.3,3.8-46.2,7.6-67.3-.7-5.7-2.2-13.9-.4-22.1,1.5-5.4,1.2-10.7,2.5-15.7,2.6a181.24,181.24,0,0,1-24.9-15.4,5.09,5.09,0,0,1,.8-3.4c5-8.2,43.2-3.8,71.3-.5,14.3,1.7,25.8,3,26.9,2.5,11.4-4.8,28.9-5,46.3-5.2,22.5-.2,44.8-.5,49.7-10.5,3.5-7.3,22.9-9.7,42.7-12.2,2.7-.3,5.5-.7,8.2-1-2.3,2.8-4.8,5.6-7.3,8.3-17.8,2.2-35.2,4.4-37,8.1-6.8,14.1-31.4,14.3-56.2,14.6-16.7.2-33.4.3-43.5,4.6-2.9,1.2-15.2-.2-30.5-2-26.1-3-61.7-7.2-64.2-3-.1.2,2.5,2,9.1,6,5.4,3.2,14,1.2,22.8-.8,9.2-2.1,18.5-4.2,26.4-1.2,19.2,7.5,41.1,3.9,63.5.3,25.2-4.1,50.8-8.3,74.5,2.5-2.7,1.8-5.4,3.4-8,4.9m63.8-60.7c1.4-2.2,2.8-4.5,4.1-6.8-13.8-2.9-29.7.9-45.2,4.6h0c-12.9,3.1-25.5,6.1-35.7,4.8s-28.7-1.8-48-2.4c-29.5-.9-61.1-1.8-65.9-5-5.9-3.9-21-6-36.8-6.7-18.2-.8-37.7.3-45.3,2.9-2.2.8-5.3,1.9-8.7,3.1-6.7,2.5-14.5,5.3-21.9,7.5,1.4,2.1,2.8,4.3,4.3,6.3,6.9-2.1,14-4.7,20.1-7,3-1.1,5.7-2.1,8.5-3.1,6.7-2.3,25.2-3.3,42.6-2.5,14.7.6,28.3,2.4,33,5.5,6.6,4.3,39.2,5.3,69.7,6.2,19.2.6,37.5,1.1,47.3,2.3,11.5,1.4,24.8-1.7,38.3-5,13.8-3,27.8-6.3,39.6-4.7m-323-38.1c15.8-2.6,29.6,1.3,43.7,5.3,12.6,3.6,25.3,7.2,39.4,5.8,21.1-2.1,41.4-5.4,61.7-8.6,31-5,62.2-9.9,96.5-11.1,15.1-.5,28.9-1.2,42.6-3.1A206.15,206.15,0,0,0,873.9,436a139.05,139.05,0,0,0,22.8-10.3c-.4,3.1-.9,6.1-1.5,9.1a174.16,174.16,0,0,1-18.8,8,208.15,208.15,0,0,1-44,11c-14.1,2-28,2.6-43.3,3.2-33.9,1.2-64.9,6.1-95.7,11-20.6,3.3-41,6.6-62.1,8.7-15.5,1.6-28.9-2.2-42.1-6-12.8-3.6-25.4-7.2-39.1-5.3-1-2.4-1.8-4.7-2.6-7.1m351-59.5c0-2.5-.1-5.1-.2-7.6-9.7-2.6-22.9-4.2-39.4-4.4-26.5-.3-56.1,1-85.6,3-29.7,2-58.8,4.8-84.3,7.4-22.2,2.2-45.8-.1-69.7-2.5-24.9-2.5-50.1-5-74.9-2.5-2.1.2-4.2.5-6.3.8-.1,2.5-.1,5-.1,7.4,2.5-.4,4.9-.8,7.2-1,24.1-2.3,49,.1,73.5,2.5s48.4,4.8,71.2,2.5c25.8-2.6,55.1-5.4,84-7.4,29.2-2,58.7-3.3,85.1-2.9,17.1.2,30.3,1.9,39.5,4.7m-357.4-33c-.4,2.3-.8,4.5-1.2,6.8,26.6.6,68.3,5.8,107.3,10.7,40.7,5.1,78.4,9.8,94.1,8.2h0c26.6-2.7,52.6-8.7,78.3-14.6,21.1-4.9,41.9-9.7,62.5-12.5a46,46,0,0,0,12.3-3.2c-.5-2.5-1.1-4.9-1.8-7.4a37.34,37.34,0,0,1-11.5,3.3c-20.9,2.8-41.9,7.7-63.2,12.6-7.9,1.8-15.8,3.6-23.8,5.4,4.1-1.5,7.2-4.8,9-10.2,17.8-53.6,42.2-70.1,62.5-68.9-1.8-2.5-3.6-4.9-5.4-7.3-21.9,1.7-46.4,21-64.1,74-2.2,6.7-8.9,7.3-17.7,4.4-19.6-6.5-48.1-29.2-66.7-43.9-8.7-6.9-15.3-12.2-18.4-13.6h0c-8.4-3.9-21-9.4-35-15.1l1-1.3c9.3-11.5,19.5-24.1,58-9.8,9.1,3.4,37-1.5,65.3-8.8,17.3-4.5,35-9.9,48.8-14.9-2.2-1.8-4.4-3.5-6.7-5.2-12.6,4.3-28.4,9-43.9,13-27.2,7-53.4,11.8-61,9-43.5-16.1-55.4-1.4-66.3,12-.8,1-1.7,2-2.5,3-17.8-7.1-37-14.1-52.8-18.7-2.2-.6-4.4-1.2-6.4-1.8-2,2-4,4-5.9,6.1,3.2.7,6.7,1.7,10.3,2.7,14.7,4.2,32.5,10.7,49.2,17.3a19.08,19.08,0,0,1-13.3,4.4c-29.2-1.1-45.7,1-55,2.2-4.7.6-7.2.9-7.9.6-.2-.1.2-1.8.3-6v-.7c-2.3,3.3-4.5,6.8-6.6,10.3a6.09,6.09,0,0,0,3.3,3.2c2.6,1.1,5.9.7,11.8-.1,9.1-1.2,25.2-3.3,53.8-2.1,9.9.4,16.1-3.4,21.2-8.6,14.8,6,28.2,11.8,37,15.9h0c2.2,1,8.5,6.1,16.9,12.7,19,15.1,48.1,38.2,69,45.2,5,1.7,9.5,2.5,13.5,2.1a474.08,474.08,0,0,1-49.1,8.1h0c-14.8,1.5-52.1-3.2-92.4-8.2-38-4.8-78.8-9.9-106.8-10.3m238-135.5c-10.1,3.5-19.8,7.1-28.1,10.1-17.3,6.3-29.3,10.8-31.5,7.1-6.5-10.9-64.2-4.4-75.7-3.1h0c-1,.1-1.7.2-2,.2l-4.2.4.3-4.2.1-2.4c1.3-.6,2.5-1.2,3.8-1.8l3.6.2v.1c16.4-1.8,72-7.3,80.4,6.9,1,1.6,8.8-5.2,22.7-10.3,5.8-2.1,12.3-4.5,19.1-7,3.9,1.2,7.7,2.4,11.5,3.8" transform="translate(-307.02 -219.35)"/><path class="a71b963a-be10-479f-a77e-3c00bad1febd" d="M869.2,301.4c147.7-33.1,255.2-41.6,262.4-17,9.7,33.2-166.8,114.2-394.2,180.8s-419.8,93.7-429.5,60.5c-7.2-24.6,87.9-75.5,230.1-127.2-.1,2.4-.1,4.8-.1,7.3-117.1,43.3-194,84.2-188.3,103.7,8.1,27.7,180,1.7,383.8-57.9S1095.9,321,1087.8,293.3c-5.7-19.5-92.5-12.4-214.5,14.3-1.4-2.2-2.7-4.2-4.1-6.2" transform="translate(-307.02 -219.35)"/><path class="a71b963a-be10-479f-a77e-3c00bad1febd" d="M873.9,308.5c115.4-25.7,196.9-33.5,201.9-16.5,7.2,24.5-147.5,91.4-345.4,149.4S366.2,526.5,359,501.9c-5-17,67.8-54.4,178.9-95,0,1.8.1,3.5.1,5.3-91.1,34.4-149.6,65.3-145.4,79.9,6.5,22.2,157.2-2.3,336.5-54.9S1048.5,324.1,1042,301.8c-4.3-14.5-70.2-9.1-165.5,11.2-.8-1.5-1.7-3-2.6-4.5" transform="translate(-307.02 -219.35)"/><path class="a71b963a-be10-479f-a77e-3c00bad1febd" d="M877.4,314.3c89.7-18.7,151.3-23.6,155.4-9.7C1039.1,326.2,903,385,728.9,436s-320.5,74.9-326.8,53.3c-4.1-13.8,50.5-43,136.1-75.6.2,3.5.4,7,.8,10.5-48.4,20.4-77.4,37.8-74.8,46.9,5.1,17.3,122.6-1.8,262.4-42.8s249.1-88.2,244-105.6c-2.7-9.1-36.5-8.1-88.3.8-1.5-3-3.2-6.1-4.9-9.2" transform="translate(-307.02 -219.35)"/></svg>