<svg id="e131ed41-ef45-42eb-a3f1-c5131417d83c" data-name="929a63f3-9ae3-4ac3-aaf2-1ac0400b1715" xmlns="http://www.w3.org/2000/svg" xmlns:xlink="http://www.w3.org/1999/xlink" width="683.34" height="584.54" viewBox="0 0 683.34 584.54"><defs><style>.b5dc1582-6bf1-4097-9af9-3d7cfeee879d,.bde7dfc5-e613-44e8-9164-75d4050483e0{fill:none;}.dd24c501-7670-49a5-8ef5-ec7da437be81{fill:#fff;}.b5dc1582-6bf1-4097-9af9-3d7cfeee879d,.dd24c501-7670-49a5-8ef5-ec7da437be81{stroke:#1e120d;stroke-miterlimit:10;}.\33 8f1917c-2196-4691-9946-b8ea4b29e221{clip-path:url(#3b872c18-7c3b-416f-afbf-6c8f4366d03b);}.\36 de8bcff-6077-453b-983c-26b1dd44cc7f{clip-path:url(#3c894012-b591-4cce-8905-4f6f77e7448d);}.fd50e62b-7182-4013-83e8-f7dceb8df206{clip-path:url(#69a1c7e0-9531-463a-b7b2-d5eb2c2c8d87);}</style><clipPath id="3b872c18-7c3b-416f-afbf-6c8f4366d03b" transform="translate(-2.27 -2.53)"><path class="bde7dfc5-e613-44e8-9164-75d4050483e0" d="M359.4,174.8s33.4-.5,99.2-13.9c39.5-8,122-54.7,126.7-25.3,6.3,38.6,30.8,150.7,30.8,150.7L389.5,327.6Z"/></clipPath><clipPath id="3c894012-b591-4cce-8905-4f6f77e7448d" transform="translate(-2.27 -2.53)"><path class="bde7dfc5-e613-44e8-9164-75d4050483e0" d="M43.5,184.4s33.4-.5,99.2-14.2c39.5-8.2,122-56.1,126.7-26,6.2,39.7,30.7,156.4,30.7,156.4L73.5,342.9Z"/></clipPath><clipPath id="69a1c7e0-9531-463a-b7b2-d5eb2c2c8d87" transform="translate(-2.27 -2.53)"><path class="bde7dfc5-e613-44e8-9164-75d4050483e0" d="M322.6,120.7s2.9-21.4,57.1-68.6c23.5-20.5,113.4-24.4,115.6,6.6,2.9,40.8,21.6,230.8,21.6,230.8L365.3,325Z"/></clipPath></defs><title>porn</title><path class="dd24c501-7670-49a5-8ef5-ec7da437be81" d="M305.5,122.9s133.1,24.6,322.2-39.7c0,0,28.4,324.9,57.3,448.4L377.6,562.9" transform="translate(-2.27 -2.53)"/><path class="dd24c501-7670-49a5-8ef5-ec7da437be81" d="M298.3,114.7S431.4,139.3,620.5,75c0,0,26,324,52.5,448.4L377.7,562.9" transform="translate(-2.27 -2.53)"/><ellipse class="dd24c501-7670-49a5-8ef5-ec7da437be81" cx="515.66" cy="367.84" rx="1.4" ry="9.6" transform="translate(-119.31 395.42) rotate(-38.23)"/><path class="dd24c501-7670-49a5-8ef5-ec7da437be81" d="M357.5,171s33.9-.5,100.6-14.2c43.1-8.8,50.5-21.3,137.4-38.7,6.3,39.6,22.1,169.1,22.1,169.1L388,329.5Z" transform="translate(-2.27 -2.53)"/><g class="38f1917c-2196-4691-9946-b8ea4b29e221"><path class="dd24c501-7670-49a5-8ef5-ec7da437be81" d="M519.8,129.4c42.6-9,76,30.1,74.7,87.3s-37,110.9-79.5,119.9-76-30.1-74.7-87.3" transform="translate(-2.27 -2.53)"/><path class="dd24c501-7670-49a5-8ef5-ec7da437be81" d="M577.5,240c-1.4,19.1-11.8,35.8-23.2,37.3s-19.6-12.8-18.2-31.9,11.8-35.8,23.2-37.3S578.9,220.9,577.5,240Z" transform="translate(-2.27 -2.53)"/><path class="dd24c501-7670-49a5-8ef5-ec7da437be81" d="M566.8,242.1c-.4,6-3.7,11.3-7.3,11.8s-6.2-4.1-5.8-10.1,3.7-11.3,7.3-11.8S567.3,236.1,566.8,242.1Z" transform="translate(-2.27 -2.53)"/><path class="dd24c501-7670-49a5-8ef5-ec7da437be81" d="M439.5,280c-1.3,57.2-37,110.9-79.5,119.9s-76-30.1-74.7-87.3,37-110.9,79.5-119.9" transform="translate(-2.27 -2.53)"/><path class="dd24c501-7670-49a5-8ef5-ec7da437be81" d="M355,323.4c6,15.7,2.3,35.5-8.2,44.1s-23.9,2.9-29.9-12.9-2.3-35.5,8.2-44.1S349,307.6,355,323.4Z" transform="translate(-2.27 -2.53)"/><path class="dd24c501-7670-49a5-8ef5-ec7da437be81" d="M487.3,176.6c-.1,5-1.1,9.2-2.2,9.4s-1.9-3.6-1.8-8.6,1.1-9.2,2.2-9.4S487.5,171.7,487.3,176.6Z" transform="translate(-2.27 -2.53)"/><path class="dd24c501-7670-49a5-8ef5-ec7da437be81" d="M417.8,279.4c-.1,3.3-1,6.2-2.2,6.4s-2-2.3-1.9-5.6,1-6.2,2.2-6.4S417.8,276.1,417.8,279.4Z" transform="translate(-2.27 -2.53)"/><path class="dd24c501-7670-49a5-8ef5-ec7da437be81" d="M405.9,265.6c0,1.7-.5,3.1-1.1,3.2s-1-1.1-.9-2.8.5-3.1,1.1-3.2S405.9,263.9,405.9,265.6Z" transform="translate(-2.27 -2.53)"/><path class="dd24c501-7670-49a5-8ef5-ec7da437be81" d="M490.9,193.1c0,1.7-.5,3.1-1.1,3.2s-1-1.1-.9-2.8.5-3.1,1.1-3.2S490.9,191.5,490.9,193.1Z" transform="translate(-2.27 -2.53)"/><path class="dd24c501-7670-49a5-8ef5-ec7da437be81" d="M409.9,296.6c-.1,9.1,7.1,23.5,2.1,25.5-1.1.4-4.7-16.2-5.5-25s-.6-16.3.5-16.7S410.1,276.8,409.9,296.6Z" transform="translate(-2.27 -2.53)"/><path class="dd24c501-7670-49a5-8ef5-ec7da437be81" d="M338.7,338.2c1.9,5,.7,11.2-2.6,13.9s-7.6.9-9.4-4.1-.7-11.2,2.6-13.9S336.8,333.3,338.7,338.2Z" transform="translate(-2.27 -2.53)"/></g><path class="dd24c501-7670-49a5-8ef5-ec7da437be81" d="M298.3,114.7S371-70.6,526.2,36.2l35.9,478.6c-74.3-40-184.4,48.1-184.4,48.1" transform="translate(-2.27 -2.53)"/><path class="dd24c501-7670-49a5-8ef5-ec7da437be81" d="M2.9,156.6s66,319.7,79.2,429.8c0,0,265.9-89.5,295.6-23.6,16.7,37-79.4-448.1-79.4-448.1s-20.3-19.5-48.9-8.2C190.9,129.9,81.3,164,2.9,156.6Z" transform="translate(-2.27 -2.53)"/><path class="dd24c501-7670-49a5-8ef5-ec7da437be81" d="M41.6,184.4s33.9-.5,100.6-14.2c40-8.2,123.6-56.1,128.4-26,6.3,39.7,31.1,156.4,31.1,156.4L72,342.9Z" transform="translate(-2.27 -2.53)"/><g class="6de8bcff-6077-453b-983c-26b1dd44cc7f"><path class="dd24c501-7670-49a5-8ef5-ec7da437be81" d="M251.7,161.1c42.6-5.8,76,19.2,74.7,55.8s-37,70.8-79.5,76.6-76-19.2-74.7-55.8" transform="translate(-2.27 -2.53)"/><path class="dd24c501-7670-49a5-8ef5-ec7da437be81" d="M309.4,231.8c-1.4,12.2-11.8,22.9-23.2,23.8s-19.6-8.2-18.2-20.4,11.8-22.9,23.2-23.8S310.8,219.5,309.4,231.8Z" transform="translate(-2.27 -2.53)"/><path class="dd24c501-7670-49a5-8ef5-ec7da437be81" d="M298.8,233.1a8.5,8.5,0,0,1-7.3,7.5c-3.6.3-6.2-2.6-5.8-6.5a8.5,8.5,0,0,1,7.3-7.5C296.6,226.3,299.2,229.3,298.8,233.1Z" transform="translate(-2.27 -2.53)"/><path class="dd24c501-7670-49a5-8ef5-ec7da437be81" d="M171.5,257.3c-1.3,36.5-37,70.8-79.5,76.6s-76-19.2-74.7-55.8,37-70.8,79.5-76.6" transform="translate(-2.27 -2.53)"/><path class="dd24c501-7670-49a5-8ef5-ec7da437be81" d="M86.9,285a20,20,0,0,1-8.2,28.2c-10.5,5.5-23.9,1.8-29.9-8.2A20,20,0,0,1,57,276.8C67.6,271.3,80.9,275,86.9,285Z" transform="translate(-2.27 -2.53)"/><path class="dd24c501-7670-49a5-8ef5-ec7da437be81" d="M228.9,236.4c.3-6.4,7.2,5.1,7.2,5.1,2.5-12.7-8.6-20.6-8.4-26.2.2-6.3,2.1-11.2,3.6-7.6.6,1.4,1,3.6,1.6,4.6.9,1.5,1.8-.5,2.4-3.1s.9-5.8,1.7-7.8c1.3-3.5,3.5-1.2,4.4,4.5.8,4.5,1.1,11.3,2.4,12.8.4.5.8.2,1.3.1,1.4-.4,2.8.8,4,4a44.42,44.42,0,0,1,2.1,14c0,7.6-1.7,13.6-1.2,21.2.4,6.1,2,11.7,1.7,17.4-.3,6.1-2.6,6.3-4.2,3.6s-3.2-7.3-4.9-6.8c-1,.3-2.1,2.2-2.9-.4-.8-2.4-.7-7.1-1.5-9.6-1-3.1-2.4-.2-3.4-2.8-.7-1.6-1-4.9-1.5-7.2-.8-3.2-1.9-4.1-2.9-6a22,22,0,0,1-1.5-9.8Z" transform="translate(-2.27 -2.53)"/><path class="dd24c501-7670-49a5-8ef5-ec7da437be81" d="M219.3,191.3c-.1,3.2-1.1,5.9-2.2,6s-1.9-2.3-1.8-5.5,1.1-5.9,2.2-6S219.4,188.1,219.3,191.3Z" transform="translate(-2.27 -2.53)"/><path class="dd24c501-7670-49a5-8ef5-ec7da437be81" d="M149.7,256.9c-.1,2.1-1,4-2.2,4.1s-2-1.4-1.9-3.6,1-4,2.2-4.1S149.8,254.8,149.7,256.9Z" transform="translate(-2.27 -2.53)"/><path class="dd24c501-7670-49a5-8ef5-ec7da437be81" d="M137.8,248.1c0,1.1-.5,2-1.1,2.1s-1-.7-.9-1.8.5-2,1.1-2.1S137.9,247,137.8,248.1Z" transform="translate(-2.27 -2.53)"/><path class="dd24c501-7670-49a5-8ef5-ec7da437be81" d="M222.9,201.8c0,1.1-.5,2-1.1,2.1s-1-.7-.9-1.8.5-2,1.1-2.1S222.9,200.7,222.9,201.8Z" transform="translate(-2.27 -2.53)"/><path class="dd24c501-7670-49a5-8ef5-ec7da437be81" d="M141.9,267.9c-.1,5.8,7.1,15,2.1,16.3-1.1.3-4.7-10.4-5.5-16s-.6-10.4.5-10.7S142,255.3,141.9,267.9Z" transform="translate(-2.27 -2.53)"/><path class="b5dc1582-6bf1-4097-9af9-3d7cfeee879d" d="M242,224.1c0-1,1-1.7,1.6-1.1h0a4.46,4.46,0,0,1,.8,1.7,35.6,35.6,0,0,1,1.7,13.5c-.2,2.4-.8,3.8-.7,6.1,0,1.3.3,3.6,1.1,4.3h0a1.78,1.78,0,0,1-.7,2.9,1.87,1.87,0,0,1-1.9-.4,2.38,2.38,0,0,1-.6-1.1c-.9-2.2-.1-4,.6-10.7C244.9,229.6,242,226.4,242,224.1Z" transform="translate(-2.27 -2.53)"/><path class="dd24c501-7670-49a5-8ef5-ec7da437be81" d="M70.7,294.5a6.31,6.31,0,0,1-2.6,8.9,7.15,7.15,0,0,1-9.4-2.6,6.39,6.39,0,0,1,2.6-8.9A7.31,7.31,0,0,1,70.7,294.5Z" transform="translate(-2.27 -2.53)"/></g><path class="dd24c501-7670-49a5-8ef5-ec7da437be81" d="M74.9,363.9l230.9-43.1,34,188c-48.2-27.3-229.6,33.7-229.6,33.7Z" transform="translate(-2.27 -2.53)"/><path class="b5dc1582-6bf1-4097-9af9-3d7cfeee879d" d="M187.8,519.1c-10-38,17.3-60.3,37.4-30.6,20.7-11.6,34-1.4,33.1,15.4" transform="translate(-2.27 -2.53)"/><path class="dd24c501-7670-49a5-8ef5-ec7da437be81" d="M133.3,532.6,189.2,419c-1.7-25.1,29.9-59.1,42-39.2,22.9-4.8,19.6,41.6.2,57.5l-34.2,77.4" transform="translate(-2.27 -2.53)"/><ellipse class="dd24c501-7670-49a5-8ef5-ec7da437be81" cx="226.3" cy="391.82" rx="9.6" ry="1.4" transform="translate(-227.37 420.55) rotate(-63.95)"/><path class="dd24c501-7670-49a5-8ef5-ec7da437be81" d="M320.6,119.2S335,79.3,377,46.8c51.8-40.2,120.6,7.9,120.6,7.9,2.9,42.6,34.6,417.6,34.6,417.6-55.3-25.5-136.9,43.8-136.9,43.8Z" transform="translate(-2.27 -2.53)"/><g class="fd50e62b-7182-4013-83e8-f7dceb8df206"><path class="dd24c501-7670-49a5-8ef5-ec7da437be81" d="M451.5,153.7c-.1,4.4,77.5-140.3,91.9-135.2s26.1,246.7,26.1,246.7L522.7,133.3s-16.5,131-57.6,137.3c-39.1,6-44.9-27.5-44.9-27.5s-7.7,46.8-43.7,56.9c-21.5,6-70.1-54.2-70.1-54.2L296,136.4s68.7,69.4,66.4,56.3c-6.4-35.8-24-151.4-27.2-146.8L439.9,17.1C439.8,17.1,431.4,85.7,451.5,153.7Z" transform="translate(-2.27 -2.53)"/></g><path class="dd24c501-7670-49a5-8ef5-ec7da437be81" d="M414.6,212.3c-1.2-13.1-1-23.9.4-24.2s3.4,10,4.6,23.1,1,23.9-.4,24.2S415.7,225.4,414.6,212.3Z" transform="translate(-2.27 -2.53)"/><ellipse class="dd24c501-7670-49a5-8ef5-ec7da437be81" cx="400.79" cy="145.02" rx="2.8" ry="2" transform="translate(235.32 536.23) rotate(-87.38)"/><path class="dd24c501-7670-49a5-8ef5-ec7da437be81" d="M467.1,459.6a45.3,45.3,0,0,0-.7-9.5c-2.3-13.5-4.5-27.7-5-41-.6-15,2.3-26.1,5.9-17,1.3,3.4,2.6,8.9,3.9,11.4,2,3.7,3.5-.8,4.2-6.8s.9-13.6,2-18c1.9-7.9,6.6-2.1,9.4,11.8,2.2,10.9,3.9,27,6.7,30.9.9,1.3,1.7.8,2.5.6,2.6-.6,5.7,2.6,8.6,10.5s5.6,21,6.4,33.6c1.3,17.9-1.1,31.7,1,49.9,1.7,14.5,5.8,28.2,6.2,41.7.4,14.5-4.1,14.4-7.7,7.5s-7.5-18.1-10.7-17.4c-1.9.4-3.7,4.8-5.8-1.7-1.9-5.9-2.6-17.1-4.4-23.1-2.4-7.6-4.7-1.2-7.2-7.4-1.6-4-2.7-11.9-4.1-17.5-2-7.7-4.4-10.3-6.6-15a64.91,64.91,0,0,1-4.6-23.5Z" transform="translate(-2.27 -2.53)"/><path class="dd24c501-7670-49a5-8ef5-ec7da437be81" d="M427.6,380.4c1.6-4.3,5.1-.8,6.8,6.9,1,4.7,1.4,10.1,2.1,15.1,1.5,9.9.5,18.1,3.1,25.8,3,8.7,9.9,17.6,12.6,27.4a20.8,20.8,0,0,1,.7,5c0,2.4-.6,2.6-1.1,2.7-1.2.2-2.4.4-3.5.6a2,2,0,0,1-2.2-.8c-1.7-2.4-2.7-9.1-3.8-14.5a55.16,55.16,0,0,0-4.9-14.9c-1.6-2.9-3.4-4.8-4.6-9.4a81.63,81.63,0,0,1-1.6-9.5,187.92,187.92,0,0,0-3.8-19.8c-1.3-5.6-1.3-12.3.2-14.6Z" transform="translate(-2.27 -2.53)"/><ellipse class="dd24c501-7670-49a5-8ef5-ec7da437be81" cx="440.32" cy="355.23" rx="3.7" ry="12.7" transform="translate(-38.31 47.48) rotate(-6.25)"/><ellipse class="dd24c501-7670-49a5-8ef5-ec7da437be81" cx="435.93" cy="477.43" rx="2" ry="6.9" transform="translate(-51.63 47.73) rotate(-6.25)"/><path class="b5dc1582-6bf1-4097-9af9-3d7cfeee879d" d="M492.3,442.3c-.2-3,1.6-4.6,3-2.6h0a22.53,22.53,0,0,1,2.1,5.4c3.5,13.2,6.2,27.2,6.4,41.1.1,7.1-.7,11-.1,18.1.3,3.8,1.4,10.8,3.2,13.3v.1c1.9,2.8,1.5,8-.7,8.4a3.66,3.66,0,0,1-3.8-1.9,17.5,17.5,0,0,1-1.5-3.4c-2.2-6.8-1.1-12-1.3-31.9C499.3,459.7,492.8,449,492.3,442.3Z" transform="translate(-2.27 -2.53)"/></svg>