<svg id="6dd05e13-6430-4efa-a179-012208185838" data-name="929a63f3-9ae3-4ac3-aaf2-1ac0400b1715" xmlns="http://www.w3.org/2000/svg" xmlns:xlink="http://www.w3.org/1999/xlink" width="767.64" height="656.64" viewBox="0 0 767.64 656.64"><defs><style>.\35 6386d14-55c3-4030-badc-e60bcd15ffd0,.e9129959-39a8-49b2-b4a5-8584b40a6b0c{fill:none;}.a6e73833-5d9d-4900-9a4a-5a7b67e003e2{fill:#fff;}.\35 6386d14-55c3-4030-badc-e60bcd15ffd0,.a6e73833-5d9d-4900-9a4a-5a7b67e003e2{stroke:#1e120d;stroke-miterlimit:10;}.\33 17b3e50-d8ee-4332-abfb-b9901da259a5{fill:#1e120d;}.\34 bed1af5-5f99-407a-9fc2-9b5721ed9380{clip-path:url(#f5918ae5-6fbf-4d17-b9d1-d4069f331cda);}.\32 79a95fd-9695-4dc1-90a5-3f040a08d770{clip-path:url(#cc309283-2edf-4899-95b7-77e65097a290);}.\30 fd4017a-8fda-4e91-b565-26549d6f5f33{clip-path:url(#596e3136-070a-4138-a132-6b80127dcdbf);}</style><clipPath id="f5918ae5-6fbf-4d17-b9d1-d4069f331cda" transform="translate(-336.17 -71.73)"><path class="e9129959-39a8-49b2-b4a5-8584b40a6b0c" d="M737.4,265.3s37.5-.6,111.5-15.6c44.4-9,137.1-61.5,142.4-28.4,7.1,43.4,34.6,169.3,34.6,169.3L771.3,437Z"/></clipPath><clipPath id="cc309283-2edf-4899-95b7-77e65097a290" transform="translate(-336.17 -71.73)"><path class="e9129959-39a8-49b2-b4a5-8584b40a6b0c" d="M382.4,276.1s37.5-.6,111.5-16c44.4-9.2,137.1-63,142.4-29.2,7,44.6,34.5,175.7,34.5,175.7L416.2,454.1Z"/></clipPath><clipPath id="596e3136-070a-4138-a132-6b80127dcdbf" transform="translate(-336.17 -71.73)"><path class="e9129959-39a8-49b2-b4a5-8584b40a6b0c" d="M696,204.5s3.3-24,64.2-77.1c26.4-23,127.4-27.4,129.9,7.4,3.3,45.8,24.3,259.3,24.3,259.3L744,434Z"/></clipPath></defs><title>porn</title><path class="a6e73833-5d9d-4900-9a4a-5a7b67e003e2" d="M676.8,207s149.5,27.6,362-44.6c0,0,31.9,365,64.4,503.8L757.8,701.4" transform="translate(-336.17 -71.73)"/><path class="317b3e50-d8ee-4332-abfb-b9901da259a5" d="M668.7,197.7s149.5,27.6,362-44.6c0,0,29.2,364,59,503.8L757.9,701.3" transform="translate(-336.17 -71.73)"/><ellipse class="a6e73833-5d9d-4900-9a4a-5a7b67e003e2" cx="912.98" cy="482.19" rx="1.6" ry="10.8" transform="translate(-438.77 596.59) rotate(-38.23)"/><path class="a6e73833-5d9d-4900-9a4a-5a7b67e003e2" d="M735.2,261s38.1-.6,113-16c48.4-9.9,56.7-23.9,154.4-43.5,7.1,44.5,24.8,190,24.8,190L769.4,439Z" transform="translate(-336.17 -71.73)"/><g class="4bed1af5-5f99-407a-9fc2-9b5721ed9380"><path class="a6e73833-5d9d-4900-9a4a-5a7b67e003e2" d="M917.6,214.3c47.9-10.1,85.4,33.8,83.9,98.1S959.9,437,912.2,447.1c-47.9,10.1-85.4-33.8-83.9-98.1" transform="translate(-336.17 -71.73)"/><path class="a6e73833-5d9d-4900-9a4a-5a7b67e003e2" d="M982.4,338.5c-1.6,21.5-13.3,40.2-26.1,41.9s-22-14.4-20.4-35.8,13.3-40.2,26.1-41.9S984,317.1,982.4,338.5Z" transform="translate(-336.17 -71.73)"/><path class="a6e73833-5d9d-4900-9a4a-5a7b67e003e2" d="M970.4,340.9c-.4,6.7-4.2,12.7-8.2,13.3s-7-4.6-6.5-11.3,4.2-12.7,8.2-13.3S970.9,334.1,970.4,340.9Z" transform="translate(-336.17 -71.73)"/><path class="a6e73833-5d9d-4900-9a4a-5a7b67e003e2" d="M827.4,383.5c-1.5,64.3-41.6,124.6-89.3,134.7-47.9,10.1-85.4-33.8-83.9-98.1s41.6-124.6,89.3-134.7" transform="translate(-336.17 -71.73)"/><path class="a6e73833-5d9d-4900-9a4a-5a7b67e003e2" d="M732.4,432.2c6.7,17.6,2.6,39.9-9.2,49.5s-26.9,3.3-33.6-14.5-2.6-39.9,9.2-49.5S725.7,414.5,732.4,432.2Z" transform="translate(-336.17 -71.73)"/><path class="a6e73833-5d9d-4900-9a4a-5a7b67e003e2" d="M881.1,267.3c-.1,5.6-1.2,10.3-2.5,10.6s-2.1-4-2-9.7,1.2-10.3,2.5-10.6S881.3,261.8,881.1,267.3Z" transform="translate(-336.17 -71.73)"/><path class="a6e73833-5d9d-4900-9a4a-5a7b67e003e2" d="M803,382.8c-.1,3.7-1.1,7-2.5,7.2-1.2.2-2.2-2.6-2.1-6.3s1.1-7,2.5-7.2S803,379.1,803,382.8Z" transform="translate(-336.17 -71.73)"/><path class="a6e73833-5d9d-4900-9a4a-5a7b67e003e2" d="M789.6,367.3c0,1.9-.6,3.5-1.2,3.6s-1.1-1.2-1-3.1.6-3.5,1.2-3.6S789.6,365.4,789.6,367.3Z" transform="translate(-336.17 -71.73)"/><path class="a6e73833-5d9d-4900-9a4a-5a7b67e003e2" d="M885.1,285.8c0,1.9-.6,3.5-1.2,3.6s-1.1-1.2-1-3.1.6-3.5,1.2-3.6S885.1,284,885.1,285.8Z" transform="translate(-336.17 -71.73)"/><path class="a6e73833-5d9d-4900-9a4a-5a7b67e003e2" d="M794.1,402.1c-.1,10.2,8,26.4,2.4,28.7-1.2.4-5.3-18.2-6.2-28.1s-.7-18.3.6-18.8S794.3,379.9,794.1,402.1Z" transform="translate(-336.17 -71.73)"/><path class="a6e73833-5d9d-4900-9a4a-5a7b67e003e2" d="M714.1,448.9c2.1,5.6.8,12.6-2.9,15.6s-8.5,1-10.6-4.6-.8-12.6,2.9-15.6S712,443.3,714.1,448.9Z" transform="translate(-336.17 -71.73)"/></g><path class="a6e73833-5d9d-4900-9a4a-5a7b67e003e2" d="M668.7,197.7s81.7-208.2,256.1-88.2l40.3,537.7c-83.5-44.9-207.2,54-207.2,54" transform="translate(-336.17 -71.73)"/><path class="a6e73833-5d9d-4900-9a4a-5a7b67e003e2" d="M336.8,244.8S411,604,425.8,727.7c0,0,298.7-100.6,332.1-26.5,18.8,41.6-89.2-503.5-89.2-503.5s-22.8-21.9-54.9-9.2C548,214.8,424.9,253.1,336.8,244.8Z" transform="translate(-336.17 -71.73)"/><path class="a6e73833-5d9d-4900-9a4a-5a7b67e003e2" d="M380.3,276.1s38.1-.6,113-16c44.9-9.2,138.9-63,144.3-29.2,7.1,44.6,34.9,175.7,34.9,175.7L414.4,454.1Z" transform="translate(-336.17 -71.73)"/><g class="279a95fd-9695-4dc1-90a5-3f040a08d770"><path class="a6e73833-5d9d-4900-9a4a-5a7b67e003e2" d="M616.4,249.9c47.9-6.5,85.4,21.6,83.9,62.7s-41.6,79.5-89.3,86.1-85.4-21.6-83.9-62.7" transform="translate(-336.17 -71.73)"/><path class="a6e73833-5d9d-4900-9a4a-5a7b67e003e2" d="M681.2,329.3C679.6,343,667.9,355,655.1,356s-22-9.2-20.4-22.9,13.3-25.7,26.1-26.7S682.8,315.5,681.2,329.3Z" transform="translate(-336.17 -71.73)"/><path class="a6e73833-5d9d-4900-9a4a-5a7b67e003e2" d="M669.3,330.8a9.46,9.46,0,0,1-8.2,8.4c-4,.3-7-2.9-6.5-7.3a9.46,9.46,0,0,1,8.2-8.4C666.8,323.1,669.7,326.5,669.3,330.8Z" transform="translate(-336.17 -71.73)"/><path class="a6e73833-5d9d-4900-9a4a-5a7b67e003e2" d="M526.2,358c-1.5,41-41.6,79.5-89.3,86.1s-85.4-21.6-83.9-62.7,41.6-79.5,89.3-86.1" transform="translate(-336.17 -71.73)"/><path class="a6e73833-5d9d-4900-9a4a-5a7b67e003e2" d="M431.2,389.1a22.55,22.55,0,0,1-9.2,31.7c-11.8,6.2-26.9,2-33.6-9.2a22.55,22.55,0,0,1,9.2-31.7C409.5,373.7,424.5,377.8,431.2,389.1Z" transform="translate(-336.17 -71.73)"/><path class="a6e73833-5d9d-4900-9a4a-5a7b67e003e2" d="M590.7,334.5c.3-7.2,8.1,5.7,8.1,5.7,2.8-14.3-9.7-23.1-9.4-29.4.2-7.1,2.4-12.6,4-8.5.7,1.6,1.1,4,1.8,5.2,1,1.7,2-.6,2.7-3.5s1-6.5,1.9-8.8c1.5-3.9,3.9-1.3,4.9,5.1.9,5.1,1.2,12.7,2.7,14.4.4.6.9.2,1.5.1,1.6-.4,3.1.9,4.5,4.5s2.4,9.8,2.4,15.7c0,8.5-1.9,15.3-1.3,23.8.4,6.9,2.2,13.1,1.9,19.5-.3,6.9-2.9,7.1-4.7,4s-3.6-8.2-5.5-7.6c-1.1.3-2.4,2.5-3.3-.4-.9-2.7-.8-8-1.7-10.8-1.1-3.5-2.7-.2-3.8-3.1-.8-1.8-1.1-5.5-1.7-8.1-.9-3.6-2.1-4.6-3.3-6.7a26.48,26.48,0,0,1-1.7-11.1Z" transform="translate(-336.17 -71.73)"/><path class="a6e73833-5d9d-4900-9a4a-5a7b67e003e2" d="M580,283.8c-.1,3.6-1.2,6.6-2.5,6.7s-2.1-2.6-2-6.2,1.2-6.6,2.5-6.7S580.1,280.2,580,283.8Z" transform="translate(-336.17 -71.73)"/><path class="a6e73833-5d9d-4900-9a4a-5a7b67e003e2" d="M501.8,357.5c-.1,2.4-1.1,4.5-2.5,4.6-1.2.2-2.2-1.6-2.1-4s1.1-4.5,2.5-4.6S501.9,355.2,501.8,357.5Z" transform="translate(-336.17 -71.73)"/><path class="a6e73833-5d9d-4900-9a4a-5a7b67e003e2" d="M488.4,347.6a2.56,2.56,0,0,1-1.2,2.4c-.7.1-1.1-.8-1-2s.6-2.2,1.2-2.4S488.5,346.4,488.4,347.6Z" transform="translate(-336.17 -71.73)"/><path class="a6e73833-5d9d-4900-9a4a-5a7b67e003e2" d="M584,295.6a2.56,2.56,0,0,1-1.2,2.4c-.6.2-1.1-.8-1-2a2.56,2.56,0,0,1,1.2-2.4C583.6,293.4,584,294.4,584,295.6Z" transform="translate(-336.17 -71.73)"/><path class="a6e73833-5d9d-4900-9a4a-5a7b67e003e2" d="M493,369.9c-.1,6.5,8,16.9,2.4,18.3-1.2.3-5.3-11.7-6.2-18s-.7-11.7.6-12S493.1,355.7,493,369.9Z" transform="translate(-336.17 -71.73)"/><path class="56386d14-55c3-4030-badc-e60bcd15ffd0" d="M605.5,320.7c0-1.1,1.1-1.9,1.8-1.2h0a4.8,4.8,0,0,1,.9,1.9,38.36,38.36,0,0,1,1.9,15.2c-.2,2.7-.9,4.3-.8,6.9,0,1.5.3,4,1.2,4.8h0a2,2,0,0,1-.8,3.3,2.18,2.18,0,0,1-2.1-.4,2.93,2.93,0,0,1-.7-1.2c-1-2.5-.1-4.5.7-12C608.7,326.8,605.5,323.2,605.5,320.7Z" transform="translate(-336.17 -71.73)"/><path class="a6e73833-5d9d-4900-9a4a-5a7b67e003e2" d="M413,399.8a7.11,7.11,0,0,1-2.9,10,8.1,8.1,0,0,1-10.6-2.9,7.19,7.19,0,0,1,2.9-10A8.13,8.13,0,0,1,413,399.8Z" transform="translate(-336.17 -71.73)"/></g><path class="317b3e50-d8ee-4332-abfb-b9901da259a5" d="M417.7,477.7l259.4-48.4,38.2,211.2c-54.2-30.7-258,37.9-258,37.9Z" transform="translate(-336.17 -71.73)"/><path class="a6e73833-5d9d-4900-9a4a-5a7b67e003e2" d="M544.6,652.1c-11.2-42.7,19.4-67.7,42-34.4,23.3-13,37.2-.4,37.2,19.1-52.1,8.8-79.2,15.3-79.2,15.3" transform="translate(-336.17 -71.73)"/><path class="a6e73833-5d9d-4900-9a4a-5a7b67e003e2" d="M483.3,669.3l62.8-129.6c-1.9-28.2,33.6-66.4,47.2-44,25.7-5.4,22,46.7.2,64.6l-37.7,89.5Z" transform="translate(-336.17 -71.73)"/><ellipse class="a6e73833-5d9d-4900-9a4a-5a7b67e003e2" cx="587.78" cy="509.13" rx="10.8" ry="1.6" transform="translate(-463.91 741.91) rotate(-63.95)"/><path class="a6e73833-5d9d-4900-9a4a-5a7b67e003e2" d="M693.8,202.8S710,158,757.2,121.5c58.2-45.2,135.5,8.9,135.5,8.9,3.3,47.9,38.9,469.2,38.9,469.2-62.1-28.7-153.8,49.2-153.8,49.2Z" transform="translate(-336.17 -71.73)"/><g class="0fd4017a-8fda-4e91-b565-26549d6f5f33"><path class="a6e73833-5d9d-4900-9a4a-5a7b67e003e2" d="M840.8,241.6c-.1,4.9,87.1-157.6,103.3-151.9s29.3,277.2,29.3,277.2L920.8,218.7S902.3,365.9,856.1,373c-43.9,6.7-50.4-30.9-50.4-30.9S797,394.7,756.6,406c-24.2,6.7-78.8-60.9-78.8-60.9L666.1,222.2s77.2,78,74.6,63.3c-7.2-40.2-27-170.1-30.6-164.9L827.7,88.2C827.7,88.1,818.3,165.2,840.8,241.6Z" transform="translate(-336.17 -71.73)"/></g><path class="a6e73833-5d9d-4900-9a4a-5a7b67e003e2" d="M799.4,307.4c-1.3-14.7-1.1-26.9.4-27.2s3.8,11.2,5.2,26,1.1,26.9-.4,27.2S800.6,322.1,799.4,307.4Z" transform="translate(-336.17 -71.73)"/><ellipse class="a6e73833-5d9d-4900-9a4a-5a7b67e003e2" cx="783.87" cy="231.74" rx="3.1" ry="2.2" transform="translate(180.35 932.46) rotate(-87.38)"/><path class="a6e73833-5d9d-4900-9a4a-5a7b67e003e2" d="M858.4,585.3a50.53,50.53,0,0,0-.8-10.7c-2.6-15.2-5.1-31.1-5.6-46.1-.7-16.9,2.6-29.3,6.6-19.1,1.5,3.8,2.9,10,4.4,12.8,2.2,4.2,3.9-.9,4.7-7.6s1-15.3,2.2-20.2c2.1-8.9,7.4-2.4,10.6,13.3,2.5,12.2,4.4,30.3,7.5,34.7,1,1.5,1.9.9,2.8.7,2.9-.7,6.4,2.9,9.7,11.8s6.3,23.6,7.2,37.8c1.5,20.1-1.2,35.6,1.1,56.1,1.9,16.3,6.5,31.7,7,46.9.4,16.3-4.6,16.2-8.7,8.4s-8.4-20.3-12-19.5c-2.1.4-4.2,5.4-6.5-1.9-2.1-6.6-2.9-19.2-4.9-26-2.7-8.5-5.3-1.3-8.1-8.3-1.8-4.5-3-13.4-4.6-19.7-2.2-8.7-4.9-11.6-7.4-16.9-2.5-5.6-5.5-17.6-5.2-26.5Z" transform="translate(-336.17 -71.73)"/><path class="a6e73833-5d9d-4900-9a4a-5a7b67e003e2" d="M814,496.3c1.8-4.8,5.7-.9,7.6,7.8,1.1,5.3,1.6,11.3,2.4,17,1.7,11.1.6,20.3,3.5,29,3.4,9.8,11.1,19.8,14.2,30.8a26.08,26.08,0,0,1,.8,5.6c0,2.7-.7,2.9-1.2,3-1.3.2-2.7.4-3.9.7a2.32,2.32,0,0,1-2.5-.9c-1.9-2.7-3-10.2-4.3-16.3a60.26,60.26,0,0,0-5.5-16.7c-1.8-3.3-3.8-5.4-5.2-10.6-.9-3.1-1.2-7-1.8-10.7a198.6,198.6,0,0,0-4.3-22.2c-1.5-6.4-1.5-13.9.2-16.5Z" transform="translate(-336.17 -71.73)"/><ellipse class="a6e73833-5d9d-4900-9a4a-5a7b67e003e2" cx="828.33" cy="468.01" rx="4.2" ry="14.3" transform="translate(-382.17 21.16) rotate(-6.25)"/><ellipse class="a6e73833-5d9d-4900-9a4a-5a7b67e003e2" cx="823.33" cy="605.32" rx="2.2" ry="7.8" transform="translate(-397.14 21.43) rotate(-6.25)"/><path class="56386d14-55c3-4030-badc-e60bcd15ffd0" d="M886.7,565.8c-.2-3.4,1.8-5.2,3.4-2.9h0a26.75,26.75,0,0,1,2.4,6.1c3.9,14.8,7,30.6,7.2,46.2.1,8-.8,12.4-.1,20.3.3,4.3,1.6,12.1,3.6,14.9v.1c2.1,3.1,1.7,9-.8,9.4a4.19,4.19,0,0,1-4.3-2.1,21.9,21.9,0,0,1-1.7-3.8c-2.5-7.6-1.2-13.5-1.5-35.8C894.5,585.4,887.2,573.3,886.7,565.8Z" transform="translate(-336.17 -71.73)"/></svg>