<svg id="6ecbfb20-d846-4981-abce-a6d68606ee0c" data-name="929a63f3-9ae3-4ac3-aaf2-1ac0400b1715" xmlns="http://www.w3.org/2000/svg" width="746.09" height="450.71" viewBox="0 0 746.09 450.71"><defs><style>.\32 cb17e02-e661-4c40-aed2-d7c6e4bad050{fill:#fff;}.c2f0fd14-a448-48e1-b315-5a0670daf71d{fill:none;stroke:#1e120d;stroke-miterlimit:10;stroke-width:1.16px;}</style></defs><title>problems</title><path class="2cb17e02-e661-4c40-aed2-d7c6e4bad050" d="M3,99.8c21.9,98,49.9,98,52.1,0,12,98,21,126.4,42.9,132.3C76.1,311.9,67.1,340.3,55.1,364.4c-2.1-24.1-22.2-24.1-37.2,0,15-24.1,15,62.2,0,160.2,15-98,7-98-14.9,0C24.9,426.5,24.9,197.8,3,99.8ZM17.9,337.9c15-40.3,34.7-40.3,36.5,0,7.8-40.3,13.6-55.7,28.7-87.4-15-31.7-20.9-47.1-28.7-87.4-1.8,40.3-21.4,40.3-36.5,0C32.9,203.5,32.9,297.6,17.9,337.9Z" transform="translate(-2.43 -86.32)"/><path class="c2f0fd14-a448-48e1-b315-5a0670daf71d" d="M3,99.8c21.9,98,49.9,98,52.1,0,12,98,21,126.4,42.9,132.3C76.1,311.9,67.1,340.3,55.1,364.4c-2.1-24.1-22.2-24.1-37.2,0,15-24.1,15,62.2,0,160.2,15-98,7-98-14.9,0C24.9,426.5,24.9,197.8,3,99.8ZM17.9,337.9c15-40.3,34.7-40.3,36.5,0,7.8-40.3,13.6-55.7,28.7-87.4-15-31.7-20.9-47.1-28.7-87.4-1.8,40.3-21.4,40.3-36.5,0C32.9,203.5,32.9,297.6,17.9,337.9Z" transform="translate(-2.43 -86.32)"/><path class="2cb17e02-e661-4c40-aed2-d7c6e4bad050" d="M139.9,340.1c1-12.9-14.1-12.9-28,0,13.9-12.9,13.9,86.4,0,184.5,13.9-98,5.9-98-14.9,0,20.8-98,20.8-326.7,0-424.8,20.8,98,47.4,98,49.4,0,11.2,98,19.4,125.8,39.8,120.1-20.4,74.3-26.6,98.8-30.3,117.1-6.5-11.5,10.2,89.5,31,187.5-20.8-98-29.7-98-16.6,0C157.3,426.5,140.9,327.2,139.9,340.1ZM112,316.5c13.7-34.7,30.9-34.7,31.9,0,8.5-34.7,13.9-49.1,27.6-75.2-13.7-26.1-19.2-40.5-27.6-75.2-1,34.7-18.1,34.7-31.9,0C125.7,200.7,125.7,281.7,112,316.5Z" transform="translate(-2.43 -86.32)"/><path class="c2f0fd14-a448-48e1-b315-5a0670daf71d" d="M139.9,340.1c1-12.9-14.1-12.9-28,0,13.9-12.9,13.9,86.4,0,184.5,13.9-98,5.9-98-14.9,0,20.8-98,20.8-326.7,0-424.8,20.8,98,47.4,98,49.4,0,11.2,98,19.4,125.8,39.8,120.1-20.4,74.3-26.6,98.8-30.3,117.1-6.5-11.5,10.2,89.5,31,187.5-20.8-98-29.7-98-16.6,0C157.3,426.5,140.9,327.2,139.9,340.1ZM112,316.5c13.7-34.7,30.9-34.7,31.9,0,8.5-34.7,13.9-49.1,27.6-75.2-13.7-26.1-19.2-40.5-27.6-75.2-1,34.7-18.1,34.7-31.9,0C125.7,200.7,125.7,281.7,112,316.5Z" transform="translate(-2.43 -86.32)"/><path class="2cb17e02-e661-4c40-aed2-d7c6e4bad050" d="M237.1,533.1c-17.9-101.9-32.2-149.6-59.9-220.9,27.6-71.2,41.9-118.9,59.9-220.9C255,193.2,269.3,240.9,297,312.2,269.3,383.4,255,431.1,237.1,533.1Zm44.6-220.9c-20.6-56.9-30.9-94.8-44.6-176-13.7,81.2-24,119.1-44.6,176,20.6,56.9,30.9,94.8,44.6,176C250.8,406.9,261.1,369,281.7,312.2Z" transform="translate(-2.43 -86.32)"/><path class="c2f0fd14-a448-48e1-b315-5a0670daf71d" d="M237.1,533.1c-17.9-101.9-32.2-149.6-59.9-220.9,27.6-71.2,41.9-118.9,59.9-220.9C255,193.2,269.3,240.9,297,312.2,269.3,383.4,255,431.1,237.1,533.1Zm44.6-220.9c-20.6-56.9-30.9-94.8-44.6-176-13.7,81.2-24,119.1-44.6,176,20.6,56.9,30.9,94.8,44.6,176C250.8,406.9,261.1,369,281.7,312.2Z" transform="translate(-2.43 -86.32)"/><path class="2cb17e02-e661-4c40-aed2-d7c6e4bad050" d="M293.5,99.8c20.5,98,44.9,98,45.3,0,12.3,98,20.5,121.2,39,102.5-18.4,77.8-23.7,93.2-21.6,93.4-.5,16.7,5.6,32.4,26,106.8-20.5-1.5-31.3,23.9-43,122-.6-98-25.2-98-45.7,0C313.9,426.5,313.9,197.8,293.5,99.8Zm15.3,201.9c12.8-31.4,28.6-31.4,29.4,0,7-31.4,13.1-41.8,25.9-68-12.8-26.1-18.9-36.6-25.9-68-.8,31.4-16.6,31.4-29.4,0C321.5,197.2,321.5,270.4,308.8,301.7Zm-.5,159.8c13.8-37.2,29.1-37.2,28.5,0,9.9-37.2,17.4-48.7,31.2-80.7-13.8-32-21.3-43.5-31.2-80.7.6,37.2-14.7,37.2-28.5,0C322,337.3,322,424.2,308.3,461.5Z" transform="translate(-2.43 -86.32)"/><path class="c2f0fd14-a448-48e1-b315-5a0670daf71d" d="M293.5,99.8c20.5,98,44.9,98,45.3,0,12.3,98,20.5,121.2,39,102.5-18.4,77.8-23.7,93.2-21.6,93.4-.5,16.7,5.6,32.4,26,106.8-20.5-1.5-31.3,23.9-43,122-.6-98-25.2-98-45.7,0C313.9,426.5,313.9,197.8,293.5,99.8Zm15.3,201.9c12.8-31.4,28.6-31.4,29.4,0,7-31.4,13.1-41.8,25.9-68-12.8-26.1-18.9-36.6-25.9-68-.8,31.4-16.6,31.4-29.4,0C321.5,197.2,321.5,270.4,308.8,301.7Zm-.5,159.8c13.8-37.2,29.1-37.2,28.5,0,9.9-37.2,17.4-48.7,31.2-80.7-13.8-32-21.3-43.5-31.2-80.7.6,37.2-14.7,37.2-28.5,0C322,337.3,322,424.2,308.3,461.5Z" transform="translate(-2.43 -86.32)"/><path class="2cb17e02-e661-4c40-aed2-d7c6e4bad050" d="M383.5,99.8c17.8,98,25.8,98,14.9,0,10.9,98,10.9,302.6,0,379.9,10.9-77.3,44.4-77.3,62.2,0-17.8-77.3-17.8-53.1,0,44.9-17.8-98-59.3-98-77,0C401.3,426.5,401.3,197.8,383.5,99.8Z" transform="translate(-2.43 -86.32)"/><path class="c2f0fd14-a448-48e1-b315-5a0670daf71d" d="M383.5,99.8c17.8,98,25.8,98,14.9,0,10.9,98,10.9,302.6,0,379.9,10.9-77.3,44.4-77.3,62.2,0-17.8-77.3-17.8-53.1,0,44.9-17.8-98-59.3-98-77,0C401.3,426.5,401.3,197.8,383.5,99.8Z" transform="translate(-2.43 -86.32)"/><path class="2cb17e02-e661-4c40-aed2-d7c6e4bad050" d="M460.3,99.8c18,98,59.8,98,77.6,0-17.8,98-17.8,122.2,0,44.9-17.8,77.3-51.5,77.3-62.7,0,11.2,77.3,11.2,151.5,0,137.7,11.2,13.7,42.2,13.7,57.7,0-15.5,13.7-15.5,37.9,0,44.9-15.5-7-46.6-7-57.7,0,11.2-7,11.2,75,0,152.3,11.2-77.3,45.2-77.3,63.2,0-18-77.3-18-53.1,0,44.9-18-98-60.1-98-78.1,0C478.4,426.5,478.4,197.8,460.3,99.8Z" transform="translate(-2.43 -86.32)"/><path class="c2f0fd14-a448-48e1-b315-5a0670daf71d" d="M460.3,99.8c18,98,59.8,98,77.6,0-17.8,98-17.8,122.2,0,44.9-17.8,77.3-51.5,77.3-62.7,0,11.2,77.3,11.2,151.5,0,137.7,11.2,13.7,42.2,13.7,57.7,0-15.5,13.7-15.5,37.9,0,44.9-15.5-7-46.6-7-57.7,0,11.2-7,11.2,75,0,152.3,11.2-77.3,45.2-77.3,63.2,0-18-77.3-18-53.1,0,44.9-18-98-60.1-98-78.1,0C478.4,426.5,478.4,197.8,460.3,99.8Z" transform="translate(-2.43 -86.32)"/><path class="2cb17e02-e661-4c40-aed2-d7c6e4bad050" d="M537.1,99.8c28,98,36.5,98,15.9,0,20.6,98,44.6,303.9,44.6,382.3,0-78.4,24-284.3,44.6-382.3-20.6,98-12,98,15.9,0-28,98-28,326.7,0,424.8-28-98-35.6-98-14.2,0-21.4-98-21.4-274.5,0-327.7-22,59.1-24.8,85.2-6.4,59.5-18.5,25.8-35.9,170.2-32.4,268.2-3.5-98-11.7-98-15.2,0,3.5-98-13.9-242.4-32.4-268.2,18.5,25.8,15.6-.4-6.4-59.5,21.4,53.2,21.4,229.7,0,327.7,21.4-98,13.8-98-14.2,0C565.1,426.5,565.1,197.8,537.1,99.8Z" transform="translate(-2.43 -86.32)"/><path class="c2f0fd14-a448-48e1-b315-5a0670daf71d" d="M537.1,99.8c28,98,36.5,98,15.9,0,20.6,98,44.6,303.9,44.6,382.3,0-78.4,24-284.3,44.6-382.3-20.6,98-12,98,15.9,0-28,98-28,326.7,0,424.8-28-98-35.6-98-14.2,0-21.4-98-21.4-274.5,0-327.7-22,59.1-24.8,85.2-6.4,59.5-18.5,25.8-35.9,170.2-32.4,268.2-3.5-98-11.7-98-15.2,0,3.5-98-13.9-242.4-32.4-268.2,18.5,25.8,15.6-.4-6.4-59.5,21.4,53.2,21.4,229.7,0,327.7,21.4-98,13.8-98-14.2,0C565.1,426.5,565.1,197.8,537.1,99.8Z" transform="translate(-2.43 -86.32)"/><path class="2cb17e02-e661-4c40-aed2-d7c6e4bad050" d="M707.7,282.4c11.1,22.9,18.3,44.1,40,123.8-21.7-5.5-31.4,24.9-44.8,126.8-16.2-101.9-25.7-133.6-49.4-131.7,21.7-41.2,28.8-53.9,13.1-23.7,17.5,9.9,25,29.2,36.3,110.4,9.3-81.2,15.1-101.1,29.9-78.3-14.9-71.6-21-84.3-32.8-86.2-12.5-13.2-21.7-32.8-40.7-122,19,16,28.4-8.5,41.4-110.4,11.9,102.1,20.8,123.7,44.9,102.1-20.8,54.9-27.2,68-12,24.3-18,15.9-24.2-.7-32.8-82.5-8.4,81.8-14.6,94.5-26.9,66.7C686.3,275.3,692.1,288.3,707.7,282.4Z" transform="translate(-2.43 -86.32)"/><path class="c2f0fd14-a448-48e1-b315-5a0670daf71d" d="M707.7,282.4c11.1,22.9,18.3,44.1,40,123.8-21.7-5.5-31.4,24.9-44.8,126.8-16.2-101.9-25.7-133.6-49.4-131.7,21.7-41.2,28.8-53.9,13.1-23.7,17.5,9.9,25,29.2,36.3,110.4,9.3-81.2,15.1-101.1,29.9-78.3-14.9-71.6-21-84.3-32.8-86.2-12.5-13.2-21.7-32.8-40.7-122,19,16,28.4-8.5,41.4-110.4,11.9,102.1,20.8,123.7,44.9,102.1-20.8,54.9-27.2,68-12,24.3-18,15.9-24.2-.7-32.8-82.5-8.4,81.8-14.6,94.5-26.9,66.7C686.3,275.3,692.1,288.3,707.7,282.4Z" transform="translate(-2.43 -86.32)"/></svg>