<svg id="0df9d920-e5ed-4944-8981-6d42a1691ab7" data-name="0d2097b9-2781-4af6-af2a-a05ef0d30f45" xmlns="http://www.w3.org/2000/svg" width="1412.09" height="134" viewBox="0 0 1412.09 134"><title>s-e-x</title><path d="M480.7,9.71S146.55,2.86,123.17,36.49,629.49,71,376.4,108.12c-136,20-260.7,15.81-376.4,2.76" transform="translate(0 0)"/><path d="M838.55,10.77S469.49.14,609.3,45.19c98.56,31.76,208,27.12,208,27.12S350,111,519.31,128.83s417.15-16.21,417.15-16.21" transform="translate(0 0)"/><path d="M1005.49,2.18c35-2.75,311.89,64,406.6,130.7" transform="translate(0 0)"/><path d="M962.61,110.88S1258.83,42.15,1357.38,0" transform="translate(0 0)"/></svg>