<svg id="e16f72aa-844b-4a37-a115-66741aa33c26" data-name="929a63f3-9ae3-4ac3-aaf2-1ac0400b1715" xmlns="http://www.w3.org/2000/svg" width="613.61" height="561.14" viewBox="0 0 613.61 561.14"><defs><style>.\34 2a1d055-4413-44cb-83c1-508e0768184e{fill:#fff;}.\33 cd82a28-b224-416e-804b-3dde454e6796{fill:none;stroke:#000116;stroke-miterlimit:10;}</style></defs><title>s</title><path class="42a1d055-4413-44cb-83c1-508e0768184e" d="M738.4,679.5C707.3,598.3,684,597,640.1,674c2.5-82.2-15.9-86.2-77.7-16.6,14.5-84.9-9.3-100.3-100.5-65.2,58.8-76.6,47.9-102.3-46-108.6,88.4-24.3,227.9-24.3,196.7,0,35.8-7.2,46.8,4.5,46.8,49.7,35.2-32.3,56.8-29.1,91,13.6,14.9-42.7,32.2-45,72.9-9.6-19.2-44.4-13.8-51.6,22.8-30.2-36.6-35-37.5-38.4-3.7-14.4-37.3-29.9-39.7-32.3-10.3-9.9C792.8,455,780.5,452,780,470.3c-35.4-22.5-61.4-24.6-110.1-8.8-41.9-21.7-83.8-32-177.1-43.5,38.7-22,25-49.5-57.8-116.4,82.8-11.1,99.7-42.5,71.4-132.6,95.9,44.1,144.1,32.6,204-48.6,66.5,81.2,116.4,91.3,211,42.7-22.5,89,1.1,123.2,99.8,144.4-87.5,26.9-220.8,26.9-187.8,0-36.8,11.2-46.5.6-40.9-44.9-36.6,34.3-57.2,31.6-87.3-11.8-20.1,43.3-37,46-71.4,11.4,15.6,45.4,10.9,52.3-19.9,29.1,30.8,36.1,32.1,39.9,5.5,16.2,31.8,30,36.8,32.6,21,11,30.8,25.7,41.9,27.7,47.1,8.1,24,23,43.4,24.6,81.8,6.6,6.2,20.4,24.8,22.2,78.8,7.7-20.5,19.7-5.4,23,64.1,13.6-29,21.2-9.1,33.1,84.3,50.5-67.3,14.4-60.8,35.5,27.6,89.5-88.4-14.3-90.1-1.9-7.4,52.3-89.7-31.2-95.1-20.6-22.8,44.9-93.6-36.2-115.5-21-92.8,64.4C818.6,592.8,780.1,598.3,738.4,679.5Z" transform="translate(-412.92 -119.59)"/><path class="3cd82a28-b224-416e-804b-3dde454e6796" d="M738.4,679.5C707.3,598.3,684,597,640.1,674c2.5-82.2-15.9-86.2-77.7-16.6,14.5-84.9-9.3-100.3-100.5-65.2,58.8-76.6,47.9-102.3-46-108.6,88.4-24.3,227.9-24.3,196.7,0,35.8-7.2,46.8,4.5,46.8,49.7,35.2-32.3,56.8-29.1,91,13.6,14.9-42.7,32.2-45,72.9-9.6-19.2-44.4-13.8-51.6,22.8-30.2-36.6-35-37.5-38.4-3.7-14.4-37.3-29.9-39.7-32.3-10.3-9.9C792.8,455,780.5,452,780,470.3c-35.4-22.5-61.4-24.6-110.1-8.8-41.9-21.7-83.8-32-177.1-43.5,38.7-22,25-49.5-57.8-116.4,82.8-11.1,99.7-42.5,71.4-132.6,95.9,44.1,144.1,32.6,204-48.6,66.5,81.2,116.4,91.3,211,42.7-22.5,89,1.1,123.2,99.8,144.4-87.5,26.9-220.8,26.9-187.8,0-36.8,11.2-46.5.6-40.9-44.9-36.6,34.3-57.2,31.6-87.3-11.8-20.1,43.3-37,46-71.4,11.4,15.6,45.4,10.9,52.3-19.9,29.1,30.8,36.1,32.1,39.9,5.5,16.2,31.8,30,36.8,32.6,21,11,30.8,25.7,41.9,27.7,47.1,8.1,24,23,43.4,24.6,81.8,6.6,6.2,20.4,24.8,22.2,78.8,7.7-20.5,19.7-5.4,23,64.1,13.6-29,21.2-9.1,33.1,84.3,50.5-67.3,14.4-60.8,35.5,27.6,89.5-88.4-14.3-90.1-1.9-7.4,52.3-89.7-31.2-95.1-20.6-22.8,44.9-93.6-36.2-115.5-21-92.8,64.4C818.6,592.8,780.1,598.3,738.4,679.5Z" transform="translate(-412.92 -119.59)"/></svg>