<svg id="9a1ac5f0-aff0-48f8-8b62-336e045db8e1" data-name="929a63f3-9ae3-4ac3-aaf2-1ac0400b1715" xmlns="http://www.w3.org/2000/svg" width="746.98" height="292.46" viewBox="0 0 746.98 292.46"><defs><style>.\32 751c0be-9250-4c98-a2b3-b0367129d58b{fill:#1e120d;}.\34 b6237b0-2f9e-4540-acd2-8f3b067d1f48{fill:none;stroke:#fff;stroke-miterlimit:10;stroke-width:1.16px;}</style></defs><title>sex</title><path class="2751c0be-9250-4c98-a2b3-b0367129d58b" d="M114.3,280c79.6.1,120.8,28.6,59.7,52.2,61.1,87.3,17.3,137.1-67.2,56.8C38,469.3-9.8,425.5,31.4,337.5c-61.1,36.1-18,9.6,23.2-14.3-24.6,69,7.3,100.9,52.2,41.5,48,59.4,76.5,37.5,39.3-31.5,37.2-.1,10-16-45.4-31.8-61.4-6.1-111.9-34.6-59.3-51.8-52.5-95.6.6-128.2,61.1-47.9,67.5-80.3,107.4-50.4,69,42.9,59-43.5,19.1-20.3-21.4,12.5,22.7-76.6-10.5-91.8-47.2-31.8-36.4-60-66.2-46.1-35.7,23.2C36.7,242.2,71.9,256.8,114.3,280Z" transform="translate(-0.39 -149.12)"/><path class="4b6237b0-2f9e-4540-acd2-8f3b067d1f48" d="M114.3,280c79.6.1,120.8,28.6,59.7,52.2,61.1,87.3,17.3,137.1-67.2,56.8C38,469.3-9.8,425.5,31.4,337.5c-61.1,36.1-18,9.6,23.2-14.3-24.6,69,7.3,100.9,52.2,41.5,48,59.4,76.5,37.5,39.3-31.5,37.2-.1,10-16-45.4-31.8-61.4-6.1-111.9-34.6-59.3-51.8-52.5-95.6.6-128.2,61.1-47.9,67.5-80.3,107.4-50.4,69,42.9,59-43.5,19.1-20.3-21.4,12.5,22.7-76.6-10.5-91.8-47.2-31.8-36.4-60-66.2-46.1-35.7,23.2C36.7,242.2,71.9,256.8,114.3,280Z" transform="translate(-0.39 -149.12)"/><path class="2751c0be-9250-4c98-a2b3-b0367129d58b" d="M320.9,300c-47.5,73-5.7,125.4,61.1,65.4,61.3,60,91.1,27.5,59.7-40.4,52.7,25.4,90.5,48,20.4,12.2,39.6,96.2-6.2,132.1-81.1,51.8-89,80.3-162.7,7.9-87.9-93.6-74.7-101.6-1.1-173.9,89-93.6,100.4-80.3,160.2-11.9,85.4,88.6,74.7-4.3,74.7,13.6,0,9.6C542.2,303.9,270,303.9,320.9,300Zm2.6-41.8c-49.9,22.2,166.4,22.2,116.5,0,46.6-40.2-6.5-74-57.5-51.8C324,184.1,285.5,224,323.5,258.2Z" transform="translate(-0.39 -149.12)"/><path class="4b6237b0-2f9e-4540-acd2-8f3b067d1f48" d="M320.9,300c-47.5,73-5.7,125.4,61.1,65.4,61.3,60,91.1,27.5,59.7-40.4,52.7,25.4,90.5,48,20.4,12.2,39.6,96.2-6.2,132.1-81.1,51.8-89,80.3-162.7,7.9-87.9-93.6-74.7-101.6-1.1-173.9,89-93.6,100.4-80.3,160.2-11.9,85.4,88.6,74.7-4.3,74.7,13.6,0,9.6C542.2,303.9,270,303.9,320.9,300Zm2.6-41.8c-49.9,22.2,166.4,22.2,116.5,0,46.6-40.2-6.5-74-57.5-51.8C324,184.1,285.5,224,323.5,258.2Z" transform="translate(-0.39 -149.12)"/><path class="2751c0be-9250-4c98-a2b3-b0367129d58b" d="M639.4,268.5c.3-23,73.3-137.8,39.3-61.8,34-76,93.1-76,31.8,0,61.3-76-40.9,76.7-55,82.2,14.1-5.5,127.6,171,61.1,95.1,66.5,76,8.1,76-31.5,0,39.5,76-45.4-58.1-45.7-72.2.3,14.1-85.3,148.2-46.1,72.2-39.2,76-98.3,76-31.8,0-66.5,76,50.3-99.3,62.9-94.4-12.6-4.9-116.1-158.9-55.8-82.9-60.3-76-1.3-76,31.8,0C567.4,130.7,639.7,245.5,639.4,268.5Z" transform="translate(-0.39 -149.12)"/><path class="4b6237b0-2f9e-4540-acd2-8f3b067d1f48" d="M639.4,268.5c.3-23,73.3-137.8,39.3-61.8,34-76,93.1-76,31.8,0,61.3-76-40.9,76.7-55,82.2,14.1-5.5,127.6,171,61.1,95.1,66.5,76,8.1,76-31.5,0,39.5,76-45.4-58.1-45.7-72.2.3,14.1-85.3,148.2-46.1,72.2-39.2,76-98.3,76-31.8,0-66.5,76,50.3-99.3,62.9-94.4-12.6-4.9-116.1-158.9-55.8-82.9-60.3-76-1.3-76,31.8,0C567.4,130.7,639.7,245.5,639.4,268.5Z" transform="translate(-0.39 -149.12)"/></svg>