<svg id="e8e8037b-e203-4981-acaf-399487a39e27" data-name="929a63f3-9ae3-4ac3-aaf2-1ac0400b1715" xmlns="http://www.w3.org/2000/svg" width="864.2" height="584.9" viewBox="0 0 864.2 584.9"><defs><style>.\37 be0e6ae-df9d-47f8-8d89-273dcc16f7be,.\39 c62a600-5421-43a5-a144-7d3719069e6d{fill:#fff;}.\37 be0e6ae-df9d-47f8-8d89-273dcc16f7be{stroke:#222221;}.\37 be0e6ae-df9d-47f8-8d89-273dcc16f7be,.\39 c62a600-5421-43a5-a144-7d3719069e6d,.e00e9da4-95d5-4b4d-9a22-93d14c93608c{stroke-miterlimit:10;}.\39 c62a600-5421-43a5-a144-7d3719069e6d,.e00e9da4-95d5-4b4d-9a22-93d14c93608c{stroke:#1e120d;}.e00e9da4-95d5-4b4d-9a22-93d14c93608c{fill:none;}</style></defs><title>shampoo</title><path class="7be0e6ae-df9d-47f8-8d89-273dcc16f7be" d="M633.3,346.8" transform="translate(-287.9 -105.6)"/><circle class="9c62a600-5421-43a5-a144-7d3719069e6d" cx="629.3" cy="402.2" r="148.3"/><circle class="9c62a600-5421-43a5-a144-7d3719069e6d" cx="742.3" cy="324.1" r="121.4"/><circle class="9c62a600-5421-43a5-a144-7d3719069e6d" cx="472.2" cy="360.4" r="109.8"/><circle class="9c62a600-5421-43a5-a144-7d3719069e6d" cx="732.8" cy="189" r="78.1"/><circle class="9c62a600-5421-43a5-a144-7d3719069e6d" cx="563.5" cy="493.3" r="91.1"/><circle class="9c62a600-5421-43a5-a144-7d3719069e6d" cx="185.7" cy="267.2" r="103.9"/><circle class="9c62a600-5421-43a5-a144-7d3719069e6d" cx="122.7" cy="277.2" r="122.2"/><circle class="9c62a600-5421-43a5-a144-7d3719069e6d" cx="185.7" cy="408" r="112.5"/><circle class="9c62a600-5421-43a5-a144-7d3719069e6d" cx="398.1" cy="244.1" r="101.7"/><circle class="9c62a600-5421-43a5-a144-7d3719069e6d" cx="296.5" cy="360.4" r="92.1"/><circle class="9c62a600-5421-43a5-a144-7d3719069e6d" cx="372.2" cy="46.2" r="45.7"/><circle class="9c62a600-5421-43a5-a144-7d3719069e6d" cx="642.9" cy="222.8" r="45.7"/><circle class="9c62a600-5421-43a5-a144-7d3719069e6d" cx="372.2" cy="445.5" r="45.7"/><circle class="9c62a600-5421-43a5-a144-7d3719069e6d" cx="412.6" cy="550.6" r="22.9"/><circle class="9c62a600-5421-43a5-a144-7d3719069e6d" cx="908" cy="427.4" r="22.9" transform="translate(162.72 1215.07) rotate(-88.09)"/><circle class="9c62a600-5421-43a5-a144-7d3719069e6d" cx="234.1" cy="202.6" r="111.4"/><circle class="9c62a600-5421-43a5-a144-7d3719069e6d" cx="255.8" cy="177.1" r="21.7"/><path class="e00e9da4-95d5-4b4d-9a22-93d14c93608c" d="M712.1,315.2c29.5-13.5,22.2-84,2.4-101.5,13.8,14.6,20.3,23.5,38.7,31.3,4.5,1.9,23,7.9,30-4.5,10.2-18.3,7.6-41.3,6.3-62.4,9.4,24.2,9.6,35.3,23,57.6,9.7,16.2,43,26.1,50.6,22.4-13.8-.3-35,6.8-47.7,18.5s-18.5,33.7-11.5,49.4c-4.9-9.6-11.8-53.5-27.9-55-23.2-2.1-15.1,59.8-15.6,57.4C750.7,290.6,712.9,299.8,712.1,315.2Z" transform="translate(-287.9 -105.6)"/></svg>