<svg id="f6770fd9-cf40-4a59-b2f2-bd7644fdc278" data-name="929a63f3-9ae3-4ac3-aaf2-1ac0400b1715" xmlns="http://www.w3.org/2000/svg" width="747.1" height="348.37" viewBox="0 0 747.1 348.37"><defs><style>.\32 343d47c-6fb6-4bad-9c6c-767f3c5b5623,.aaa927d2-3d2b-4297-8751-097efe0fe720{fill:#fff;}.\32 343d47c-6fb6-4bad-9c6c-767f3c5b5623{stroke:#222221;}.\32 343d47c-6fb6-4bad-9c6c-767f3c5b5623,.\37 11f2e45-efe8-4e25-856f-7982b5400751,.aaa927d2-3d2b-4297-8751-097efe0fe720{stroke-miterlimit:10;}.\37 11f2e45-efe8-4e25-856f-7982b5400751,.aaa927d2-3d2b-4297-8751-097efe0fe720{stroke:#1e120d;}.\37 11f2e45-efe8-4e25-856f-7982b5400751{fill:none;}</style></defs><title>shampoo</title><path class="2343d47c-6fb6-4bad-9c6c-767f3c5b5623" d="M262.8,288.4" transform="translate(-0.5 -112.83)"/><circle class="aaa927d2-3d2b-4297-8751-097efe0fe720" cx="602" cy="206.57" r="91.5"/><circle class="aaa927d2-3d2b-4297-8751-097efe0fe720" cx="671.7" cy="158.37" r="74.9"/><circle class="aaa927d2-3d2b-4297-8751-097efe0fe720" cx="505.1" cy="180.77" r="67.7"/><circle class="aaa927d2-3d2b-4297-8751-097efe0fe720" cx="582" cy="121.97" r="48.2"/><circle class="aaa927d2-3d2b-4297-8751-097efe0fe720" cx="561.4" cy="262.77" r="56.2"/><circle class="aaa927d2-3d2b-4297-8751-097efe0fe720" cx="163.8" cy="191.57" r="64.1"/><circle class="aaa927d2-3d2b-4297-8751-097efe0fe720" cx="75.9" cy="164.77" r="75.4"/><circle class="aaa927d2-3d2b-4297-8751-097efe0fe720" cx="163.8" cy="278.47" r="69.4"/><circle class="aaa927d2-3d2b-4297-8751-097efe0fe720" cx="294.8" cy="177.37" r="62.7"/><circle class="aaa927d2-3d2b-4297-8751-097efe0fe720" cx="239.2" cy="254.57" r="56.8"/><circle class="aaa927d2-3d2b-4297-8751-097efe0fe720" cx="278.8" cy="55.27" r="28.2"/><circle class="aaa927d2-3d2b-4297-8751-097efe0fe720" cx="630.2" cy="31.37" r="28.2"/><circle class="aaa927d2-3d2b-4297-8751-097efe0fe720" cx="631.7" cy="326.27" r="14.1"/><circle class="aaa927d2-3d2b-4297-8751-097efe0fe720" cx="702" cy="197.77" r="14.1"/><circle class="aaa927d2-3d2b-4297-8751-097efe0fe720" cx="193.6" cy="142.57" r="68.7"/><circle class="aaa927d2-3d2b-4297-8751-097efe0fe720" cx="233.2" cy="115.07" r="13.4"/><path class="711f2e45-efe8-4e25-856f-7982b5400751" d="M468.8,200.6c18.2-8.3,13.7-51.8,1.5-62.6,8.5,9,12.5,14.5,23.9,19.3,2.8,1.2,14.2,4.9,18.5-2.8,6.3-11.3,4.7-25.5,3.9-38.5,5.8,14.9,5.9,21.8,14.2,35.5,6,10,26.5,16.1,31.2,13.8-8.5-.2-21.6,4.2-29.4,11.4s-11.4,20.8-7.1,30.5c-3-5.9-7.3-33-17.2-33.9-14.3-1.3-9.3,36.9-9.6,35.4C492.6,185.4,469.3,191.1,468.8,200.6Z" transform="translate(-0.5 -112.83)"/></svg>