<svg id="36b1bd85-8a13-444a-a4f2-de7512093f62" data-name="929a63f3-9ae3-4ac3-aaf2-1ac0400b1715" xmlns="http://www.w3.org/2000/svg" width="719.8" height="291" viewBox="0 0 719.8 291"><defs><style>.d2df62ff-67e7-4be7-9fb0-1b3db16d3c0a,.fd6ecb81-348c-454c-8c6d-0ea8d169efee{fill:#fff;}.\36 2039959-ce8f-4018-9f4f-5f532da9164d,.d2df62ff-67e7-4be7-9fb0-1b3db16d3c0a{stroke:#2c2c2c;}.\36 2039959-ce8f-4018-9f4f-5f532da9164d,.b25ac1df-f0ca-43ab-8137-da34065342b7,.d2df62ff-67e7-4be7-9fb0-1b3db16d3c0a,.f1eb961a-e45e-4bd4-bfa7-fbd8a1729582{stroke-linecap:round;stroke-linejoin:round;}.b25ac1df-f0ca-43ab-8137-da34065342b7,.f1eb961a-e45e-4bd4-bfa7-fbd8a1729582{stroke:#fff;}.\36 2039959-ce8f-4018-9f4f-5f532da9164d,.b25ac1df-f0ca-43ab-8137-da34065342b7{fill:none;}</style></defs><title>shoes</title><polyline class="d2df62ff-67e7-4be7-9fb0-1b3db16d3c0a" points="112.4 160 99.6 179.7 104.6 229 395.3 246.5 565.5 241 719.3 205.7 715.5 152.1 702 145.1"/><polygon class="f1eb961a-e45e-4bd4-bfa7-fbd8a1729582" points="145.7 51.9 113.9 95.2 108.8 165.6 373.4 197.5 614.3 180.5 702 145.1 557 115 403.4 0.5 377.3 29.3 388.9 50.9 271.3 105.6 145.7 51.9"/><polyline class="62039959-ce8f-4018-9f4f-5f532da9164d" points="715.5 152.1 616.3 192.9 370.3 213.2 99.6 179.7"/><polyline class="b25ac1df-f0ca-43ab-8137-da34065342b7" points="385.1 52.7 424.2 53.6 533.1 111.8"/><polyline class="fd6ecb81-348c-454c-8c6d-0ea8d169efee" points="531 95.6 514 116.3 505.4 111.9 521.3 88.4"/><polyline class="fd6ecb81-348c-454c-8c6d-0ea8d169efee" points="509.7 79.7 491 108 481.9 102.2 498.9 71.5"/><polyline class="fd6ecb81-348c-454c-8c6d-0ea8d169efee" points="486.6 62.5 465.1 96.9 455.4 91.2 476.3 54.8"/><polyline class="fd6ecb81-348c-454c-8c6d-0ea8d169efee" points="463.2 45.1 440.7 83.6 431 78 452.3 37"/><polyline class="b25ac1df-f0ca-43ab-8137-da34065342b7" points="350.1 194.3 389.8 151.2 517.6 147.5 557 115"/><polyline class="b25ac1df-f0ca-43ab-8137-da34065342b7" points="124.3 81 184.8 122.3 202.2 174.6"/><polyline class="d2df62ff-67e7-4be7-9fb0-1b3db16d3c0a" points="13.4 204 0.5 223.8 5.6 273 296.3 290.5 466.5 285 620.2 249.7 616.5 196.2 603 189.2"/><polygon class="f1eb961a-e45e-4bd4-bfa7-fbd8a1729582" points="46.6 95.9 14.9 139.3 9.7 209.6 274.4 241.6 515.3 224.5 603 189.2 458 159 304.4 44.5 278.3 73.3 289.8 95 172.3 149.6 46.6 95.9"/><polyline class="62039959-ce8f-4018-9f4f-5f532da9164d" points="616.5 196.2 517.3 236.9 271.3 257.2 0.5 223.8"/><polyline class="b25ac1df-f0ca-43ab-8137-da34065342b7" points="286 96.7 325.2 97.6 434.1 155.8"/><polyline class="fd6ecb81-348c-454c-8c6d-0ea8d169efee" points="431.9 139.6 415.6 157.3 407.4 151.8 422.3 132.5"/><polyline class="fd6ecb81-348c-454c-8c6d-0ea8d169efee" points="410.6 123.7 391.3 148.3 382.9 142.2 400 115.9"/><polyline class="fd6ecb81-348c-454c-8c6d-0ea8d169efee" points="387.6 106.6 365.9 134.8 357.8 129.2 378 99.5"/><polyline class="fd6ecb81-348c-454c-8c6d-0ea8d169efee" points="364.4 89.2 341.8 120.4 332.9 114.8 353.3 81"/><polygon class="fd6ecb81-348c-454c-8c6d-0ea8d169efee" points="304.1 111.5 320.2 111.9 310.1 182.3 302.5 182.1 304.1 111.5"/><polyline class="b25ac1df-f0ca-43ab-8137-da34065342b7" points="251.1 238.3 290.8 195.2 418.6 191.5 458 159"/><polyline class="b25ac1df-f0ca-43ab-8137-da34065342b7" points="25.3 125 85.7 166.3 103.2 218.7"/></svg>