<?xml version="1.0" encoding="utf-8"?>
<!-- Generator: Adobe Illustrator 21.1.0, SVG Export Plug-In . SVG Version: 6.00 Build 0)  -->
<svg version="1.1" id="_x39_29a63f3-9ae3-4ac3-aaf2-1ac0400b1715"
	 xmlns="http://www.w3.org/2000/svg" xmlns:xlink="http://www.w3.org/1999/xlink" x="0px" y="0px" viewBox="0 0 1440 800"
	 style="enable-background:new 0 0 1440 800;" xml:space="preserve">
<style type="text/css">
	.st0{fill:#FFFFFF;stroke:#2C2C2C;stroke-linecap:round;stroke-linejoin:round;stroke-miterlimit:10;}
	.st1{stroke:#FFFFFF;stroke-linecap:round;stroke-linejoin:round;stroke-miterlimit:10;}
	.st2{fill:none;stroke:#2C2C2C;stroke-linecap:round;stroke-linejoin:round;stroke-miterlimit:10;}
	.st3{fill:none;stroke:#FFFFFF;stroke-linecap:round;stroke-linejoin:round;stroke-miterlimit:10;}
	.st4{fill:#FFFFFF;}
</style>
<g>
	<g>
		<polyline class="st0" points="472.5,424.5 459.7,444.2 464.7,493.5 755.4,511 925.6,505.5 1079.4,470.2 1075.6,416.6 
			1062.1,409.6 		"/>
		<polygon class="st1" points="505.8,316.4 474,359.7 468.9,430.1 733.5,462 974.4,445 1062.1,409.6 917.1,379.5 763.5,265 
			737.4,293.8 749,315.4 631.4,370.1 		"/>
		<polyline class="st2" points="1075.6,416.6 976.4,457.4 730.4,477.7 459.7,444.2 		"/>
		<polyline class="st3" points="745.2,317.2 784.3,318.1 893.2,376.3 		"/>
		<polyline class="st4" points="891.1,360.1 874.1,380.8 865.5,376.4 881.4,352.9 		"/>
		<polyline class="st4" points="869.8,344.2 851.1,372.5 842,366.7 859,336 		"/>
		<polyline class="st4" points="846.7,327 825.2,361.4 815.5,355.7 836.4,319.3 		"/>
		<polyline class="st4" points="823.3,309.6 800.8,348.1 791.1,342.5 812.4,301.5 		"/>
		<polyline class="st3" points="710.2,458.8 749.9,415.7 877.7,412 917.1,379.5 		"/>
		<polyline class="st3" points="484.4,345.5 544.9,386.8 562.3,439.1 		"/>
	</g>
	<g>
		<polyline class="st0" points="373.5,468.5 360.6,488.3 365.7,537.5 656.4,555 826.6,549.5 980.3,514.2 976.6,460.7 963.1,453.7 		
			"/>
		<polygon class="st1" points="406.7,360.4 375,403.8 369.8,474.1 634.5,506.1 875.4,489 963.1,453.7 818.1,423.5 664.5,309 
			638.4,337.8 649.9,359.5 532.4,414.1 		"/>
		<polyline class="st2" points="976.6,460.7 877.4,501.4 631.4,521.7 360.6,488.3 		"/>
		<polyline class="st3" points="646.1,361.2 685.3,362.1 794.2,420.3 		"/>
		<polyline class="st4" points="792,404.1 775.7,421.8 767.5,416.3 782.4,397 		"/>
		<polyline class="st4" points="770.7,388.2 751.4,412.8 743,406.7 760.1,380.4 		"/>
		<polyline class="st4" points="747.7,371.1 726,399.3 717.9,393.7 738.1,364 		"/>
		<polyline class="st4" points="724.5,353.7 701.9,384.9 693,379.3 713.4,345.5 		"/>
		<polygon class="st4" points="664.2,376 680.3,376.4 670.2,446.8 662.6,446.6 		"/>
		<polyline class="st3" points="611.2,502.8 650.9,459.7 778.7,456 818.1,423.5 		"/>
		<polyline class="st3" points="385.4,389.5 445.8,430.8 463.3,483.2 		"/>
	</g>
</g>
</svg>
