<svg id="a8979d4b-d318-43bb-b1ff-686595773b66" data-name="929a63f3-9ae3-4ac3-aaf2-1ac0400b1715" xmlns="http://www.w3.org/2000/svg" width="719.4" height="719.4" viewBox="0 0 719.4 719.4"><defs><style>.dde0dd3b-b359-4953-bfe0-82bf71a73346{fill:#fff;stroke:#000;stroke-miterlimit:10;}</style></defs><title>smile</title><path class="dde0dd3b-b359-4953-bfe0-82bf71a73346" d="M720,40.8C521.6,40.8,360.8,201.6,360.8,400S521.6,759.2,720,759.2,1079.2,598.4,1079.2,400,918.4,40.8,720,40.8ZM852.8,147.3c8.6,0,15.6,58.6,15.6,130.9s-7,130.9-15.6,130.9-15.6-58.6-15.6-130.9S844.2,147.3,852.8,147.3Zm-262.9,0c8.6,0,15.6,58.6,15.6,130.9s-7,130.9-15.6,130.9-15.6-58.6-15.6-130.9S581.3,147.3,589.9,147.3Zm415.7,244h-.3l-10.6-.5c-4.1,87.9-35.2,161.8-90,213.6-49.1,46.4-114.4,72.3-183.7,72.5h-1.1c-68.8,0-133.8-25.2-183.1-70.9-55.5-51.3-87.1-125.1-91.7-213.1a7.49,7.49,0,0,1,.2-2.1l-10.9.5h-.3a8,8,0,0,1-8-7.7,8.12,8.12,0,0,1,7.7-8.4l33.1-1.5a8.06,8.06,0,0,1,.7,16.1l-6.7.3a6.46,6.46,0,0,1,.4,2c4.3,83.7,34.3,153.7,86.6,202.2,46.3,43,107.4,66.6,172.2,66.6h1.1c65.2-.3,126.6-24.5,172.8-68.2,51.7-48.8,81.1-119,85-202.7l-6.4-.3a8.06,8.06,0,1,1,.7-16.1l33.1,1.5a7.51,7.51,0,0,1,7.2,8.5A8,8,0,0,1,1005.6,391.3Z" transform="translate(-360.3 -40.3)"/></svg>