<svg id="d18b90de-4474-4c1a-b1d9-b6b34aba0002" data-name="929a63f3-9ae3-4ac3-aaf2-1ac0400b1715" xmlns="http://www.w3.org/2000/svg" width="624.81" height="563.11" viewBox="0 0 624.81 563.11"><defs><style>.\31 3f31c68-e3b5-420d-bea7-7adb37c2750d{fill:#fff;stroke:#000;stroke-miterlimit:10;stroke-width:0.81px;}</style></defs><title>smile</title><ellipse class="13f31c68-e3b5-420d-bea7-7adb37c2750d" cx="174.03" cy="125.61" rx="16.55" ry="125.2"/><ellipse class="13f31c68-e3b5-420d-bea7-7adb37c2750d" cx="453.19" cy="125.61" rx="16.55" ry="125.2"/><path class="13f31c68-e3b5-420d-bea7-7adb37c2750d" d="M678.78,255.45l-35.08-1.57a8.5,8.5,0,1,0-.76,17l6.82.31c-4.15,88.91-35.33,163.32-90.26,215.25C510.45,532.78,445.29,558.47,376,558.75h-1.14c-68.77,0-133.66-25.08-182.81-70.7-55.55-51.55-87.34-125.81-91.93-214.75a8.45,8.45,0,0,0-.4-2.14l7.12-.32a8.5,8.5,0,1,0-.76-17L71,255.45a8.5,8.5,0,0,0,.37,17h.39l11.58-.52a8.48,8.48,0,0,0-.2,2.28C88,367.63,121.65,445.9,180.51,500.52c52.31,48.54,121.29,75.23,194.37,75.23h1.21c73.6-.3,142.89-27.64,195.09-77,58.19-55,91.21-133.43,95.56-226.83l11.28.51h.39a8.5,8.5,0,0,0,.37-17Z" transform="translate(-62.49 -13.04)"/></svg>