<svg id="4f0b9647-2824-4a7c-abd1-4e742c631958" data-name="Layer 1" xmlns="http://www.w3.org/2000/svg" width="465.95" height="411.35" viewBox="0 0 465.95 411.35"><defs><style>.d13e485a-f6fb-437b-924c-df1dd7d4ff6b{fill:#fff;stroke:#000;stroke-miterlimit:10;}</style></defs><title>songs</title><path class="d13e485a-f6fb-437b-924c-df1dd7d4ff6b" d="M862.9,462.3c-.9-2.9-1.6-5.8-2.7-8.6-11.5-28.9-19.5-58.6-15.5-90a73,73,0,0,1,7-23.3c6.1-12.3,17.5-16.1,30.1-10.5,6.1,2.7,12.3,6.3,16.8,11.1,40.1,42.8,57.7,93.5,51.4,152a40.73,40.73,0,0,1-3.3,11.3c-7.1,17.6-21.4,23.2-37.5,13.1-9.4-5.9-17.7-14.1-25.3-22.3-29.3-31.5-61.3-59.6-101.2-77-50.9-22.2-101.8-23.8-152,2.7-2.3,1.2-6.7.8-9-.6-30-18.3-55-42.4-77.9-68.8a10,10,0,0,1-2.3-6.8c0-117.5,137.9-154.5,193.1-146.9,5.2,0,11.6,5.1,15.3,9.6,9.2,11.3,11.7,14.5,18.8,27.2,29.3,52.9,44.9,110.1,50.4,170.2.3,2.8.4,17.5.2,18.9-8.2-5.8-15.3-10.2-15.3-10.2-4.5-31.7-14.8-63-21.8-87.1-1.5-5.1-120.8,47.2-131.3,64.9,85.1-15.3,156,5.3,210.1,73.1C861.5,463.7,862.2,463,862.9,462.3Z" transform="translate(-485.8 -196.25)"/><path class="d13e485a-f6fb-437b-924c-df1dd7d4ff6b" d="M804.1,429c.8,38.9-7.2,75.8-35.7,103.9-28.1,27.7-56.9,46.8-95.6,47.7,0-.5.1-1,.1-1.5,4.3-5,6.6-10.4,6.6-16,0-24.3-43.2-44-96.6-44s-96.6,19.7-96.6,44,43.2,44,96.6,44c29.6,0,56.1-6.1,73.8-15.7,12.4-3.3,24.9-4.2,37.8-6,27.3-3.8,67.9-26.7,91.5-60.7,17.6-25.4,30.4-56.3,32.9-86.5Z" transform="translate(-485.8 -196.25)"/><ellipse cx="621.54" cy="311.8" rx="13.1" ry="44.5" transform="translate(-559.13 141.69) rotate(-28.79)"/><ellipse cx="722.03" cy="264.68" rx="13.1" ry="44.5" transform="translate(-524.01 184.26) rotate(-28.79)"/></svg>