<svg id="c88c0ecc-c74d-47b9-8b9d-7113cd623600" data-name="929a63f3-9ae3-4ac3-aaf2-1ac0400b1715" xmlns="http://www.w3.org/2000/svg" width="467.09" height="657.29" viewBox="0 0 467.09 657.29"><defs><style>.\30 ce7ec5e-be15-4c1d-8dcf-ae12e82261a6,.\31 5f9a741-62b0-4595-b4d1-ca8b0cea1013{fill:#fff;}.de52e711-b6a6-4dc8-a546-02667d36ff5d{fill:none;stroke:#000116;}.\31 5f9a741-62b0-4595-b4d1-ca8b0cea1013,.de52e711-b6a6-4dc8-a546-02667d36ff5d{stroke-miterlimit:10;}.\31 5f9a741-62b0-4595-b4d1-ca8b0cea1013{stroke:#1d1d1b;}</style></defs><title>special</title><path class="0ce7ec5e-be15-4c1d-8dcf-ae12e82261a6" d="M914.9,222.1c-57.8-26-101-76.1-142.6-149.5-46.9,51.2-85.2,51.2-132,0-41.6,73.3-84.7,123.5-142.6,149.5,18,91.5,19.1,157.4-7.9,227.4,47.3,30.6,67.1,63.9,56.5,129.4,41.9-9,58.1,11.8,54.4,78.6,34.3-26.5,46.1-9.9,55.1,64.6,28.3-40.9,61.1-38.7,88.4,5.6,15.1-75.1,32.8-95.8,69.4-72.5-4.5-65.9,11.1-86.1,52.7-76.4-10.6-65.4,9.2-98.7,56.5-129.4C895.8,379.5,896.9,313.6,914.9,222.1Z" transform="translate(-476.75 -71.75)"/><path class="de52e711-b6a6-4dc8-a546-02667d36ff5d" d="M914.9,222.1c-57.8-26-101-76.1-142.6-149.5-46.9,51.2-85.2,51.2-132,0-41.6,73.3-84.7,123.5-142.6,149.5,18,91.5,19.1,157.4-7.9,227.4,47.3,30.6,67.1,63.9,56.5,129.4,41.9-9,58.1,11.8,54.4,78.6,34.3-26.5,46.1-9.9,55.1,64.6,28.3-40.9,61.1-38.7,88.4,5.6,15.1-75.1,32.8-95.8,69.4-72.5-4.5-65.9,11.1-86.1,52.7-76.4-10.6-65.4,9.2-98.7,56.5-129.4C895.8,379.5,896.9,313.6,914.9,222.1Z" transform="translate(-476.75 -71.75)"/><path class="0ce7ec5e-be15-4c1d-8dcf-ae12e82261a6" d="M687.6,390.4c-13-9-9.7-13.6,9.8-17.3-101-29.6-171.5-34.3-218.5-40.3,18.3,12.1,18.1,19.5-.4,26.9,20.5,4.1,21.6,7.6,3.9,12.7C529.7,369.6,602.6,369.4,687.6,390.4Z" transform="translate(-476.75 -71.75)"/><path class="de52e711-b6a6-4dc8-a546-02667d36ff5d" d="M687.6,390.4c-13-9-9.7-13.6,9.8-17.3-101-29.6-171.5-34.3-218.5-40.3,18.3,12.1,18.1,19.5-.4,26.9,20.5,4.1,21.6,7.6,3.9,12.7C529.7,369.6,602.6,369.4,687.6,390.4Z" transform="translate(-476.75 -71.75)"/><path class="15f9a741-62b0-4595-b4d1-ca8b0cea1013" d="M665.5,365.4c-16.3-13-34.4-14.6-33.6-20-12.2,1.8-15.1,1.5-10.5-2.5-24.2-1.7-41.3-5.6-62.5-14.2-7.9,3.8-33.8-2.7-56.6,3.7,6,16,5.6,36.3,5.3,47.1,20,.3,27-.3,25.7,6.1,18.7-2.1,28.8-.4,37.4,6.7,11.2-4.7,22.5-2.7,36.9,3.7,11.5-6.7,34.4-6.5,53.4-13.1Z" transform="translate(-476.75 -71.75)"/><path class="0ce7ec5e-be15-4c1d-8dcf-ae12e82261a6" d="M659.9,333.3c-25.9-9.8-40.2-17.3-50.9-29-28.6-6.7-59.8-15.9-100.2-8.8,1.9,13.1-7,25-30,40.3,47.1,0,117.6,4.7,218.5,40.3C676.5,355.2,656.3,339.9,659.9,333.3Z" transform="translate(-476.75 -71.75)"/><path class="de52e711-b6a6-4dc8-a546-02667d36ff5d" d="M659.9,333.3c-25.9-9.8-40.2-17.3-50.9-29-28.6-6.7-59.8-15.9-100.2-8.8,1.9,13.1-7,25-30,40.3,47.1,0,117.6,4.7,218.5,40.3C676.5,355.2,656.3,339.9,659.9,333.3Z" transform="translate(-476.75 -71.75)"/><path class="0ce7ec5e-be15-4c1d-8dcf-ae12e82261a6" d="M482.8,369.5c23.6,14.7,32.7,22.4,30.2,29.4,21.8,2.8,31.4,5.5,33.7,10.6,30,.4,53.5-3.1,84.5-4.4,1-4.3,25.3-7.9,56.6-17.6C602.4,372.2,529.5,372.5,482.8,369.5Z" transform="translate(-476.75 -71.75)"/><path class="de52e711-b6a6-4dc8-a546-02667d36ff5d" d="M482.8,369.5c23.6,14.7,32.7,22.4,30.2,29.4,21.8,2.8,31.4,5.5,33.7,10.6,30,.4,53.5-3.1,84.5-4.4,1-4.3,25.3-7.9,56.6-17.6C602.4,372.2,529.5,372.5,482.8,369.5Z" transform="translate(-476.75 -71.75)"/><path class="0ce7ec5e-be15-4c1d-8dcf-ae12e82261a6" d="M581.3,196.4c35.2-1.9,193.1-1,221.9,0-10.7.3-2.5-1.1,27-2.1" transform="translate(-476.75 -71.75)"/><path class="de52e711-b6a6-4dc8-a546-02667d36ff5d" d="M581.3,196.4c35.2-1.9,193.1-1,221.9,0-10.7.3-2.5-1.1,27-2.1" transform="translate(-476.75 -71.75)"/><path class="de52e711-b6a6-4dc8-a546-02667d36ff5d" d="M609.1,209.6c35.9-6,54.9-4.5,69.5-4.4,22,.7,39.4-.1,63.8,0,7.7.7,24.5,4.2,56.1.8" transform="translate(-476.75 -71.75)"/><path class="de52e711-b6a6-4dc8-a546-02667d36ff5d" d="M629.1,185.4c40.7-2.6,68.4-3.2,101.2-2,6.7.6,18.8,1.5,43.8-.4" transform="translate(-476.75 -71.75)"/><path class="de52e711-b6a6-4dc8-a546-02667d36ff5d" d="M486,326.8c29.4.9,98.2,11.4,125.3,17.4" transform="translate(-476.75 -71.75)"/><path class="de52e711-b6a6-4dc8-a546-02667d36ff5d" d="M523.2,376.8c81.5,4.5,113,10.8,155,16" transform="translate(-476.75 -71.75)"/><path class="de52e711-b6a6-4dc8-a546-02667d36ff5d" d="M498.1,298.5c28.5-30.2,72.6-18.9,107.5-7" transform="translate(-476.75 -71.75)"/><path class="de52e711-b6a6-4dc8-a546-02667d36ff5d" d="M545.8,428.5c31.5-.9,59-1.4,75.8-2,24.4-9.7,46.8-22.4,78.4-44.4" transform="translate(-476.75 -71.75)"/><path class="0ce7ec5e-be15-4c1d-8dcf-ae12e82261a6" d="M733,390.4c13-9,9.7-13.6-9.8-17.3,101-29.6,171.5-34.3,218.5-40.3-18.3,12.1-18.1,19.5.4,26.9-20.5,4.1-21.6,7.6-3.9,12.7C890.9,369.6,818,369.4,733,390.4Z" transform="translate(-476.75 -71.75)"/><path class="de52e711-b6a6-4dc8-a546-02667d36ff5d" d="M733,390.4c13-9,9.7-13.6-9.8-17.3,101-29.6,171.5-34.3,218.5-40.3-18.3,12.1-18.1,19.5.4,26.9-20.5,4.1-21.6,7.6-3.9,12.7C890.9,369.6,818,369.4,733,390.4Z" transform="translate(-476.75 -71.75)"/><path class="de52e711-b6a6-4dc8-a546-02667d36ff5d" d="M753.1,366c17.2-13.1,29.4-14.7,28.5-20.1,12.9,1.7,15.9,1.5,11.1-2.5,25.5-1.8,43.6-5.8,66-14.4,8.4,3.8,35.7-2.8,59.7,3.5-6.4,16-6,36.3-5.8,47.1-21.1.4-28.5-.2-27.1,6.2-19.7-2.1-30.4-.3-39.4,6.9-11.8-4.7-23.7-2.7-39,3.8-12.2-6.6-40.1-9.5-50.3-13.4Z" transform="translate(-476.75 -71.75)"/><path class="0ce7ec5e-be15-4c1d-8dcf-ae12e82261a6" d="M760.7,333.3c25.9-9.8,40.2-17.3,50.9-29,28.6-6.7,59.8-15.9,100.2-8.8-1.9,13.1,7,25,30,40.3-47.1,0-117.6,4.7-218.5,40.3C744.1,355.2,764.4,339.9,760.7,333.3Z" transform="translate(-476.75 -71.75)"/><path class="de52e711-b6a6-4dc8-a546-02667d36ff5d" d="M760.7,333.3c25.9-9.8,40.2-17.3,50.9-29,28.6-6.7,59.8-15.9,100.2-8.8-1.9,13.1,7,25,30,40.3-47.1,0-117.6,4.7-218.5,40.3C744.1,355.2,764.4,339.9,760.7,333.3Z" transform="translate(-476.75 -71.75)"/><path class="0ce7ec5e-be15-4c1d-8dcf-ae12e82261a6" d="M937.8,369.5c-23.6,14.7-32.7,22.4-30.2,29.4-21.8,2.8-31.4,5.5-33.7,10.6-30,.4-53.5-3.1-84.5-4.4-1-4.3-25.3-7.9-56.6-17.6C818.2,372.2,891.2,372.5,937.8,369.5Z" transform="translate(-476.75 -71.75)"/><path class="de52e711-b6a6-4dc8-a546-02667d36ff5d" d="M937.8,369.5c-23.6,14.7-32.7,22.4-30.2,29.4-21.8,2.8-31.4,5.5-33.7,10.6-30,.4-53.5-3.1-84.5-4.4-1-4.3-25.3-7.9-56.6-17.6C818.2,372.2,891.2,372.5,937.8,369.5Z" transform="translate(-476.75 -71.75)"/><path class="de52e711-b6a6-4dc8-a546-02667d36ff5d" d="M934.6,326.8c-29.4.9-98.2,11.4-125.3,17.4" transform="translate(-476.75 -71.75)"/><path class="de52e711-b6a6-4dc8-a546-02667d36ff5d" d="M897.4,376.8c-81.5,4.5-113,10.8-155,16" transform="translate(-476.75 -71.75)"/><path class="de52e711-b6a6-4dc8-a546-02667d36ff5d" d="M922.5,298.5c-28.5-30.2-72.6-18.9-107.5-7" transform="translate(-476.75 -71.75)"/><path class="de52e711-b6a6-4dc8-a546-02667d36ff5d" d="M874.9,428.5c-31.5-.9-59-1.4-75.8-2-24.4-9.7-46.8-22.4-78.4-44.4" transform="translate(-476.75 -71.75)"/><path class="de52e711-b6a6-4dc8-a546-02667d36ff5d" d="M690.4,486.7c.7-2.6,7.3-26.2,8.1-28.8" transform="translate(-476.75 -71.75)"/><path class="de52e711-b6a6-4dc8-a546-02667d36ff5d" d="M715.8,457.9c.6,2.6,5.8,26.2,6.4,28.8" transform="translate(-476.75 -71.75)"/><ellipse class="de52e711-b6a6-4dc8-a546-02667d36ff5d" cx="233.55" cy="531.65" rx="56.4" ry="11.5"/></svg>