<svg id="a95ce38b-bf4e-4d9a-ac71-6abd167325f4" data-name="929a63f3-9ae3-4ac3-aaf2-1ac0400b1715" xmlns="http://www.w3.org/2000/svg" width="794.63" height="542.87" viewBox="0 0 794.63 542.87"><defs><style>.\34 7167298-2b4c-4a7f-9ab0-41e06ae327e9,.\39 dfe2120-30a5-41b2-a6ae-4d49c4657403{fill:#fff;}.\31 e6861d6-ac31-4a7b-92e1-276623e5deb3,.\34 7167298-2b4c-4a7f-9ab0-41e06ae327e9,.\35 3443d38-d159-4d84-968b-c7e5b632dd54,.\39 dfe2120-30a5-41b2-a6ae-4d49c4657403{stroke:#000;}.\31 e6861d6-ac31-4a7b-92e1-276623e5deb3,.\35 3443d38-d159-4d84-968b-c7e5b632dd54{fill:none;}.\35 3443d38-d159-4d84-968b-c7e5b632dd54{stroke-width:8px;}.\34 7167298-2b4c-4a7f-9ab0-41e06ae327e9{stroke-width:2px;}</style></defs><title>sport</title><path class="9dfe2120-30a5-41b2-a6ae-4d49c4657403" d="M665,391.8C650.2,493.3,564.4,543.2,473.5,503.2S320.8,348.5,335.6,247,436.2,95.6,527.1,135.6,679.9,290.3,665,391.8Z" transform="translate(-332.91 -121.3)"/><path class="53443d38-d159-4d84-968b-c7e5b632dd54" d="M558.6,162.7C542.2,275,447.4,330.1,346.7,285.9" transform="translate(-332.91 -121.3)"/><path class="53443d38-d159-4d84-968b-c7e5b632dd54" d="M442.8,479C459.2,366.7,554,311.6,654.7,355.8" transform="translate(-332.91 -121.3)"/><line class="53443d38-d159-4d84-968b-c7e5b632dd54" x1="39.39" y1="276.2" x2="297.29" y2="125.5"/><line class="53443d38-d159-4d84-968b-c7e5b632dd54" x1="262.09" y1="372.7" x2="71.99" y2="24.8"/><path class="9dfe2120-30a5-41b2-a6ae-4d49c4657403" d="M847,231.2c43.9-12.7,87.7-5.4,97.7,16.4s-17.5,49.8-61.4,62.6-87.7,5.4-97.7-16.4S803.1,243.9,847,231.2Z" transform="translate(-332.91 -121.3)"/><path class="9dfe2120-30a5-41b2-a6ae-4d49c4657403" d="M831.3,312.3c13.8-30.5,59.3-45.3,101.5-33.1" transform="translate(-332.91 -121.3)"/><path class="9dfe2120-30a5-41b2-a6ae-4d49c4657403" d="M903.1,229.4c-13.8,30.5-59.3,45.3-101.5,33.1" transform="translate(-332.91 -121.3)"/><path class="47167298-2b4c-4a7f-9ab0-41e06ae327e9" d="M805.2,611.7c-94.6-58.1-119.8-142.5-56.3-188.5S940.6,387,1035.2,445s119.8,142.5,56.3,188.5S899.8,669.8,805.2,611.7Z" transform="translate(-332.91 -121.3)"/><path class="9dfe2120-30a5-41b2-a6ae-4d49c4657403" d="M1067,601.8l44.8-21.2,13,5.3c10-44.7-22.1-99.4-89.5-140.8a329.85,329.85,0,0,0-39.5-20.7L977,442l-48.2-7.8-19.7-34.8.9-.8c-62.8-10.5-123.3-2.8-161.1,24.5-.9.6-1.7,1.3-2.5,1.9l32.9,17.9-1.7,43.4-51.2,16.5-12-6.5c4.3,38.9,35.8,81.5,90.8,115.3A346.75,346.75,0,0,0,882,646.3l35.5-11.5,47.4,25.8v1.2c41.1,2.5,79.6-3.3,109-17.9l-.6-.2Z" transform="translate(-332.91 -121.3)"/><path d="M777.5,486.4l1.7-43.4-32.8-18c-24.8,19.1-35,44.3-32,71.3l12,6.5Z" transform="translate(-332.91 -121.3)"/><path d="M917.5,634.9,882,646.4A351.61,351.61,0,0,0,964.9,662v-1.2Z" transform="translate(-332.91 -121.3)"/><path d="M1124.8,585.8l-13-5.3L1067,601.8l6.4,42,.6.2a122.13,122.13,0,0,0,17.6-10.5C1109.8,620.3,1120.7,603.9,1124.8,585.8Z" transform="translate(-332.91 -121.3)"/><path d="M928.7,434.3,977,442l18.7-17.8A358.52,358.52,0,0,0,910,398.5l-.9.8Z" transform="translate(-332.91 -121.3)"/><polygon points="652.79 454.2 583.09 476.7 515.69 440 517.99 380.8 587.69 358.3 655.09 395 652.79 454.2"/><path class="1e6861d6-ac31-4a7b-92e1-276623e5deb3" d="M675.5,540.7q14.4,61.05,22.9,123.4" transform="translate(-332.91 -121.3)"/><path class="1e6861d6-ac31-4a7b-92e1-276623e5deb3" d="M578.4,546.3a242.59,242.59,0,0,1-161.6,55.6" transform="translate(-332.91 -121.3)"/><path class="1e6861d6-ac31-4a7b-92e1-276623e5deb3" d="M707.8,329.6q27.45-58.95,54.8-117.9" transform="translate(-332.91 -121.3)"/><path class="1e6861d6-ac31-4a7b-92e1-276623e5deb3" d="M822.7,353.2c73.4-2.2,220.2,3.5,220.2,3.5" transform="translate(-332.91 -121.3)"/></svg>