<svg id="567f33ad-6569-4eb2-809d-0fa8f91f0890" data-name="929a63f3-9ae3-4ac3-aaf2-1ac0400b1715" xmlns="http://www.w3.org/2000/svg" width="728.51" height="179.02" viewBox="0 0 728.51 179.02"><defs><style>.\35 ed24518-f3bf-4437-8c18-b19cf5fcd09e{fill:#1d1d1b;}.\37 bbeabac-b4c5-42a4-b73a-fba5cf4508e4{fill:none;}</style></defs><title>stutter</title><path class="5ed24518-f3bf-4437-8c18-b19cf5fcd09e" d="M71.8,287.77c1,.24,0,3,1,3.28s2.54-1.3,3.45-1,5.13-4.24,6-3.92-3,6-2.15,6.37,9.59-7.73,10.41-7.34,2.58.33,3.37.75-3.53,5.2-2.77,5.66,4-.87,4.69-.38,4.88-1,5.55-.48,7.06-1.66,7.68-1.11-5.2,4.75-4.63,5.33-16.1,8.43-15.58,9,16.57-5.06,17-4.44-1.83,2.2-1.41,2.83,5.1.07,5.48.72,7.79-.25,8.12.41-14.54,4.78-14.25,5.45,14.28-1.21,14.53-.53-9.16,3-8.94,3.71,7.19.5,7.37,1.19-18.06,3.38-17.91,4.07,14.94-.07,15.06.62-14.06,2.31-14,3,18.79.33,18.86,1S98,324.1,98,324.8s19.72.9,19.74,1.6.42,1.46.42,2.16-3,1.45-3.05,2.14,8.59,1.74,8.54,2.43-23.27.41-23.34,1.1,25.27,3,25.16,3.64-6,1.14-6.17,1.82-8.25.68-8.41,1.36-12.92-.23-13.1.45,10.79,2.78,10.58,3.45,6.83,2.59,6.58,3.26-6.88.25-7.16.91,1.05,1.7.74,2.35-13.14-1.76-13.48-1.11,9.33,3.79,8.95,4.43-11.87-2.22-12.28-1.6,4.1,2.57,3.65,3.17,3,2.5,2.51,3.09.52,1.75,0,2.32,7.82,5.54,7.23,6.1-6.78-1.52-7.41-1-8.36-3.31-9-2.81-3-.7-3.76-.23,8.75,9,8,9.46-2.85.18-3.69.56,0,3.53-.88,3.86S86,379,85.08,379.25s-1.81,2.87-2.78,3.07-2.88,1.63-3.88,1.77-3.51-.37-4.52-.3S70.62,368,69.6,368s-2.68,11.41-3.69,11.34.74-12.37-.25-12.5-5.43,10.28-6.41,10.08,2.34-8.44,1.39-8.7-4.25,3.68-5.16,3.35-6.38,4.41-7.25,4-5.55,2-6.37,1.58-.2-2.95-1-3.42,13.89-11.88,13.17-12.39-3.39.88-4.06.34-6.89,2.32-7.52,1.76,3.7-3.35,3.11-3.93-1.86-.56-2.4-1.16,4.2-3,3.7-3.6-11.79,2.92-12.25,2.29-8.53,1.17-9,.53-3.95-.59-4.35-1.24-3.15-.94-3.52-1.59S36,348.64,35.61,348s-5.56-.13-5.87-.8-7,0-7.31-.72,15.5-4.33,15.24-5-23,2.48-23.22,1.8,5.34-2.4,5.13-3.09-7.82-.5-8-1.19,16-3.47,15.83-4.16-16.61.31-16.76-.38,20.6-3.4,20.47-4.1,1.31-1.41,1.2-2.1-13.87-2.82-14-3.52c.78-.85,10.9,4.73,11.92,4s-7.38-6.35-6.36-7.07,12.21,6.77,13.24,6.06-3.27-3.59-2.24-4.31,9.24,4.78,10.27,4.06-10.26-7.83-8.94-8.28c.08.71.37.34.47,1s-9.56,2.16-9.45,2.85,23.46-.55,23.59.14-6.14,1.88-6,2.57-3.64,1.76-3.47,2.44-3.5,1.86-3.31,2.54,1.71,1.2,1.93,1.88,11.73-.56,12,.11-19.94,5.05-19.67,5.72,5.56.48,5.87,1.14,2.2,1.05,2.54,1.71-11,4.67-10.67,5.31,14-2.36,14.39-1.74.69,1.36,1.16,2,1.59,1,2.12,1.6,1.62.92,2.21,1.48-12.24,8.94-11.59,9.46,3.26,1.29,4,1.77,21.32-14.65,22.11-14.23-6.22,7.48-5.35,7.84,4.74-4.57,5.67-4.29-1.07,4.22-.08,4.41-.12,8.19.91,8.28,3-.17,4-.17,1.27-8.93,2.27-9,2.18,2.34,3.16,2.16-.28-3.34.67-3.62,11.17,11.16,12.06,10.79-7.09-10-6.28-10.43-5.18-5-4.45-5.5,7.91,3.68,8.56,3.11,10.9,3.43,11.47,2.82-10-5.79-9.46-6.42-1.38-1.7-1-2.36,4-.15,4.38-.82-4-2.14-3.69-2.83-2.12-1.48-1.88-2.17-4.59-1.63-4.39-2.33,22.38,1.18,22.52.47-17.73-2.7-17.64-3.41,21.1-.43,21.14-1.15-24.3-1.69-24.3-2.41,1.79-1.09,1.75-1.76S85,327,85,326.38s3.53-1.3,3.42-2,5-1.65,4.82-2.32,2.76-1.68,2.56-2.34,4.88-2.34,4.62-3,5.61-3,5.28-3.68-10.7,1-11.09.43-16.24,4.28-16.7,3.68,3.18-1.93,2.64-2.5,15.37-8.92,14.77-9.46-15.18,7-15.86,6.54,4-4.07,3.24-4.54,5.84-6.95,5.05-7.37-5.81,2.73-6.64,2.34-10.13,9-11,8.64,5.34-8.77,4.44-9.09-1.18-1.38-2.1-1.67,0-3.73-.9-4-2.89,1.13-3.84.9-4.64,4.42-5.57,4.16,7-14.11,6.12-14.4-1.21-.09-2.1-.41-13.2,13.54-14.06,13.19,5.92-8.91,5.1-9.3-9.76,6.84-10.55,6.42-1.3-1.52-2.06-2S43,293.48,42.25,293s-1.1-1.5-1.77-2-1.79-1-2.42-1.59-1.72-1.12-2.31-1.68-5.14.32-5.67-.27,5.24-4,4.75-4.61,4.2-3,3.75-3.67-4-.21-4.39-.85-13.56,2-13.91,1.34S41.51,273,41.2,272.38s-21.57,3-21.84,2.31,22.93-5.5,22.7-6.18-4.68-.46-4.88-1.15-3.1-.87-3.27-1.56-.56-1.24-.69-1.93,3.47-1.54,3.37-2.23-7.8-.83-7.88-1.52,15.38-1.87,15.33-2.57-26.6-.69-26.63-1.38,15.5-1.54,15.5-2.24-9.48-1.48-9.45-2.16-10.37-1.89-10.31-2.57,19.14-.57,19.22-1.25-13.72-2.43-13.6-3.11,5.64-1.05,5.78-1.73-4.46-2.1-4.28-2.77,15.06.65,15.28,0-5.37-2.28-5.12-2.93,4.91-.44,5.2-1.09,1-1.11,1.36-1.75,1-1.09,1.35-1.72,1.53-.88,1.95-1.5-9.52-4.81-9.05-5.41-7.13-4.85-6.61-5.43,23,8.34,23.53,7.79S32.31,218.53,32.92,218s7.12,1.83,7.78,1.33,10.44,5.25,11.16,4.78-8.75-8.91-8-9.34.38-2.83,1.21-3.21,12.12,11.18,13,10.85,3.22,3.49,4.14,3.22-4.15-10.1-3.19-10.3-.08-6.84.91-7,2.4-3.2,3.4-3.27,3.22,10.84,4.23,10.84,2.85-7.27,3.87-7.19-1.78,14.85-.77,15,3-5,3.93-4.74-.94,3.68,0,4-1,2.35-.09,2.71S92.16,209.39,93,209.8s-16.11,16.52-15.31,17,3.47-1.55,4.22-1,2.36-.26,3.06.28,11.85-5.06,12.49-4.49-8,5.73-7.39,6.32-5.24,3.61-4.69,4.22,4.76-.73,5.28-.1,16.16-4.32,16.64-3.68-11.22,5.28-10.78,5.93-6.85,3.31-6.45,4,3.59.24,4,.91-3.4,2-3.06,2.71,2.46.64,2.77,1.33-1.77,1.54-1.49,2.23,16.54-1.66,16.79-1-.38,1.53-.15,2.22,0,1.45.18,2.15-2.12.44-1.93,1.14c-.67.86,2.8,2.39,1.86,3.12s4.93,4.26,4,5-18.42-9.75-19.36-9,10.84,7.81,9.89,8.54.16,1.4-.79,2.14-6.37-4.55-7.62-4.07c-.18-.7,14.92,1.07,14.72.4s-4.07-1-4.28-1.69-.63-1.49-.87-2.16S81,255,80.73,254.39s5-2.21,4.74-2.86-2.31-.7-2.64-1.35,24.08-7.62,23.72-8.25-7.3.19-7.7-.43,6.54-4.09,6.1-4.7-5.2-.3-5.7-.9-2-1.4-2.57-2-12.16,3.92-12.77,3.38,10.62-8.46,10-9-20.11,12-20.85,11.59,1.83-2.43,1-2.82-1.1.28-2,0,.78-2.86-.19-3.07-.33-3.54-1.34-3.65-1.86-3.31-2.9-3.31-3.2-3.55-4.19-3.46-4.77-3.5-5.74-3.32,8,19.9,7.11,20.17S49.59,223.33,48.72,223.7s-1.41,3.07-2.2,3.52-4.08.61-4.78,1.13,11.39,8.73,10.77,9.3-3.71-.22-4.23.4,8,4,7.55,4.62S42,240.06,41.61,240.73s-11.87-.64-12.15.05,2.62,2.49,2.41,3.19,20.67,4,20.51,4.66-11.39.31-11.49,1-14.75,1-14.8,1.71,3.16,1.87,3.16,2.58,13.45,1.39,13.49,2.07,4.94,1.08,5,1.76-2.57,1.48-2.42,2.16-3.4,1.83-3.19,2.5-7.66,3-7.38,3.7,25.08-4.38,25.43-3.74-3.42,1.65-3,2.28-18.64,8.18-18.14,8.78S49.4,270.93,50,271.5s8.06-2.87,8.71-2.33-15.29,11.54-14.57,12,10.86-5.44,11.63-5,3-.45,3.79,0-6.43,9.09-5.57,9.47,12.9-11.79,13.8-11.44-9.5,15.25-8.58,15.56,8-7.73,8.91-7.44,4.41-3.8,5.37-3.54S70.83,287.53,71.8,287.77Z" transform="translate(-10.65 -205.09)"/><path class="7bbeabac-b4c5-42a4-b73a-fba5cf4508e4" d="M71.8,287.77c1,.24,0,3,1,3.28s2.54-1.3,3.45-1,5.13-4.24,6-3.92-3,6-2.15,6.37,9.59-7.73,10.41-7.34,2.58.33,3.37.75-3.53,5.2-2.77,5.66,4-.87,4.69-.38,4.88-1,5.55-.48,7.06-1.66,7.68-1.11-5.2,4.75-4.63,5.33-16.1,8.43-15.58,9,16.57-5.06,17-4.44-1.83,2.2-1.41,2.83,5.1.07,5.48.72,7.79-.25,8.12.41-14.54,4.78-14.25,5.45,14.28-1.21,14.53-.53-9.16,3-8.94,3.71,7.19.5,7.37,1.19-18.06,3.38-17.91,4.07,14.94-.07,15.06.62-14.06,2.31-14,3,18.79.33,18.86,1S98,324.1,98,324.8s19.72.9,19.74,1.6.42,1.46.42,2.16-3,1.45-3.05,2.14,8.59,1.74,8.54,2.43-23.27.41-23.34,1.1,25.27,3,25.16,3.64-6,1.14-6.17,1.82-8.25.68-8.41,1.36-12.92-.23-13.1.45,10.79,2.78,10.58,3.45,6.83,2.59,6.58,3.26-6.88.25-7.16.91,1.05,1.7.74,2.35-13.14-1.76-13.48-1.11,9.33,3.79,8.95,4.43-11.87-2.22-12.28-1.6,4.1,2.57,3.65,3.17,3,2.5,2.51,3.09.52,1.75,0,2.32,7.82,5.54,7.23,6.1-6.78-1.52-7.41-1-8.36-3.31-9-2.81-3-.7-3.76-.23,8.75,9,8,9.46-2.85.18-3.69.56,0,3.53-.88,3.86S86,379,85.08,379.25s-1.81,2.87-2.78,3.07-2.88,1.63-3.88,1.77-3.51-.37-4.52-.3S70.62,368,69.6,368s-2.68,11.41-3.69,11.34.74-12.37-.25-12.5-5.43,10.28-6.41,10.08,2.34-8.44,1.39-8.7-4.25,3.68-5.16,3.35-6.38,4.41-7.25,4-5.55,2-6.37,1.58-.2-2.95-1-3.42,13.89-11.88,13.17-12.39-3.39.88-4.06.34-6.89,2.32-7.52,1.76,3.7-3.35,3.11-3.93-1.86-.56-2.4-1.16,4.2-3,3.7-3.6-11.79,2.92-12.25,2.29-8.53,1.17-9,.53-3.95-.59-4.35-1.24-3.15-.94-3.52-1.59S36,348.64,35.61,348s-5.56-.13-5.87-.8-7,0-7.31-.72,15.5-4.33,15.24-5-23,2.48-23.22,1.8,5.34-2.4,5.13-3.09-7.82-.5-8-1.19,16-3.47,15.83-4.16-16.61.31-16.76-.38,20.6-3.4,20.47-4.1,1.31-1.41,1.2-2.1-13.87-2.82-14-3.52c.78-.85,10.9,4.73,11.92,4s-7.38-6.35-6.36-7.07,12.21,6.77,13.24,6.06-3.27-3.59-2.24-4.31,9.24,4.78,10.27,4.06-10.26-7.83-8.94-8.28c.08.71.37.34.47,1s-9.56,2.16-9.45,2.85,23.46-.55,23.59.14-6.14,1.88-6,2.57-3.64,1.76-3.47,2.44-3.5,1.86-3.31,2.54,1.71,1.2,1.93,1.88,11.73-.56,12,.11-19.94,5.05-19.67,5.72,5.56.48,5.87,1.14,2.2,1.05,2.54,1.71-11,4.67-10.67,5.31,14-2.36,14.39-1.74.69,1.36,1.16,2,1.59,1,2.12,1.6,1.62.92,2.21,1.48-12.24,8.94-11.59,9.46,3.26,1.29,4,1.77,21.32-14.65,22.11-14.23-6.22,7.48-5.35,7.84,4.74-4.57,5.67-4.29-1.07,4.22-.08,4.41-.12,8.19.91,8.28,3-.17,4-.17,1.27-8.93,2.27-9,2.18,2.34,3.16,2.16-.28-3.34.67-3.62,11.17,11.16,12.06,10.79-7.09-10-6.28-10.43-5.18-5-4.45-5.5,7.91,3.68,8.56,3.11,10.9,3.43,11.47,2.82-10-5.79-9.46-6.42-1.38-1.7-1-2.36,4-.15,4.38-.82-4-2.14-3.69-2.83-2.12-1.48-1.88-2.17-4.59-1.63-4.39-2.33,22.38,1.18,22.52.47-17.73-2.7-17.64-3.41,21.1-.43,21.14-1.15-24.3-1.69-24.3-2.41,1.79-1.09,1.75-1.76S85,327,85,326.38s3.53-1.3,3.42-2,5-1.65,4.82-2.32,2.76-1.68,2.56-2.34,4.88-2.34,4.62-3,5.61-3,5.28-3.68-10.7,1-11.09.43-16.24,4.28-16.7,3.68,3.18-1.93,2.64-2.5,15.37-8.92,14.77-9.46-15.18,7-15.86,6.54,4-4.07,3.24-4.54,5.84-6.95,5.05-7.37-5.81,2.73-6.64,2.34-10.13,9-11,8.64,5.34-8.77,4.44-9.09-1.18-1.38-2.1-1.67,0-3.73-.9-4-2.89,1.13-3.84.9-4.64,4.42-5.57,4.16,7-14.11,6.12-14.4-1.21-.09-2.1-.41-13.2,13.54-14.06,13.19,5.92-8.91,5.1-9.3-9.76,6.84-10.55,6.42-1.3-1.52-2.06-2S43,293.48,42.25,293s-1.1-1.5-1.77-2-1.79-1-2.42-1.59-1.72-1.12-2.31-1.68-5.14.32-5.67-.27,5.24-4,4.75-4.61,4.2-3,3.75-3.67-4-.21-4.39-.85-13.56,2-13.91,1.34S41.51,273,41.2,272.38s-21.57,3-21.84,2.31,22.93-5.5,22.7-6.18-4.68-.46-4.88-1.15-3.1-.87-3.27-1.56-.56-1.24-.69-1.93,3.47-1.54,3.37-2.23-7.8-.83-7.88-1.52,15.38-1.87,15.33-2.57-26.6-.69-26.63-1.38,15.5-1.54,15.5-2.24-9.48-1.48-9.45-2.16-10.37-1.89-10.31-2.57,19.14-.57,19.22-1.25-13.72-2.43-13.6-3.11,5.64-1.05,5.78-1.73-4.46-2.1-4.28-2.77,15.06.65,15.28,0-5.37-2.28-5.12-2.93,4.91-.44,5.2-1.09,1-1.11,1.36-1.75,1-1.09,1.35-1.72,1.53-.88,1.95-1.5-9.52-4.81-9.05-5.41-7.13-4.85-6.61-5.43,23,8.34,23.53,7.79S32.31,218.53,32.92,218s7.12,1.83,7.78,1.33,10.44,5.25,11.16,4.78-8.75-8.91-8-9.34.38-2.83,1.21-3.21,12.12,11.18,13,10.85,3.22,3.49,4.14,3.22-4.15-10.1-3.19-10.3-.08-6.84.91-7,2.4-3.2,3.4-3.27,3.22,10.84,4.23,10.84,2.85-7.27,3.87-7.19-1.78,14.85-.77,15,3-5,3.93-4.74-.94,3.68,0,4-1,2.35-.09,2.71S92.16,209.39,93,209.8s-16.11,16.52-15.31,17,3.47-1.55,4.22-1,2.36-.26,3.06.28,11.85-5.06,12.49-4.49-8,5.73-7.39,6.32-5.24,3.61-4.69,4.22,4.76-.73,5.28-.1,16.16-4.32,16.64-3.68-11.22,5.28-10.78,5.93-6.85,3.31-6.45,4,3.59.24,4,.91-3.4,2-3.06,2.71,2.46.64,2.77,1.33-1.77,1.54-1.49,2.23,16.54-1.66,16.79-1-.38,1.53-.15,2.22,0,1.45.18,2.15-2.12.44-1.93,1.14c-.67.86,2.8,2.39,1.86,3.12s4.93,4.26,4,5-18.42-9.75-19.36-9,10.84,7.81,9.89,8.54.16,1.4-.79,2.14-6.37-4.55-7.62-4.07c-.18-.7,14.92,1.07,14.72.4s-4.07-1-4.28-1.69-.63-1.49-.87-2.16S81,255,80.73,254.39s5-2.21,4.74-2.86-2.31-.7-2.64-1.35,24.08-7.62,23.72-8.25-7.3.19-7.7-.43,6.54-4.09,6.1-4.7-5.2-.3-5.7-.9-2-1.4-2.57-2-12.16,3.92-12.77,3.38,10.62-8.46,10-9-20.11,12-20.85,11.59,1.83-2.43,1-2.82-1.1.28-2,0,.78-2.86-.19-3.07-.33-3.54-1.34-3.65-1.86-3.31-2.9-3.31-3.2-3.55-4.19-3.46-4.77-3.5-5.74-3.32,8,19.9,7.11,20.17S49.59,223.33,48.72,223.7s-1.41,3.07-2.2,3.52-4.08.61-4.78,1.13,11.39,8.73,10.77,9.3-3.71-.22-4.23.4,8,4,7.55,4.62S42,240.06,41.61,240.73s-11.87-.64-12.15.05,2.62,2.49,2.41,3.19,20.67,4,20.51,4.66-11.39.31-11.49,1-14.75,1-14.8,1.71,3.16,1.87,3.16,2.58,13.45,1.39,13.49,2.07,4.94,1.08,5,1.76-2.57,1.48-2.42,2.16-3.4,1.83-3.19,2.5-7.66,3-7.38,3.7,25.08-4.38,25.43-3.74-3.42,1.65-3,2.28-18.64,8.18-18.14,8.78S49.4,270.93,50,271.5s8.06-2.87,8.71-2.33-15.29,11.54-14.57,12,10.86-5.44,11.63-5,3-.45,3.79,0-6.43,9.09-5.57,9.47,12.9-11.79,13.8-11.44-9.5,15.25-8.58,15.56,8-7.73,8.91-7.44,4.41-3.8,5.37-3.54S70.83,287.53,71.8,287.77Z" transform="translate(-10.65 -205.09)"/><path class="5ed24518-f3bf-4437-8c18-b19cf5fcd09e" d="M128.13,220c1.11-.74-3.11-.51-1.56-.51s1.54-.94,3.09-.94,1.54-1.66,3.09-1.66,1.54-2.76,3.09-2.76,1.54,9,3.09,9,1.54-7.66,3.09-7.66,1.54-2.88,3.09-2.88,1.54,10.78,3.09,10.78,1.54,2,3.09,2,1.54-17.22,3.09-17.22,1.54,15.27,3.09,15.27S159,206,160.53,206s1.54,12.63,3.09,12.63,1.54,1.32,3.09,1.32,1.54-5.22,3.09-5.22,1.54,1.61,3.09,1.61,1.54,9,3.09,9,1.54-17.62,3.09-17.62,1.54,17.58,3.09,17.58,1.54-9.58,3.09-9.58,1.54-2.92,3.09-2.92,1.54-4.26,3.09-4.26,1.54,17.9,3.09,17.9,1.55-1.83,3.09-1.83,1.54,0,3.09,0,1.55-1.39,3.09-1.39,1.55-1.5,3.09-1.5,9.7-11.15,10.81-10.41-11.38,6.5-11.38,7.53,0,1,0,2-7.37,1-7.37,2,20,1,20,2-23.76,1-23.76,2,15.52,1,15.52,2-3.49,1-3.49,2,1.47-.32.41.4.87,11.89-.64,11.89-1.51-1.13-3-1.13-1.51-13.28-3-13.28-1.51,8.32-3,8.32-1.51-1.56-3-1.56-1.51,8-3,8-1.51-12.6-3-12.6-1.51,8.46-3,8.46-1.51-11.81-3-11.81-1.51,10-3,10-1.51-2.79-3-2.79-4.25-4.11-5.31-3.37-2.81,2.6-2.81,3.65,5.26,1,5.26,2.1-2.77,1-2.77,2.1-7.84,1-7.84,2.1,3.4,1,3.4,2.1,12.6,1,12.6,2.1-2,1-2,2.1.95,1,.95,2.1-6.73,1-6.73,2.1-2.76,1-2.76,2.1,8.89,1,8.89,2.1-1.38,1-1.38,2.1,9.21,1,9.21,2.1-26.36,1-26.36,2.1,3.29,1,3.29,2.1,8.17,1,8.17,2.1,11.58,1,11.58,2.1,1.45,1,1.45,2.1-7.38,1-7.38,2.1,2.08,1,2.08,2.1,3.74,1,3.74,2.1-21.23,1-21.23,2.1,4.09,1.05,4.09,2.1-5.33,1-5.33,2.1,8.42,1,8.42,2.1-7,1-7,2.1,3.57,1,3.57,2.1,1.68,1,1.68,2.1,3.36,1,3.36,2.1-9.14,1-9.14,2.1,28.9,1,28.9,2.1-10.36,1-10.36,2.1-13.71,1-13.71,2.1-1.5,1-1.5,2.1,7.46,1,7.46,2.1,1.14,1,1.14,2.1-8.82,1.05-8.82,2.1.47,1,.47,2.1-2.23,1-2.23,2.1,8.77,1,8.77,2.1,4.28,1.05,4.28,2.1,12.86,1,12.86,2.1-19.1,1-19.1,2.1.31,1.05.31,2.1,13.57,1,13.57,2.1-2.35,1.05-2.35,2.1,4.62,1,4.62,2.1-25.36,1.05-25.36,2.1,13.32,1.05,13.32,2.1-5.49,1.05-5.49,2.1-4,1.05-4,2.1,2.64,1.05,2.64,2.1,7.51,1.05,7.51,2.1-8.79,1.05-8.79,2.1,14.1,1.05,14.1,2.1,1.08,1.05,1.08,2.1-7.81,1-7.81,2.1,3.49,1.05,3.49,2.1,4.36,1.05,4.36,2.1,6.7,1.05,6.7,2.1-8,1.05-8,2.1S159,362.26,159,363.31s17.35,1.05,17.35,2.1-3,1.05-3,2.1,4.45,1.05,4.45,2.1,5.22,6.53,4.18,7.31-9.75-8-11.14-8-1.4,9.37-2.79,9.37-1.4-6.56-2.79-6.56-1.4,4.55-2.8,4.55,6.48-9.06,5.54-9.76-11.29,4.17-11.29,3.12,13.8-1,13.8-2.1-18-1-18-2.1,20.11-1,20.11-2.1-18.9-1-18.9-2.1-.38-1-.38-2.1,2.9-1,2.9-2.1-8.33-1-8.33-2.1,22.31-1,22.31-2.1-24.55-1-24.55-2.1,5.6-1,5.6-2.1,7.74-1,7.74-2.1,12.31-1,12.31-2.1-10.93-1-10.93-2.1-7.21-1-7.21-2.1,6.32-1,6.32-2.1-1.65-1-1.65-2.1,12.77-1,12.77-2.1-10.27-1-10.27-2.1,11.73-1,11.73-2.1-5.1-1-5.1-2.1-4.19-1-4.19-2.1-1.68-1.05-1.68-2.1-10.57-1-10.57-2.1,6.49-1,6.49-2.1,9.14-1,9.14-2.1,2.78-1,2.78-2.1S154,314,154,312.95s1.43-1,1.43-2.1-4.22-1-4.22-2.1-.63-1-.63-2.1-3.14-1-3.14-2.1-1.5-1-1.5-2.1,1.05-1,1.05-2.1,22.36-1,22.36-2.1-16.07-1-16.07-2.1,17.35-1.05,17.35-2.1-15.22-1-15.22-2.1,12-1,12-2.1-6.36-1-6.36-2.1-8.39-1.05-8.39-2.1-5.33-1-5.33-2.1,3.11-1,3.11-2.1,21.32-1.05,21.32-2.1-3.2-1-3.2-2.1-7.17-1.05-7.17-2.1,5.66-1,5.66-2.1-1-1.05-1-2.1,5.62-1.05,5.62-2.1-11.91-1.05-11.91-2.1-8.08-1.05-8.08-2.1-3.13-1.05-3.13-2.1-2.31-1.05-2.31-2.1,19.33-1.05,19.33-2.1-5-1.05-5-2.1-6.43-1.05-6.43-2.1,16-1,16-2.1S147.75,251,147.75,250s5.76-1.05,5.76-2.1-7.22-1.05-7.22-2.1,16-1.05,16-2.1-15.83-1.05-15.83-2.1,20.28-1.05,20.28-2.1,1.5-1.05,1.5-2.1-14-1.05-14-2.1,11.4-4.6,10.32-5.35-6.32,6.36-7.83,6.36-1.51-10.31-3-10.31-1.51,4-3,4-1.51-7.57-3-7.57-1.51,9.72-3,9.72-1.51,1.71-3,1.71-1.51-6.48-3-6.48-1.51,15.42-3,15.42-1.51-4.25-3-4.25-1.51-2.63-3-2.63-1.51-2.59-3-2.59-2.94,1.33-4,.6-11.6-1.71-11.6-2.74,20.34-1,20.34-2-4.95-1-4.95-2-1.55-1-1.55-2,12.24-1,12.24-2-13.66-1-13.66-2-1.32-2,.18-2C126.11,218.77,127.06,220.76,128.13,220Z" transform="translate(-10.65 -205.09)"/><path class="7bbeabac-b4c5-42a4-b73a-fba5cf4508e4" d="M128.13,220c1.11-.74-3.11-.51-1.56-.51s1.54-.94,3.09-.94,1.54-1.66,3.09-1.66,1.54-2.76,3.09-2.76,1.54,9,3.09,9,1.54-7.66,3.09-7.66,1.54-2.88,3.09-2.88,1.54,10.78,3.09,10.78,1.54,2,3.09,2,1.54-17.22,3.09-17.22,1.54,15.27,3.09,15.27S159,206,160.53,206s1.54,12.63,3.09,12.63,1.54,1.32,3.09,1.32,1.54-5.22,3.09-5.22,1.54,1.61,3.09,1.61,1.54,9,3.09,9,1.54-17.62,3.09-17.62,1.54,17.58,3.09,17.58,1.54-9.58,3.09-9.58,1.54-2.92,3.09-2.92,1.54-4.26,3.09-4.26,1.54,17.9,3.09,17.9,1.55-1.83,3.09-1.83,1.54,0,3.09,0,1.55-1.39,3.09-1.39,1.55-1.5,3.09-1.5,9.7-11.15,10.81-10.41-11.38,6.5-11.38,7.53,0,1,0,2-7.37,1-7.37,2,20,1,20,2-23.76,1-23.76,2,15.52,1,15.52,2-3.49,1-3.49,2,1.47-.32.41.4.87,11.89-.64,11.89-1.51-1.13-3-1.13-1.51-13.28-3-13.28-1.51,8.32-3,8.32-1.51-1.56-3-1.56-1.51,8-3,8-1.51-12.6-3-12.6-1.51,8.46-3,8.46-1.51-11.81-3-11.81-1.51,10-3,10-1.51-2.79-3-2.79-4.25-4.11-5.31-3.37-2.81,2.6-2.81,3.65,5.26,1,5.26,2.1-2.77,1-2.77,2.1-7.84,1-7.84,2.1,3.4,1,3.4,2.1,12.6,1,12.6,2.1-2,1-2,2.1.95,1,.95,2.1-6.73,1-6.73,2.1-2.76,1-2.76,2.1,8.89,1,8.89,2.1-1.38,1-1.38,2.1,9.21,1,9.21,2.1-26.36,1-26.36,2.1,3.29,1,3.29,2.1,8.17,1,8.17,2.1,11.58,1,11.58,2.1,1.45,1,1.45,2.1-7.38,1-7.38,2.1,2.08,1,2.08,2.1,3.74,1,3.74,2.1-21.23,1-21.23,2.1,4.09,1.05,4.09,2.1-5.33,1-5.33,2.1,8.42,1,8.42,2.1-7,1-7,2.1,3.57,1,3.57,2.1,1.68,1,1.68,2.1,3.36,1,3.36,2.1-9.14,1-9.14,2.1,28.9,1,28.9,2.1-10.36,1-10.36,2.1-13.71,1-13.71,2.1-1.5,1-1.5,2.1,7.46,1,7.46,2.1,1.14,1,1.14,2.1-8.82,1.05-8.82,2.1.47,1,.47,2.1-2.23,1-2.23,2.1,8.77,1,8.77,2.1,4.28,1.05,4.28,2.1,12.86,1,12.86,2.1-19.1,1-19.1,2.1.31,1.05.31,2.1,13.57,1,13.57,2.1-2.35,1.05-2.35,2.1,4.62,1,4.62,2.1-25.36,1.05-25.36,2.1,13.32,1.05,13.32,2.1-5.49,1.05-5.49,2.1-4,1.05-4,2.1,2.64,1.05,2.64,2.1,7.51,1.05,7.51,2.1-8.79,1.05-8.79,2.1,14.1,1.05,14.1,2.1,1.08,1.05,1.08,2.1-7.81,1-7.81,2.1,3.49,1.05,3.49,2.1,4.36,1.05,4.36,2.1,6.7,1.05,6.7,2.1-8,1.05-8,2.1S159,362.26,159,363.31s17.35,1.05,17.35,2.1-3,1.05-3,2.1,4.45,1.05,4.45,2.1,5.22,6.53,4.18,7.31-9.75-8-11.14-8-1.4,9.37-2.79,9.37-1.4-6.56-2.79-6.56-1.4,4.55-2.8,4.55,6.48-9.06,5.54-9.76-11.29,4.17-11.29,3.12,13.8-1,13.8-2.1-18-1-18-2.1,20.11-1,20.11-2.1-18.9-1-18.9-2.1-.38-1-.38-2.1,2.9-1,2.9-2.1-8.33-1-8.33-2.1,22.31-1,22.31-2.1-24.55-1-24.55-2.1,5.6-1,5.6-2.1,7.74-1,7.74-2.1,12.31-1,12.31-2.1-10.93-1-10.93-2.1-7.21-1-7.21-2.1,6.32-1,6.32-2.1-1.65-1-1.65-2.1,12.77-1,12.77-2.1-10.27-1-10.27-2.1,11.73-1,11.73-2.1-5.1-1-5.1-2.1-4.19-1-4.19-2.1-1.68-1.05-1.68-2.1-10.57-1-10.57-2.1,6.49-1,6.49-2.1,9.14-1,9.14-2.1,2.78-1,2.78-2.1S154,314,154,312.95s1.43-1,1.43-2.1-4.22-1-4.22-2.1-.63-1-.63-2.1-3.14-1-3.14-2.1-1.5-1-1.5-2.1,1.05-1,1.05-2.1,22.36-1,22.36-2.1-16.07-1-16.07-2.1,17.35-1.05,17.35-2.1-15.22-1-15.22-2.1,12-1,12-2.1-6.36-1-6.36-2.1-8.39-1.05-8.39-2.1-5.33-1-5.33-2.1,3.11-1,3.11-2.1,21.32-1.05,21.32-2.1-3.2-1-3.2-2.1-7.17-1.05-7.17-2.1,5.66-1,5.66-2.1-1-1.05-1-2.1,5.62-1.05,5.62-2.1-11.91-1.05-11.91-2.1-8.08-1.05-8.08-2.1-3.13-1.05-3.13-2.1-2.31-1.05-2.31-2.1,19.33-1.05,19.33-2.1-5-1.05-5-2.1-6.43-1.05-6.43-2.1,16-1,16-2.1S147.75,251,147.75,250s5.76-1.05,5.76-2.1-7.22-1.05-7.22-2.1,16-1.05,16-2.1-15.83-1.05-15.83-2.1,20.28-1.05,20.28-2.1,1.5-1.05,1.5-2.1-14-1.05-14-2.1,11.4-4.6,10.32-5.35-6.32,6.36-7.83,6.36-1.51-10.31-3-10.31-1.51,4-3,4-1.51-7.57-3-7.57-1.51,9.72-3,9.72-1.51,1.71-3,1.71-1.51-6.48-3-6.48-1.51,15.42-3,15.42-1.51-4.25-3-4.25-1.51-2.63-3-2.63-1.51-2.59-3-2.59-2.94,1.33-4,.6-11.6-1.71-11.6-2.74,20.34-1,20.34-2-4.95-1-4.95-2-1.55-1-1.55-2,12.24-1,12.24-2-13.66-1-13.66-2-1.32-2,.18-2C126.11,218.77,127.06,220.76,128.13,220Z" transform="translate(-10.65 -205.09)"/><path class="5ed24518-f3bf-4437-8c18-b19cf5fcd09e" d="M307.29,319.7c0,.7,19.61,1.51,19.6,2.21s-1.33,1.49-1.36,2.18-12,1.15-12,1.84.75,1.42.69,2.11,12.86,2.08,12.78,2.77-26.33-.16-26.42.53-1.63,1.11-1.74,1.79,29.92,4,29.78,4.64-22.53-.76-22.69-.08,20.12,3.76,19.95,4.44-24.25-1.71-24.45-1,18.64,4.15,18.42,4.83-15.8-1.16-16-.49-2.05.91-2.33,1.57,9.38,3.33,9.08,4S296.3,349,296,349.67s15.11,5.27,14.74,5.91-6.91-.45-7.32.18,11.32,5.3,10.88,5.91-18.2-4.88-18.68-4.28-1.82.52-2.35,1.1-3.83-.58-4.4,0,6.78,4.75,6.16,5.29,12.94,9.7,12.27,10.21-12.76-6.08-13.48-5.61,4,5.59,3.23,6-14.1-11-14.93-10.62,11,15,10.08,15.33-11-12.4-12-12.14-1.92-1.89-2.89-1.68-.23,1.61-1.23,1.75.52,10.3-.49,10.37-2.39,5.33-3.42,5.33-1-15.59-2-15.65-3.57,9.11-4.56,9-4.86,5.53-5.83,5.33-4.49,1.69-5.43,1.42,8.45-15.7,7.55-16-4.49,3.16-5.34,2.77-1.85-.34-2.66-.78-2.3-.16-3.05-.64-9,3.78-9.65,3.26-1.1-1.71-1.74-2.26-3-.68-3.59-1.26-5.93.44-6.48-.17,22.47-10.67,22-11.29-1.3-.69-1.75-1.32-16.27,3.76-16.68,3.11-3.19-.79-3.57-1.44,18.35-6.15,18-6.82-11.82,1.42-12.14.74-12.93,1.1-13.22.42,4.75-2.51,4.5-3.2,1.58-1.8,1.35-2.49,11.87-3.14,11.67-3.83-5.15-.66-5.33-1.35-1.48-1.2-1.64-1.9,1.87-1.55,1.73-2.25,9.23-2.07,9.12-2.77-2.51-1.06-2.61-1.76-15.3-.45-15.38-1.15,13.64-2,13.58-2.71-5.17-1.13-5.21-1.83,1.8-1.38,1.77-2.08-14.83-1.18-14.85-1.88,22.94-1.47,22.94-2.17c0-1.05,0-1.05,0-2.1s-1.23-1.05-1.23-2.1S226,314.45,226,313.4s4.49-1.05,4.49-2.1,2.88-1.05,2.88-2.1-10.44-1.05-10.44-2.1S238.1,306,238.1,305s-12.44-1.05-12.44-2.1,4.89-1.05,4.89-2.1,10.36-1.05,10.36-2.1.81-1.05.81-2.1.18-1.05.18-2.1-19.39-1.05-19.39-2.1-2.4-1-2.4-2.1,20.12-1.05,20.12-2.1-6.21-1-6.21-2.1-19.15-1-19.15-2.1,14.9-1,14.9-2.1,14.71-1,14.71-2.1-22-1.05-22-2.1,20.82-1,20.82-2.1-26.2-1-26.2-2.1,4.14-1.05,4.14-2.1,14.15-1.05,14.15-2.1-.08-1-.08-2.1-17.87-1.05-17.87-2.1-3.23-1.05-3.23-2.1,7.79-1.05,7.79-2.1-4-1.05-4-2.1.75-1.05.75-2.1,2.64-1.05,2.64-2.1,13.33-1.05,13.33-2.1-14.2-1.05-14.2-2.1,6.77-1.05,6.77-2.1,7.4-1.05,7.4-2.1-9.43-1.05-9.43-2.1,12.81-1.05,12.81-2.1-10.28-1.05-10.28-2.1-8.24-1.05-8.24-2.1,17.31-1.05,17.31-2.1-17.27-1.05-17.27-2.1,10.41-1.05,10.41-2.1-15.47-1.05-15.47-2.1,26-1.05,26-2.1-21-1.05-21-2.1,3.91-1.05,3.91-2.1,8-1.05,8-2.1,4.94-1.05,4.94-2.1-11.48-3.28-10.45-4.06,4.52,4.78,5.92,4.78,1.4.22,2.79.22,1.4-7.26,2.79-7.26,1.4-4.7,2.8-4.7-1,10-.07,10.72,5.59-.77,5.59.27-9.3,1-9.3,2.08,2.84,1,2.84,2.08-5.22,1-5.22,2.08,14.72,1,14.72,2.08,3.9,1,3.9,2.08-8.17,1-8.17,2.08-10,1-10,2.08,20.5,1,20.5,2.08-9.26,1-9.26,2.08,6.08,1,6.08,2.08-3.47,1-3.47,2.08-17.28,1-17.28,2.08,21.62,1,21.62,2.08,4.52,1,4.52,2.08-21,1-21,2.08,2.68,1,2.68,2.08,1.4,1,1.4,2.08,2.47,1,2.47,2.08,4.11,1,4.11,2.08-13.37,1-13.37,2.08,11.4,1,11.4,2.08,4.29,1,4.29,2.08-16,1-16,2.08-2.94,1-2.94,2.08,25.62,1,25.62,2.08-22.72,1-22.72,2.08S259,274,259,275s-18.79,1-18.79,2.08-2,1-2,2.08,7.76,1,7.76,2.08-2.4,1-2.4,2.08-13.35,1-13.35,2.08,26.22,1,26.22,2.08-26.16,1-26.16,2.08,14.25,1,14.25,2.08,4.35,1,4.35,2.08,6.33,1,6.33,2.08-26.63,1-26.63,2.08,2.72,1,2.72,2.08.06,1,.06,2.08,2.07,1,2.07,2.08,2.24,1,2.24,2.08,18.67,1,18.67,2.08-15.07,1-15.07,2.08,0,1,0,2.08-7.52,1-7.52,2.08,20.36,1,20.36,2.08-24.24,1-24.24,2.08,15.83,1,15.83,2.08c0,.71-3.55,1.47-3.53,2.18s-.55,1.49-.5,2.2,18.77.55,18.84,1.25-1.54,1.26-1.44,2-19.42,2.89-19.29,3.58,12.54.21,12.7.9-2,1.57-1.77,2.26,11.94-.51,12.17.18-17.76,4.35-17.49,5,12.6-1.14,12.91-.48-16,5.25-15.62,5.9,14.56-2.44,15-1.79-3,2.33-2.56,3-4.25,3.27-3.73,3.87-.29,2.14.3,2.7,5.61-1,6.28-.49-.49,2.48.26,2.95-2.7,5.58-1.86,6,4.63-.82,5.55-.5,6.78-7.54,7.77-7.33.81,1.65,1.85,1.75,1.51-.53,2.57-.53,2.43,4.63,3.44,4.53,3.24,1.52,4.22,1.31-1.34-6.25-.41-6.57,2.12.32,3-.09-4.93-5.47-4.15-6,20.74,11.84,21.44,11.29-.51-3.2.11-3.79-5.46-4.65-4.91-5.27-9.4-5-8.92-5.67-.69-1.34-.27-2,7.65.84,8,.16-1.37-1.69-1.05-2.38-3.14-1.9-2.87-2.6,21.55,2.17,21.78,1.47-3.56-2.23-3.36-2.94,5.79-1,6-1.71-8.14-2.44-8-3.16,7.41-1,7.51-1.74-3.41-1.83-3.34-2.54-1.56-1.63-1.51-2.35-3.33-1.6-3.31-2.31,9.36-1.49,9.36-2.2c0-1-29.48-1-29.48-2.08s10.56-1,10.56-2.08,14-1,14-2.08,1.53-1,1.53-2.08-7.61-1-7.61-2.08-1.16-1-1.16-2.08,9-1,9-2.08-.48-1-.48-2.08,2.27-1,2.27-2.08-8.95-1-8.95-2.08-4.37-1-4.37-2.08-13.12-1-13.12-2.08,19.48-1,19.48-2.08-.32-1-.32-2.08-13.84-1-13.84-2.08,2.4-1,2.4-2.08-4.72-1-4.72-2.08,25.87-1,25.87-2.08-13.58-1-13.58-2.08,5.6-1,5.6-2.08,4-1,4-2.08-2.69-1-2.69-2.08-7.66-1-7.66-2.08,9-1,9-2.08-14.38-1-14.38-2.08-1.1-1-1.1-2.08,8-1,8-2.08-3.56-1-3.56-2.08-4.44-1-4.44-2.08-6.83-1-6.83-2.08,8.15-1,8.15-2.08,19.83-1,19.83-2.08-17.69-1-17.69-2.08,3-1,3-2.08S297,249,297,248s-7.26-1-7.26-2.08,15.7-1,15.7-2.08-13.94-1-13.94-2.08,9.76-1,9.76-2.08-6.76-1-6.76-2.08,18.28-1,18.28-2.08-14.52-1-14.52-2.08,14.08-1,14.08-2.08-18.32-1-18.32-2.08,20.52-1,20.52-2.08-19.28-1-19.28-2.08-.38-1-.38-2.08,3-1,3-2.08-8.5-1-8.5-2.08,18.88,3.69,19.91,2.93S302.65,207,304.05,207s1.4,3.92,2.79,3.92,1.4,5.41,2.79,5.41,1.4,8.61,2.8,8.61,1.28-8.52,2.22-7.82,7.15.69,7.15,1.74-6.44,1.05-6.44,2.1S317,222,317,223.06s-13,1.05-13,2.1,10.47,1.05,10.47,2.1-12,1.05-12,2.1,5.2,1.05,5.2,2.1,4.28,1.05,4.28,2.1,1.72,1.05,1.72,2.1,10.78,1.05,10.78,2.1-6.62,1.05-6.62,2.1-9.32,1.05-9.32,2.1-2.83,1.05-2.83,2.1,15.38,1,15.38,2.1-1.46,1.05-1.46,2.1,4.31,1,4.31,2.1.64,1,.64,2.1,3.21,1,3.21,2.1,1.53,1,1.53,2.1-1.07,1.05-1.07,2.1-22.8,1-22.8,2.1,16.39,1,16.39,2.1-17.69,1.05-17.69,2.1,15.52,1.05,15.52,2.1-12.21,1-12.21,2.1,6.48,1.05,6.48,2.1,8.56,1.05,8.56,2.1,5.43,1.05,5.43,2.1-3.17,1.05-3.17,2.1S303,278.71,303,279.76s3.27,1.05,3.27,2.1,7.32,1.05,7.32,2.1-5.77,1.05-5.77,2.1,1.07,1.05,1.07,2.1-5.74,1.05-5.74,2.1,12.15,1.05,12.15,2.1,8.25,1.05,8.25,2.1,3.19,1.05,3.19,2.1,2.35,1.05,2.35,2.1-19.72,1.05-19.72,2.1,5.1,1.05,5.1,2.1,6.56,1.05,6.56,2.1-16.32,1.05-16.32,2.1,22.72,1.05,22.72,2.1-5.88,1.05-5.88,2.1,7.37,1.05,7.37,2.1-16.34,1.05-16.34,2.1,10.74,9.59,9.41,10.12C318.23,327.11,307.29,318.65,307.29,319.7Z" transform="translate(-10.65 -205.09)"/><path class="7bbeabac-b4c5-42a4-b73a-fba5cf4508e4" d="M307.29,319.7c0,.7,19.61,1.51,19.6,2.21s-1.33,1.49-1.36,2.18-12,1.15-12,1.84.75,1.42.69,2.11,12.86,2.08,12.78,2.77-26.33-.16-26.42.53-1.63,1.11-1.74,1.79,29.92,4,29.78,4.64-22.53-.76-22.69-.08,20.12,3.76,19.95,4.44-24.25-1.71-24.45-1,18.64,4.15,18.42,4.83-15.8-1.16-16-.49-2.05.91-2.33,1.57,9.38,3.33,9.08,4S296.3,349,296,349.67s15.11,5.27,14.74,5.91-6.91-.45-7.32.18,11.32,5.3,10.88,5.91-18.2-4.88-18.68-4.28-1.82.52-2.35,1.1-3.83-.58-4.4,0,6.78,4.75,6.16,5.29,12.94,9.7,12.27,10.21-12.76-6.08-13.48-5.61,4,5.59,3.23,6-14.1-11-14.93-10.62,11,15,10.08,15.33-11-12.4-12-12.14-1.92-1.89-2.89-1.68-.23,1.61-1.23,1.75.52,10.3-.49,10.37-2.39,5.33-3.42,5.33-1-15.59-2-15.65-3.57,9.11-4.56,9-4.86,5.53-5.83,5.33-4.49,1.69-5.43,1.42,8.45-15.7,7.55-16-4.49,3.16-5.34,2.77-1.85-.34-2.66-.78-2.3-.16-3.05-.64-9,3.78-9.65,3.26-1.1-1.71-1.74-2.26-3-.68-3.59-1.26-5.93.44-6.48-.17,22.47-10.67,22-11.29-1.3-.69-1.75-1.32-16.27,3.76-16.68,3.11-3.19-.79-3.57-1.44,18.35-6.15,18-6.82-11.82,1.42-12.14.74-12.93,1.1-13.22.42,4.75-2.51,4.5-3.2,1.58-1.8,1.35-2.49,11.87-3.14,11.67-3.83-5.15-.66-5.33-1.35-1.48-1.2-1.64-1.9,1.87-1.55,1.73-2.25,9.23-2.07,9.12-2.77-2.51-1.06-2.61-1.76-15.3-.45-15.38-1.15,13.64-2,13.58-2.71-5.17-1.13-5.21-1.83,1.8-1.38,1.77-2.08-14.83-1.18-14.85-1.88,22.94-1.47,22.94-2.17c0-1.05,0-1.05,0-2.1s-1.23-1.05-1.23-2.1S226,314.45,226,313.4s4.49-1.05,4.49-2.1,2.88-1.05,2.88-2.1-10.44-1.05-10.44-2.1S238.1,306,238.1,305s-12.44-1.05-12.44-2.1,4.89-1.05,4.89-2.1,10.36-1.05,10.36-2.1.81-1.05.81-2.1.18-1.05.18-2.1-19.39-1.05-19.39-2.1-2.4-1-2.4-2.1,20.12-1.05,20.12-2.1-6.21-1-6.21-2.1-19.15-1-19.15-2.1,14.9-1,14.9-2.1,14.71-1,14.71-2.1-22-1.05-22-2.1,20.82-1,20.82-2.1-26.2-1-26.2-2.1,4.14-1.05,4.14-2.1,14.15-1.05,14.15-2.1-.08-1-.08-2.1-17.87-1.05-17.87-2.1-3.23-1.05-3.23-2.1,7.79-1.05,7.79-2.1-4-1.05-4-2.1.75-1.05.75-2.1,2.64-1.05,2.64-2.1,13.33-1.05,13.33-2.1-14.2-1.05-14.2-2.1,6.77-1.05,6.77-2.1,7.4-1.05,7.4-2.1-9.43-1.05-9.43-2.1,12.81-1.05,12.81-2.1-10.28-1.05-10.28-2.1-8.24-1.05-8.24-2.1,17.31-1.05,17.31-2.1-17.27-1.05-17.27-2.1,10.41-1.05,10.41-2.1-15.47-1.05-15.47-2.1,26-1.05,26-2.1-21-1.05-21-2.1,3.91-1.05,3.91-2.1,8-1.05,8-2.1,4.94-1.05,4.94-2.1-11.48-3.28-10.45-4.06,4.52,4.78,5.92,4.78,1.4.22,2.79.22,1.4-7.26,2.79-7.26,1.4-4.7,2.8-4.7-1,10-.07,10.72,5.59-.77,5.59.27-9.3,1-9.3,2.08,2.84,1,2.84,2.08-5.22,1-5.22,2.08,14.72,1,14.72,2.08,3.9,1,3.9,2.08-8.17,1-8.17,2.08-10,1-10,2.08,20.5,1,20.5,2.08-9.26,1-9.26,2.08,6.08,1,6.08,2.08-3.47,1-3.47,2.08-17.28,1-17.28,2.08,21.62,1,21.62,2.08,4.52,1,4.52,2.08-21,1-21,2.08,2.68,1,2.68,2.08,1.4,1,1.4,2.08,2.47,1,2.47,2.08,4.11,1,4.11,2.08-13.37,1-13.37,2.08,11.4,1,11.4,2.08,4.29,1,4.29,2.08-16,1-16,2.08-2.94,1-2.94,2.08,25.62,1,25.62,2.08-22.72,1-22.72,2.08S259,274,259,275s-18.79,1-18.79,2.08-2,1-2,2.08,7.76,1,7.76,2.08-2.4,1-2.4,2.08-13.35,1-13.35,2.08,26.22,1,26.22,2.08-26.16,1-26.16,2.08,14.25,1,14.25,2.08,4.35,1,4.35,2.08,6.33,1,6.33,2.08-26.63,1-26.63,2.08,2.72,1,2.72,2.08.06,1,.06,2.08,2.07,1,2.07,2.08,2.24,1,2.24,2.08,18.67,1,18.67,2.08-15.07,1-15.07,2.08,0,1,0,2.08-7.52,1-7.52,2.08,20.36,1,20.36,2.08-24.24,1-24.24,2.08,15.83,1,15.83,2.08c0,.71-3.55,1.47-3.53,2.18s-.55,1.49-.5,2.2,18.77.55,18.84,1.25-1.54,1.26-1.44,2-19.42,2.89-19.29,3.58,12.54.21,12.7.9-2,1.57-1.77,2.26,11.94-.51,12.17.18-17.76,4.35-17.49,5,12.6-1.14,12.91-.48-16,5.25-15.62,5.9,14.56-2.44,15-1.79-3,2.33-2.56,3-4.25,3.27-3.73,3.87-.29,2.14.3,2.7,5.61-1,6.28-.49-.49,2.48.26,2.95-2.7,5.58-1.86,6,4.63-.82,5.55-.5,6.78-7.54,7.77-7.33.81,1.65,1.85,1.75,1.51-.53,2.57-.53,2.43,4.63,3.44,4.53,3.24,1.52,4.22,1.31-1.34-6.25-.41-6.57,2.12.32,3-.09-4.93-5.47-4.15-6,20.74,11.84,21.44,11.29-.51-3.2.11-3.79-5.46-4.65-4.91-5.27-9.4-5-8.92-5.67-.69-1.34-.27-2,7.65.84,8,.16-1.37-1.69-1.05-2.38-3.14-1.9-2.87-2.6,21.55,2.17,21.78,1.47-3.56-2.23-3.36-2.94,5.79-1,6-1.71-8.14-2.44-8-3.16,7.41-1,7.51-1.74-3.41-1.83-3.34-2.54-1.56-1.63-1.51-2.35-3.33-1.6-3.31-2.31,9.36-1.49,9.36-2.2c0-1-29.48-1-29.48-2.08s10.56-1,10.56-2.08,14-1,14-2.08,1.53-1,1.53-2.08-7.61-1-7.61-2.08-1.16-1-1.16-2.08,9-1,9-2.08-.48-1-.48-2.08,2.27-1,2.27-2.08-8.95-1-8.95-2.08-4.37-1-4.37-2.08-13.12-1-13.12-2.08,19.48-1,19.48-2.08-.32-1-.32-2.08-13.84-1-13.84-2.08,2.4-1,2.4-2.08-4.72-1-4.72-2.08,25.87-1,25.87-2.08-13.58-1-13.58-2.08,5.6-1,5.6-2.08,4-1,4-2.08-2.69-1-2.69-2.08-7.66-1-7.66-2.08,9-1,9-2.08-14.38-1-14.38-2.08-1.1-1-1.1-2.08,8-1,8-2.08-3.56-1-3.56-2.08-4.44-1-4.44-2.08-6.83-1-6.83-2.08,8.15-1,8.15-2.08,19.83-1,19.83-2.08-17.69-1-17.69-2.08,3-1,3-2.08S297,249,297,248s-7.26-1-7.26-2.08,15.7-1,15.7-2.08-13.94-1-13.94-2.08,9.76-1,9.76-2.08-6.76-1-6.76-2.08,18.28-1,18.28-2.08-14.52-1-14.52-2.08,14.08-1,14.08-2.08-18.32-1-18.32-2.08,20.52-1,20.52-2.08-19.28-1-19.28-2.08-.38-1-.38-2.08,3-1,3-2.08-8.5-1-8.5-2.08,18.88,3.69,19.91,2.93S302.65,207,304.05,207s1.4,3.92,2.79,3.92,1.4,5.41,2.79,5.41,1.4,8.61,2.8,8.61,1.28-8.52,2.22-7.82,7.15.69,7.15,1.74-6.44,1.05-6.44,2.1S317,222,317,223.06s-13,1.05-13,2.1,10.47,1.05,10.47,2.1-12,1.05-12,2.1,5.2,1.05,5.2,2.1,4.28,1.05,4.28,2.1,1.72,1.05,1.72,2.1,10.78,1.05,10.78,2.1-6.62,1.05-6.62,2.1-9.32,1.05-9.32,2.1-2.83,1.05-2.83,2.1,15.38,1,15.38,2.1-1.46,1.05-1.46,2.1,4.31,1,4.31,2.1.64,1,.64,2.1,3.21,1,3.21,2.1,1.53,1,1.53,2.1-1.07,1.05-1.07,2.1-22.8,1-22.8,2.1,16.39,1,16.39,2.1-17.69,1.05-17.69,2.1,15.52,1.05,15.52,2.1-12.21,1-12.21,2.1,6.48,1.05,6.48,2.1,8.56,1.05,8.56,2.1,5.43,1.05,5.43,2.1-3.17,1.05-3.17,2.1S303,278.71,303,279.76s3.27,1.05,3.27,2.1,7.32,1.05,7.32,2.1-5.77,1.05-5.77,2.1,1.07,1.05,1.07,2.1-5.74,1.05-5.74,2.1,12.15,1.05,12.15,2.1,8.25,1.05,8.25,2.1,3.19,1.05,3.19,2.1,2.35,1.05,2.35,2.1-19.72,1.05-19.72,2.1,5.1,1.05,5.1,2.1,6.56,1.05,6.56,2.1-16.32,1.05-16.32,2.1,22.72,1.05,22.72,2.1-5.88,1.05-5.88,2.1,7.37,1.05,7.37,2.1-16.34,1.05-16.34,2.1,10.74,9.59,9.41,10.12C318.23,327.11,307.29,318.65,307.29,319.7Z" transform="translate(-10.65 -205.09)"/><path class="5ed24518-f3bf-4437-8c18-b19cf5fcd09e" d="M336.22,218.07c1.11-.74-.32-1.41,1.22-1.41s1.54-5.27,3.09-5.27,1.54,11.27,3.09,11.27,1.54-11.94,3.09-11.94,1.54,2.63,3.09,2.63,1.54,8.39,3.09,8.39,1.54-1,3.09-1,1.54,1.81,3.09,1.81,1.54,4.53,3.09,4.53,1.54-10.78,3.09-10.78,1.54-7.69,3.09-7.69,1.54,1.21,3.09,1.21,1.54,2.29,3.09,2.29,1.54,13.32,3.09,13.32,1.54-17.19,3.09-17.19,1.54-.08,3.09-.08,1.54,16.42,3.09,16.42,1.54-6.89,3.09-6.89,1.54,7.91,3.09,7.91,1.54-17.9,3.09-17.9,1.54,16.17,3.09,16.17,1.54-3.42,3.09-3.42,1.54-6.91,3.09-6.91,1.55-3,3.09-3,1.54,5.8,3.09,5.8,1.55,9.41,3.09,9.41,1.55-17.42,3.09-17.42,3.49,6.65,4.6,7.38-2,2.09-2,3.12-15.32,1-15.32,2,12.67,1,12.67,2,14,1,14,2-2.23,1-2.23,2-24,1-24,2,13.81,1,13.81,2,2.57,1.3,1.51,2-1.48-.1-3-.1-1.51,10.63-3,10.63-1.51-19.06-3-19.06-1.51,2-3,2-1.51-4.09-3-4.09-1.51,20.83-3,20.83-1.51.23-3,.23-1.51-13.35-3-13.35-1.51,9.47-3,9.47-1.51-4.7-3-4.7-1.51-12.53-3-12.53,7.46,16.34,6.4,17.08-25.17-5.33-25.17-4.28,30,1,30,2.1-25.5,1-25.5,2.1,13.27,1,13.27,2.1,5.87,1,5.87,2.1-15.49,1-15.49,2.1,4.69,1,4.69,2.1,15.66,1,15.66,2.1-28.42,1-28.42,2.1,16.27,1,16.27,2.1-11.25,1-11.25,2.1.33,1,.33,2.1-4.38,1-4.38,2.1,13.58,1,13.58,2.1-12.86,1-12.86,2.1,25.6,1,25.6,2.1-22.39,1-22.39,2.1,1.53,1,1.53,2.1S385,272,385,273s-15.52,1-15.52,2.1,29.45,1,29.45,2.1-10.29,1-10.29,2.1-14.19,1.05-14.19,2.1,9.64,1,9.64,2.1,2.41,1,2.41,2.1-16,1-16,2.1,6.53,1,6.53,2.1,19.64,1,19.64,2.1-19.83,1-19.83,2.1-.09,1-.09,2.1-4.46,1-4.46,2.1,16.66,1,16.66,2.1,9.14,1,9.14,2.1-21,1-21,2.1-7.78,1-7.78,2.1,23.91,1,23.91,2.1-4.39,1.05-4.39,2.1-16.08,1-16.08,2.1,14.09,1,14.09,2.1,7,1,7,2.1,3.29,1.05,3.29,2.1,3,1,3,2.1-14.72,1-14.72,2.1-3.23,1.05-3.23,2.1,13.48,1,13.48,2.1-5.15,1.05-5.15,2.1-3.93,1-3.93,2.1-1.65,1.05-1.65,2.1S399.3,335,399.3,336s-22.51,1.05-22.51,2.1,19.24,1.05,19.24,2.1-1.27,1.05-1.27,2.1-11.66,1.05-11.66,2.1.84,1.05.84,2.1,12.77,1.05,12.77,2.1S371,349.66,371,350.71s-1.43,1-1.43,2.1,29.8,1.05,29.8,2.1-22,1.05-22,2.1,20.33,1.05,20.33,2.1-23.83,1.05-23.83,2.1,19.1,1.05,19.1,2.1-15.46,1.05-15.46,2.1-1.62,1.05-1.62,2.1,10.17,1.05,10.17,2.1-9.8-4.54-10.84-3.77,8,8.46,6.62,8.46-1.4-4.47-2.79-4.47-1.4,9.08-2.79,9.08-1.4-13.08-2.8-13.08,5.36,2.07,4.42,1.36,6.17,3.47,6.17,2.42-9.37-1-9.37-2.1-18.63-1-18.63-2.1,15.07-1,15.07-2.1-8.57-1-8.57-2.1,20.93-1,20.93-2.1-23.9-1-23.9-2.1,20.76-1,20.76-2.1,3.24-1,3.24-2.1-2.13-1-2.13-2.1-14.62-1-14.62-2.1-7.46-1-7.46-2.1,22.3-1,22.3-2.1-13.36-1-13.36-2.1-8.8-1-8.8-2.1-3.73-1-3.73-2.1,23.9-1,23.9-2.1-6.11-1-6.11-2.1-.64-1-.64-2.1-1.28-1-1.28-2.1-10-1-10-2.1.79-1,.79-2.1-1.75-1.05-1.75-2.1-5.18-1-5.18-2.1,26.75-1,26.75-2.1-.65-1-.65-2.1-16.71-1-16.71-2.1-2.44-1-2.44-2.1,20-1,20-2.1-11.62-1-11.62-2.1-12.58-1-12.58-2.1,5.45-1,5.45-2.1,2.12-1,2.12-2.1,12.33-1,12.33-2.1-4.77-1-4.77-2.1-1.14-1-1.14-2.1,2.14-1.05,2.14-2.1,9.36-1,9.36-2.1-2.29-1-2.29-2.1-14.88-1-14.88-2.1,13.54-1.05,13.54-2.1-5-1-5-2.1,1.85-1,1.85-2.1-14.49-1.05-14.49-2.1,22.51-1,22.51-2.1,0-1.05,0-2.1-1.21-1-1.21-2.1S367.53,272,367.53,271s4.4-1.05,4.4-2.1,2.83-1.05,2.83-2.1-10.24-1.05-10.24-2.1,14.92-1.05,14.92-2.1-12.2-1.05-12.2-2.1,4.79-1.05,4.79-2.1,10.16-1.05,10.16-2.1.8-1.05.8-2.1.18-1,.18-2.1-19-1.05-19-2.1-2.35-1.05-2.35-2.1,19.72-1.05,19.72-2.1-6.09-1.05-6.09-2.1-18.78-1.05-18.78-2.1,14.61-1.05,14.61-2.1,14.42-1.05,14.42-2.1-21.59-1.05-21.59-2.1,17.49-8,16.42-8.79-11.43,14.76-12.94,14.76-1.51-2.78-3-2.78-1.51-9.51-3-9.51-1.51.06-3,.06-1.51,12-3,12-1.51,2.17-3,2.17-1.51-5.24-3-5.24-1.51,2.7-3,2.7-1.51-.51-3-.51-1.51-1.78-3-1.78-1.51-9-3-9-7.87,8.6-8.95,7.87,4.13-5.14,4.13-6.16,7.26-1,7.26-2-9.24-1-9.24-2,12.56-1,12.56-2-10.08-1-10.08-2-8.08-1-8.08-2,16.35.26,16.72-.73C342,219.4,335.14,218.79,336.22,218.07Z" transform="translate(-10.65 -205.09)"/><path class="7bbeabac-b4c5-42a4-b73a-fba5cf4508e4" d="M336.22,218.07c1.11-.74-.32-1.41,1.22-1.41s1.54-5.27,3.09-5.27,1.54,11.27,3.09,11.27,1.54-11.94,3.09-11.94,1.54,2.63,3.09,2.63,1.54,8.39,3.09,8.39,1.54-1,3.09-1,1.54,1.81,3.09,1.81,1.54,4.53,3.09,4.53,1.54-10.78,3.09-10.78,1.54-7.69,3.09-7.69,1.54,1.21,3.09,1.21,1.54,2.29,3.09,2.29,1.54,13.32,3.09,13.32,1.54-17.19,3.09-17.19,1.54-.08,3.09-.08,1.54,16.42,3.09,16.42,1.54-6.89,3.09-6.89,1.54,7.91,3.09,7.91,1.54-17.9,3.09-17.9,1.54,16.17,3.09,16.17,1.54-3.42,3.09-3.42,1.54-6.91,3.09-6.91,1.55-3,3.09-3,1.54,5.8,3.09,5.8,1.55,9.41,3.09,9.41,1.55-17.42,3.09-17.42,3.49,6.65,4.6,7.38-2,2.09-2,3.12-15.32,1-15.32,2,12.67,1,12.67,2,14,1,14,2-2.23,1-2.23,2-24,1-24,2,13.81,1,13.81,2,2.57,1.3,1.51,2-1.48-.1-3-.1-1.51,10.63-3,10.63-1.51-19.06-3-19.06-1.51,2-3,2-1.51-4.09-3-4.09-1.51,20.83-3,20.83-1.51.23-3,.23-1.51-13.35-3-13.35-1.51,9.47-3,9.47-1.51-4.7-3-4.7-1.51-12.53-3-12.53,7.46,16.34,6.4,17.08-25.17-5.33-25.17-4.28,30,1,30,2.1-25.5,1-25.5,2.1,13.27,1,13.27,2.1,5.87,1,5.87,2.1-15.49,1-15.49,2.1,4.69,1,4.69,2.1,15.66,1,15.66,2.1-28.42,1-28.42,2.1,16.27,1,16.27,2.1-11.25,1-11.25,2.1.33,1,.33,2.1-4.38,1-4.38,2.1,13.58,1,13.58,2.1-12.86,1-12.86,2.1,25.6,1,25.6,2.1-22.39,1-22.39,2.1,1.53,1,1.53,2.1S385,272,385,273s-15.52,1-15.52,2.1,29.45,1,29.45,2.1-10.29,1-10.29,2.1-14.19,1.05-14.19,2.1,9.64,1,9.64,2.1,2.41,1,2.41,2.1-16,1-16,2.1,6.53,1,6.53,2.1,19.64,1,19.64,2.1-19.83,1-19.83,2.1-.09,1-.09,2.1-4.46,1-4.46,2.1,16.66,1,16.66,2.1,9.14,1,9.14,2.1-21,1-21,2.1-7.78,1-7.78,2.1,23.91,1,23.91,2.1-4.39,1.05-4.39,2.1-16.08,1-16.08,2.1,14.09,1,14.09,2.1,7,1,7,2.1,3.29,1.05,3.29,2.1,3,1,3,2.1-14.72,1-14.72,2.1-3.23,1.05-3.23,2.1,13.48,1,13.48,2.1-5.15,1.05-5.15,2.1-3.93,1-3.93,2.1-1.65,1.05-1.65,2.1S399.3,335,399.3,336s-22.51,1.05-22.51,2.1,19.24,1.05,19.24,2.1-1.27,1.05-1.27,2.1-11.66,1.05-11.66,2.1.84,1.05.84,2.1,12.77,1.05,12.77,2.1S371,349.66,371,350.71s-1.43,1-1.43,2.1,29.8,1.05,29.8,2.1-22,1.05-22,2.1,20.33,1.05,20.33,2.1-23.83,1.05-23.83,2.1,19.1,1.05,19.1,2.1-15.46,1.05-15.46,2.1-1.62,1.05-1.62,2.1,10.17,1.05,10.17,2.1-9.8-4.54-10.84-3.77,8,8.46,6.62,8.46-1.4-4.47-2.79-4.47-1.4,9.08-2.79,9.08-1.4-13.08-2.8-13.08,5.36,2.07,4.42,1.36,6.17,3.47,6.17,2.42-9.37-1-9.37-2.1-18.63-1-18.63-2.1,15.07-1,15.07-2.1-8.57-1-8.57-2.1,20.93-1,20.93-2.1-23.9-1-23.9-2.1,20.76-1,20.76-2.1,3.24-1,3.24-2.1-2.13-1-2.13-2.1-14.62-1-14.62-2.1-7.46-1-7.46-2.1,22.3-1,22.3-2.1-13.36-1-13.36-2.1-8.8-1-8.8-2.1-3.73-1-3.73-2.1,23.9-1,23.9-2.1-6.11-1-6.11-2.1-.64-1-.64-2.1-1.28-1-1.28-2.1-10-1-10-2.1.79-1,.79-2.1-1.75-1.05-1.75-2.1-5.18-1-5.18-2.1,26.75-1,26.75-2.1-.65-1-.65-2.1-16.71-1-16.71-2.1-2.44-1-2.44-2.1,20-1,20-2.1-11.62-1-11.62-2.1-12.58-1-12.58-2.1,5.45-1,5.45-2.1,2.12-1,2.12-2.1,12.33-1,12.33-2.1-4.77-1-4.77-2.1-1.14-1-1.14-2.1,2.14-1.05,2.14-2.1,9.36-1,9.36-2.1-2.29-1-2.29-2.1-14.88-1-14.88-2.1,13.54-1.05,13.54-2.1-5-1-5-2.1,1.85-1,1.85-2.1-14.49-1.05-14.49-2.1,22.51-1,22.51-2.1,0-1.05,0-2.1-1.21-1-1.21-2.1S367.53,272,367.53,271s4.4-1.05,4.4-2.1,2.83-1.05,2.83-2.1-10.24-1.05-10.24-2.1,14.92-1.05,14.92-2.1-12.2-1.05-12.2-2.1,4.79-1.05,4.79-2.1,10.16-1.05,10.16-2.1.8-1.05.8-2.1.18-1,.18-2.1-19-1.05-19-2.1-2.35-1.05-2.35-2.1,19.72-1.05,19.72-2.1-6.09-1.05-6.09-2.1-18.78-1.05-18.78-2.1,14.61-1.05,14.61-2.1,14.42-1.05,14.42-2.1-21.59-1.05-21.59-2.1,17.49-8,16.42-8.79-11.43,14.76-12.94,14.76-1.51-2.78-3-2.78-1.51-9.51-3-9.51-1.51.06-3,.06-1.51,12-3,12-1.51,2.17-3,2.17-1.51-5.24-3-5.24-1.51,2.7-3,2.7-1.51-.51-3-.51-1.51-1.78-3-1.78-1.51-9-3-9-7.87,8.6-8.95,7.87,4.13-5.14,4.13-6.16,7.26-1,7.26-2-9.24-1-9.24-2,12.56-1,12.56-2-10.08-1-10.08-2-8.08-1-8.08-2,16.35.26,16.72-.73C342,219.4,335.14,218.79,336.22,218.07Z" transform="translate(-10.65 -205.09)"/><path class="5ed24518-f3bf-4437-8c18-b19cf5fcd09e" d="M438.71,219.87c1.11-.74-2.87,7.5-1.32,7.5s1.54-12.45,3.09-12.45,1.54,9.43,3.09,9.43,1.54.21,3.09.21S448.19,213,449.73,213s1.54,5.4,3.09,5.4,1.54,9.13,3.09,9.13,1.54-8.12,3.09-8.12,1.54,1.36,3.09,1.36,1.54-9.16,3.09-9.16,1.54-2.58,3.09-2.58,1.54,16.7,3.09,16.7,1.54-13.56,3.09-13.56,1.54,8.53,3.09,8.53,1.54,3.4,3.09,3.4,1.54-9.58,3.09-9.58,1.54-5.94,3.09-5.94,1.54,7.75,3.09,7.75,1.54,2.34,3.09,2.34,1.54-11.1,3.09-11.1,1.54,10.19,3.09,10.19,1.54-.45,3.09-.45,1.54-4.37,3.09-4.37,1.55-.71,3.09-.71S510,218,511.5,218s1.55,6.26,3.09,6.26,1.55-10.12,3.09-10.12,1.13,2.45,2.24,3.19-9.94.42-9.94,1.44-4.39,1-4.39,2,4,1,4,2,23,1,23,2,.45,1,.45,2-8.61,1-8.61,2-8,1-8,2,14.72,7.71,13.66,8.43-10.73-16.69-12.24-16.69-1.51,16-3,16-1.51,3.93-3,3.93-1.51-5.94-3-5.94-1.51-9-3-9-1.51,11.41-3,11.41-1.51-2.66-3-2.66-1.51-4.62-3-4.62-1.51,1.88-3,1.88-1.51-3.06-3-3.06-1.51-6.46-3-6.46-8.79,3.49-9.85,4.23,3.23,5.67,3.23,6.72,8.95,1,8.95,2.1-10.33,1-10.33,2.1,15,1,15,2.1-13.54,1-13.54,2.1,12.61,1,12.61,2.1-1.23,1-1.23,2.1-15,1-15,2.1S475,251,475,252s19.87,1,19.87,2.1-14.72,1-14.72,2.1-5.6,1-5.6,2.1-1.84,1-1.84,2.1,10.94,1,10.94,2.1-5,1-5,2.1,15.55,1,15.55,2.1-7.28,1-7.28,2.1,8,1,8,2.1-4.11,1-4.11,2.1-22,1-22,2.1,9.33,1,9.33,2.1-4.08,1-4.08,2.1.22,1.05.22,2.1,1.95,1,1.95,2.1,20.27,1,20.27,2.1.69,1,.69,2.1.63,1,.63,2.1-27.32,1-27.32,2.1,7.93,1,7.93,2.1,5.79,1,5.79,2.1-13.28,1-13.28,2.1,3.23,1,3.23,2.1-2.07,1-2.07,2.1,18.29,1,18.29,2.1-10.19,1-10.19,2.1,8.34,1,8.34,2.1,7.81,1.05,7.81,2.1-3.54,1-3.54,2.1-21.89,1-21.89,2.1.37,1,.37,2.1,18.31,1.05,18.31,2.1-17.25,1-17.25,2.1,25.72,1,25.72,2.1-4.87,1.05-4.87,2.1-21,1-21,2.1,26.91,1.05,26.91,2.1-24.18,1-24.18,2.1-1.32,1.05-1.32,2.1,18.19,1.05,18.19,2.1-9.9,1.05-9.9,2.1,2.82,1.05,2.82,2.1,7.69,1.05,7.69,2.1-16.44,1.05-16.44,2.1,17.41,1.05,17.41,2.1-3.83,1.05-3.83,2.1-12.24,1.05-12.24,2.1,1.52,1,1.52,2.1-2.64,1.05-2.64,2.1-6.61,1.05-6.61,2.1,15.73,1.05,15.73,2.1,11.22,1.05,11.22,2.1-1.76,1.05-1.76,2.1-3.34,1.05-3.34,2.1-19.43,1.05-19.43,2.1,25.08,1.05,25.08,2.1-2.13,7.14-3.16,7.92S483.12,364,481.73,364s-1.4,6.89-2.79,6.89-1.4-7.91-2.79-7.91-1.4,17.9-2.8,17.9,5.76-13.16,4.82-13.87-2.29,3.72-2.29,2.67-10.08-1-10.08-2.1-4.36-1-4.36-2.1,8.47-1,8.47-2.1,13.73-1,13.73-2.1-25.41-1-25.41-2.1,10.16-1,10.16-2.1,2.64-1,2.64-2.1,15.32-1,15.32-2.1-12.67-1-12.67-2.1-14-1-14-2.1,2.23-1,2.23-2.1,24-1,24-2.1-13.81-1-13.81-2.1-1.5-1-1.5-2.1.14-1,.14-2.1-15.51-1-15.51-2.1,27.81-1,27.81-2.1-2.91-1-2.91-2.1,6-1,6-2.1-30.38-1-30.38-2.1-.34-1-.34-2.1,19.47-1.05,19.47-2.1-13.82-1-13.82-2.1,6.85-1,6.85-2.1,18.28-1,18.28-2.1-28.85-1-28.85-2.1,29-1,29-2.1-30-1-30-2.1,25.5-1,25.5-2.1-13.27-1-13.27-2.1-5.87-1-5.87-2.1,15.49-1,15.49-2.1-4.69-1-4.69-2.1-15.66-1-15.66-2.1,28.42-1,28.42-2.1S470,295.1,470,294.05s11.25-1,11.25-2.1-.33-1-.33-2.1,4.38-1,4.38-2.1-13.58-1.05-13.58-2.1,12.86-1,12.86-2.1-25.6-1-25.6-2.1,22.39-1.05,22.39-2.1-1.53-1-1.53-2.1-9.68-1.05-9.68-2.1,15.52-1,15.52-2.1S456.23,272,456.23,271s10.29-1.05,10.29-2.1,14.19-1.05,14.19-2.1-9.64-1.05-9.64-2.1-2.41-1.05-2.41-2.1,16-1.05,16-2.1-6.53-1.05-6.53-2.1-19.64-1.05-19.64-2.1,19.83-1.05,19.83-2.1.09-1,.09-2.1,4.46-1.05,4.46-2.1-16.66-1.05-16.66-2.1-9.14-1.05-9.14-2.1,21-1.05,21-2.1,7.78-1.05,7.78-2.1-23.91-1.05-23.91-2.1,4.39-1.05,4.39-2.1,16.08-1.05,16.08-2.1-12.36-.27-13.44-1,.09,5.26-1.42,5.26-1.51,2.26-3,2.26-1.51,2.05-3,2.05-1.51-10.09-3-10.09-1.51-2.21-3-2.21-1.51,9.24-3,9.24-1.51-3.53-3-3.53-1.51-2.69-3-2.69-1.51-1.13-3-1.13-1.51,9.87-3,9.87-1.51-15.43-3-15.43-10,11.65-11.07,10.92-2.14-6.61-2.14-7.64,11.66-1,11.66-2-.84-1-.84-2-12.77-1-12.77-2,25.74-1,25.74-2,1.43-1,1.43-2-18.24-12-16.75-12.1C435,208.56,437.63,220.59,438.71,219.87Z" transform="translate(-10.65 -205.09)"/><path class="7bbeabac-b4c5-42a4-b73a-fba5cf4508e4" d="M438.71,219.87c1.11-.74-2.87,7.5-1.32,7.5s1.54-12.45,3.09-12.45,1.54,9.43,3.09,9.43,1.54.21,3.09.21S448.19,213,449.73,213s1.54,5.4,3.09,5.4,1.54,9.13,3.09,9.13,1.54-8.12,3.09-8.12,1.54,1.36,3.09,1.36,1.54-9.16,3.09-9.16,1.54-2.58,3.09-2.58,1.54,16.7,3.09,16.7,1.54-13.56,3.09-13.56,1.54,8.53,3.09,8.53,1.54,3.4,3.09,3.4,1.54-9.58,3.09-9.58,1.54-5.94,3.09-5.94,1.54,7.75,3.09,7.75,1.54,2.34,3.09,2.34,1.54-11.1,3.09-11.1,1.54,10.19,3.09,10.19,1.54-.45,3.09-.45,1.54-4.37,3.09-4.37,1.55-.71,3.09-.71S510,218,511.5,218s1.55,6.26,3.09,6.26,1.55-10.12,3.09-10.12,1.13,2.45,2.24,3.19-9.94.42-9.94,1.44-4.39,1-4.39,2,4,1,4,2,23,1,23,2,.45,1,.45,2-8.61,1-8.61,2-8,1-8,2,14.72,7.71,13.66,8.43-10.73-16.69-12.24-16.69-1.51,16-3,16-1.51,3.93-3,3.93-1.51-5.94-3-5.94-1.51-9-3-9-1.51,11.41-3,11.41-1.51-2.66-3-2.66-1.51-4.62-3-4.62-1.51,1.88-3,1.88-1.51-3.06-3-3.06-1.51-6.46-3-6.46-8.79,3.49-9.85,4.23,3.23,5.67,3.23,6.72,8.95,1,8.95,2.1-10.33,1-10.33,2.1,15,1,15,2.1-13.54,1-13.54,2.1,12.61,1,12.61,2.1-1.23,1-1.23,2.1-15,1-15,2.1S475,251,475,252s19.87,1,19.87,2.1-14.72,1-14.72,2.1-5.6,1-5.6,2.1-1.84,1-1.84,2.1,10.94,1,10.94,2.1-5,1-5,2.1,15.55,1,15.55,2.1-7.28,1-7.28,2.1,8,1,8,2.1-4.11,1-4.11,2.1-22,1-22,2.1,9.33,1,9.33,2.1-4.08,1-4.08,2.1.22,1.05.22,2.1,1.95,1,1.95,2.1,20.27,1,20.27,2.1.69,1,.69,2.1.63,1,.63,2.1-27.32,1-27.32,2.1,7.93,1,7.93,2.1,5.79,1,5.79,2.1-13.28,1-13.28,2.1,3.23,1,3.23,2.1-2.07,1-2.07,2.1,18.29,1,18.29,2.1-10.19,1-10.19,2.1,8.34,1,8.34,2.1,7.81,1.05,7.81,2.1-3.54,1-3.54,2.1-21.89,1-21.89,2.1.37,1,.37,2.1,18.31,1.05,18.31,2.1-17.25,1-17.25,2.1,25.72,1,25.72,2.1-4.87,1.05-4.87,2.1-21,1-21,2.1,26.91,1.05,26.91,2.1-24.18,1-24.18,2.1-1.32,1.05-1.32,2.1,18.19,1.05,18.19,2.1-9.9,1.05-9.9,2.1,2.82,1.05,2.82,2.1,7.69,1.05,7.69,2.1-16.44,1.05-16.44,2.1,17.41,1.05,17.41,2.1-3.83,1.05-3.83,2.1-12.24,1.05-12.24,2.1,1.52,1,1.52,2.1-2.64,1.05-2.64,2.1-6.61,1.05-6.61,2.1,15.73,1.05,15.73,2.1,11.22,1.05,11.22,2.1-1.76,1.05-1.76,2.1-3.34,1.05-3.34,2.1-19.43,1.05-19.43,2.1,25.08,1.05,25.08,2.1-2.13,7.14-3.16,7.92S483.12,364,481.73,364s-1.4,6.89-2.79,6.89-1.4-7.91-2.79-7.91-1.4,17.9-2.8,17.9,5.76-13.16,4.82-13.87-2.29,3.72-2.29,2.67-10.08-1-10.08-2.1-4.36-1-4.36-2.1,8.47-1,8.47-2.1,13.73-1,13.73-2.1-25.41-1-25.41-2.1,10.16-1,10.16-2.1,2.64-1,2.64-2.1,15.32-1,15.32-2.1-12.67-1-12.67-2.1-14-1-14-2.1,2.23-1,2.23-2.1,24-1,24-2.1-13.81-1-13.81-2.1-1.5-1-1.5-2.1.14-1,.14-2.1-15.51-1-15.51-2.1,27.81-1,27.81-2.1-2.91-1-2.91-2.1,6-1,6-2.1-30.38-1-30.38-2.1-.34-1-.34-2.1,19.47-1.05,19.47-2.1-13.82-1-13.82-2.1,6.85-1,6.85-2.1,18.28-1,18.28-2.1-28.85-1-28.85-2.1,29-1,29-2.1-30-1-30-2.1,25.5-1,25.5-2.1-13.27-1-13.27-2.1-5.87-1-5.87-2.1,15.49-1,15.49-2.1-4.69-1-4.69-2.1-15.66-1-15.66-2.1,28.42-1,28.42-2.1S470,295.1,470,294.05s11.25-1,11.25-2.1-.33-1-.33-2.1,4.38-1,4.38-2.1-13.58-1.05-13.58-2.1,12.86-1,12.86-2.1-25.6-1-25.6-2.1,22.39-1.05,22.39-2.1-1.53-1-1.53-2.1-9.68-1.05-9.68-2.1,15.52-1,15.52-2.1S456.23,272,456.23,271s10.29-1.05,10.29-2.1,14.19-1.05,14.19-2.1-9.64-1.05-9.64-2.1-2.41-1.05-2.41-2.1,16-1.05,16-2.1-6.53-1.05-6.53-2.1-19.64-1.05-19.64-2.1,19.83-1.05,19.83-2.1.09-1,.09-2.1,4.46-1.05,4.46-2.1-16.66-1.05-16.66-2.1-9.14-1.05-9.14-2.1,21-1.05,21-2.1,7.78-1.05,7.78-2.1-23.91-1.05-23.91-2.1,4.39-1.05,4.39-2.1,16.08-1.05,16.08-2.1-12.36-.27-13.44-1,.09,5.26-1.42,5.26-1.51,2.26-3,2.26-1.51,2.05-3,2.05-1.51-10.09-3-10.09-1.51-2.21-3-2.21-1.51,9.24-3,9.24-1.51-3.53-3-3.53-1.51-2.69-3-2.69-1.51-1.13-3-1.13-1.51,9.87-3,9.87-1.51-15.43-3-15.43-10,11.65-11.07,10.92-2.14-6.61-2.14-7.64,11.66-1,11.66-2-.84-1-.84-2-12.77-1-12.77-2,25.74-1,25.74-2,1.43-1,1.43-2-18.24-12-16.75-12.1C435,208.56,437.63,220.59,438.71,219.87Z" transform="translate(-10.65 -205.09)"/><path class="5ed24518-f3bf-4437-8c18-b19cf5fcd09e" d="M538.91,214.73c1.07-.74,4.5-2.32,6-2.32s1.52,12.31,3,12.31,1.52,2.61,3,2.61,1.52-15.4,3-15.4,1.52-1.8,3-1.8,1.52,16.69,3,16.69,1.52-7.48,3-7.48,1.52-2.15,3-2.15,1.52-4,3-4,1.52,2,3,2,1.52.13,3,.13,1.52-8.16,3-8.16,1.52,2.52,3,2.52,1.52,8.67,3,8.67,1.52-7.88,3-7.88,1.52,3.21,3,3.21,1.52-.54,3-.54,1.52-4.65,3-4.65,1.52,10.28,3,10.28,1.52-8.2,3-8.2,1.52,16.23,3,16.23,1.52-12.3,3-12.3,1.52.81,3,.81,4.84-1.3,5.93-.57-6.57,3-6.57,4.06-7.28,1-7.28,2,13.12,1,13.12,2,4.61,1,4.61,2,6.22,1,6.22,2-25.82,1-25.82,2,19.43,1,19.43,2-14.54-5.08-15.61-4.37,7.49,13,5.94,13-1.55-14.29-3.1-14.29-1.55,16.3-3.1,16.3-1.55-14.38-3.1-14.38-1.55-3.67-3.1-3.67-1.55,4.3-3.1,4.3-1.55,12.15-3.1,12.15-1.55-1-3.1-1-1.55,3.62-3.1,3.62-1.55-19.49-3.1-19.49-1.55,19.42-3.1,19.42-1.55-5.18-3.1-5.18-1.55-3.07-3.1-3.07-1.55-3.37-3.1-3.37-1.55-7-3.1-7-1.55,2.31-3.1,2.31-1.55,11-3.1,11-1.55,3.78-3.1,3.78,8-1.83,6.85-1.09-2.17-5.89-2.17-4.84-14,1-14,2.09,4.62,1,4.62,2.09-5.34,1-5.34,2.09,16,1,16,2.09.23,1,.23,2.09-10.14,1-10.14,2.09,16.42,1,16.42,2.09-21.52,1-21.52,2.09,8.27,1,8.27,2.09-9.23,1-9.23,2.09-8.16,1-8.16,2.09,26.41,1,26.41,2.09,2,1,2,2.09-22.68,1-22.68,2.09.8,1,.8,2.09,3.73,1,3.73,2.09,11,1,11,2.09.58,1,.58,2.09-21,1-21,2.09-1,1-1,2.09,28.76,1,28.76,2.1-24,1-24,2.1,4.42,4.68,5.49,5.43,6.44,5.38,7.94,5.38,1.51-15.71,3-15.71,1.51,16.51,3,16.51,1.51-13.39,3-13.39,1.51,7.72,3,7.72,1.51,3,3,3,1.51,1.08,3,1.08,1.51-13,3-13,1.5,15.07,3,15.07,1.51-17.43,3-17.43,1.51,10.66,3,10.66,1.51-.18,3-.18,1.51-13.6,3-13.6,1.51,20.38,3,20.38,1.51.26,3,.26,1.51-16,3-16,1.51,7.64,3,7.64.16-1.17,1.23-.45-9.11-.21-9.11.81,7.19,1,7.19,2,12.3,1,12.3,2-10,1-10,2-10.53,1-10.53,2,25.39,1,25.39,2-15.34,1-15.34,2-5.14-4.21-6.2-3.49,6.52-4.5,5-4.5-1.51,13.85-3,13.85-1.51,6.05-3,6.05-1.51-6.36-3-6.36-1.51,1.71-3,1.71-1.51,4.55-3,4.55-1.51-19.46-3-19.46-1.51,16.5-3,16.5-1.5-3.61-3-3.61-1.51,2.46-3,2.46-1.51,4.22-3,4.22-1.51-19.23-3-19.23-1.51,13.85-3,13.85-1.51,2.75-3,2.75-1.51-9.71-3-9.71-1.51,10.62-3,10.62-1.51-9.79-3-9.79,5.09,5.76,4,6.48S558,300.8,558,301.83s-11.18,1-11.18,2.06,4.29,1,4.29,2.06,18.3,1,18.3,2.06-4,1-4,2.06,3.89,1,3.89,2.06.13,1,.13,2.06-2.06,1-2.06,2.06-1.23,1-1.23,2.06,1.14,1,1.14,2.06-22.85,1-22.85,2.06,1.84,1,1.84,2.06,11.68,1,11.68,2.06-5.86,1-5.86,2.06,13.16,1,13.16,2.06-22.29,1-22.29,2.06,12.49,1,12.49,2.06-8.45,1-8.45,2.06,23.44,1,23.44,2.06-11.49,1-11.49,2.06S544.7,342,544.7,343s3.9,1,3.9,2.06,1.69,1,1.69,2.06-1,1-1,2.06-4.38,1-4.38,2.06,4.62,1,4.62,2.06-5.74,8.78-4.69,9.52,12.51-9.29,14-9.29,1.48,9.43,3,9.43,1.48.21,3,.21,1.48-11.61,3-11.61,1.48,5.4,3,5.4,1.48,9.13,3,9.13,1.48-8.12,3-8.12,1.48,1.36,3,1.36,1.48-9.16,3-9.16,1.48-2.58,3-2.58,1.48,16.7,3,16.7,1.48-13.56,3-13.56,1.48,8.53,3,8.53,1.48,3.4,3,3.4,1.48-9.58,3-9.58,1.48-5.94,3-5.94,1.48,7.75,3,7.75,1.49,2.34,3,2.34,1.49-11.1,3-11.1.93,9.18,2,9.91.26.35.26,1.37,6.38,1,6.38,2,1,1,1,2-8.55,1-8.55,2-9.13,1-9.13,2,14.77,1,14.77,2-5,1-5,2-5.25-3.95-6.32-3.23,6-5.12,4.49-5.12-1.53,2.72-3.05,2.72-1.53,15.74-3.05,15.74-1.53.31-3.06.31-1.53-5.9-3.05-5.9-1.53-5.51-3.05-5.51-1.53,12-3.05,12-1.53-19.29-3.06-19.29-1.53,16-3.05,16-1.53,3.93-3.06,3.93-1.53-5.94-3.06-5.94-1.53-9-3.06-9-1.53,11.41-3.06,11.41-1.53-2.66-3.06-2.66-1.53-4.62-3.05-4.62-1.53,1.88-3.05,1.88-1.53-3.06-3.06-3.06-1.53-6.46-3.06-6.46-1.53,2.27-3.06,2.27-1.53,4.12-3.06,4.12-1.53,6.13-3.06,6.13-1.53-7.08-3.06-7.08S546.48,378.6,545,378.6s.51-7.84-.57-8.58-11.57.66-11.57-.38,1.23-1,1.23-2.09,15-1,15-2.09,2.38-1,2.38-2.09-19.87-1-19.87-2.09,14.72-1,14.72-2.09,5.6-1,5.6-2.09,1.84-1,1.84-2.09-10.94-1-10.94-2.09,5-1,5-2.09-15.55-1-15.55-2.09,7.28-1,7.28-2.09-8-1-8-2.09,4.11-1,4.11-2.09,22-1,22-2.09-9.33-1-9.33-2.09,4.08-1,4.08-2.09-.22-1-.22-2.09-1.95-1-1.95-2.09-20.27-1-20.27-2.09-.69-1-.69-2.09-.63-1-.63-2.09,27.32-1,27.32-2.09-7.93-1-7.93-2.09-5.79-1-5.79-2.09,13.28-1,13.28-2.09-3.23-1-3.23-2.09,2.07-1,2.07-2.09S536,312.06,536,311s10.19-1,10.19-2.09-8.34-1-8.34-2.09-7.81-1-7.81-2.09,3.54-1,3.54-2.09,21.89-1,21.89-2.09-.37-1-.37-2.09-18.31-1-18.31-2.09,17.25-1,17.25-2.09-25.72-1-25.72-2.09,4.87-1,4.87-2.09,21-1,21-2.09-26.91-1-26.91-2.09,24.18-1,24.18-2.09,1.32-1,1.32-2.09-18.19-1-18.19-2.09,9.9-1,9.9-2.09-2.82-1-2.82-2.09-7.69-1-7.69-2.09,16.44-1,16.44-2.09-17.41-1-17.41-2.09,3.83-1,3.83-2.09,12.24-1,12.24-2.09-1.52-1-1.52-2.09,2.64-1,2.64-2.09,6.61-1,6.61-2.09-15.73-1-15.73-2.09-11.22-1-11.22-2.09,1.76-1,1.76-2.09,3.34-1,3.34-2.1,19.43-1,19.43-2.09-25.08-1-25.08-2.1-.12-1-.12-2.1,23.95-1,23.95-2.1-10-1-10-2.1,11.54-1,11.54-2.09-26.11-1-26.11-2.09,23.59-1,23.59-2.09-5-1-5-2.1-10.08-1-10.08-2.1-4.36-1-4.36-2.1,8.47-1,8.47-2.1,13.73-1,13.73-2.1-25.41-1-25.41-2.1,11.09-.49,10.4-1.42C538.38,217.4,537.84,215.48,538.91,214.73Z" transform="translate(-10.65 -205.09)"/><path class="7bbeabac-b4c5-42a4-b73a-fba5cf4508e4" d="M538.91,214.73c1.07-.74,4.5-2.32,6-2.32s1.52,12.31,3,12.31,1.52,2.61,3,2.61,1.52-15.4,3-15.4,1.52-1.8,3-1.8,1.52,16.69,3,16.69,1.52-7.48,3-7.48,1.52-2.15,3-2.15,1.52-4,3-4,1.52,2,3,2,1.52.13,3,.13,1.52-8.16,3-8.16,1.52,2.52,3,2.52,1.52,8.67,3,8.67,1.52-7.88,3-7.88,1.52,3.21,3,3.21,1.52-.54,3-.54,1.52-4.65,3-4.65,1.52,10.28,3,10.28,1.52-8.2,3-8.2,1.52,16.23,3,16.23,1.52-12.3,3-12.3,1.52.81,3,.81,4.84-1.3,5.93-.57-6.57,3-6.57,4.06-7.28,1-7.28,2,13.12,1,13.12,2,4.61,1,4.61,2,6.22,1,6.22,2-25.82,1-25.82,2,19.43,1,19.43,2-14.54-5.08-15.61-4.37,7.49,13,5.94,13-1.55-14.29-3.1-14.29-1.55,16.3-3.1,16.3-1.55-14.38-3.1-14.38-1.55-3.67-3.1-3.67-1.55,4.3-3.1,4.3-1.55,12.15-3.1,12.15-1.55-1-3.1-1-1.55,3.62-3.1,3.62-1.55-19.49-3.1-19.49-1.55,19.42-3.1,19.42-1.55-5.18-3.1-5.18-1.55-3.07-3.1-3.07-1.55-3.37-3.1-3.37-1.55-7-3.1-7-1.55,2.31-3.1,2.31-1.55,11-3.1,11-1.55,3.78-3.1,3.78,8-1.83,6.85-1.09-2.17-5.89-2.17-4.84-14,1-14,2.09,4.62,1,4.62,2.09-5.34,1-5.34,2.09,16,1,16,2.09.23,1,.23,2.09-10.14,1-10.14,2.09,16.42,1,16.42,2.09-21.52,1-21.52,2.09,8.27,1,8.27,2.09-9.23,1-9.23,2.09-8.16,1-8.16,2.09,26.41,1,26.41,2.09,2,1,2,2.09-22.68,1-22.68,2.09.8,1,.8,2.09,3.73,1,3.73,2.09,11,1,11,2.09.58,1,.58,2.09-21,1-21,2.09-1,1-1,2.09,28.76,1,28.76,2.1-24,1-24,2.1,4.42,4.68,5.49,5.43,6.44,5.38,7.94,5.38,1.51-15.71,3-15.71,1.51,16.51,3,16.51,1.51-13.39,3-13.39,1.51,7.72,3,7.72,1.51,3,3,3,1.51,1.08,3,1.08,1.51-13,3-13,1.5,15.07,3,15.07,1.51-17.43,3-17.43,1.51,10.66,3,10.66,1.51-.18,3-.18,1.51-13.6,3-13.6,1.51,20.38,3,20.38,1.51.26,3,.26,1.51-16,3-16,1.51,7.64,3,7.64.16-1.17,1.23-.45-9.11-.21-9.11.81,7.19,1,7.19,2,12.3,1,12.3,2-10,1-10,2-10.53,1-10.53,2,25.39,1,25.39,2-15.34,1-15.34,2-5.14-4.21-6.2-3.49,6.52-4.5,5-4.5-1.51,13.85-3,13.85-1.51,6.05-3,6.05-1.51-6.36-3-6.36-1.51,1.71-3,1.71-1.51,4.55-3,4.55-1.51-19.46-3-19.46-1.51,16.5-3,16.5-1.5-3.61-3-3.61-1.51,2.46-3,2.46-1.51,4.22-3,4.22-1.51-19.23-3-19.23-1.51,13.85-3,13.85-1.51,2.75-3,2.75-1.51-9.71-3-9.71-1.51,10.62-3,10.62-1.51-9.79-3-9.79,5.09,5.76,4,6.48S558,300.8,558,301.83s-11.18,1-11.18,2.06,4.29,1,4.29,2.06,18.3,1,18.3,2.06-4,1-4,2.06,3.89,1,3.89,2.06.13,1,.13,2.06-2.06,1-2.06,2.06-1.23,1-1.23,2.06,1.14,1,1.14,2.06-22.85,1-22.85,2.06,1.84,1,1.84,2.06,11.68,1,11.68,2.06-5.86,1-5.86,2.06,13.16,1,13.16,2.06-22.29,1-22.29,2.06,12.49,1,12.49,2.06-8.45,1-8.45,2.06,23.44,1,23.44,2.06-11.49,1-11.49,2.06S544.7,342,544.7,343s3.9,1,3.9,2.06,1.69,1,1.69,2.06-1,1-1,2.06-4.38,1-4.38,2.06,4.62,1,4.62,2.06-5.74,8.78-4.69,9.52,12.51-9.29,14-9.29,1.48,9.43,3,9.43,1.48.21,3,.21,1.48-11.61,3-11.61,1.48,5.4,3,5.4,1.48,9.13,3,9.13,1.48-8.12,3-8.12,1.48,1.36,3,1.36,1.48-9.16,3-9.16,1.48-2.58,3-2.58,1.48,16.7,3,16.7,1.48-13.56,3-13.56,1.48,8.53,3,8.53,1.48,3.4,3,3.4,1.48-9.58,3-9.58,1.48-5.94,3-5.94,1.48,7.75,3,7.75,1.49,2.34,3,2.34,1.49-11.1,3-11.1.93,9.18,2,9.91.26.35.26,1.37,6.38,1,6.38,2,1,1,1,2-8.55,1-8.55,2-9.13,1-9.13,2,14.77,1,14.77,2-5,1-5,2-5.25-3.95-6.32-3.23,6-5.12,4.49-5.12-1.53,2.72-3.05,2.72-1.53,15.74-3.05,15.74-1.53.31-3.06.31-1.53-5.9-3.05-5.9-1.53-5.51-3.05-5.51-1.53,12-3.05,12-1.53-19.29-3.06-19.29-1.53,16-3.05,16-1.53,3.93-3.06,3.93-1.53-5.94-3.06-5.94-1.53-9-3.06-9-1.53,11.41-3.06,11.41-1.53-2.66-3.06-2.66-1.53-4.62-3.05-4.62-1.53,1.88-3.05,1.88-1.53-3.06-3.06-3.06-1.53-6.46-3.06-6.46-1.53,2.27-3.06,2.27-1.53,4.12-3.06,4.12-1.53,6.13-3.06,6.13-1.53-7.08-3.06-7.08S546.48,378.6,545,378.6s.51-7.84-.57-8.58-11.57.66-11.57-.38,1.23-1,1.23-2.09,15-1,15-2.09,2.38-1,2.38-2.09-19.87-1-19.87-2.09,14.72-1,14.72-2.09,5.6-1,5.6-2.09,1.84-1,1.84-2.09-10.94-1-10.94-2.09,5-1,5-2.09-15.55-1-15.55-2.09,7.28-1,7.28-2.09-8-1-8-2.09,4.11-1,4.11-2.09,22-1,22-2.09-9.33-1-9.33-2.09,4.08-1,4.08-2.09-.22-1-.22-2.09-1.95-1-1.95-2.09-20.27-1-20.27-2.09-.69-1-.69-2.09-.63-1-.63-2.09,27.32-1,27.32-2.09-7.93-1-7.93-2.09-5.79-1-5.79-2.09,13.28-1,13.28-2.09-3.23-1-3.23-2.09,2.07-1,2.07-2.09S536,312.06,536,311s10.19-1,10.19-2.09-8.34-1-8.34-2.09-7.81-1-7.81-2.09,3.54-1,3.54-2.09,21.89-1,21.89-2.09-.37-1-.37-2.09-18.31-1-18.31-2.09,17.25-1,17.25-2.09-25.72-1-25.72-2.09,4.87-1,4.87-2.09,21-1,21-2.09-26.91-1-26.91-2.09,24.18-1,24.18-2.09,1.32-1,1.32-2.09-18.19-1-18.19-2.09,9.9-1,9.9-2.09-2.82-1-2.82-2.09-7.69-1-7.69-2.09,16.44-1,16.44-2.09-17.41-1-17.41-2.09,3.83-1,3.83-2.09,12.24-1,12.24-2.09-1.52-1-1.52-2.09,2.64-1,2.64-2.09,6.61-1,6.61-2.09-15.73-1-15.73-2.09-11.22-1-11.22-2.09,1.76-1,1.76-2.09,3.34-1,3.34-2.1,19.43-1,19.43-2.09-25.08-1-25.08-2.1-.12-1-.12-2.1,23.95-1,23.95-2.1-10-1-10-2.1,11.54-1,11.54-2.09-26.11-1-26.11-2.09,23.59-1,23.59-2.09-5-1-5-2.1-10.08-1-10.08-2.1-4.36-1-4.36-2.1,8.47-1,8.47-2.1,13.73-1,13.73-2.1-25.41-1-25.41-2.1,11.09-.49,10.4-1.42C538.38,217.4,537.84,215.48,538.91,214.73Z" transform="translate(-10.65 -205.09)"/><path class="5ed24518-f3bf-4437-8c18-b19cf5fcd09e" d="M678,307.9c-1.16-.61,2.44-1,1-1s-1.46,5.55-2.92,5.55S674.62,300,673.16,300s-1.46,4.34-2.92,4.34-1.46,4.68-2.92,4.68-1.46-6-2.92-6-1.46-3-2.92-3-1.46,14.73-2.92,14.73-11.88-17.56-12.89-16.84,7.09,7.56,7.09,8.62,7.73,1.05,7.73,2.1-7.57,1.05-7.57,2.1-9.81,1.05-9.81,2.1,13.67,1.05,13.67,2.1S645.13,316,645.13,317s6.45,1.05,6.45,2.1-2.49,1.05-2.49,2.1,15.84,1.05,15.84,2.1-1,1.05-1,2.1-20.17,1.05-20.17,2.1,21.16,1.05,21.16,2.1-17.79,1.05-17.79,2.1-6.37,1.05-6.37,2.1,23.16,1.05,23.16,2.1-1,1.05-1,2.1.31,1.05.31,2.1-12.69,1.05-12.69,2.1-7.7,1.05-7.7,2.1-.76,1.05-.76,2.1,2.43,1.05,2.43,2.1,19.24,1.05,19.24,2.1-22.21,1.05-22.21,2.1,19.82,1.05,19.82,2.1-3.27,1.05-3.27,2.1.62,1.05.62,2.1,3.71,1.05,3.71,2.1-5.36,1.05-5.36,2.1-3.59,1.05-3.59,2.1,13.4,1.05,13.4,2.11-7.61,1.05-7.61,2.11,2.9,4.73,1.86,5.51-6.86,6.5-8.25,6.5-1.4-14-2.79-14-1.4,4.63-2.79,4.63-1.4-9.11-2.8-9.11-7.85,13-8.8,12.34,2.75-4.81,2.75-5.86,9-1,9-2.09.69-1,.69-2.09,3.67-1,3.67-2.09,5.31-1,5.31-2.09-2.6-1-2.6-2.09,2.1-1,2.1-2.09-30.15-1-30.15-2.09,21.63-1,21.63-2.09,2.11-1,2.11-2.09-.8-1-.8-2.09,3-1,3-2.09-4.33-1-4.33-2.09-6.29-1-6.29-2.09,9.52-1,9.52-2.09-6.61-1-6.61-2.09-7.34-1-7.34-2.09-8.38-1-8.38-2.09,4.42-1,4.42-2.09,24.1-1,24.1-2.09-8.72-1-8.72-2.09-4.73-1-4.73-2.09-.48-1-.48-2.09-7.27-1-7.27-2.09,14.27-1,14.27-2.09-2.3-1-2.3-2.09,4.91-1,4.91-2.09-2-1-2-2.09,2.07-1,2.07-2.09-25.43-1-25.43-2.09,28.94-1,28.94-2.09-8.2-1-8.2-2.09,3.26-1,3.26-2.09-4.78-1-4.78-2.09-18.52-1-18.52-2.09,13.55-1,13.55-2.09-10.68-1-10.68-2.09.49-1,.49-2.09,18.48-1,18.48-2.09-16.55-1-16.55-2.09-5.85-1-5.85-2.09,27-1,27-2.09-29.06-1-29.06-2.09,22.63-1,22.63-2.09-19.21-1-19.21-2.09,11.31-1,11.31-2.09,14.38-1,14.38-2.09-8.73-1-8.73-2.09,9.1-1,9.1-2.09-15.19-1-15.19-2.09-12.49-1-12.49-2.09,5.33-1,5.33-2.09,12-1,12-2.09-16.65-1-16.65-2.09,22.68-1,22.68-2.09-11-1-11-2.09,7-1,7-2.09,7.28-1,7.28-2.1-8.37-1-8.37-2.09-8-1-8-2.1-12-1-12-2.1,20.45-1,20.45-2.1-13.95-1-13.95-2.1-6.11-1-6.11-2.09,6.56-1,6.56-2.09,7.78-1,7.78-2.09,1.25-1,1.25-2.1,6.29-1,6.29-2.1,4.71-1,4.71-2.1-15.41-1-15.41-2.1-2.14-1-2.14-2.1,18-1,18-2.1,3.81-1,3.81-2.1-21.46-4.79-20.37-5.53,6.5-3.19,8-3.19,1.55,16.69,3.09,16.69,1.55-7.48,3.09-7.48,1.55-2.15,3.09-2.15,1.55-4,3.09-4,1.55,2,3.09,2,1.55.13,3.09.13,1.55-8.16,3.09-8.16,1.55,2.52,3.09,2.52,1.55,8.67,3.09,8.67,1.55-7.88,3.09-7.88,1.55,3.21,3.09,3.21,1.55-.54,3.09-.54,1.55-4.65,3.1-4.65,1.55,10.28,3.1,10.28c1,0,3-8.13,4-8.05s-2.14,16.14-1.16,16.29,6.23-11.6,7.18-11.37,1.72,1.32,2.64,1.62,3-.47,3.91-.1-2.71,5.17-1.9,5.59-3.63,4.39-2.87,4.86S710.31,222,711,222.54s5-.84,5.68-.29,6.62-1.06,7.2-.48-20.63,10.69-20.1,11.29,17.86-5.43,18.34-4.8-16.72,7.06-16.29,7.7,21.56-5,22-4.33-18.73,6.37-18.39,7,23.2-3.89,23.5-3.22-19.51,5.45-19.23,6.12-4.76,2-4.52,2.68,6.5.18,6.71.87,17.81-.9,18-.21-1,1.7-.89,2.39,5.56,1.1,5.68,1.79-28,3.43-27.94,4.12,28.41-.2,28.48.5-7.41,1.84-7.36,2.53-4.39,1.55-4.37,2.25-4.89,1.41-4.89,2.11-10.24,1.18-10.26,1.87,3.32,1.28,3.28,2,15.86,2,15.79,2.67,5.33,1.85,5.23,2.53,2.24,1.8,2.11,2.47-6.65,1-6.8,1.66-14.15-.18-14.32.49,4.18,1.89,4,2.56-5.61.45-5.84,1.11,14.94,4.16,14.67,4.82-.45,1.6-.75,2.25-10.28-.84-10.62-.2,14.46,5.59,14.08,6.22-20.56-4.55-21-3.94,6.55,3.73,6.08,4.33-8.94-2-9.45-1.4-7.57-2.24-8.13-1.68,20.13,11.82,19.51,12.35-.35,2.42-1,2.92-17.6-9.86-18.33-9.39-.4,1-1.18,1.41,1,2.66.21,3,3.71,7.29,2.82,7.6,2.12-3.06,1.19-2.81c0,1-20,3.62-19.53,4.62s-.51,1.19-.08,2.2,28-4.51,28.46-3.51-22.61,5.61-22.18,6.62,3.79.33,4.22,1.34-5.12,2.11-4.69,3.12,22.43-3.39,22.86-2.39-22.69,5.63-22.27,6.63,19.19-2.74,19.61-1.74-10.38,3.17-10,4.17-3.73,1.84-3.31,2.84-1.08,1.31-.66,2.31S714.93,327,715.35,328s-20.68,5.23-20.26,6.23,24.83-3.87,25.26-2.87-14.5,4-14.07,5,.68,1,1.11,2,19.47-2.8,19.9-1.79-28.12,6.71-27.69,7.72.07,1.08.49,2.08,22.85-3.48,23.28-2.47S713.1,347,713.52,348s.35,1,.78,2-7.6,2.61-7.17,3.62,7.33-.37,7.76.63,12.24-1.36,12.67-.35-9.13,2.92-8.7,3.92-9.68,3-9.25,4,24.81-3.87,25.24-2.86-14.3,4-13.87,5-8.75,2.84-8.32,3.85-2.7,1.63-2.27,2.64,19.82-2.87,20.25-1.86,7.85,8.27,6.92,9.1-12.95-2.52-14.51-2.52-1.56,1.71-3.12,1.71-1.56,4.55-3.13,4.55S715.21,362,713.65,362s-7.7,15.83-9,15.2.94-5.6.52-6.59-3.86-.3-4.28-1.29-6.33.19-6.75-.8,26.52-6.37,26.1-7.36-19.82,2.89-20.24,1.9-4.27-.22-4.69-1.21,13.18-3.7,12.76-4.69-15.3,2-15.72,1,13.29-3.73,12.87-4.72-12.29,1.38-12.71.39,7.12-2.49,6.7-3.48,10.32-3.13,9.89-4.12-4.54-.17-5-1.16-18,2.52-18.42,1.53,3.41-1.75,3-2.74-4.15-.24-4.57-1.23-.54-1-1-2,1.56-1.38,1.14-2.37.76-1.23.34-2.22-1.51-.77-1.93-1.76,21.52-5.37,21.1-6.36-2.18-.64-2.61-1.63-11.63,1.25-12.05.26,5.2-2.11,4.78-3.1-13.06,1.53-13.48.54,21-5.26,20.56-6.25-12.41,1.4-12.83.41,7.69-2.61,7.27-3.6-22.92,3.5-23.34,2.51,10.61-3.19,10.19-4.18,13.25-3.72,12.83-4.71S691,308,690.58,307s-6.57-4.46-8.07-4.41C679.78,302.67,679.22,308.53,678,307.9ZM660.23,285c1,.74-3.09.59-1.6.59s1.5-5.55,3-5.55,1.5,12.46,3,12.46,1.5-4.34,3-4.34,1.5-4.68,3-4.68,1.5,6,3,6,1.5,3,3,3,1.5-14.73,3-14.73,1.5,19.76,3,19.76,1.5-7.47,3-7.47c1,0,1.47-5.32,2.43-5.39s3.17,4.92,4.11,4.76,5.88,5.81,6.8,5.56-3.35-9.21-2.49-9.55,8.74,5.65,9.53,5.22-2.05-4.6-1.35-5.1,3.63-.22,4.24-.78-12-7.09-11.52-7.69,1.46-.35,1.9-1,19.37,4.16,19.74,3.51-19.29-6.06-19-6.73,17.69,2,17.93,1.28,6.79-.81,7-1.49-22.49-4-22.34-4.69,1.24-1,1.34-1.73-.15-1.18-.09-1.87,12.78-.92,12.81-1.61,7.74-1.46,7.74-2.15.74-1.65.71-2.32-2.52-1.58-2.59-2.24-19.32-.35-19.41-1,21.82-3.26,21.68-3.92-19.88.71-20.06.05,2.84-1.68,2.61-2.33-1.06-1.11-1.34-1.75-4-.26-4.36-.88,4.29-2.53,3.87-3.13,2.23-2.42,1.73-3-11.89,4.26-12.48,3.73,5.09-4,4.41-4.47-3.41,1.31-4.18.9-4.25,3.8-5.1,3.47,7.62-13,6.69-13.28-4.24,3.88-5.21,3.72-.35-9.32-1.35-9.4-3.35,14-4.37,14c-1.5,0-1.5-3.35-3-3.35s-1.5-6.16-3-6.16-1.5-.47-3-.47-1.5-2.51-3-2.51-1.5-3.64-3-3.64-1.5,1.78-3,1.78-1.5-1.44-3-1.44-1.5,20.67-3,20.67-1.5-14.83-3-14.83-8-.42-9.09.32-1.61,5.12-1.61,6.18-3,1.05-3,2.11,4.33,1.06,4.33,2.11,6.29,1.06,6.29,2.11-9.52,1.06-9.52,2.11,6.61,1.06,6.61,2.11,7.34,1.06,7.34,2.11,8.38,1.06,8.38,2.11-4.42,1.06-4.42,2.11-24.1,1.06-24.1,2.11,8.72,1.06,8.72,2.11,4.73,1.06,4.73,2.11.48,1.06.48,2.11,7.27,1.06,7.27,2.11-14.27,1.06-14.27,2.11,2.3,1.06,2.3,2.11-4.91,1.06-4.91,2.11,2,1.06,2,2.11-2.07,1.06-2.07,2.11,25.43,1.06,25.43,2.11-28.94,1.06-28.94,2.11,8.2,1.06,8.2,2.11-3.26,1.06-3.26,2.11,4.78,1.06,4.78,2.11,6.14-6.93,7.66-6.75C660.4,277.36,659.16,284.23,660.23,285Z" transform="translate(-10.65 -205.09)"/><path class="7bbeabac-b4c5-42a4-b73a-fba5cf4508e4" d="M678,307.9c-1.16-.61,2.44-1,1-1s-1.46,5.55-2.92,5.55S674.62,300,673.16,300s-1.46,4.34-2.92,4.34-1.46,4.68-2.92,4.68-1.46-6-2.92-6-1.46-3-2.92-3-1.46,14.73-2.92,14.73-11.88-17.56-12.89-16.84,7.09,7.56,7.09,8.62,7.73,1.05,7.73,2.1-7.57,1.05-7.57,2.1-9.81,1.05-9.81,2.1,13.67,1.05,13.67,2.1S645.13,316,645.13,317s6.45,1.05,6.45,2.1-2.49,1.05-2.49,2.1,15.84,1.05,15.84,2.1-1,1.05-1,2.1-20.17,1.05-20.17,2.1,21.16,1.05,21.16,2.1-17.79,1.05-17.79,2.1-6.37,1.05-6.37,2.1,23.16,1.05,23.16,2.1-1,1.05-1,2.1.31,1.05.31,2.1-12.69,1.05-12.69,2.1-7.7,1.05-7.7,2.1-.76,1.05-.76,2.1,2.43,1.05,2.43,2.1,19.24,1.05,19.24,2.1-22.21,1.05-22.21,2.1,19.82,1.05,19.82,2.1-3.27,1.05-3.27,2.1.62,1.05.62,2.1,3.71,1.05,3.71,2.1-5.36,1.05-5.36,2.1-3.59,1.05-3.59,2.1,13.4,1.05,13.4,2.11-7.61,1.05-7.61,2.11,2.9,4.73,1.86,5.51-6.86,6.5-8.25,6.5-1.4-14-2.79-14-1.4,4.63-2.79,4.63-1.4-9.11-2.8-9.11-7.85,13-8.8,12.34,2.75-4.81,2.75-5.86,9-1,9-2.09.69-1,.69-2.09,3.67-1,3.67-2.09,5.31-1,5.31-2.09-2.6-1-2.6-2.09,2.1-1,2.1-2.09-30.15-1-30.15-2.09,21.63-1,21.63-2.09,2.11-1,2.11-2.09-.8-1-.8-2.09,3-1,3-2.09-4.33-1-4.33-2.09-6.29-1-6.29-2.09,9.52-1,9.52-2.09-6.61-1-6.61-2.09-7.34-1-7.34-2.09-8.38-1-8.38-2.09,4.42-1,4.42-2.09,24.1-1,24.1-2.09-8.72-1-8.72-2.09-4.73-1-4.73-2.09-.48-1-.48-2.09-7.27-1-7.27-2.09,14.27-1,14.27-2.09-2.3-1-2.3-2.09,4.91-1,4.91-2.09-2-1-2-2.09,2.07-1,2.07-2.09-25.43-1-25.43-2.09,28.94-1,28.94-2.09-8.2-1-8.2-2.09,3.26-1,3.26-2.09-4.78-1-4.78-2.09-18.52-1-18.52-2.09,13.55-1,13.55-2.09-10.68-1-10.68-2.09.49-1,.49-2.09,18.48-1,18.48-2.09-16.55-1-16.55-2.09-5.85-1-5.85-2.09,27-1,27-2.09-29.06-1-29.06-2.09,22.63-1,22.63-2.09-19.21-1-19.21-2.09,11.31-1,11.31-2.09,14.38-1,14.38-2.09-8.73-1-8.73-2.09,9.1-1,9.1-2.09-15.19-1-15.19-2.09-12.49-1-12.49-2.09,5.33-1,5.33-2.09,12-1,12-2.09-16.65-1-16.65-2.09,22.68-1,22.68-2.09-11-1-11-2.09,7-1,7-2.09,7.28-1,7.28-2.1-8.37-1-8.37-2.09-8-1-8-2.1-12-1-12-2.1,20.45-1,20.45-2.1-13.95-1-13.95-2.1-6.11-1-6.11-2.09,6.56-1,6.56-2.09,7.78-1,7.78-2.09,1.25-1,1.25-2.1,6.29-1,6.29-2.1,4.71-1,4.71-2.1-15.41-1-15.41-2.1-2.14-1-2.14-2.1,18-1,18-2.1,3.81-1,3.81-2.1-21.46-4.79-20.37-5.53,6.5-3.19,8-3.19,1.55,16.69,3.09,16.69,1.55-7.48,3.09-7.48,1.55-2.15,3.09-2.15,1.55-4,3.09-4,1.55,2,3.09,2,1.55.13,3.09.13,1.55-8.16,3.09-8.16,1.55,2.52,3.09,2.52,1.55,8.67,3.09,8.67,1.55-7.88,3.09-7.88,1.55,3.21,3.09,3.21,1.55-.54,3.09-.54,1.55-4.65,3.1-4.65,1.55,10.28,3.1,10.28c1,0,3-8.13,4-8.05s-2.14,16.14-1.16,16.29,6.23-11.6,7.18-11.37,1.72,1.32,2.64,1.62,3-.47,3.91-.1-2.71,5.17-1.9,5.59-3.63,4.39-2.87,4.86S710.31,222,711,222.54s5-.84,5.68-.29,6.62-1.06,7.2-.48-20.63,10.69-20.1,11.29,17.86-5.43,18.34-4.8-16.72,7.06-16.29,7.7,21.56-5,22-4.33-18.73,6.37-18.39,7,23.2-3.89,23.5-3.22-19.51,5.45-19.23,6.12-4.76,2-4.52,2.68,6.5.18,6.71.87,17.81-.9,18-.21-1,1.7-.89,2.39,5.56,1.1,5.68,1.79-28,3.43-27.94,4.12,28.41-.2,28.48.5-7.41,1.84-7.36,2.53-4.39,1.55-4.37,2.25-4.89,1.41-4.89,2.11-10.24,1.18-10.26,1.87,3.32,1.28,3.28,2,15.86,2,15.79,2.67,5.33,1.85,5.23,2.53,2.24,1.8,2.11,2.47-6.65,1-6.8,1.66-14.15-.18-14.32.49,4.18,1.89,4,2.56-5.61.45-5.84,1.11,14.94,4.16,14.67,4.82-.45,1.6-.75,2.25-10.28-.84-10.62-.2,14.46,5.59,14.08,6.22-20.56-4.55-21-3.94,6.55,3.73,6.08,4.33-8.94-2-9.45-1.4-7.57-2.24-8.13-1.68,20.13,11.82,19.51,12.35-.35,2.42-1,2.92-17.6-9.86-18.33-9.39-.4,1-1.18,1.41,1,2.66.21,3,3.71,7.29,2.82,7.6,2.12-3.06,1.19-2.81c0,1-20,3.62-19.53,4.62s-.51,1.19-.08,2.2,28-4.51,28.46-3.51-22.61,5.61-22.18,6.62,3.79.33,4.22,1.34-5.12,2.11-4.69,3.12,22.43-3.39,22.86-2.39-22.69,5.63-22.27,6.63,19.19-2.74,19.61-1.74-10.38,3.17-10,4.17-3.73,1.84-3.31,2.84-1.08,1.31-.66,2.31S714.93,327,715.35,328s-20.68,5.23-20.26,6.23,24.83-3.87,25.26-2.87-14.5,4-14.07,5,.68,1,1.11,2,19.47-2.8,19.9-1.79-28.12,6.71-27.69,7.72.07,1.08.49,2.08,22.85-3.48,23.28-2.47S713.1,347,713.52,348s.35,1,.78,2-7.6,2.61-7.17,3.62,7.33-.37,7.76.63,12.24-1.36,12.67-.35-9.13,2.92-8.7,3.92-9.68,3-9.25,4,24.81-3.87,25.24-2.86-14.3,4-13.87,5-8.75,2.84-8.32,3.85-2.7,1.63-2.27,2.64,19.82-2.87,20.25-1.86,7.85,8.27,6.92,9.1-12.95-2.52-14.51-2.52-1.56,1.71-3.12,1.71-1.56,4.55-3.13,4.55S715.21,362,713.65,362s-7.7,15.83-9,15.2.94-5.6.52-6.59-3.86-.3-4.28-1.29-6.33.19-6.75-.8,26.52-6.37,26.1-7.36-19.82,2.89-20.24,1.9-4.27-.22-4.69-1.21,13.18-3.7,12.76-4.69-15.3,2-15.72,1,13.29-3.73,12.87-4.72-12.29,1.38-12.71.39,7.12-2.49,6.7-3.48,10.32-3.13,9.89-4.12-4.54-.17-5-1.16-18,2.52-18.42,1.53,3.41-1.75,3-2.74-4.15-.24-4.57-1.23-.54-1-1-2,1.56-1.38,1.14-2.37.76-1.23.34-2.22-1.51-.77-1.93-1.76,21.52-5.37,21.1-6.36-2.18-.64-2.61-1.63-11.63,1.25-12.05.26,5.2-2.11,4.78-3.1-13.06,1.53-13.48.54,21-5.26,20.56-6.25-12.41,1.4-12.83.41,7.69-2.61,7.27-3.6-22.92,3.5-23.34,2.51,10.61-3.19,10.19-4.18,13.25-3.72,12.83-4.71S691,308,690.58,307s-6.57-4.46-8.07-4.41C679.78,302.67,679.22,308.53,678,307.9ZM660.23,285c1,.74-3.09.59-1.6.59s1.5-5.55,3-5.55,1.5,12.46,3,12.46,1.5-4.34,3-4.34,1.5-4.68,3-4.68,1.5,6,3,6,1.5,3,3,3,1.5-14.73,3-14.73,1.5,19.76,3,19.76,1.5-7.47,3-7.47c1,0,1.47-5.32,2.43-5.39s3.17,4.92,4.11,4.76,5.88,5.81,6.8,5.56-3.35-9.21-2.49-9.55,8.74,5.65,9.53,5.22-2.05-4.6-1.35-5.1,3.63-.22,4.24-.78-12-7.09-11.52-7.69,1.46-.35,1.9-1,19.37,4.16,19.74,3.51-19.29-6.06-19-6.73,17.69,2,17.93,1.28,6.79-.81,7-1.49-22.49-4-22.34-4.69,1.24-1,1.34-1.73-.15-1.18-.09-1.87,12.78-.92,12.81-1.61,7.74-1.46,7.74-2.15.74-1.65.71-2.32-2.52-1.58-2.59-2.24-19.32-.35-19.41-1,21.82-3.26,21.68-3.92-19.88.71-20.06.05,2.84-1.68,2.61-2.33-1.06-1.11-1.34-1.75-4-.26-4.36-.88,4.29-2.53,3.87-3.13,2.23-2.42,1.73-3-11.89,4.26-12.48,3.73,5.09-4,4.41-4.47-3.41,1.31-4.18.9-4.25,3.8-5.1,3.47,7.62-13,6.69-13.28-4.24,3.88-5.21,3.72-.35-9.32-1.35-9.4-3.35,14-4.37,14c-1.5,0-1.5-3.35-3-3.35s-1.5-6.16-3-6.16-1.5-.47-3-.47-1.5-2.51-3-2.51-1.5-3.64-3-3.64-1.5,1.78-3,1.78-1.5-1.44-3-1.44-1.5,20.67-3,20.67-1.5-14.83-3-14.83-8-.42-9.09.32-1.61,5.12-1.61,6.18-3,1.05-3,2.11,4.33,1.06,4.33,2.11,6.29,1.06,6.29,2.11-9.52,1.06-9.52,2.11,6.61,1.06,6.61,2.11,7.34,1.06,7.34,2.11,8.38,1.06,8.38,2.11-4.42,1.06-4.42,2.11-24.1,1.06-24.1,2.11,8.72,1.06,8.72,2.11,4.73,1.06,4.73,2.11.48,1.06.48,2.11,7.27,1.06,7.27,2.11-14.27,1.06-14.27,2.11,2.3,1.06,2.3,2.11-4.91,1.06-4.91,2.11,2,1.06,2,2.11-2.07,1.06-2.07,2.11,25.43,1.06,25.43,2.11-28.94,1.06-28.94,2.11,8.2,1.06,8.2,2.11-3.26,1.06-3.26,2.11,4.78,1.06,4.78,2.11,6.14-6.93,7.66-6.75C660.4,277.36,659.16,284.23,660.23,285Z" transform="translate(-10.65 -205.09)"/></svg>