<svg id="51319ba3-c8cc-4cb8-8934-d09aab702ae5" data-name="Calque 1" xmlns="http://www.w3.org/2000/svg" width="801.43" height="798.64" viewBox="0 0 801.43 798.64"><defs><style>.\30 d3129da-0750-4e34-9366-88b6b2c2e93c{fill:#fff;}.\39 b4172ab-384d-420a-9c58-133e72a6d775{fill:none;stroke:#000;stroke-miterlimit:10;}</style></defs><title>boom</title><polygon class="0d3129da-0750-4e34-9366-88b6b2c2e93c" points="560.07 393.4 787.88 397.1 718.78 399.5 801.39 404.88 724.01 405.79 683.85 407 646.02 407.59 733.54 415.75 572.02 406.72 651.64 415.18 777.02 429.51 521.58 406.45 784.48 437.67 715 432.79 787.76 445.59 601.87 422.71 579.75 421.3 603.17 426.89 791.03 461.38 680.18 444.98 509.27 414.8 514.95 417.04 569.51 429.8 632.42 445.52 582.62 436.25 681.02 462.04 771.34 487.81 719.36 477.9 522.76 427.27 692.53 476.86 504.53 424.42 681.56 479.61 699.7 488.3 523.33 433.83 534.77 439 604.22 464.63 513.18 434.12 629.96 478.57 736.68 521.76 736.79 525.53 634.17 487.87 541.02 451.86 705.34 523.45 598.88 480.35 750.55 550.73 498.75 438.8 549.9 464.11 539.45 460.81 607.45 496.2 655.93 523.32 635.86 515.98 675.68 540.07 506.45 451.26 498.01 447.88 661.77 542.48 738.82 590.73 602.62 513.96 703.46 578 607.28 522.18 704.78 586.9 623.58 538.33 614.3 535.25 558.53 500.49 703.99 603.16 526.97 482.74 684.07 597.55 665.02 587.73 531.23 491.52 691.27 615.68 597.53 547.13 513.96 483.84 563.85 526.04 610.59 567.25 629.01 586.18 668.93 624.21 633.54 597.76 610.08 580.82 556.78 536 649.37 624.57 627.89 608.76 611.73 597.37 628.82 618.08 595 588.6 554.52 551.11 491.17 488.36 655.19 663.88 492.6 493.64 655.88 675.22 536.94 547.31 571.2 589.47 564.59 585.6 571.07 597.06 576.95 608.19 623.66 670.11 481.09 496.05 484.43 502.38 570.56 617.4 472.13 490.37 503.21 534.7 506.43 542.06 484.62 514.16 487.4 520.68 595.68 683.39 530.75 591.47 518.4 576.62 601.2 710.82 462.92 495.33 592.62 710.58 595.14 721.75 591.83 723.35 538.41 637.02 572.75 704.13 453.41 492.25 576.33 725.36 516.27 617.73 573.57 735.84 507.4 610.73 541.71 686.93 456.17 513.14 471.5 549.45 511.85 643.32 493.81 608.61 463.65 543.56 514.4 670.02 449.81 517.57 537.91 745.67 522.88 716.42 481.06 613.01 460.31 561.86 468.41 590.3 506.77 710.18 456.89 567.9 483.81 658.86 446.19 544.87 466.13 617.79 487.56 701.27 441.09 543.41 466.65 646.1 488.02 740.56 480.39 723.72 473.64 709.14 426.05 509.98 454.02 646.82 475 762.72 421.32 503.45 421.51 510.45 430.82 570.95 440.17 638.98 428.6 579.18 449.55 737.94 420.31 544.37 418.99 545.59 445.44 790.13 442.3 796.82 417.6 577.64 433.05 779.61 425.51 729.13 409.88 541.8 420.68 757.8 410.2 609.42 411.84 708.1 410.59 770.44 402.19 515.36 403.12 740.79 399.81 704.69 397.78 603.73 394.73 658.12 395.15 553.32 390.7 630.39 384.02 723.89 390.37 555.93 391 522.66 378.37 672.77 384.98 563.72 374.95 652.09 368.7 687.84 376.29 596.45 361.24 701.94 372.75 593.4 380.63 524.84 363.72 626.8 357.58 650.38 336.57 757.21 356.8 626.91 337.45 715.28 360.02 588.16 318.36 774.73 371.2 520.58 370.41 518.51 367.21 526.49 319.35 709.93 306.98 744.54 308.76 724.87 320.51 671.51 340.28 594.73 332.63 612.9 299.7 709.76 304.8 683.91 297.29 696.98 341.08 561.94 264.53 769.99 310.21 635.52 299.12 657.68 318.34 601.25 266.52 723.99 349.5 514.97 292.09 646.52 338.45 533.99 242.33 744.48 352.56 496.35 263.05 683.33 258.35 686 271.08 653.31 295.3 599.51 230.93 718.45 325.92 532.62 310.03 558.62 334.7 510.67 345.78 488.65 251.02 649.14 307.17 549.37 264.31 616.42 200.84 713.71 305.07 542.95 235.23 647.46 178.41 727.96 270.25 585.34 255.37 602.99 192.78 687.57 291 545.09 229.64 625.7 208.46 649.39 177.79 684.53 269.49 561.05 319.47 494.84 287.86 531.9 212.39 620.62 244.25 578.39 200.37 625.97 327.22 476.53 310.63 493.53 144.06 674.85 128.65 686.13 270.42 530.46 270.08 528.21 276.82 518.78 163.17 630.04 137.22 651.01 260.97 527.01 160.18 619.66 156.84 618.46 304.91 479.56 247.19 529.38 259.72 515.82 116.41 636.46 262.27 509 157.92 592.92 268.04 499.89 181.35 566.66 225.64 528.79 121.82 605.38 206.34 537.95 106.65 608.21 115.45 597.6 203.02 531.79 185.71 540.95 257.99 489.05 297.9 460.64 89.74 594.32 238.98 495.3 89.61 586.07 270.56 471.81 215.14 503.14 82.4 578.13 260.86 472.34 176.28 517.74 137.87 535.88 85.58 560.49 243.78 474.34 179.76 504.98 95.42 544.19 218.24 481.1 32.84 566.54 91.16 535.39 271.66 450.78 195.33 482.71 232.55 464.53 292 438 137.39 499.18 265.37 446.07 116.37 501.39 214.92 461.81 220.52 457.8 110.62 494.16 254.34 442.54 249.61 442.55 196.81 457.67 51.08 500.07 268.27 432.33 250.82 435.94 214.76 444.3 98.49 473.08 232.57 436 29.36 483.75 130.87 456.33 278.77 420.64 26.18 473.21 269.4 420.13 76.05 456.13 220.59 426.48 7.01 461.65 210.47 424.6 288.94 410.72 141.66 430.76 259.15 412.53 282.54 408.26 235.1 412.54 269.57 407.34 124.87 419.81 246.15 406.81 199.05 408.88 225.33 405.21 283.88 400.2 174.83 404.22 95.67 405.04 136.33 400.98 227.86 396.73 48.23 396.76 142.41 393.4 12.98 389.72 184.51 389.26 51.77 383.44 195.01 385.51 12.44 374.93 43.38 372.98 270.09 384.56 49.8 366.62 204.07 376.41 192.46 373.42 104.76 362.24 178.92 367.85 92.98 355.05 77.85 350.04 276.79 375.43 128.01 351.43 87.5 342.16 0.1 323.96 281.85 371.53 15.01 318.91 92.08 330.71 162.65 342.65 125.37 331.96 259.69 360.51 102.08 320.75 122.32 322.85 92.01 312.01 254.97 353.53 70.21 299.46 70.21 296.03 242.55 345.25 272.57 353.1 34.98 274.11 254 344.15 260.89 345 222.96 329.88 167.14 307.31 64.03 265.46 78.79 267.55 161.29 297.27 280.05 343.85 273.37 339.67 127.77 274.54 262.64 331.98 180.88 292.74 234.26 315.4 52.51 225.46 238.02 313.36 66.13 224.08 287.32 335.12 69.12 217.55 166.31 266.42 115.44 235.15 161.51 257.83 133.16 238.26 168.11 255.64 244.06 298.86 107.26 211.71 262.76 306.61 132.66 220.33 215.85 271.8 148.6 223.76 277.43 309.18 168.45 230.65 148.34 212.85 271.46 299.5 267.11 294.34 277.71 300.43 110.37 168.26 221.26 251.84 167.62 205.59 248.95 269.04 198.31 223.96 226.57 244.89 208.37 226.06 233.92 245.58 305.96 308.2 245.03 250.07 223.61 227.06 282.38 280.4 159.52 157.67 265.89 259.49 200.34 190.08 145.93 129.62 150.15 129 213.12 191.84 286.45 268.6 251.46 226.93 241.66 212.47 217.97 181.33 198.64 154.22 312.96 287.99 261.78 222.69 217.66 163.75 166.97 94.08 197.24 127.75 211.32 141.23 224.26 153.77 171.52 75.54 199.21 108.34 191.39 91.15 220.68 128.18 242.94 156.23 317.08 265.48 273.35 193.93 188.87 53.83 263.88 169.66 306.7 236.64 317.94 252.47 223.24 83.2 264.15 149.57 236.38 93.02 257.54 125.78 334.92 268.23 343.92 282.96 262.89 116.97 236.64 55.97 332.76 251.04 309.96 197.96 264.08 90.75 312.69 193.94 306.12 173.2 246.99 24.64 263.73 55.87 359.52 290.52 304.96 144.44 345.89 247.66 298.78 112.14 351.1 253.61 337.58 209.15 342.22 217.39 292.44 54.1 335.77 184.17 285.4 6.09 367.5 280.39 347.36 202.69 353.09 217.01 367.37 266.25 308.81 20.32 329.73 93.8 335.76 107.31 341.47 120.63 339.02 95.13 338.51 77.06 350.99 128.12 350.77 111.66 377.62 259.33 362.94 154.95 349.58 45.47 380.48 251.25 359.6 71.63 387.09 284.89 363.46 48.85 377.61 162.78 372.06 71.67 384.65 196.94 379.13 84.93 389.11 208.8 381.05 0.03 389.35 120.63 389.72 41.14 395.29 158.18 396.22 17.17 399.81 102.32 402.08 156.44 404.72 136.94 409.36 59.66 407.01 206.68 406.3 260.13 414.63 135.9 423.71 36 416.04 182.66 417.82 185.72 423.07 151.5 425.98 146.1 444.55 4.51 416.11 264.44 425.32 204.99 434.01 157.21 437.64 148.61 453.79 64.34 428.2 231.01 435.17 201.66 466.52 48.93 431.46 238.73 425.9 272.07 455.81 143.37 459.97 136.31 490 23.6 478.54 83.68 486.08 67.09 436.31 260.83 446.91 228.39 503 44.09 478.66 135.69 461.61 198.19 457.49 217.09 484.12 143.73 529.39 21.48 520.95 56.16 509.82 96.12 498.78 133.63 470.25 213.65 526.57 78.97 493.74 166.64 488.03 186.03 465.32 243.31 531.98 98.67 513.88 145.38 475.19 233.41 539.68 104.09 553.1 83.96 583.93 30.61 474.63 249.12 515.26 176.13 466.58 270.39 534.5 151.3 519.49 183 572.37 96.87 516.95 196.31 522.17 191.96 585.36 94.66 532.91 183.48 484.8 261.98 533.45 191.29 615.54 74.08 592 114.66 618.99 81.98 501.12 252.15 530.21 215.31 506.51 250.51 482.7 284.51 558.91 188.78 491.33 277.87 505.51 262.61 509.58 260.22 521.17 249.03 537.3 233.01 546.48 225.6 581.75 189.25 659.57 107.55 487.94 298.19 568.08 215.17 529.42 258.71 683.7 104.03 672.82 120.39 485.52 309.33 501.15 295.88 638.64 167.9 526.3 276.28 696.11 124.15 616.64 200.15 498.74 307 605.87 216.72 561.74 257.27 692.38 152.04 555.98 267.15 605.14 230.57 503.69 312.75 511.41 308.45 686.98 178.73 587.8 255.75 634.38 225 586.98 261.79 631.63 233.62 632.6 236.22 596.78 263.18 673.51 216.09 542.46 303.06 566.14 290.23 504.65 329.86 558.54 299.12 705.75 215.37 739.63 199.95 524.49 324.17 626.4 270.19 585.08 294.99 574.56 302.73 560.37 312.05 582.18 303.15 519.76 335.54 634.61 282.69 596.9 302.8 655.84 278.61 740.2 244.64 747.38 245.46 523.09 342.39 715.76 266.03 566.58 328.06 508.77 351.92 742.49 266.59 620.88 314 724.93 280.13 508.86 356.56 638.24 315.42 616.61 324.78 689.67 304.73 739.35 293.1 708.77 305.33 545.17 353.39 751.33 300.48 576.99 348.28 671.24 327.15 771.26 306.58 650.11 337.34 658.42 338.09 515.52 369.65 772.25 321.29 739.89 330.91 559.77 365.43 707.13 342.97 659.61 353.27 703.55 349.51 507.77 378.65 550.48 374.41 664.24 362.88 508.39 381.74 778.01 357.2 740.22 364.07 657 373.65 605.35 379.55 629.43 380.16 632.07 382.25 553.41 387.44 780.5 382.52 689.33 387.86 710.13 390.44 560.07 393.4"/><polygon class="9b4172ab-384d-420a-9c58-133e72a6d775" points="560.07 393.4 787.88 397.1 718.78 399.5 801.39 404.88 724.01 405.79 683.85 407 646.02 407.59 733.54 415.75 572.02 406.72 651.64 415.18 777.02 429.51 521.58 406.45 784.48 437.67 715 432.79 787.76 445.59 601.87 422.71 579.75 421.3 603.17 426.89 791.03 461.38 680.18 444.98 509.27 414.8 514.95 417.04 569.51 429.8 632.42 445.52 582.62 436.25 681.02 462.04 771.34 487.81 719.36 477.9 522.76 427.27 692.53 476.86 504.53 424.42 681.56 479.61 699.7 488.3 523.33 433.83 534.77 439 604.22 464.63 513.18 434.12 629.96 478.57 736.68 521.76 736.79 525.53 634.17 487.87 541.02 451.86 705.34 523.45 598.88 480.35 750.55 550.73 498.75 438.8 549.9 464.11 539.45 460.81 607.45 496.2 655.93 523.32 635.86 515.98 675.68 540.07 506.45 451.26 498.01 447.88 661.77 542.48 738.82 590.73 602.62 513.96 703.46 578 607.28 522.18 704.78 586.9 623.58 538.33 614.3 535.25 558.53 500.49 703.99 603.16 526.97 482.74 684.07 597.55 665.02 587.73 531.23 491.52 691.27 615.68 597.53 547.13 513.96 483.84 563.85 526.04 610.59 567.25 629.01 586.18 668.93 624.21 633.54 597.76 610.08 580.82 556.78 536 649.37 624.57 627.89 608.76 611.73 597.37 628.82 618.08 595 588.6 554.52 551.11 491.17 488.36 655.19 663.88 492.6 493.64 655.88 675.22 536.94 547.31 571.2 589.47 564.59 585.6 571.07 597.06 576.95 608.19 623.66 670.11 481.09 496.05 484.43 502.38 570.56 617.4 472.13 490.37 503.21 534.7 506.43 542.06 484.62 514.16 487.4 520.68 595.68 683.39 530.75 591.47 518.4 576.62 601.2 710.82 462.92 495.33 592.62 710.58 595.14 721.75 591.83 723.35 538.41 637.02 572.75 704.13 453.41 492.25 576.33 725.36 516.27 617.73 573.57 735.84 507.4 610.73 541.71 686.93 456.17 513.14 471.5 549.45 511.85 643.32 493.81 608.61 463.65 543.56 514.4 670.02 449.81 517.57 537.91 745.67 522.88 716.42 481.06 613.01 460.31 561.86 468.41 590.3 506.77 710.18 456.89 567.9 483.81 658.86 446.19 544.87 466.13 617.79 487.56 701.27 441.09 543.41 466.65 646.1 488.02 740.56 480.39 723.72 473.64 709.14 426.05 509.98 454.02 646.82 475 762.72 421.32 503.45 421.51 510.45 430.82 570.95 440.17 638.98 428.6 579.18 449.55 737.94 420.31 544.37 418.99 545.59 445.44 790.13 442.3 796.82 417.6 577.64 433.05 779.61 425.51 729.13 409.88 541.8 420.68 757.8 410.2 609.42 411.84 708.1 410.59 770.44 402.19 515.36 403.12 740.79 399.81 704.69 397.78 603.73 394.73 658.12 395.15 553.32 390.7 630.39 384.02 723.89 390.37 555.93 391 522.66 378.37 672.77 384.98 563.72 374.95 652.09 368.7 687.84 376.29 596.45 361.24 701.94 372.75 593.4 380.63 524.84 363.72 626.8 357.58 650.38 336.57 757.21 356.8 626.91 337.45 715.28 360.02 588.16 318.36 774.73 371.2 520.58 370.41 518.51 367.21 526.49 319.35 709.93 306.98 744.54 308.76 724.87 320.51 671.51 340.28 594.73 332.63 612.9 299.7 709.76 304.8 683.91 297.29 696.98 341.08 561.94 264.53 769.99 310.21 635.52 299.12 657.68 318.34 601.25 266.52 723.99 349.5 514.97 292.09 646.52 338.45 533.99 242.33 744.48 352.56 496.35 263.05 683.33 258.35 686 271.08 653.31 295.3 599.51 230.93 718.45 325.92 532.62 310.03 558.62 334.7 510.67 345.78 488.65 251.02 649.14 307.17 549.37 264.31 616.42 200.84 713.71 305.07 542.95 235.23 647.46 178.41 727.96 270.25 585.34 255.37 602.99 192.78 687.57 291 545.09 229.64 625.7 208.46 649.39 177.79 684.53 269.49 561.05 319.47 494.84 287.86 531.9 212.39 620.62 244.25 578.39 200.37 625.97 327.22 476.53 310.63 493.53 144.06 674.85 128.65 686.13 270.42 530.46 270.08 528.21 276.82 518.78 163.17 630.04 137.22 651.01 260.97 527.01 160.18 619.66 156.84 618.46 304.91 479.56 247.19 529.38 259.72 515.82 116.41 636.46 262.27 509 157.92 592.92 268.04 499.89 181.35 566.66 225.64 528.79 121.82 605.38 206.34 537.95 106.65 608.21 115.45 597.6 203.02 531.79 185.71 540.95 257.99 489.05 297.9 460.64 89.74 594.32 238.98 495.3 89.61 586.07 270.56 471.81 215.14 503.14 82.4 578.13 260.86 472.34 176.28 517.74 137.87 535.88 85.58 560.49 243.78 474.34 179.76 504.98 95.42 544.19 218.24 481.1 32.84 566.54 91.16 535.39 271.66 450.78 195.33 482.71 232.55 464.53 292 438 137.39 499.18 265.37 446.07 116.37 501.39 214.92 461.81 220.52 457.8 110.62 494.16 254.34 442.54 249.61 442.55 196.81 457.67 51.08 500.07 268.27 432.33 250.82 435.94 214.76 444.3 98.49 473.08 232.57 436 29.36 483.75 130.87 456.33 278.77 420.64 26.18 473.21 269.4 420.13 76.05 456.13 220.59 426.48 7.01 461.65 210.47 424.6 288.94 410.72 141.66 430.76 259.15 412.53 282.54 408.26 235.1 412.54 269.57 407.34 124.87 419.81 246.15 406.81 199.05 408.88 225.33 405.21 283.88 400.2 174.83 404.22 95.67 405.04 136.33 400.98 227.86 396.73 48.23 396.76 142.41 393.4 12.98 389.72 184.51 389.26 51.77 383.44 195.01 385.51 12.44 374.93 43.38 372.98 270.09 384.56 49.8 366.62 204.07 376.41 192.46 373.42 104.76 362.24 178.92 367.85 92.98 355.05 77.85 350.04 276.79 375.43 128.01 351.43 87.5 342.16 0.1 323.96 281.85 371.53 15.01 318.91 92.08 330.71 162.65 342.65 125.37 331.96 259.69 360.51 102.08 320.75 122.32 322.85 92.01 312.01 254.97 353.53 70.21 299.46 70.21 296.03 242.55 345.25 272.57 353.1 34.98 274.11 254 344.15 260.89 345 222.96 329.88 167.14 307.31 64.03 265.46 78.79 267.55 161.29 297.27 280.05 343.85 273.37 339.67 127.77 274.54 262.64 331.98 180.88 292.74 234.26 315.4 52.51 225.46 238.02 313.36 66.13 224.08 287.32 335.12 69.12 217.55 166.31 266.42 115.44 235.15 161.51 257.83 133.16 238.26 168.11 255.64 244.06 298.86 107.26 211.71 262.76 306.61 132.66 220.33 215.85 271.8 148.6 223.76 277.43 309.18 168.45 230.65 148.34 212.85 271.46 299.5 267.11 294.34 277.71 300.43 110.37 168.26 221.26 251.84 167.62 205.59 248.95 269.04 198.31 223.96 226.57 244.89 208.37 226.06 233.92 245.58 305.96 308.2 245.03 250.07 223.61 227.06 282.38 280.4 159.52 157.67 265.89 259.49 200.34 190.08 145.93 129.62 150.15 129 213.12 191.84 286.45 268.6 251.46 226.93 241.66 212.47 217.97 181.33 198.64 154.22 312.96 287.99 261.78 222.69 217.66 163.75 166.97 94.08 197.24 127.75 211.32 141.23 224.26 153.77 171.52 75.54 199.21 108.34 191.39 91.15 220.68 128.18 242.94 156.23 317.08 265.48 273.35 193.93 188.87 53.83 263.88 169.66 306.7 236.64 317.94 252.47 223.24 83.2 264.15 149.57 236.38 93.02 257.54 125.78 334.92 268.23 343.92 282.96 262.89 116.97 236.64 55.97 332.76 251.04 309.96 197.96 264.08 90.75 312.69 193.94 306.12 173.2 246.99 24.64 263.73 55.87 359.52 290.52 304.96 144.44 345.89 247.66 298.78 112.14 351.1 253.61 337.58 209.15 342.22 217.39 292.44 54.1 335.77 184.17 285.4 6.09 367.5 280.39 347.36 202.69 353.09 217.01 367.37 266.25 308.81 20.32 329.73 93.8 335.76 107.31 341.47 120.63 339.02 95.13 338.51 77.06 350.99 128.12 350.77 111.66 377.62 259.33 362.94 154.95 349.58 45.47 380.48 251.25 359.6 71.63 387.09 284.89 363.46 48.85 377.61 162.78 372.06 71.67 384.65 196.94 379.13 84.93 389.11 208.8 381.05 0.03 389.35 120.63 389.72 41.14 395.29 158.18 396.22 17.17 399.81 102.32 402.08 156.44 404.72 136.94 409.36 59.66 407.01 206.68 406.3 260.13 414.63 135.9 423.71 36 416.04 182.66 417.82 185.72 423.07 151.5 425.98 146.1 444.55 4.51 416.11 264.44 425.32 204.99 434.01 157.21 437.64 148.61 453.79 64.34 428.2 231.01 435.17 201.66 466.52 48.93 431.46 238.73 425.9 272.07 455.81 143.37 459.97 136.31 490 23.6 478.54 83.68 486.08 67.09 436.31 260.83 446.91 228.39 503 44.09 478.66 135.69 461.61 198.19 457.49 217.09 484.12 143.73 529.39 21.48 520.95 56.16 509.82 96.12 498.78 133.63 470.25 213.65 526.57 78.97 493.74 166.64 488.03 186.03 465.32 243.31 531.98 98.67 513.88 145.38 475.19 233.41 539.68 104.09 553.1 83.96 583.93 30.61 474.63 249.12 515.26 176.13 466.58 270.39 534.5 151.3 519.49 183 572.37 96.87 516.95 196.31 522.17 191.96 585.36 94.66 532.91 183.48 484.8 261.98 533.45 191.29 615.54 74.08 592 114.66 618.99 81.98 501.12 252.15 530.21 215.31 506.51 250.51 482.7 284.51 558.91 188.78 491.33 277.87 505.51 262.61 509.58 260.22 521.17 249.03 537.3 233.01 546.48 225.6 581.75 189.25 659.57 107.55 487.94 298.19 568.08 215.17 529.42 258.71 683.7 104.03 672.82 120.39 485.52 309.33 501.15 295.88 638.64 167.9 526.3 276.28 696.11 124.15 616.64 200.15 498.74 307 605.87 216.72 561.74 257.27 692.38 152.04 555.98 267.15 605.14 230.57 503.69 312.75 511.41 308.45 686.98 178.73 587.8 255.75 634.38 225 586.98 261.79 631.63 233.62 632.6 236.22 596.78 263.18 673.51 216.09 542.46 303.06 566.14 290.23 504.65 329.86 558.54 299.12 705.75 215.37 739.63 199.95 524.49 324.17 626.4 270.19 585.08 294.99 574.56 302.73 560.37 312.05 582.18 303.15 519.76 335.54 634.61 282.69 596.9 302.8 655.84 278.61 740.2 244.64 747.38 245.46 523.09 342.39 715.76 266.03 566.58 328.06 508.77 351.92 742.49 266.59 620.88 314 724.93 280.13 508.86 356.56 638.24 315.42 616.61 324.78 689.67 304.73 739.35 293.1 708.77 305.33 545.17 353.39 751.33 300.48 576.99 348.28 671.24 327.15 771.26 306.58 650.11 337.34 658.42 338.09 515.52 369.65 772.25 321.29 739.89 330.91 559.77 365.43 707.13 342.97 659.61 353.27 703.55 349.51 507.77 378.65 550.48 374.41 664.24 362.88 508.39 381.74 778.01 357.2 740.22 364.07 657 373.65 605.35 379.55 629.43 380.16 632.07 382.25 553.41 387.44 780.5 382.52 689.33 387.86 710.13 390.44 560.07 393.4"/></svg>