<svg id="fe162ed8-423c-41a5-a1ca-2e3d12491296" data-name="929a63f3-9ae3-4ac3-aaf2-1ac0400b1715" xmlns="http://www.w3.org/2000/svg" width="689.48" height="686.5" viewBox="0 0 689.48 686.5"><defs><style>.\35 d64a349-238b-41e5-97cb-95ec2c4a21d0{fill:#fff;stroke:#1d1d1b;}.\35 d64a349-238b-41e5-97cb-95ec2c4a21d0,.c3474728-b6c9-426e-9b68-f46ca854b7b7{stroke-miterlimit:10;stroke-width:0.6px;}.c3474728-b6c9-426e-9b68-f46ca854b7b7{fill:none;stroke:#000;}</style></defs><title>sun</title><polygon class="5d64a349-238b-41e5-97cb-95ec2c4a21d0" points="481.86 338.42 677.86 341.62 618.36 343.62 689.46 348.22 622.86 349.02 588.36 350.12 555.76 350.62 631.06 357.62 492.06 349.82 560.56 357.12 668.46 369.42 448.76 349.62 674.86 376.52 615.16 372.32 677.66 383.32 517.76 363.62 498.76 362.42 518.86 367.22 680.56 396.92 585.16 382.72 438.16 356.82 442.96 358.72 489.96 369.72 544.06 383.22 501.26 375.22 585.86 397.42 663.56 419.62 618.86 411.12 449.76 367.52 595.76 410.22 434.06 365.12 586.36 412.52 601.96 420.02 450.26 373.22 460.06 377.62 519.86 399.72 441.46 373.42 541.96 411.62 633.76 448.82 633.86 452.02 545.56 419.62 465.46 388.72 606.76 450.32 515.26 413.22 645.66 473.72 429.06 377.42 473.06 399.22 464.06 396.42 522.56 426.82 564.26 450.12 547.06 443.82 581.26 464.62 435.66 388.12 428.46 385.22 569.36 466.62 635.56 508.12 518.46 442.12 605.16 497.22 522.46 449.22 606.36 504.82 536.46 463.12 528.46 460.42 480.46 430.52 605.66 518.82 453.36 415.22 588.46 514.02 572.16 505.62 457.06 422.82 594.66 529.62 514.06 470.62 442.16 416.22 485.06 452.52 525.26 487.92 541.16 504.22 575.46 536.92 545.06 514.22 524.86 499.62 478.96 461.12 558.66 537.32 540.16 523.72 526.26 513.82 540.96 531.72 511.86 506.32 477.06 474.12 422.56 420.12 563.66 571.12 423.76 424.62 564.26 580.82 461.96 470.82 491.36 507.12 485.66 503.72 491.26 513.62 496.36 523.22 536.56 576.42 413.86 426.72 416.76 432.12 490.86 531.12 406.16 421.82 432.86 459.92 435.66 466.32 416.96 442.32 419.36 447.92 512.46 587.92 456.56 508.82 445.96 496.02 517.16 611.52 398.26 426.12 509.86 611.22 511.96 620.92 509.16 622.22 463.16 548.02 492.76 605.72 390.06 423.42 495.86 624.02 444.16 531.42 493.46 633.02 436.56 525.32 466.06 590.92 392.46 441.42 405.66 472.62 440.36 553.42 424.86 523.52 398.86 467.62 442.56 576.32 386.96 445.22 462.76 641.42 449.86 616.32 413.86 527.32 395.96 483.32 402.96 507.82 435.96 610.92 393.06 488.52 416.26 566.82 383.86 468.72 401.06 531.42 419.46 603.22 379.46 467.42 401.46 555.82 419.86 637.02 413.26 622.52 407.46 610.02 366.56 438.72 390.56 556.42 408.66 656.12 362.46 433.02 362.66 439.12 370.66 491.12 378.66 549.62 368.76 498.22 386.76 634.82 361.56 468.32 360.46 469.32 383.26 679.72 380.56 685.42 359.26 496.92 372.56 670.62 366.06 627.22 352.66 466.02 361.96 651.92 352.86 524.22 354.26 609.12 353.26 662.72 345.96 443.32 346.76 637.22 343.96 606.22 342.16 519.32 339.56 566.12 339.96 476.02 336.16 542.32 330.36 622.72 335.86 478.22 336.36 449.62 325.56 578.72 331.16 484.92 322.56 560.92 317.16 591.72 323.76 513.12 310.76 603.82 320.66 510.42 327.46 451.52 312.86 539.22 307.66 559.52 289.56 651.42 306.96 539.32 290.26 615.32 309.76 505.92 273.86 666.42 319.36 447.82 318.66 446.02 315.86 452.92 274.76 610.72 264.06 640.52 265.66 623.52 275.76 577.62 292.76 511.62 286.16 527.22 257.86 610.52 262.26 588.32 255.76 599.52 293.46 483.42 227.56 662.42 266.86 546.72 257.36 565.72 273.86 517.22 229.26 622.82 300.66 443.02 251.26 556.12 291.16 459.32 208.46 640.42 303.26 426.92 226.26 587.82 222.26 590.12 233.16 562.02 254.06 515.72 198.66 618.02 280.36 458.12 266.76 480.52 287.96 439.32 297.46 420.32 215.96 558.42 264.26 472.62 227.36 530.22 172.76 613.92 262.46 467.02 202.36 556.92 153.46 626.22 232.46 503.52 219.66 518.72 165.86 591.42 250.36 468.92 197.56 538.22 179.36 558.62 152.96 588.82 231.86 482.62 274.86 425.62 247.66 457.52 182.76 533.92 210.16 497.52 172.36 538.52 281.46 409.92 267.26 424.52 123.96 580.52 110.66 590.22 232.66 456.32 232.36 454.32 238.16 446.22 140.36 542.02 118.06 560.02 224.46 453.32 137.76 533.02 134.96 532.02 262.36 412.52 212.66 455.42 223.46 443.72 100.16 547.52 225.66 437.82 135.86 510.02 230.56 430.02 155.96 487.42 194.16 454.82 104.76 520.72 177.56 462.72 91.76 523.22 99.36 514.02 174.66 457.42 159.76 465.32 221.96 420.72 256.26 396.22 77.16 511.22 205.56 426.02 77.06 504.12 232.76 405.82 185.06 432.82 70.86 497.32 224.46 406.32 151.66 445.32 118.56 460.92 73.66 482.12 209.76 408.02 154.66 434.42 82.06 468.12 187.76 413.82 28.26 487.32 78.46 460.52 233.66 387.72 168.06 415.22 200.06 399.62 251.16 376.72 118.16 429.42 228.26 383.72 100.06 431.32 184.86 397.22 189.76 393.82 95.16 425.12 218.76 380.62 214.76 380.72 169.26 393.72 43.96 430.12 230.76 371.92 215.76 375.02 184.76 382.22 84.76 406.92 200.06 375.02 25.26 416.12 112.56 392.52 239.86 361.82 22.56 407.02 231.76 361.42 65.46 392.32 189.76 366.82 6.06 397.12 181.06 365.22 248.56 353.32 121.86 370.52 222.96 354.82 243.06 351.22 202.26 354.82 231.86 350.42 107.46 361.12 211.76 349.92 171.26 351.72 193.86 348.52 244.26 344.22 150.36 347.72 82.26 348.42 117.26 344.92 196.06 341.22 41.46 341.32 122.56 338.42 11.16 335.22 158.76 334.82 44.56 329.82 167.76 331.62 10.66 322.52 37.36 320.82 232.36 330.82 42.86 315.32 175.56 323.82 165.56 321.22 90.16 311.62 153.96 316.42 79.96 305.42 66.96 301.12 238.16 322.92 110.16 302.32 75.26 294.32 0.06 278.62 242.46 319.62 12.86 274.32 79.16 284.42 139.96 294.72 107.86 285.52 223.36 310.12 87.86 275.92 105.26 277.72 79.16 268.42 219.36 304.12 60.36 257.62 60.36 254.62 208.66 297.02 234.46 303.72 30.06 235.72 218.56 296.02 224.46 296.72 191.76 283.72 143.76 264.32 55.06 228.32 67.76 230.12 138.76 255.72 240.96 295.72 235.16 292.12 109.96 236.12 225.96 285.52 155.56 251.82 201.56 271.32 45.16 193.92 204.76 269.52 56.86 192.72 247.16 288.22 59.46 187.12 143.06 229.12 99.26 202.22 138.96 221.72 114.56 204.92 144.66 219.92 209.96 257.02 92.26 182.12 226.06 263.72 114.16 189.52 185.66 233.82 127.86 192.42 238.66 265.92 144.96 198.42 127.66 183.02 233.56 257.62 229.76 253.12 238.86 258.42 94.96 144.72 190.36 216.62 144.16 176.82 214.16 231.42 170.56 192.62 194.96 210.62 179.26 194.42 201.26 211.22 263.26 265.12 210.76 215.12 192.36 195.32 242.96 241.22 137.26 135.62 228.76 223.22 172.36 163.52 125.56 111.42 129.16 110.92 183.36 165.02 246.46 231.02 216.36 195.22 207.86 182.72 187.56 155.92 170.86 132.62 269.26 247.72 225.16 191.52 187.26 140.82 143.66 80.92 169.66 109.82 181.76 121.42 192.96 132.22 147.56 64.92 171.36 93.12 164.66 78.32 189.86 110.22 208.96 134.32 272.76 228.32 235.16 166.82 162.46 46.22 226.96 145.92 263.86 203.52 273.56 217.12 192.06 71.52 227.26 128.62 203.36 80.02 221.56 108.12 288.16 230.72 295.86 243.42 226.16 100.62 203.56 48.12 286.26 215.92 266.66 170.22 227.16 78.02 268.96 166.82 263.36 148.92 212.46 21.12 226.86 48.02 309.26 249.92 262.36 124.22 297.56 213.02 257.06 96.42 302.06 218.12 290.46 179.92 294.46 186.92 251.56 46.52 288.86 158.42 245.56 5.22 316.16 241.12 298.86 174.32 303.76 186.62 316.06 229.02 265.66 17.42 283.66 80.62 288.86 92.22 293.76 103.72 291.66 81.82 291.26 66.22 301.96 110.22 301.76 96.02 324.86 223.02 312.26 133.22 300.76 39.12 327.36 216.12 309.36 61.62 332.96 245.02 312.66 42.02 324.86 140.02 320.06 61.62 330.96 169.42 326.16 73.02 334.76 179.62 327.86 0.02 334.96 103.72 335.26 35.32 340.06 136.02 340.86 14.72 343.96 88.02 345.86 134.52 348.16 117.72 352.16 51.32 350.16 177.72 349.56 223.72 356.66 116.82 364.56 30.92 357.96 157.12 359.46 159.72 363.96 130.32 366.46 125.62 382.46 3.82 357.96 227.42 365.86 176.32 373.36 135.22 376.46 127.82 390.36 55.32 368.36 198.72 374.36 173.42 401.36 42.02 371.16 205.32 366.36 234.02 392.16 123.32 395.76 117.22 421.56 20.22 411.66 71.92 418.16 57.62 375.36 224.32 384.46 196.42 432.76 37.92 411.76 116.72 397.16 170.42 393.56 186.72 416.46 123.62 455.46 18.42 448.16 48.22 438.56 82.62 429.06 114.92 404.56 183.72 452.96 67.92 424.76 143.32 419.86 160.02 400.36 209.32 457.66 84.82 442.06 125.02 408.76 200.72 464.26 89.52 475.86 72.22 502.36 26.32 408.36 214.32 443.26 151.52 401.36 232.52 459.86 130.12 446.96 157.42 492.36 83.32 444.76 168.82 449.26 165.12 503.56 81.42 458.46 157.82 417.06 225.32 458.96 164.52 529.56 63.72 509.26 98.62 532.56 70.52 431.06 216.92 456.16 185.22 435.76 215.42 415.26 244.72 480.86 162.32 422.66 239.02 434.86 225.92 438.36 223.82 448.36 214.22 462.26 200.42 470.16 194.02 500.46 162.72 567.46 92.52 419.76 256.52 488.76 185.02 455.46 222.52 588.16 89.42 578.86 103.52 417.66 266.02 431.16 254.52 549.46 144.42 452.76 237.62 598.86 106.72 530.46 172.12 429.06 264.02 521.26 186.42 483.26 221.32 595.66 130.72 478.26 229.82 520.56 198.32 433.36 269.02 439.96 265.32 590.96 153.72 505.66 219.92 545.76 193.52 504.96 225.12 543.36 200.92 544.26 203.22 513.36 226.32 579.46 185.82 466.66 260.62 487.06 249.62 434.16 283.72 480.56 257.32 607.16 185.22 636.26 171.92 451.26 278.82 538.86 232.42 503.36 253.72 494.26 260.42 482.06 268.42 500.86 260.72 447.16 288.62 545.96 243.12 513.46 260.42 564.26 239.62 636.76 210.42 642.96 211.12 449.96 294.52 615.76 228.82 487.46 282.22 437.66 302.72 638.76 229.32 534.16 270.12 623.66 240.92 437.76 306.72 549.06 271.32 530.46 279.32 593.36 262.12 636.06 252.12 609.76 262.62 468.96 304.02 646.36 258.42 496.36 299.62 577.46 281.42 663.56 263.72 559.26 290.12 566.46 290.82 443.46 317.92 664.36 276.32 636.56 284.62 481.56 314.32 608.36 295.02 567.46 303.92 605.26 300.62 436.86 325.72 473.56 322.02 571.46 312.12 437.36 328.32 669.36 307.22 636.76 313.12 565.26 321.42 520.76 326.52 541.46 327.02 543.76 328.82 476.06 333.22 671.46 329.02 593.06 333.62 610.96 335.82 481.86 338.42"/><polygon class="c3474728-b6c9-426e-9b68-f46ca854b7b7" points="481.86 338.42 677.86 341.62 618.36 343.62 689.46 348.22 622.86 349.02 588.36 350.12 555.76 350.62 631.06 357.62 492.06 349.82 560.56 357.12 668.46 369.42 448.76 349.62 674.86 376.52 615.16 372.32 677.66 383.32 517.76 363.62 498.76 362.42 518.86 367.22 680.56 396.92 585.16 382.72 438.16 356.82 442.96 358.72 489.96 369.72 544.06 383.22 501.26 375.22 585.86 397.42 663.56 419.62 618.86 411.12 449.76 367.52 595.76 410.22 434.06 365.12 586.36 412.52 601.96 420.02 450.26 373.22 460.06 377.62 519.86 399.72 441.46 373.42 541.96 411.62 633.76 448.82 633.86 452.02 545.56 419.62 465.46 388.72 606.76 450.32 515.26 413.22 645.66 473.72 429.06 377.42 473.06 399.22 464.06 396.42 522.56 426.82 564.26 450.12 547.06 443.82 581.26 464.62 435.66 388.12 428.46 385.22 569.36 466.62 635.56 508.12 518.46 442.12 605.16 497.22 522.46 449.22 606.36 504.82 536.46 463.12 528.46 460.42 480.46 430.52 605.66 518.82 453.36 415.22 588.46 514.02 572.16 505.62 457.06 422.82 594.66 529.62 514.06 470.62 442.16 416.22 485.06 452.52 525.26 487.92 541.16 504.22 575.46 536.92 545.06 514.22 524.86 499.62 478.96 461.12 558.66 537.32 540.16 523.72 526.26 513.82 540.96 531.72 511.86 506.32 477.06 474.12 422.56 420.12 563.66 571.12 423.76 424.62 564.26 580.82 461.96 470.82 491.36 507.12 485.66 503.72 491.26 513.62 496.36 523.22 536.56 576.42 413.86 426.72 416.76 432.12 490.86 531.12 406.16 421.82 432.86 459.92 435.66 466.32 416.96 442.32 419.36 447.92 512.46 587.92 456.56 508.82 445.96 496.02 517.16 611.52 398.26 426.12 509.86 611.22 511.96 620.92 509.16 622.22 463.16 548.02 492.76 605.72 390.06 423.42 495.86 624.02 444.16 531.42 493.46 633.02 436.56 525.32 466.06 590.92 392.46 441.42 405.66 472.62 440.36 553.42 424.86 523.52 398.86 467.62 442.56 576.32 386.96 445.22 462.76 641.42 449.86 616.32 413.86 527.32 395.96 483.32 402.96 507.82 435.96 610.92 393.06 488.52 416.26 566.82 383.86 468.72 401.06 531.42 419.46 603.22 379.46 467.42 401.46 555.82 419.86 637.02 413.26 622.52 407.46 610.02 366.56 438.72 390.56 556.42 408.66 656.12 362.46 433.02 362.66 439.12 370.66 491.12 378.66 549.62 368.76 498.22 386.76 634.82 361.56 468.32 360.46 469.32 383.26 679.72 380.56 685.42 359.26 496.92 372.56 670.62 366.06 627.22 352.66 466.02 361.96 651.92 352.86 524.22 354.26 609.12 353.26 662.72 345.96 443.32 346.76 637.22 343.96 606.22 342.16 519.32 339.56 566.12 339.96 476.02 336.16 542.32 330.36 622.72 335.86 478.22 336.36 449.62 325.56 578.72 331.16 484.92 322.56 560.92 317.16 591.72 323.76 513.12 310.76 603.82 320.66 510.42 327.46 451.52 312.86 539.22 307.66 559.52 289.56 651.42 306.96 539.32 290.26 615.32 309.76 505.92 273.86 666.42 319.36 447.82 318.66 446.02 315.86 452.92 274.76 610.72 264.06 640.52 265.66 623.52 275.76 577.62 292.76 511.62 286.16 527.22 257.86 610.52 262.26 588.32 255.76 599.52 293.46 483.42 227.56 662.42 266.86 546.72 257.36 565.72 273.86 517.22 229.26 622.82 300.66 443.02 251.26 556.12 291.16 459.32 208.46 640.42 303.26 426.92 226.26 587.82 222.26 590.12 233.16 562.02 254.06 515.72 198.66 618.02 280.36 458.12 266.76 480.52 287.96 439.32 297.46 420.32 215.96 558.42 264.26 472.62 227.36 530.22 172.76 613.92 262.46 467.02 202.36 556.92 153.46 626.22 232.46 503.52 219.66 518.72 165.86 591.42 250.36 468.92 197.56 538.22 179.36 558.62 152.96 588.82 231.86 482.62 274.86 425.62 247.66 457.52 182.76 533.92 210.16 497.52 172.36 538.52 281.46 409.92 267.26 424.52 123.96 580.52 110.66 590.22 232.66 456.32 232.36 454.32 238.16 446.22 140.36 542.02 118.06 560.02 224.46 453.32 137.76 533.02 134.96 532.02 262.36 412.52 212.66 455.42 223.46 443.72 100.16 547.52 225.66 437.82 135.86 510.02 230.56 430.02 155.96 487.42 194.16 454.82 104.76 520.72 177.56 462.72 91.76 523.22 99.36 514.02 174.66 457.42 159.76 465.32 221.96 420.72 256.26 396.22 77.16 511.22 205.56 426.02 77.06 504.12 232.76 405.82 185.06 432.82 70.86 497.32 224.46 406.32 151.66 445.32 118.56 460.92 73.66 482.12 209.76 408.02 154.66 434.42 82.06 468.12 187.76 413.82 28.26 487.32 78.46 460.52 233.66 387.72 168.06 415.22 200.06 399.62 251.16 376.72 118.16 429.42 228.26 383.72 100.06 431.32 184.86 397.22 189.76 393.82 95.16 425.12 218.76 380.62 214.76 380.72 169.26 393.72 43.96 430.12 230.76 371.92 215.76 375.02 184.76 382.22 84.76 406.92 200.06 375.02 25.26 416.12 112.56 392.52 239.86 361.82 22.56 407.02 231.76 361.42 65.46 392.32 189.76 366.82 6.06 397.12 181.06 365.22 248.56 353.32 121.86 370.52 222.96 354.82 243.06 351.22 202.26 354.82 231.86 350.42 107.46 361.12 211.76 349.92 171.26 351.72 193.86 348.52 244.26 344.22 150.36 347.72 82.26 348.42 117.26 344.92 196.06 341.22 41.46 341.32 122.56 338.42 11.16 335.22 158.76 334.82 44.56 329.82 167.76 331.62 10.66 322.52 37.36 320.82 232.36 330.82 42.86 315.32 175.56 323.82 165.56 321.22 90.16 311.62 153.96 316.42 79.96 305.42 66.96 301.12 238.16 322.92 110.16 302.32 75.26 294.32 0.06 278.62 242.46 319.62 12.86 274.32 79.16 284.42 139.96 294.72 107.86 285.52 223.36 310.12 87.86 275.92 105.26 277.72 79.16 268.42 219.36 304.12 60.36 257.62 60.36 254.62 208.66 297.02 234.46 303.72 30.06 235.72 218.56 296.02 224.46 296.72 191.76 283.72 143.76 264.32 55.06 228.32 67.76 230.12 138.76 255.72 240.96 295.72 235.16 292.12 109.96 236.12 225.96 285.52 155.56 251.82 201.56 271.32 45.16 193.92 204.76 269.52 56.86 192.72 247.16 288.22 59.46 187.12 143.06 229.12 99.26 202.22 138.96 221.72 114.56 204.92 144.66 219.92 209.96 257.02 92.26 182.12 226.06 263.72 114.16 189.52 185.66 233.82 127.86 192.42 238.66 265.92 144.96 198.42 127.66 183.02 233.56 257.62 229.76 253.12 238.86 258.42 94.96 144.72 190.36 216.62 144.16 176.82 214.16 231.42 170.56 192.62 194.96 210.62 179.26 194.42 201.26 211.22 263.26 265.12 210.76 215.12 192.36 195.32 242.96 241.22 137.26 135.62 228.76 223.22 172.36 163.52 125.56 111.42 129.16 110.92 183.36 165.02 246.46 231.02 216.36 195.22 207.86 182.72 187.56 155.92 170.86 132.62 269.26 247.72 225.16 191.52 187.26 140.82 143.66 80.92 169.66 109.82 181.76 121.42 192.96 132.22 147.56 64.92 171.36 93.12 164.66 78.32 189.86 110.22 208.96 134.32 272.76 228.32 235.16 166.82 162.46 46.22 226.96 145.92 263.86 203.52 273.56 217.12 192.06 71.52 227.26 128.62 203.36 80.02 221.56 108.12 288.16 230.72 295.86 243.42 226.16 100.62 203.56 48.12 286.26 215.92 266.66 170.22 227.16 78.02 268.96 166.82 263.36 148.92 212.46 21.12 226.86 48.02 309.26 249.92 262.36 124.22 297.56 213.02 257.06 96.42 302.06 218.12 290.46 179.92 294.46 186.92 251.56 46.52 288.86 158.42 245.56 5.22 316.16 241.12 298.86 174.32 303.76 186.62 316.06 229.02 265.66 17.42 283.66 80.62 288.86 92.22 293.76 103.72 291.66 81.82 291.26 66.22 301.96 110.22 301.76 96.02 324.86 223.02 312.26 133.22 300.76 39.12 327.36 216.12 309.36 61.62 332.96 245.02 312.66 42.02 324.86 140.02 320.06 61.62 330.96 169.42 326.16 73.02 334.76 179.62 327.86 0.02 334.96 103.72 335.26 35.32 340.06 136.02 340.86 14.72 343.96 88.02 345.86 134.52 348.16 117.72 352.16 51.32 350.16 177.72 349.56 223.72 356.66 116.82 364.56 30.92 357.96 157.12 359.46 159.72 363.96 130.32 366.46 125.62 382.46 3.82 357.96 227.42 365.86 176.32 373.36 135.22 376.46 127.82 390.36 55.32 368.36 198.72 374.36 173.42 401.36 42.02 371.16 205.32 366.36 234.02 392.16 123.32 395.76 117.22 421.56 20.22 411.66 71.92 418.16 57.62 375.36 224.32 384.46 196.42 432.76 37.92 411.76 116.72 397.16 170.42 393.56 186.72 416.46 123.62 455.46 18.42 448.16 48.22 438.56 82.62 429.06 114.92 404.56 183.72 452.96 67.92 424.76 143.32 419.86 160.02 400.36 209.32 457.66 84.82 442.06 125.02 408.76 200.72 464.26 89.52 475.86 72.22 502.36 26.32 408.36 214.32 443.26 151.52 401.36 232.52 459.86 130.12 446.96 157.42 492.36 83.32 444.76 168.82 449.26 165.12 503.56 81.42 458.46 157.82 417.06 225.32 458.96 164.52 529.56 63.72 509.26 98.62 532.56 70.52 431.06 216.92 456.16 185.22 435.76 215.42 415.26 244.72 480.86 162.32 422.66 239.02 434.86 225.92 438.36 223.82 448.36 214.22 462.26 200.42 470.16 194.02 500.46 162.72 567.46 92.52 419.76 256.52 488.76 185.02 455.46 222.52 588.16 89.42 578.86 103.52 417.66 266.02 431.16 254.52 549.46 144.42 452.76 237.62 598.86 106.72 530.46 172.12 429.06 264.02 521.26 186.42 483.26 221.32 595.66 130.72 478.26 229.82 520.56 198.32 433.36 269.02 439.96 265.32 590.96 153.72 505.66 219.92 545.76 193.52 504.96 225.12 543.36 200.92 544.26 203.22 513.36 226.32 579.46 185.82 466.66 260.62 487.06 249.62 434.16 283.72 480.56 257.32 607.16 185.22 636.26 171.92 451.26 278.82 538.86 232.42 503.36 253.72 494.26 260.42 482.06 268.42 500.86 260.72 447.16 288.62 545.96 243.12 513.46 260.42 564.26 239.62 636.76 210.42 642.96 211.12 449.96 294.52 615.76 228.82 487.46 282.22 437.66 302.72 638.76 229.32 534.16 270.12 623.66 240.92 437.76 306.72 549.06 271.32 530.46 279.32 593.36 262.12 636.06 252.12 609.76 262.62 468.96 304.02 646.36 258.42 496.36 299.62 577.46 281.42 663.56 263.72 559.26 290.12 566.46 290.82 443.46 317.92 664.36 276.32 636.56 284.62 481.56 314.32 608.36 295.02 567.46 303.92 605.26 300.62 436.86 325.72 473.56 322.02 571.46 312.12 437.36 328.32 669.36 307.22 636.76 313.12 565.26 321.42 520.76 326.52 541.46 327.02 543.76 328.82 476.06 333.22 671.46 329.02 593.06 333.62 610.96 335.82 481.86 338.42"/></svg>