<svg id="fd192609-2809-4518-926a-445d4de54ce8" data-name="929a63f3-9ae3-4ac3-aaf2-1ac0400b1715" xmlns="http://www.w3.org/2000/svg" width="581.87" height="579.63" viewBox="0 0 581.87 579.63"><defs><style>.\39 76f3e03-2bc0-4855-91cc-383d28f489fe{fill:#fff;stroke:#1d1d1b;}.\36 a63a382-a625-4a92-81d6-6c7546e818bd,.\39 76f3e03-2bc0-4855-91cc-383d28f489fe{stroke-miterlimit:10;stroke-width:0.6px;}.\36 a63a382-a625-4a92-81d6-6c7546e818bd{fill:none;stroke:#000;}</style></defs><title>sun</title><polygon class="976f3e03-2bc0-4855-91cc-383d28f489fe" points="406.63 285.63 572.04 288.31 521.87 290.06 581.85 293.96 525.67 294.63 496.51 295.51 469.04 295.93 532.58 301.86 415.31 295.3 473.12 301.44 564.16 311.85 378.69 295.11 569.57 317.77 519.12 314.23 571.95 323.52 436.98 306.91 420.92 305.89 437.93 309.94 574.33 334.99 493.84 323.08 369.75 301.17 373.87 302.79 413.49 312.06 459.16 323.47 423.01 316.74 494.45 335.47 560.03 354.18 522.29 346.98 379.54 310.23 502.81 346.22 366.31 308.15 494.84 348.22 508.01 354.54 379.95 314.98 388.26 318.73 438.69 337.35 372.58 315.19 457.38 347.47 534.86 378.83 534.94 381.56 460.43 354.22 392.8 328.07 512.11 380.06 434.81 348.76 544.93 399.86 362.11 318.6 399.25 336.97 391.66 334.57 441.03 360.27 476.23 379.96 461.66 374.63 490.57 392.12 367.7 327.64 361.57 325.19 480.47 393.87 536.41 428.9 437.53 373.16 510.74 419.66 440.91 379.13 511.7 426.13 452.74 390.86 446.01 388.62 405.52 363.39 511.13 437.93 382.6 350.5 496.67 433.85 482.84 426.72 385.69 356.87 501.89 447.02 433.83 397.25 373.16 351.29 409.38 381.93 443.31 411.85 456.69 425.6 485.67 453.21 459.98 434 442.95 421.7 404.25 389.17 471.47 453.48 455.88 442 444.14 433.72 456.55 448.76 432 427.36 402.6 400.14 356.61 354.57 475.7 482.01 357.65 358.41 476.2 490.25 389.84 397.38 414.71 427.99 409.91 425.18 414.62 433.5 418.89 441.58 452.8 486.54 349.29 360.16 351.71 364.76 414.25 448.26 342.78 356.04 365.35 388.22 367.69 393.56 351.85 373.31 353.87 378.04 432.49 496.18 385.35 429.44 376.38 418.66 436.5 516.1 336.1 359.64 430.27 515.92 432.09 524.03 429.69 525.19 390.91 462.52 415.84 511.24 329.19 357.4 418.44 526.65 374.83 448.51 416.44 534.26 368.39 443.42 393.3 498.75 331.19 372.57 342.33 398.93 371.63 467.09 358.52 441.89 336.63 394.65 373.48 486.47 326.58 375.79 390.55 541.4 379.63 520.16 349.27 445.08 334.2 407.94 340.08 428.59 367.94 515.63 331.72 412.33 351.27 478.37 323.95 395.61 338.43 448.55 353.99 509.17 320.25 394.55 338.81 469.1 354.32 537.69 348.78 525.46 343.88 514.88 309.32 370.27 329.63 469.63 344.87 553.78 305.89 365.53 306.03 370.61 312.79 414.54 319.58 463.94 311.18 420.52 326.39 535.78 305.16 395.24 304.2 396.13 323.41 573.68 321.13 578.54 303.19 419.4 314.41 566.04 308.93 529.39 297.59 393.38 305.43 550.21 297.82 442.48 299.01 514.12 298.1 559.38 292.01 374.18 292.68 537.86 290.27 511.65 288.8 438.34 286.59 477.83 286.89 401.74 283.66 457.7 278.81 525.58 283.42 403.64 283.88 379.48 274.71 488.47 279.51 409.29 272.22 473.45 267.69 499.41 273.2 433.06 262.27 509.65 270.63 430.84 276.35 381.06 264.07 455.09 259.62 472.21 244.36 549.78 259.05 455.18 245 519.34 261.39 427.04 231.14 562.5 269.5 377.97 268.93 376.47 266.61 382.26 231.86 515.45 222.87 540.58 224.16 526.3 232.7 487.56 247.05 431.81 241.5 445 217.59 515.33 221.29 496.56 215.84 506.05 247.63 408 192.05 559.06 225.22 461.42 217.17 477.51 231.13 436.54 193.5 525.66 253.75 373.9 212.07 469.41 245.72 387.7 175.93 540.54 255.97 360.38 190.98 496.13 187.56 498.07 196.81 474.34 214.4 435.28 167.66 521.64 236.62 386.71 225.09 405.59 243 370.78 251.05 354.79 182.24 471.31 223.01 398.87 191.89 447.56 145.81 518.19 221.49 394.21 170.78 470.09 129.53 528.54 196.21 424.99 185.4 437.8 139.96 499.21 211.27 395.76 166.72 454.29 151.34 471.5 129.07 497.01 195.66 407.36 231.94 359.28 209 386.19 154.2 450.61 177.33 419.95 145.47 454.49 237.57 345.99 225.53 358.33 104.58 489.98 93.39 498.17 196.33 385.14 196.08 383.51 200.97 376.66 118.46 457.44 99.62 472.67 189.47 382.64 116.28 449.91 113.86 449.04 221.37 348.19 179.47 384.36 188.56 374.51 84.51 462.1 190.41 369.56 114.65 430.49 194.6 362.95 131.66 411.43 163.81 383.93 88.43 439.54 149.8 390.58 77.42 441.6 83.81 433.89 147.4 386.11 134.82 392.76 187.3 355.08 216.28 334.45 65.15 431.51 173.5 359.61 65.05 425.52 196.43 342.56 156.19 365.31 59.81 419.75 189.39 342.94 127.98 375.9 100.09 389.08 62.12 406.95 176.99 344.39 130.51 366.64 69.27 395.11 158.44 349.31 23.83 411.34 66.17 388.72 197.23 327.29 141.81 350.47 168.83 337.28 212 318.01 99.74 362.43 192.66 323.87 84.48 364.04 156.03 335.3 160.1 332.38 80.3 358.79 184.65 321.31 181.22 321.31 142.88 332.29 37.07 363.08 194.76 313.9 182.1 316.52 155.92 322.59 71.5 343.49 168.85 316.56 21.3 351.23 95.01 331.32 202.39 305.41 18.99 343.58 195.59 305.04 55.2 331.17 160.15 309.65 5.08 335.18 152.8 308.28 209.77 298.2 102.84 312.75 188.15 299.52 205.13 296.42 170.68 299.53 195.71 295.75 90.65 304.8 178.71 295.36 144.51 296.87 163.59 294.2 206.1 290.57 126.92 293.49 69.45 294.08 98.97 291.13 165.43 288.05 35 288.07 103.39 285.63 9.41 282.96 133.96 282.63 37.57 278.4 141.57 279.9 9.02 272.22 31.48 270.8 196.09 279.21 36.14 266.19 148.16 273.3 139.72 271.12 76.05 263 129.89 267.08 67.5 257.79 56.51 254.15 200.95 272.58 92.93 255.16 63.52 248.42 0.06 235.21 204.63 269.75 10.88 231.55 66.84 240.11 118.08 248.78 91.01 241.02 188.54 261.75 74.1 232.88 88.8 234.4 66.79 226.54 185.11 256.68 50.97 217.42 50.96 214.93 176.09 250.67 197.89 256.37 25.39 199.01 184.41 249.87 189.41 250.49 161.87 239.51 121.34 223.12 46.48 192.74 57.19 194.25 117.1 215.83 203.32 249.65 198.47 246.62 92.76 199.33 190.68 241.03 131.32 212.54 170.07 229 38.11 163.69 172.81 227.52 48 162.69 208.6 243.31 50.17 157.95 120.74 193.44 83.8 170.73 117.26 187.19 96.67 172.99 122.04 185.61 177.19 216.99 77.86 153.71 190.77 222.62 96.31 159.97 156.71 197.34 107.88 162.46 201.41 224.48 122.29 167.46 107.69 154.54 197.08 217.45 193.93 213.7 201.62 218.13 80.12 122.17 160.64 182.85 121.69 149.27 180.74 195.34 143.97 162.6 164.49 177.8 151.28 164.13 169.83 178.3 222.13 223.76 177.9 181.56 162.34 164.85 205.01 203.59 115.81 114.48 193.04 188.4 145.44 138.01 105.94 94.11 109.01 93.66 154.72 139.28 207.97 195.02 182.56 164.76 175.44 154.26 158.25 131.66 144.22 111.97 227.22 209.09 190.06 161.68 158.03 118.89 121.22 68.3 143.2 92.75 153.42 102.54 162.82 111.64 124.52 54.84 144.63 78.66 138.95 66.17 160.22 93.06 176.38 113.43 230.21 192.75 198.46 140.8 137.12 39.08 191.58 123.18 222.67 171.81 230.83 183.31 162.07 60.4 191.78 108.59 171.61 67.53 186.97 91.32 243.16 194.75 249.69 205.44 190.86 84.92 171.8 40.63 241.59 182.27 225.04 143.72 191.73 65.89 227.02 140.81 222.25 125.75 179.32 17.88 191.47 40.56 261.02 210.93 221.41 104.87 251.13 179.81 216.92 81.42 254.91 184.13 245.09 151.85 248.46 157.83 212.32 39.27 243.78 133.71 207.21 4.42 266.82 203.57 252.19 147.16 256.35 157.56 266.72 193.31 224.21 14.74 239.39 68.1 243.77 77.91 247.92 87.58 246.14 69.06 245.77 55.95 254.83 93.02 254.67 81.07 274.17 188.28 263.51 112.5 253.8 33.01 276.24 182.42 261.08 52 281.04 206.85 263.88 35.46 274.15 118.18 270.13 52.03 279.27 142.99 275.26 61.66 282.51 151.6 276.65 0.02 282.68 87.58 282.95 29.86 286.99 114.84 287.67 12.46 290.27 74.28 291.92 113.58 293.84 99.43 297.21 43.31 295.51 150.06 294.98 188.87 301.03 98.67 307.63 26.14 302.06 132.62 303.35 134.84 307.17 110 309.27 106.08 322.76 3.27 302.11 192 308.8 148.83 315.11 114.14 317.74 107.9 329.46 46.71 310.89 167.72 315.95 146.42 338.71 35.52 313.25 173.33 309.22 197.54 330.93 104.09 333.96 98.97 355.76 17.13 347.43 60.75 352.92 48.71 316.78 189.38 324.47 165.82 365.2 32.01 347.53 98.52 335.14 143.9 332.15 157.62 351.49 104.35 384.36 15.59 378.23 40.77 370.15 69.79 362.13 97.02 341.42 155.12 382.31 57.34 358.47 120.99 354.33 135.06 337.84 176.66 386.24 71.64 373.1 105.55 345 169.47 391.83 75.57 401.58 60.96 423.96 22.22 344.6 180.88 374.1 127.88 338.76 196.31 388.07 109.85 377.17 132.86 415.56 70.33 375.32 142.53 379.12 139.37 424.99 68.72 386.91 133.21 351.99 190.21 387.3 138.88 446.91 53.78 429.81 83.25 449.42 59.52 363.83 183.07 384.95 156.33 367.74 181.88 350.46 206.56 405.79 137.06 356.73 201.75 367.02 190.67 369.98 188.93 378.39 180.81 390.1 169.17 396.76 163.79 422.38 137.41 478.88 78.08 354.27 216.5 412.45 156.22 384.38 187.84 496.4 75.53 488.49 87.41 352.51 224.59 363.86 214.83 463.68 121.9 382.11 200.59 505.4 90.14 447.71 145.32 362.1 222.89 439.89 157.35 407.85 186.79 502.7 110.38 403.67 193.96 439.36 167.41 365.7 227.07 371.3 223.95 498.78 129.76 426.77 185.68 460.59 163.36 426.17 190.07 458.59 169.62 459.3 171.51 433.29 191.08 489 156.89 393.85 220.03 411.04 210.72 366.4 239.49 405.53 217.18 512.41 156.37 537.01 145.17 380.8 235.36 454.79 196.17 424.8 214.18 417.16 219.79 406.85 226.57 422.68 220.1 377.36 243.62 460.75 205.25 433.37 219.85 476.17 202.28 537.42 177.62 542.63 178.21 379.78 248.59 519.67 193.15 411.36 238.19 369.39 255.51 539.08 193.56 450.79 227.98 526.33 203.39 369.45 258.88 463.39 229.01 447.68 235.81 500.73 221.25 536.8 212.8 514.6 221.69 395.81 256.58 545.5 218.16 418.92 252.87 487.35 237.53 559.97 222.59 472.01 244.93 478.04 245.47 374.29 268.39 560.69 233.27 537.19 240.26 406.42 265.32 513.41 249.01 478.9 256.49 510.81 253.76 368.66 274.92 399.67 271.84 482.27 263.47 369.11 277.16 564.88 259.34 537.43 264.33 477.01 271.29 439.51 275.57 457 276.02 458.91 277.53 401.8 281.3 566.68 277.73 500.49 281.61 515.59 283.48 406.63 285.63"/><polygon class="6a63a382-a625-4a92-81d6-6c7546e818bd" points="406.63 285.63 572.04 288.31 521.87 290.06 581.85 293.96 525.67 294.63 496.51 295.51 469.04 295.93 532.58 301.86 415.31 295.3 473.12 301.44 564.16 311.85 378.69 295.11 569.57 317.77 519.12 314.23 571.95 323.52 436.98 306.91 420.92 305.89 437.93 309.94 574.33 334.99 493.84 323.08 369.75 301.17 373.87 302.79 413.49 312.06 459.16 323.47 423.01 316.74 494.45 335.47 560.03 354.18 522.29 346.98 379.54 310.23 502.81 346.22 366.31 308.15 494.84 348.22 508.01 354.54 379.95 314.98 388.26 318.73 438.69 337.35 372.58 315.19 457.38 347.47 534.86 378.83 534.94 381.56 460.43 354.22 392.8 328.07 512.11 380.06 434.81 348.76 544.93 399.86 362.11 318.6 399.25 336.97 391.66 334.57 441.03 360.27 476.23 379.96 461.66 374.63 490.57 392.12 367.7 327.64 361.57 325.19 480.47 393.87 536.41 428.9 437.53 373.16 510.74 419.66 440.91 379.13 511.7 426.13 452.74 390.86 446.01 388.62 405.52 363.39 511.13 437.93 382.6 350.5 496.67 433.85 482.84 426.72 385.69 356.87 501.89 447.02 433.83 397.25 373.16 351.29 409.38 381.93 443.31 411.85 456.69 425.6 485.67 453.21 459.98 434 442.95 421.7 404.25 389.17 471.47 453.48 455.88 442 444.14 433.72 456.55 448.76 432 427.36 402.6 400.14 356.61 354.57 475.7 482.01 357.65 358.41 476.2 490.25 389.84 397.38 414.71 427.99 409.91 425.18 414.62 433.5 418.89 441.58 452.8 486.54 349.29 360.16 351.71 364.76 414.25 448.26 342.78 356.04 365.35 388.22 367.69 393.56 351.85 373.31 353.87 378.04 432.49 496.18 385.35 429.44 376.38 418.66 436.5 516.1 336.1 359.64 430.27 515.92 432.09 524.03 429.69 525.19 390.91 462.52 415.84 511.24 329.19 357.4 418.44 526.65 374.83 448.51 416.44 534.26 368.39 443.42 393.3 498.75 331.19 372.57 342.33 398.93 371.63 467.09 358.52 441.89 336.63 394.65 373.48 486.47 326.58 375.79 390.55 541.4 379.63 520.16 349.27 445.08 334.2 407.94 340.08 428.59 367.94 515.63 331.72 412.33 351.27 478.37 323.95 395.61 338.43 448.55 353.99 509.17 320.25 394.55 338.81 469.1 354.32 537.69 348.78 525.46 343.88 514.88 309.32 370.27 329.63 469.63 344.87 553.78 305.89 365.53 306.03 370.61 312.79 414.54 319.58 463.94 311.18 420.52 326.39 535.78 305.16 395.24 304.2 396.13 323.41 573.68 321.13 578.54 303.19 419.4 314.41 566.04 308.93 529.39 297.59 393.38 305.43 550.21 297.82 442.48 299.01 514.12 298.1 559.38 292.01 374.18 292.68 537.86 290.27 511.65 288.8 438.34 286.59 477.83 286.89 401.74 283.66 457.7 278.81 525.58 283.42 403.64 283.88 379.48 274.71 488.47 279.51 409.29 272.22 473.45 267.69 499.41 273.2 433.06 262.27 509.65 270.63 430.84 276.35 381.06 264.07 455.09 259.62 472.21 244.36 549.78 259.05 455.18 245 519.34 261.39 427.04 231.14 562.5 269.5 377.97 268.93 376.47 266.61 382.26 231.86 515.45 222.87 540.58 224.16 526.3 232.7 487.56 247.05 431.81 241.5 445 217.59 515.33 221.29 496.56 215.84 506.05 247.63 408 192.05 559.06 225.22 461.42 217.17 477.51 231.13 436.54 193.5 525.66 253.75 373.9 212.07 469.41 245.72 387.7 175.93 540.54 255.97 360.38 190.98 496.13 187.56 498.07 196.81 474.34 214.4 435.28 167.66 521.64 236.62 386.71 225.09 405.59 243 370.78 251.05 354.79 182.24 471.31 223.01 398.87 191.89 447.56 145.81 518.19 221.49 394.21 170.78 470.09 129.53 528.54 196.21 424.99 185.4 437.8 139.96 499.21 211.27 395.76 166.72 454.29 151.34 471.5 129.07 497.01 195.66 407.36 231.94 359.28 209 386.19 154.2 450.61 177.33 419.95 145.47 454.49 237.57 345.99 225.53 358.33 104.58 489.98 93.39 498.17 196.33 385.14 196.08 383.51 200.97 376.66 118.46 457.44 99.62 472.67 189.47 382.64 116.28 449.91 113.86 449.04 221.37 348.19 179.47 384.36 188.56 374.51 84.51 462.1 190.41 369.56 114.65 430.49 194.6 362.95 131.66 411.43 163.81 383.93 88.43 439.54 149.8 390.58 77.42 441.6 83.81 433.89 147.4 386.11 134.82 392.76 187.3 355.08 216.28 334.45 65.15 431.51 173.5 359.61 65.05 425.52 196.43 342.56 156.19 365.31 59.81 419.75 189.39 342.94 127.98 375.9 100.09 389.08 62.12 406.95 176.99 344.39 130.51 366.64 69.27 395.11 158.44 349.31 23.83 411.34 66.17 388.72 197.23 327.29 141.81 350.47 168.83 337.28 212 318.01 99.74 362.43 192.66 323.87 84.48 364.04 156.03 335.3 160.1 332.38 80.3 358.79 184.65 321.31 181.22 321.31 142.88 332.29 37.07 363.08 194.76 313.9 182.1 316.52 155.92 322.59 71.5 343.49 168.85 316.56 21.3 351.23 95.01 331.32 202.39 305.41 18.99 343.58 195.59 305.04 55.2 331.17 160.15 309.65 5.08 335.18 152.8 308.28 209.77 298.2 102.84 312.75 188.15 299.52 205.13 296.42 170.68 299.53 195.71 295.75 90.65 304.8 178.71 295.36 144.51 296.87 163.59 294.2 206.1 290.57 126.92 293.49 69.45 294.08 98.97 291.13 165.43 288.05 35 288.07 103.39 285.63 9.41 282.96 133.96 282.63 37.57 278.4 141.57 279.9 9.02 272.22 31.48 270.8 196.09 279.21 36.14 266.19 148.16 273.3 139.72 271.12 76.05 263 129.89 267.08 67.5 257.79 56.51 254.15 200.95 272.58 92.93 255.16 63.52 248.42 0.06 235.21 204.63 269.75 10.88 231.55 66.84 240.11 118.08 248.78 91.01 241.02 188.54 261.75 74.1 232.88 88.8 234.4 66.79 226.54 185.11 256.68 50.97 217.42 50.96 214.93 176.09 250.67 197.89 256.37 25.39 199.01 184.41 249.87 189.41 250.49 161.87 239.51 121.34 223.12 46.48 192.74 57.19 194.25 117.1 215.83 203.32 249.65 198.47 246.62 92.76 199.33 190.68 241.03 131.32 212.54 170.07 229 38.11 163.69 172.81 227.52 48 162.69 208.6 243.31 50.17 157.95 120.74 193.44 83.8 170.73 117.26 187.19 96.67 172.99 122.04 185.61 177.19 216.99 77.86 153.71 190.77 222.62 96.31 159.97 156.71 197.34 107.88 162.46 201.41 224.48 122.29 167.46 107.69 154.54 197.08 217.45 193.93 213.7 201.62 218.13 80.12 122.17 160.64 182.85 121.69 149.27 180.74 195.34 143.97 162.6 164.49 177.8 151.28 164.13 169.83 178.3 222.13 223.76 177.9 181.56 162.34 164.85 205.01 203.59 115.81 114.48 193.04 188.4 145.44 138.01 105.94 94.11 109.01 93.66 154.72 139.28 207.97 195.02 182.56 164.76 175.44 154.26 158.25 131.66 144.22 111.97 227.22 209.09 190.06 161.68 158.03 118.89 121.22 68.3 143.2 92.75 153.42 102.54 162.82 111.64 124.52 54.84 144.63 78.66 138.95 66.17 160.22 93.06 176.38 113.43 230.21 192.75 198.46 140.8 137.12 39.08 191.58 123.18 222.67 171.81 230.83 183.31 162.07 60.4 191.78 108.59 171.61 67.53 186.97 91.32 243.16 194.75 249.69 205.44 190.86 84.92 171.8 40.63 241.59 182.27 225.04 143.72 191.73 65.89 227.02 140.81 222.25 125.75 179.32 17.88 191.47 40.56 261.02 210.93 221.41 104.87 251.13 179.81 216.92 81.42 254.91 184.13 245.09 151.85 248.46 157.83 212.32 39.27 243.78 133.71 207.21 4.42 266.82 203.57 252.19 147.16 256.35 157.56 266.72 193.31 224.21 14.74 239.39 68.1 243.77 77.91 247.92 87.58 246.14 69.06 245.77 55.95 254.83 93.02 254.67 81.07 274.17 188.28 263.51 112.5 253.8 33.01 276.24 182.42 261.08 52 281.04 206.85 263.88 35.46 274.15 118.18 270.13 52.03 279.27 142.99 275.26 61.66 282.51 151.6 276.65 0.02 282.68 87.58 282.95 29.86 286.99 114.84 287.67 12.46 290.27 74.28 291.92 113.58 293.84 99.43 297.21 43.31 295.51 150.06 294.98 188.87 301.03 98.67 307.63 26.14 302.06 132.62 303.35 134.84 307.17 110 309.27 106.08 322.76 3.27 302.11 192 308.8 148.83 315.11 114.14 317.74 107.9 329.46 46.71 310.89 167.72 315.95 146.42 338.71 35.52 313.25 173.33 309.22 197.54 330.93 104.09 333.96 98.97 355.76 17.13 347.43 60.75 352.92 48.71 316.78 189.38 324.47 165.82 365.2 32.01 347.53 98.52 335.14 143.9 332.15 157.62 351.49 104.35 384.36 15.59 378.23 40.77 370.15 69.79 362.13 97.02 341.42 155.12 382.31 57.34 358.47 120.99 354.33 135.06 337.84 176.66 386.24 71.64 373.1 105.55 345 169.47 391.83 75.57 401.58 60.96 423.96 22.22 344.6 180.88 374.1 127.88 338.76 196.31 388.07 109.85 377.17 132.86 415.56 70.33 375.32 142.53 379.12 139.37 424.99 68.72 386.91 133.21 351.99 190.21 387.3 138.88 446.91 53.78 429.81 83.25 449.42 59.52 363.83 183.07 384.95 156.33 367.74 181.88 350.46 206.56 405.79 137.06 356.73 201.75 367.02 190.67 369.98 188.93 378.39 180.81 390.1 169.17 396.76 163.79 422.38 137.41 478.88 78.08 354.27 216.5 412.45 156.22 384.38 187.84 496.4 75.53 488.49 87.41 352.51 224.59 363.86 214.83 463.68 121.9 382.11 200.59 505.4 90.14 447.71 145.32 362.1 222.89 439.89 157.35 407.85 186.79 502.7 110.38 403.67 193.96 439.36 167.41 365.7 227.07 371.3 223.95 498.78 129.76 426.77 185.68 460.59 163.36 426.17 190.07 458.59 169.62 459.3 171.51 433.29 191.08 489 156.89 393.85 220.03 411.04 210.72 366.4 239.49 405.53 217.18 512.41 156.37 537.01 145.17 380.8 235.36 454.79 196.17 424.8 214.18 417.16 219.79 406.85 226.57 422.68 220.1 377.36 243.62 460.75 205.25 433.37 219.85 476.17 202.28 537.42 177.62 542.63 178.21 379.78 248.59 519.67 193.15 411.36 238.19 369.39 255.51 539.08 193.56 450.79 227.98 526.33 203.39 369.45 258.88 463.39 229.01 447.68 235.81 500.73 221.25 536.8 212.8 514.6 221.69 395.81 256.58 545.5 218.16 418.92 252.87 487.35 237.53 559.97 222.59 472.01 244.93 478.04 245.47 374.29 268.39 560.69 233.27 537.19 240.26 406.42 265.32 513.41 249.01 478.9 256.49 510.81 253.76 368.66 274.92 399.67 271.84 482.27 263.47 369.11 277.16 564.88 259.34 537.43 264.33 477.01 271.29 439.51 275.57 457 276.02 458.91 277.53 401.8 281.3 566.68 277.73 500.49 281.61 515.59 283.48 406.63 285.63"/></svg>