<svg id="1b1ce78f-fd35-4af9-94cd-4824051ddd9d" data-name="Layer 1" xmlns="http://www.w3.org/2000/svg" width="975.54" height="346.51" viewBox="0 0 975.54 346.51"><defs><style>.\30 cc16d5e-34af-4f1f-98ad-f2989c3ce81b,.bbdc2585-200d-486b-90fd-71c1ce8c79ac{fill:#000116;}.\30 3df8f19-c14f-4a62-aac0-9950127677a9,.cc0c5151-27dd-498b-bb51-f5dd70213428{fill:none;}.\30 3df8f19-c14f-4a62-aac0-9950127677a9,.b8159f2d-605d-42b3-9b67-63d5d6d7cf3a,.cc0c5151-27dd-498b-bb51-f5dd70213428{stroke:#000116;}.cc0c5151-27dd-498b-bb51-f5dd70213428{stroke-linecap:round;stroke-linejoin:round;stroke-width:28px;}.\37 d74bc8a-40ea-49eb-b9b7-aa1ce40411ef,.b8159f2d-605d-42b3-9b67-63d5d6d7cf3a{fill:#fff;}.\30 3df8f19-c14f-4a62-aac0-9950127677a9,.b8159f2d-605d-42b3-9b67-63d5d6d7cf3a,.bbdc2585-200d-486b-90fd-71c1ce8c79ac{stroke-miterlimit:10;}.bbdc2585-200d-486b-90fd-71c1ce8c79ac{stroke:#fff;}</style></defs><title>swim</title><g id="da35bf45-734f-4950-88d8-629a0f63b092" data-name="Calque 2"><path class="0cc16d5e-34af-4f1f-98ad-f2989c3ce81b" d="M469.3,228.8a.9.9,0,1,0,0-1.8c-1.2-.1-1.2,1.8,0,1.8Z" transform="translate(-232.24 -227)"/><path class="0cc16d5e-34af-4f1f-98ad-f2989c3ce81b" d="M469.3,228.8a.9.9,0,1,0,0-1.8c-1.2-.1-1.2,1.8,0,1.8Z" transform="translate(-232.24 -227)"/><path class="0cc16d5e-34af-4f1f-98ad-f2989c3ce81b" d="M469.3,228.8a.9.9,0,1,0,0-1.8c-1.2-.1-1.2,1.8,0,1.8Z" transform="translate(-232.24 -227)"/><path class="cc0c5151-27dd-498b-bb51-f5dd70213428" d="M705.8,457.6s-150.2,54.5-277.4,31.2" transform="translate(-232.24 -227)"/><path class="7d74bc8a-40ea-49eb-b9b7-aa1ce40411ef" d="M333.6,478.8c-1.9.2-8.6.8-9.4-2.4s3.6-7.3,13.2-9.8h0c-2.1.4-4.2.4-4.8-1.3s.8-7.3,21.8-15.7c15.7-6.3,33.5,1.1,49.3,7,0,0,15.2,7,20.6,14.4,1.2,1.7,2.9,3.9,5,3.2,1-.3,1.8-1.4,2.8-1.6a2.9,2.9,0,0,1,3.1,1.7,8.22,8.22,0,0,1,.6,3.8c-.1,4.1-3.9,19.1-6.1,23.1-.8,1.5-1.8,4.6-3.4,5-1,.3-2.1-1.6-3.1-1.6-4.2-.1-7.8,2.7-10.9,5.4-8.5,7.4-17.2,15.6-28.3,17.9a56.13,56.13,0,0,1-10.8.8c-8.3.1-9.4-2.3-17.7-2.2-2.3,0-12.7-.1-12.5-4.8s7.1-8.5,10.8-9c2.1-.3,3.8.1,7.2,1s15.2-.7,13.3-9.4c-.6-2.8-3-4.1-5.9-4-3.5,0-11.6,2.5-11.6,2.5a235.22,235.22,0,0,1-26.5,4c-3.1.3-12.4,1.1-14.3-1.3s2-9.5,13.8-12.5h0c-6,1.5-11.8.3-12.9-4.5-1.2-5.3,13.9-8.8,18.3-9.8Z" transform="translate(-232.24 -227)"/><path class="03df8f19-c14f-4a62-aac0-9950127677a9" d="M335.1,478.7c-4.4,1-19.5,4.5-18.3,9.8,1.3,5.8,9.4,6.3,16.5,3.4,4.9-2,24.5-9.4,41.3-7.6" transform="translate(-232.24 -227)"/><path class="03df8f19-c14f-4a62-aac0-9950127677a9" d="M337.4,466.6c-9.6,2.5-14,6.7-13.2,9.8s7.5,2.5,9.4,2.4c16.2-1.4,27.1-9,44.5-7.1" transform="translate(-232.24 -227)"/><path class="03df8f19-c14f-4a62-aac0-9950127677a9" d="M374,458.6c-12.1.6-22.1,4.2-34,7.3-2.6.7-6.6,1.9-7.5-.7-.7-1.8.8-7.3,21.8-15.7,15.7-6.3,33.5,1.1,49.3,7,0,0,15.2,7,20.6,14.4,1.2,1.7,2.9,3.9,5,3.2,1-.3,1.8-1.4,2.8-1.6a2.9,2.9,0,0,1,3.1,1.7,8,8,0,0,1,.6,3.8c-.1,4.1-3.9,19.1-6.1,23.1-.8,1.5-1.8,4.6-3.4,5-1,.3-2.1-1.6-3.1-1.6-4.2-.1-7.8,2.7-10.9,5.4-8.5,7.4-17.2,15.6-28.3,17.9a56.13,56.13,0,0,1-10.8.8c-8.3.1-9.4-2.3-17.7-2.2-2.3,0-12.7-.1-12.5-4.8s7.1-8.5,10.8-9c2.1-.3,3.8.1,7.2,1s15.2-.7,13.3-9.4c-.6-2.8-3-4.1-5.9-4-3.5,0-11.6,2.5-11.6,2.5a235.22,235.22,0,0,1-26.5,4c-3.1.3-12.4,1.1-14.3-1.3s2-9.5,13.8-12.5" transform="translate(-232.24 -227)"/><path class="03df8f19-c14f-4a62-aac0-9950127677a9" d="M392.3,465.4a63.64,63.64,0,0,1,21.9,7.3" transform="translate(-232.24 -227)"/><path class="03df8f19-c14f-4a62-aac0-9950127677a9" d="M392.2,477a133.51,133.51,0,0,1,20.8,2.2" transform="translate(-232.24 -227)"/><path class="03df8f19-c14f-4a62-aac0-9950127677a9" d="M392,486.8h19.1" transform="translate(-232.24 -227)"/><path class="cc0c5151-27dd-498b-bb51-f5dd70213428" d="M768.8,447.3s67.6-215.3,242.5-83.4" transform="translate(-232.24 -227)"/><ellipse class="bbdc2585-200d-486b-90fd-71c1ce8c79ac" cx="519.56" cy="214.3" rx="80.2" ry="43.2"/><path class="7d74bc8a-40ea-49eb-b9b7-aa1ce40411ef" d="M1098.8,422.6c1.4,1.4,6.5,6.5,9.2,4.5s2-8.4-4.1-16.9h0c1.4,1.7,3.1,3.1,4.8,2.2s4.3-6.4-7.1-27.5c-8.4-15.7-27.9-21.7-44.7-27.6,0,0-17.1-4.6-26.4-2.2-2.2.6-5,1.2-6.2-.7-.6-1-.5-2.3-1.2-3.2a3,3,0,0,0-3.7-.7,8.33,8.33,0,0,0-3,2.6c-2.7,3.4-9.7,18.2-10.6,22.9-.3,1.7-1.6,5-.6,6.4.6.9,2.8.1,3.6.8,3.4,2.7,4.5,7.4,5.2,11.7,1.9,11.7,3.4,24.3,10.8,33.6a62,62,0,0,0,8.2,8c6.7,5.7,9.2,4.5,15.9,10.2,1.9,1.6,10.3,8.5,13.4,4.6s-.1-11.6-2.7-14.7c-1.5-1.7-3.2-2.5-6.5-4.1s-11.9-10.8-4.5-16.5c2.4-1.9,5.2-1.3,7.5.7,2.8,2.4,7.7,9.9,7.7,9.9,5.9,7.4,12.1,14.4,18.7,21.2,2.3,2.3,9.2,9.3,12.4,8.6s4.8-9-2.8-19.5h0c3.9,5.2,9.4,8.2,13.6,5.1,4.5-3.5-5.3-16.5-8.2-20.3Z" transform="translate(-232.24 -227)"/><path class="03df8f19-c14f-4a62-aac0-9950127677a9" d="M1097.8,421.5c2.9,3.8,12.8,16.8,8.2,20.3-5,3.8-11.9-1.3-15.7-8.4-2.6-5-13.5-24.1-28.4-34" transform="translate(-232.24 -227)"/><path class="03df8f19-c14f-4a62-aac0-9950127677a9" d="M1104,410.2c6.1,8.5,6.8,14.9,4.1,16.9s-7.8-3-9.2-4.5c-12.3-12-15.9-25.5-31.3-35.8" transform="translate(-232.24 -227)"/><path class="03df8f19-c14f-4a62-aac0-9950127677a9" d="M1079.7,379c9.4,8.7,15.1,18.4,22.6,28.9,1.7,2.3,4.1,5.9,6.5,4.5,1.8-1,4.3-6.4-7.1-27.5-8.4-15.7-27.9-21.7-44.7-27.6,0,0-17.1-4.6-26.4-2.2-2.2.6-5,1.2-6.2-.7-.6-1-.5-2.3-1.2-3.2a3,3,0,0,0-3.7-.7,8.46,8.46,0,0,0-3,2.6c-2.7,3.4-9.7,18.2-10.6,22.9-.3,1.7-1.6,5-.6,6.4.6.9,2.8.1,3.6.8,3.4,2.7,4.5,7.4,5.2,11.7,1.9,11.7,3.4,24.3,10.8,33.6a62,62,0,0,0,8.2,8c6.7,5.7,9.2,4.5,15.9,10.2,1.9,1.6,10.3,8.5,13.4,4.6s-.1-11.6-2.7-14.7c-1.5-1.7-3.2-2.5-6.5-4.1s-11.9-10.8-4.5-16.5c2.4-1.9,5.2-1.3,7.5.7,2.8,2.4,7.7,9.9,7.7,9.9,5.9,7.4,12.1,14.4,18.7,21.2,2.3,2.3,9.2,9.3,12.4,8.6s4.8-9-2.8-19.5" transform="translate(-232.24 -227)"/><path class="03df8f19-c14f-4a62-aac0-9950127677a9" d="M1024.4,382a124,124,0,0,1,20.8,18" transform="translate(-232.24 -227)"/><path class="03df8f19-c14f-4a62-aac0-9950127677a9" d="M1031.5,375.1c6.4,4.2,12.8,8.3,19.2,12.5" transform="translate(-232.24 -227)"/><path class="03df8f19-c14f-4a62-aac0-9950127677a9" d="M1033.2,368.1a91,91,0,0,1,24.9,8.7" transform="translate(-232.24 -227)"/><path class="b8159f2d-605d-42b3-9b67-63d5d6d7cf3a" d="M1051.5,480.1c-37.4,3.5-74.8,6.4-112.3,9.6-4.1.3-8.3.7-12.2-.5s-7.5-4.4-8-8.5c-.2-2.1.4-4.2-.1-6.2-1.1-5-7.4-6.7-12.5-7.1a146.19,146.19,0,0,0-39.6,2.4c-11.5,2.3-22.7,6.1-34.3,7.6s-46.6-22-57.1-20.9c-10.9,1.2-19.4,9.7-28.5,15.8s-22.6,9.6-30.3,1.7c-6.3-6.5-5.4-17.6-11.5-24.2s-16.9-6.3-24.8-2.3-14.1,10.9-20.9,16.6-15.3,10.7-24.1,9.6-16.8-10.9-13-19c.8-1.8,8.7-25.6-19.4-17.8-30.3,8.4-148.2,68.6-183.3,60.8-12.9-2.9-27.5-7.1-38.4.4-4.3,3-7.4,7.5-11.9,10.1-11.4,6.8-26.7-2.8-39.6-5.8-17.5-4.1-50.5-11-66.9-3.5-9.4,4.3-18.5,10-24.5,18.6s-9.6,20.7,2.4,26c12.4,5.4,29.6-5,40.7-9.5a127.66,127.66,0,0,1,16.9-5.4c3.9-1,8.2-1.7,11.9,0,4.6,2.1,6.8,7.4,7.7,12.3s.9,10.2,2.8,14.8c4.5,10.8,17.8,15.1,29.5,15.3,20.3.5,39.8-6.7,59.2-12.7a532.8,532.8,0,0,1,79.8-18.2c16.6-2.5,35.7-2.7,49.4-12.8,15.1-11.1,34-19.3,51.2-26.7,5.4-2.3,12.2-4.4,16.8-.7,4.3,3.4,4.3,10.3,8.4,13.9,5.9,5.3,17.6,1.7,21.5,8.6,1.2,2,1.3,4.5,1.2,6.8,0,10.2-1.7,21.6,4.8,30.3,5.4,7.3,14.9,11.5,23.9,11.9,13,.5,25.3-5.2,37-10.8,28.3-13.7,56.6-28.4,87.3-35.2,3.4-.8,7.8-.9,9.3,2.2.7,1.4.5,3.1.7,4.7.7,4.7,5.2,8.1,9.9,9,12.1,2.3,22.7-3.2,32.9-8.8a97.22,97.22,0,0,1,33.2-10.7c2.5-.3,5.2-.6,7.6.3,5.6,2.1,7.3,9.3,6.9,15.3s-2.3,12.1-.5,17.8c2.3,7.3,10.1,11.8,17.7,12.2,13.2.8,28.9-7.7,38.9-15.7s22.3-10,35-8.1a72.09,72.09,0,0,1,18.9,5.5c5.2,2.4,6.6,4.3,11.4.1,8.4-7.5,13.3-18.1,22.5-24.9a39,39,0,0,1,27.2-7.2c6.1.7,12.7,2.8,18.3.1,5-2.5,8.9-5.6,14.1-7.8,4.2-1.8,5.9-3.8,6.9-8.3s.6-8.8-2.2-12.4C1090,475.9,1064.8,478.8,1051.5,480.1Z" transform="translate(-232.24 -227)"/><path class="b8159f2d-605d-42b3-9b67-63d5d6d7cf3a" d="M615.1,374.2c-4.6-1.7-9.9-2.5-14.5-.7s-8.3,6.7-7.3,11.6c1.1,6,8,9,13.8,10.9,10.7,3.5,21.4,6.9,32.1,10.4C639.1,406.3,628,379,615.1,374.2Z" transform="translate(-232.24 -227)"/><path class="b8159f2d-605d-42b3-9b67-63d5d6d7cf3a" d="M568.7,381.8c-1.5-4.9-3-9.9-5.7-14.2-6.7-10.7-23.5-12.4-17.5,8.6a67.38,67.38,0,0,0-32.8-18.3c-6.9-1.6-14.3-2.1-20.7.8s-11.4,9.8-10.3,16.7c1.2,7.2,8.3,12.1,15.5,13.6s14.5.4,21.8.4c23,.1,45.6,12.2,58.6,31.2C577.6,420.6,572.6,394.9,568.7,381.8Z" transform="translate(-232.24 -227)"/><path class="b8159f2d-605d-42b3-9b67-63d5d6d7cf3a" d="M586.5,334.1c.7-8.3-5.5-17.6-13.7-17.1s-13.1,10.4-11.6,18.4,7.4,14.5,13,20.5C574.2,355.9,585.9,342.4,586.5,334.1Z" transform="translate(-232.24 -227)"/><path class="b8159f2d-605d-42b3-9b67-63d5d6d7cf3a" d="M1151,477.6a71,71,0,0,1,39.1-15.4c5.9-.4,12.7.4,15.8,5.4,2.5,4.1,1.4,9.6-1.7,13.3s-7.7,5.7-12.3,6.8C1176.6,491.4,1151,477.6,1151,477.6Z" transform="translate(-232.24 -227)"/><path class="b8159f2d-605d-42b3-9b67-63d5d6d7cf3a" d="M1150.7,507.6c17.4-4.1,36.9,8.7,40.2,26.3.7,3.6.7,7.6-.8,10.9a9.69,9.69,0,0,1-8.7,5.9c-5.5-.2-8.9-5.9-11.3-10.9C1163.7,526.4,1150.7,507.6,1150.7,507.6Z" transform="translate(-232.24 -227)"/><path class="b8159f2d-605d-42b3-9b67-63d5d6d7cf3a" d="M1072.4,541.2a28.67,28.67,0,0,1,25.8-4,28.36,28.36,0,0,1,17.8,19.1,16,16,0,0,1-.3,10.8c-1.4,3.4-4.8,6.1-8.5,5.9-3.9-.1-7.1-3.5-8.9-7s-2.5-7.5-4.2-11.1a23.14,23.14,0,0,0-23.5-12.4Z" transform="translate(-232.24 -227)"/></g></svg>