<svg id="851dcdb7-08ce-4553-9639-556949de7983" data-name="929a63f3-9ae3-4ac3-aaf2-1ac0400b1715" xmlns="http://www.w3.org/2000/svg" width="719.3" height="653.79" viewBox="0 0 719.3 653.79"><defs><style>.\32 f3ce127-c340-4f20-a2c2-a49449262278{fill:#000116;stroke:#fff;}.\30 81d1391-7386-4c91-a2cd-c0e1679ff73d,.\32 f3ce127-c340-4f20-a2c2-a49449262278,.fdc54e85-9c6c-4df8-9b5d-96430e1d23c4{stroke-miterlimit:10;}.\30 81d1391-7386-4c91-a2cd-c0e1679ff73d{fill:#fff;}.\30 81d1391-7386-4c91-a2cd-c0e1679ff73d,.fdc54e85-9c6c-4df8-9b5d-96430e1d23c4{stroke:#000116;}.fdc54e85-9c6c-4df8-9b5d-96430e1d23c4{fill:none;}</style></defs><title>thanks</title><path class="2f3ce127-c340-4f20-a2c2-a49449262278" d="M599.5,458.1c-17.8,26.6-46.3,47.5-79.1,70.2-34.5,23.9-76.2,47-118.2,65-7.6,3.3-40.3,16.1-40.3,16.1-4.5,7.9,4.8,33.7,7.7,41.7,3,8.4,12.7,27.7,29.3,40.4,1.5.2-1.5.5,0,0,38.2-13.1,72.8-30.7,105.1-50.1,24-14.4,46.7-29.8,68.6-45,38.5-26.7,75.2-53.9,101.1-92.4Z" transform="translate(-360.19 -73.32)"/><path class="081d1391-7386-4c91-a2cd-c0e1679ff73d" d="M662.9,336.6a45.23,45.23,0,0,0-9.8-28.6c-9.6-13.2-23.5-25.8-39.3-30.8-10.9-3.5-29.8-2.3-39.1,5.1-17.8,14.1,11.3,16.6,18.4,25.9,6.6,8.2,9.7,17.4,12,28.1,5.4,25-3.1,49.9-13.4,75.3-5,11.9-6,24.2-4.7,35.9.2,1.9,1.9,6.3,1.3,8.2-4.8,14.6-14,16.3-4,31.8,8.8,13.7,23.2,23.4,36.3,32.5,9.9,6.9,21.1,19.9,33.2,12.1,5.5-3.5,7.6-9.9,13.7-13,6.5-3.3,15.1-2.7,22.1-4.6,14.2-3.9,68.7-15.8,120.6-99.1,9.8-15.8,65.9-78.9,52.5-94.6-11.3-12.6-60.1,43-71.9,54.3,17.6-17.8,106.4-104.1,94.1-121C865.5,230,763,334.5,765.6,336.3c-3-2.6,116.9-106.9,103.2-123.6-12.3-14.4-80.2,38.6-89.8,49.5q-24,22.2-47.1,45.3c12.6-13.3,18.4-18.1,31.3-31.2,9-9.9,49.6-47.9,38.5-61-5.6-6.7-29.5-2.1-53.9,16.9-78.5,61-89.1,85-89,84.8" transform="translate(-360.19 -73.32)"/><line class="fdc54e85-9c6c-4df8-9b5d-96430e1d23c4" x1="161.91" y1="30.08" x2="268.71" y2="118.98"/><line class="fdc54e85-9c6c-4df8-9b5d-96430e1d23c4" x1="325.21" y1="0.08" x2="331.71" y2="40.78"/><line class="fdc54e85-9c6c-4df8-9b5d-96430e1d23c4" x1="596.91" y1="344.38" x2="719.11" y2="295.28"/><line class="fdc54e85-9c6c-4df8-9b5d-96430e1d23c4" x1="606.01" y1="373.68" x2="662.21" y2="361.38"/><path class="2f3ce127-c340-4f20-a2c2-a49449262278" d="M618,467.4c-13.9,28.8-39.3,53.5-68.5,80.6-30.8,28.5-68.9,57.1-108,80.8-7.1,4.3-41.7,24.6-41.7,24.6,3.1,51,50.7,73.9,52.1,73.2,36-18.3,67.8-40.6,97-64.3,21.8-17.6,42.1-36,61.6-54.1,34.4-31.8,67-63.9,87.2-105.6Z" transform="translate(-360.19 -73.32)"/><path class="081d1391-7386-4c91-a2cd-c0e1679ff73d" d="M689.1,345a45.54,45.54,0,0,0-9.2-28.8c-9.7-13.1-22.3-25.8-38-31.3-10.5-3.7-28.4-4-37.6,3.3-18.6,14.8,8.6,17.3,15.6,27,6.5,8.3,9.4,17.6,11.4,28.3,4.9,25.1-4,49.9-14.8,75a71.44,71.44,0,0,0-5.4,35.8c.2,1.9,1.8,6.4,1.1,8.2-5.1,14.5-17.8,9.8-8.1,25.6,8.5,13.9,26.2,30,39.2,39.4,0,0,26.5,22,32.1,20.3,6.3-1.8,8.6-17.3,14.8-20.3,6.6-3.2,15.1-2.4,22.2-4.2,14.3-3.6,69-14.5,122.5-96.8,10.1-15.6,67.4-77.6,54.3-93.5-11.1-12.8-60.9,41.8-72.9,52.9,18-17.4,108.3-102,96.4-119.2-18.9-24.6-123.3,77.9-120.8,79.8-2.9-2.7,118.9-104.6,105.6-121.6-12.1-14.6-80.9,37-90.7,47.7-16.3,14.5-32.2,29.3-47.9,44.4,12.9-13.1,18.7-17.8,31.9-30.6,9.2-9.8,50.5-47,39.7-60.2-5.5-6.8-25.5,2.3-71.7,35.7-84.7,61.3-73.2,63.4-73.2,63.2" transform="translate(-360.19 -73.32)"/><path class="081d1391-7386-4c91-a2cd-c0e1679ff73d" d="M723.3,370.5c-21.2,23.8-38.4,50.8-55.5,77.6l1.5-2.4" transform="translate(-360.19 -73.32)"/><path class="081d1391-7386-4c91-a2cd-c0e1679ff73d" d="M755.1,375.7q-24,33.75-51.2,65.1" transform="translate(-360.19 -73.32)"/><path class="081d1391-7386-4c91-a2cd-c0e1679ff73d" d="M767.1,411.1c-19.1,19.6-38.3,39.1-57.8,58.3" transform="translate(-360.19 -73.32)"/></svg>