<svg id="7d015ca3-b51a-4106-9266-55a3bd3cf4d9" data-name="929a63f3-9ae3-4ac3-aaf2-1ac0400b1715" xmlns="http://www.w3.org/2000/svg" width="629.65" height="572.32" viewBox="0 0 629.65 572.32"><defs><style>.\39 6ada4dd-0f5a-4f1d-b7dd-789b12973ba7{fill:#000116;stroke:#fff;}.\35 7102078-4730-47fc-811e-2f3a9430fa86,.\39 6ada4dd-0f5a-4f1d-b7dd-789b12973ba7,.a2f4f3ef-5135-4596-b72b-2fd69d767ca7{stroke-miterlimit:10;stroke-width:0.88px;}.a2f4f3ef-5135-4596-b72b-2fd69d767ca7{fill:#fff;}.\35 7102078-4730-47fc-811e-2f3a9430fa86,.a2f4f3ef-5135-4596-b72b-2fd69d767ca7{stroke:#000116;}.\35 7102078-4730-47fc-811e-2f3a9430fa86{fill:none;}</style></defs><title>thanks</title><path class="96ada4dd-0f5a-4f1d-b7dd-789b12973ba7" d="M614.5,450.9c-15.6,23.3-40.5,41.6-69.2,61.5a609.1,609.1,0,0,1-103.5,56.9c-6.7,2.9-35.3,14.1-35.3,14.1-3.9,6.9,4.2,29.5,6.7,36.5,2.6,7.4,11.1,24.2,25.6,35.4,1.3.2-1.3.4,0,0,33.4-11.5,63.7-26.9,92-43.9,21-12.6,40.9-26.1,60.1-39.4,33.7-23.4,65.8-47.2,88.5-80.9Z" transform="translate(-405.02 -114.03)"/><path class="a2f4f3ef-5135-4596-b72b-2fd69d767ca7" d="M670,344.5a39.08,39.08,0,0,0-8.6-25c-8.4-11.6-20.6-22.6-34.4-27-9.5-3.1-26.1-2-34.2,4.5-15.6,12.3,9.9,14.5,16.1,22.7,5.8,7.2,8.5,15.2,10.5,24.6,4.7,21.9-2.7,43.7-11.7,65.9a61.49,61.49,0,0,0-4.1,31.4c.2,1.7,1.7,5.5,1.1,7.2-4.2,12.8-12.3,14.3-3.5,27.8,7.7,12,20.3,20.5,31.8,28.5,8.7,6,18.5,17.4,29.1,10.6,4.8-3.1,6.7-8.7,12-11.4,5.7-2.9,13.2-2.4,19.3-4,12.4-3.4,60.1-13.8,105.6-86.8,8.6-13.8,57.7-69.1,46-82.8-9.9-11-52.6,37.6-62.9,47.5,15.4-15.6,93.1-91.1,82.4-105.9-17-21.1-106.7,70.4-104.4,72-2.6-2.3,102.3-93.6,90.3-108.2-10.8-12.6-70.2,33.8-78.6,43.3q-21,19.5-41.2,39.7c11-11.6,16.1-15.8,27.4-27.3,7.9-8.7,43.4-41.9,33.7-53.4-4.9-5.9-25.8-1.8-47.2,14.8-68.7,53.4-78,74.4-77.9,74.2" transform="translate(-405.02 -114.03)"/><line class="57102078-4730-47fc-811e-2f3a9430fa86" x1="141.78" y1="26.37" x2="235.28" y2="104.17"/><line class="57102078-4730-47fc-811e-2f3a9430fa86" x1="284.68" y1="0.07" x2="290.38" y2="35.67"/><line class="57102078-4730-47fc-811e-2f3a9430fa86" x1="522.58" y1="301.47" x2="629.48" y2="258.47"/><line class="57102078-4730-47fc-811e-2f3a9430fa86" x1="530.48" y1="327.07" x2="579.68" y2="316.37"/><path class="96ada4dd-0f5a-4f1d-b7dd-789b12973ba7" d="M630.7,459c-12.2,25.2-34.4,46.8-60,70.6a606,606,0,0,1-94.5,70.7c-6.2,3.8-36.5,21.5-36.5,21.5,2.7,44.6,44.4,64.7,45.6,64.1,31.5-16,59.4-35.5,84.9-56.3,19.1-15.4,36.9-31.5,53.9-47.4,30.1-27.8,58.7-55.9,76.3-92.4Z" transform="translate(-405.02 -114.03)"/><path class="a2f4f3ef-5135-4596-b72b-2fd69d767ca7" d="M693,351.9a39.44,39.44,0,0,0-8.1-25.2c-8.5-11.5-19.5-22.6-33.3-27.4-9.2-3.2-24.9-3.5-32.9,2.9-16.3,13,7.5,15.1,13.7,23.6,5.7,7.3,8.2,15.4,10,24.8,4.3,22-3.5,43.7-13,65.7a61.47,61.47,0,0,0-4.7,31.3c.2,1.7,1.6,5.6,1,7.2-4.5,12.7-15.6,8.6-7.1,22.4,7.4,12.2,22.9,26.3,34.3,34.5,0,0,23.2,19.3,28.1,17.8,5.5-1.6,7.5-15.1,13-17.8,5.8-2.8,13.2-2.1,19.4-3.7,12.5-3.2,60.4-12.7,107.2-84.7,8.8-13.7,59-67.9,47.5-81.8-9.7-11.2-53.3,36.6-63.8,46.3,15.8-15.2,94.8-89.3,84.4-104.3C872.2,262,780.8,351.7,783,353.4c-2.5-2.4,104.1-91.6,92.4-106.4-10.6-12.8-70.8,32.4-79.4,41.8-14.3,12.7-28.2,25.6-41.9,38.9,11.3-11.5,16.4-15.6,27.9-26.8,8.1-8.6,44.2-41.1,34.8-52.7-4.8-6-22.3,2-62.8,31.3-74.1,53.7-64.1,55.5-64.1,55.3" transform="translate(-405.02 -114.03)"/><path class="a2f4f3ef-5135-4596-b72b-2fd69d767ca7" d="M722.9,374.2c-18.6,20.8-33.6,44.5-48.6,67.9.4-.7.9-1.4,1.3-2.1" transform="translate(-405.02 -114.03)"/><path class="a2f4f3ef-5135-4596-b72b-2fd69d767ca7" d="M750.7,378.7c-14,19.7-29,38.7-44.8,57" transform="translate(-405.02 -114.03)"/><path class="a2f4f3ef-5135-4596-b72b-2fd69d767ca7" d="M761.2,409.7c-16.7,17.2-33.5,34.2-50.6,51" transform="translate(-405.02 -114.03)"/></svg>