<?xml version="1.0" encoding="utf-8"?>
<!-- Generator: Adobe Illustrator 22.1.0, SVG Export Plug-In . SVG Version: 6.00 Build 0)  -->
<svg version="1.1" id="_x39_29a63f3-9ae3-4ac3-aaf2-1ac0400b1715"
	 xmlns="http://www.w3.org/2000/svg" xmlns:xlink="http://www.w3.org/1999/xlink" x="0px" y="0px" viewBox="0 0 1440 800"
	 style="enable-background:new 0 0 1440 800;" xml:space="preserve">
<style type="text/css">
	.st0{fill:#000116;stroke:#FFFFFF;stroke-width:0.8754;stroke-miterlimit:10;}
	.st1{fill:#FFFFFF;stroke:#000116;stroke-width:0.8754;stroke-miterlimit:10;}
	.st2{fill:none;stroke:#000116;stroke-width:0.8754;stroke-miterlimit:10;}
</style>
<g>
	<path class="st0" d="M614.5,450.9c-15.6,23.3-40.5,41.6-69.2,61.5c-30.2,20.9-66.7,41.1-103.5,56.9c-6.7,2.9-35.3,14.1-35.3,14.1
		c-3.9,6.9,4.2,29.5,6.7,36.5c2.6,7.4,11.1,24.2,25.6,35.4c1.3,0.2-1.3,0.4,0,0c33.4-11.5,63.7-26.9,92-43.9
		c21-12.6,40.9-26.1,60.1-39.4c33.7-23.4,65.8-47.2,88.5-80.9L614.5,450.9z"/>
	<g>
		<g>
			<g>
				<g>
					<path class="st1" d="M670,344.5c0.2-9.5-3.2-18.1-8.6-25c-8.4-11.6-20.6-22.6-34.4-27c-9.5-3.1-26.1-2-34.2,4.5
						c-15.6,12.3,9.9,14.5,16.1,22.7c5.8,7.2,8.5,15.2,10.5,24.6c4.7,21.9-2.7,43.7-11.7,65.9c-4.4,10.4-5.3,21.2-4.1,31.4
						c0.2,1.7,1.7,5.5,1.1,7.2c-4.2,12.8-12.3,14.3-3.5,27.8c7.7,12,20.3,20.5,31.8,28.5c8.7,6,18.5,17.4,29.1,10.6
						c4.8-3.1,6.7-8.7,12-11.4c5.7-2.9,13.2-2.4,19.3-4c12.4-3.4,60.1-13.8,105.6-86.8c8.6-13.8,57.7-69.1,46-82.8
						c-9.9-11-52.6,37.6-62.9,47.5c15.4-15.6,93.1-91.1,82.4-105.9c-17-21.1-106.7,70.4-104.4,72c-2.6-2.3,102.3-93.6,90.3-108.2
						c-10.8-12.6-70.2,33.8-78.6,43.3c-14,13-27.7,26.2-41.2,39.7c11-11.6,16.1-15.8,27.4-27.3c7.9-8.7,43.4-41.9,33.7-53.4
						c-4.9-5.9-25.8-1.8-47.2,14.8c-68.7,53.4-78,74.4-77.9,74.2"/>
				</g>
			</g>
		</g>
	</g>
	<g>
		<g>
			<line class="st2" x1="546.8" y1="140.4" x2="640.3" y2="218.2"/>
			<line class="st2" x1="689.7" y1="114.1" x2="695.4" y2="149.7"/>
			<line class="st2" x1="927.6" y1="415.5" x2="1034.5" y2="372.5"/>
			<line class="st2" x1="935.5" y1="441.1" x2="984.7" y2="430.4"/>
		</g>
		<g>
			<path class="st0" d="M630.7,459c-12.2,25.2-34.4,46.8-60,70.6c-27,24.9-60.3,50-94.5,70.7c-6.2,3.8-36.5,21.5-36.5,21.5
				c2.7,44.6,44.4,64.7,45.6,64.1c31.5-16,59.4-35.5,84.9-56.3c19.1-15.4,36.9-31.5,53.9-47.4c30.1-27.8,58.7-55.9,76.3-92.4
				L630.7,459z"/>
			<g>
				<g>
					<g>
						<path class="st1" d="M693,351.9c0.4-9.5-2.9-18.2-8.1-25.2c-8.5-11.5-19.5-22.6-33.3-27.4c-9.2-3.2-24.9-3.5-32.9,2.9
							c-16.3,13,7.5,15.1,13.7,23.6c5.7,7.3,8.2,15.4,10,24.8c4.3,22-3.5,43.7-13,65.7c-4.6,10.3-5.7,21.1-4.7,31.3
							c0.2,1.7,1.6,5.6,1,7.2c-4.5,12.7-15.6,8.6-7.1,22.4c7.4,12.2,22.9,26.3,34.3,34.5c0,0,23.2,19.3,28.1,17.8
							c5.5-1.6,7.5-15.1,13-17.8c5.8-2.8,13.2-2.1,19.4-3.7c12.5-3.2,60.4-12.7,107.2-84.7c8.8-13.7,59-67.9,47.5-81.8
							c-9.7-11.2-53.3,36.6-63.8,46.3c15.8-15.2,94.8-89.3,84.4-104.3c-16.5-21.5-107.9,68.2-105.7,69.9
							c-2.5-2.4,104.1-91.6,92.4-106.4c-10.6-12.8-70.8,32.4-79.4,41.8c-14.3,12.7-28.2,25.6-41.9,38.9
							c11.3-11.5,16.4-15.6,27.9-26.8c8.1-8.6,44.2-41.1,34.8-52.7c-4.8-6-22.3,2-62.8,31.3c-74.1,53.7-64.1,55.5-64.1,55.3"/>
					</g>
					<path class="st1" d="M722.9,374.2c-18.6,20.8-33.6,44.5-48.6,67.9c0.4-0.7,0.9-1.4,1.3-2.1"/>
					<path class="st1" d="M750.7,378.7c-14,19.7-29,38.7-44.8,57"/>
					<path class="st1" d="M761.2,409.7c-16.7,17.2-33.5,34.2-50.6,51"/>
				</g>
			</g>
		</g>
	</g>
</g>
</svg>
