<svg id="9d28fc25-642d-4a7c-9ceb-e567f7dd004b" data-name="929a63f3-9ae3-4ac3-aaf2-1ac0400b1715" xmlns="http://www.w3.org/2000/svg" width="582.6" height="582.6" viewBox="0 0 582.6 582.6"><defs><style>.\34 8edb8f9-9c11-4184-b685-9652bf6a9671,.\38 99664bf-fac2-45ea-9ba4-8ff7a400ed63,.\38 b56e11d-9736-45e7-ae45-bbd868bf392e{fill:#fff;}.\34 031a21b-8ca6-40fd-b61a-fb3dae33ac7f,.\34 8edb8f9-9c11-4184-b685-9652bf6a9671,.\38 99664bf-fac2-45ea-9ba4-8ff7a400ed63,.\38 b56e11d-9736-45e7-ae45-bbd868bf392e,.e18e0550-99bb-420c-830f-8c92c23a5284{stroke:#05051c;}.\34 031a21b-8ca6-40fd-b61a-fb3dae33ac7f,.\34 8edb8f9-9c11-4184-b685-9652bf6a9671,.\38 99664bf-fac2-45ea-9ba4-8ff7a400ed63{stroke-linecap:round;stroke-linejoin:round;}.\38 99664bf-fac2-45ea-9ba4-8ff7a400ed63{stroke-width:5px;}.\38 b56e11d-9736-45e7-ae45-bbd868bf392e,.e18e0550-99bb-420c-830f-8c92c23a5284{stroke-miterlimit:10;}.\34 031a21b-8ca6-40fd-b61a-fb3dae33ac7f,.e18e0550-99bb-420c-830f-8c92c23a5284{fill:none;}.e18e0550-99bb-420c-830f-8c92c23a5284{stroke-width:0.95px;}</style></defs><title>time</title><circle class="899664bf-fac2-45ea-9ba4-8ff7a400ed63" cx="291.3" cy="291.3" r="288.8"/><path id="10556a5a-72c5-4774-a8b8-b14ae7569abb" data-name="&lt;Tracé&gt;" class="48edb8f9-9c11-4184-b685-9652bf6a9671" d="M752.3,406.1c-4.3,24.1-36.2,33.6-60.2,31.2-15.7-1.5-20.6-22.9-36.1-8.7a5.94,5.94,0,0,1-1.8,1.3c-1.9.8-4.2-.8-5.4-2.5-4.1-5.9-1.7-13.9,3.7-18.2,10.4-8.3,19-11,29.6-2" transform="translate(-428.7 -108.7)"/><path id="cc202bfe-a88d-4477-a16b-18f0c9c0a74b" data-name="&lt;Tracé&gt;" class="8b56e11d-9736-45e7-ae45-bbd868bf392e" d="M674.9,400.8c-21.3-27.9-34.3-45.6-44.3-78.4-1.4-4.6-2.9-10.2,1.1-12.8,2.1-1.4,3.7-.1,6,1a18.06,18.06,0,0,1,5.9,4.7c14,17.4,20.1,28.9,30.9,47.3-2.4-4.1-7.9-19.8,2-24.1,8.1-3.5,15.6,7.2,21.1,13.7-4-4.7,1.4-12.6,7.2-12.8,6.5-.2,10.5,7.1,14.2,11.3-.8-14,11.7-8.4,14.6-5.4,17,17.9,36.5,48.5,21.5,72.7-3.9,6.4-11.2,12.1-18.4,9.9" transform="translate(-428.7 -108.7)"/><path class="8b56e11d-9736-45e7-ae45-bbd868bf392e" d="M729.3,374.1" transform="translate(-428.7 -108.7)"/><path class="8b56e11d-9736-45e7-ae45-bbd868bf392e" d="M705.5,383.6" transform="translate(-428.7 -108.7)"/><path class="8b56e11d-9736-45e7-ae45-bbd868bf392e" d="M680.1,369.6a115.69,115.69,0,0,0,8.9,11" transform="translate(-428.7 -108.7)"/><path class="8b56e11d-9736-45e7-ae45-bbd868bf392e" d="M703.9,366.9a115.69,115.69,0,0,0,8.9,11" transform="translate(-428.7 -108.7)"/><path class="8b56e11d-9736-45e7-ae45-bbd868bf392e" d="M729.1,361.1c2.3,3.4,4.6,6.9,8,9.1" transform="translate(-428.7 -108.7)"/><line class="4031a21b-8ca6-40fd-b61a-fb3dae33ac7f" x1="21.5" y1="295.8" x2="56.1" y2="295.8"/><line class="4031a21b-8ca6-40fd-b61a-fb3dae33ac7f" x1="527" y1="295.8" x2="561.5" y2="295.8"/><line class="4031a21b-8ca6-40fd-b61a-fb3dae33ac7f" x1="291.5" y1="22.5" x2="291.5" y2="57.1"/><line class="e18e0550-99bb-420c-830f-8c92c23a5284" x1="291.5" y1="528" x2="291.5" y2="562.5"/><path d="M534.5,534.6c-4,3.2-10.6,6-17.8,3.7-11.2-3.6-22.2-22.9-24.7-31.7-1.8-6.1-2.9-15.7,2.7-22,2.9-3.5,9.1-7.5,15.7-6.5,5.2.6,9.1,3.5,12.8,6.6-.6-7.7.1-12.9,5.9-17.4a16.51,16.51,0,0,1,16-2.5c12.2,4.4,21.1,23.1,22.8,30.4,1.4,6,1.7,13.5-3.7,19.1-2.7,2.9-8.4,5.6-13.5,4.5-4-.8-6.6-2.6-10.4-5.3C541.1,521.8,541.9,528.7,534.5,534.6Zm-30.9-47.1c-3.3,1.7-5.2,4.3-5.6,9-1,11.8,8.5,26,15.6,31.5,3.7,3,7.3,4.2,11.3,2.8a11.84,11.84,0,0,0,7.6-7.8c2.4-8.7-3.6-22.7-7.9-27.7a39.92,39.92,0,0,0-8.5-7.2C511.4,485.4,507.1,485.6,503.6,487.5Zm33.2-15.4a9.87,9.87,0,0,0-5.8,8.1c-1.6,10.8,5.2,20.7,12.2,26.8,3.8,3.4,7.3,5.4,11.8,4.1a9.18,9.18,0,0,0,6.3-6.5c2.3-8.2-6.5-23.1-10.7-27.8a17.84,17.84,0,0,0-3.5-2.9C543.1,470.9,540,470.8,536.8,472.1Z" transform="translate(-428.7 -108.7)"/><path d="M837.1,550.6,840,557l-41.3,18.4,7.7,21.1c6.8-11.1,23-18.4,33.1-18.7,8.5-.1,15.9,3.6,20.3,10.2a23.71,23.71,0,0,1,2.2,22.7c-5.3,12.4-22,19.2-32.2,20.9-6.1,1-12.6.4-21.2-3.3l3.7-7.1c15,6.5,26.4,1.4,33.8-3.7,4.9-3.2,10-8.4,9.8-16.3-.3-5-2.9-10.6-8-13.5-7.8-4.4-19-1.2-24.1,1.6-5.3,2.9-11.9,8.3-14.4,17.3l-6.5.9-13.1-35.9Z" transform="translate(-428.7 -108.7)"/><path d="M691.4,252.8h14.2v6.8H668.7v-6.8h14.4V198.1a143.81,143.81,0,0,1-15.6,1v-5.5a36.54,36.54,0,0,0,16.4-4.9h7.4v64.1h.1Z" transform="translate(-428.7 -108.7)"/><path d="M779.6,252.5v7.1H717.9v-6.8a52.13,52.13,0,0,1,23.7-21.7c22.5-10.9,27.1-11.3,29.3-20.5.7-3.1.2-8.3-3.3-11.6-5.4-5.2-18.6-5.6-23.7-4.6-9.1,1.8-13.1,4.3-18.2,14.8l-6.9-3.4c5-12,13.3-16.4,22.9-18.3,6.8-1.2,23.8-1.5,32.4,6.9,5.2,5.2,6,11.9,5.2,17.5-2,10.8-9.6,14.3-19.2,18.8-9.3,4.4-24.1,8.7-33.2,21.9l52.7-.1Z" transform="translate(-428.7 -108.7)"/><path id="a41ae833-b8b9-4858-9053-a012b5364bb3" data-name="&lt;Tracé&gt;" class="48edb8f9-9c11-4184-b685-9652bf6a9671" d="M699,428.8c-10.5-29.1,16.5-64.5,46-72.1,20.1-5.1,36.9,12,44.9-13.2a8.49,8.49,0,0,1,1.1-2.6c1.6-2,5.1-1.8,7.5-.7,8.2,3.8,10.6,14.1,7.4,22.2-6.1,15.6-13.8,24-31,20.9" transform="translate(-428.7 -108.7)"/><path id="4e7268f8-25b4-42a9-9d3a-695bd16ad73d" data-name="&lt;Tracé&gt;" class="8b56e11d-9736-45e7-ae45-bbd868bf392e" d="M786.8,385.6c40.9,17,66.2,28.1,97.7,57.6,4.4,4.1,9.6,9.2,6.8,14.6-1.5,2.8-4,2.5-7.2,2.7a23.14,23.14,0,0,1-9.4-1.4c-26.2-10.1-40.2-18.8-63.6-32.1,5.2,2.9,21.1,16.7,13,27.5-6.6,8.9-21.6,2-31.7-1.7,7.3,2.6,6.4,14.6.3,18.5-7,4.4-15.9-1.1-22.6-3.4,9.7,14.8-7.4,16.6-12.5,15.1-29.9-8.8-70.4-29.9-69.3-65.7.3-9.4,4.6-20.2,13.8-22.4" transform="translate(-428.7 -108.7)"/><path class="8b56e11d-9736-45e7-ae45-bbd868bf392e" d="M744.4,449.2" transform="translate(-428.7 -108.7)"/><path class="8b56e11d-9736-45e7-ae45-bbd868bf392e" d="M764.2,423.8" transform="translate(-428.7 -108.7)"/><path class="8b56e11d-9736-45e7-ae45-bbd868bf392e" d="M800.8,423a123.15,123.15,0,0,0-16.6-6.3" transform="translate(-428.7 -108.7)"/><path class="8b56e11d-9736-45e7-ae45-bbd868bf392e" d="M776.5,441a123.15,123.15,0,0,0-16.6-6.3" transform="translate(-428.7 -108.7)"/><path class="8b56e11d-9736-45e7-ae45-bbd868bf392e" d="M752.7,463.2c-4.6-2.3-9.4-4.6-14.5-4.9" transform="translate(-428.7 -108.7)"/><path id="357f7d23-2d8f-4393-8d91-5f599b214756" data-name="&lt;Tracé&gt;" class="4031a21b-8ca6-40fd-b61a-fb3dae33ac7f" d="M708.3,436.2c-8.6-12.2-10.1-26.6-7-41.1" transform="translate(-428.7 -108.7)"/></svg>