<svg id="50a5b37d-3a6a-4219-bdaa-829a0c269683" data-name="929a63f3-9ae3-4ac3-aaf2-1ac0400b1715" xmlns="http://www.w3.org/2000/svg" width="1109.57" height="546.83" viewBox="0 0 1109.57 546.83"><defs><style>.\33 34f6af9-8985-4d16-a064-2945afa0597e{fill:#fff;}.\32 faf45b9-3eec-47a3-b5fb-66fc51ca18b0,.\33 34f6af9-8985-4d16-a064-2945afa0597e{stroke:#000116;stroke-miterlimit:10;}.\32 faf45b9-3eec-47a3-b5fb-66fc51ca18b0,.\34 a05411a-49b0-47d0-9327-9e8f83968c7b{fill:#000116;}</style></defs><title>water</title><path class="334f6af9-8985-4d16-a064-2945afa0597e" d="M985.9,431.2c2.7-5.4,4.5-12.5,10.3-14.3-.8,2.6-1.6,5.1-2.4,7.7a22.23,22.23,0,0,0,10.5-6.5c.8,3.6,6.2,3.1,9.3,1.2s7-4.5,10-2.5c-7.5,5.2-15,10.4-22.5,15.7-8.1,5.6-16.6,11.7-20.4,20.8,7.1-3.9,14.3-7.8,21.4-11.7,9.5-5.2,19.1-10.5,29.7-13.1,7.8-1.9,16.2-2.4,24-4.4-.3-.1-.6-.1-.9-.2-2.3-.4-5.4-1.4-5-3.8.3-1.6,2.4-2.5,2.6-4.2.2-1.4-4-5.8-5.1-7.2-2.4-3.4-6.2-5.7-10.4-4.9-2,.4-4.1,1.4-6.1,1a2.47,2.47,0,0,1-.9-.4c-2.8-3.2,1.7-7.6-3.2-10.6-1.9-1.2-4.7-1.8-6.1-3.6-3.1-3.8.8-11.5-3.7-13.4-.9-.4-2.1-.4-2.7-1.2-.9-1-.4-2.5-.3-3.8.2-3.6-4-6.7-7.4-5.4-2.8,5.5-.1,12.4-2.4,18-1.9,4.7-7.3,8.9-5.6,13.8-3.2.3-6.1-1.7-8.4-3.9s-4.6-4.7-7.7-5.5-7.1.9-7.2,4.1c-4.2,1.3-11.3,5.8-11.5,10.2-.1,3.3,1,7.4-1.7,9.3-1.5,1-3.5.8-5.2,1.4-4,1.4-5.1,6.3-5.9,10.4-3.8,18.9-20.2-3.3-25.8,11.8-1.9,5.2,1.5,7.1,3.4,11,1.5,3.1.7,6,.8,9.3,1.5-.1,3.6.3,3.7,1.8,0,.4-.1.8.1,1.1s.8.4,1.3.4c2.5.1,2.1,2.2,3.5,3.2,1,.7,2.3.4,3.4,1.2,2.4,1.7,4.1,5.4,1.8,7.9l8.7-.3,25-28C980.2,439.6,983.6,435.7,985.9,431.2Z" transform="translate(-165.41 -126.87)"/><path class="334f6af9-8985-4d16-a064-2945afa0597e" d="M787.7,497.4a291.47,291.47,0,0,1,15.7-39c-9.4,9.8-15.5,22.3-21.4,34.6-3.3,6.8-6.5,13.6-9.8,20.3a10.21,10.21,0,0,1-5.4,4.8c1.7-.1,3.5-.3,5.2-.5,4.5-.6,9.1-2.1,11.9-5.7.5-.6.9-1.3,1.4-1.8C785.2,506,786.4,501.5,787.7,497.4Z" transform="translate(-165.41 -126.87)"/><path class="334f6af9-8985-4d16-a064-2945afa0597e" d="M1049.8,420.1c-.5,3.1,4.2,3.5,6.2,4,3.8.8,7.6,2.1,10.4,4.9a9.55,9.55,0,0,1,1.9,3.1c1.5,3.6,2.3,8.1,6.9,7.7,2.6-.2,4.7-2,7.5-2.1,3.9-.1,7.8,1.9,11.6,1.2,2.2-.4,4.2-2.4,3.7-4.6-.2-.9-.9-1.8-1-2.7-.1-.4-1-.7-1.9-.9a7.61,7.61,0,0,1-2.1-.3,6.19,6.19,0,0,1,2.1.3,12.14,12.14,0,0,0,9.2-3.7c1.8-1.9,3.7-4.7,6.2-4s2.5,4.6,1.4,7.1-2.5,5.6-.7,7.7c1.5,1.8,4.3,1.5,6.2,2.8,3,2,2.5,6.5,2.3,10.1s1.7,8.5,5.3,7.8c2.3-.4,3.5-2.9,4.9-4.8s4.3-3.4,5.9-1.6c.8.9.7,2.3,1,3.6.7,3.3,3.9,5.4,6.5,7.6,3.6,3.1,2,8.5,5.3,10.5,2.9,1.7,4.7,3.1,7.6.1,1.3-1.4,3.2-3.1,4.9-2.3,1.9.9,1.6,3.5,2.3,5.5,2.8,7.6,7.9-.5,11.2-.3,4.8.3,3.7,6,5.8,8.5,7.8,9.2,17.5-14.6,17.8-20.9.4-8.5,2.6-7,9.3-8.9,5.4-1.5,7.2-7.5,13.3-8.4a10.9,10.9,0,0,0,8.8-8.3c.3-1.2.3-2.6,1-3.6,1.6-2.3,5.1-1.8,7.8-.9-3.6-4,2.5-8.2,4.5-10.9,2.8-3.9,2.3-4.5,2.2-8.6-.1-6.5-5.1-15.9-3-22,1.5-4.5,10.7-5.2,11.5-7.4.4-1.4-1.1-2.6-2.5-2.8s-2.8.3-4.2.3a5.21,5.21,0,1,1,1.8-10.2c-.7-3.7-6-4.2-8.2-7.2-2-2.9-.3-7.2,2.7-9s6.8-1.7,10.2-1,6.8,1.7,10.3,1.7c3.7-.1,7.2-1.4,10.7-2.7.6-1.9-2.2-2.9-4.1-2.9-3.1,0-6.2.1-9.2-.8s-5.7-3.1-6.4-6.1c-.3-1.3-.2-2.6-.8-3.8-1.5-2.6-5.5-1.8-8.3-.7a70.77,70.77,0,0,1-12,3.2c-4.7.8-9.6,1.1-13.9-.9-5.9-2.8-9-9.1-11.6-15.1-1.3-3.1-2.6-6.9-.7-9.6.8-1.2,2.2-2.1,2.4-3.6.3-2.8-4.2-4.8-3.4-7.5.4-1.1,1.6-1.7,2.2-2.8,1.6-2.6-1.6-5.6-4.5-6.5-2.3-.6-4.7-.8-6.8-1.9s-4-3.2-3.6-5.5c.2-1.4,1.2-2.6,1.2-4-.2-3.1-5.3-4.2-5.1-7.3s5.3-3.7,5.8-6.8c.4-2.8-3.7-4.2-6.2-2.8s-3.7,4.2-5.6,6.3-2.4,4.4-4.5,2.6l-5.5.3a4,4,0,0,1-2.4-.4c-.7-.4-1.1-1.2-1.7-1.6-1.3-.9-3.1-.4-4.7-.5a6,6,0,0,1-5.1-3.6,5.71,5.71,0,0,1,1.3-6.1c-2.5.4-5.7.5-6.7-1.8s1.6-5.5.2-7.8c-1.1-1.9-4.1-1.6-6-.3s-3.4,3.1-5.6,3.6-5-1.7-3.8-3.6c-2.2-.6-4.5-.2-6.8-.1s-4.8-.2-6.3-1.9-3.9-4.2-2.3-5.8c2.7-2.7,5.3-5.4,8-8.1.8-.8,1.7-2,1.1-3a2.44,2.44,0,0,0-2-.8c-2.4.1-4.5,1.7-6.9,2.4s-5.5.2-6.1-2.2c-.7-2.6,2.2-4.5,4.2-6.2a25.85,25.85,0,0,0,5.1-6.7c4-6.4,8-12.9,12-19.3a4.91,4.91,0,0,0,1-2.5c.1-1.4-.8-2.6-1.4-3.8a10.73,10.73,0,0,1,.4-10c.8-1.4,2-2.9,1.7-4.4-.6-2.5-4.5-3.2-4.6-5.7-.1-1.5,1.3-2.7,2.6-3.5,4.1-2.8,8.3-5.7,12.4-8.5-1.2-2.5-4.9-1.8-7.4-.6s-6.1,2-7.5-.3c-.5-.8-.5-1.9-1.1-2.7-.8-1.1-2.2-1.3-3.5-1.5l-15.6-1.8c4.1-5.5-.8-13.9,2.6-19.8,2.7-4.6,9.8-6.7,9.9-12-3.5.2-6.3,2.9-8.8,5.5-5.7,6-11.4,12.1-17.2,18.1a.1.1,0,0,1-.1.1L1087.8,166c-1,1-2.2,2.1-3.7,1.9-1.2-.2-2.2-1.2-3.4-1.2a4.13,4.13,0,0,0-2.3,1.1c-19.1,15.2-34.1,34.7-48.8,54.2-5.3,7-10.7,13.4-19.5,13.2-1,0-1-1.5-1.6-2.2-1-1.2-2.8-.1-3.8,1.1a13.34,13.34,0,0,1-3.4,3.3c-1.4.8-3.4.8-4.4-.4s-.7-2.8-.8-4.3,1.3-3.2-.2-3.3c-1.4-1.1-1.7-3.3-1.1-5.1a12.75,12.75,0,0,1,3.3-4.4,3.07,3.07,0,0,0,1-1.5c.3-1.3-1.4-2.4-2.7-2.1a6.81,6.81,0,0,0-3.2,2.4,4.86,4.86,0,0,1-3.4,2,2.86,2.86,0,0,1-2.3-4.2c-4.5.9-9.3,1.9-12.4,5.3-1.5,1.7-2.5,3.8-3.8,5.6-2.6,3.6-5.1,6.5-9.5,7.1-1.1,3-3.2,6.6-6.4,6.2-1.5-.2-2.9-1.3-4.4-1.2-1.8.1-3,2-3.4,3.8s-.2,3.7-.7,5.4-2.1,3.4-3.9,3.2a51.61,51.61,0,0,1-1.1,11.1c-.5,2.6-1.3,5.3-3.1,7.2-2.6,2.9-6.9,3.8-10.7,3-6.6-1.4-15.2-8.6-8-15.2a3.25,3.25,0,0,0,1-1.3c.2-1.1-1-1.8-1.8-2.5-4.8-4.3,3.9-13.5,7.3-15.5a28.63,28.63,0,0,0,4.2-2.4c1.2-1.1,2.1-2.8,1.5-4.3s-3.2-1.9-3.8-.4c-.1-1-.1-2-.2-3a21,21,0,0,0-8.1,3.9c-2.9-5.1-1.3-11.7,2.3-16.3,2.9-3.7,7.4-7.6,6.1-12.2-.5-1.6-1.6-2.9-2.4-4.4a13.36,13.36,0,0,1-.7-11.7c1.2-2.8,3.5-5.9,2.2-8.7-1.6-3.4-7.2-2.5-9.1.8s-1.1,7.3-.1,10.9,2.2,7.4,1,11a22.64,22.64,0,0,1-3,5.2c-2.9,4.6-4.3,9.9-6.1,14.9-2,5.4-4.4,10.6-6.9,15.8-2.9,6.1-8.8,14.2-9.8,20.8-.3,2.2,3.1,12.3-3.6,11.4-1-.1-1.9-.9-2.9-1.1-2.8-.6-4.9,2.8-4.8,5.6s1.4,5.6,1,8.5-3.8,5.5-5.9,3.7-1.6-6.6-4.4-6.6c-2-.7-3.7,2-3.4,4.1s1.4,4.1,1.3,6.2-1.5,3.9-2.5,5.7c-4.6,7.9-3.5,18.3-8.5,25.9a36.37,36.37,0,0,0-3,4.6,19.58,19.58,0,0,0-1.3,5.3A94.26,94.26,0,0,1,843.5,366c-1.9,3.2-12.3,13.1-13.9,4.4-.3-1.5.4-2.9.4-4.4s-.7-2.7-1-4a16.19,16.19,0,0,1,.1-5.8c.9-6.2,1.7-12.3,2.6-18.5-1.8-1.9-5.2-.6-6.4,1.8s-.7,5.1-.3,7.6.6,5.4-.9,7.5a5.43,5.43,0,0,1-9.9-3.1c0-1.6.7-3.1.8-4.7a7,7,0,0,0-1.4-4.6,4.12,4.12,0,0,0-5.1,1.6c3.3,2.3,2.4,8-.9,10.3-6.4,4.3-12.8.7-15.9-4.7-.9-1.6-2.9-3.1-4.6-2.2-1.4.8-1.6,2.8-1.1,4.3s1.6,2.8,2,4.4.2,3.5-1.3,4.2c-2,.9-3.9-1.4-5.9-2.4-2.7-1.4-5.9-.5-8.7.5a1.64,1.64,0,0,0-1.1.7,1.81,1.81,0,0,0,.2,1.4c1,1.8,2.8,3,4,4.7s1.3,4.6-.6,5.3c-1.4.6-2.9-.4-4.2-1.1s-3.3-1-4.1.2c-1.1,1.7,1.1,3.5,2.6,4.8s2.5,3.1,2.2,5-1.3,3.8-3.2,3.3a5.18,5.18,0,0,1-9.8,0c-.4-1.2-.6-2.9-1.8-3.4s-2.5.6-3,1.9-.5,2.6-1.1,3.7a5.16,5.16,0,0,1-4.7,2.5,9.46,9.46,0,0,1-5.2-1.4c-1.8.6-3.9-.4-5.1-2a9.81,9.81,0,0,1-1.6-5.5c0-1.5-.1-3.5-1.5-4.1-1.6-.7-3.3,1-4.1,2.6-3.5,7.2-2.7,16.8-8.8,22-3,2.6-7.2,3.4-11.1,4.2-6.1,1.2-7.5,2.8-13.6,1.6a18.12,18.12,0,0,1-21.2-5.4c-2.1-2.7-2.8-6.1-6-7.3a15.87,15.87,0,0,1-10.9-1.6c-3-1.7-5.5-4.4-8.8-5.2-3.8-.9-5.5,1.2-9.3,2.3a13.73,13.73,0,0,1-15.8-8c-.7-1.9-1.1-4.2-2.7-5.4-2.1-1.5-5.1-.5-7.2.9s-4.2,3.4-6.7,3.8c-2.7.4-5.2-1.1-7.8-1.8s-6.1-.5-7.1,2c-.7,1.6-.1,3.4,0,5.2a3.34,3.34,0,0,1-.6,2.2c-1.2,1.4-3.5.9-4.9-.3s-2.4-2.9-4-3.8-4.3-.3-4.3,1.6c-.1,1.2,1,2.1,1.6,3.2a4.31,4.31,0,0,1-1.9,5.6c-4.8,2.2-7.1-6.3-12.3-4-2.2,1-2.8,4-1.9,6.2s2.8,3.8,4.7,5.3c2.1,1.7,4.3,3.4,6.4,5.2.9,1.6-.8,3.3-2.3,4.3s-3.4,2.3-3,4c.3,1.2,1.7,1.9,2.9,2.3,1.7.7,3.4,1.3,5.2,2s3.6,1.4,4.6,3,.7,4.1-1.1,4.7c-1,.3-2.3-.1-3.2.4a2.7,2.7,0,0,0-1.2,2.9c.2,1.1.7,2.2.9,3.3a7.08,7.08,0,0,1-2.5,6.8c-2,1.5-.3-.4-2.6-1.5.9,2.5-2.4,4.5-5,4.5s-5.7-.5-7.6,1.3a7,7,0,0,1,1.2,7.9,6.72,6.72,0,0,1-7.3,3.1,11,11,0,0,1-4.3-2.5,45.07,45.07,0,0,1-13.1-18.2c-.8-2.2-2-4.8-4.3-5a15.06,15.06,0,0,0-3.6.6c-3.9.3-6.4-4.1-7.7-7.8a8.17,8.17,0,0,0-3.4,6.2,12,12,0,0,1-9.7-9.9c-.3-1.9-.2-4.2-1.8-5.4a10.25,10.25,0,0,0-3.1-1c-2.5-.7-4.5-2.5-6.3-4.2l-20.1-18.6c-6.1-5.7-9.7-11.8-14.4-18.8a15.47,15.47,0,0,1-8.4-11.7,4,4,0,0,0-.7-2.1,3.17,3.17,0,0,0-2.3-.7c-4.2,0-9,.6-11.9-2.4-1.5-1.5-2-3.7-3.3-5.4-2.3-3.2-6.5-4.5-8.9-7.6-1.7-2.2-2.3-5-3.7-7.3s-4.3-4.3-6.8-3.2c.3,2.2.7,4.4,1,6.6-1.2,2-4.3.3-5.3-1.8s-1.7-4.8-3.9-5.4a5.82,5.82,0,0,0-3.2.4c-6.2,1.5-7.1,2.2-10.1-3.4-3.2-1.7-6.8-3.8-7.8-7.4-.8-3-.1-7-2.9-8.4a3.06,3.06,0,0,0-3.7.8,3.15,3.15,0,0,0-.1,3.8c.7,1,2,1.5,2.6,2.5.9,1.6-.4,3.7-2.1,4.3a8,8,0,0,1-5.3-.2c-1.8-.5-3.6-1.1-5.3-.8a13,13,0,0,0-4.2,1.8,6.36,6.36,0,0,1-4.4.8c-2.2-.6-7.3-8.3-8-10.5a11.32,11.32,0,0,0-1.3-3.2c-1.6-2-.7-3.4-2.3-1.4-1.9,2.5-6.3,2.2-8.1-.3s-1.3-6.4,1-8.6c1.1-1.1,2.4-1.8,3.5-2.9s1.7-2.8,1-4.1c-1.8.2.9-2.4-1-2.2a8.38,8.38,0,0,1-3.1,2.5,3.33,3.33,0,0,1-3.7-.5c-1.1-1-1-2.7-1.4-4.1a6.87,6.87,0,0,0-9.5-3.9c-.4,1.6,1.8,2.4,3.2,3.2,2.5,1.4,3.4,4.5,4.2,7.2.5,1.8,1,3.7,1.5,5.5a11.66,11.66,0,0,1,.6,4.5,3.9,3.9,0,0,1-2.7,3.3c-.5,0-.6.2-.7-.3-1.5.9-3.4.2-4.9-.6s-3-1.9-4.8-1.8a2.27,2.27,0,0,0-1.7,3.6c2,2.2,5.3,2.2,8.2,3,4.7,1.3,8.3,5,11.6,8.5a9.2,9.2,0,0,1,1.9,2.5,7.67,7.67,0,0,1,0,4.5c-.6,3.1-1.5,6.3-3.7,8.6a19.07,19.07,0,0,1-5.2,3.3c-4.2,2-8.4,4-13,4.6-3.6.5-.5-1-3.9-2.3-3.9,1.3-8.4,2-12.1.1-4.6-2.4-8.1-5.8-12.8-8.1-3.8-1.9-6.8-4.1-8.4-8.3-.7-1.7-1.3-3.9-3.1-4.3s-3.4,1.3-4.2,3-1.3,3.7-2.8,4.8c-4.1,3-10-3.7-14.7-1.6-2,.9-3.1,3.1-5.2,3.8s-4.4-.4-6.2-1.7-3.6-2.8-5.8-3-4.7,1.9-3.9,4c.3.8,1,1.4,1.3,2.2,1,2.5-2.4,4.8-5.2,4.4s-5.3-1.9-8-1.7c-4.3.4-2.1,4-3.5,6-1.1,1.6-4.1,1.3-5.5.6-1.8-.9-3.3-2.9-5.2-2.5-1.7.4-2.5,2.4-2.7,4.2-1,8.8-5.9,3.8-10.2.4-2-1.6-5.4-2.1-6.7.1-.6,1.1-.5,2.4-.9,3.6a4.1,4.1,0,0,1-5.1,2.4c-4.9-1.7-3.2-10.4-7.8-12.7-2.8-1.3-6.6,1.7-6,4.7.4,2,2.2,3.4,3.5,5s2,4.3.4,5.6c-2.1,1.7-5.2-.9-7.9-.4-2.5.5-3.6,4.2-1.7,5.9,2.1,1.2,4.6.4,7,.7s4.7,3.3,2.9,4.8a3.33,3.33,0,0,0-4.2.3,3.2,3.2,0,0,0-.2,4.2c.6.7,1.5,1.2,1.9,2,1,1.9-.9,4.1-3,4.6-2.9.7-11,5.3-7,8.4,1.8,1.4,4.4.4,6.4.3,3.1-.2,6.4.2,9.4-1,3.2-1.3,5.2-4.1,7.5-6.4,1.1-1.1,2.6-2.1,3.4-3.4s.5-2.8,1.7-3.9c2.9-2.7,2.7,1.7,3.6,2.6,1.3,1.3,4.6.5,4.2,3.4a6.82,6.82,0,0,1-1.2,2.6,10.43,10.43,0,0,0-1.5,3.8,4.36,4.36,0,0,0,1.1,3.8c2.2,2.4,6.3,2.3,9.1,1.6,2.6-.6,5.5-1.1,7.8-2.4,2.7-1.6,1.7-3.3,3.6-5.4,1.3-1.5,2.4-.4,3.8-.8,1.6-.5,3-1.9,4.6-2.5a16.57,16.57,0,0,1,11.2-.1,4.13,4.13,0,0,1,2.4,1.7c2.6,4.5-21.5,8.2-10.9,13.8,4.4,2.3,11.4,2.6,16.2,3.7a4.51,4.51,0,0,1,2.6,1.2c1.5,1.7.1,4.3-.1,6.5a6.12,6.12,0,0,0,6.8,6.3c2.9-.5,5-3,6.8-5.4s3.8-4.9,6.7-5.5,6.4,2.4,5,5.1c-.3.7-.9,1.2-1.2,1.8-1,2.2,1.5,4.6,3.9,4.9s4.9-.4,7.2,0,4.7,3,3.5,5.1a9,9,0,0,0-8.7,2.3c2.7-.3,4.4,3.3,3.2,5.8s-4,3.6-6.6,4.1-5.4.6-7.8,1.8a3.45,3.45,0,0,0-2,2.1c-.6,1.9,1.6,3.7,3.6,3.8s4-.5,6-.4c6.5.5,9.6,9.3,15.9,10.5,3.9.7,8.2-1.6,11.7.2,2.2,1.1,3.5,3.6,5.6,4.9,2.4,1.5,5.4,1.3,8.1,2.1,1.3.3,6.7,3.9,5.2,5.9-.7,1-3.2-.7-4-1-2-.6-5.1-1.3-6.8.4s-.3,3.6-2.3,5c-3.1,2.1-9.4,1.1-13,1.6-5.8.7-11.6,1.2-17.5,1.6-2.3.1-4.7.3-6.6,1.6-2.3,1.6-2.7,4.5-.7,6.4-5.7.8-11,4.2-13,9.8a9.75,9.75,0,0,1-1.4,2.9,8.26,8.26,0,0,1-2.2,1.4c-2.4,1-15.4,3.9-12.7,8.2a3.29,3.29,0,0,0,3.2,1.4c3.5-.4,2.6.3,4.4,2.6,1.2,1.6,2.6,2.9,5,1.9,2.8-1.1,4.3-4,6.1-6.3a22.6,22.6,0,0,1,15.3-8.5c1.6-.2,3.6,0,4.4,1.4s0,3.3-1.3,4.3a13.88,13.88,0,0,1-4.5,1.9,29.29,29.29,0,0,0-8.7,5.1c-1.6,1.4-3.6,6,0,6.6,1.1.2,2.3-2.2,3.5-2.7,2.1-.8,5.6-.4,7.9-.5-.7,1.6-4.7,7.1-.2,7,1.4,0,2.7-.9,4.1-1.1a29.29,29.29,0,0,1,6.5,2.2c1.8,1.6-1.2,4.1-3.6,4.7-5.6,1.4-14.1,3.7-18.3,7.8-3.1,3.1-4.4,7.3,1.3,7.9,3.2.3,6.4-3.2,9.5-3.4.6,0,1.3.3,1.4.9s-.4,1.2-.7,1.7c-2.2,3.5,2,6.3,4.9,3.9a29.73,29.73,0,0,0,2.7-3.5c.9-1.2,2.2-2.3,3.7-2.1a3.89,3.89,0,0,1,2.9,2.9c1,4-.9,8.1-2.5,11.7a2.32,2.32,0,0,0-.3,1.6c.3,1.2,1.8,1.4,2.8,2,5.3,3.8-6.4,9.7-6.5,13.2a1.75,1.75,0,0,0,1.1,1.7,10.86,10.86,0,0,0,1.8.1,1.9,1.9,0,0,1,.9,2.2,7.44,7.44,0,0,1-1.4,2.2,3.81,3.81,0,0,0-1.1,2.4c.1,5.5,12.4,1.4,14.4-.4,4.8-4.5,7.2-13.1,13.8-13.1a9.48,9.48,0,0,1,6.2,2.9c6.7,6.5,1.3,11,.5,18.4-1.2,11.3,10,3,16.1,2.8,3.4-.1,7.2,2.8,6.2,6-.5-.3-1.5,0-1.6.6-.4,1.8,1.5,3.4,3.3,3.6s3.6-.5,5.4-.8,3.9-.1,5,1.3c1.2,1.6.5,3.9-.5,5.6s-2.4,3.3-2.6,5.3a5.52,5.52,0,0,0,3,5.2,7.45,7.45,0,0,0,6.2.1,1.24,1.24,0,0,0,.3-.2.31.31,0,0,1,.2.1c1.7.6,1.5,3.2.7,4.8s-2.1,3.5-1.3,5.1,3.2,1.9,4.8,1,2.8-2.3,4.2-3.5,3.3-2.1,5-1.4c2.4,1,4,2.3,4.3,4.8.2,1.3-.1,2.8.7,3.8a3.92,3.92,0,0,0,3.3,1.4,8.86,8.86,0,0,0,5.5-1.8c5.1-3.9,9.7-3.5,10.4,4.4.5,4.9-3.3,8.1-6.6,11.3a9.5,9.5,0,0,0-1.6,1.9c-1.4,2.7,1.1,6,3.9,7.1a10.83,10.83,0,0,0,10-1.2,10.7,10.7,0,0,0,4.3-9.1c-.2-2.9,1.9-.6,4.7-1.4s6.4,2,5.3,4.7c2.6,1,5.5-.8,7.4-2.9s3.4-4.7,5.8-6.1,6.3-.9,7.1,1.8c.6,2-.8,4.1-.3,6.1.6,2.5,3.9,3.5,6.5,2.8s4.8-2.2,7.3-2.9,5.8-.2,6.8,2.2c2.1,4.8-6.8,8-7,13.2,3.2,2.5,8.4.4,11.5,3.1,2.3,2,2.2,5.7,1,8.6-1.3,3.1-4.2,6-3.3,9.6a2.4,2.4,0,0,0,3.2-.8,13.7,13.7,0,0,0,1.5-3.5,8,8,0,0,1,10.9-3.4c1,1.8,2,1,3.6-.3s2.4-3.3,3.7-4.8,3.7-2.6,5.4-1.5c.7.5,1.1,1.2,1.7,1.7a3.86,3.86,0,0,0,2.2,1.1c2.7.4,5.1-1.9,6.1-4.5s1.2-5.3,2.1-7.9a3.86,3.86,0,0,1,1.9-2.4c2.3-1,5.3,2.2,7.2.5,1.7-1.5-.4-4.1-1-6.4a4.58,4.58,0,0,1,4.3-5.4c1.6,2.6,6.1,2.6,7.7,0-1.6-2-1.3-5.9,1.2-6.2,1.7-.2,2.5,1.2,3.8,1.9a4.28,4.28,0,0,0,1.6.5,8.3,8.3,0,0,1,2.1.6c.3.2.5.4.7.5a3.19,3.19,0,0,0,1.4.3,9.32,9.32,0,0,0,6.2-2.5c1.1-1,1.9-2.3,3.1-3a4.56,4.56,0,0,1,2.1-.8c4.1-.8,6.6,3.9,11,3.2,1.8-.3,3.2-1.7,4.5-2.9,4.2-3.9,10.4-7.2,15.4-4.4,1.3.7,2.5,1.9,4,2s2.8-.6,4.1-1.3a16,16,0,0,1,6.4-2c3.9-.2,7.4,2.3,9.2,5.6,2,3.5,2.9,4.7,6.9,5.6,4.4.9,5.6,1.3,8.5,5s8.4,4.2,12.5,2,5.8-5.4,7.6-9.7c1.2-3,2.6-6.2,5.1-8.3s6.6-2.7,8.9-.4c1.8,1.7,2.1,4.5,3,6.8s3.4,4.6,5.7,3.5c-.8-2.8,1.5-5.5,4-7s5.4-2.5,7.2-4.8,1.5-6.5-1.3-7.2c4.1-2.5,3-10-1.6-11.2-.4-2.8,3.2-4.4,6-3.9s5.1,2.3,7.9,2.7a7.92,7.92,0,0,0,7.8-3.9,8.08,8.08,0,0,0-.7-8.7,3.91,3.91,0,0,1-1-1.6c-.3-1.3,1-2.5,2.2-3.2,3.8-2.4,7.5-4.8,11.3-7.2,1.9-1.2,4.4-2.4,6.2-1.1,1.5,1.1,1.6,3.2,2.2,5a8.57,8.57,0,0,0,15.6,1.8c2.1-3.5,1.6-8.3,4.4-11.3,5.8-6.2,18.3,1.7,23.9-4.6,2.7-3.1,2-7.8,2.1-11.9s.7-10.1,4.8-9.8a8.64,8.64,0,0,1,12.2-1.5c2.1,1.8,3.8,4.8,6.6,4.6,4-.4,3.7-6.4,6.1-9.7,2.8-3.7,8.7-2.8,12.6-.3s7,6.4,11.4,7.9c3.3,1.1,6.9.8,10.2,1.7s6.6,3.9,5.9,7.3c-.6,2.7-3.4,5.5-1.6,7.5s5-.5,7.5-1.6c4.2-1.9,8.9.4,13.1,2.4s9.7,3.3,12.9,0c-1.2-.3-1.5-2-1-3.2s1.5-2.1,1.9-3.3c1.6-4.5-5.1-7.5-6.3-12.1-1-3.9,3.2-8.1,7.1-7s5.5,6,6.8,9.9,4.4,8.5,8.5,7.6c1.6-3.8,4.3-6.2,1.5-9.3-3-3.2-5.8-8.6-2.5-11.5,2.3-2,5.8-1,8.9-.6s7.2-1.2,6.6-4.2c-.2-1.1-1-2-1.1-3.1-.4-3,4-4.7,4.6-7.7.8-4.1-5.8-6.2-6.4-10.4-.5-3.7,4.5-6.1,7.9-4.7s5.4,5,7,8.3c2.9,6.3,12.9,9.9,11.4.4-.4-2.4-5.4-6.2-1.3-8.6,2.1-1.2,5.1.9,6.3,2.6a16.37,16.37,0,0,1,2.8,5.6c.3,1.2.2,2.6.7,3.7.8,1.9,3.3,3.4,6.2,4.5,3.8,1.5,8.3,2.5,10.7,3.3,1.4.5,3,1,4.3.2,3.1-1.8.1-7,2-10,2.7-4.2,10.8.9,13.9-3.1,1.6-2.1.4-5.2-1.2-7.3s-3.7-4.1-3.9-6.8c-.2-3.3,3-6,6.3-6.3s6.4,1.4,8.9,3.6c4.2-.5,5.3-6.7,2.7-10-1.9-2.4-4.8-3.5-7.8-4.2a20.21,20.21,0,0,0-3.4-.6l2.1-6.3-10.4.3c-2.1-1.4-5.6,0-7.4-1.8-1.5-1.5-.7-4.2-3.1-5.9-1.1-.8-2.4-.5-3.4-1.2-1.4-1-1-3.1-3.5-3.2-.5,0-1,0-1.3-.4s-.1-.7-.1-1.1c-.1-1.5-2.2-1.9-3.7-1.8-.1-3.3.7-6.1-.8-9.3-1.9-3.9-5.3-5.8-3.4-11,5.6-15.1,22,7.2,25.8-11.8.8-4.1,2-9,5.9-10.4,1.7-.6,3.7-.4,5.2-1.4,2.7-1.9,1.6-6,1.7-9.3.2-4.4,7.3-8.9,11.5-10.2.1-3.2,4.1-5,7.2-4.1s5.4,3.3,7.7,5.5,5.2,4.2,8.4,3.9c-1.7-4.8,3.6-9,5.6-13.8,2.3-5.7-.3-12.6,2.4-18a5.82,5.82,0,0,1,7.4,5.4c-.1,1.3-.6,2.9.3,3.8.7.7,1.8.8,2.7,1.2,4.5,1.9.6,9.6,3.7,13.4,1.4,1.8,4.2,2.4,6.1,3.6,4.9,3,.4,7.4,3.2,10.6a1.09,1.09,0,0,0,.9.4c2,.4,4.1-.6,6.1-1,4.3-.8,8,1.5,10.4,4.9,1,1.5,5.2,5.9,5.1,7.2C1052.2,417.6,1050.1,418.5,1049.8,420.1Zm159.3-40.5a4.31,4.31,0,0,1-2.2.4c-4.7.1-7.5-1.6-11.3-3.8-5.4-3.2-12.8-5.8-17.6-1.7-3.4,2.9-4.6,8.5-8.9,9.4-2,.4-4.1-.4-6.1,0-4.7,1.1-6.8,8.8-11.4,7.7-1.7-.4-2.9-1.9-4.5-2.8-3.9-2.1-8.6.9-11.8,4s-7.1,6.6-11.4,5.7a13.5,13.5,0,0,1-5-2.7c-4.4-3.3-8.8-6.7-13.2-10a5.1,5.1,0,0,0-2.3-1.2c-3-.4-3.9,3.8-5.3,6.5-1.7,3.3-4.8,6.4-7.9,4.5-3.6-2.2-8.5-4.2-11.7-1.5a9,9,0,0,1-1.9,1.5c-1.2.5-2.5,0-3.7-.3-3.7-.9-8.3-1.3-9.4-5.7-1.8-7,10.6-14.1,10.4-7.1,1.7,0,2.2-2.2,2.8-3.8,1.8-4.4,11.9-8.1,15.8-10.7a107.61,107.61,0,0,1,20.8-10.7c-1.5-2.1-4.3-2.8-6.9-2.6a22.83,22.83,0,0,0-7.2,2.5l-15.6,7.5a31.14,31.14,0,0,1-10.1,3.5c-3.5.4-7-.4-10.5.1-2.7.4-5.3,1.6-7.9,1-7.5-1.5.5-9.7-3.5-12.1-2.6-1.6-8.2,3.9-11.6,2.6-4.8-1.8-4.7-11-9.9-10.6-3.6.3-5.6,7-8.9,3.3-2.2-2.4,1.9-7.7-1.8-10-.8-.5-1.8-.6-2.6-1.1-3.5-2.2-1.5-10.1-5.6-10-3.5.1-2.7,6.1-5.5,8.1-1.2.8-2.7.8-4,1.4-3,1.2-4,4.9-5.9,7.5-2.1,2.9-5.5,4.6-8.8,6.1-8.1,3.9-16.5,7.9-25.5,7.6-1.6,0-3.2-.2-4.6.5-2.5,1.3-3.3,5.1-6.1,5.9-1.8.5-3.7-.6-5.4-1.2s-2.8.3-3.2,2.1c-1.8,0-2.7,2.4-2.2,4.2s1.6,3.3,2,5.1c.9,4.2-3.5,6.6-3.7,10.6-.3,5.4,4.8,6.6,7,10.9,1.2,2.3.6,5.1,0,7.7-.9,3.5-1.8,7.2-4.1,9.9s-6.6,4.3-9.7,2.4c.5,3.4-4.1,5-7.5,4.7s-7.7-.8-9.5,2c2.6,4.8.7,11.2-3.5,14.7s-10.2,4.1-15.5,2.7c-1.6-.4-3.4-1.2-4.1-2.8a20.06,20.06,0,0,1-13.7,5.4c-2.1,0-4.3-.4-6.3.5a10.22,10.22,0,0,0-3.4,2.8c-5.4,5.4-11,10.3-18.4,12.5.3,2.1-2.8,3.3-4.6,2.3s-2.7-3.2-3.6-5.1c-1-2.2-2.3-4-4.8-4.2-1.7,3.4-.4,6.6-.9,10.1a17.1,17.1,0,0,1-5.6,9.8c-3.2,2.7-7.8,3.9-10,7.4-2,3.1-1.8,7.4-4.4,10.1-2.9,3-7.9,2.4-11.6,4.5-5.5,3.2-7.8,12.4-14.1,11.6a7.63,7.63,0,0,0-2.6-.2,2.85,2.85,0,0,0-1.4.8,14,14,0,0,0,1.4,5.6,14,14,0,0,1-1.4-5.6,12.38,12.38,0,0,0-1.4,1.8c-2.8,3.5-7.4,5-11.9,5.7-1.7.2-3.5.4-5.2.5-9.9,4.2-28.5-1-34.6-7.2-.5,2-1,4-1.5,5.9-5.3-1.7-11.8-3.2-15.8.7-1.4,1.3-2.3,3.2-3.8,4.4-3.4,2.7-9.3,1.4-11.7,5.1a36.73,36.73,0,0,1,5.4-20.2c1.1-1.7,2.3-3.4,2.4-5.4.1-1.7-.8-3.3-1.1-5-.6-3.5,1-7,2.8-10.1a106.16,106.16,0,0,1,15.9-21.1c1.3-.3,1.9-.5,3.3-.8-.3,1.9,1.5,3.5,3.3,3.8s3.7-.5,5.4-1.2c2.6,2.4,1.5,6.7,0,9.9s-3.4,6.8-2.1,10c.5,1.3,1.6,2.4,1.8,3.8.4,2.1-1,4-1.9,5.9s-1.3,4.6.5,5.7a184.72,184.72,0,0,0,7.9-32,16.12,16.12,0,0,1,1.3-4.9,16.38,16.38,0,0,1,2.7-3.2c3.9-3.9,7.9-7.8,11.8-11.6,2.8,1.9.2,6.2-1.8,8.9-2.8,3.9-4,9.5-1,13.2a18.57,18.57,0,0,1,2.2,2.7c1.5,2.9-.6,6.2-2.3,9a37.48,37.48,0,0,0-5.4,20.1,179.05,179.05,0,0,0,13.9-37.4c.7-2.7,1.3-5.5,2.8-8,3.5-5.9,11.4-9,13-15.7,1.3-5.8-2.6-12.4.4-17.4,1.2-2.1,3.4-3.4,5-5.1,3.3-3.4,4.6-8.1,6.6-12.3s5.3-8.5,9.9-9a10.82,10.82,0,0,0,3.6-.5c1.6-.7,2.4-2.5,3.2-4.1a35.3,35.3,0,0,1,8-10.4,7,7,0,0,1,4.6-2.3c3.5-.1,5.9,4.1,5.2,7.6s-3.2,6.2-5.6,8.8c-1.5,1.7-3.1,3.6-3.1,5.8-.1,2.8,2,5,3.5,7.4s2.2,5.9,0,7.5c.1,1.1,2.8,1.3,3.7.6a4.7,4.7,0,0,0,1.4-3,105.18,105.18,0,0,1,25.3-48.4c3.8-4.1,9.3-8.2,14.4-6a4.42,4.42,0,0,0,1.5.5c1.5-.1,1.9-2.1,1.9-3.6a30.87,30.87,0,0,1,8.5-20.8c3.1-3.2,6.9-5.9,8.9-9.9,1.2-2.4,1.7-5,2.8-7.5,2-4.5,5.8-7.8,9.5-11a4,4,0,0,1,2.4-1.2c1.2,0,2.1,1.1,3.1,1.7,3.9,2.5,8.8-.8,12.2-3.9,3.8-3.5,7.7-7,11.7-10.3,2.1,2.4,1.2,6.2-.8,8.7s-4.8,4.1-7.1,6.2c-6.4,6.1-7.9,15.6-9.9,24.2s-5.6,18.1-13.8,21.4a4.64,4.64,0,0,0-2.3,1.5c-.7,1.1-.2,2.6,0,3.9.7,5-4.2,8.7-8.5,11.4a3.66,3.66,0,0,1-2.6.8c-1.8-.3-2.3-2.8-3.8-3.8-2.2-1.5-5.2,1-5.6,3.6s.5,5.2.5,7.9c0,3.7-2,7.2-3.8,10.4-3.1,5.4-6.3,10.8-9.4,16.3-4.5,7.8-9,15.6-12.4,23.9a186.34,186.34,0,0,0-6.3,20.5c3.4-6.9,6.8-13.9,12.4-19.2,3.1-3,6.7-5.3,10-8,5.3-4.3,10.4-9.3,15.3-14a5.89,5.89,0,0,0,1.7-4.2l-6.9.3c5.4-10.4,12.4-19.9,19.4-29.3,11.8-15.9,23.5-31.8,35.3-47.7,4.2-5.7,9.9-11.5,15-16.5,14.3-14.2,28.7-28.3,43-42.5,2.6-2.6,16-18.8,19.1-17.6,2,.8,1,6.1.7,7.5-1.2,4.8-2.7,4.5-6.6,6.3a4.46,4.46,0,0,0-2.3,5.2,12.66,12.66,0,0,1,.6,1.8,4.07,4.07,0,0,1-.8,2.4c-3.2,5.4-6.1,11.1-10.7,15.5-3.2,3.1-7.7,5.5-8.3,10.3a11.11,11.11,0,0,0,8.4-.1c1.1-.4,2.5-.7,3,.3a1.93,1.93,0,0,1,0,1.3c-.6,2.2-2.5,3.8-3.8,5.7s-1.8,4.9.1,6.2c2.2,1.6,5.2-.6,7-2.7,10.7-12.1,23.4-23,36.1-33.1,2-1.6,4.5-3.3,7-2.6a15.19,15.19,0,0,1,3.3,1.8c6,3.1,14.3-2.2,19.9,1.7-.5,1.4-.9,2.8-1.4,4.1,1.5.3,4.2,2.5,5.6,2,11.5-4.1,23-8,34.6-11.7a37.21,37.21,0,0,1,10.3-2.2,19.58,19.58,0,0,1,15.1,6.9,9.35,9.35,0,0,0,2.8,2.8,7.26,7.26,0,0,0,3.6.7c4,.2,7.9.4,11.9.5a5.06,5.06,0,0,0-3.7,1.6c2,.1,1.5,3.3-.1,4.6-3.3,2.5-8,2.3-11.3,4.8-4.5,3.5-4.7,10.8-9.3,14.2-4.9,3.6-12.7,1.3-16.8,5.7-1.3,1.4-2.1,3.5-3.8,4.3-2.1,1-4.7-.2-6.8.6-1.9.7-2.9,2.8-4.1,4.5-6.4,9.4-22.3,10.2-26.1,21,4.1,3.1,10,.7,14-2.5s7.7-7.4,12.8-8.1c2.6-.3,5.4.4,8-.1s4.6-1.9,6.9-3a33.79,33.79,0,0,1,24.4-2.4c2.3.7,4.7,1.7,6.2,3.6s1.8,5,.1,6.7c-2.6,2.6-8.7,2.2-8.5,5.9,3.4-.4,6.9-.7,10.3-1.1,1.1-.1,2.2-.2,3.3-.4a124.45,124.45,0,0,0,14.9-2.2,44.21,44.21,0,0,1,7.1-1.3,14.79,14.79,0,0,1,13.1,7.8c-8,.3-16,.5-24,.8-2.2.1-4.9.6-5.4,2.7,2.7,4,7.8,5.8,12.6,5.9s9.6-1.1,14.4-1.8c10.8-1.7,23.2-1,33.5,3.2,3.6,1.4,6,2.5,6.9,6.4C1212.8,369.6,1211.8,378.1,1209.1,379.6Z" transform="translate(-165.41 -126.87)"/><path class="334f6af9-8985-4d16-a064-2945afa0597e" d="M1093.1,430.3a15.16,15.16,0,0,0,2.1.3A6.19,6.19,0,0,0,1093.1,430.3Z" transform="translate(-165.41 -126.87)"/><path class="334f6af9-8985-4d16-a064-2945afa0597e" d="M856.8,565.4c-.3,3.3-2,6.4-3.6,9.3a292,292,0,0,0-18.8,41,21,21,0,0,0-1.7,7.8c.2,2.7,1.6,5.5,4.1,6.4,3,1.1,6.3-.7,8.8-2.8,9.1-7.4,15.5-18.4,24.2-25.7q15.75-20.1,30.5-41.1c9.8-13.9,18-28.3,27.2-42-2.9-1.2-5.4-2.6-6.2-4.5a24.09,24.09,0,0,1-.7-3.7,14.78,14.78,0,0,0-2.8-5.6c-1.1-1.7-4.2-3.8-6.3-2.6-4.2,2.4.9,6.1,1.3,8.6,1.6,9.5-8.5,5.9-11.4-.4-1.6-3.4-3.5-6.9-7-8.3s-8.4,1.1-7.9,4.7c.6,4.2,7.2,6.2,6.4,10.4-.6,3-5,4.6-4.6,7.7.2,1.1.9,2,1.1,3.1.5,3-3.6,4.6-6.6,4.2s-6.5-1.4-8.9.6c-3.3,2.9-.5,8.3,2.5,11.5,2.8,3,.1,5.5-1.5,9.3-4.1.9-7.2-3.7-8.5-7.6s-2.7-8.8-6.8-9.9c-3.9-1.1-8.1,3.1-7.1,7,1.2,4.6,7.9,7.6,6.3,12.1-.4,1.2-1.4,2.1-1.9,3.3s-.2,2.9,1,3.2a6.1,6.1,0,0,1-1.6,1.2A4.42,4.42,0,0,1,856.8,565.4Z" transform="translate(-165.41 -126.87)"/><path class="4a05411a-49b0-47d0-9327-9e8f83968c7b" d="M618.4,422.4a7.09,7.09,0,0,0-7.2,1.9c-.6.6-1,1.4-1.8,1.7a4.07,4.07,0,0,1-2.2.2,14.07,14.07,0,0,0-13.5,10.9,6.89,6.89,0,0,0-.1,2c.2.9,1,1.7,1.3,2.6.7,1.8-.3,3.8-1.5,5.3s-2.7,2.9-3.3,4.8c-.6,2.2.3,4.6.9,6.8s.8,5-.9,6.6c-8.6,8.1-1.4,20.6,2.4,31.8s10,21.4,16.1,31.5c1.1,1.8,2.2,3.7,4,4.7a20.59,20.59,0,0,1,3.3,1.7c3,2.1,2.6,6.6,2.5,10.2-.4,10.7,3.6,21.1,7.5,31.1,1.2,3.2,2.5,6.3,3.7,9.5a13.09,13.09,0,0,0,2.2,4,6.3,6.3,0,0,0,5.5,1.9c.2,2.5,3.5,3.8,5.8,2.9s3.8-3.3,4.8-5.7,1.7-4.8,3.4-6.7c2.5-2.8,6.4-3.7,9.6-5.6s6.1-5.8,4.4-9.1c-1.4-2.7-5.4-4-5.3-7,0-1.1.8-2.2.6-3.4-.2-1.7-2-2.7-2.8-4.2-1.5-2.7.7-6.1,3.1-8.1s5.4-3.8,6.1-6.9c.6-2.5-.1-6.3,2.5-6.8a11.33,11.33,0,0,1,2.6.1c2.7-.2,3.7-3.7,3.2-6.4s-1.6-5.4-.6-7.9l7.5-.3c-.5-8.7-1-17.4-1.5-26-.4-6-.8-12.2-4.1-17.2-3.4-5.2-9.4-8.3-12-13.9-.8-1.6-1.3-3.4-2.6-4.5-1.6-1.4-4.1-1.6-5.5-3.2-2.2-2.5-.7-6.8-2.6-9.5a9.23,9.23,0,0,0-2.9-2.3c-8.4-4.9-16.8-9.7-25.2-14.6C622.7,423.1,621.3,419.9,618.4,422.4Z" transform="translate(-165.41 -126.87)"/><path class="2faf45b9-3eec-47a3-b5fb-66fc51ca18b0" d="M677.4,437.9c-1.6,3.1-7.4,19.8,1.2,17.6,1.8-.5,3.3-1.7,4.9-2.4a2.24,2.24,0,0,1,2.1-.1c1.2.7.7,2.5.2,3.8-3.9,9-1.2,14.3.9,22.9,2.3,9.3.2,19.7,4.7,28.2,1.8-6.3-.4-13.1-.1-19.7.5-10,6.8-19.2,6-29.1-.7-8.9-5.7-14-8.2-22a22.83,22.83,0,0,1-.7-6.9c0-4.9.1-9.7.1-14.6-.8-.8-2,.4-2.5,1.4-2.8,6.1-4,12.5-7.3,18.3C678.3,436.1,677.8,437,677.4,437.9Z" transform="translate(-165.41 -126.87)"/><path class="334f6af9-8985-4d16-a064-2945afa0597e" d="M364.4,604.8c.1-.2-.3-.2,0,0Z" transform="translate(-165.41 -126.87)"/><path class="2faf45b9-3eec-47a3-b5fb-66fc51ca18b0" d="M412.9,394.4q20.7,9.9,40.8,20.8c1.3-2.1,4.6-1.1,6.4.5s4.1,3.6,6.4,2.7c-6.3-8-14.6-14.1-22.7-20.1-9.1-6.7-18.2-13.5-27.3-20.2-2.8-2.1-6-4.3-9.6-4.1-1.3.1-2.6.5-3.9.5-3.2-.2-5.4-3-7.9-4.9s-6.5-3.9-9.7-1.9c-3.4,2.1-1.6,5.8-3.4,8.3-3.6,4.8-7.7-.2-12.5-1.9-1.9-.7-9.2-3.2-9.9.3-.7,3.9,7.5,2.1,9.4,2.2,7.7.6,15.1,5.2,21.9,8C398.4,387.6,405.7,390.9,412.9,394.4Z" transform="translate(-165.41 -126.87)"/><path class="2faf45b9-3eec-47a3-b5fb-66fc51ca18b0" d="M413.4,362.5a32.9,32.9,0,0,1,4.2,4.9c7.2,8.8,19.8,11.1,27.9,19.1,3.6,3.5,6.3,8.1,10.9,10,1.3-2.1-1-4.6-3-6.1a65.38,65.38,0,0,1-12.6-12.6c-3.8-5-5.8-11.9-10.1-16.4-2.5-2.7-7.5-5.2-11.3-5.1s-4.5,3.2-9.4-.2c-2.2-1.5-4.5-3.1-7.2-2.4C402.1,358.7,410.3,360,413.4,362.5Z" transform="translate(-165.41 -126.87)"/><path class="2faf45b9-3eec-47a3-b5fb-66fc51ca18b0" d="M448.9,420.3a21.28,21.28,0,0,0,2.5,1.6c16.1,10.1-15.1,9.3-17.8,11.2-.9.6-1.7,1.8-1.2,2.8a2,2,0,0,0,1.1.9,9.73,9.73,0,0,0,6.5.8,35,35,0,0,1,4.6-1.4c1.6-.3,3.5.2,4.2,1.6.8,1.6-.2,3.5.4,5.1s2.6,2.5,4.3,2.8,3.7.4,5.1,1.6c4.3,3.5,1.9,9.5,8.4,11.9,11.4,4.1,22.7,8.2,34.1,12.4,6.2,2.3,12.9,4.9,16.4,10.5,1.5,2.5,2.9,5.9,5.9,5.9,1.7,0,3.2-1.3,4.9-1.4,2.1-.1,3.8,1.5,5.3,2.9,5.7,5.7,11.3,11.4,17,17.1,3.7,3.8,7.5,7.6,12.3,10A71.82,71.82,0,0,1,593,545.3c4.4,7.9,11.4,13.9,17.3,20.7s11,14.9,10.4,23.9c.8,1.4-.7,3.1-2.3,3.3s-3.1-.6-4.6-1.2a18.67,18.67,0,0,0-11.9-.4c-2,.6-4,1.6-6.1,1.4a12.81,12.81,0,0,1-4.2-1.7,24.81,24.81,0,0,0-15.6-2.2,8.84,8.84,0,0,0-4.6-8.4c-1-.5-2.2-.9-2.7-1.8-1.3-2.3,1.9-4.9,1.4-7.5-.6-3.2-5.7-2.5-8-.2s-4.6,5.6-7.8,5.4-5.6-4.3-8.9-3.9c-2.3.2-3.8,2.5-4.6,4.7s-1.1,4.6-2.6,6.3-4.7,2.3-5.9.3a7.46,7.46,0,0,0-.9-1.5c-1.5-1.5-3.6,1-4.6,2.8a12.76,12.76,0,0,1-9.2,6.2c2.1-4.9,4.2-9.9,6.3-14.8-3.5-.8-5.7,3.5-8.2,6.1-3.1,3.2-7.7,4.1-12,4.9l-26.5,4.8a14.18,14.18,0,0,0-.8-5.4,28.68,28.68,0,0,1-8,2.1c-1.4-1.7.8-3.9,2.6-5.2s3.2-4.4,1.1-5.2a30.43,30.43,0,0,1-18.7,5.7c-2.8-.1-6.4-2.5-4.8-4.7a27.19,27.19,0,0,1-9,0,12.47,12.47,0,0,0,.5-8.1c-4.1,1.3-8.2,2.6-12.4,3.9.2-5.6,5.8-9.2,10.8-11.5,17.9-8.2,32.5-13.1,52.3-13.2h17.5c1.4,0,3.4-.6,3.1-2-.2-.9-1.3-1.3-2.3-1.5l-6.5-1.2a2,2,0,0,1-1.5-.7c-.4-.5-.2-1.2-.1-1.8,2.3-7.3,19.1-6.1,25.4-7.2-5.8-2.2-11.7-4.4-17.5-6.5a3.79,3.79,0,0,1-2.1-1.3c-1.6-2.4,2.4-4.6,5.3-4.3,13.3,1.6,23.1,16.5,36.5,15.3a529.54,529.54,0,0,0-80.9-47.6c-10.1-4.8-20.7-9.5-28.2-17.9-1.7-1.9-3.4-4.1-5.8-4.9-1.6-.5-3.4-.4-5-1.1-5.2-2.3-3.8-11.1-8.6-14.1-1.8-1.2-4.2-1.2-6.2-2.1-2.8-1.3-4.4-4.2-6.4-6.5-4.8-5.6-12.3-8.2-19.7-9.2s-14.8-.9-22.1-2.2a55.1,55.1,0,0,1-21-8.5c-2.6-1.7-5.2-3.8-8.3-4.1-2-.2-4.2.3-6.1-.5-3.5-1.4-4.2-6.1-7-8.7-3.4-3.1-9.9-3.3-10.6-7.8-.3-1.7.5-3.6-.2-5.2-1.4-3-7-2.4-7.7-5.7s4.7-5.2,4.4-8.5c-.3-3-4.7-3.7-5.9-6.4-1.1-2.9,2.2-5.7,5.3-5.8s5.9,1.6,8.9,2.4c4.2,1.1,8.7.4,13-.3,13.2-2.2,25,7.5,37.9,10.8,9.3,2.4,18.7,4.8,27.2,9.1,4.8,2.4,9.2,5.4,14,7.8,7.1,3.6,14.7,5,22.2,7.4C438.6,412.1,443.2,416.4,448.9,420.3Z" transform="translate(-165.41 -126.87)"/><path class="2faf45b9-3eec-47a3-b5fb-66fc51ca18b0" d="M353.6,448.4c-1.5,3.2-5.5,4-8.9,4.9-5.6,1.6-10.5,8.6-1.4,8.2,3.8-.2,7.1-1.9,10.7-2.2,4.8-.5,10.7,1.2,15.6,1.9,10.6,1.5,21.2,3.2,31.5,5.7,4.2,1,9.4,3.7,8.6,7.9a5.41,5.41,0,0,0-.3,2.8c.6,1.6,2.9,1.4,4.5,1a23.2,23.2,0,0,1,17.7,3.8c1.8,1.3,4.4,2.9,6.1,1.5,1.3-1.1.9-3.3-.2-4.5s-2.7-1.9-4.2-2.7c-8.8-5-12.1-16.9-21.1-21.6-3.2-1.7-6.9-2.3-9.9-4.2-2.3-1.5-4.1-3.7-6.3-5.4-5.8-4.4-13.6-4.8-20.8-5-5.9-.2-16.9-2.8-22.4-.7-2,.8-4.3,2.1-4.3,4.8C348.7,447.3,353.6,449.5,353.6,448.4Z" transform="translate(-165.41 -126.87)"/><path class="2faf45b9-3eec-47a3-b5fb-66fc51ca18b0" d="M359.1,511.4c.3.9,2.3.6,4.5.3,7.3-1.2,10.7-2.4,18,1.9,5.4,3.2,10.8,7,17,8,3.9.7,9.8-.5,13.3,1.6,4,2.4,2.5,8.6,7.4,8.6,7.2.1,14.4-1.3,21.5-.7,2.6.2,19.1,3.7,15.3,7.4a18.12,18.12,0,0,1-3.3,2c-7.4,4.7,7.5,5.3,9.8,5,7.2-1,14.4-.7,21.7-.5,2.9.1,6.5-.3,7.7-2.9.5-1.1.5-2.4,1.3-3.2,1.2-1.2,3.2-.7,4.9-1,4.5-.8,5.1-7.8,1.9-11.1s-8.2-3.9-12.7-4.5-9.6-1.8-12.1-5.7c-1.9.7-3.9,1.5-5.8,2.2,1.8-1.7,1.5-4.9-.1-6.9s-4-3-6.3-4c-17.3-6.9-37.9-14.5-56.3-9.1-8.7,2.6-17.9,1.6-26.8,2.5-5.1.5-15.9,2.2-19.2,6.6C359.2,509.8,358.8,510.8,359.1,511.4Z" transform="translate(-165.41 -126.87)"/><path class="4a05411a-49b0-47d0-9327-9e8f83968c7b" d="M1205.2,360.4c-10.3-4.2-22.6-4.8-33.5-3.2-4.8.7-9.5,2-14.4,1.8s-9.9-1.9-12.6-5.9c.5-2.1,3.2-2.6,5.4-2.7,8-.3,16-.5,24-.8a15,15,0,0,0-13.1-7.8,34.16,34.16,0,0,0-7.1,1.3,148.58,148.58,0,0,1-14.9,2.2c-1.1.1-2.2.2-3.3.4-3.4.4-6.9.7-10.3,1.1-.3-3.7,5.9-3.2,8.5-5.9,1.7-1.7,1.4-4.8-.1-6.7s-3.9-2.9-6.2-3.6a33.38,33.38,0,0,0-24.4,2.4c-2.2,1.1-4.4,2.6-6.9,3s-5.3-.2-8,.1c-5.1.6-8.8,4.8-12.8,8.1s-9.9,5.6-14,2.5c3.8-10.7,19.7-11.6,26.1-21,1.2-1.7,2.1-3.8,4.1-4.5s4.7.3,6.8-.6c1.8-.8,2.5-2.9,3.8-4.3,4.1-4.4,11.9-2.1,16.8-5.7,4.6-3.4,4.8-10.7,9.3-14.2,3.3-2.5,8-2.3,11.3-4.8,1.6-1.2,2-4.5.1-4.6a5.23,5.23,0,0,1,3.7-1.6c-4-.2-7.9-.4-11.9-.5a8.89,8.89,0,0,1-3.6-.7c-1.2-.6-1.9-1.8-2.8-2.8a19.29,19.29,0,0,0-15.1-6.9,37.21,37.21,0,0,0-10.3,2.2c-11.6,3.7-23.1,7.6-34.6,11.7-1.4.5-4.1-1.7-5.6-2,.5-1.4.9-2.8,1.4-4.1-5.5-3.9-13.8,1.4-19.9-1.7a21.11,21.11,0,0,0-3.3-1.8c-2.5-.7-5,1-7,2.6-12.7,10-25.4,20.9-36.1,33.1-1.8,2.1-4.8,4.3-7,2.7-1.9-1.4-1.4-4.3-.1-6.2s3.2-3.5,3.8-5.7a1.93,1.93,0,0,0,0-1.3c-.5-1-2-.7-3-.3a12.14,12.14,0,0,1-8.4.1c.5-4.8,5-7.2,8.3-10.3,4.6-4.4,7.4-10.1,10.7-15.5a4.07,4.07,0,0,0,.8-2.4,12.67,12.67,0,0,0-.6-1.8,4.46,4.46,0,0,1,2.3-5.2c3.9-1.8,5.4-1.5,6.6-6.3.3-1.4,1.3-6.7-.7-7.5-3.2-1.2-16.5,15-19.1,17.6-14.3,14.2-28.7,28.3-43,42.5-5,5-10.8,10.8-15,16.5-11.8,15.9-23.5,31.8-35.3,47.7-7,9.4-14,18.9-19.4,29.3l6.9-.3a6.07,6.07,0,0,1-1.7,4.2c-4.9,4.7-10,9.7-15.3,14-3.3,2.7-7,5-10,8-5.5,5.3-9,12.3-12.4,19.2a161.83,161.83,0,0,1,6.3-20.5c3.3-8.4,7.8-16.2,12.4-23.9,3.1-5.4,6.3-10.8,9.4-16.3,1.9-3.2,3.8-6.6,3.8-10.4,0-2.6-.9-5.3-.5-7.9s3.4-5.1,5.6-3.6c1.5,1,2,3.5,3.8,3.8a4.2,4.2,0,0,0,2.6-.8c4.3-2.6,9.1-6.4,8.5-11.4-.2-1.3-.7-2.8,0-3.9a5.13,5.13,0,0,1,2.3-1.5c8.2-3.3,11.8-12.8,13.8-21.4s3.4-18.1,9.9-24.2c2.3-2.2,5.1-3.8,7.1-6.2s2.8-6.3.8-8.7c-4,3.4-7.9,6.8-11.7,10.3-3.4,3.1-8.3,6.5-12.2,3.9-1-.7-1.9-1.7-3.1-1.7a4,4,0,0,0-2.4,1.2c-3.7,3.2-7.6,6.5-9.5,11-1.1,2.4-1.6,5.1-2.8,7.5-2,4-5.9,6.6-8.9,9.9a31.26,31.26,0,0,0-8.5,20.8c0,1.5-.4,3.6-1.9,3.6a3,3,0,0,1-1.5-.5c-5.1-2.2-10.6,1.9-14.4,6A106.17,106.17,0,0,0,826.7,417a4.7,4.7,0,0,1-1.4,3c-.9.7-3.6.5-3.7-.6,2.2-1.6,1.5-5.2,0-7.5s-3.6-4.6-3.5-7.4c.1-2.3,1.6-4.2,3.1-5.8,2.4-2.6,4.9-5.3,5.6-8.8s-1.7-7.7-5.2-7.6a8.1,8.1,0,0,0-4.6,2.3,35.3,35.3,0,0,0-8,10.4c-.8,1.6-1.6,3.4-3.2,4.1a10.82,10.82,0,0,1-3.6.5c-4.7.5-8,4.8-9.9,9s-3.3,9-6.6,12.3c-1.7,1.7-3.8,3-5,5.1-3,5.1.9,11.7-.4,17.4-1.6,6.7-9.5,9.8-13,15.7a30.35,30.35,0,0,0-2.8,8,179.05,179.05,0,0,1-13.9,37.4,36.62,36.62,0,0,1,5.4-20.1c1.7-2.8,3.8-6.1,2.3-9a18.57,18.57,0,0,0-2.2-2.7c-2.9-3.7-1.8-9.4,1-13.2,2-2.8,4.6-7,1.8-8.9-3.9,3.9-7.9,7.8-11.8,11.6a16.38,16.38,0,0,0-2.7,3.2,14.26,14.26,0,0,0-1.3,4.9,176,176,0,0,1-7.9,32c-1.8-1.1-1.4-3.8-.5-5.7s2.3-3.8,1.9-5.9c-.3-1.4-1.3-2.5-1.8-3.8-1.3-3.3.6-6.8,2.1-10s2.5-7.4,0-9.9a11.5,11.5,0,0,1-5.4,1.2c-1.9-.3-3.7-2-3.3-3.8-1.3.3-1.9.5-3.3.8A102.47,102.47,0,0,0,709,486.3c-1.8,3.1-3.4,6.6-2.8,10.1.3,1.7,1.1,3.3,1.1,5-.1,2-1.3,3.7-2.4,5.4a36.73,36.73,0,0,0-5.4,20.2c2.4-3.6,8.3-2.4,11.7-5.1,1.5-1.2,2.4-3,3.8-4.4,4-3.8,10.5-2.4,15.8-.7.5-2,1-4,1.5-5.9,6,6.2,24.7,11.4,34.6,7.2-.6,0-1.2.1-1.9.1h0c.6,0,1.2-.1,1.9-.1a10.21,10.21,0,0,0,5.4-4.8c3.3-6.8,6.5-13.6,9.8-20.3,5.9-12.3,12-24.8,21.4-34.6a299.66,299.66,0,0,0-15.7,39c-1.3,4.1-2.5,8.6-2.3,12.8a2.48,2.48,0,0,1,1.4-.8,7.82,7.82,0,0,1,2.6.2c6.3.8,8.6-8.4,14.1-11.6,3.6-2.1,8.6-1.5,11.6-4.5,2.6-2.6,2.4-7,4.4-10.1,2.3-3.5,6.8-4.8,10-7.4a17.1,17.1,0,0,0,5.6-9.8c.6-3.5-.7-6.7.9-10.1,2.5.2,3.8,2,4.8,4.2.9,1.9,1.8,4.1,3.6,5.1s4.9-.2,4.6-2.3c7.3-2.1,13-7,18.4-12.5a11.32,11.32,0,0,1,3.4-2.8c1.9-.9,4.2-.5,6.3-.5a19.44,19.44,0,0,0,13.7-5.4c.7,1.5,2.4,2.3,4.1,2.8,5.3,1.4,11.3.7,15.5-2.7s6.1-9.9,3.5-14.7c1.8-2.9,6.1-2.3,9.5-2s8-1.3,7.5-4.7c3.1,1.8,7.3.3,9.7-2.4s3.3-6.4,4.1-9.9c.6-2.5,1.2-5.4,0-7.7-2.2-4.3-7.3-5.5-7-10.9.1-2.8,2.4-4.6,3.3-7.2,1.1-3-.8-5.3-.2-8.4a9.44,9.44,0,0,1,.3-.9c1.8-2.6,6-2.2,8.5-3.5,3-1.5,3.8-5.1,6.7-6.6a9,9,0,0,1,4.6-.5c9,.2,17.4-3.8,25.5-7.6,3.3-1.6,6.6-3.2,8.8-6.1,1.9-2.6,2.9-6.3,5.9-7.5,1.3-.5,2.9-.5,4-1.4,2.8-2,2-8,5.5-8.1,4.1-.1,2.1,7.8,5.6,10,.8.5,1.8.6,2.6,1.1,3.7,2.3-.3,7.5,1.8,10,3.3,3.6,5.2-3,8.9-3.3,5.2-.4,5.1,8.8,9.9,10.6,3.4,1.3,9-4.2,11.6-2.6,4,2.4-4,10.6,3.5,12.1,2.6.5,5.3-.6,7.9-1,3.5-.5,7,.3,10.5-.1s6.9-2,10.1-3.5l15.6-7.5a23.73,23.73,0,0,1,7.2-2.5c2.6-.3,5.4.5,6.9,2.6a107.61,107.61,0,0,0-20.8,10.7c-3.9,2.6-14,6.3-15.8,10.7-.6,1.6-1.1,3.9-2.8,3.8.2-7-12.2.1-10.4,7.1,1.1,4.4,5.8,4.8,9.4,5.7,1.2.3,2.5.8,3.7.3a7,7,0,0,0,1.9-1.5c3.3-2.7,8.1-.7,11.7,1.5,3.1,1.9,6.3-1.2,7.9-4.5,1.4-2.7,2.3-6.9,5.3-6.5a5.1,5.1,0,0,1,2.3,1.2c4.4,3.3,8.8,6.7,13.2,10a11.14,11.14,0,0,0,5,2.7c4.4.9,8.2-2.7,11.4-5.7s7.9-6.1,11.8-4c1.6.8,2.7,2.4,4.5,2.8,4.7,1.1,6.8-6.6,11.4-7.7,2-.5,4.1.4,6.1,0,4.3-.9,5.5-6.5,8.9-9.4,4.8-4.1,12.1-1.5,17.6,1.7,3.8,2.3,6.6,3.9,11.3,3.8a5.09,5.09,0,0,0,2.2-.4c2.8-1.5,3.8-10,3.1-12.8C1211.1,362.9,1208.7,361.9,1205.2,360.4Z" transform="translate(-165.41 -126.87)"/><path class="334f6af9-8985-4d16-a064-2945afa0597e" d="M697.5,625.9c2.3,2.7,4.6,5.4,7,8.1,1.6,1.9,3.5,3.9,6,4.2,4.1.4,7-4.3,6.8-8.4s-2.4-7.8-3.4-11.8c-.5-2,.4-5.1,2.4-4.3a3.1,3.1,0,0,1,1.5,2c1,2.5,2.7,6.1,4.9,7.7s6,.8,7.4,3.1c1,1.6,1.1,3.6,2,5.2,1.6,2.8,5.2,3.7,8.5,3.7s6.5-.7,9.6.1c-1.1,2.9.7,6.2,3.2,7.8s5.7,2.2,8.7,2.5c8.5.9,17.8,1.1,25-3.5,9.4-6,12.5-18.1,14.9-29,2.7,2.2,6,4.6,9.5,4a12,12,0,0,0,4.3-2A83,83,0,0,0,851.4,563a19.75,19.75,0,0,1-5.8-1.9c-4.2-2-8.9-4.4-13.1-2.4-2.5,1.2-5.7,3.8-7.5,1.6s1.1-4.9,1.6-7.5c.7-3.4-2.6-6.4-5.9-7.3s-6.9-.6-10.2-1.7c-4.4-1.5-7.5-5.3-11.4-7.9s-9.8-3.5-12.6.3c-2.4,3.2-2.1,9.3-6.1,9.7-2.8.3-4.5-2.8-6.6-4.6a8.73,8.73,0,0,0-12.2,1.5c-4.1-.3-4.8,5.7-4.8,9.8s.7,8.8-2.1,11.9c-5.6,6.3-18.1-1.6-23.9,4.6-2.8,3-2.3,7.8-4.4,11.3a9.08,9.08,0,0,1-8.4,4.2,8.76,8.76,0,0,1-7.2-6c-.6-1.8-.7-4-2.2-5-1.8-1.3-4.3-.1-6.2,1.1-3.8,2.4-7.5,4.8-11.3,7.2-1.2.7-2.5,1.9-2.2,3.2a3.91,3.91,0,0,0,1,1.6,8.08,8.08,0,0,1,.7,8.7,7.84,7.84,0,0,1-6.5,3.9,79,79,0,0,0,3.2,11.8C689.5,616.7,693.5,621.4,697.5,625.9Z" transform="translate(-165.41 -126.87)"/><path class="334f6af9-8985-4d16-a064-2945afa0597e" d="M650.7,648.9c5.8-.8,12.1-4.5,12.5-10.3a16.26,16.26,0,0,0-1.4-6.8c-.4-1.1-.8-2.3-1.2-3.4a4.1,4.1,0,0,0,0,2.2c-2.2,1.1-4.8-1.1-5.7-3.5s-1.2-5.1-3-6.8c-2.4-2.3-6.4-1.6-8.9.4s-3.8,5.3-5.1,8.3c-1.7,4.3-3.6,7.4-7.6,9.7a11.22,11.22,0,0,1-4.4,1.3A28.79,28.79,0,0,0,650.7,648.9Z" transform="translate(-165.41 -126.87)"/><path class="2faf45b9-3eec-47a3-b5fb-66fc51ca18b0" d="M922.8,608.7c-3.9-3.2-10.5,0-14.7-3a17.68,17.68,0,0,0-2.2-1.6,6.05,6.05,0,0,0-3-.2,18.18,18.18,0,0,0-8.7,3.9c-1.1,1-2.4,2.1-3.9,2a6.2,6.2,0,0,1-2.6-1.2,13.15,13.15,0,0,0-9.3-1.8c-2.2.4-4.3,1.5-6.6,1.9s-4.9.2-6.4-1.6l4.4-5.6c-8.7,7.4-15.1,18.4-24.2,25.7-2.5,2-5.8,3.9-8.8,2.8-2.5-.9-4-3.7-4.1-6.4a17.71,17.71,0,0,1,1.7-7.8,270.92,270.92,0,0,1,18.8-41c1.6-2.9,3.4-6,3.6-9.3a7.69,7.69,0,0,0-.3-3h0c-.2-1.6-2.7-4-4.4-2.9-.3.2-.4.9-.5,1.3-.1.6-.2,1.1-.3,1.7-.3,1.6-.8,3.3-1.2,4.9a77.06,77.06,0,0,1-4,11.4,83.56,83.56,0,0,1-12.7,20.5,86.3,86.3,0,0,1-8.4,8.7,75.86,75.86,0,0,1-9.6,7.3,11.3,11.3,0,0,1-4.3,2c-3.5.6-6.7-1.8-9.5-4-2.3,10.9-5.5,23-14.9,29-7.2,4.6-16.5,4.4-25,3.5-3-.3-6.2-.8-8.7-2.5s-4.3-5-3.2-7.8c-3.1-.8-6.4-.1-9.6-.1s-6.8-.9-8.5-3.7c-.9-1.6-1-3.6-2-5.2-1.5-2.4-5.2-1.4-7.4-3.1s-3.9-5.2-4.9-7.7a3.1,3.1,0,0,0-1.5-2c-1.9-.8-2.9,2.4-2.4,4.3,1,4,3.2,7.7,3.4,11.8s-2.7,8.9-6.8,8.4c-2.5-.3-4.4-2.3-6-4.2-2.3-2.7-4.6-5.4-7-8.1-3.9-4.6-7.9-9.3-10.3-14.8a60.59,60.59,0,0,1-3.2-11.8,10.21,10.21,0,0,1-.7-2.5,10.46,10.46,0,0,0-.4-1.7,3.7,3.7,0,0,0-.5-1.1c-.5-1.3-1.2-2-2-.9-.4.5-1.3,3.8-.9,5l.5.2a15.18,15.18,0,0,0,.6,4.7,93,93,0,0,1-.6,38.6,24.8,24.8,0,0,1-12.2-14.2,35.7,35.7,0,0,0-1.6-4.6,5.94,5.94,0,0,0-1.3-1.8c-1.7-1.7-5.2-1.6-5.9.6a5,5,0,0,0,.4,3.2c.4,1.2.9,2.4,1.3,3.6s.8,2.3,1.2,3.4a16.26,16.26,0,0,1,1.4,6.8c-.4,5.8-6.7,9.5-12.5,10.3a28.7,28.7,0,0,1-24.7-8.9c-.2-.3-.5-.5-.7-.8-2.8-3.3-4.9-7.3-8.1-10.3s-8.3-4.6-12-2.2a17.42,17.42,0,0,0-1.4,1.2c-3.5,3.8-3.5,10.8-8.2,13.4-4.2,2.3-9.2-.6-13-3.6a163.38,163.38,0,0,1-15.8-14.2l-.1-.1a29.11,29.11,0,0,0-3.3,2.6c-1.3,1.2-2.7,2.6-4.5,2.9-4.4.7-7-4-11-3.2a7.27,7.27,0,0,1,.9.8,108.87,108.87,0,0,1,12.6,13.7c-3.8,2.5-6.6,6.6-10.7,8.6-5.5,2.7-13.1,1.6-16.9,6.3a19.85,19.85,0,0,0,14-.3c1.4-.5,2.7-1.3,4.2-1.2s3,.9,4.5,1.1c2.9.4,5.7-1.7,8.5-1.3,2.3.3,4.2,2,6.5,2.4,3,.5,6.2-1.3,8.9-.1a12,12,0,0,1,2.6,1.8c4.1,2.9,9.6,2.3,14.7,2,10.1-.6,20.2.2,30.2,1.1,9.7.8,19.4,1.6,29.1,2.5,5,.4,8.2-2.5,13-1.3,1.6.4,3,1.2,4.6,1.6,4,.9,8-1.2,12.1-1.9a18.42,18.42,0,0,1,12.4,2,34.75,34.75,0,0,0,3.8,2c3.9,1.3,7.9-.9,11.6-2.6a71.46,71.46,0,0,1,27.3-6.9c5.2-.3,10.7.1,15.1,2.9a47.63,47.63,0,0,0,4.7,3.1c1.7.8,3.9.9,5.3-.4,1-.9,1.4-2.4,2.3-3.4,2-2.3,5.7-1.7,8.8-1.4a56.52,56.52,0,0,0,9.2,0c2.4-.1,4.7-.2,7.1-.4,9.3-.5,14.7-1.9,24-1.2a8.53,8.53,0,0,0,3.9-.3c3.2-1.3,4-6,7.2-7.2,3.6-1.3,6.9,2.5,10.6,3.7,3.4,1.1,7.1-.1,10.6-.9,8.1-1.9,16.6-1.6,24.9-.5,1.9.2,4.1.5,5.7-.6s1.8-4.1-.1-4.7a78.26,78.26,0,0,1,15.3.3c-1.1-3.2-5-4.4-8.4-4.9s-7.2-1.2-8.9-4.1c3.2-.5,6.3-.9,9.5-1.4-.1-1.8-.2-3.7-.3-5.5,0-.6-.1-1.2.3-1.6.5-.7,1.6-.5,2.4-.4a15.55,15.55,0,0,0,11.4-2.9,2.33,2.33,0,0,0,1-1.2c.3-1.2-.9-2.1-1.6-3.1-1.2-1.7-.5-4.2,1.1-5.7a10.21,10.21,0,0,1,5.7-2.3,30.25,30.25,0,0,1,12.7.7,2.92,2.92,0,0,0,1.6.1C924.5,612,924,609.7,922.8,608.7Zm-70.3-45.5h0Zm2.1-.1c.1,0,.2,0,.2-.1A.35.35,0,0,1,854.6,563.1Zm-1.4.1h0Zm.7,0h0Z" transform="translate(-165.41 -126.87)"/><path class="334f6af9-8985-4d16-a064-2945afa0597e" d="M679.9,641.5a93,93,0,0,0,.6-38.6,32.5,32.5,0,0,1-.7-4.5,34.05,34.05,0,0,0-5-1.9c-2.7-.6-6.3,1.1-6,3.9,4.6,1.2,5.7,8.7,1.6,11.2,2.8.7,3.1,4.9,1.3,7.2-1.4,1.8-3.6,2.8-5.7,3.9a35.7,35.7,0,0,1,1.6,4.6A25,25,0,0,0,679.9,641.5Z" transform="translate(-165.41 -126.87)"/><path class="334f6af9-8985-4d16-a064-2945afa0597e" d="M582.6,637.9c3.7,2.9,8.8,5.8,13,3.6,4.7-2.5,4.7-9.6,8.2-13.4-.4-.6-.7-1.2-1.2-1.9a10.66,10.66,0,0,0-9.2-5.6,15,15,0,0,0-6.4,2c-1.3.7-2.7,1.5-4.1,1.3s-2.7-1.3-4-2c-3.8-2.1-8.3-.7-12.1,1.8l.1.1A151.5,151.5,0,0,0,582.6,637.9Z" transform="translate(-165.41 -126.87)"/><path class="2faf45b9-3eec-47a3-b5fb-66fc51ca18b0" d="M1055.8,424c-7.8,1.9-16.1,2.5-24,4.4-10.5,2.6-20.2,7.9-29.7,13.1-7.1,3.9-14.3,7.8-21.4,11.7,3.8-9.1,12.3-15.2,20.4-20.8,7.5-5.2,15-10.4,22.5-15.7,0,0-2.6-.8-2.9-.8a9.44,9.44,0,0,0-4,1.3c-2.7,1.3-4.7,2.8-7.9,2.6a4.8,4.8,0,0,1-4-2.3c-1-2,0-4.7-1.8-6.4-1.6-1.5-5-1.1-6.5.3-1.7,1.5-2.1,4-3.7,5.7-.9,1-2.3,1.5-3.3,2.4-3,2.7-5,6.7-6.6,10.4-3.2,7-6.5,13.8-11.6,19.6-6.5,7.3-13,14.5-19.5,21.8l10.4-.3-2.1,6.3,3.4.6a189.54,189.54,0,0,1,56.2-32.6c15.6-5.7,31.8-9.4,48-13.1a1.42,1.42,0,0,0,.6-.2,9.55,9.55,0,0,0-1.9-3.1C1063.7,426.2,1059.7,424.8,1055.8,424Z" transform="translate(-165.41 -126.87)"/></svg>