<?xml version="1.0" encoding="utf-8"?>
<!-- Generator: Adobe Illustrator 21.1.0, SVG Export Plug-In . SVG Version: 6.00 Build 0)  -->
<svg version="1.1" id="Calque_1" xmlns="http://www.w3.org/2000/svg" xmlns:xlink="http://www.w3.org/1999/xlink" x="0px" y="0px"
	 viewBox="0 0 1440 800" style="enable-background:new 0 0 1440 800;" xml:space="preserve">
<style type="text/css">
	.st0{fill:#FFFFFF;stroke:#000000;stroke-miterlimit:10;}
	.st1{fill:#FFFFFF;stroke:#000000;}
</style>
<g>
	<path class="st0" d="M576,132.5c0.2-0.4,0.3-0.7,0.4-0.8c0.8-1.6,5.7-4.9,10.2-6.6c3.1-1.1,5-0.6,5.9,1.8c0.2,0.5,0.4,1,0.6,1.5
		c0.3,0.6,0.6,1.1,0.8,1.8c0.2,0.6,0.3,1.3,0.1,2c-0.2,0.8-0.9,2-1.9,3.3c-1.4,2-2.7,3.8-4.1,5.7c-6.7,9-15,19.9-20.7,27.5
		c-2.3,3.2-4.3,6.2-4.8,7.2c-0.2,0.5-0.2,0.9,0.3,0.9c0.5,0.1,0.9-0.2,2.6-1.5c0.7-0.6,1.2-1.1,1.9-1.8c0.7-0.6,1.2-1.2,1.9-1.8
		c1.8-1.7,3.7-3.5,5.4-5.3c10.2-10.2,21.9-23.5,31.6-35.9c8-10,11.8-14.3,16.4-15.6c4.6-1.4,7.9,1.8,7,6.5c-0.5,2.4-1,4-5.1,13.2
		c-6.1,13.7-10.9,24.3-15.4,35.6c-1.9,4.9-3.2,8.7-3.7,10.6c-0.2,0.8,0.1,1.2,0.4,1.3c0.7,0.1,1.1-0.4,2.3-2.3
		c0.6-0.9,1.2-1.8,1.8-2.7c0.9-1.4,1.9-2.9,2.7-4.4c11-18,17.4-29.1,26.4-44c10.3-17.7,15.1-25.2,19.7-26.3c2.1-0.6,3.8,0.5,5.3,3
		c0.7,1,1.2,2.2,1.9,3.3c0.6,0.7,1,1.2,1.6,1.9c0.5,1,0.8,2.3,0.8,3.4c-0.2,1.6-0.8,3-2.3,5.9c-1.1,1.9-2.3,3.7-3.5,5.5
		c-15.8,25.5-32.7,54.6-53.4,84.8c-3.8,5.6-7,9.9-9.4,12.8c-3.7,4.6-6.5,5.6-10.5,4.2c-1.9-0.7-3-1.6-4.6-3.9
		c-3.1-4.1-3.9-5.3-5.1-6.3c-4.7-4.5-5.1-5.7-3.7-10.3c2.1-6.9,9.4-23.2,14.3-32.9c0.5-0.9,1-2,1.5-3c0.2-0.4,0.4-0.8,0.5-1.2
		c0.2-0.2,0.3-0.5,0.4-0.7c0.1-0.3,0-0.5-0.4-0.5s-0.8,0.3-1.9,1.5c-2.2,2.4-6.4,7-10,10.9c-6.2,6.6-13.2,13.2-17.3,16.8
		c-3.7,3.4-7.4,6.5-11.3,9.4c-3.5,2.6-6.7,3.1-9.9,1.8c-2-0.8-3.6-1.9-4.6-3c-1.1-1.2-2.3-2.3-3.4-3.6c-1.2-1.1-2.5-2.3-3.8-3.5
		c-2.4-2.3-2.8-3.4-1.3-5.9c0.8-1.4,2.3-3.2,4.6-6.1c5.3-6.4,8.6-10.1,14-16.3c6.7-7.7,13.9-16.4,19.1-22.7c1.9-2.3,3.8-4.7,5.5-7.1
		c1.6-2,2.3-3.2,2.9-4.6C575.3,135,575.6,134,576,132.5z"/>
	<path class="st0" d="M750.1,118c-2.6-3.1-3.8-5.7-3.8-8.6c-0.1-4.3,1.5-8.2,4.7-11.9c7-8.4,15.4-13.2,23.7-13.5
		c15.3-0.5,29.1,20.6,32,47.1c2.5,24.6-4.4,47.2-20.4,61.9c-5.8,5.4-7.9,8.2-7.8,10.3c0,0.3,0.2,0.8,0.5,1.9c0.3,1.1,0.8,3,2.5,9.4
		c0.5,1.9,0.9,4.1,1.5,6.3c3.6,14,8.3,24,13.3,28.7c1.4,1.1,1.8,2,1.9,3c0.6,6.3-7.2,13.7-14.2,13.4c-7.6-0.3-11.8-6.9-17.5-27.7
		c-3.5-13-6.4-22.7-8.4-29c-1-3-1.8-4.4-2.8-4.4c-1.4-0.1-1.7,1-3.8,12.8c-3.6,18.9-4.4,22.9-4.3,26.9c0,1.3,0.3,2.9,0.5,4
		c0.4,1.7,0.7,3.5,1,5.2c0.2,0.6,0.2,1.1,0.2,1.3c0.1,3.8-6.3,7.4-11.7,6.8c-3.8-0.5-6-2.6-9.6-8.8c-2.6-5-3.3-6.7-3.3-9.3
		c0-5,2.6-18.6,7-38.8c2.9-13.4,6.1-27.6,10.1-43.8c3.6-14.9,6.9-30.3,9.1-39.3c0.2-0.8,0.4-1.6,0.6-2.4
		C751,119.1,750.6,118.5,750.1,118z M771.2,122.2c-2.1,8-3.4,14.5-7,30.4c-2,9.6-3.2,14.2-4.1,19c-0.3,1.6-0.4,2.4-0.4,3.3
		c0,1.1,0.4,1.6,1.4,1.6c1.5,0,6.8-3.8,10.7-8.1c11.4-12,17.6-27.5,16.5-39.8c-0.6-7.1-4.4-12.1-9.1-12c-2.8,0-5.3,1.5-7.6,3.9
		C771.5,121.1,771.4,121.6,771.2,122.2z"/>
	<path class="st0" d="M844.6,94.4c0.8,1.3,1.5,2.5,2.3,3.8c0.7,1,1.3,2.1,2,3c0.7,1.1,1.1,2.4,1.3,3.5c0.1,0.8,0.1,1.5,0.1,2.3
		c-0.1,1.5,0,0.8-2,10.6c-0.8,3.8-2.1,10.5-2.8,14.1c-0.2,0.9-0.3,1.9-0.5,2.8c-0.3,1.3-0.3,2.1-0.2,2.6c0.1,0.8,0.5,1,0.8,1.1
		c0.5,0,0.8-0.5,1.7-2.1c1.7-3.4,7.6-14.2,10.3-19.1c13.1-22.2,14.5-23.7,18.6-23c2.2,0.5,4.6,2.7,6.8,5.8c1,1.5,2,3,3,4.4
		c0.4,0.6,1.4,1.9,3.1,3.9c1.4,1.9,2.3,3.3,2.5,4.5c0.5,1.9-0.1,3.5-2.3,5.8c-4.3,4.8-11.7,14.2-15.9,20.2
		c-5.3,7.8-11.1,17.7-13,22.9c-1.2,3.1-1.2,6-0.1,13c1.7,9.9,9,37.4,13.6,50.2c3.8,10.6,6,14.5,10.2,17.3c1.5,1.1,2.2,1.8,2.3,2.8
		c0.3,1.5-0.5,4.5-2,7.4c-2.5,4.6-6.3,7.7-10.1,8.3c-7.9,1.2-14.2-5.6-18.9-20.6c-4.6-14.2-7.6-27.8-10.9-48.6
		c-0.5-2.6-0.8-5.2-1.3-7.8c-1-5.9-1.6-7.8-2.4-7.7c-0.8,0-0.8,0.3-1.7,8.6c-0.6,4.6-0.9,9.5-1.9,20.4c-1.6,16.9-2.6,29-2.8,33.9
		c-0.2,4.1-0.2,7.7,0.1,9.9c0.2,1.9,0.6,3.3,0.9,4.6c0.4,1.1,0.8,2.3,1.1,3.5c0.1,0.6,0.1,1.1,0.2,1.3c0.4,3-4.3,6.9-8.8,7.1
		c-4.2,0.2-5.8-0.3-9.3-3.5c-4.5-4.2-6.5-8.4-7-14.1c-0.5-4.7-0.1-10.4,1-22.8c1.8-19.2,4.5-38.8,7.7-60.6
		c2.5-17.2,5.9-40.8,7.5-50.6c1.2-6.9,1.2-9.8,0.8-14.6c-0.5-3.5-0.5-4.5,0-5.5c1.1-3.8,4.6-6.7,8-6.3
		C839.6,87.8,842.4,90.3,844.6,94.4z"/>
	<path class="st1" d="M701.5,231.8c-1.1,1.7-2.8,3.3-5,4.8c-2.3,1.5-4,2.2-5.2,2.2c-0.3,0-0.7-0.4-1.3-1.2c-0.5-0.8-1-1.3-1.5-1.5
		c-0.2-0.1-0.4-0.1-0.6-0.1c-3.3-0.3-6.7-0.3-10.2,0c-8.4,0.6-16.7,2.5-24.9,5.6c-7.2-8.5-11.1-13.1-11.7-13.9
		c-4.4-5.4-6.2-8.8-5.6-10.2l54.2-120.6c0.3-0.7,1.9-1.3,4.7-1.8c2.8-0.4,4.6-0.4,5.6,0.2s2.9,2.4,5.5,5.4s4.9,5,7,6
		c2.7,1.2,7,1.4,12.6,0.5c5.3-1,8.3-1,9.1-0.1c1.8,1.8,3.8,6.1,6,12.8c2.2,6.7,3,11.2,2.5,13.4c-0.2,1-1.8,2.3-4.8,3.8
		c-2.9,1.5-5,2-6.2,1.5c-1-0.5-1.7-0.9-2-1.5c-0.3-0.5-0.6-0.8-0.8-0.8c-3.7-0.6-7.2-1-10.6-1.1c-8-0.4-14.3,0.5-19.1,2.6
		l-11.8,26.1c4.1-0.5,9.1-0.6,15.1-0.3c1.6,0.4,3.6,4.2,6,11.3c2.5,7.1,3.3,11.6,2.4,13.5c-0.5,1.2-1.8,2.3-3.8,3.3
		s-3.7,1.5-5.1,1.4c-0.9-0.4-2.6-1-4.9-1.8c-3.8-0.8-11.5-0.1-23,2l-7.6,16.8c3.6-0.7,8.3-1.3,14.2-1.8s9.4-0.5,10.5,0
		c1.3,0.6,3.5,4.3,6.5,11.3C701.1,226.5,702.3,230.6,701.5,231.8z"/>
</g>
<g>
	<path class="st0" d="M640.2,246.4c0.2-0.4,0.3-0.7,0.4-0.8c0.8-1.6,5.7-4.9,10.2-6.6c3.1-1.1,5-0.6,5.9,1.8c0.2,0.5,0.4,1,0.6,1.5
		c0.3,0.6,0.6,1.1,0.8,1.8c0.2,0.6,0.3,1.3,0.1,2c-0.2,0.8-0.9,2-1.9,3.3c-1.4,2-2.7,3.8-4.1,5.7c-6.7,9-15,19.9-20.7,27.5
		c-2.3,3.2-4.3,6.2-4.8,7.2c-0.2,0.5-0.2,0.9,0.3,0.9c0.5,0.1,0.9-0.2,2.6-1.5c0.7-0.6,1.2-1.1,1.9-1.8c0.7-0.6,1.2-1.2,1.9-1.8
		c1.8-1.7,3.7-3.5,5.4-5.3c10.2-10.2,21.9-23.5,31.6-35.9c8-10,11.8-14.3,16.4-15.6c4.6-1.4,7.9,1.8,7,6.5c-0.5,2.4-1,4-5.1,13.2
		c-6.1,13.7-10.9,24.3-15.4,35.6c-1.9,4.9-3.2,8.7-3.7,10.6c-0.2,0.8,0.1,1.2,0.4,1.3c0.7,0.1,1.1-0.4,2.3-2.3
		c0.6-0.9,1.2-1.8,1.8-2.7c0.9-1.4,1.9-2.9,2.7-4.4c11-18,17.4-29.1,26.4-44c10.3-17.7,15.1-25.2,19.7-26.3c2.1-0.6,3.8,0.5,5.3,3
		c0.7,1,1.2,2.2,1.9,3.3c0.6,0.7,1,1.2,1.6,1.9c0.5,1,0.8,2.3,0.8,3.4c-0.2,1.6-0.8,3-2.3,5.9c-1.1,1.9-2.3,3.7-3.5,5.5
		c-15.8,25.5-32.7,54.6-53.4,84.8c-3.8,5.6-7,9.9-9.4,12.8c-3.7,4.6-6.5,5.6-10.5,4.2c-1.9-0.7-3-1.6-4.6-3.9
		c-3.1-4.1-3.9-5.3-5.1-6.3c-4.7-4.5-5.1-5.7-3.7-10.3c2.1-6.9,9.4-23.2,14.3-32.9c0.5-0.9,1-2,1.5-3c0.2-0.4,0.4-0.8,0.5-1.2
		c0.2-0.2,0.3-0.5,0.4-0.7c0.1-0.3,0-0.5-0.4-0.5s-0.8,0.3-1.9,1.5c-2.2,2.4-6.4,7-10,10.9c-6.2,6.6-13.2,13.2-17.3,16.8
		c-3.7,3.4-7.4,6.5-11.3,9.4c-3.5,2.6-6.7,3.1-9.9,1.8c-2-0.8-3.6-1.9-4.6-3c-1.1-1.2-2.3-2.3-3.4-3.6c-1.2-1.1-2.5-2.3-3.8-3.5
		c-2.4-2.3-2.8-3.4-1.3-5.9c0.8-1.4,2.3-3.2,4.6-6.1c5.3-6.4,8.6-10.1,14-16.3c6.7-7.7,13.9-16.4,19.1-22.7c1.9-2.3,3.8-4.7,5.5-7.1
		c1.6-2,2.3-3.2,2.9-4.6C639.4,249,639.8,247.9,640.2,246.4z"/>
	<path class="st0" d="M814.3,232c-2.6-3.1-3.8-5.7-3.8-8.6c-0.1-4.3,1.5-8.2,4.7-11.9c7-8.4,15.4-13.2,23.7-13.5
		c15.3-0.5,29.1,20.6,32,47.1c2.5,24.6-4.4,47.2-20.4,61.9c-5.8,5.4-7.9,8.2-7.8,10.3c0,0.3,0.2,0.8,0.5,1.9s0.8,3,2.5,9.4
		c0.5,1.9,0.9,4.1,1.5,6.3c3.6,14,8.3,24,13.3,28.7c1.4,1.1,1.8,2,1.9,3c0.6,6.3-7.2,13.7-14.2,13.4c-7.6-0.3-11.8-6.9-17.5-27.7
		c-3.5-13-6.4-22.7-8.4-29c-1-3-1.8-4.4-2.8-4.4c-1.4-0.1-1.7,1-3.8,12.8c-3.6,18.9-4.4,22.9-4.3,26.9c0,1.3,0.3,2.9,0.5,4
		c0.4,1.7,0.7,3.5,1,5.2c0.2,0.6,0.2,1.1,0.2,1.3c0.1,3.8-6.3,7.4-11.7,6.8c-3.8-0.5-6-2.6-9.6-8.8c-2.6-5-3.3-6.7-3.3-9.3
		c0-5,2.6-18.6,7-38.8c2.9-13.4,6.1-27.6,10.1-43.8c3.6-14.9,6.9-30.3,9.1-39.3c0.2-0.8,0.4-1.6,0.6-2.4
		C815.2,233,814.8,232.4,814.3,232z M835.4,236.1c-2.1,8-3.4,14.5-7,30.4c-2,9.6-3.2,14.2-4.1,19c-0.3,1.6-0.4,2.4-0.4,3.3
		c0,1.1,0.4,1.6,1.4,1.6c1.5,0,6.8-3.8,10.7-8.1c11.4-12,17.6-27.5,16.5-39.8c-0.6-7.1-4.4-12.1-9.1-12c-2.8,0-5.3,1.5-7.6,3.9
		C835.7,235.1,835.6,235.5,835.4,236.1z"/>
	<path class="st0" d="M908.8,208.3c0.8,1.3,1.5,2.5,2.3,3.8c0.7,1,1.3,2.1,2,3c0.7,1.1,1.1,2.4,1.3,3.5c0.1,0.8,0.1,1.5,0.1,2.3
		c-0.1,1.5,0,0.8-2,10.6c-0.8,3.8-2.1,10.5-2.8,14.1c-0.2,0.9-0.3,1.9-0.5,2.8c-0.3,1.3-0.3,2.1-0.2,2.6c0.1,0.8,0.5,1,0.8,1.1
		c0.5,0,0.8-0.5,1.7-2.1c1.7-3.4,7.6-14.2,10.3-19.1c13.1-22.2,14.5-23.7,18.6-23c2.2,0.5,4.6,2.7,6.8,5.8c1,1.5,2,3,3,4.4
		c0.4,0.6,1.4,1.9,3.1,3.9c1.4,1.9,2.3,3.3,2.5,4.5c0.5,1.9-0.1,3.5-2.3,5.8c-4.3,4.8-11.7,14.2-15.9,20.2
		c-5.3,7.8-11.1,17.7-13,22.9c-1.2,3.1-1.2,6-0.1,13c1.7,9.9,9,37.4,13.6,50.2c3.8,10.6,6,14.5,10.2,17.3c1.5,1.1,2.2,1.8,2.3,2.8
		c0.3,1.5-0.5,4.5-2,7.4c-2.5,4.6-6.3,7.7-10.1,8.3c-7.9,1.2-14.2-5.6-18.9-20.6c-4.6-14.2-7.6-27.8-10.9-48.6
		c-0.5-2.6-0.8-5.2-1.3-7.8c-1-5.9-1.6-7.8-2.4-7.7c-0.8,0-0.8,0.3-1.7,8.6c-0.6,4.6-0.9,9.5-1.9,20.4c-1.6,16.9-2.6,29-2.8,33.9
		c-0.2,4.1-0.2,7.7,0.1,9.9c0.2,1.9,0.6,3.3,0.9,4.6c0.4,1.1,0.8,2.3,1.1,3.5c0.1,0.6,0.1,1.1,0.2,1.3c0.4,3-4.3,6.9-8.8,7.1
		c-4.2,0.2-5.8-0.3-9.3-3.5c-4.5-4.2-6.5-8.4-7-14.1c-0.5-4.7-0.1-10.4,1-22.8c1.8-19.2,4.5-38.8,7.7-60.6
		c2.5-17.2,5.9-40.8,7.5-50.6c1.2-6.9,1.2-9.8,0.8-14.6c-0.5-3.5-0.5-4.5,0-5.5c1.1-3.8,4.6-6.7,8-6.3
		C903.8,201.8,906.5,204.2,908.8,208.3z"/>
	<path class="st1" d="M765.7,345.8c-1.1,1.7-2.8,3.3-5,4.8c-2.3,1.5-4,2.2-5.2,2.2c-0.3,0-0.7-0.4-1.3-1.2c-0.5-0.8-1-1.3-1.5-1.5
		c-0.2-0.1-0.4-0.1-0.6-0.1c-3.3-0.3-6.7-0.3-10.2,0c-8.4,0.6-16.7,2.5-24.9,5.6c-7.2-8.5-11.1-13.1-11.7-13.9
		c-4.4-5.4-6.2-8.8-5.6-10.2l54.2-120.6c0.3-0.7,1.9-1.3,4.7-1.8c2.8-0.4,4.6-0.4,5.6,0.2c1,0.6,2.9,2.4,5.5,5.4s4.9,5,7,6
		c2.7,1.2,7,1.4,12.6,0.5c5.3-1,8.3-1,9.1-0.1c1.8,1.8,3.8,6.1,6,12.8s3,11.2,2.5,13.4c-0.2,1-1.8,2.3-4.8,3.8c-2.9,1.5-5,2-6.2,1.5
		c-1-0.5-1.7-0.9-2-1.5c-0.3-0.5-0.6-0.8-0.8-0.8c-3.7-0.6-7.2-1-10.6-1.1c-8-0.4-14.3,0.5-19.1,2.6l-11.8,26.1
		c4.1-0.5,9.1-0.6,15.1-0.3c1.6,0.4,3.6,4.2,6,11.3c2.5,7.1,3.3,11.6,2.4,13.5c-0.5,1.2-1.8,2.3-3.8,3.3s-3.7,1.5-5.1,1.4
		c-0.9-0.4-2.6-1-4.9-1.8c-3.8-0.8-11.5-0.1-23,2L731,324c3.6-0.7,8.3-1.3,14.2-1.8s9.4-0.5,10.5,0c1.3,0.6,3.5,4.3,6.5,11.3
		C765.3,340.5,766.4,344.5,765.7,345.8z"/>
</g>
<g>
	<path class="st0" d="M573.8,361.2c0.2-0.4,0.3-0.7,0.4-0.8c0.8-1.6,5.7-4.9,10.2-6.6c3.1-1.1,5-0.6,5.9,1.8c0.2,0.5,0.4,1,0.6,1.5
		c0.3,0.6,0.6,1.1,0.8,1.8c0.2,0.6,0.3,1.3,0.1,2c-0.2,0.8-0.9,2-1.9,3.3c-1.4,2-2.7,3.8-4.1,5.7c-6.7,9-15,19.9-20.7,27.5
		c-2.3,3.2-4.3,6.2-4.8,7.2c-0.2,0.5-0.2,0.9,0.3,0.9c0.5,0.1,0.9-0.2,2.6-1.5c0.7-0.6,1.2-1.1,1.9-1.8c0.7-0.6,1.2-1.2,1.9-1.8
		c1.8-1.7,3.7-3.5,5.4-5.3c10.2-10.2,21.9-23.5,31.6-35.9c8-10,11.8-14.3,16.4-15.6c4.6-1.4,7.9,1.8,7,6.5c-0.5,2.4-1,4-5.1,13.2
		c-6.1,13.7-10.9,24.3-15.4,35.6c-1.9,4.9-3.2,8.7-3.7,10.6c-0.2,0.8,0.1,1.2,0.4,1.3c0.7,0.1,1.1-0.4,2.3-2.3
		c0.6-0.9,1.2-1.8,1.8-2.7c0.9-1.4,1.9-2.9,2.7-4.4c11-18,17.4-29.1,26.4-44c10.3-17.7,15.1-25.2,19.7-26.3c2.1-0.6,3.8,0.5,5.3,3
		c0.7,1,1.2,2.2,1.9,3.3c0.6,0.7,1,1.2,1.6,1.9c0.5,1,0.8,2.3,0.8,3.4c-0.2,1.6-0.8,3-2.3,5.9c-1.1,1.9-2.3,3.7-3.5,5.5
		c-15.8,25.5-32.7,54.6-53.4,84.8c-3.8,5.6-7,9.9-9.4,12.8c-3.7,4.6-6.5,5.6-10.5,4.2c-1.9-0.7-3-1.6-4.6-3.9
		c-3.1-4.1-3.9-5.3-5.1-6.3c-4.7-4.5-5.1-5.7-3.7-10.3c2.1-6.9,9.4-23.2,14.3-32.9c0.5-0.9,1-2,1.5-3c0.2-0.4,0.4-0.8,0.5-1.2
		c0.2-0.2,0.3-0.5,0.4-0.7c0.1-0.3,0-0.5-0.4-0.5s-0.8,0.3-1.9,1.5c-2.2,2.4-6.4,7-10,10.9c-6.2,6.6-13.2,13.2-17.3,16.8
		c-3.7,3.4-7.4,6.5-11.3,9.4c-3.5,2.6-6.7,3.1-9.9,1.8c-2-0.8-3.6-1.9-4.6-3c-1.1-1.2-2.3-2.3-3.4-3.6c-1.2-1.1-2.5-2.3-3.8-3.5
		c-2.4-2.3-2.8-3.4-1.3-5.9c0.8-1.4,2.3-3.2,4.6-6.1c5.3-6.4,8.6-10.1,14-16.3c6.7-7.7,13.9-16.4,19.1-22.7c1.9-2.3,3.8-4.7,5.5-7.1
		c1.6-2,2.3-3.2,2.9-4.6C573.1,363.7,573.5,362.7,573.8,361.2z"/>
	<path class="st0" d="M747.9,346.7c-2.6-3.1-3.8-5.7-3.8-8.6c-0.1-4.3,1.5-8.2,4.7-11.9c7-8.4,15.4-13.2,23.7-13.5
		c15.3-0.5,29.1,20.6,32,47.1c2.5,24.6-4.4,47.2-20.4,61.9c-5.8,5.4-7.9,8.2-7.8,10.3c0,0.3,0.2,0.8,0.5,1.9s0.8,3,2.5,9.4
		c0.5,1.9,0.9,4.1,1.5,6.3c3.6,14,8.3,24,13.3,28.7c1.4,1.1,1.8,2,1.9,3c0.6,6.3-7.2,13.7-14.2,13.4c-7.6-0.3-11.8-6.9-17.5-27.7
		c-3.5-13-6.4-22.7-8.4-29c-1-3-1.8-4.4-2.8-4.4c-1.4-0.1-1.7,1-3.8,12.8c-3.6,18.9-4.4,22.9-4.3,26.9c0,1.3,0.3,2.9,0.5,4
		c0.4,1.7,0.7,3.5,1,5.2c0.2,0.6,0.2,1.1,0.2,1.3c0.1,3.8-6.3,7.4-11.7,6.8c-3.8-0.5-6-2.6-9.6-8.8c-2.6-5-3.3-6.7-3.3-9.3
		c0-5,2.6-18.6,7-38.8c2.9-13.4,6.1-27.6,10.1-43.8c3.6-14.9,6.9-30.3,9.1-39.3c0.2-0.8,0.4-1.6,0.6-2.4
		C748.9,347.8,748.4,347.2,747.9,346.7z M769.1,350.9c-2.1,8-3.4,14.5-7,30.4c-2,9.6-3.2,14.2-4.1,19c-0.3,1.6-0.4,2.4-0.4,3.3
		c0,1.1,0.4,1.6,1.4,1.6c1.5,0,6.8-3.8,10.7-8.1c11.4-12,17.6-27.5,16.5-39.8c-0.6-7.1-4.4-12.1-9.1-12c-2.8,0-5.3,1.5-7.6,3.9
		C769.3,349.8,769.2,350.3,769.1,350.9z"/>
	<path class="st0" d="M842.5,323.1c0.8,1.3,1.5,2.5,2.3,3.8c0.7,1,1.3,2.1,2,3c0.7,1.1,1.1,2.4,1.3,3.5c0.1,0.8,0.1,1.5,0.1,2.3
		c-0.1,1.5,0,0.8-2,10.6c-0.8,3.8-2.1,10.5-2.8,14.1c-0.2,0.9-0.3,1.9-0.5,2.8c-0.3,1.3-0.3,2.1-0.2,2.6c0.1,0.8,0.5,1,0.8,1.1
		c0.5,0,0.8-0.5,1.7-2.1c1.7-3.4,7.6-14.2,10.3-19.1c13.1-22.2,14.5-23.7,18.6-23c2.2,0.5,4.6,2.7,6.8,5.8c1,1.5,2,3,3,4.4
		c0.4,0.6,1.4,1.9,3.1,3.9c1.4,1.9,2.3,3.3,2.5,4.5c0.5,1.9-0.1,3.5-2.3,5.8c-4.3,4.8-11.7,14.2-15.9,20.2
		c-5.3,7.8-11.1,17.7-13,22.9c-1.2,3.1-1.2,6-0.1,13c1.7,9.9,9,37.4,13.6,50.2c3.8,10.6,6,14.5,10.2,17.3c1.5,1.1,2.2,1.8,2.3,2.8
		c0.3,1.5-0.5,4.5-2,7.4c-2.5,4.6-6.3,7.7-10.1,8.3c-7.9,1.2-14.2-5.6-18.9-20.6c-4.6-14.2-7.6-27.8-10.9-48.6
		c-0.5-2.6-0.8-5.2-1.3-7.8c-1-5.9-1.6-7.8-2.4-7.7c-0.8,0-0.8,0.3-1.7,8.6c-0.6,4.6-0.9,9.5-1.9,20.4c-1.6,16.9-2.6,29-2.8,33.9
		c-0.2,4.1-0.2,7.7,0.1,9.9c0.2,1.9,0.6,3.3,0.9,4.6c0.4,1.1,0.8,2.3,1.1,3.5c0.1,0.6,0.1,1.1,0.2,1.3c0.4,3-4.3,6.9-8.8,7.1
		c-4.2,0.2-5.8-0.3-9.3-3.5c-4.5-4.2-6.5-8.4-7-14.1c-0.5-4.7-0.1-10.4,1-22.8c1.8-19.2,4.5-38.8,7.7-60.6
		c2.5-17.2,5.9-40.8,7.5-50.6c1.2-6.9,1.2-9.8,0.8-14.6c-0.5-3.5-0.5-4.5,0-5.5c1.1-3.8,4.6-6.7,8-6.3
		C837.5,316.5,840.2,319,842.5,323.1z"/>
	<path class="st1" d="M699.3,460.5c-1.1,1.7-2.8,3.3-5,4.8c-2.3,1.5-4,2.2-5.2,2.2c-0.3,0-0.7-0.4-1.3-1.2c-0.5-0.8-1-1.3-1.5-1.5
		c-0.2-0.1-0.4-0.1-0.6-0.1c-3.3-0.3-6.7-0.3-10.2,0c-8.4,0.6-16.7,2.5-24.9,5.6c-7.2-8.5-11.1-13.1-11.7-13.9
		c-4.4-5.4-6.2-8.8-5.6-10.2l54.2-120.6c0.3-0.7,1.9-1.3,4.7-1.8c2.8-0.4,4.6-0.4,5.6,0.2s2.9,2.4,5.5,5.4s4.9,5,7,6
		c2.7,1.2,7,1.4,12.6,0.5c5.3-1,8.3-1,9.1-0.1c1.8,1.8,3.8,6.1,6,12.8c2.2,6.7,3,11.2,2.5,13.4c-0.2,1-1.8,2.3-4.8,3.8
		c-2.9,1.5-5,2-6.2,1.5c-1-0.5-1.7-0.9-2-1.5c-0.3-0.5-0.6-0.8-0.8-0.8c-3.7-0.6-7.2-1-10.6-1.1c-8-0.4-14.3,0.5-19.1,2.6
		l-11.8,26.1c4.1-0.5,9.1-0.6,15.1-0.3c1.6,0.4,3.6,4.2,6,11.3c2.5,7.1,3.3,11.6,2.4,13.5c-0.5,1.2-1.8,2.3-3.8,3.3
		s-3.7,1.5-5.1,1.4c-0.9-0.4-2.6-1-4.9-1.8c-3.8-0.8-11.5-0.1-23,2l-7.6,16.8c3.6-0.7,8.3-1.3,14.2-1.8s9.4-0.5,10.5,0
		c1.3,0.6,3.5,4.3,6.5,11.3C698.9,455.2,700.1,459.3,699.3,460.5z"/>
</g>
<g>
	<path class="st0" d="M636.6,476c0.2-0.4,0.3-0.7,0.4-0.8c0.8-1.6,5.7-4.9,10.2-6.6c3.1-1.1,5-0.6,5.9,1.8c0.2,0.5,0.4,1,0.6,1.5
		c0.3,0.6,0.6,1.1,0.8,1.8c0.2,0.6,0.3,1.3,0.1,2c-0.2,0.8-0.9,2-1.9,3.3c-1.4,2-2.7,3.8-4.1,5.7c-6.7,9-15,19.9-20.7,27.5
		c-2.3,3.2-4.3,6.2-4.8,7.2c-0.2,0.5-0.2,0.9,0.3,0.9c0.5,0.1,0.9-0.2,2.6-1.5c0.7-0.6,1.2-1.1,1.9-1.8c0.7-0.6,1.2-1.2,1.9-1.8
		c1.8-1.7,3.7-3.5,5.4-5.3c10.2-10.2,21.9-23.5,31.6-35.9c8-10,11.8-14.3,16.4-15.6c4.6-1.4,7.9,1.8,7,6.5c-0.5,2.4-1,4-5.1,13.2
		c-6.1,13.7-10.9,24.3-15.4,35.6c-1.9,4.9-3.2,8.7-3.7,10.6c-0.2,0.8,0.1,1.2,0.4,1.3c0.7,0.1,1.1-0.4,2.3-2.3
		c0.6-0.9,1.2-1.8,1.8-2.7c0.9-1.4,1.9-2.9,2.7-4.4c11-18,17.4-29.1,26.4-44c10.3-17.7,15.1-25.2,19.7-26.3c2.1-0.6,3.8,0.5,5.3,3
		c0.7,1,1.2,2.2,1.9,3.3c0.6,0.7,1,1.2,1.6,1.9c0.5,1,0.8,2.3,0.8,3.4c-0.2,1.6-0.8,3-2.3,5.9c-1.1,1.9-2.3,3.7-3.5,5.5
		c-15.8,25.5-32.7,54.6-53.4,84.8c-3.8,5.6-7,9.9-9.4,12.8c-3.7,4.6-6.5,5.6-10.5,4.2c-1.9-0.7-3-1.6-4.6-3.9
		c-3.1-4.1-3.9-5.3-5.1-6.3c-4.7-4.5-5.1-5.7-3.7-10.3c2.1-6.9,9.4-23.2,14.3-32.9c0.5-0.9,1-2,1.5-3c0.2-0.4,0.4-0.8,0.5-1.2
		c0.2-0.2,0.3-0.5,0.4-0.7c0.1-0.3,0-0.5-0.4-0.5s-0.8,0.3-1.9,1.5c-2.2,2.4-6.4,7-10,10.9c-6.2,6.6-13.2,13.2-17.3,16.8
		c-3.7,3.4-7.4,6.5-11.3,9.4c-3.5,2.6-6.7,3.1-9.9,1.8c-2-0.8-3.6-1.9-4.6-3c-1.1-1.2-2.3-2.3-3.4-3.6c-1.2-1.1-2.5-2.3-3.8-3.5
		c-2.4-2.3-2.8-3.4-1.3-5.9c0.8-1.4,2.3-3.2,4.6-6.1c5.3-6.4,8.6-10.1,14-16.3c6.7-7.7,13.9-16.4,19.1-22.7c1.9-2.3,3.8-4.7,5.5-7.1
		c1.6-2,2.3-3.2,2.9-4.6C635.8,478.5,636.2,477.5,636.6,476z"/>
	<path class="st0" d="M810.7,461.5c-2.6-3.1-3.8-5.7-3.8-8.6c-0.1-4.3,1.5-8.2,4.7-11.9c7-8.4,15.4-13.2,23.7-13.5
		c15.3-0.5,29.1,20.6,32,47.1c2.5,24.6-4.4,47.2-20.4,61.9c-5.8,5.4-7.9,8.2-7.8,10.3c0,0.3,0.2,0.8,0.5,1.9c0.3,1.1,0.8,3,2.5,9.4
		c0.5,1.9,0.9,4.1,1.5,6.3c3.6,14,8.3,24,13.3,28.7c1.4,1.1,1.8,2,1.9,3c0.6,6.3-7.2,13.7-14.2,13.4c-7.6-0.3-11.8-6.9-17.5-27.7
		c-3.5-13-6.4-22.7-8.4-29c-1-3-1.8-4.4-2.8-4.4c-1.4-0.1-1.7,1-3.8,12.8c-3.6,18.9-4.4,22.9-4.3,26.9c0,1.3,0.3,2.9,0.5,4
		c0.4,1.7,0.7,3.5,1,5.2c0.2,0.6,0.2,1.1,0.2,1.3c0.1,3.8-6.3,7.4-11.7,6.8c-3.8-0.5-6-2.6-9.6-8.8c-2.6-5-3.3-6.7-3.3-9.3
		c0-5,2.6-18.6,7-38.8c2.9-13.4,6.1-27.6,10.1-43.8c3.6-14.9,6.9-30.3,9.1-39.3c0.2-0.8,0.4-1.6,0.6-2.4
		C811.6,462.5,811.2,462,810.7,461.5z M831.8,465.6c-2.1,8-3.4,14.5-7,30.4c-2,9.6-3.2,14.2-4.1,19c-0.3,1.6-0.4,2.4-0.4,3.3
		c0,1.1,0.4,1.6,1.4,1.6c1.5,0,6.8-3.8,10.7-8.1c11.4-12,17.6-27.5,16.5-39.8c-0.6-7.1-4.4-12.1-9.1-12c-2.8,0-5.3,1.5-7.6,3.9
		C832.1,464.6,832,465.1,831.8,465.6z"/>
	<path class="st0" d="M905.2,437.9c0.8,1.3,1.5,2.5,2.3,3.8c0.7,1,1.3,2.1,2,3c0.7,1.1,1.1,2.4,1.3,3.5c0.1,0.8,0.1,1.5,0.1,2.3
		c-0.1,1.5,0,0.8-2,10.6c-0.8,3.8-2.1,10.5-2.8,14.1c-0.2,0.9-0.3,1.9-0.5,2.8c-0.3,1.3-0.3,2.1-0.2,2.6c0.1,0.8,0.5,1,0.8,1.1
		c0.5,0,0.8-0.5,1.7-2.1c1.7-3.4,7.6-14.2,10.3-19.1c13.1-22.2,14.5-23.7,18.6-23c2.2,0.5,4.6,2.7,6.8,5.8c1,1.5,2,3,3,4.4
		c0.4,0.6,1.4,1.9,3.1,3.9c1.4,1.9,2.3,3.3,2.5,4.5c0.5,1.9-0.1,3.5-2.3,5.8c-4.3,4.8-11.7,14.2-15.9,20.2
		c-5.3,7.8-11.1,17.7-13,22.9c-1.2,3.1-1.2,6-0.1,13c1.7,9.9,9,37.4,13.6,50.2c3.8,10.6,6,14.5,10.2,17.3c1.5,1.1,2.2,1.8,2.3,2.8
		c0.3,1.5-0.5,4.5-2,7.4c-2.5,4.6-6.3,7.7-10.1,8.3c-7.9,1.2-14.2-5.6-18.9-20.6c-4.6-14.2-7.6-27.8-10.9-48.6
		c-0.5-2.6-0.8-5.2-1.3-7.8c-1-5.9-1.6-7.8-2.4-7.7c-0.8,0-0.8,0.3-1.7,8.6c-0.6,4.6-0.9,9.5-1.9,20.4c-1.6,16.9-2.6,29-2.8,33.9
		c-0.2,4.1-0.2,7.7,0.1,9.9c0.2,1.9,0.6,3.3,0.9,4.6c0.4,1.1,0.8,2.3,1.1,3.5c0.1,0.6,0.1,1.1,0.2,1.3c0.4,3-4.3,6.9-8.8,7.1
		c-4.2,0.2-5.8-0.3-9.3-3.5c-4.5-4.2-6.5-8.4-7-14.1c-0.5-4.7-0.1-10.4,1-22.8c1.8-19.2,4.5-38.8,7.7-60.6
		c2.5-17.2,5.9-40.8,7.5-50.6c1.2-6.9,1.2-9.8,0.8-14.6c-0.5-3.5-0.5-4.5,0-5.5c1.1-3.8,4.6-6.7,8-6.3
		C900.2,431.3,903,433.7,905.2,437.9z"/>
	<path class="st1" d="M762.1,575.3c-1.1,1.7-2.8,3.3-5,4.8c-2.3,1.5-4,2.2-5.2,2.2c-0.3,0-0.7-0.4-1.3-1.2c-0.5-0.8-1-1.3-1.5-1.5
		c-0.2-0.1-0.4-0.1-0.6-0.1c-3.3-0.3-6.7-0.3-10.2,0c-8.4,0.6-16.7,2.5-24.9,5.6c-7.2-8.5-11.1-13.1-11.7-13.9
		c-4.4-5.4-6.2-8.8-5.6-10.2l54.2-120.6c0.3-0.7,1.9-1.3,4.7-1.8c2.8-0.4,4.6-0.4,5.6,0.2s2.9,2.4,5.5,5.4s4.9,5,7,6
		c2.7,1.2,7,1.4,12.6,0.5c5.3-1,8.3-1,9.1-0.1c1.8,1.8,3.8,6.1,6,12.8c2.2,6.7,3,11.2,2.5,13.4c-0.2,1-1.8,2.3-4.8,3.8
		c-2.9,1.5-5,2-6.2,1.5c-1-0.5-1.7-0.9-2-1.5c-0.3-0.5-0.6-0.8-0.8-0.8c-3.7-0.6-7.2-1-10.6-1.1c-8-0.4-14.3,0.5-19.1,2.6L748,507.4
		c4.1-0.5,9.1-0.6,15.1-0.3c1.6,0.4,3.6,4.2,6,11.3c2.5,7.1,3.3,11.6,2.4,13.5c-0.5,1.2-1.8,2.3-3.8,3.3s-3.7,1.5-5.1,1.4
		c-0.9-0.4-2.6-1-4.9-1.8c-3.8-0.8-11.5-0.1-23,2l-7.6,16.8c3.6-0.7,8.3-1.3,14.2-1.8s9.4-0.5,10.5,0c1.3,0.6,3.5,4.3,6.5,11.3
		C761.7,570,762.8,574.1,762.1,575.3z"/>
</g>
<g>
	<path class="st0" d="M523.6,596.1c0.2-0.4,0.3-0.7,0.4-0.8c0.8-1.6,5.7-4.9,10.2-6.6c3.1-1.1,5-0.6,5.9,1.8c0.2,0.5,0.4,1,0.6,1.5
		c0.3,0.6,0.6,1.1,0.8,1.8c0.2,0.6,0.3,1.3,0.1,2c-0.2,0.8-0.9,2-1.9,3.3c-1.4,2-2.7,3.8-4.1,5.7c-6.7,9-15,19.9-20.7,27.5
		c-2.3,3.2-4.3,6.2-4.8,7.2c-0.2,0.5-0.2,0.9,0.3,0.9c0.5,0.1,0.9-0.2,2.6-1.5c0.7-0.6,1.2-1.1,1.9-1.8c0.7-0.6,1.2-1.2,1.9-1.8
		c1.8-1.7,3.7-3.5,5.4-5.3c10.2-10.2,21.9-23.5,31.6-35.9c8-10,11.8-14.3,16.4-15.6c4.6-1.4,7.9,1.8,7,6.5c-0.5,2.4-1,4-5.1,13.2
		c-6.1,13.7-10.9,24.3-15.4,35.6c-1.9,4.9-3.2,8.7-3.7,10.6c-0.2,0.8,0.1,1.2,0.4,1.3c0.7,0.1,1.1-0.4,2.3-2.3
		c0.6-0.9,1.2-1.8,1.8-2.7c0.9-1.4,1.9-2.9,2.7-4.4c11-18,17.4-29.1,26.4-44c10.3-17.7,15.1-25.2,19.7-26.3c2.1-0.6,3.8,0.5,5.3,3
		c0.7,1,1.2,2.2,1.9,3.3c0.6,0.7,1,1.2,1.6,1.9c0.5,1,0.8,2.3,0.8,3.4c-0.2,1.6-0.8,3-2.3,5.9c-1.1,1.9-2.3,3.7-3.5,5.5
		c-15.8,25.5-32.7,54.6-53.4,84.8c-3.8,5.6-7,9.9-9.4,12.8c-3.7,4.6-6.5,5.6-10.5,4.2c-1.9-0.7-3-1.6-4.6-3.9
		c-3.1-4.1-3.9-5.3-5.1-6.3c-4.7-4.5-5.1-5.7-3.7-10.3c2.1-6.9,9.4-23.2,14.3-32.9c0.5-0.9,1-2,1.5-3c0.2-0.4,0.4-0.8,0.5-1.2
		c0.2-0.2,0.3-0.5,0.4-0.7c0.1-0.3,0-0.5-0.4-0.5s-0.8,0.3-1.9,1.5c-2.2,2.4-6.4,7-10,10.9c-6.2,6.6-13.2,13.2-17.3,16.8
		c-3.7,3.4-7.4,6.5-11.3,9.4c-3.5,2.6-6.7,3.1-9.9,1.8c-2-0.8-3.6-1.9-4.6-3c-1.1-1.2-2.3-2.3-3.4-3.6c-1.2-1.1-2.5-2.3-3.8-3.5
		c-2.4-2.3-2.8-3.4-1.3-5.9c0.8-1.4,2.3-3.2,4.6-6.1c5.3-6.4,8.6-10.1,14-16.3c6.7-7.7,13.9-16.4,19.1-22.7c1.9-2.3,3.8-4.7,5.5-7.1
		c1.6-2,2.3-3.2,2.9-4.6C522.9,598.6,523.2,597.6,523.6,596.1z"/>
	<path class="st0" d="M697.7,581.6c-2.6-3.1-3.8-5.7-3.8-8.6c-0.1-4.3,1.5-8.2,4.7-11.9c7-8.4,15.4-13.2,23.7-13.5
		c15.3-0.5,29.1,20.6,32,47.1c2.5,24.6-4.4,47.2-20.4,61.9c-5.8,5.4-7.9,8.2-7.8,10.3c0,0.3,0.2,0.8,0.5,1.9c0.3,1.1,0.8,3,2.5,9.4
		c0.5,1.9,0.9,4.1,1.5,6.3c3.6,14,8.3,24,13.3,28.7c1.4,1.1,1.8,2,1.9,3c0.6,6.3-7.2,13.7-14.2,13.4c-7.6-0.3-11.8-6.9-17.5-27.7
		c-3.5-13-6.4-22.7-8.4-29c-1-3-1.8-4.4-2.8-4.4c-1.4-0.1-1.7,1-3.8,12.8c-3.6,18.9-4.4,22.9-4.3,26.9c0,1.3,0.3,2.9,0.5,4
		c0.4,1.7,0.7,3.5,1,5.2c0.2,0.6,0.2,1.1,0.2,1.3c0.1,3.8-6.3,7.4-11.7,6.8c-3.8-0.5-6-2.6-9.6-8.8c-2.6-5-3.3-6.7-3.3-9.3
		c0-5,2.6-18.6,7-38.8c2.9-13.4,6.1-27.6,10.1-43.8c3.6-14.9,6.9-30.3,9.1-39.3c0.2-0.8,0.4-1.6,0.6-2.4
		C698.7,582.7,698.2,582.1,697.7,581.6z M718.8,585.8c-2.1,8-3.4,14.5-7,30.4c-2,9.6-3.2,14.2-4.1,19c-0.3,1.6-0.4,2.4-0.4,3.3
		c0,1.1,0.4,1.6,1.4,1.6c1.5,0,6.8-3.8,10.7-8.1c11.4-12,17.6-27.5,16.5-39.8c-0.6-7.1-4.4-12.1-9.1-12c-2.8,0-5.3,1.5-7.6,3.9
		C719.1,584.7,719,585.2,718.8,585.8z"/>
	<path class="st0" d="M792.2,558c0.8,1.3,1.5,2.5,2.3,3.8c0.7,1,1.3,2.1,2,3c0.7,1.1,1.1,2.4,1.3,3.5c0.1,0.8,0.1,1.5,0.1,2.3
		c-0.1,1.5,0,0.8-2,10.6c-0.8,3.8-2.1,10.5-2.8,14.1c-0.2,0.9-0.3,1.9-0.5,2.8c-0.3,1.3-0.3,2.1-0.2,2.6c0.1,0.8,0.5,1,0.8,1.1
		c0.5,0,0.8-0.5,1.7-2.1c1.7-3.4,7.6-14.2,10.3-19.1c13.1-22.2,14.5-23.7,18.6-23c2.2,0.5,4.6,2.7,6.8,5.8c1,1.5,2,3,3,4.4
		c0.4,0.6,1.4,1.9,3.1,3.9c1.4,1.9,2.3,3.3,2.5,4.5c0.5,1.9-0.1,3.5-2.3,5.8c-4.3,4.8-11.7,14.2-15.9,20.2
		c-5.3,7.8-11.1,17.7-13,22.9c-1.2,3.1-1.2,6-0.1,13c1.7,9.9,9,37.4,13.6,50.2c3.8,10.6,6,14.5,10.2,17.3c1.5,1.1,2.2,1.8,2.3,2.8
		c0.3,1.5-0.5,4.5-2,7.4c-2.5,4.6-6.3,7.7-10.1,8.3c-7.9,1.2-14.2-5.6-18.9-20.6c-4.6-14.2-7.6-27.8-10.9-48.6
		c-0.5-2.6-0.8-5.2-1.3-7.8c-1-5.9-1.6-7.8-2.4-7.7c-0.8,0-0.8,0.3-1.7,8.6c-0.6,4.6-0.9,9.5-1.9,20.4c-1.6,16.9-2.6,29-2.8,33.9
		c-0.2,4.1-0.2,7.7,0.1,9.9c0.2,1.9,0.6,3.3,0.9,4.6c0.4,1.1,0.8,2.3,1.1,3.5c0.1,0.6,0.1,1.1,0.2,1.3c0.4,3-4.3,6.9-8.8,7.1
		c-4.2,0.2-5.8-0.3-9.3-3.5c-4.5-4.2-6.5-8.4-7-14.1c-0.5-4.7-0.1-10.4,1-22.8c1.8-19.2,4.5-38.8,7.7-60.6
		c2.5-17.2,5.9-40.8,7.5-50.6c1.2-6.9,1.2-9.8,0.8-14.6c-0.5-3.5-0.5-4.5,0-5.5c1.1-3.8,4.6-6.7,8-6.3
		C787.3,551.4,790,553.9,792.2,558z"/>
	<path class="st1" d="M649.1,695.4c-1.1,1.7-2.8,3.3-5,4.8c-2.3,1.5-4,2.2-5.2,2.2c-0.3,0-0.7-0.4-1.3-1.2c-0.5-0.8-1-1.3-1.5-1.5
		c-0.2-0.1-0.4-0.1-0.6-0.1c-3.3-0.3-6.7-0.3-10.2,0c-8.4,0.6-16.7,2.5-24.9,5.6c-7.2-8.5-11.1-13.1-11.7-13.9
		c-4.4-5.4-6.2-8.8-5.6-10.2l54.2-120.6c0.3-0.7,1.9-1.3,4.7-1.8c2.8-0.4,4.6-0.4,5.6,0.2c1,0.6,2.9,2.4,5.5,5.4s4.9,5,7,6
		c2.7,1.2,7,1.4,12.6,0.5c5.3-1,8.3-1,9.1-0.1c1.8,1.8,3.8,6.1,6,12.8s3,11.2,2.5,13.4c-0.2,1-1.8,2.3-4.8,3.8c-2.9,1.5-5,2-6.2,1.5
		c-1-0.5-1.7-0.9-2-1.5c-0.3-0.5-0.6-0.8-0.8-0.8c-3.7-0.6-7.2-1-10.6-1.1c-8-0.4-14.3,0.5-19.1,2.6L635,627.5
		c4.1-0.5,9.1-0.6,15.1-0.3c1.6,0.4,3.6,4.2,6,11.3c2.5,7.1,3.3,11.6,2.4,13.5c-0.5,1.2-1.8,2.3-3.8,3.3s-3.7,1.5-5.1,1.4
		c-0.9-0.4-2.6-1-4.9-1.8c-3.8-0.8-11.5-0.1-23,2l-7.6,16.8c3.6-0.7,8.3-1.3,14.2-1.8s9.4-0.5,10.5,0c1.3,0.6,3.5,4.3,6.5,11.3
		C648.7,690.1,649.9,694.2,649.1,695.4z"/>
</g>
</svg>
