<svg id="67050791-aace-41b6-9ed4-00523df826de" data-name="Calque 1" xmlns="http://www.w3.org/2000/svg" width="481.65" height="646.62" viewBox="0 0 481.65 646.62"><defs><style>.\36 5c1fc1d-ef49-4e8d-80b4-1c5c80f1cc05,.e0446b36-3b82-4dea-94cd-9f62c9590f8d{fill:#fff;stroke:#000;}.e0446b36-3b82-4dea-94cd-9f62c9590f8d{stroke-miterlimit:10;}</style></defs><title>work</title><path class="e0446b36-3b82-4dea-94cd-9f62c9590f8d" d="M576,132.5a5.56,5.56,0,0,1,.4-.8c.8-1.6,5.7-4.9,10.2-6.6,3.1-1.1,5-.6,5.9,1.8l.6,1.5a9.82,9.82,0,0,1,.8,1.8,3.38,3.38,0,0,1,.1,2,10.69,10.69,0,0,1-1.9,3.3c-1.4,2-2.7,3.8-4.1,5.7-6.7,9-15,19.9-20.7,27.5a84.64,84.64,0,0,0-4.8,7.2c-.2.5-.2.9.3.9s.9-.2,2.6-1.5c.7-.6,1.2-1.1,1.9-1.8s1.2-1.2,1.9-1.8c1.8-1.7,3.7-3.5,5.4-5.3a417,417,0,0,0,31.6-35.9c8-10,11.8-14.3,16.4-15.6s7.9,1.8,7,6.5c-.5,2.4-1,4-5.1,13.2-6.1,13.7-10.9,24.3-15.4,35.6-1.9,4.9-3.2,8.7-3.7,10.6-.2.8.1,1.2.4,1.3.7.1,1.1-.4,2.3-2.3l1.8-2.7c.9-1.4,1.9-2.9,2.7-4.4,11-18,17.4-29.1,26.4-44,10.3-17.7,15.1-25.2,19.7-26.3,2.1-.6,3.8.5,5.3,3,.7,1,1.2,2.2,1.9,3.3.6.7,1,1.2,1.6,1.9a8.08,8.08,0,0,1,.8,3.4c-.2,1.6-.8,3-2.3,5.9-1.1,1.9-2.3,3.7-3.5,5.5-15.8,25.5-32.7,54.6-53.4,84.8-3.8,5.6-7,9.9-9.4,12.8-3.7,4.6-6.5,5.6-10.5,4.2-1.9-.7-3-1.6-4.6-3.9-3.1-4.1-3.9-5.3-5.1-6.3-4.7-4.5-5.1-5.7-3.7-10.3,2.1-6.9,9.4-23.2,14.3-32.9.5-.9,1-2,1.5-3a6.11,6.11,0,0,0,.5-1.2,2.51,2.51,0,0,0,.4-.7c.1-.3,0-.5-.4-.5s-.8.3-1.9,1.5c-2.2,2.4-6.4,7-10,10.9-6.2,6.6-13.2,13.2-17.3,16.8a140.67,140.67,0,0,1-11.3,9.4c-3.5,2.6-6.7,3.1-9.9,1.8a12.65,12.65,0,0,1-4.6-3c-1.1-1.2-2.3-2.3-3.4-3.6l-3.8-3.5c-2.4-2.3-2.8-3.4-1.3-5.9a63.32,63.32,0,0,1,4.6-6.1c5.3-6.4,8.6-10.1,14-16.3,6.7-7.7,13.9-16.4,19.1-22.7,1.9-2.3,3.8-4.7,5.5-7.1a18.46,18.46,0,0,0,2.9-4.6A12.84,12.84,0,0,0,576,132.5Z" transform="translate(-474.82 -83.49)"/><path class="e0446b36-3b82-4dea-94cd-9f62c9590f8d" d="M750.1,118c-2.6-3.1-3.8-5.7-3.8-8.6-.1-4.3,1.5-8.2,4.7-11.9,7-8.4,15.4-13.2,23.7-13.5,15.3-.5,29.1,20.6,32,47.1,2.5,24.6-4.4,47.2-20.4,61.9-5.8,5.4-7.9,8.2-7.8,10.3a13.33,13.33,0,0,0,.5,1.9c.3,1.1.8,3,2.5,9.4.5,1.9.9,4.1,1.5,6.3,3.6,14,8.3,24,13.3,28.7a4.12,4.12,0,0,1,1.9,3c.6,6.3-7.2,13.7-14.2,13.4-7.6-.3-11.8-6.9-17.5-27.7-3.5-13-6.4-22.7-8.4-29-1-3-1.8-4.4-2.8-4.4-1.4-.1-1.7,1-3.8,12.8-3.6,18.9-4.4,22.9-4.3,26.9a24.28,24.28,0,0,0,.5,4c.4,1.7.7,3.5,1,5.2a4,4,0,0,1,.2,1.3c.1,3.8-6.3,7.4-11.7,6.8-3.8-.5-6-2.6-9.6-8.8-2.6-5-3.3-6.7-3.3-9.3,0-5,2.6-18.6,7-38.8,2.9-13.4,6.1-27.6,10.1-43.8,3.6-14.9,6.9-30.3,9.1-39.3l.6-2.4A3.9,3.9,0,0,0,750.1,118Zm21.1,4.2c-2.1,8-3.4,14.5-7,30.4-2,9.6-3.2,14.2-4.1,19a16.82,16.82,0,0,0-.4,3.3c0,1.1.4,1.6,1.4,1.6,1.5,0,6.8-3.8,10.7-8.1,11.4-12,17.6-27.5,16.5-39.8-.6-7.1-4.4-12.1-9.1-12-2.8,0-5.3,1.5-7.6,3.9A10.47,10.47,0,0,1,771.2,122.2Z" transform="translate(-474.82 -83.49)"/><path class="e0446b36-3b82-4dea-94cd-9f62c9590f8d" d="M844.6,94.4c.8,1.3,1.5,2.5,2.3,3.8.7,1,1.3,2.1,2,3a10,10,0,0,1,1.3,3.5,17.71,17.71,0,0,1,.1,2.3c-.1,1.5,0,.8-2,10.6-.8,3.8-2.1,10.5-2.8,14.1-.2.9-.3,1.9-.5,2.8a6.41,6.41,0,0,0-.2,2.6,1.13,1.13,0,0,0,.8,1.1c.5,0,.8-.5,1.7-2.1,1.7-3.4,7.6-14.2,10.3-19.1,13.1-22.2,14.5-23.7,18.6-23,2.2.5,4.6,2.7,6.8,5.8,1,1.5,2,3,3,4.4.4.6,1.4,1.9,3.1,3.9,1.4,1.9,2.3,3.3,2.5,4.5.5,1.9-.1,3.5-2.3,5.8-4.3,4.8-11.7,14.2-15.9,20.2-5.3,7.8-11.1,17.7-13,22.9-1.2,3.1-1.2,6-.1,13,1.7,9.9,9,37.4,13.6,50.2,3.8,10.6,6,14.5,10.2,17.3,1.5,1.1,2.2,1.8,2.3,2.8.3,1.5-.5,4.5-2,7.4-2.5,4.6-6.3,7.7-10.1,8.3-7.9,1.2-14.2-5.6-18.9-20.6-4.6-14.2-7.6-27.8-10.9-48.6-.5-2.6-.8-5.2-1.3-7.8-1-5.9-1.6-7.8-2.4-7.7s-.8.3-1.7,8.6c-.6,4.6-.9,9.5-1.9,20.4-1.6,16.9-2.6,29-2.8,33.9a61.74,61.74,0,0,0,.1,9.9,34.08,34.08,0,0,0,.9,4.6,35.79,35.79,0,0,1,1.1,3.5,9,9,0,0,0,.2,1.3c.4,3-4.3,6.9-8.8,7.1-4.2.2-5.8-.3-9.3-3.5a20.23,20.23,0,0,1-7-14.1c-.5-4.7-.1-10.4,1-22.8,1.8-19.2,4.5-38.8,7.7-60.6,2.5-17.2,5.9-40.8,7.5-50.6a47.75,47.75,0,0,0,.8-14.6c-.5-3.5-.5-4.5,0-5.5,1.1-3.8,4.6-6.7,8-6.3C839.6,87.8,842.4,90.3,844.6,94.4Z" transform="translate(-474.82 -83.49)"/><path class="65c1fc1d-ef49-4e8d-80b4-1c5c80f1cc05" d="M701.5,231.8a17.76,17.76,0,0,1-5,4.8c-2.3,1.5-4,2.2-5.2,2.2-.3,0-.7-.4-1.3-1.2a3.54,3.54,0,0,0-1.5-1.5,1.27,1.27,0,0,0-.6-.1,57.9,57.9,0,0,0-10.2,0,87.9,87.9,0,0,0-24.9,5.6c-7.2-8.5-11.1-13.1-11.7-13.9-4.4-5.4-6.2-8.8-5.6-10.2L689.7,96.9c.3-.7,1.9-1.3,4.7-1.8s4.6-.4,5.6.2a31.08,31.08,0,0,1,5.5,5.4c2.6,3,4.9,5,7,6,2.7,1.2,7,1.4,12.6.5,5.3-1,8.3-1,9.1-.1,1.8,1.8,3.8,6.1,6,12.8s3,11.2,2.5,13.4c-.2,1-1.8,2.3-4.8,3.8s-5,2-6.2,1.5a4.17,4.17,0,0,1-2-1.5c-.3-.5-.6-.8-.8-.8a81.21,81.21,0,0,0-10.6-1.1c-8-.4-14.3.5-19.1,2.6l-11.8,26.1a90.14,90.14,0,0,1,15.1-.3c1.6.4,3.6,4.2,6,11.3s3.3,11.6,2.4,13.5c-.5,1.2-1.8,2.3-3.8,3.3a10.35,10.35,0,0,1-5.1,1.4c-.9-.4-2.6-1-4.9-1.8-3.8-.8-11.5-.1-23,2l-7.6,16.8a138.18,138.18,0,0,1,14.2-1.8q8.85-.75,10.5,0c1.3.6,3.5,4.3,6.5,11.3C701.1,226.5,702.3,230.6,701.5,231.8Z" transform="translate(-474.82 -83.49)"/><path class="e0446b36-3b82-4dea-94cd-9f62c9590f8d" d="M640.2,246.4a5.56,5.56,0,0,1,.4-.8c.8-1.6,5.7-4.9,10.2-6.6,3.1-1.1,5-.6,5.9,1.8l.6,1.5a9.82,9.82,0,0,1,.8,1.8,3.38,3.38,0,0,1,.1,2,10.69,10.69,0,0,1-1.9,3.3c-1.4,2-2.7,3.8-4.1,5.7-6.7,9-15,19.9-20.7,27.5a84.65,84.65,0,0,0-4.8,7.2c-.2.5-.2.9.3.9s.9-.2,2.6-1.5c.7-.6,1.2-1.1,1.9-1.8s1.2-1.2,1.9-1.8c1.8-1.7,3.7-3.5,5.4-5.3a417,417,0,0,0,31.6-35.9c8-10,11.8-14.3,16.4-15.6s7.9,1.8,7,6.5c-.5,2.4-1,4-5.1,13.2-6.1,13.7-10.9,24.3-15.4,35.6-1.9,4.9-3.2,8.7-3.7,10.6-.2.8.1,1.2.4,1.3.7.1,1.1-.4,2.3-2.3l1.8-2.7c.9-1.4,1.9-2.9,2.7-4.4,11-18,17.4-29.1,26.4-44,10.3-17.7,15.1-25.2,19.7-26.3,2.1-.6,3.8.5,5.3,3,.7,1,1.2,2.2,1.9,3.3.6.7,1,1.2,1.6,1.9a8.08,8.08,0,0,1,.8,3.4c-.2,1.6-.8,3-2.3,5.9-1.1,1.9-2.3,3.7-3.5,5.5-15.8,25.5-32.7,54.6-53.4,84.8-3.8,5.6-7,9.9-9.4,12.8-3.7,4.6-6.5,5.6-10.5,4.2-1.9-.7-3-1.6-4.6-3.9-3.1-4.1-3.9-5.3-5.1-6.3-4.7-4.5-5.1-5.7-3.7-10.3,2.1-6.9,9.4-23.2,14.3-32.9.5-.9,1-2,1.5-3a6.11,6.11,0,0,0,.5-1.2,2.51,2.51,0,0,0,.4-.7c.1-.3,0-.5-.4-.5s-.8.3-1.9,1.5c-2.2,2.4-6.4,7-10,10.9-6.2,6.6-13.2,13.2-17.3,16.8a140.67,140.67,0,0,1-11.3,9.4c-3.5,2.6-6.7,3.1-9.9,1.8a12.65,12.65,0,0,1-4.6-3c-1.1-1.2-2.3-2.3-3.4-3.6l-3.8-3.5c-2.4-2.3-2.8-3.4-1.3-5.9a63.32,63.32,0,0,1,4.6-6.1c5.3-6.4,8.6-10.1,14-16.3,6.7-7.7,13.9-16.4,19.1-22.7,1.9-2.3,3.8-4.7,5.5-7.1a18.46,18.46,0,0,0,2.9-4.6A15.24,15.24,0,0,0,640.2,246.4Z" transform="translate(-474.82 -83.49)"/><path class="e0446b36-3b82-4dea-94cd-9f62c9590f8d" d="M814.3,232c-2.6-3.1-3.8-5.7-3.8-8.6-.1-4.3,1.5-8.2,4.7-11.9,7-8.4,15.4-13.2,23.7-13.5,15.3-.5,29.1,20.6,32,47.1,2.5,24.6-4.4,47.2-20.4,61.9-5.8,5.4-7.9,8.2-7.8,10.3a13.33,13.33,0,0,0,.5,1.9c.3,1.1.8,3,2.5,9.4.5,1.9.9,4.1,1.5,6.3,3.6,14,8.3,24,13.3,28.7a4.12,4.12,0,0,1,1.9,3c.6,6.3-7.2,13.7-14.2,13.4-7.6-.3-11.8-6.9-17.5-27.7-3.5-13-6.4-22.7-8.4-29-1-3-1.8-4.4-2.8-4.4-1.4-.1-1.7,1-3.8,12.8-3.6,18.9-4.4,22.9-4.3,26.9a24.28,24.28,0,0,0,.5,4c.4,1.7.7,3.5,1,5.2a4,4,0,0,1,.2,1.3c.1,3.8-6.3,7.4-11.7,6.8-3.8-.5-6-2.6-9.6-8.8-2.6-5-3.3-6.7-3.3-9.3,0-5,2.6-18.6,7-38.8,2.9-13.4,6.1-27.6,10.1-43.8,3.6-14.9,6.9-30.3,9.1-39.3l.6-2.4A2.85,2.85,0,0,0,814.3,232Zm21.1,4.1c-2.1,8-3.4,14.5-7,30.4-2,9.6-3.2,14.2-4.1,19a16.82,16.82,0,0,0-.4,3.3c0,1.1.4,1.6,1.4,1.6,1.5,0,6.8-3.8,10.7-8.1,11.4-12,17.6-27.5,16.5-39.8-.6-7.1-4.4-12.1-9.1-12-2.8,0-5.3,1.5-7.6,3.9A8.48,8.48,0,0,1,835.4,236.1Z" transform="translate(-474.82 -83.49)"/><path class="e0446b36-3b82-4dea-94cd-9f62c9590f8d" d="M908.8,208.3c.8,1.3,1.5,2.5,2.3,3.8.7,1,1.3,2.1,2,3a10,10,0,0,1,1.3,3.5,17.71,17.71,0,0,1,.1,2.3c-.1,1.5,0,.8-2,10.6-.8,3.8-2.1,10.5-2.8,14.1-.2.9-.3,1.9-.5,2.8a6.41,6.41,0,0,0-.2,2.6,1.13,1.13,0,0,0,.8,1.1c.5,0,.8-.5,1.7-2.1,1.7-3.4,7.6-14.2,10.3-19.1,13.1-22.2,14.5-23.7,18.6-23,2.2.5,4.6,2.7,6.8,5.8,1,1.5,2,3,3,4.4.4.6,1.4,1.9,3.1,3.9,1.4,1.9,2.3,3.3,2.5,4.5.5,1.9-.1,3.5-2.3,5.8-4.3,4.8-11.7,14.2-15.9,20.2-5.3,7.8-11.1,17.7-13,22.9-1.2,3.1-1.2,6-.1,13,1.7,9.9,9,37.4,13.6,50.2,3.8,10.6,6,14.5,10.2,17.3,1.5,1.1,2.2,1.8,2.3,2.8.3,1.5-.5,4.5-2,7.4-2.5,4.6-6.3,7.7-10.1,8.3-7.9,1.2-14.2-5.6-18.9-20.6-4.6-14.2-7.6-27.8-10.9-48.6-.5-2.6-.8-5.2-1.3-7.8-1-5.9-1.6-7.8-2.4-7.7s-.8.3-1.7,8.6c-.6,4.6-.9,9.5-1.9,20.4-1.6,16.9-2.6,29-2.8,33.9a61.74,61.74,0,0,0,.1,9.9,34.08,34.08,0,0,0,.9,4.6,35.79,35.79,0,0,1,1.1,3.5,9,9,0,0,0,.2,1.3c.4,3-4.3,6.9-8.8,7.1-4.2.2-5.8-.3-9.3-3.5a20.23,20.23,0,0,1-7-14.1c-.5-4.7-.1-10.4,1-22.8,1.8-19.2,4.5-38.8,7.7-60.6,2.5-17.2,5.9-40.8,7.5-50.6a47.75,47.75,0,0,0,.8-14.6c-.5-3.5-.5-4.5,0-5.5,1.1-3.8,4.6-6.7,8-6.3C903.8,201.8,906.5,204.2,908.8,208.3Z" transform="translate(-474.82 -83.49)"/><path class="65c1fc1d-ef49-4e8d-80b4-1c5c80f1cc05" d="M765.7,345.8a17.76,17.76,0,0,1-5,4.8c-2.3,1.5-4,2.2-5.2,2.2-.3,0-.7-.4-1.3-1.2a3.54,3.54,0,0,0-1.5-1.5,1.27,1.27,0,0,0-.6-.1,57.9,57.9,0,0,0-10.2,0,87.9,87.9,0,0,0-24.9,5.6c-7.2-8.5-11.1-13.1-11.7-13.9-4.4-5.4-6.2-8.8-5.6-10.2l54.2-120.6c.3-.7,1.9-1.3,4.7-1.8s4.6-.4,5.6.2a31.08,31.08,0,0,1,5.5,5.4c2.6,3,4.9,5,7,6,2.7,1.2,7,1.4,12.6.5,5.3-1,8.3-1,9.1-.1,1.8,1.8,3.8,6.1,6,12.8s3,11.2,2.5,13.4c-.2,1-1.8,2.3-4.8,3.8s-5,2-6.2,1.5a4.17,4.17,0,0,1-2-1.5c-.3-.5-.6-.8-.8-.8a81.21,81.21,0,0,0-10.6-1.1c-8-.4-14.3.5-19.1,2.6l-11.8,26.1a90.14,90.14,0,0,1,15.1-.3c1.6.4,3.6,4.2,6,11.3s3.3,11.6,2.4,13.5c-.5,1.2-1.8,2.3-3.8,3.3a10.35,10.35,0,0,1-5.1,1.4c-.9-.4-2.6-1-4.9-1.8-3.8-.8-11.5-.1-23,2L731,324a138.18,138.18,0,0,1,14.2-1.8q8.85-.75,10.5,0c1.3.6,3.5,4.3,6.5,11.3S766.4,344.5,765.7,345.8Z" transform="translate(-474.82 -83.49)"/><path class="e0446b36-3b82-4dea-94cd-9f62c9590f8d" d="M573.8,361.2a5.56,5.56,0,0,1,.4-.8c.8-1.6,5.7-4.9,10.2-6.6,3.1-1.1,5-.6,5.9,1.8l.6,1.5a9.82,9.82,0,0,1,.8,1.8,3.38,3.38,0,0,1,.1,2,10.69,10.69,0,0,1-1.9,3.3c-1.4,2-2.7,3.8-4.1,5.7-6.7,9-15,19.9-20.7,27.5a84.65,84.65,0,0,0-4.8,7.2c-.2.5-.2.9.3.9s.9-.2,2.6-1.5c.7-.6,1.2-1.1,1.9-1.8s1.2-1.2,1.9-1.8c1.8-1.7,3.7-3.5,5.4-5.3A417,417,0,0,0,604,359.2c8-10,11.8-14.3,16.4-15.6s7.9,1.8,7,6.5c-.5,2.4-1,4-5.1,13.2-6.1,13.7-10.9,24.3-15.4,35.6-1.9,4.9-3.2,8.7-3.7,10.6-.2.8.1,1.2.4,1.3.7.1,1.1-.4,2.3-2.3l1.8-2.7c.9-1.4,1.9-2.9,2.7-4.4,11-18,17.4-29.1,26.4-44,10.3-17.7,15.1-25.2,19.7-26.3,2.1-.6,3.8.5,5.3,3,.7,1,1.2,2.2,1.9,3.3.6.7,1,1.2,1.6,1.9a8.08,8.08,0,0,1,.8,3.4c-.2,1.6-.8,3-2.3,5.9-1.1,1.9-2.3,3.7-3.5,5.5-15.8,25.5-32.7,54.6-53.4,84.8-3.8,5.6-7,9.9-9.4,12.8-3.7,4.6-6.5,5.6-10.5,4.2-1.9-.7-3-1.6-4.6-3.9-3.1-4.1-3.9-5.3-5.1-6.3-4.7-4.5-5.1-5.7-3.7-10.3,2.1-6.9,9.4-23.2,14.3-32.9.5-.9,1-2,1.5-3a6.11,6.11,0,0,0,.5-1.2,2.51,2.51,0,0,0,.4-.7c.1-.3,0-.5-.4-.5s-.8.3-1.9,1.5c-2.2,2.4-6.4,7-10,10.9-6.2,6.6-13.2,13.2-17.3,16.8a140.67,140.67,0,0,1-11.3,9.4c-3.5,2.6-6.7,3.1-9.9,1.8a12.65,12.65,0,0,1-4.6-3c-1.1-1.2-2.3-2.3-3.4-3.6l-3.8-3.5c-2.4-2.3-2.8-3.4-1.3-5.9a63.32,63.32,0,0,1,4.6-6.1c5.3-6.4,8.6-10.1,14-16.3,6.7-7.7,13.9-16.4,19.1-22.7,1.9-2.3,3.8-4.7,5.5-7.1a18.46,18.46,0,0,0,2.9-4.6A10.24,10.24,0,0,0,573.8,361.2Z" transform="translate(-474.82 -83.49)"/><path class="e0446b36-3b82-4dea-94cd-9f62c9590f8d" d="M747.9,346.7c-2.6-3.1-3.8-5.7-3.8-8.6-.1-4.3,1.5-8.2,4.7-11.9,7-8.4,15.4-13.2,23.7-13.5,15.3-.5,29.1,20.6,32,47.1,2.5,24.6-4.4,47.2-20.4,61.9-5.8,5.4-7.9,8.2-7.8,10.3a13.33,13.33,0,0,0,.5,1.9c.3,1.1.8,3,2.5,9.4.5,1.9.9,4.1,1.5,6.3,3.6,14,8.3,24,13.3,28.7a4.12,4.12,0,0,1,1.9,3c.6,6.3-7.2,13.7-14.2,13.4-7.6-.3-11.8-6.9-17.5-27.7-3.5-13-6.4-22.7-8.4-29-1-3-1.8-4.4-2.8-4.4-1.4-.1-1.7,1-3.8,12.8-3.6,18.9-4.4,22.9-4.3,26.9a24.28,24.28,0,0,0,.5,4c.4,1.7.7,3.5,1,5.2a4,4,0,0,1,.2,1.3c.1,3.8-6.3,7.4-11.7,6.8-3.8-.5-6-2.6-9.6-8.8-2.6-5-3.3-6.7-3.3-9.3,0-5,2.6-18.6,7-38.8,2.9-13.4,6.1-27.6,10.1-43.8,3.6-14.9,6.9-30.3,9.1-39.3l.6-2.4C748.9,347.8,748.4,347.2,747.9,346.7Zm21.2,4.2c-2.1,8-3.4,14.5-7,30.4-2,9.6-3.2,14.2-4.1,19a16.82,16.82,0,0,0-.4,3.3c0,1.1.4,1.6,1.4,1.6,1.5,0,6.8-3.8,10.7-8.1,11.4-12,17.6-27.5,16.5-39.8-.6-7.1-4.4-12.1-9.1-12-2.8,0-5.3,1.5-7.6,3.9A10.46,10.46,0,0,0,769.1,350.9Z" transform="translate(-474.82 -83.49)"/><path class="e0446b36-3b82-4dea-94cd-9f62c9590f8d" d="M842.5,323.1c.8,1.3,1.5,2.5,2.3,3.8.7,1,1.3,2.1,2,3a10,10,0,0,1,1.3,3.5,17.71,17.71,0,0,1,.1,2.3c-.1,1.5,0,.8-2,10.6-.8,3.8-2.1,10.5-2.8,14.1-.2.9-.3,1.9-.5,2.8a6.41,6.41,0,0,0-.2,2.6,1.13,1.13,0,0,0,.8,1.1c.5,0,.8-.5,1.7-2.1,1.7-3.4,7.6-14.2,10.3-19.1,13.1-22.2,14.5-23.7,18.6-23,2.2.5,4.6,2.7,6.8,5.8,1,1.5,2,3,3,4.4.4.6,1.4,1.9,3.1,3.9,1.4,1.9,2.3,3.3,2.5,4.5.5,1.9-.1,3.5-2.3,5.8-4.3,4.8-11.7,14.2-15.9,20.2-5.3,7.8-11.1,17.7-13,22.9-1.2,3.1-1.2,6-.1,13,1.7,9.9,9,37.4,13.6,50.2,3.8,10.6,6,14.5,10.2,17.3,1.5,1.1,2.2,1.8,2.3,2.8.3,1.5-.5,4.5-2,7.4-2.5,4.6-6.3,7.7-10.1,8.3-7.9,1.2-14.2-5.6-18.9-20.6-4.6-14.2-7.6-27.8-10.9-48.6-.5-2.6-.8-5.2-1.3-7.8-1-5.9-1.6-7.8-2.4-7.7s-.8.3-1.7,8.6c-.6,4.6-.9,9.5-1.9,20.4-1.6,16.9-2.6,29-2.8,33.9a61.74,61.74,0,0,0,.1,9.9,34.08,34.08,0,0,0,.9,4.6,35.79,35.79,0,0,1,1.1,3.5,9,9,0,0,0,.2,1.3c.4,3-4.3,6.9-8.8,7.1-4.2.2-5.8-.3-9.3-3.5a20.23,20.23,0,0,1-7-14.1c-.5-4.7-.1-10.4,1-22.8,1.8-19.2,4.5-38.8,7.7-60.6,2.5-17.2,5.9-40.8,7.5-50.6a47.75,47.75,0,0,0,.8-14.6c-.5-3.5-.5-4.5,0-5.5,1.1-3.8,4.6-6.7,8-6.3C837.5,316.5,840.2,319,842.5,323.1Z" transform="translate(-474.82 -83.49)"/><path class="65c1fc1d-ef49-4e8d-80b4-1c5c80f1cc05" d="M699.3,460.5a17.76,17.76,0,0,1-5,4.8c-2.3,1.5-4,2.2-5.2,2.2-.3,0-.7-.4-1.3-1.2a3.54,3.54,0,0,0-1.5-1.5,1.27,1.27,0,0,0-.6-.1,57.9,57.9,0,0,0-10.2,0,87.9,87.9,0,0,0-24.9,5.6c-7.2-8.5-11.1-13.1-11.7-13.9-4.4-5.4-6.2-8.8-5.6-10.2l54.2-120.6c.3-.7,1.9-1.3,4.7-1.8s4.6-.4,5.6.2a31.08,31.08,0,0,1,5.5,5.4c2.6,3,4.9,5,7,6,2.7,1.2,7,1.4,12.6.5,5.3-1,8.3-1,9.1-.1,1.8,1.8,3.8,6.1,6,12.8s3,11.2,2.5,13.4c-.2,1-1.8,2.3-4.8,3.8s-5,2-6.2,1.5a4.17,4.17,0,0,1-2-1.5c-.3-.5-.6-.8-.8-.8a81.21,81.21,0,0,0-10.6-1.1c-8-.4-14.3.5-19.1,2.6l-11.8,26.1a90.14,90.14,0,0,1,15.1-.3c1.6.4,3.6,4.2,6,11.3s3.3,11.6,2.4,13.5c-.5,1.2-1.8,2.3-3.8,3.3a10.35,10.35,0,0,1-5.1,1.4c-.9-.4-2.6-1-4.9-1.8-3.8-.8-11.5-.1-23,2l-7.6,16.8a138.18,138.18,0,0,1,14.2-1.8q8.85-.75,10.5,0c1.3.6,3.5,4.3,6.5,11.3C698.9,455.2,700.1,459.3,699.3,460.5Z" transform="translate(-474.82 -83.49)"/><path class="e0446b36-3b82-4dea-94cd-9f62c9590f8d" d="M636.6,476a5.56,5.56,0,0,1,.4-.8c.8-1.6,5.7-4.9,10.2-6.6,3.1-1.1,5-.6,5.9,1.8l.6,1.5a9.82,9.82,0,0,1,.8,1.8,3.38,3.38,0,0,1,.1,2,10.69,10.69,0,0,1-1.9,3.3c-1.4,2-2.7,3.8-4.1,5.7-6.7,9-15,19.9-20.7,27.5a84.65,84.65,0,0,0-4.8,7.2c-.2.5-.2.9.3.9s.9-.2,2.6-1.5c.7-.6,1.2-1.1,1.9-1.8s1.2-1.2,1.9-1.8c1.8-1.7,3.7-3.5,5.4-5.3A417,417,0,0,0,666.8,474c8-10,11.8-14.3,16.4-15.6s7.9,1.8,7,6.5c-.5,2.4-1,4-5.1,13.2-6.1,13.7-10.9,24.3-15.4,35.6-1.9,4.9-3.2,8.7-3.7,10.6-.2.8.1,1.2.4,1.3.7.1,1.1-.4,2.3-2.3l1.8-2.7c.9-1.4,1.9-2.9,2.7-4.4,11-18,17.4-29.1,26.4-44,10.3-17.7,15.1-25.2,19.7-26.3,2.1-.6,3.8.5,5.3,3,.7,1,1.2,2.2,1.9,3.3.6.7,1,1.2,1.6,1.9a8.08,8.08,0,0,1,.8,3.4c-.2,1.6-.8,3-2.3,5.9-1.1,1.9-2.3,3.7-3.5,5.5-15.8,25.5-32.7,54.6-53.4,84.8-3.8,5.6-7,9.9-9.4,12.8-3.7,4.6-6.5,5.6-10.5,4.2-1.9-.7-3-1.6-4.6-3.9-3.1-4.1-3.9-5.3-5.1-6.3-4.7-4.5-5.1-5.7-3.7-10.3,2.1-6.9,9.4-23.2,14.3-32.9.5-.9,1-2,1.5-3a6.11,6.11,0,0,0,.5-1.2,2.51,2.51,0,0,0,.4-.7c.1-.3,0-.5-.4-.5s-.8.3-1.9,1.5c-2.2,2.4-6.4,7-10,10.9-6.2,6.6-13.2,13.2-17.3,16.8a140.67,140.67,0,0,1-11.3,9.4c-3.5,2.6-6.7,3.1-9.9,1.8a12.65,12.65,0,0,1-4.6-3c-1.1-1.2-2.3-2.3-3.4-3.6l-3.8-3.5c-2.4-2.3-2.8-3.4-1.3-5.9a63.31,63.31,0,0,1,4.6-6.1c5.3-6.4,8.6-10.1,14-16.3,6.7-7.7,13.9-16.4,19.1-22.7,1.9-2.3,3.8-4.7,5.5-7.1a18.46,18.46,0,0,0,2.9-4.6A17.26,17.26,0,0,0,636.6,476Z" transform="translate(-474.82 -83.49)"/><path class="e0446b36-3b82-4dea-94cd-9f62c9590f8d" d="M810.7,461.5c-2.6-3.1-3.8-5.7-3.8-8.6-.1-4.3,1.5-8.2,4.7-11.9,7-8.4,15.4-13.2,23.7-13.5,15.3-.5,29.1,20.6,32,47.1,2.5,24.6-4.4,47.2-20.4,61.9-5.8,5.4-7.9,8.2-7.8,10.3a13.33,13.33,0,0,0,.5,1.9c.3,1.1.8,3,2.5,9.4.5,1.9.9,4.1,1.5,6.3,3.6,14,8.3,24,13.3,28.7a4.12,4.12,0,0,1,1.9,3c.6,6.3-7.2,13.7-14.2,13.4-7.6-.3-11.8-6.9-17.5-27.7-3.5-13-6.4-22.7-8.4-29-1-3-1.8-4.4-2.8-4.4-1.4-.1-1.7,1-3.8,12.8-3.6,18.9-4.4,22.9-4.3,26.9a24.28,24.28,0,0,0,.5,4c.4,1.7.7,3.5,1,5.2a4,4,0,0,1,.2,1.3c.1,3.8-6.3,7.4-11.7,6.8-3.8-.5-6-2.6-9.6-8.8-2.6-5-3.3-6.7-3.3-9.3,0-5,2.6-18.6,7-38.8,2.9-13.4,6.1-27.6,10.1-43.8,3.6-14.9,6.9-30.3,9.1-39.3l.6-2.4A3.29,3.29,0,0,0,810.7,461.5Zm21.1,4.1c-2.1,8-3.4,14.5-7,30.4-2,9.6-3.2,14.2-4.1,19a16.82,16.82,0,0,0-.4,3.3c0,1.1.4,1.6,1.4,1.6,1.5,0,6.8-3.8,10.7-8.1,11.4-12,17.6-27.5,16.5-39.8-.6-7.1-4.4-12.1-9.1-12-2.8,0-5.3,1.5-7.6,3.9A7.09,7.09,0,0,1,831.8,465.6Z" transform="translate(-474.82 -83.49)"/><path class="e0446b36-3b82-4dea-94cd-9f62c9590f8d" d="M905.2,437.9c.8,1.3,1.5,2.5,2.3,3.8.7,1,1.3,2.1,2,3a10,10,0,0,1,1.3,3.5,17.71,17.71,0,0,1,.1,2.3c-.1,1.5,0,.8-2,10.6-.8,3.8-2.1,10.5-2.8,14.1-.2.9-.3,1.9-.5,2.8a6.41,6.41,0,0,0-.2,2.6,1.13,1.13,0,0,0,.8,1.1c.5,0,.8-.5,1.7-2.1,1.7-3.4,7.6-14.2,10.3-19.1,13.1-22.2,14.5-23.7,18.6-23,2.2.5,4.6,2.7,6.8,5.8,1,1.5,2,3,3,4.4.4.6,1.4,1.9,3.1,3.9,1.4,1.9,2.3,3.3,2.5,4.5.5,1.9-.1,3.5-2.3,5.8-4.3,4.8-11.7,14.2-15.9,20.2-5.3,7.8-11.1,17.7-13,22.9-1.2,3.1-1.2,6-.1,13,1.7,9.9,9,37.4,13.6,50.2,3.8,10.6,6,14.5,10.2,17.3,1.5,1.1,2.2,1.8,2.3,2.8.3,1.5-.5,4.5-2,7.4-2.5,4.6-6.3,7.7-10.1,8.3-7.9,1.2-14.2-5.6-18.9-20.6-4.6-14.2-7.6-27.8-10.9-48.6-.5-2.6-.8-5.2-1.3-7.8-1-5.9-1.6-7.8-2.4-7.7s-.8.3-1.7,8.6c-.6,4.6-.9,9.5-1.9,20.4-1.6,16.9-2.6,29-2.8,33.9a61.74,61.74,0,0,0,.1,9.9,34.07,34.07,0,0,0,.9,4.6,35.79,35.79,0,0,1,1.1,3.5,9,9,0,0,0,.2,1.3c.4,3-4.3,6.9-8.8,7.1-4.2.2-5.8-.3-9.3-3.5a20.23,20.23,0,0,1-7-14.1c-.5-4.7-.1-10.4,1-22.8,1.8-19.2,4.5-38.8,7.7-60.6,2.5-17.2,5.9-40.8,7.5-50.6a47.75,47.75,0,0,0,.8-14.6c-.5-3.5-.5-4.5,0-5.5,1.1-3.8,4.6-6.7,8-6.3C900.2,431.3,903,433.7,905.2,437.9Z" transform="translate(-474.82 -83.49)"/><path class="65c1fc1d-ef49-4e8d-80b4-1c5c80f1cc05" d="M762.1,575.3a17.76,17.76,0,0,1-5,4.8c-2.3,1.5-4,2.2-5.2,2.2-.3,0-.7-.4-1.3-1.2a3.54,3.54,0,0,0-1.5-1.5,1.27,1.27,0,0,0-.6-.1,57.9,57.9,0,0,0-10.2,0,87.9,87.9,0,0,0-24.9,5.6c-7.2-8.5-11.1-13.1-11.7-13.9-4.4-5.4-6.2-8.8-5.6-10.2l54.2-120.6c.3-.7,1.9-1.3,4.7-1.8s4.6-.4,5.6.2a31.08,31.08,0,0,1,5.5,5.4c2.6,3,4.9,5,7,6,2.7,1.2,7,1.4,12.6.5,5.3-1,8.3-1,9.1-.1,1.8,1.8,3.8,6.1,6,12.8s3,11.2,2.5,13.4c-.2,1-1.8,2.3-4.8,3.8s-5,2-6.2,1.5a4.17,4.17,0,0,1-2-1.5c-.3-.5-.6-.8-.8-.8a81.21,81.21,0,0,0-10.6-1.1c-8-.4-14.3.5-19.1,2.6L748,507.4a90.14,90.14,0,0,1,15.1-.3c1.6.4,3.6,4.2,6,11.3s3.3,11.6,2.4,13.5c-.5,1.2-1.8,2.3-3.8,3.3a10.35,10.35,0,0,1-5.1,1.4c-.9-.4-2.6-1-4.9-1.8-3.8-.8-11.5-.1-23,2l-7.6,16.8a138.18,138.18,0,0,1,14.2-1.8q8.85-.75,10.5,0c1.3.6,3.5,4.3,6.5,11.3C761.7,570,762.8,574.1,762.1,575.3Z" transform="translate(-474.82 -83.49)"/><path class="e0446b36-3b82-4dea-94cd-9f62c9590f8d" d="M523.6,596.1a5.55,5.55,0,0,1,.4-.8c.8-1.6,5.7-4.9,10.2-6.6,3.1-1.1,5-.6,5.9,1.8l.6,1.5a9.82,9.82,0,0,1,.8,1.8,3.38,3.38,0,0,1,.1,2,10.69,10.69,0,0,1-1.9,3.3c-1.4,2-2.7,3.8-4.1,5.7-6.7,9-15,19.9-20.7,27.5a84.65,84.65,0,0,0-4.8,7.2c-.2.5-.2.9.3.9s.9-.2,2.6-1.5c.7-.6,1.2-1.1,1.9-1.8s1.2-1.2,1.9-1.8c1.8-1.7,3.7-3.5,5.4-5.3a417,417,0,0,0,31.6-35.9c8-10,11.8-14.3,16.4-15.6s7.9,1.8,7,6.5c-.5,2.4-1,4-5.1,13.2-6.1,13.7-10.9,24.3-15.4,35.6-1.9,4.9-3.2,8.7-3.7,10.6-.2.8.1,1.2.4,1.3.7.1,1.1-.4,2.3-2.3l1.8-2.7c.9-1.4,1.9-2.9,2.7-4.4,11-18,17.4-29.1,26.4-44,10.3-17.7,15.1-25.2,19.7-26.3,2.1-.6,3.8.5,5.3,3,.7,1,1.2,2.2,1.9,3.3.6.7,1,1.2,1.6,1.9a8.08,8.08,0,0,1,.8,3.4c-.2,1.6-.8,3-2.3,5.9-1.1,1.9-2.3,3.7-3.5,5.5-15.8,25.5-32.7,54.6-53.4,84.8-3.8,5.6-7,9.9-9.4,12.8-3.7,4.6-6.5,5.6-10.5,4.2-1.9-.7-3-1.6-4.6-3.9-3.1-4.1-3.9-5.3-5.1-6.3-4.7-4.5-5.1-5.7-3.7-10.3,2.1-6.9,9.4-23.2,14.3-32.9.5-.9,1-2,1.5-3a6.11,6.11,0,0,0,.5-1.2,2.51,2.51,0,0,0,.4-.7c.1-.3,0-.5-.4-.5s-.8.3-1.9,1.5c-2.2,2.4-6.4,7-10,10.9-6.2,6.6-13.2,13.2-17.3,16.8a140.67,140.67,0,0,1-11.3,9.4c-3.5,2.6-6.7,3.1-9.9,1.8a12.65,12.65,0,0,1-4.6-3c-1.1-1.2-2.3-2.3-3.4-3.6l-3.8-3.5c-2.4-2.3-2.8-3.4-1.3-5.9a63.3,63.3,0,0,1,4.6-6.1c5.3-6.4,8.6-10.1,14-16.3,6.7-7.7,13.9-16.4,19.1-22.7,1.9-2.3,3.8-4.7,5.5-7.1a18.46,18.46,0,0,0,2.9-4.6A12.84,12.84,0,0,0,523.6,596.1Z" transform="translate(-474.82 -83.49)"/><path class="e0446b36-3b82-4dea-94cd-9f62c9590f8d" d="M697.7,581.6c-2.6-3.1-3.8-5.7-3.8-8.6-.1-4.3,1.5-8.2,4.7-11.9,7-8.4,15.4-13.2,23.7-13.5,15.3-.5,29.1,20.6,32,47.1,2.5,24.6-4.4,47.2-20.4,61.9-5.8,5.4-7.9,8.2-7.8,10.3a13.33,13.33,0,0,0,.5,1.9c.3,1.1.8,3,2.5,9.4.5,1.9.9,4.1,1.5,6.3,3.6,14,8.3,24,13.3,28.7a4.12,4.12,0,0,1,1.9,3c.6,6.3-7.2,13.7-14.2,13.4-7.6-.3-11.8-6.9-17.5-27.7-3.5-13-6.4-22.7-8.4-29-1-3-1.8-4.4-2.8-4.4-1.4-.1-1.7,1-3.8,12.8-3.6,18.9-4.4,22.9-4.3,26.9a24.28,24.28,0,0,0,.5,4c.4,1.7.7,3.5,1,5.2a4,4,0,0,1,.2,1.3c.1,3.8-6.3,7.4-11.7,6.8-3.8-.5-6-2.6-9.6-8.8-2.6-5-3.3-6.7-3.3-9.3,0-5,2.6-18.6,7-38.8,2.9-13.4,6.1-27.6,10.1-43.8,3.6-14.9,6.9-30.3,9.1-39.3l.6-2.4C698.7,582.7,698.2,582.1,697.7,581.6Zm21.1,4.2c-2.1,8-3.4,14.5-7,30.4-2,9.6-3.2,14.2-4.1,19a16.82,16.82,0,0,0-.4,3.3c0,1.1.4,1.6,1.4,1.6,1.5,0,6.8-3.8,10.7-8.1,11.4-12,17.6-27.5,16.5-39.8-.6-7.1-4.4-12.1-9.1-12-2.8,0-5.3,1.5-7.6,3.9A10.47,10.47,0,0,1,718.8,585.8Z" transform="translate(-474.82 -83.49)"/><path class="e0446b36-3b82-4dea-94cd-9f62c9590f8d" d="M792.2,558c.8,1.3,1.5,2.5,2.3,3.8.7,1,1.3,2.1,2,3a10,10,0,0,1,1.3,3.5,17.71,17.71,0,0,1,.1,2.3c-.1,1.5,0,.8-2,10.6-.8,3.8-2.1,10.5-2.8,14.1-.2.9-.3,1.9-.5,2.8a6.41,6.41,0,0,0-.2,2.6,1.13,1.13,0,0,0,.8,1.1c.5,0,.8-.5,1.7-2.1,1.7-3.4,7.6-14.2,10.3-19.1,13.1-22.2,14.5-23.7,18.6-23,2.2.5,4.6,2.7,6.8,5.8,1,1.5,2,3,3,4.4.4.6,1.4,1.9,3.1,3.9,1.4,1.9,2.3,3.3,2.5,4.5.5,1.9-.1,3.5-2.3,5.8-4.3,4.8-11.7,14.2-15.9,20.2-5.3,7.8-11.1,17.7-13,22.9-1.2,3.1-1.2,6-.1,13,1.7,9.9,9,37.4,13.6,50.2,3.8,10.6,6,14.5,10.2,17.3,1.5,1.1,2.2,1.8,2.3,2.8.3,1.5-.5,4.5-2,7.4-2.5,4.6-6.3,7.7-10.1,8.3-7.9,1.2-14.2-5.6-18.9-20.6-4.6-14.2-7.6-27.8-10.9-48.6-.5-2.6-.8-5.2-1.3-7.8-1-5.9-1.6-7.8-2.4-7.7s-.8.3-1.7,8.6c-.6,4.6-.9,9.5-1.9,20.4-1.6,16.9-2.6,29-2.8,33.9a61.74,61.74,0,0,0,.1,9.9,34.07,34.07,0,0,0,.9,4.6,35.79,35.79,0,0,1,1.1,3.5,9,9,0,0,0,.2,1.3c.4,3-4.3,6.9-8.8,7.1-4.2.2-5.8-.3-9.3-3.5a20.23,20.23,0,0,1-7-14.1c-.5-4.7-.1-10.4,1-22.8,1.8-19.2,4.5-38.8,7.7-60.6,2.5-17.2,5.9-40.8,7.5-50.6a47.75,47.75,0,0,0,.8-14.6c-.5-3.5-.5-4.5,0-5.5,1.1-3.8,4.6-6.7,8-6.3C787.3,551.4,790,553.9,792.2,558Z" transform="translate(-474.82 -83.49)"/><path class="65c1fc1d-ef49-4e8d-80b4-1c5c80f1cc05" d="M649.1,695.4a17.76,17.76,0,0,1-5,4.8c-2.3,1.5-4,2.2-5.2,2.2-.3,0-.7-.4-1.3-1.2a3.54,3.54,0,0,0-1.5-1.5,1.27,1.27,0,0,0-.6-.1,57.9,57.9,0,0,0-10.2,0,87.9,87.9,0,0,0-24.9,5.6c-7.2-8.5-11.1-13.1-11.7-13.9-4.4-5.4-6.2-8.8-5.6-10.2l54.2-120.6c.3-.7,1.9-1.3,4.7-1.8s4.6-.4,5.6.2a31.08,31.08,0,0,1,5.5,5.4c2.6,3,4.9,5,7,6,2.7,1.2,7,1.4,12.6.5,5.3-1,8.3-1,9.1-.1,1.8,1.8,3.8,6.1,6,12.8s3,11.2,2.5,13.4c-.2,1-1.8,2.3-4.8,3.8s-5,2-6.2,1.5a4.17,4.17,0,0,1-2-1.5c-.3-.5-.6-.8-.8-.8a81.21,81.21,0,0,0-10.6-1.1c-8-.4-14.3.5-19.1,2.6L635,627.5a90.14,90.14,0,0,1,15.1-.3c1.6.4,3.6,4.2,6,11.3s3.3,11.6,2.4,13.5c-.5,1.2-1.8,2.3-3.8,3.3a10.35,10.35,0,0,1-5.1,1.4c-.9-.4-2.6-1-4.9-1.8-3.8-.8-11.5-.1-23,2l-7.6,16.8a138.18,138.18,0,0,1,14.2-1.8q8.85-.75,10.5,0c1.3.6,3.5,4.3,6.5,11.3C648.7,690.1,649.9,694.2,649.1,695.4Z" transform="translate(-474.82 -83.49)"/></svg>