<svg id="74d3513a-93d9-4896-a5af-85629a7b839e" data-name="Calque 1" xmlns="http://www.w3.org/2000/svg" width="2708.4" height="1630.26" viewBox="0 0 2708.4 1630.26"><defs><style>.f0b8c59e-e1e1-4af5-b83a-f7cd0de82193,.f291f421-dfc2-41f3-8ce3-b90e43d31c1f{fill:#fff;}.\30 eecd140-b575-4a01-b9f6-1177c83fdd03,.bd21666c-c3d7-4f29-9851-640161d04a7a,.d28ce020-564e-4eb8-94cd-999704eb6796,.f0b8c59e-e1e1-4af5-b83a-f7cd0de82193,.f291f421-dfc2-41f3-8ce3-b90e43d31c1f{stroke:#000;}.\30 eecd140-b575-4a01-b9f6-1177c83fdd03,.bd21666c-c3d7-4f29-9851-640161d04a7a,.d28ce020-564e-4eb8-94cd-999704eb6796,.f291f421-dfc2-41f3-8ce3-b90e43d31c1f{stroke-miterlimit:10;}.bd21666c-c3d7-4f29-9851-640161d04a7a{fill:#1d1d1b;}.d28ce020-564e-4eb8-94cd-999704eb6796{fill:none;}</style></defs><title>work</title><path class="f291f421-dfc2-41f3-8ce3-b90e43d31c1f" d="M2759.8,597.8a127.47,127.47,0,0,0,9.9,24.7,108.38,108.38,0,0,0,54.5,48.7c11.6,4.6,24.3,7.4,33.8,15.5,5.1,4.3,8.9,9.9,13.8,14.5,10,9.4,23.6,13.8,36.8,17.5,14.7,4.1,29.9,7.8,45.2,7,18.4-1,35.8-8.4,52.8-15.7,14.6-6.3,31.7-16,31.7-32l1.8,1.1c29.1-.3,54.9-21.3,69.1-46.7s19.3-54.3,19.3-54.3l18.6-21.6c11.5-13.4,23.3-27.1,29.9-43.6a80.5,80.5,0,0,0,3.5-48.5c-1.6-6.6-4.6-13.6-10.7-16.4-8.1-3.7-17.2,1.4-24.6,6.4,13.2-73.8.9-163.5-42.1-224.9s-117.8-101.8-192.5-95.8c-67.4,5.4-129.5,48-163.7,106.3s-41.6,130.6-25.5,196.2l.5,1.8c-6.3-10-23-7.3-29.9,2.3s-6.6,22.4-5.2,34.1,3.9,24,11.6,33.1c8.3,9.8,21.8,14.5,28.9,25.2,8.2,12.3,5.7,28.5,8,43.2.9,5.7,2.7,11.4,6.5,15.8s9.8,7.1,15.4,5.7C2757.4,597.3,2759.4,596.2,2759.8,597.8Z" transform="translate(-474.82 502.88)"/><circle class="bd21666c-c3d7-4f29-9851-640161d04a7a" cx="2363.08" cy="890.48" r="6.2"/><circle class="bd21666c-c3d7-4f29-9851-640161d04a7a" cx="2560.08" cy="895.48" r="6.2"/><path class="d28ce020-564e-4eb8-94cd-999704eb6796" d="M3159,474.5c-1.6,6.4.7,13,2.3,19.4a88,88,0,0,1-.6,45" transform="translate(-474.82 502.88)"/><path class="d28ce020-564e-4eb8-94cd-999704eb6796" d="M3143.3,490.6a75.09,75.09,0,0,1,27.3-24.9" transform="translate(-474.82 502.88)"/><path class="d28ce020-564e-4eb8-94cd-999704eb6796" d="M2699.5,507.8c-1.2-12.7-2.5-25.5-3.7-38.2-.4-4-.8-8.1.6-11.9s4.8-7.1,8.8-6.9c2.6.2,4.9,1.7,7,3.2,4.2,3,8.4,6,12.6,9.1a15.31,15.31,0,0,1,4.3,4.1c2.5,4.2.2,9.7,1.8,14.3,2,5.9,9.1,8.1,15.2,9.4" transform="translate(-474.82 502.88)"/><path class="d28ce020-564e-4eb8-94cd-999704eb6796" d="M2711.5,471c4,4.8,4.7,11.4,5.2,17.6.8,9.2,1.6,18.5,2.4,27.7l.6,6.6" transform="translate(-474.82 502.88)"/><path class="0eecd140-b575-4a01-b9f6-1177c83fdd03" d="M2955.2,489.2a17.41,17.41,0,0,0,1.2-1.4c1.5-1.8,2.9-3.9,5-4.8a6.47,6.47,0,0,1,6.9,1.2,6.31,6.31,0,0,1,1.4,6.9c-5.5,1.1-10.1,1.5-14.7-1.7Z" transform="translate(-474.82 502.88)"/><path class="d28ce020-564e-4eb8-94cd-999704eb6796" d="M2930.1,497.9a29.64,29.64,0,0,0,25.1-8.7" transform="translate(-474.82 502.88)"/><path class="0eecd140-b575-4a01-b9f6-1177c83fdd03" d="M2896.9,491.2c1.2-4.4,4.4-8.5,8.8-9.5s9.7,1.8,10.3,6.3a1.42,1.42,0,0,1-.4,1.4,1.66,1.66,0,0,1-1.2,0c-5.4-1.3-10.1-1.1-15.5-2.5" transform="translate(-474.82 502.88)"/><path class="d28ce020-564e-4eb8-94cd-999704eb6796" d="M2961.5,501.2c4.5,1.6,9.3,2.9,13.9,1.6,6.6-1.8,10.7-8.4,13.3-14.8a30.91,30.91,0,0,0,2.3-7.7c.6-5.5-1.8-11-5.3-15.3s-8.1-7.6-12.7-10.7" transform="translate(-474.82 502.88)"/><path class="d28ce020-564e-4eb8-94cd-999704eb6796" d="M3028.1,379c13.6-1.6,27.2,3.8,38.4,11.6,6.4,4.5,11.4,10.4,13.6,18a106.4,106.4,0,0,1-54.6,1.1c-3.8-.9-7.5-2-11.2-3.1-9.7-2.9-19.3-5.7-29-8.6C2985.4,398,3012.1,380.8,3028.1,379Z" transform="translate(-474.82 502.88)"/><path class="d28ce020-564e-4eb8-94cd-999704eb6796" d="M2984.9,388.5a19.8,19.8,0,0,1,6.4-7.7,50.61,50.61,0,0,1,34.7-10.9,104.1,104.1,0,0,1,11.2,1.6l14.9,2.7" transform="translate(-474.82 502.88)"/><path class="d28ce020-564e-4eb8-94cd-999704eb6796" d="M2795,401.9c6,6.2,15,8.4,23.5,9a89.64,89.64,0,0,0,63.5-20.1c-3.5-2-6.6-4.8-9.8-7.2A53.14,53.14,0,0,0,2794,401Z" transform="translate(-474.82 502.88)"/><path class="d28ce020-564e-4eb8-94cd-999704eb6796" d="M2884.2,378.9c-7.2.6-12.2-6.8-17.9-11.3-6.8-5.3-16-6.8-24.5-5.8s-16.7,4.3-24.6,7.8c-8.3,3.7-17.1,8.1-21.2,16.3" transform="translate(-474.82 502.88)"/><path class="d28ce020-564e-4eb8-94cd-999704eb6796" d="M2977.8,363.8c-3.2.2-5.4,3.2-7.1,5.9-5.3,8.8-10,18-12.4,28s-2.1,20.8,2.2,30.1c3,6.5,7.8,12.1,9.5,19" transform="translate(-474.82 502.88)"/><path class="d28ce020-564e-4eb8-94cd-999704eb6796" d="M2912.2,423.4a141,141,0,0,0-4.3,29.5c-5.8,1.4-12,3-15.7,7.6a23.87,23.87,0,0,0-3.7,7.5c-1.9,5.8-3.3,11.9-2.3,18s5,11.8,10.8,13.6" transform="translate(-474.82 502.88)"/><path class="d28ce020-564e-4eb8-94cd-999704eb6796" d="M2895.4,364.7a62.77,62.77,0,0,1,9.7,16.1,11.26,11.26,0,0,1,1.1,4.8,10.1,10.1,0,0,1-2,4.5,35.62,35.62,0,0,1-7.6,7.9" transform="translate(-474.82 502.88)"/><path class="d28ce020-564e-4eb8-94cd-999704eb6796" d="M2978,346a77.25,77.25,0,0,1,10.8-14.7" transform="translate(-474.82 502.88)"/><path class="d28ce020-564e-4eb8-94cd-999704eb6796" d="M2986.1,348.6a55,55,0,0,1,14.7-15.7" transform="translate(-474.82 502.88)"/><path class="d28ce020-564e-4eb8-94cd-999704eb6796" d="M2996.9,347.8a55.62,55.62,0,0,1,21.9-19.2" transform="translate(-474.82 502.88)"/><path class="d28ce020-564e-4eb8-94cd-999704eb6796" d="M3012.3,341.3c2.4-4.1,6.4-7,10.7-9s9-2.9,13.6-3.9" transform="translate(-474.82 502.88)"/><path class="d28ce020-564e-4eb8-94cd-999704eb6796" d="M3029.6,339.4c2.6-4.2,8.2-5,13.1-5.5,7-.6,14-1.3,21-1.9" transform="translate(-474.82 502.88)"/><path class="d28ce020-564e-4eb8-94cd-999704eb6796" d="M3059.3,341.7a23.91,23.91,0,0,1,13.9-3,86.21,86.21,0,0,1,14.2,2.5" transform="translate(-474.82 502.88)"/><path class="d28ce020-564e-4eb8-94cd-999704eb6796" d="M3084.3,347.2a22.53,22.53,0,0,1,18.9,2.5" transform="translate(-474.82 502.88)"/><path class="d28ce020-564e-4eb8-94cd-999704eb6796" d="M3104.8,356.2a15.66,15.66,0,0,1,9.5,7.6" transform="translate(-474.82 502.88)"/><path class="d28ce020-564e-4eb8-94cd-999704eb6796" d="M2884.7,326.2c3.3,3.7,6.6,7.3,9.9,11,1.8,2,3.7,4.3,3.9,7" transform="translate(-474.82 502.88)"/><path class="d28ce020-564e-4eb8-94cd-999704eb6796" d="M2867.9,318.6c6.3,4.6,12.9,9.8,15.2,17.3" transform="translate(-474.82 502.88)"/><path class="d28ce020-564e-4eb8-94cd-999704eb6796" d="M2864.7,326.9a35.83,35.83,0,0,1,11.7,14.7" transform="translate(-474.82 502.88)"/><path class="d28ce020-564e-4eb8-94cd-999704eb6796" d="M2864.7,339.8l-8.7-8.7c-3.6-3.6-7.6-7.4-12.6-8.2" transform="translate(-474.82 502.88)"/><path class="d28ce020-564e-4eb8-94cd-999704eb6796" d="M2847.8,337c-7.5-3.7-12.6-12.2-20.9-13.7" transform="translate(-474.82 502.88)"/><path class="d28ce020-564e-4eb8-94cd-999704eb6796" d="M2828,333.4a3.9,3.9,0,0,1-3,0c-5.5-1.4-10.7-3.8-16.2-5.3s-11.5-2-16.7.2" transform="translate(-474.82 502.88)"/><path class="d28ce020-564e-4eb8-94cd-999704eb6796" d="M2827.4,314.4a88.35,88.35,0,0,0-18.5.6" transform="translate(-474.82 502.88)"/><path class="d28ce020-564e-4eb8-94cd-999704eb6796" d="M2793.6,336.1c-6.3-.2-12.3,3-16.8,7.3s-7.7,9.9-10.7,15.4c-.7,1.3-1.4,3.1-.4,4.2" transform="translate(-474.82 502.88)"/><path class="f291f421-dfc2-41f3-8ce3-b90e43d31c1f" d="M2864,582.9c-.3-6.9,5.6-11.5,11.1-15.7,8.7-6.6,14.4-16.3,22-24.1s19.2-13.7,29.3-9.5c4.5,1.9,8.5,5.6,13.3,5.7,6.4.1,10.9-6.1,16.7-8.6,7.9-3.5,17.2.1,23.8,5.5,15.2,12.5,23.5,31.9,35,47.3-8.5-10.7-23.4-13.7-34.6-21.5-5.4-3.8-10.5-8.9-17-9.2a35,35,0,0,0-7.9,1.1c-10.7,2-21.7.6-32.4-1.4-6.7-1.2-13.7-2.6-20.1-.5-7.2,2.4-12.3,8.7-17.6,14.1a109.89,109.89,0,0,1-21.6,16.8" transform="translate(-474.82 502.88)"/><path class="f291f421-dfc2-41f3-8ce3-b90e43d31c1f" d="M2864,582.9c6.6,9,8.5,16.2,26.5,26.1,8.8,4.9,18.1,10.3,28.2,9.9,2.4-.1,4.8-.5,7.2-.6,3.5,0,6.9.8,10.4,1.4,29.4,5,61.1-12.4,78.9-36.3-3.2,3.6-9.1,9.2-13.8,10.1-28.2,5.5-56.3,9.1-84.9,6.5-17.9-1.6-33.9-6.8-52.5-17.1" transform="translate(-474.82 502.88)"/><path class="d28ce020-564e-4eb8-94cd-999704eb6796" d="M2911,554.3a101.19,101.19,0,0,0,2.6,23.9c7.2,1.2,14.4,2.3,21.7,3.1a4.09,4.09,0,0,0,3.6-.7,3.67,3.67,0,0,0,.7-2.5c.6-8,1.1-15.5,1.7-23.5" transform="translate(-474.82 502.88)"/><path class="d28ce020-564e-4eb8-94cd-999704eb6796" d="M2967,553.3c1.2,7.9.7,18.4.2,26.4-4.9,1.8-10.2,2-15.4,1.9-11.3-.2-11.3-7-11.4-10.6" transform="translate(-474.82 502.88)"/><path class="d28ce020-564e-4eb8-94cd-999704eb6796" d="M2983.5,563.9c-.2,4.6-.7,11.5-.9,16.1a1.08,1.08,0,0,1-.2.8,1.14,1.14,0,0,1-.8.3,20.87,20.87,0,0,1-14.3-3.8" transform="translate(-474.82 502.88)"/><path class="d28ce020-564e-4eb8-94cd-999704eb6796" d="M2894.6,556.9c.9,6.1,2.8,13.6,3.7,19.7a6.05,6.05,0,0,0,1.1,2.9c.8.8,2,.8,3.2.9a13.6,13.6,0,0,0,6-.7c1.8-.8,5.1-1.7,4.6-3.7" transform="translate(-474.82 502.88)"/><path class="d28ce020-564e-4eb8-94cd-999704eb6796" d="M2884.1,567.4c0,4.1,2,9.9,3,13.9a2.47,2.47,0,0,0,.8,1.6,3,3,0,0,0,1.3.5,9.89,9.89,0,0,0,6.8-.6c2.1-1.1,2.8-3.4,2.5-5.7" transform="translate(-474.82 502.88)"/><path class="d28ce020-564e-4eb8-94cd-999704eb6796" d="M2874.8,575.5c.9,3.8,2.6,9.2,4,14.8" transform="translate(-474.82 502.88)"/><path class="d28ce020-564e-4eb8-94cd-999704eb6796" d="M2996.6,570.5c-.4,3.3-1.8,8.3-1.2,11.6-3.5.4-10.3.3-12.8-2.2" transform="translate(-474.82 502.88)"/><path class="d28ce020-564e-4eb8-94cd-999704eb6796" d="M2895.6,583.1c.7,3.3,1.5,9.5,2.3,12.8" transform="translate(-474.82 502.88)"/><path class="d28ce020-564e-4eb8-94cd-999704eb6796" d="M2913.7,578.2c-.5,5.2-.6,16.5.6,21.5" transform="translate(-474.82 502.88)"/><path class="d28ce020-564e-4eb8-94cd-999704eb6796" d="M2931.4,581.8c-.2,4.8.2,14.3,1.3,19" transform="translate(-474.82 502.88)"/><path class="d28ce020-564e-4eb8-94cd-999704eb6796" d="M2947.8,581.3c.1,5.2.5,14.1,1.2,19.2" transform="translate(-474.82 502.88)"/><path class="d28ce020-564e-4eb8-94cd-999704eb6796" d="M2960.8,581.4c-.3,4.2.4,14.1,1.7,18.1" transform="translate(-474.82 502.88)"/><path class="d28ce020-564e-4eb8-94cd-999704eb6796" d="M2974.6,580.5c.3,4.3,1.6,13.1,3.2,17.1" transform="translate(-474.82 502.88)"/><path class="d28ce020-564e-4eb8-94cd-999704eb6796" d="M2987.8,582c.2,4.2.8,9.7,2.3,13.7" transform="translate(-474.82 502.88)"/><path class="d28ce020-564e-4eb8-94cd-999704eb6796" d="M2995.4,582.1c4.9,3.2,13.7,3,18.8.2" transform="translate(-474.82 502.88)"/><path class="d28ce020-564e-4eb8-94cd-999704eb6796" d="M2919.1,653.6c9.7-3.6,19.9-7.3,30.1-5.8,4.6.7,9.2,2.4,13.7,1.2" transform="translate(-474.82 502.88)"/><path class="d28ce020-564e-4eb8-94cd-999704eb6796" d="M2981.6,439.1a132.07,132.07,0,0,0,19,29.4c3.6,4.3,7.6,8.4,10.9,12.9,7.2,10,11,21.9,14.8,33.6" transform="translate(-474.82 502.88)"/><path class="d28ce020-564e-4eb8-94cd-999704eb6796" d="M2891.1,441.7c-14.3,16.8-28.5,34.9-33,56.5" transform="translate(-474.82 502.88)"/><path class="d28ce020-564e-4eb8-94cd-999704eb6796" d="M2892.1,419.8a238.43,238.43,0,0,1-42.6,26.8c-8.5,4.2-17.4,7.9-25.3,13.1s-15.2,12.1-18.9,20.8" transform="translate(-474.82 502.88)"/><path class="d28ce020-564e-4eb8-94cd-999704eb6796" d="M3000.7,429.4c12.2,10.4,27.6,16,41.1,24.6a107.73,107.73,0,0,1,36,38.1" transform="translate(-474.82 502.88)"/><path class="d28ce020-564e-4eb8-94cd-999704eb6796" d="M3081,409a25.5,25.5,0,0,1,11.9,8,43.08,43.08,0,0,1,5.3,8.7c3.5,7,7.1,14.1,10.6,21.1" transform="translate(-474.82 502.88)"/><path class="d28ce020-564e-4eb8-94cd-999704eb6796" d="M2770.8,255.1c-4,26.6,14.7,53.9,6.5,79.5" transform="translate(-474.82 502.88)"/><path class="d28ce020-564e-4eb8-94cd-999704eb6796" d="M3090.8,263.6c14.9,19.5,28.1,41.4,30.8,65.8.9,8.3.6,16.6,1.4,24.9,2.8,27.3,18.2,52.7,17.5,80.1" transform="translate(-474.82 502.88)"/><path class="d28ce020-564e-4eb8-94cd-999704eb6796" d="M3016.8,401.5c3.5,6.9,11.7,10.2,19.4,8.8s14-6.9,15.6-14.5c.8-3.9.5-8.1-1.6-11.4-2.5-4-7.2-5-11.8-5.6s-9.9.4-14.6,1.1C3023.8,379.9,3009,386.3,3016.8,401.5Z" transform="translate(-474.82 502.88)"/><path class="d28ce020-564e-4eb8-94cd-999704eb6796" d="M2823.1,393.6a15.81,15.81,0,0,0,13.1,10.2,19.09,19.09,0,0,0,15.5-7,15.21,15.21,0,0,0,3.9-10.1c-.2-5.8-5-10.7-10.5-12.2S2815.9,373.8,2823.1,393.6Z" transform="translate(-474.82 502.88)"/><path class="d28ce020-564e-4eb8-94cd-999704eb6796" d="M2775.2,397c2.5,2.5,11.5,7.1,18.4,4.8" transform="translate(-474.82 502.88)"/><path class="d28ce020-564e-4eb8-94cd-999704eb6796" d="M2783.9,384a22.3,22.3,0,0,0,15.5,8.2" transform="translate(-474.82 502.88)"/><path class="d28ce020-564e-4eb8-94cd-999704eb6796" d="M2794.2,374.3a22,22,0,0,0,14.5,10.1" transform="translate(-474.82 502.88)"/><path class="d28ce020-564e-4eb8-94cd-999704eb6796" d="M2809.1,362.1c3.9,4.9,7.7,9.8,11.6,14.8" transform="translate(-474.82 502.88)"/><path class="d28ce020-564e-4eb8-94cd-999704eb6796" d="M2827.1,358.2a15.67,15.67,0,0,0,3.3,14.1" transform="translate(-474.82 502.88)"/><path class="d28ce020-564e-4eb8-94cd-999704eb6796" d="M2839.9,356.3a18.2,18.2,0,0,0,2.6,15.2" transform="translate(-474.82 502.88)"/><path class="d28ce020-564e-4eb8-94cd-999704eb6796" d="M2796.6,418.1a15.4,15.4,0,0,1,9.3-9.2" transform="translate(-474.82 502.88)"/><path class="d28ce020-564e-4eb8-94cd-999704eb6796" d="M2819.4,412.4a9.46,9.46,0,0,0-.5,11.6" transform="translate(-474.82 502.88)"/><path class="d28ce020-564e-4eb8-94cd-999704eb6796" d="M2827.8,411.9c1.3,3.5,2.6,7.1,3.9,10.6" transform="translate(-474.82 502.88)"/><path class="d28ce020-564e-4eb8-94cd-999704eb6796" d="M2841.9,410.1c1.6,3.2,3.2,6.4,4.7,9.6" transform="translate(-474.82 502.88)"/><path class="d28ce020-564e-4eb8-94cd-999704eb6796" d="M2853.4,408.3a14.14,14.14,0,0,0,5.2,8.5" transform="translate(-474.82 502.88)"/><path class="d28ce020-564e-4eb8-94cd-999704eb6796" d="M3019.7,379.6c1-3.2,2.1-6.3,3.1-9.5" transform="translate(-474.82 502.88)"/><path class="d28ce020-564e-4eb8-94cd-999704eb6796" d="M3038.3,378.8a16,16,0,0,0,7.4-14.5" transform="translate(-474.82 502.88)"/><path class="d28ce020-564e-4eb8-94cd-999704eb6796" d="M3059.7,385a26.47,26.47,0,0,0,12.1-10.1" transform="translate(-474.82 502.88)"/><path class="d28ce020-564e-4eb8-94cd-999704eb6796" d="M3071.7,392a16.26,16.26,0,0,0,9.9-7.3" transform="translate(-474.82 502.88)"/><path class="d28ce020-564e-4eb8-94cd-999704eb6796" d="M3090.2,391.3a15.09,15.09,0,0,1-12,10.9" transform="translate(-474.82 502.88)"/><path class="d28ce020-564e-4eb8-94cd-999704eb6796" d="M3060.9,370.9c-2.1,3.2-4.3,6.5-6.4,9.7" transform="translate(-474.82 502.88)"/><path class="d28ce020-564e-4eb8-94cd-999704eb6796" d="M3017.5,408.8a18.56,18.56,0,0,1,5,11.3" transform="translate(-474.82 502.88)"/><path class="d28ce020-564e-4eb8-94cd-999704eb6796" d="M3035,411.7a21.82,21.82,0,0,1,4.9,12.5" transform="translate(-474.82 502.88)"/><path class="d28ce020-564e-4eb8-94cd-999704eb6796" d="M3050.9,413.6a19.77,19.77,0,0,1,5.4,12.8" transform="translate(-474.82 502.88)"/><path class="d28ce020-564e-4eb8-94cd-999704eb6796" d="M3064.1,411.8a19.7,19.7,0,0,1,7.5,13.6" transform="translate(-474.82 502.88)"/><path class="d28ce020-564e-4eb8-94cd-999704eb6796" d="M3075.4,410.7c2.1,1.9,4.2,3.7,6.2,5.6" transform="translate(-474.82 502.88)"/><path class="d28ce020-564e-4eb8-94cd-999704eb6796" d="M2923.4,460.9c-1.1,4.2,1.5,8.8,5.3,10.8s8.5,1.8,12.6.5,7.8-3.8,11.4-6.2" transform="translate(-474.82 502.88)"/><path d="M1630.2-461.2c-.5-1.3-.8-2.2-1.1-3.1-2-5.8,9.6,1.2,23.7,13.5,9.5,8.3,18.8,19.4,27.5,32.9,1.8,2.8,3.6,5.5,5.3,8.3,2.2,3.3,4.3,6.5,6.4,9.8a35.36,35.36,0,0,1,4.1,7.9,10.32,10.32,0,0,1,0,6.5l-2.4,9.3c-4.1,14.6-6,38.1-5.3,58.6.6,8.8,1.4,17.5,2.3,21a8.65,8.65,0,0,0,2.4,4.3c1.2,1,1.8.7,3.3-1.8.4-1.3.8-2.5,1.2-3.8s.8-2.5,1.2-3.7c1.3-3.4,2.6-6.9,3.9-10.2,7.5-19.3,19-36.5,31.7-48.1,10.7-9,18.9-8.7,32.8.2s28.4,24.4,30.7,33.6c1.2,4.8,1,7.2-1.6,20.6a324.88,324.88,0,0,0-4.4,60.1c.4,9.4,1.1,17.1,2,21.3a5.58,5.58,0,0,0,2.2,3.6c1.6.9,2.1.2,3.2-2.8.5-1.5,1-3,1.5-4.4l2.4-6.9c9.5-27.8,17.1-41.1,30.6-56.6,15.8-18.3,26.7-22.3,40.7-16.5,6.3,2.6,12.7,7.3,18.5,13.6,2.6,2.8,5.2,5.5,7.7,8.3,2,1.8,4,3.5,5.9,5.3,2.1,2.3,3.7,4.8,4,6.5.4,2.4-.6,4-3.9,6.7-2.4,1.6-4.7,3.3-7,4.9-31.3,23.4-54.5,56-72.9,107.8-3.4,9.8-6,17.7-8.1,23.1-3.2,8.7-7.3,10.5-15.4,6.3-3.7-2-6.5-4.5-11.3-10.6-9-11-11.7-14.3-14.6-17.4-12.6-13.4-14.7-17.3-17.2-29.4-3.9-18.6-8.6-59.1-9.6-80.2-.1-2.2-.2-4.3-.3-6.5-.1-1-.3-1.9-.4-2.9.3-.1.1-.9,0-1.3a3.28,3.28,0,0,0-1.5-2c-.8-.6-1.4-.3-2.6,1.5a195.62,195.62,0,0,0-8.5,19.1,348.65,348.65,0,0,0-11.8,37.1c-2.2,8.6-4.3,17.3-6.5,26.2-2,8-6.1,9.7-12.7,4.9a53.09,53.09,0,0,1-11.1-11.1c-3.5-4.6-7-9.2-10.5-13.9-3.7-4.7-7.5-9.6-11.3-14.4-7.4-9.7-10.2-15-13-26.6-1.6-6.5-3-14.7-5.4-27.7-4.8-27.9-6.9-43.1-9.9-65.7-3.7-28.4-6.4-54.9-6.6-70.3-.2-5.9-.4-11.8-.6-17.6a35.82,35.82,0,0,0-2.1-12.6C1634.9-450.3,1633.1-454.6,1630.2-461.2Z" transform="translate(-474.82 502.88)"/><path d="M2060.7-249.9c1.4,7.1,2.3,8.5,7.6,12.7,14,11.3,16,14.7,15.9,25.7-.4,27.4-16.1,61.2-41.7,93.7-29.4,37.6-61.7,55.3-92.7,47.9-29.7-6.9-54.8-41-60.5-77.1-4.1-27.4,2.7-53,23-76.7,17.4-19.7,41.2-32.7,72.9-42.8,17.6-5.5,33.8-8.9,43.8-8.1C2043.2-273.3,2058.9-261.5,2060.7-249.9ZM1953.2-109.6c15.6,3.8,38-12.9,59.1-42.3,15.4-22,28.1-49.7,27.7-64-.3-8.8-4.3-13.8-11.7-14.5-12.6-1.1-32.5,7.7-50.6,21.8-27.5,22.2-43.6,55.3-40.9,78.7C1938-119.7,1944.5-111.7,1953.2-109.6Z" transform="translate(-474.82 502.88)"/><path d="M2143.6-235.9c-6.7-2.9-9.6-5.8-9.3-9.3.3-5.2,5.5-10.4,15.7-16.2,22.2-13,48.9-24.3,74.3-32.5,47.3-15.2,76.8-7.4,69.2,27.7-6.8,32-36,73.1-77.6,103.4-15.2,11.1-20.6,15.5-20.9,18.3,0,.3.3.9.5,2.1s1.2,3.3,3,10.3c.5,2.1,1,4.6,1.5,7.1,3.9,15.6,10.9,25.5,19.9,28.4,2.5.6,3.1,1.4,2.9,2.7-1,8-18.7,22.1-32.3,25.2-15.1,3.5-21.8-2.8-29.8-26a276.72,276.72,0,0,0-12.9-32.1c-1.7-3.3-3.2-4.7-5.5-4.3-3.1.5-4.1,1.9-10.3,16.9-10.1,24.2-12,29.5-12.3,34.4a14.7,14.7,0,0,0,.6,4.8c.5,2,1.1,4,1.6,6a3.64,3.64,0,0,1,.3,1.6c-.2,4.6-13.4,11-24.1,11.6-7.4.4-11.8-1.7-18.8-8.7-5.2-5.7-6.7-7.7-6.7-10.9,0-6.1,5.2-23.5,15.8-49a512.84,512.84,0,0,1,27-55.7c10.3-19,21.7-39,29.5-50.9.7-1.1,1.3-2.1,2-3.2A12.89,12.89,0,0,0,2143.6-235.9Zm57.2-6.4c-8.1,11.5-13.9,20.8-27.2,42.5-7.4,12.9-11.1,19.1-14.5,25.6a14.32,14.32,0,0,0-1.6,4.2c-.1,1.3.6,1.8,3.1,1.4,3.6-.7,17-7.9,27.9-15.8,31-22,53.7-48.8,56.3-64.2,1.5-9-7-11.5-20.1-7.2a82.81,82.81,0,0,0-22.4,11.3A21,21,0,0,0,2200.8-242.3Z" transform="translate(-474.82 502.88)"/><path d="M2431.3-396.7c1.1.6,2.1,1.3,3.2,1.9,1,.3,2.1.7,3.1,1,.8.6,1.1,1.9.6,3.6a31.61,31.61,0,0,1-2,4.3c-1.6,3-.9,1.7-16.1,25.2-6.2,9.3-15.6,24.2-20.5,32.1-1.3,2-2.5,4.1-3.8,6.1a23,23,0,0,0-2.8,5.1c-.3,1.2.4,1,1.3.4,1.3-.9,2.8-2.5,6.4-7,7.3-9,33.8-42.1,47.5-59.8,64-81.7,76-99.5,87.7-110.2,6.8-6.6,12-9.7,14.5-8.7,1.2.5,2.3,1,3.5,1.5.6,0,2,.1,4.2.2,1.9.1,2.3,1.5,1.4,3.9-1.3,3.7-5.8,10.8-16,24.6-21.3,29-55.1,73.4-72.8,96-23.6,30.5-47.6,61.3-57.2,74.7-5.8,8.2-8.3,13.4-11.1,24.3-4,15.2-8,53.7-7.7,71.3.3,14.4,2,19,8.3,19.4,2.2.3,3,.8,2.7,2.5-.5,2.5-4.2,8.9-9.1,15.7-8.1,11-17.3,19.9-25,24.5-15.8,9.3-24.2,3.8-25.2-15.2-1.2-17.9.4-36.1,6.3-65.5.7-3.6,1.4-7.2,2.1-10.9,1.5-8.2,1.4-10.4-.7-9.2s-2.2,1.6-9.6,16.2c-4.2,8-8.2,16.3-16.8,34.2-13.4,27.8-21.5,46.4-24.2,53.8a76.64,76.64,0,0,0-4.5,14.3,25.39,25.39,0,0,0-.3,5.9c.2,1.4.5,2.7.7,4.1a16.45,16.45,0,0,1-.3,1.8c-.7,4.1-11.8,13.5-20.6,17.1-8.5,3.5-11.3,3.8-17,2-7.4-2.6-10-6.7-9-14,.9-6,3.7-14,11.2-31.8,12-27.9,27-57.7,47.5-94.2,15.7-28.3,41.2-71.2,53.4-90.5,8.7-13.6,11.3-18.8,13.6-25.9,1.4-4.9,2.3-6.8,4.5-9.5,6.5-8.9,20.1-21.7,30.6-29.2C2421.9-396.8,2428.2-399,2431.3-396.7Z" transform="translate(-474.82 502.88)"/><path d="M1715.9-142.1c-.3-1.3-.4-2.2-.6-3.1-1.1-5.8,8.6-4,19.9,3.3,7.6,4.9,14.7,13.4,21,24.9,1.3,2.4,2.6,4.7,3.9,7.1,1.6,2.8,3.1,5.5,4.7,8.2a28.45,28.45,0,0,1,2.9,7.2,15,15,0,0,1-.7,7.4c-1.1,3.9-2.1,7.8-3.2,11.7-5.2,18.5-9.9,46.5-11.9,69.8-.6,9.8-1,19.4-.6,22.8.2,1.7.7,3.2,1.7,3.6s1.6-.1,3.4-3.8c.5-1.6,1.1-3.3,1.6-4.9s1.1-3.3,1.6-4.9c1.6-4.6,3.3-9.1,4.9-13.6,9.3-25.6,21.6-50.2,33.8-67.9,10.2-14,17.1-16.4,28.3-11.2s22.3,17.9,23.6,27c.7,4.8.4,7.4-2.9,22.5a545.75,545.75,0,0,0-9.1,65.9c-.5,10-.7,18.1-.3,22.2.2,1.9.9,2.9,1.6,3.1,1.3.4,1.9-.5,3.2-4.1.6-1.8,1.2-3.5,1.7-5.3.9-2.7,1.8-5.5,2.7-8.2,10.9-32.8,18.5-49.1,31-68.8,14.5-23,23.6-29.1,34.8-25.8,5.1,1.5,10.1,5.3,14.5,10.8l6,7.2c1.5,1.5,3.1,3,4.6,4.5,1.6,2.1,2.9,4.3,3,6,.2,2.4-.7,4.1-3.5,7.4-2,2-4,4.1-6,6.1-27.1,29.2-49.1,69-70.8,129.8-4,11.5-7.3,20.7-9.8,27.3-3.9,10.3-7.9,13.8-15,12.3-3.2-.7-5.6-2.3-9.4-7-7.2-8.2-9.3-10.7-11.7-12.8-10.2-9.2-11.7-12.5-12.6-24.6-1.3-18.6-.8-61.1.6-83.9.2-2.3.3-4.7.5-7v-3c.3-.3.2-1.1.1-1.5a1.86,1.86,0,0,0-1.2-1.6c-.7-.3-1.3.2-2.6,2.7-2.3,5.1-6.5,15.3-10,24.9-5.9,16-12.3,35.4-15.8,46.9-3.2,10.6-6.5,21.5-9.8,32.6-3.1,10-7.3,14.1-13.1,12.4a19,19,0,0,1-9.3-6.2c-2.8-3.2-5.5-6.3-8.3-9.6-3-3.2-6-6.3-9-9.6-5.9-6.5-7.8-10.8-8.8-22.4-.6-6.5-.7-15.1-1.1-28.7-.5-29.5-.3-46,.2-70.9.5-31.2,1.6-61.2,3.5-79.5.6-6.9,1.1-13.8,1.7-20.6a42,42,0,0,0-.4-13.8C1718.9-131.7,1717.7-135.9,1715.9-142.1Z" transform="translate(-474.82 502.88)"/><path d="M2061.8-15.1c1.1,7.1,1.8,8.4,6.1,12.6,11.4,11.3,13,14.7,13,25.7-.2,27.3-12.8,60.4-34.9,93.5-25.4,38.3-54.8,59.1-82,56.6-26.2-2.2-46.2-31-48.5-67.1-1.6-27.2,6.2-55.6,24.3-83.2,15.5-23,35.5-39.2,61.3-51.7,14.3-6.8,27.3-10.9,35.3-10.4C2047.8-38.2,2060.3-26.7,2061.8-15.1Zm-92.7,147.8c13.4,1.5,33.6-17.9,52-48.5,13.5-22.9,24.1-50.8,23.8-65-.1-8.7-3.4-13.7-9.4-14-10.2-.6-26.5,9.2-41.9,25-23.2,24.8-38.8,61.2-37.7,84.5C1956.3,124.8,1961.5,131.8,1969.1,132.7Z" transform="translate(-474.82 502.88)"/><path d="M2129,1.3c-5.5-3.3-7.9-6.3-7.7-9.9.2-5.2,4.3-10.1,12.4-15.2a197.14,197.14,0,0,1,59.2-25.1c37.7-9.1,62.8,6.4,58.8,41.3-3.6,31.9-25.6,67-59.7,90.7-12.4,8.7-16.9,12.5-17,15.2,0,.3.3,1,.6,2.2s1.2,3.5,3.1,10.8c.6,2.2,1.1,4.8,1.6,7.4,4.2,16.4,10.9,27.6,19.1,32.3,2.2,1.1,2.8,2,2.8,3.4-.3,7.9-15.2,18.7-27.2,19.7-13.3,1.2-19.5-6-27.4-30.2-4.8-14.9-9.1-26.3-12.2-33.5-1.6-3.4-2.8-5-4.8-4.8-2.6.2-3.4,1.6-8.3,16.1-8.1,23.4-9.7,28.6-9.8,33.4a23.31,23.31,0,0,0,.6,4.8c.5,2,1,4,1.5,6.1a3.64,3.64,0,0,1,.3,1.6c-.1,4.5-11.5,10.1-20.8,10.3-6.5.1-10.3-2.1-16.5-9.1-4.5-5.7-5.8-7.7-5.8-10.9,0-6.1,4.5-23.4,13.3-48.6A579.37,579.37,0,0,1,2107,54.8c8.2-18.5,17.2-37.7,23.3-49,.5-1,1-2.1,1.5-3.1A10.49,10.49,0,0,1,2129,1.3Zm46.5-.9c-6.3,10.6-10.7,19.3-21,39.7-5.7,12.2-8.7,18-11.3,24.2a15.64,15.64,0,0,0-1.2,4c-.1,1.3.6,1.9,2.6,1.7,3-.3,14-6.2,22.8-12.8,25.2-18.2,42.7-41.3,44.1-56.7.8-8.9-6.4-13-17-10.6a48.34,48.34,0,0,0-18,8.3A10.74,10.74,0,0,1,2175.5.4Z" transform="translate(-474.82 502.88)"/><path d="M2359.2-105.1c1,1.1,2,2.3,3,3.4.9.8,1.9,1.6,2.8,2.4a5.47,5.47,0,0,1,.9,4.3,26.35,26.35,0,0,1-1.3,4c-1.1,2.8-.6,1.5-11.7,21.5-4.5,7.8-11.3,20.6-14.9,27.4-.9,1.8-1.8,3.5-2.7,5.3a16.25,16.25,0,0,0-1.9,4.5c-.2,1.2.5,1.3,1.2.9,1-.5,2.2-1.7,5-5.2,5.5-7.2,25.7-33.1,36.1-46.8,48.4-63.3,57.3-77,66.8-83.1,5.5-3.9,9.9-4.4,12.4-1.6l3.5,4.1c.5.4,1.9,1.4,4,3a5.33,5.33,0,0,1,1.9,5.8c-.7,3.7-4,9.4-11.8,19.6-16.1,21.5-41.9,54.5-55.4,71.5-17.9,23-36.3,46.6-43.5,57.3-4.4,6.5-6,11.4-7.3,22.2-1.9,15.2-1.1,55.8,1.5,75.4,2.2,16,4.3,21.8,10.4,25.3,2.1,1.4,3,2.4,2.9,4.1-.2,2.5-2.8,7.8-6.6,12.8-6.3,8.2-13.9,13.6-20.7,15.1-13.9,3.1-22.4-6-25.5-26.7-3.1-19.6-3.6-38.5-1.3-68,.3-3.7.5-7.3.8-11,.5-8.3.2-10.7-1.5-10.1s-1.8,1-7,14.1c-3,7.2-5.7,14.6-11.7,30.9-9.3,25.2-14.9,42.2-16.6,49.1a70.75,70.75,0,0,0-2.8,13.6,36.4,36.4,0,0,0,.3,6.1c.3,1.5.7,3,1,4.5,0,.7-.1,1.5-.1,1.8-.2,4.1-9.5,10.4-17.3,11.6-7.4,1.2-10,.8-15.3-2.6-6.9-4.6-9.6-9.4-9.2-16.7.3-5.9,2.3-13.5,7.5-30.1,8.4-25.9,19.3-53.1,34.1-85.8,11.4-25.5,29.9-63.6,38.7-80.6,6.4-11.9,8.1-16.7,9.5-23.6.8-4.9,1.4-6.6,3.1-8.8,4.9-7.5,15.5-17,23.8-21.4C2351.1-108.9,2356.3-108.9,2359.2-105.1Z" transform="translate(-474.82 502.88)"/><path d="M1752.8,179c-.1-1.3-.1-2.2-.1-3.1-.3-5.8,9.1-9.3,19.1-7.1,6.8,1.5,12.5,7.2,17,16.7.9,2,1.9,3.9,2.8,5.8,1.2,2.3,2.3,4.5,3.4,6.7a18.25,18.25,0,0,1,1.8,6.4,23.07,23.07,0,0,1-1.7,8.4c-1.6,4.7-3.1,9.4-4.7,14.2-7.7,22.6-16.5,55.2-22.1,81.3-2.1,10.8-4,21.3-4.1,24.7,0,1.7.2,3,1.2,2.9s1.6-1,4-5.8c.8-2,1.6-4.1,2.4-6.1s1.6-4,2.4-6.1c2.4-5.8,4.7-11.4,7-17.1,13.2-32.2,28.7-64.3,42.7-88.3,11.5-19.2,18.3-24.3,28.3-22.9s19,11.2,19.2,20.3c.1,4.8-.4,7.6-5.2,24.5-6.9,25.7-11.9,47.8-16.4,72-1.7,10.6-2.9,19-3,23.2,0,1.9.6,2.6,1.2,2.6,1.3-.1,2-1.2,3.6-5.5.8-2,1.6-4.1,2.4-6.1,1.2-3.2,2.5-6.3,3.7-9.5,14.6-37.9,23.5-57.3,37.2-81.3,15.7-27.9,24.3-36.2,34.3-35.3,4.5.5,8.8,3.3,12.4,8,1.7,2.1,3.3,4.1,4.9,6.2,1.3,1.2,2.6,2.5,3.9,3.7a10.66,10.66,0,0,1,2.3,5.6c0,2.4-.9,4.3-3.7,8.2-2,2.5-4,4.9-6,7.4-27.1,35.2-51.9,82.4-81.1,152.4-5.5,13.2-10,23.9-13.3,31.5-5.3,12.1-9.9,17.1-17.1,18.5-3.3.7-5.5,0-8.8-3.2-6.4-5.3-8.2-6.9-10.4-8.1-9.3-4.9-10.4-7.5-9.6-19.6,1.3-18.6,7.7-63.2,12.2-87.9.5-2.5.9-5.1,1.4-7.6.1-1.1.2-2.1.4-3.2a3,3,0,0,0,.3-1.6q0-1.2-.9-1.2c-.6,0-1.3.8-2.9,4-3,6.4-8.6,19.1-13.5,30.8-8.2,19.6-17.7,43.2-23,57.1-4.9,12.8-9.9,25.8-15.1,39.1-4.8,12.1-9.8,18.6-15.7,20.1-3.6,1-6.7.5-8.8-1.1l-7.2-5.1c-2.6-1.5-5.3-3.1-7.9-4.7-5.2-3.2-6.5-6.5-5.6-18.2.5-6.5,1.7-15.6,3.5-29.7,4.3-31.2,7.2-49,11.7-76.3,5.6-34.2,11.4-67.7,16.1-88.9q2.55-12,4.8-23.7c1.4-6.4,1.9-10.2,1.7-15.1A113.12,113.12,0,0,0,1752.8,179Z" transform="translate(-474.82 502.88)"/><path d="M2061,219.6c1,7,1.6,8.3,5.5,12.5,10.2,11.2,11.8,14.7,11.8,25.6,0,27.2-11.4,59.7-33.4,93.4-25.2,39.1-56.3,63.1-83.8,65.8-26.6,2.7-44.4-20.6-43.2-56.7.8-27.1,11.2-58.3,30.3-89.9,16.2-26.3,35.3-46,58.9-60.9,13.1-8.2,24.6-13,31.7-12.8C2048.8,196.8,2059.7,208.1,2061,219.6Zm-92.1,155.6c13.3-.8,34.4-23.1,52.8-55,13.6-23.9,23.7-52,23.7-66.1,0-8.7-2.9-13.5-8.3-13.6-9.3-.1-24.2,10.8-39.2,28.5-22.5,27.5-40.2,67.4-40.8,90.6C1956.8,369.6,1961.5,375.6,1968.9,375.2Z" transform="translate(-474.82 502.88)"/><path d="M2121.8,238.2c-5.1-3.8-7.3-6.9-7.3-10.5,0-5.2,3.6-9.7,10.7-14.2a115.13,115.13,0,0,1,52-17.6c33.2-2.9,57.7,20.2,57.3,54.8-.4,31.9-18.1,60.9-49.5,78-11.4,6.4-15.5,9.5-15.5,12.2a18.73,18.73,0,0,0,.7,2.3c.3,1.3,1.3,3.7,3.7,11.4.7,2.3,1.4,5,2.1,7.7,5.2,17.2,12.8,29.7,21.4,36.2,2.3,1.6,3,2.6,3.1,4,.3,7.8-14,15.4-26.1,14.3-13.4-1.1-20.3-9.2-29.2-34.3-5.5-15.5-10.1-27.3-13.4-34.8-1.6-3.6-2.9-5.2-4.9-5.3-2.6-.1-3.2,1.2-7.6,15.3-7.2,22.7-8.7,27.7-8.7,32.5a23.08,23.08,0,0,0,.7,4.8c.6,2,1.1,4.1,1.7,6.1a3.87,3.87,0,0,1,.3,1.6c.1,4.5-11.3,9.2-20.8,9.1-6.5-.1-10.5-2.4-16.7-9.4-4.6-5.7-5.9-7.7-5.9-10.8,0-6.1,4.6-23.3,12.8-48.1,5.4-16.6,11.8-33.8,20-53.4,7.3-18,15-36.4,20.2-47.2.4-1,.9-2,1.3-2.9Q2123.15,239.25,2121.8,238.2Zm42.5,4.6c-5.2,9.7-8.8,17.8-17.4,36.8-4.8,11.5-7.3,17-9.5,22.8a13.54,13.54,0,0,0-.9,3.9c0,1.3.6,1.9,2.6,2,2.9,0,13.1-4.5,21-9.7,22.9-14.4,37.6-33.8,37.7-49.1.1-8.8-6.9-14.5-16.5-14a31.56,31.56,0,0,0-16,5.4A11.38,11.38,0,0,0,2164.3,242.8Z" transform="translate(-474.82 502.88)"/><path d="M2325.7,186.8c1.1,1.7,2.2,3.3,3.3,5l3,3.9a9.26,9.26,0,0,1,1.4,5,12.28,12.28,0,0,1-.8,3.7c-.7,2.5-.4,1.4-8.5,17.8-3.4,6.4-8.3,17-11,22.7-.7,1.5-1.3,3-2,4.4a9.61,9.61,0,0,0-1.3,4c0,1.2.6,1.5,1.3,1.5,1-.1,1.9-.9,4.2-3.4,4.5-5.3,20.8-23.9,29-33.7,38.6-44.7,45.2-54.2,53.8-55.6,4.8-1.1,9.2.9,12.1,5.7,1.4,2.2,2.8,4.5,4.1,6.8.6.8,2.1,2.7,4.5,5.9,2.1,2.8,3,5.4,2.9,7.7-.1,3.7-2.5,7.9-8.8,14.5-12.9,13.9-33.7,35.3-44.7,46.7-14.5,15.3-29.5,31.7-35.2,39.8-3.5,4.9-4.4,9.3-4.2,20.1.1,15.1,6.6,57.9,12,79.3,4.5,17.6,7.6,24.6,14.4,31.2,2.4,2.5,3.5,4,3.6,5.6.2,2.5-1.8,6.6-5,9.9a21.1,21.1,0,0,1-19.5,5.7c-14.1-3.1-24.1-15.8-29.9-38.3-5.7-21.4-8.5-40.9-10-70.5-.2-3.7-.4-7.3-.6-11-.5-8.4-1.2-11-2.8-11s-1.6.4-5.2,11.9c-2.1,6.3-3.9,13-7.9,27.5-6.3,22.5-10.1,37.9-11,44.3a63.58,63.58,0,0,0-1.3,12.8,34.69,34.69,0,0,0,1,6.3c.5,1.6,1.1,3.3,1.6,4.9,0,.7.1,1.5.1,1.8.2,4-8.6,7.3-16.5,6.1-7.5-1.1-10.2-2.2-16-7.2-7.5-6.5-10.7-12-11-19.3-.3-5.9,1-13,4.7-28.3,5.9-23.9,13.9-48.4,24.9-77.3,8.4-22.6,21.8-55.8,28.3-70.4,4.7-10.2,5.8-14.5,6.3-21.3.2-4.9.5-6.5,1.9-8.2,3.7-6.2,12.6-12.2,20-13.5C2317.5,179.2,2322.5,181.4,2325.7,186.8Z" transform="translate(-474.82 502.88)"/><path d="M1741.8,499.9c.1-1.3.2-2.2.3-3.1.6-5.8,11.1-14.7,21.3-17.7,6.9-2.1,12.1,1,15.5,8.4.7,1.5,1.4,3.1,2.1,4.6.9,1.7,1.8,3.4,2.7,5.2a10.59,10.59,0,0,1,1,5.6,31.17,31.17,0,0,1-3,9.3c-2.3,5.5-4.7,11.1-7.1,16.7-11.5,26.7-25.8,64.1-35.8,92.8-3.9,11.8-7.5,23.2-8.1,26.7-.3,1.7-.2,2.8.9,2.3s1.9-1.8,5.2-7.9c1.2-2.4,2.3-4.9,3.5-7.3s2.3-4.8,3.5-7.2c3.4-6.9,6.8-13.8,10.1-20.6,19.1-38.8,40.3-78.6,58.3-108.9,14.8-24.5,22.5-32.4,32.8-34.8s18.5,4.3,17.7,13.5c-.4,4.8-1.3,7.8-8.3,26.5-10.4,28.3-18.5,52.3-26.4,78.2-3.2,11.2-5.5,20-6.1,24.2-.3,1.9.3,2.4,1,2.1,1.4-.6,2.3-2,4.7-6.8,1.1-2.3,2.2-4.7,3.3-7,1.7-3.6,3.5-7.2,5.2-10.8,20.4-43.1,32.2-65.7,49.2-94.1,19.5-32.8,29-43.5,39.3-45,4.6-.7,8.8,1.2,12.2,5.1,1.5,1.7,3.1,3.4,4.6,5.1,1.3.9,2.5,1.9,3.8,2.8a8,8,0,0,1,2,5.1c-.1,2.4-1.2,4.5-4.5,9l-6.9,8.7c-31.4,41.3-62.9,96-103.7,175.5-7.6,14.9-13.9,27.1-18.6,35.9-7.4,13.8-13.2,20.5-21.5,24.8-3.8,2-6.2,2.3-9.6.6-6.6-2.3-8.4-3.1-10.7-3.2-9.9-.5-10.7-2.4-8.3-14.6,3.9-18.6,17-65.3,25.2-91.9.9-2.7,1.7-5.5,2.6-8.2.3-1.1.6-2.2.8-3.3a4.36,4.36,0,0,0,.6-1.7c.1-.8-.2-1-.9-.7s-1.5,1.4-3.7,5.3c-4.1,7.7-12,22.9-19,36.8-11.8,23.3-25.5,51.1-33.4,67.3q-10.8,22.35-22.4,45.8c-7,14.2-13.6,23.1-20.5,28-4.2,3-7.6,4.4-9.8,4.1l-7.3-.6c-2.7.1-5.4.2-8.1.4-5.3.1-6.2-2.2-3.5-13.9,1.5-6.6,4.3-16,8.4-30.8,9.5-32.8,15.4-52.1,24.6-81.7,11.4-37.1,22.9-74.3,31.2-98.4,3-9,6-17.9,8.8-26.8,2.5-7.3,3.6-11.5,4.2-16.3A98.47,98.47,0,0,0,1741.8,499.9Z" transform="translate(-474.82 502.88)"/><path d="M2059.8,451.8c1,7,1.6,8.3,5.6,12.4,10.7,11.1,12.4,14.7,12.5,25.5.1,27.1-11.8,58.9-37.1,93.5-28.9,40-66.4,67.3-98.3,75.3-31,7.7-49.5-10.1-44.8-46.1,3.4-26.9,17.9-60.9,40.8-96.7,19.4-29.8,40.8-53,65.8-70.5,13.8-9.7,25.7-15.2,33-15.4C2047.4,429.3,2058.5,440.4,2059.8,451.8ZM1954,615.7c15.1-3.3,40.4-28.4,61.7-61.7,15.8-25,27.1-53.3,27.3-67.4.1-8.6-2.8-13.3-8.5-13.1-9.8.4-25.7,12.5-42.6,32.1-25.3,30.3-47.8,73.8-50.2,96.9C1940.7,612.5,1945.5,617.5,1954,615.7Z" transform="translate(-474.82 502.88)"/><path d="M2123.5,472.5c-5.5-4.2-7.9-7.5-8-11-.1-5.1,3.5-9.4,10.7-13.2a92.43,92.43,0,0,1,52.7-10.3c33.8,3.2,61.4,33.9,64.6,68.2,2.8,31.8-13.5,54.9-47.2,65.4-12.2,4.1-16.6,6.6-16.4,9.2a16.75,16.75,0,0,0,.9,2.4c.5,1.4,1.7,3.9,4.9,12,.9,2.5,1.9,5.2,2.8,8,6.9,17.9,16.4,31.8,26.7,40,2.8,2,3.6,3.3,3.8,4.6,1,7.8-15,12.1-29.1,8.9-15.5-3.4-24-12.3-35.3-38.4-6.9-16.1-12.6-28.3-16.6-36.1-2-3.7-3.5-5.5-5.6-5.7-2.9-.3-3.5.9-8,14.5-7.4,21.9-9.2,26.9-9,31.7a22.75,22.75,0,0,0,.9,4.8c.7,2.1,1.4,4.1,2.1,6.2a3,3,0,0,1,.4,1.6c.2,4.5-12.9,8.4-23.9,7.9-7.6-.3-12.2-2.7-19.4-9.7-5.3-5.7-6.8-7.6-6.8-10.8,0-6,5.3-23.2,14.4-47.8,5.9-16.4,12.8-33.3,21.3-52.3,7.6-17.5,15.2-35.2,20.3-45.5.4-.9.8-1.9,1.3-2.8A24.88,24.88,0,0,1,2123.5,472.5Zm44.9,9.9c-4.9,8.9-8.2,16.3-16.6,34.1-4.6,10.8-7.1,16-9.3,21.5a13.06,13.06,0,0,0-.9,3.8c.1,1.3.8,2,2.9,2.2,3.2.3,14.1-2.8,22.5-6.8,24.2-10.7,38.3-26.4,37.2-41.7-.6-8.8-8.4-16.1-18.4-17.4a28.83,28.83,0,0,0-16.6,2.5C2169,481.1,2168.7,481.8,2168.4,482.4Z" transform="translate(-474.82 502.88)"/><path d="M2332.4,475.3c1.4,2.2,2.8,4.4,4.2,6.5,1.2,1.8,2.5,3.5,3.7,5.3a15.15,15.15,0,0,1,2.2,5.7,12.68,12.68,0,0,1-.3,3.4c-.4,2.2-.2,1.2-6.6,14.2-2.7,4.9-6.6,13.5-8.7,18l-1.5,3.6a6,6,0,0,0-.9,3.4,2.23,2.23,0,0,0,1.5,2c1,.3,1.9-.1,4-1.6,4.2-3.4,19-14.7,26.4-20.6,34.7-26.2,39.9-31.5,48.9-28.2,4.9,1.6,9.9,6.3,13.8,12.9,1.8,3.1,3.6,6.3,5.5,9.5.8,1.2,2.7,4.1,5.8,8.8,2.7,4.1,4,7.3,4.3,9.7.4,3.7-1.4,6.5-7.1,9.4-11.6,6.2-30.7,16.2-40.8,21.9-13.4,7.7-27.3,16.9-32.4,22.3-3.1,3.2-3.5,7.2-1.9,17.9,2.1,15.1,14.9,60,23.9,83.3,7.3,19.2,11.7,27.4,20.3,37.2,3,3.6,4.4,5.6,4.8,7.2.5,2.5-1.1,5.5-4.3,7-5.3,2.5-13.3.8-21.3-3.7-16.3-9.4-29.3-25.7-38.5-49.9-9-23.1-14.4-43.3-19.6-73-.7-3.7-1.3-7.4-2-11.1-1.5-8.5-2.6-11.4-4.4-12s-1.7-.2-4.3,9.8c-1.6,5.4-2.7,11.4-5.6,24.2-4.5,19.8-7.1,33.7-7.5,39.6a44.59,44.59,0,0,0-.1,12.1,35.89,35.89,0,0,0,1.8,6.5c.8,1.8,1.5,3.6,2.3,5.3a16.44,16.44,0,0,0,.3,1.8c.7,4-9.1,4.1-18.2.6-8.7-3.4-11.9-5.2-19-11.7-9.2-8.5-13.2-14.7-14.2-22-.8-5.9.1-12.5,2.8-26.6,4.5-21.9,11.1-43.8,19.9-68.9,6.8-19.7,17.3-48.2,22.4-60.4,3.8-8.5,4.4-12.4,4.1-19.1-.4-4.9-.2-6.3,1-7.5,3.2-4.8,11.7-7.4,19.3-5.6C2322.7,463.9,2328.2,468.4,2332.4,475.3Z" transform="translate(-474.82 502.88)"/><path d="M1679,828.3c.3-1.3.6-2.2.8-3.1,1.5-5.8,14.6-20.3,26.7-28.7,8.1-5.7,13.6-5.5,16.5-.2l1.8,3.3c.8,1.2,1.6,2.4,2.4,3.5a6.35,6.35,0,0,1,.4,4.8,51.44,51.44,0,0,1-4.6,10.3c-3.4,6.4-6.9,12.9-10.4,19.4-16.8,31-38.2,73.3-53.4,105.1-6,12.9-11.6,25.2-12.8,28.7-.6,1.7-.6,2.7.7,1.5s2.5-2.8,7.1-10.1c1.7-2.9,3.4-5.7,5-8.6s3.3-5.7,5-8.5q7.35-12.3,14.4-24.3c27.1-45.8,56.7-93.6,81.2-130.6,20.1-30,29.8-40.8,42-47.2s20.9-2.8,19.1,6.3c-1,4.8-2.3,8-12.5,28.7-15.1,31.1-27.3,57.2-39.3,84.8-5,11.9-8.6,21.1-9.8,25.3-.5,1.9.1,2.1,1,1.6,1.8-1.1,3-2.8,6.3-8.3,1.6-2.6,3.1-5.3,4.7-7.9,2.4-4.1,4.9-8.2,7.3-12.2,28.7-48.7,44.8-74.6,67.5-107.6,26-38.1,37.9-51.1,50.1-55.3,5.4-1.8,10.1-1.1,13.8,2l5.1,3.9c1.4.6,2.8,1.3,4.3,1.9,1.3,1.2,2.3,2.9,2,4.5-.3,2.3-1.8,4.7-5.9,9.8-2.9,3.3-5.8,6.7-8.7,10.1-40.2,47.8-82.8,110.6-139.5,200-10.6,16.8-19.4,30.5-25.9,40.4-10.2,15.6-18,24-28.6,31.5-4.8,3.4-7.8,4.7-11.8,4.6-7.8.7-10,.9-12.8,1.8-12,4.1-12.8,2.8-8.6-9.3,6.6-18.7,27.3-67.5,40.1-96.1,1.3-2.9,2.6-5.9,4-8.8.5-1.2.9-2.3,1.4-3.5a6.21,6.21,0,0,0,.9-1.9q.3-1.2-.9-.3c-.9.6-1.9,2-5,6.7-5.7,9.1-16.9,26.9-26.7,43.1-16.6,27.2-36.1,59.4-47.3,78.1q-15.45,25.8-31.8,52.8c-10,16.4-18.9,27.9-27.6,36.2-5.3,5-9.6,8.4-12.1,9.4-2.9,1.4-5.8,2.7-8.6,4.1-3.2,1.8-6.5,3.7-9.7,5.6-6.3,3.6-7.1,2.3-2.5-9.4,2.6-6.6,7-16.5,13.7-31.9,15.2-34.5,24.7-55.3,39.2-87.4,18.1-40.3,36.5-81.2,49.3-108.5,4.7-10.1,9.3-20.1,13.8-30.1,3.8-8.2,5.7-12.8,7-17.7C1677.6,837.2,1678.2,833.5,1679,828.3Z" transform="translate(-474.82 502.88)"/><path d="M2055.3,687c1.1,6.9,1.9,8.2,6.6,12.2,12.7,10.9,14.9,14.5,14.9,25.2.1,27.1-14.2,58.3-46.4,93.8-36.8,41.1-85.4,72.1-126.1,85.7-39.6,13.1-61.6,1.2-53.3-34.8,6-26.8,26.4-63.9,56.3-104,25.4-33.5,52.1-60.4,82.3-80.8,16.7-11.2,30.8-17.7,39.3-18.3C2040.9,665,2053.8,675.6,2055.3,687ZM1920.8,860.2c19-5.9,51.9-34.2,79.1-69.1,20.2-26.2,34.4-54.9,34.9-68.8.3-8.6-3.2-13.1-10-12.5-11.7,1-31.1,14.4-52.3,36.1-31.9,33.4-62.1,80.7-66.3,103.7C1904.3,859.5,1910.1,863.4,1920.8,860.2Z" transform="translate(-474.82 502.88)"/><path d="M2131.4,709.4c-6.7-4.6-9.6-8-9.8-11.5q-.3-7.65,12.3-12.3c18.3-7,39.9-8.4,61.6-3.1,39.6,9.2,74.4,47.6,81.1,81.7,6,31.8-11.9,48.7-52.8,52.7-14.8,1.8-20.2,3.7-19.9,6.2,0,.3.6,1.1,1.2,2.5s2.3,4.1,6.6,12.5c1.2,2.5,2.6,5.4,3.9,8.3,9.4,18.7,21.8,33.8,35.2,43.8,3.6,2.5,4.7,3.9,5,5.2,1.6,7.7-18.3,8.7-36.3,3.6-19.8-5.7-30.8-15.3-45.8-42.3-9.2-16.6-16.6-29.2-21.7-37.3-2.6-3.9-4.5-5.8-7.2-6.2-3.6-.5-4.3.6-9.7,13.8-8.9,21.2-11.2,26.1-10.8,30.8a19.54,19.54,0,0,0,1.2,4.9c.9,2.1,1.8,4.2,2.8,6.3a2.87,2.87,0,0,1,.6,1.6c.3,4.4-16.2,7.6-30.3,6.9-9.7-.5-15.6-2.9-24.7-9.9-6.7-5.7-8.6-7.5-8.5-10.7,0-6,6.9-23.1,18.2-47.5,7.4-16.2,15.7-32.9,26-51.4,9.1-17,17.9-34,23.7-43.8.5-.9,1-1.8,1.4-2.7C2133.7,710.9,2132.6,710.1,2131.4,709.4Zm54.2,15.1c-5.5,8-9.1,14.8-18.5,31.3-5.2,10.1-8.1,14.9-10.6,20.2-.7,1.8-1,2.7-.9,3.6.1,1.3,1,2.1,3.6,2.5,3.9.7,17.3-1.2,27.3-3.9,29.1-7,45.1-19,42.8-34.3-1.3-8.7-11-17.6-23.1-20.8-7.2-1.9-13.9-2-19.6-.4C2186.3,723.4,2185.9,723.9,2185.6,724.5Z" transform="translate(-474.82 502.88)"/><path d="M2377.6,766.9c1.9,2.7,3.7,5.4,5.6,8.1,1.6,2.2,3.3,4.5,5,6.8a22.26,22.26,0,0,1,3.2,6.4,8.21,8.21,0,0,1,.1,3.1c-.2,1.9-.1,1-5.9,10.4-2.6,3.4-6.1,9.8-8,13.2-.5.9-.9,1.8-1.4,2.8a3.87,3.87,0,0,0-.7,2.9,4.27,4.27,0,0,0,2,2.5c1.2.8,2.3.7,4.6.2,4.5-1.5,20.5-5.4,28.3-7.2,36.6-7.2,41.4-8.2,52.1-.3,5.8,4.4,12.1,11.7,17.4,20.3,2.5,4,5,8.1,7.6,12.1,1,1.6,3.6,5.4,7.8,11.7,3.6,5.5,5.6,9.3,6.3,11.7,1,3.7-.7,5.1-6.7,4.2-12.3-1.6-32.8-3.4-43.9-3.4-14.5-.1-29.7,1.7-35.1,4.4-3.3,1.6-3.4,5-.3,15.7,4.2,15,24.2,62.1,37.2,87.3,10.7,20.8,16.8,30.2,28.2,43.2,4,4.7,5.9,7.2,6.5,8.8.9,2.5-.8,4.3-4.6,4.1-6.2-.5-16.1-5.6-26.3-13.3-20.8-15.7-38.1-35.7-51.4-61.6-12.9-24.8-21.3-45.6-30.3-75.5-1.1-3.7-2.3-7.4-3.4-11.2-2.7-8.5-4.2-11.7-6.4-13s-2-.9-4.2,7.6c-1.4,4.5-2.2,9.7-4.6,20.8-3.8,17.1-6,29.3-6,34.8a33.4,33.4,0,0,0,.8,11.4,36.33,36.33,0,0,0,2.7,6.6c1.1,1.9,2.2,3.8,3.2,5.7.2.7.4,1.4.5,1.8,1.2,4-11,1-22.7-5-11.1-5.7-15.2-8.3-24.4-16.3-12-10.5-17.4-17.4-19.1-24.6-1.3-5.8-.6-12,1.9-24.9,4.2-19.9,10.7-39.1,19.2-60.4,6.5-16.8,16.2-40.4,20.8-50.2,3.5-6.7,3.8-10.2,2.8-16.7-1-4.9-.9-6.1.3-6.8,3.1-3.4,12.7-2.5,21.6,2.4C2365.1,751.7,2371.9,758.4,2377.6,766.9Z" transform="translate(-474.82 502.88)"/><path class="f291f421-dfc2-41f3-8ce3-b90e43d31c1f" d="M576,132.5a5.56,5.56,0,0,1,.4-.8c.8-1.6,5.7-4.9,10.2-6.6,3.1-1.1,5-.6,5.9,1.8l.6,1.5a9.82,9.82,0,0,1,.8,1.8,3.38,3.38,0,0,1,.1,2,10.69,10.69,0,0,1-1.9,3.3c-1.4,2-2.7,3.8-4.1,5.7-6.7,9-15,19.9-20.7,27.5a84.64,84.64,0,0,0-4.8,7.2c-.2.5-.2.9.3.9s.9-.2,2.6-1.5c.7-.6,1.2-1.1,1.9-1.8s1.2-1.2,1.9-1.8c1.8-1.7,3.7-3.5,5.4-5.3a417,417,0,0,0,31.6-35.9c8-10,11.8-14.3,16.4-15.6s7.9,1.8,7,6.5c-.5,2.4-1,4-5.1,13.2-6.1,13.7-10.9,24.3-15.4,35.6-1.9,4.9-3.2,8.7-3.7,10.6-.2.8.1,1.2.4,1.3.7.1,1.1-.4,2.3-2.3l1.8-2.7c.9-1.4,1.9-2.9,2.7-4.4,11-18,17.4-29.1,26.4-44,10.3-17.7,15.1-25.2,19.7-26.3,2.1-.6,3.8.5,5.3,3,.7,1,1.2,2.2,1.9,3.3.6.7,1,1.2,1.6,1.9a8.08,8.08,0,0,1,.8,3.4c-.2,1.6-.8,3-2.3,5.9-1.1,1.9-2.3,3.7-3.5,5.5-15.8,25.5-32.7,54.6-53.4,84.8-3.8,5.6-7,9.9-9.4,12.8-3.7,4.6-6.5,5.6-10.5,4.2-1.9-.7-3-1.6-4.6-3.9-3.1-4.1-3.9-5.3-5.1-6.3-4.7-4.5-5.1-5.7-3.7-10.3,2.1-6.9,9.4-23.2,14.3-32.9.5-.9,1-2,1.5-3a6.11,6.11,0,0,0,.5-1.2,2.51,2.51,0,0,0,.4-.7c.1-.3,0-.5-.4-.5s-.8.3-1.9,1.5c-2.2,2.4-6.4,7-10,10.9-6.2,6.6-13.2,13.2-17.3,16.8a140.67,140.67,0,0,1-11.3,9.4c-3.5,2.6-6.7,3.1-9.9,1.8a12.65,12.65,0,0,1-4.6-3c-1.1-1.2-2.3-2.3-3.4-3.6l-3.8-3.5c-2.4-2.3-2.8-3.4-1.3-5.9a63.32,63.32,0,0,1,4.6-6.1c5.3-6.4,8.6-10.1,14-16.3,6.7-7.7,13.9-16.4,19.1-22.7,1.9-2.3,3.8-4.7,5.5-7.1a18.46,18.46,0,0,0,2.9-4.6A12.84,12.84,0,0,0,576,132.5Z" transform="translate(-474.82 502.88)"/><path class="f291f421-dfc2-41f3-8ce3-b90e43d31c1f" d="M750.1,118c-2.6-3.1-3.8-5.7-3.8-8.6-.1-4.3,1.5-8.2,4.7-11.9,7-8.4,15.4-13.2,23.7-13.5,15.3-.5,29.1,20.6,32,47.1,2.5,24.6-4.4,47.2-20.4,61.9-5.8,5.4-7.9,8.2-7.8,10.3a13.33,13.33,0,0,0,.5,1.9c.3,1.1.8,3,2.5,9.4.5,1.9.9,4.1,1.5,6.3,3.6,14,8.3,24,13.3,28.7a4.12,4.12,0,0,1,1.9,3c.6,6.3-7.2,13.7-14.2,13.4-7.6-.3-11.8-6.9-17.5-27.7-3.5-13-6.4-22.7-8.4-29-1-3-1.8-4.4-2.8-4.4-1.4-.1-1.7,1-3.8,12.8-3.6,18.9-4.4,22.9-4.3,26.9a24.28,24.28,0,0,0,.5,4c.4,1.7.7,3.5,1,5.2a4,4,0,0,1,.2,1.3c.1,3.8-6.3,7.4-11.7,6.8-3.8-.5-6-2.6-9.6-8.8-2.6-5-3.3-6.7-3.3-9.3,0-5,2.6-18.6,7-38.8,2.9-13.4,6.1-27.6,10.1-43.8,3.6-14.9,6.9-30.3,9.1-39.3l.6-2.4A3.9,3.9,0,0,0,750.1,118Zm21.1,4.2c-2.1,8-3.4,14.5-7,30.4-2,9.6-3.2,14.2-4.1,19a16.82,16.82,0,0,0-.4,3.3c0,1.1.4,1.6,1.4,1.6,1.5,0,6.8-3.8,10.7-8.1,11.4-12,17.6-27.5,16.5-39.8-.6-7.1-4.4-12.1-9.1-12-2.8,0-5.3,1.5-7.6,3.9A10.47,10.47,0,0,1,771.2,122.2Z" transform="translate(-474.82 502.88)"/><path class="f291f421-dfc2-41f3-8ce3-b90e43d31c1f" d="M844.6,94.4c.8,1.3,1.5,2.5,2.3,3.8.7,1,1.3,2.1,2,3a10,10,0,0,1,1.3,3.5,17.71,17.71,0,0,1,.1,2.3c-.1,1.5,0,.8-2,10.6-.8,3.8-2.1,10.5-2.8,14.1-.2.9-.3,1.9-.5,2.8a6.41,6.41,0,0,0-.2,2.6,1.13,1.13,0,0,0,.8,1.1c.5,0,.8-.5,1.7-2.1,1.7-3.4,7.6-14.2,10.3-19.1,13.1-22.2,14.5-23.7,18.6-23,2.2.5,4.6,2.7,6.8,5.8,1,1.5,2,3,3,4.4.4.6,1.4,1.9,3.1,3.9,1.4,1.9,2.3,3.3,2.5,4.5.5,1.9-.1,3.5-2.3,5.8-4.3,4.8-11.7,14.2-15.9,20.2-5.3,7.8-11.1,17.7-13,22.9-1.2,3.1-1.2,6-.1,13,1.7,9.9,9,37.4,13.6,50.2,3.8,10.6,6,14.5,10.2,17.3,1.5,1.1,2.2,1.8,2.3,2.8.3,1.5-.5,4.5-2,7.4-2.5,4.6-6.3,7.7-10.1,8.3-7.9,1.2-14.2-5.6-18.9-20.6-4.6-14.2-7.6-27.8-10.9-48.6-.5-2.6-.8-5.2-1.3-7.8-1-5.9-1.6-7.8-2.4-7.7s-.8.3-1.7,8.6c-.6,4.6-.9,9.5-1.9,20.4-1.6,16.9-2.6,29-2.8,33.9a61.74,61.74,0,0,0,.1,9.9,34.08,34.08,0,0,0,.9,4.6,35.79,35.79,0,0,1,1.1,3.5,9,9,0,0,0,.2,1.3c.4,3-4.3,6.9-8.8,7.1-4.2.2-5.8-.3-9.3-3.5a20.23,20.23,0,0,1-7-14.1c-.5-4.7-.1-10.4,1-22.8,1.8-19.2,4.5-38.8,7.7-60.6,2.5-17.2,5.9-40.8,7.5-50.6a47.75,47.75,0,0,0,.8-14.6c-.5-3.5-.5-4.5,0-5.5,1.1-3.8,4.6-6.7,8-6.3C839.6,87.8,842.4,90.3,844.6,94.4Z" transform="translate(-474.82 502.88)"/><path class="f0b8c59e-e1e1-4af5-b83a-f7cd0de82193" d="M701.5,231.8a17.76,17.76,0,0,1-5,4.8c-2.3,1.5-4,2.2-5.2,2.2-.3,0-.7-.4-1.3-1.2a3.54,3.54,0,0,0-1.5-1.5,1.27,1.27,0,0,0-.6-.1,57.9,57.9,0,0,0-10.2,0,87.9,87.9,0,0,0-24.9,5.6c-7.2-8.5-11.1-13.1-11.7-13.9-4.4-5.4-6.2-8.8-5.6-10.2L689.7,96.9c.3-.7,1.9-1.3,4.7-1.8s4.6-.4,5.6.2a31.08,31.08,0,0,1,5.5,5.4c2.6,3,4.9,5,7,6,2.7,1.2,7,1.4,12.6.5,5.3-1,8.3-1,9.1-.1,1.8,1.8,3.8,6.1,6,12.8s3,11.2,2.5,13.4c-.2,1-1.8,2.3-4.8,3.8s-5,2-6.2,1.5a4.17,4.17,0,0,1-2-1.5c-.3-.5-.6-.8-.8-.8a81.21,81.21,0,0,0-10.6-1.1c-8-.4-14.3.5-19.1,2.6l-11.8,26.1a90.14,90.14,0,0,1,15.1-.3c1.6.4,3.6,4.2,6,11.3s3.3,11.6,2.4,13.5c-.5,1.2-1.8,2.3-3.8,3.3a10.35,10.35,0,0,1-5.1,1.4c-.9-.4-2.6-1-4.9-1.8-3.8-.8-11.5-.1-23,2l-7.6,16.8a138.18,138.18,0,0,1,14.2-1.8q8.85-.75,10.5,0c1.3.6,3.5,4.3,6.5,11.3C701.1,226.5,702.3,230.6,701.5,231.8Z" transform="translate(-474.82 502.88)"/><path class="f291f421-dfc2-41f3-8ce3-b90e43d31c1f" d="M640.2,246.4a5.56,5.56,0,0,1,.4-.8c.8-1.6,5.7-4.9,10.2-6.6,3.1-1.1,5-.6,5.9,1.8l.6,1.5a9.82,9.82,0,0,1,.8,1.8,3.38,3.38,0,0,1,.1,2,10.69,10.69,0,0,1-1.9,3.3c-1.4,2-2.7,3.8-4.1,5.7-6.7,9-15,19.9-20.7,27.5a84.65,84.65,0,0,0-4.8,7.2c-.2.5-.2.9.3.9s.9-.2,2.6-1.5c.7-.6,1.2-1.1,1.9-1.8s1.2-1.2,1.9-1.8c1.8-1.7,3.7-3.5,5.4-5.3a417,417,0,0,0,31.6-35.9c8-10,11.8-14.3,16.4-15.6s7.9,1.8,7,6.5c-.5,2.4-1,4-5.1,13.2-6.1,13.7-10.9,24.3-15.4,35.6-1.9,4.9-3.2,8.7-3.7,10.6-.2.8.1,1.2.4,1.3.7.1,1.1-.4,2.3-2.3l1.8-2.7c.9-1.4,1.9-2.9,2.7-4.4,11-18,17.4-29.1,26.4-44,10.3-17.7,15.1-25.2,19.7-26.3,2.1-.6,3.8.5,5.3,3,.7,1,1.2,2.2,1.9,3.3.6.7,1,1.2,1.6,1.9a8.08,8.08,0,0,1,.8,3.4c-.2,1.6-.8,3-2.3,5.9-1.1,1.9-2.3,3.7-3.5,5.5-15.8,25.5-32.7,54.6-53.4,84.8-3.8,5.6-7,9.9-9.4,12.8-3.7,4.6-6.5,5.6-10.5,4.2-1.9-.7-3-1.6-4.6-3.9-3.1-4.1-3.9-5.3-5.1-6.3-4.7-4.5-5.1-5.7-3.7-10.3,2.1-6.9,9.4-23.2,14.3-32.9.5-.9,1-2,1.5-3a6.11,6.11,0,0,0,.5-1.2,2.51,2.51,0,0,0,.4-.7c.1-.3,0-.5-.4-.5s-.8.3-1.9,1.5c-2.2,2.4-6.4,7-10,10.9-6.2,6.6-13.2,13.2-17.3,16.8a140.67,140.67,0,0,1-11.3,9.4c-3.5,2.6-6.7,3.1-9.9,1.8a12.65,12.65,0,0,1-4.6-3c-1.1-1.2-2.3-2.3-3.4-3.6l-3.8-3.5c-2.4-2.3-2.8-3.4-1.3-5.9a63.32,63.32,0,0,1,4.6-6.1c5.3-6.4,8.6-10.1,14-16.3,6.7-7.7,13.9-16.4,19.1-22.7,1.9-2.3,3.8-4.7,5.5-7.1a18.46,18.46,0,0,0,2.9-4.6A15.24,15.24,0,0,0,640.2,246.4Z" transform="translate(-474.82 502.88)"/><path class="f291f421-dfc2-41f3-8ce3-b90e43d31c1f" d="M814.3,232c-2.6-3.1-3.8-5.7-3.8-8.6-.1-4.3,1.5-8.2,4.7-11.9,7-8.4,15.4-13.2,23.7-13.5,15.3-.5,29.1,20.6,32,47.1,2.5,24.6-4.4,47.2-20.4,61.9-5.8,5.4-7.9,8.2-7.8,10.3a13.33,13.33,0,0,0,.5,1.9c.3,1.1.8,3,2.5,9.4.5,1.9.9,4.1,1.5,6.3,3.6,14,8.3,24,13.3,28.7a4.12,4.12,0,0,1,1.9,3c.6,6.3-7.2,13.7-14.2,13.4-7.6-.3-11.8-6.9-17.5-27.7-3.5-13-6.4-22.7-8.4-29-1-3-1.8-4.4-2.8-4.4-1.4-.1-1.7,1-3.8,12.8-3.6,18.9-4.4,22.9-4.3,26.9a24.28,24.28,0,0,0,.5,4c.4,1.7.7,3.5,1,5.2a4,4,0,0,1,.2,1.3c.1,3.8-6.3,7.4-11.7,6.8-3.8-.5-6-2.6-9.6-8.8-2.6-5-3.3-6.7-3.3-9.3,0-5,2.6-18.6,7-38.8,2.9-13.4,6.1-27.6,10.1-43.8,3.6-14.9,6.9-30.3,9.1-39.3l.6-2.4A2.85,2.85,0,0,0,814.3,232Zm21.1,4.1c-2.1,8-3.4,14.5-7,30.4-2,9.6-3.2,14.2-4.1,19a16.82,16.82,0,0,0-.4,3.3c0,1.1.4,1.6,1.4,1.6,1.5,0,6.8-3.8,10.7-8.1,11.4-12,17.6-27.5,16.5-39.8-.6-7.1-4.4-12.1-9.1-12-2.8,0-5.3,1.5-7.6,3.9A8.48,8.48,0,0,1,835.4,236.1Z" transform="translate(-474.82 502.88)"/><path class="f291f421-dfc2-41f3-8ce3-b90e43d31c1f" d="M908.8,208.3c.8,1.3,1.5,2.5,2.3,3.8.7,1,1.3,2.1,2,3a10,10,0,0,1,1.3,3.5,17.71,17.71,0,0,1,.1,2.3c-.1,1.5,0,.8-2,10.6-.8,3.8-2.1,10.5-2.8,14.1-.2.9-.3,1.9-.5,2.8a6.41,6.41,0,0,0-.2,2.6,1.13,1.13,0,0,0,.8,1.1c.5,0,.8-.5,1.7-2.1,1.7-3.4,7.6-14.2,10.3-19.1,13.1-22.2,14.5-23.7,18.6-23,2.2.5,4.6,2.7,6.8,5.8,1,1.5,2,3,3,4.4.4.6,1.4,1.9,3.1,3.9,1.4,1.9,2.3,3.3,2.5,4.5.5,1.9-.1,3.5-2.3,5.8-4.3,4.8-11.7,14.2-15.9,20.2-5.3,7.8-11.1,17.7-13,22.9-1.2,3.1-1.2,6-.1,13,1.7,9.9,9,37.4,13.6,50.2,3.8,10.6,6,14.5,10.2,17.3,1.5,1.1,2.2,1.8,2.3,2.8.3,1.5-.5,4.5-2,7.4-2.5,4.6-6.3,7.7-10.1,8.3-7.9,1.2-14.2-5.6-18.9-20.6-4.6-14.2-7.6-27.8-10.9-48.6-.5-2.6-.8-5.2-1.3-7.8-1-5.9-1.6-7.8-2.4-7.7s-.8.3-1.7,8.6c-.6,4.6-.9,9.5-1.9,20.4-1.6,16.9-2.6,29-2.8,33.9a61.74,61.74,0,0,0,.1,9.9,34.08,34.08,0,0,0,.9,4.6,35.79,35.79,0,0,1,1.1,3.5,9,9,0,0,0,.2,1.3c.4,3-4.3,6.9-8.8,7.1-4.2.2-5.8-.3-9.3-3.5a20.23,20.23,0,0,1-7-14.1c-.5-4.7-.1-10.4,1-22.8,1.8-19.2,4.5-38.8,7.7-60.6,2.5-17.2,5.9-40.8,7.5-50.6a47.75,47.75,0,0,0,.8-14.6c-.5-3.5-.5-4.5,0-5.5,1.1-3.8,4.6-6.7,8-6.3C903.8,201.8,906.5,204.2,908.8,208.3Z" transform="translate(-474.82 502.88)"/><path class="f0b8c59e-e1e1-4af5-b83a-f7cd0de82193" d="M765.7,345.8a17.76,17.76,0,0,1-5,4.8c-2.3,1.5-4,2.2-5.2,2.2-.3,0-.7-.4-1.3-1.2a3.54,3.54,0,0,0-1.5-1.5,1.27,1.27,0,0,0-.6-.1,57.9,57.9,0,0,0-10.2,0,87.9,87.9,0,0,0-24.9,5.6c-7.2-8.5-11.1-13.1-11.7-13.9-4.4-5.4-6.2-8.8-5.6-10.2l54.2-120.6c.3-.7,1.9-1.3,4.7-1.8s4.6-.4,5.6.2a31.08,31.08,0,0,1,5.5,5.4c2.6,3,4.9,5,7,6,2.7,1.2,7,1.4,12.6.5,5.3-1,8.3-1,9.1-.1,1.8,1.8,3.8,6.1,6,12.8s3,11.2,2.5,13.4c-.2,1-1.8,2.3-4.8,3.8s-5,2-6.2,1.5a4.17,4.17,0,0,1-2-1.5c-.3-.5-.6-.8-.8-.8a81.21,81.21,0,0,0-10.6-1.1c-8-.4-14.3.5-19.1,2.6l-11.8,26.1a90.14,90.14,0,0,1,15.1-.3c1.6.4,3.6,4.2,6,11.3s3.3,11.6,2.4,13.5c-.5,1.2-1.8,2.3-3.8,3.3a10.35,10.35,0,0,1-5.1,1.4c-.9-.4-2.6-1-4.9-1.8-3.8-.8-11.5-.1-23,2L731,324a138.18,138.18,0,0,1,14.2-1.8q8.85-.75,10.5,0c1.3.6,3.5,4.3,6.5,11.3S766.4,344.5,765.7,345.8Z" transform="translate(-474.82 502.88)"/><path class="f291f421-dfc2-41f3-8ce3-b90e43d31c1f" d="M573.8,361.2a5.56,5.56,0,0,1,.4-.8c.8-1.6,5.7-4.9,10.2-6.6,3.1-1.1,5-.6,5.9,1.8l.6,1.5a9.82,9.82,0,0,1,.8,1.8,3.38,3.38,0,0,1,.1,2,10.69,10.69,0,0,1-1.9,3.3c-1.4,2-2.7,3.8-4.1,5.7-6.7,9-15,19.9-20.7,27.5a84.65,84.65,0,0,0-4.8,7.2c-.2.5-.2.9.3.9s.9-.2,2.6-1.5c.7-.6,1.2-1.1,1.9-1.8s1.2-1.2,1.9-1.8c1.8-1.7,3.7-3.5,5.4-5.3A417,417,0,0,0,604,359.2c8-10,11.8-14.3,16.4-15.6s7.9,1.8,7,6.5c-.5,2.4-1,4-5.1,13.2-6.1,13.7-10.9,24.3-15.4,35.6-1.9,4.9-3.2,8.7-3.7,10.6-.2.8.1,1.2.4,1.3.7.1,1.1-.4,2.3-2.3l1.8-2.7c.9-1.4,1.9-2.9,2.7-4.4,11-18,17.4-29.1,26.4-44,10.3-17.7,15.1-25.2,19.7-26.3,2.1-.6,3.8.5,5.3,3,.7,1,1.2,2.2,1.9,3.3.6.7,1,1.2,1.6,1.9a8.08,8.08,0,0,1,.8,3.4c-.2,1.6-.8,3-2.3,5.9-1.1,1.9-2.3,3.7-3.5,5.5-15.8,25.5-32.7,54.6-53.4,84.8-3.8,5.6-7,9.9-9.4,12.8-3.7,4.6-6.5,5.6-10.5,4.2-1.9-.7-3-1.6-4.6-3.9-3.1-4.1-3.9-5.3-5.1-6.3-4.7-4.5-5.1-5.7-3.7-10.3,2.1-6.9,9.4-23.2,14.3-32.9.5-.9,1-2,1.5-3a6.11,6.11,0,0,0,.5-1.2,2.51,2.51,0,0,0,.4-.7c.1-.3,0-.5-.4-.5s-.8.3-1.9,1.5c-2.2,2.4-6.4,7-10,10.9-6.2,6.6-13.2,13.2-17.3,16.8a140.67,140.67,0,0,1-11.3,9.4c-3.5,2.6-6.7,3.1-9.9,1.8a12.65,12.65,0,0,1-4.6-3c-1.1-1.2-2.3-2.3-3.4-3.6l-3.8-3.5c-2.4-2.3-2.8-3.4-1.3-5.9a63.32,63.32,0,0,1,4.6-6.1c5.3-6.4,8.6-10.1,14-16.3,6.7-7.7,13.9-16.4,19.1-22.7,1.9-2.3,3.8-4.7,5.5-7.1a18.46,18.46,0,0,0,2.9-4.6A10.24,10.24,0,0,0,573.8,361.2Z" transform="translate(-474.82 502.88)"/><path class="f291f421-dfc2-41f3-8ce3-b90e43d31c1f" d="M747.9,346.7c-2.6-3.1-3.8-5.7-3.8-8.6-.1-4.3,1.5-8.2,4.7-11.9,7-8.4,15.4-13.2,23.7-13.5,15.3-.5,29.1,20.6,32,47.1,2.5,24.6-4.4,47.2-20.4,61.9-5.8,5.4-7.9,8.2-7.8,10.3a13.33,13.33,0,0,0,.5,1.9c.3,1.1.8,3,2.5,9.4.5,1.9.9,4.1,1.5,6.3,3.6,14,8.3,24,13.3,28.7a4.12,4.12,0,0,1,1.9,3c.6,6.3-7.2,13.7-14.2,13.4-7.6-.3-11.8-6.9-17.5-27.7-3.5-13-6.4-22.7-8.4-29-1-3-1.8-4.4-2.8-4.4-1.4-.1-1.7,1-3.8,12.8-3.6,18.9-4.4,22.9-4.3,26.9a24.28,24.28,0,0,0,.5,4c.4,1.7.7,3.5,1,5.2a4,4,0,0,1,.2,1.3c.1,3.8-6.3,7.4-11.7,6.8-3.8-.5-6-2.6-9.6-8.8-2.6-5-3.3-6.7-3.3-9.3,0-5,2.6-18.6,7-38.8,2.9-13.4,6.1-27.6,10.1-43.8,3.6-14.9,6.9-30.3,9.1-39.3l.6-2.4C748.9,347.8,748.4,347.2,747.9,346.7Zm21.2,4.2c-2.1,8-3.4,14.5-7,30.4-2,9.6-3.2,14.2-4.1,19a16.82,16.82,0,0,0-.4,3.3c0,1.1.4,1.6,1.4,1.6,1.5,0,6.8-3.8,10.7-8.1,11.4-12,17.6-27.5,16.5-39.8-.6-7.1-4.4-12.1-9.1-12-2.8,0-5.3,1.5-7.6,3.9A10.46,10.46,0,0,0,769.1,350.9Z" transform="translate(-474.82 502.88)"/><path class="f291f421-dfc2-41f3-8ce3-b90e43d31c1f" d="M842.5,323.1c.8,1.3,1.5,2.5,2.3,3.8.7,1,1.3,2.1,2,3a10,10,0,0,1,1.3,3.5,17.71,17.71,0,0,1,.1,2.3c-.1,1.5,0,.8-2,10.6-.8,3.8-2.1,10.5-2.8,14.1-.2.9-.3,1.9-.5,2.8a6.41,6.41,0,0,0-.2,2.6,1.13,1.13,0,0,0,.8,1.1c.5,0,.8-.5,1.7-2.1,1.7-3.4,7.6-14.2,10.3-19.1,13.1-22.2,14.5-23.7,18.6-23,2.2.5,4.6,2.7,6.8,5.8,1,1.5,2,3,3,4.4.4.6,1.4,1.9,3.1,3.9,1.4,1.9,2.3,3.3,2.5,4.5.5,1.9-.1,3.5-2.3,5.8-4.3,4.8-11.7,14.2-15.9,20.2-5.3,7.8-11.1,17.7-13,22.9-1.2,3.1-1.2,6-.1,13,1.7,9.9,9,37.4,13.6,50.2,3.8,10.6,6,14.5,10.2,17.3,1.5,1.1,2.2,1.8,2.3,2.8.3,1.5-.5,4.5-2,7.4-2.5,4.6-6.3,7.7-10.1,8.3-7.9,1.2-14.2-5.6-18.9-20.6-4.6-14.2-7.6-27.8-10.9-48.6-.5-2.6-.8-5.2-1.3-7.8-1-5.9-1.6-7.8-2.4-7.7s-.8.3-1.7,8.6c-.6,4.6-.9,9.5-1.9,20.4-1.6,16.9-2.6,29-2.8,33.9a61.74,61.74,0,0,0,.1,9.9,34.08,34.08,0,0,0,.9,4.6,35.79,35.79,0,0,1,1.1,3.5,9,9,0,0,0,.2,1.3c.4,3-4.3,6.9-8.8,7.1-4.2.2-5.8-.3-9.3-3.5a20.23,20.23,0,0,1-7-14.1c-.5-4.7-.1-10.4,1-22.8,1.8-19.2,4.5-38.8,7.7-60.6,2.5-17.2,5.9-40.8,7.5-50.6a47.75,47.75,0,0,0,.8-14.6c-.5-3.5-.5-4.5,0-5.5,1.1-3.8,4.6-6.7,8-6.3C837.5,316.5,840.2,319,842.5,323.1Z" transform="translate(-474.82 502.88)"/><path class="f0b8c59e-e1e1-4af5-b83a-f7cd0de82193" d="M699.3,460.5a17.76,17.76,0,0,1-5,4.8c-2.3,1.5-4,2.2-5.2,2.2-.3,0-.7-.4-1.3-1.2a3.54,3.54,0,0,0-1.5-1.5,1.27,1.27,0,0,0-.6-.1,57.9,57.9,0,0,0-10.2,0,87.9,87.9,0,0,0-24.9,5.6c-7.2-8.5-11.1-13.1-11.7-13.9-4.4-5.4-6.2-8.8-5.6-10.2l54.2-120.6c.3-.7,1.9-1.3,4.7-1.8s4.6-.4,5.6.2a31.08,31.08,0,0,1,5.5,5.4c2.6,3,4.9,5,7,6,2.7,1.2,7,1.4,12.6.5,5.3-1,8.3-1,9.1-.1,1.8,1.8,3.8,6.1,6,12.8s3,11.2,2.5,13.4c-.2,1-1.8,2.3-4.8,3.8s-5,2-6.2,1.5a4.17,4.17,0,0,1-2-1.5c-.3-.5-.6-.8-.8-.8a81.21,81.21,0,0,0-10.6-1.1c-8-.4-14.3.5-19.1,2.6l-11.8,26.1a90.14,90.14,0,0,1,15.1-.3c1.6.4,3.6,4.2,6,11.3s3.3,11.6,2.4,13.5c-.5,1.2-1.8,2.3-3.8,3.3a10.35,10.35,0,0,1-5.1,1.4c-.9-.4-2.6-1-4.9-1.8-3.8-.8-11.5-.1-23,2l-7.6,16.8a138.18,138.18,0,0,1,14.2-1.8q8.85-.75,10.5,0c1.3.6,3.5,4.3,6.5,11.3C698.9,455.2,700.1,459.3,699.3,460.5Z" transform="translate(-474.82 502.88)"/><path class="f291f421-dfc2-41f3-8ce3-b90e43d31c1f" d="M636.6,476a5.56,5.56,0,0,1,.4-.8c.8-1.6,5.7-4.9,10.2-6.6,3.1-1.1,5-.6,5.9,1.8l.6,1.5a9.82,9.82,0,0,1,.8,1.8,3.38,3.38,0,0,1,.1,2,10.69,10.69,0,0,1-1.9,3.3c-1.4,2-2.7,3.8-4.1,5.7-6.7,9-15,19.9-20.7,27.5a84.65,84.65,0,0,0-4.8,7.2c-.2.5-.2.9.3.9s.9-.2,2.6-1.5c.7-.6,1.2-1.1,1.9-1.8s1.2-1.2,1.9-1.8c1.8-1.7,3.7-3.5,5.4-5.3A417,417,0,0,0,666.8,474c8-10,11.8-14.3,16.4-15.6s7.9,1.8,7,6.5c-.5,2.4-1,4-5.1,13.2-6.1,13.7-10.9,24.3-15.4,35.6-1.9,4.9-3.2,8.7-3.7,10.6-.2.8.1,1.2.4,1.3.7.1,1.1-.4,2.3-2.3l1.8-2.7c.9-1.4,1.9-2.9,2.7-4.4,11-18,17.4-29.1,26.4-44,10.3-17.7,15.1-25.2,19.7-26.3,2.1-.6,3.8.5,5.3,3,.7,1,1.2,2.2,1.9,3.3.6.7,1,1.2,1.6,1.9a8.08,8.08,0,0,1,.8,3.4c-.2,1.6-.8,3-2.3,5.9-1.1,1.9-2.3,3.7-3.5,5.5-15.8,25.5-32.7,54.6-53.4,84.8-3.8,5.6-7,9.9-9.4,12.8-3.7,4.6-6.5,5.6-10.5,4.2-1.9-.7-3-1.6-4.6-3.9-3.1-4.1-3.9-5.3-5.1-6.3-4.7-4.5-5.1-5.7-3.7-10.3,2.1-6.9,9.4-23.2,14.3-32.9.5-.9,1-2,1.5-3a6.11,6.11,0,0,0,.5-1.2,2.51,2.51,0,0,0,.4-.7c.1-.3,0-.5-.4-.5s-.8.3-1.9,1.5c-2.2,2.4-6.4,7-10,10.9-6.2,6.6-13.2,13.2-17.3,16.8a140.67,140.67,0,0,1-11.3,9.4c-3.5,2.6-6.7,3.1-9.9,1.8a12.65,12.65,0,0,1-4.6-3c-1.1-1.2-2.3-2.3-3.4-3.6l-3.8-3.5c-2.4-2.3-2.8-3.4-1.3-5.9a63.31,63.31,0,0,1,4.6-6.1c5.3-6.4,8.6-10.1,14-16.3,6.7-7.7,13.9-16.4,19.1-22.7,1.9-2.3,3.8-4.7,5.5-7.1a18.46,18.46,0,0,0,2.9-4.6A17.26,17.26,0,0,0,636.6,476Z" transform="translate(-474.82 502.88)"/><path class="f291f421-dfc2-41f3-8ce3-b90e43d31c1f" d="M810.7,461.5c-2.6-3.1-3.8-5.7-3.8-8.6-.1-4.3,1.5-8.2,4.7-11.9,7-8.4,15.4-13.2,23.7-13.5,15.3-.5,29.1,20.6,32,47.1,2.5,24.6-4.4,47.2-20.4,61.9-5.8,5.4-7.9,8.2-7.8,10.3a13.33,13.33,0,0,0,.5,1.9c.3,1.1.8,3,2.5,9.4.5,1.9.9,4.1,1.5,6.3,3.6,14,8.3,24,13.3,28.7a4.12,4.12,0,0,1,1.9,3c.6,6.3-7.2,13.7-14.2,13.4-7.6-.3-11.8-6.9-17.5-27.7-3.5-13-6.4-22.7-8.4-29-1-3-1.8-4.4-2.8-4.4-1.4-.1-1.7,1-3.8,12.8-3.6,18.9-4.4,22.9-4.3,26.9a24.28,24.28,0,0,0,.5,4c.4,1.7.7,3.5,1,5.2a4,4,0,0,1,.2,1.3c.1,3.8-6.3,7.4-11.7,6.8-3.8-.5-6-2.6-9.6-8.8-2.6-5-3.3-6.7-3.3-9.3,0-5,2.6-18.6,7-38.8,2.9-13.4,6.1-27.6,10.1-43.8,3.6-14.9,6.9-30.3,9.1-39.3l.6-2.4A3.29,3.29,0,0,0,810.7,461.5Zm21.1,4.1c-2.1,8-3.4,14.5-7,30.4-2,9.6-3.2,14.2-4.1,19a16.82,16.82,0,0,0-.4,3.3c0,1.1.4,1.6,1.4,1.6,1.5,0,6.8-3.8,10.7-8.1,11.4-12,17.6-27.5,16.5-39.8-.6-7.1-4.4-12.1-9.1-12-2.8,0-5.3,1.5-7.6,3.9A7.09,7.09,0,0,1,831.8,465.6Z" transform="translate(-474.82 502.88)"/><path class="f291f421-dfc2-41f3-8ce3-b90e43d31c1f" d="M905.2,437.9c.8,1.3,1.5,2.5,2.3,3.8.7,1,1.3,2.1,2,3a10,10,0,0,1,1.3,3.5,17.71,17.71,0,0,1,.1,2.3c-.1,1.5,0,.8-2,10.6-.8,3.8-2.1,10.5-2.8,14.1-.2.9-.3,1.9-.5,2.8a6.41,6.41,0,0,0-.2,2.6,1.13,1.13,0,0,0,.8,1.1c.5,0,.8-.5,1.7-2.1,1.7-3.4,7.6-14.2,10.3-19.1,13.1-22.2,14.5-23.7,18.6-23,2.2.5,4.6,2.7,6.8,5.8,1,1.5,2,3,3,4.4.4.6,1.4,1.9,3.1,3.9,1.4,1.9,2.3,3.3,2.5,4.5.5,1.9-.1,3.5-2.3,5.8-4.3,4.8-11.7,14.2-15.9,20.2-5.3,7.8-11.1,17.7-13,22.9-1.2,3.1-1.2,6-.1,13,1.7,9.9,9,37.4,13.6,50.2,3.8,10.6,6,14.5,10.2,17.3,1.5,1.1,2.2,1.8,2.3,2.8.3,1.5-.5,4.5-2,7.4-2.5,4.6-6.3,7.7-10.1,8.3-7.9,1.2-14.2-5.6-18.9-20.6-4.6-14.2-7.6-27.8-10.9-48.6-.5-2.6-.8-5.2-1.3-7.8-1-5.9-1.6-7.8-2.4-7.7s-.8.3-1.7,8.6c-.6,4.6-.9,9.5-1.9,20.4-1.6,16.9-2.6,29-2.8,33.9a61.74,61.74,0,0,0,.1,9.9,34.07,34.07,0,0,0,.9,4.6,35.79,35.79,0,0,1,1.1,3.5,9,9,0,0,0,.2,1.3c.4,3-4.3,6.9-8.8,7.1-4.2.2-5.8-.3-9.3-3.5a20.23,20.23,0,0,1-7-14.1c-.5-4.7-.1-10.4,1-22.8,1.8-19.2,4.5-38.8,7.7-60.6,2.5-17.2,5.9-40.8,7.5-50.6a47.75,47.75,0,0,0,.8-14.6c-.5-3.5-.5-4.5,0-5.5,1.1-3.8,4.6-6.7,8-6.3C900.2,431.3,903,433.7,905.2,437.9Z" transform="translate(-474.82 502.88)"/><path class="f0b8c59e-e1e1-4af5-b83a-f7cd0de82193" d="M762.1,575.3a17.76,17.76,0,0,1-5,4.8c-2.3,1.5-4,2.2-5.2,2.2-.3,0-.7-.4-1.3-1.2a3.54,3.54,0,0,0-1.5-1.5,1.27,1.27,0,0,0-.6-.1,57.9,57.9,0,0,0-10.2,0,87.9,87.9,0,0,0-24.9,5.6c-7.2-8.5-11.1-13.1-11.7-13.9-4.4-5.4-6.2-8.8-5.6-10.2l54.2-120.6c.3-.7,1.9-1.3,4.7-1.8s4.6-.4,5.6.2a31.08,31.08,0,0,1,5.5,5.4c2.6,3,4.9,5,7,6,2.7,1.2,7,1.4,12.6.5,5.3-1,8.3-1,9.1-.1,1.8,1.8,3.8,6.1,6,12.8s3,11.2,2.5,13.4c-.2,1-1.8,2.3-4.8,3.8s-5,2-6.2,1.5a4.17,4.17,0,0,1-2-1.5c-.3-.5-.6-.8-.8-.8a81.21,81.21,0,0,0-10.6-1.1c-8-.4-14.3.5-19.1,2.6L748,507.4a90.14,90.14,0,0,1,15.1-.3c1.6.4,3.6,4.2,6,11.3s3.3,11.6,2.4,13.5c-.5,1.2-1.8,2.3-3.8,3.3a10.35,10.35,0,0,1-5.1,1.4c-.9-.4-2.6-1-4.9-1.8-3.8-.8-11.5-.1-23,2l-7.6,16.8a138.18,138.18,0,0,1,14.2-1.8q8.85-.75,10.5,0c1.3.6,3.5,4.3,6.5,11.3C761.7,570,762.8,574.1,762.1,575.3Z" transform="translate(-474.82 502.88)"/><path class="f291f421-dfc2-41f3-8ce3-b90e43d31c1f" d="M523.6,596.1a5.55,5.55,0,0,1,.4-.8c.8-1.6,5.7-4.9,10.2-6.6,3.1-1.1,5-.6,5.9,1.8l.6,1.5a9.82,9.82,0,0,1,.8,1.8,3.38,3.38,0,0,1,.1,2,10.69,10.69,0,0,1-1.9,3.3c-1.4,2-2.7,3.8-4.1,5.7-6.7,9-15,19.9-20.7,27.5a84.65,84.65,0,0,0-4.8,7.2c-.2.5-.2.9.3.9s.9-.2,2.6-1.5c.7-.6,1.2-1.1,1.9-1.8s1.2-1.2,1.9-1.8c1.8-1.7,3.7-3.5,5.4-5.3a417,417,0,0,0,31.6-35.9c8-10,11.8-14.3,16.4-15.6s7.9,1.8,7,6.5c-.5,2.4-1,4-5.1,13.2-6.1,13.7-10.9,24.3-15.4,35.6-1.9,4.9-3.2,8.7-3.7,10.6-.2.8.1,1.2.4,1.3.7.1,1.1-.4,2.3-2.3l1.8-2.7c.9-1.4,1.9-2.9,2.7-4.4,11-18,17.4-29.1,26.4-44,10.3-17.7,15.1-25.2,19.7-26.3,2.1-.6,3.8.5,5.3,3,.7,1,1.2,2.2,1.9,3.3.6.7,1,1.2,1.6,1.9a8.08,8.08,0,0,1,.8,3.4c-.2,1.6-.8,3-2.3,5.9-1.1,1.9-2.3,3.7-3.5,5.5-15.8,25.5-32.7,54.6-53.4,84.8-3.8,5.6-7,9.9-9.4,12.8-3.7,4.6-6.5,5.6-10.5,4.2-1.9-.7-3-1.6-4.6-3.9-3.1-4.1-3.9-5.3-5.1-6.3-4.7-4.5-5.1-5.7-3.7-10.3,2.1-6.9,9.4-23.2,14.3-32.9.5-.9,1-2,1.5-3a6.11,6.11,0,0,0,.5-1.2,2.51,2.51,0,0,0,.4-.7c.1-.3,0-.5-.4-.5s-.8.3-1.9,1.5c-2.2,2.4-6.4,7-10,10.9-6.2,6.6-13.2,13.2-17.3,16.8a140.67,140.67,0,0,1-11.3,9.4c-3.5,2.6-6.7,3.1-9.9,1.8a12.65,12.65,0,0,1-4.6-3c-1.1-1.2-2.3-2.3-3.4-3.6l-3.8-3.5c-2.4-2.3-2.8-3.4-1.3-5.9a63.3,63.3,0,0,1,4.6-6.1c5.3-6.4,8.6-10.1,14-16.3,6.7-7.7,13.9-16.4,19.1-22.7,1.9-2.3,3.8-4.7,5.5-7.1a18.46,18.46,0,0,0,2.9-4.6A12.84,12.84,0,0,0,523.6,596.1Z" transform="translate(-474.82 502.88)"/><path class="f291f421-dfc2-41f3-8ce3-b90e43d31c1f" d="M697.7,581.6c-2.6-3.1-3.8-5.7-3.8-8.6-.1-4.3,1.5-8.2,4.7-11.9,7-8.4,15.4-13.2,23.7-13.5,15.3-.5,29.1,20.6,32,47.1,2.5,24.6-4.4,47.2-20.4,61.9-5.8,5.4-7.9,8.2-7.8,10.3a13.33,13.33,0,0,0,.5,1.9c.3,1.1.8,3,2.5,9.4.5,1.9.9,4.1,1.5,6.3,3.6,14,8.3,24,13.3,28.7a4.12,4.12,0,0,1,1.9,3c.6,6.3-7.2,13.7-14.2,13.4-7.6-.3-11.8-6.9-17.5-27.7-3.5-13-6.4-22.7-8.4-29-1-3-1.8-4.4-2.8-4.4-1.4-.1-1.7,1-3.8,12.8-3.6,18.9-4.4,22.9-4.3,26.9a24.28,24.28,0,0,0,.5,4c.4,1.7.7,3.5,1,5.2a4,4,0,0,1,.2,1.3c.1,3.8-6.3,7.4-11.7,6.8-3.8-.5-6-2.6-9.6-8.8-2.6-5-3.3-6.7-3.3-9.3,0-5,2.6-18.6,7-38.8,2.9-13.4,6.1-27.6,10.1-43.8,3.6-14.9,6.9-30.3,9.1-39.3l.6-2.4C698.7,582.7,698.2,582.1,697.7,581.6Zm21.1,4.2c-2.1,8-3.4,14.5-7,30.4-2,9.6-3.2,14.2-4.1,19a16.82,16.82,0,0,0-.4,3.3c0,1.1.4,1.6,1.4,1.6,1.5,0,6.8-3.8,10.7-8.1,11.4-12,17.6-27.5,16.5-39.8-.6-7.1-4.4-12.1-9.1-12-2.8,0-5.3,1.5-7.6,3.9A10.47,10.47,0,0,1,718.8,585.8Z" transform="translate(-474.82 502.88)"/><path class="f291f421-dfc2-41f3-8ce3-b90e43d31c1f" d="M792.2,558c.8,1.3,1.5,2.5,2.3,3.8.7,1,1.3,2.1,2,3a10,10,0,0,1,1.3,3.5,17.71,17.71,0,0,1,.1,2.3c-.1,1.5,0,.8-2,10.6-.8,3.8-2.1,10.5-2.8,14.1-.2.9-.3,1.9-.5,2.8a6.41,6.41,0,0,0-.2,2.6,1.13,1.13,0,0,0,.8,1.1c.5,0,.8-.5,1.7-2.1,1.7-3.4,7.6-14.2,10.3-19.1,13.1-22.2,14.5-23.7,18.6-23,2.2.5,4.6,2.7,6.8,5.8,1,1.5,2,3,3,4.4.4.6,1.4,1.9,3.1,3.9,1.4,1.9,2.3,3.3,2.5,4.5.5,1.9-.1,3.5-2.3,5.8-4.3,4.8-11.7,14.2-15.9,20.2-5.3,7.8-11.1,17.7-13,22.9-1.2,3.1-1.2,6-.1,13,1.7,9.9,9,37.4,13.6,50.2,3.8,10.6,6,14.5,10.2,17.3,1.5,1.1,2.2,1.8,2.3,2.8.3,1.5-.5,4.5-2,7.4-2.5,4.6-6.3,7.7-10.1,8.3-7.9,1.2-14.2-5.6-18.9-20.6-4.6-14.2-7.6-27.8-10.9-48.6-.5-2.6-.8-5.2-1.3-7.8-1-5.9-1.6-7.8-2.4-7.7s-.8.3-1.7,8.6c-.6,4.6-.9,9.5-1.9,20.4-1.6,16.9-2.6,29-2.8,33.9a61.74,61.74,0,0,0,.1,9.9,34.07,34.07,0,0,0,.9,4.6,35.79,35.79,0,0,1,1.1,3.5,9,9,0,0,0,.2,1.3c.4,3-4.3,6.9-8.8,7.1-4.2.2-5.8-.3-9.3-3.5a20.23,20.23,0,0,1-7-14.1c-.5-4.7-.1-10.4,1-22.8,1.8-19.2,4.5-38.8,7.7-60.6,2.5-17.2,5.9-40.8,7.5-50.6a47.75,47.75,0,0,0,.8-14.6c-.5-3.5-.5-4.5,0-5.5,1.1-3.8,4.6-6.7,8-6.3C787.3,551.4,790,553.9,792.2,558Z" transform="translate(-474.82 502.88)"/><path class="f0b8c59e-e1e1-4af5-b83a-f7cd0de82193" d="M649.1,695.4a17.76,17.76,0,0,1-5,4.8c-2.3,1.5-4,2.2-5.2,2.2-.3,0-.7-.4-1.3-1.2a3.54,3.54,0,0,0-1.5-1.5,1.27,1.27,0,0,0-.6-.1,57.9,57.9,0,0,0-10.2,0,87.9,87.9,0,0,0-24.9,5.6c-7.2-8.5-11.1-13.1-11.7-13.9-4.4-5.4-6.2-8.8-5.6-10.2l54.2-120.6c.3-.7,1.9-1.3,4.7-1.8s4.6-.4,5.6.2a31.08,31.08,0,0,1,5.5,5.4c2.6,3,4.9,5,7,6,2.7,1.2,7,1.4,12.6.5,5.3-1,8.3-1,9.1-.1,1.8,1.8,3.8,6.1,6,12.8s3,11.2,2.5,13.4c-.2,1-1.8,2.3-4.8,3.8s-5,2-6.2,1.5a4.17,4.17,0,0,1-2-1.5c-.3-.5-.6-.8-.8-.8a81.21,81.21,0,0,0-10.6-1.1c-8-.4-14.3.5-19.1,2.6L635,627.5a90.14,90.14,0,0,1,15.1-.3c1.6.4,3.6,4.2,6,11.3s3.3,11.6,2.4,13.5c-.5,1.2-1.8,2.3-3.8,3.3a10.35,10.35,0,0,1-5.1,1.4c-.9-.4-2.6-1-4.9-1.8-3.8-.8-11.5-.1-23,2l-7.6,16.8a138.18,138.18,0,0,1,14.2-1.8q8.85-.75,10.5,0c1.3.6,3.5,4.3,6.5,11.3C648.7,690.1,649.9,694.2,649.1,695.4Z" transform="translate(-474.82 502.88)"/></svg>