<svg id="eae9b766-b347-4cb4-851f-a4380f6f8cb7" data-name="Calque 1" xmlns="http://www.w3.org/2000/svg" width="376.7" height="332.55" viewBox="0 0 376.7 332.55"><defs><style>.\36 8a36298-2b9d-400b-8b3e-a894ea0812f7,.bd3856ba-a079-448b-98ae-0d14cbb8c5cf{fill:#fff;}.\34 5e15736-d757-4ce3-88c0-f3482805d883,.\35 6e24d8f-bd4a-413c-855b-f7aa64046041,.\36 8a36298-2b9d-400b-8b3e-a894ea0812f7{stroke:#000;}.\35 6e24d8f-bd4a-413c-855b-f7aa64046041,.\36 8a36298-2b9d-400b-8b3e-a894ea0812f7{stroke-miterlimit:10;}.\34 5e15736-d757-4ce3-88c0-f3482805d883,.\36 8a36298-2b9d-400b-8b3e-a894ea0812f7{stroke-width:1.29px;}.\34 5e15736-d757-4ce3-88c0-f3482805d883{fill:none;stroke-linecap:round;stroke-linejoin:round;}</style></defs><title>dancing-note-1</title><path class="68a36298-2b9d-400b-8b3e-a894ea0812f7" d="M304.64,215c-.7-2.3-1.3-4.7-2.2-6.9-9.3-23.3-15.7-47.3-12.5-72.7a56.16,56.16,0,0,1,5.7-18.8c4.9-9.9,14.1-13,24.3-8.5,4.9,2.2,9.9,5.1,13.6,9,32.4,34.6,46.6,75.5,41.5,122.7a32.83,32.83,0,0,1-2.7,9.1c-5.7,14.2-17.3,18.7-30.3,10.6-7.6-4.8-14.3-11.4-20.4-18-23.7-25.4-49.5-48.1-81.7-62.2-41.1-17.9-82.2-19.2-122.7,2.2-1.9,1-5.4.6-7.3-.5-24.2-14.8-44.4-34.2-62.9-55.5a8.56,8.56,0,0,1-1.9-5.5C45.14,25.1,156.44-4.7,201,1.4c4.2,0,9.4,4.1,12.4,7.8,7.4,9.1,9.4,11.7,15.2,22,23.7,42.7,36.2,88.9,40.7,137.4.2,2.3.3,14.1.2,15.3-6.6-4.7-12.4-8.2-12.4-8.2-3.6-25.6-11.9-50.9-17.6-70.3-1.2-4.1-97.5,38.1-106,52.4,68.7-12.4,125.9,4.3,169.6,59A9,9,0,0,1,304.64,215Z"/><path class="68a36298-2b9d-400b-8b3e-a894ea0812f7" d="M257.24,188.1c.6,31.4-5.8,61.2-28.8,83.9-22.7,22.4-45.9,37.8-77.2,38.5,0-.4.1-.8.1-1.2,3.5-4,5.3-8.4,5.3-12.9,0-19.6-34.9-35.5-78-35.5s-78,15.9-78,35.5,34.9,35.5,78,35.5c23.9,0,45.3-4.9,59.6-12.7,10-2.7,20.1-3.4,30.5-4.8,22-3.1,54.8-21.6,73.9-49,14.2-20.5,24.5-45.5,26.6-69.8Z"/><ellipse class="56e24d8f-bd4a-413c-855b-f7aa64046041" cx="129.86" cy="67.6" rx="10.6" ry="35.9" transform="translate(-16.5 70.91) rotate(-28.79)"/><ellipse class="56e24d8f-bd4a-413c-855b-f7aa64046041" cx="172.79" cy="44.29" rx="10.6" ry="35.9" transform="translate(0.03 88.7) rotate(-28.79)"/><ellipse class="68a36298-2b9d-400b-8b3e-a894ea0812f7" cx="178.95" cy="38.5" rx="5.7" ry="19.3" transform="translate(3.58 90.95) rotate(-28.79)"/><ellipse class="68a36298-2b9d-400b-8b3e-a894ea0812f7" cx="137.67" cy="65.68" rx="5.7" ry="19.3" transform="translate(-14.62 74.44) rotate(-28.79)"/><path class="45e15736-d757-4ce3-88c0-f3482805d883" d="M142.44,116.7c8.6,1.6,21.2.5,29.3-3,16.1-7,27.1-23.8,36.6-38.6"/><path class="45e15736-d757-4ce3-88c0-f3482805d883" d="M133.94,104.5a21.68,21.68,0,0,1,8.4,11.9,21.31,21.31,0,0,1-1.2,14.5"/><path class="45e15736-d757-4ce3-88c0-f3482805d883" d="M203.64,67.1a12.59,12.59,0,0,0,4.2,8,36.77,36.77,0,0,0,7.7,5.1"/><path class="bd3856ba-a079-448b-98ae-0d14cbb8c5cf" d="M158.74,125.1c2.1,1.7,3.9,3.6,5.9,5.3,7.2,6,17,8.1,26.3,8.1,3.1,0,6.3-.2,9.1-1.6a14,14,0,0,0,4.8-3.9,22.35,22.35,0,0,0,4.7-8.7c3.2-10.6-1.3-22.3,1.6-33Z"/><path class="45e15736-d757-4ce3-88c0-f3482805d883" d="M158.64,125.1c2.1,1.7,3.9,3.6,5.9,5.3,7.2,6,17,8.1,26.3,8.1,3.1,0,6.3-.2,9.1-1.6a14,14,0,0,0,4.8-3.9,22.35,22.35,0,0,0,4.7-8.7c3.2-10.6-1.3-22.3,1.6-33"/><path class="56e24d8f-bd4a-413c-855b-f7aa64046041" d="M157.94,117.8c4.2,2.5,20.8,18.8,38.3,14.6,4.7-1.1,6.1-5.9,7.1-10,1.8-7-.9-36.6-.9-36.6-8,11.7-17.5,23.1-29.9,28.5C168.44,115.9,157.94,117.8,157.94,117.8Z"/></svg>