<svg id="60f710ce-a587-4a22-8e71-960ac63f671c" data-name="Calque 1" xmlns="http://www.w3.org/2000/svg" width="327.22" height="272.77" viewBox="0 0 327.22 272.77"><title>dancing_note</title><path d="M104.45,71.66a19.09,19.09,0,0,0,10.37,3.78c2.31,0,4.19-.75,5.26-2.28,2.47-3.54-.54-9.75-6.83-14.13a20.93,20.93,0,0,0-8.77-3.69c-3.14-.43-5.57.34-6.86,2.19s-1.16,4.39.33,7.19A20.93,20.93,0,0,0,104.45,71.66ZM100,59.2a3.32,3.32,0,0,1,2.82-1,9.08,9.08,0,0,1,1.23.09,18,18,0,0,1,7.49,3.19c5,3.52,7.39,8.21,6.1,10.05s-6.5,1.28-11.54-2.23a18,18,0,0,1-5.59-5.92C99.6,61.58,99.41,60.08,100,59.2Z"/><path d="M92.72,81.31a7.65,7.65,0,0,0,3.22,1.34,4.67,4.67,0,0,0,.64,0,2.91,2.91,0,0,0,2.49-1.16,3.12,3.12,0,0,0,0-3.32,7.66,7.66,0,0,0-2.37-2.55h0c-2.54-1.77-5.21-1.86-6.35-.23S90.19,79.54,92.72,81.31Z"/><path d="M109.34,69.58a7.64,7.64,0,0,0,3.22,1.34,4.67,4.67,0,0,0,.64,0,2.91,2.91,0,0,0,2.49-1.16c1.14-1.64.12-4.11-2.42-5.88h0c-2.54-1.77-5.21-1.86-6.35-.23A3.13,3.13,0,0,0,107,67,7.65,7.65,0,0,0,109.34,69.58Z"/><path d="M256.53,159.57c-5.2-14.94-12.77-28.07-21.33-37-8.83-9.2-17.73-12.86-25.07-10.3s-12,10.95-13.26,23.64c-1.17,12.29,1,27.29,6.24,42.23q.45,1.28.92,2.56A112.67,112.67,0,0,0,189,166.89c-.64-27.11-7.65-58.51-19.3-86.29-10.89-26-23.89-43.88-33.91-46.72a1.49,1.49,0,0,0-.39-.06,147.06,147.06,0,0,0-38.3,4.54,36.72,36.72,0,0,0-3.84-.46c-7-.45-12.14,1.5-14.41,5.48a9,9,0,0,0-.87,2.11,91.14,91.14,0,0,0-10.09,5.8,1.49,1.49,0,0,0-.27.23c-7.67-1.11-13.38.23-15.57,4.07-1.38,2.42-1.18,5.5.33,8.93-24.66,26.73-25,61.79-25,62.14a1.47,1.47,0,0,0,.33.92c.24.29,23.94,29.22,49.79,43.36a1.47,1.47,0,0,0,1.55-.09c.16-.12,16.74-11.71,42.6-12.22,20.29-.41,38.92,6,55.29,15.64a1.45,1.45,0,0,0-.06.49c1.47,23.72-4,42.55-16.35,56-17.11,18.62-43,21.89-53.42,22.42a10.19,10.19,0,0,0,.41-2.85c0-12.6-23.61-22.48-53.75-22.48S0,237.69,0,250.29s23.61,22.48,53.75,22.48c18.85,0,36.4-4.09,46-10.69,29.27,1,51.8-6.6,67-22.68,12.86-13.62,20.22-33,21.9-57.47a206.2,206.2,0,0,1,34.3,31.7,1.45,1.45,0,0,0,.39.32c7.3,8,14.87,12.27,21.5,12.27a14.15,14.15,0,0,0,4.68-.77c7.34-2.55,12-10.95,13.26-23.64C263.95,189.51,261.73,174.51,256.53,159.57ZM77.62,48.93a16.38,16.38,0,0,0,1.54,5.66,65,65,0,0,0-7.49-2.28C73.6,51.12,75.58,50,77.62,48.93ZM54.55,57c1.15-2,4-3,8-3,5.07,0,12,1.63,19.38,4.81a1.47,1.47,0,0,0,1.8-2.16c-3.17-4.74-4-8.94-2.35-11.84s5.92-4.37,11.68-4c6.22.4,13.46,2.79,20.39,6.74,12.65,7.2,21.08,18.12,19.3,24.75a10.49,10.49,0,0,0-9.1,7.13c-6.21-.41-11.14,1-14.65,4.13a17,17,0,0,0-5.06,9.17,18.43,18.43,0,0,0-4.75.7,77.38,77.38,0,0,1-20.67-8.34C60.46,74.84,51.55,62.31,54.55,57ZM185.8,180.58c-2.27,37.26-19.11,81.12-86.43,78.55a1.46,1.46,0,0,0-.91.27c-9,6.44-26.17,10.44-44.71,10.44-27.55,0-50.82-9-50.82-19.55s23.27-19.55,50.82-19.55,50.82,9,50.82,19.55a7.9,7.9,0,0,1-1,3.71,1.47,1.47,0,0,0,1.33,2.15c8.67-.19,38.46-2.46,57.76-23.45C175.29,219,181.06,199.9,179.85,176q3.1,1.92,6.09,4A1.47,1.47,0,0,0,185.8,180.58Zm74.05,20.94c-1.1,11.49-5.11,19-11.31,21.15-6.58,2.29-15.19-1.84-23.62-11.33a1.47,1.47,0,0,0-.35-.29c-41-46.69-78.75-55.91-103.19-55.35-23.83.52-39.65,9.87-43.29,12.24-23.37-13.08-44.86-38.28-47.8-41.8.14-4.33,1.88-34.86,23.47-58.86,4,6.65,12.35,14.16,23.26,20.38a83.47,83.47,0,0,0,18,7.77,11.26,11.26,0,0,0-4.06,5,1.47,1.47,0,0,0,2.77,1c.08-.23,2-5.31,9.74-5.71a17,17,0,0,0,0,2.22,1.47,1.47,0,0,0,2.93-.18c0-.08-.39-7.54,4.59-12,3.54-3.17,9-4.15,16.18-2.92a1.47,1.47,0,0,0,.5-2.89l-1-.16c.8-1.88,3-5,8.78-4.59a1.47,1.47,0,0,0,.31-2.91c1.43-8.08-7.12-19.43-20.86-27.25a60.75,60.75,0,0,0-11.63-5.14,148.37,148.37,0,0,1,31.9-3.13c18.08,5.5,48.71,68.6,50.83,127.93-2.63-1.86-5.28-3.56-7.92-5.11-2.42-14.65-7.11-31-14-48.6a1.47,1.47,0,0,0-1.39-.93c-.41,0-9.75.21-23.1,4.77.23-2.39.67-4.52,1.89-5.05a1.47,1.47,0,1,0-1.17-2.69c-2.92,1.28-3.45,5-3.71,8.39,0,.64-.09,1.29-.13,2-.27,4.28-.55,8.71-3.23,10-2.07,1-7.16-.35-11.64-1.57-5.71-1.55-11.11-3-14.42-1.37a1.47,1.47,0,0,0,1.31,2.62,8.34,8.34,0,0,1,4.55-.24A78.27,78.27,0,0,0,92.6,147.84a1.47,1.47,0,0,0,1.61,2.22,117.41,117.41,0,0,1,39.95-2c20.73,2.43,50.35,11.65,73.73,41.75a1.47,1.47,0,0,0,2.49-1.51c-1.66-3.6-3.17-7.35-4.48-11.13-5.06-14.55-7.22-29.1-6.09-41,1.1-11.49,5.11-19,11.3-21.15s14,1.24,22,9.56c8.27,8.61,15.61,21.36,20.67,35.91S261,189.64,259.85,201.52Zm-85.12-43.8a112.62,112.62,0,0,0-40.36-12.55,124,124,0,0,0-37.2,1.23A76.59,76.59,0,0,1,117,127.73c1.27.31,2.56.66,3.8,1,5.48,1.49,10.65,2.9,13.73,1.36,4.08-2,4.52-7.32,4.82-12.09a86.89,86.89,0,0,1,22.37-5A246.86,246.86,0,0,1,174.74,157.72Z"/><path d="M87.84,83.38a20.93,20.93,0,0,0,8.77,3.69,12.08,12.08,0,0,0,1.63.12,6,6,0,0,0,5.23-2.3c2.47-3.54-.54-9.75-6.83-14.13a20.92,20.92,0,0,0-8.77-3.69c-3.14-.43-5.57.34-6.86,2.19C78.54,72.79,81.54,79,87.84,83.38ZM83.41,70.93a3.32,3.32,0,0,1,2.82-1,9.1,9.1,0,0,1,1.23.09A18,18,0,0,1,95,73.16c5,3.51,7.39,8.21,6.1,10.05-.61.88-2.09,1.23-4.05,1A18,18,0,0,1,89.51,81C84.46,77.46,82.12,72.77,83.41,70.93Z"/><path d="M146.57,83.93a1.47,1.47,0,0,0-2-.57c-1.53.85-4.59-1.06-5.83-2.11a1.47,1.47,0,0,0-1.91,2.23,15.89,15.89,0,0,0,2.07,1.47c-.5.74-1,1.45-1.54,2.14l-.36.46C121.56,107.43,96.16,110.87,90,111.42a18.64,18.64,0,0,0-.23-2.93,1.47,1.47,0,1,0-2.89.51c.24,1.37.52,5.44-1.06,7.7a1.47,1.47,0,1,0,2.4,1.68,10,10,0,0,0,1.54-4c.92-.07,2.41-.22,4.31-.5l.25,0c11.75-2.08,20.08,2.61,26.16,6,3.06,1.72,5.66,3.19,7.9,3.19a4.33,4.33,0,0,0,2.44-.72c3-2,3.42-7.23,3.94-13.88s1.13-14.42,4.63-19.16q1.17-1.5,2.26-3.13a5.56,5.56,0,0,0,4.39-.26A1.47,1.47,0,0,0,146.57,83.93Zm-17.4,36c-1.26.83-3.92-.67-7.29-2.57-.87-.49-1.82-1-2.83-1.56,2.2-1.94,7-5.38,12.52-4.81C131.2,115.14,130.66,118.93,129.18,119.9Z"/><path d="M307.2,116.16c-10.23,0-20.84-9.66-26.88-25-12.7-6.81-21.94-20.6-26.75-39.93a123.29,123.29,0,0,1-3.47-26.35c-24.81.43-46.25,13.76-46.46,13.89a1.24,1.24,0,0,1-1.9-.92c-.83-7.44-.84-18.82-.84-18.93a1.24,1.24,0,0,1,.49-1c.25-.19,25.06-18.79,55.5-17.94a1.24,1.24,0,0,1,1.2,1.37c-.05.54-4.95,52,18.16,73.72-2.23-18.57,4.3-34.17,15.85-37,13.19-3.2,28.12,11.59,33.32,33h0c5.2,21.39-1.3,41.39-14.47,44.59A15.87,15.87,0,0,1,307.2,116.16ZM251.34,22.41a1.24,1.24,0,0,1,1.24,1.26,118.31,118.31,0,0,0,3.42,27c3.27,13.1,10.41,30.42,25.88,38.49a1.25,1.25,0,0,1,.58.65c6.18,16,17.92,25.86,27.9,23.44,11.84-2.88,17.51-21.53,12.64-41.58s-18.47-34-30.31-31.15C281.77,43.22,276,59.32,279.21,78a1.24,1.24,0,0,1-2,1.19C263,68.11,257.93,47.42,256.14,32a164,164,0,0,1-.63-29.54h-.62c-26.41,0-48,14.6-51.5,17.1,0,2.24.1,10,.63,16.11C209.8,32.45,229.41,22.41,251.34,22.41Z"/><path d="M318.06,78.3a1.24,1.24,0,0,0-1.58.78c-1.16,3.41-2.89,5.49-5.12,6.19-3.92,1.22-8.37-2-8.43-2.09a1.24,1.24,0,0,0-1.49,2A15.14,15.14,0,0,0,309.5,88a8.75,8.75,0,0,0,2.59-.38c3-.94,5.32-3.56,6.75-7.77A1.24,1.24,0,0,0,318.06,78.3Z"/><path d="M307.27,79.61c1.64-1.15,2.25-3.37,1.8-6.42,3.33,2.26,6.21,2.8,8.15,1.44s2.42-4.19,1.48-8.06a35.5,35.5,0,0,0-5.47-11.36c-5.05-7.24-12.68-13.36-16.86-10.45-1.64,1.15-2.25,3.37-1.8,6.41-3.32-2.26-6.21-2.8-8.15-1.44-4.18,2.92-1.06,12.18,4,19.43,4.17,6,10.09,11.19,14.38,11.19A4.22,4.22,0,0,0,307.27,79.61ZM292.45,67.74c-5.58-8-6.44-14.68-4.61-16a1.78,1.78,0,0,1,1-.27c1.47,0,3.93,1.1,7,3.86a1.24,1.24,0,0,0,2-1.32c-1.21-3.57-1.24-6.41-.05-7.24,1.83-1.28,7.82,1.84,13.39,9.83a33,33,0,0,1,5.09,10.53c.66,2.73.48,4.76-.49,5.43s-4.08,0-8-3.58a1.24,1.24,0,0,0-2,1.32c1.21,3.57,1.23,6.42.05,7.24C304,78.85,298,75.73,292.45,67.74Z"/><path d="M310.81,67.45a4.63,4.63,0,0,1-2.54-.93,14.16,14.16,0,0,1-3.51-3.61c-2.11-3-3.42-6.93-1.31-8.4s5.33,1.11,7.43,4.13a14.15,14.15,0,0,1,2.18,4.54c.59,2.42-.29,3.45-.87,3.86A2.36,2.36,0,0,1,310.81,67.45Z"/><path d="M300.86,73.26a4.64,4.64,0,0,1-2.54-.93,14.18,14.18,0,0,1-3.51-3.61c-2.11-3-3.42-6.93-1.31-8.4s5.33,1.11,7.43,4.13h0c2.11,3,3.41,6.93,1.31,8.4A2.36,2.36,0,0,1,300.86,73.26Z"/></svg>