<svg id="c9796f60-9cfe-4183-ae29-f65f8063ccdb" data-name="Calque 1" xmlns="http://www.w3.org/2000/svg" width="128.44" height="116.63" viewBox="0 0 128.44 116.63"><defs><style>.\31 61871b7-e45d-419b-a42d-b769ea4937c9{fill:#fff;}.\30 2553a04-d9d6-45ba-a954-8152bf4877d7,.\31 61871b7-e45d-419b-a42d-b769ea4937c9,.ccb76953-75b0-4859-8da3-2e19c92e86ec{stroke:#000;stroke-width:0.44px;}.\30 2553a04-d9d6-45ba-a954-8152bf4877d7,.\31 61871b7-e45d-419b-a42d-b769ea4937c9{stroke-miterlimit:10;}.\30 2553a04-d9d6-45ba-a954-8152bf4877d7,.ccb76953-75b0-4859-8da3-2e19c92e86ec{fill:none;}.ccb76953-75b0-4859-8da3-2e19c92e86ec{stroke-linecap:round;stroke-linejoin:round;}</style></defs><title>dancing-note-2</title><path class="161871b7-e45d-419b-a42d-b769ea4937c9" d="M103.88,76.56c-.24-.78-.44-1.6-.75-2.35-3.17-7.94-5.35-16.12-4.26-24.78A19.14,19.14,0,0,1,100.81,43c1.67-3.37,4.81-4.43,8.28-2.9a14.66,14.66,0,0,1,4.64,3.07C124.77,55,129.61,68.93,127.87,85a11.19,11.19,0,0,1-.92,3.1c-1.94,4.84-5.9,6.37-10.33,3.61a36.06,36.06,0,0,1-7-6.14c-8.08-8.66-16.87-16.4-27.85-21.2-14-6.1-28-6.54-41.82.75A3,3,0,0,1,37.51,65c-8.25-5-15.13-11.66-21.44-18.92a2.92,2.92,0,0,1-.65-1.87c0-32.35,37.94-42.51,53.14-40.43,1.43,0,3.2,1.4,4.23,2.66A40.78,40.78,0,0,1,78,13.91C86,28.46,90.31,44.21,91.84,60.74c.07.78.1,4.81.07,5.22-2.25-1.6-4.23-2.8-4.23-2.8-1.23-8.73-4.06-17.35-6-24-.41-1.4-33.23,13-36.13,17.86C69,52.84,88.47,58.53,103.37,77.17A2.13,2.13,0,0,1,103.88,76.56Z"/><path class="161871b7-e45d-419b-a42d-b769ea4937c9" d="M87.69,67.39c.2,10.7-2,20.86-9.82,28.6s-15.65,12.88-26.31,13.12c0-.14,0-.27,0-.41a6.65,6.65,0,0,0,1.81-4.4c0-6.68-11.9-12.1-26.59-12.1S.22,97.63.22,104.31s11.9,12.1,26.59,12.1c8.15,0,15.44-1.67,20.32-4.33a80.53,80.53,0,0,1,10.4-1.64c7.5-1.06,18.68-7.36,25.19-16.7,4.84-7,8.35-15.51,9.07-23.79Z"/><ellipse cx="42.12" cy="23.14" rx="4.7" ry="16.02" transform="translate(-3.51 38.22) rotate(-47.08)"/><ellipse cx="56.79" cy="10.18" rx="4.19" ry="14.25" transform="translate(10.66 44.83) rotate(-47.08)"/><ellipse class="161871b7-e45d-419b-a42d-b769ea4937c9" cx="58.41" cy="7.29" rx="2.25" ry="7.67" transform="translate(13.3 45.1) rotate(-47.08)"/><ellipse class="161871b7-e45d-419b-a42d-b769ea4937c9" cx="45.15" cy="21.23" rx="2.52" ry="8.62" transform="translate(-1.14 39.83) rotate(-47.08)"/><path class="ccb76953-75b0-4859-8da3-2e19c92e86ec" d="M49.65,36.82a7.26,7.26,0,0,1,3.65,3.34A7.41,7.41,0,0,1,54,45.06"/><path class="ccb76953-75b0-4859-8da3-2e19c92e86ec" d="M72.65,19.06a4.33,4.33,0,0,0,2,2.35,11.34,11.34,0,0,0,2.93,1.12"/><path class="02553a04-d9d6-45ba-a954-8152bf4877d7" d="M52.51,39.07c3.65,1.36,10.77,1.12,16.8-2.8,4.6-3,6.31-9.34,5.62-14.76"/></svg>