<svg id="38eb2983-053a-4587-9af1-18a22ef7a888" data-name="Calque 1" xmlns="http://www.w3.org/2000/svg" width="128.44" height="116.13" viewBox="0 0 128.44 116.13"><defs><style>.\32 16ad8d2-3e04-434e-81cd-fb91a02154f7,.ab2ef384-b18c-471a-9169-d1d9ca0c2ec1,.fdd008be-4395-4e74-86d6-da5400aba44c{fill:#fff;}.\32 13bf312-4511-4237-b3fe-6f1053ea6576,.\32 16ad8d2-3e04-434e-81cd-fb91a02154f7,.\32 cfe4ecc-0e5c-49d8-9a0c-a3d2ce26686e,.\36 1c47ebe-e529-4af4-b488-4f79c11d9976,.\38 2e2c937-bb7e-41c3-989e-8433809cd000,.ab2ef384-b18c-471a-9169-d1d9ca0c2ec1{stroke:#000;}.\32 13bf312-4511-4237-b3fe-6f1053ea6576,.\32 16ad8d2-3e04-434e-81cd-fb91a02154f7,.\36 1c47ebe-e529-4af4-b488-4f79c11d9976,.\38 2e2c937-bb7e-41c3-989e-8433809cd000,.ab2ef384-b18c-471a-9169-d1d9ca0c2ec1{stroke-miterlimit:10;}.\32 13bf312-4511-4237-b3fe-6f1053ea6576,.\32 16ad8d2-3e04-434e-81cd-fb91a02154f7,.\38 2e2c937-bb7e-41c3-989e-8433809cd000{stroke-width:0.44px;}.ab2ef384-b18c-471a-9169-d1d9ca0c2ec1{stroke-width:0.4px;}.\32 13bf312-4511-4237-b3fe-6f1053ea6576,.\32 cfe4ecc-0e5c-49d8-9a0c-a3d2ce26686e,.\36 1c47ebe-e529-4af4-b488-4f79c11d9976,.\38 2e2c937-bb7e-41c3-989e-8433809cd000{fill:none;}.\32 13bf312-4511-4237-b3fe-6f1053ea6576,.\32 cfe4ecc-0e5c-49d8-9a0c-a3d2ce26686e,.\36 1c47ebe-e529-4af4-b488-4f79c11d9976{stroke-linecap:round;}.\32 cfe4ecc-0e5c-49d8-9a0c-a3d2ce26686e{stroke-linejoin:round;stroke-width:0.34px;}.\36 1c47ebe-e529-4af4-b488-4f79c11d9976{stroke-width:0.35px;}</style></defs><title>dancing-note-3</title><path class="216ad8d2-3e04-434e-81cd-fb91a02154f7" d="M103.87,76c-.24-.78-.44-1.6-.75-2.35-3.17-7.94-5.35-16.13-4.26-24.79a19.15,19.15,0,0,1,1.94-6.41c1.67-3.38,4.81-4.43,8.29-2.9a14.67,14.67,0,0,1,4.64,3.07c11,11.8,15.89,25.74,14.15,41.84a11.19,11.19,0,0,1-.92,3.1c-1.94,4.84-5.9,6.38-10.33,3.61a36.07,36.07,0,0,1-7-6.14c-8.08-8.66-16.88-16.4-27.86-21.21-14-6.1-28-6.55-41.84.75a3,3,0,0,1-2.49-.17c-8.25-5-15.14-11.66-21.45-18.92a2.92,2.92,0,0,1-.65-1.88c0-32.36,37.95-42.52,53.16-40.44,1.43,0,3.21,1.4,4.23,2.66A40.79,40.79,0,0,1,78,13.35C86,27.91,90.3,43.67,91.84,60.2c.07.78.1,4.81.07,5.22-2.25-1.6-4.23-2.8-4.23-2.8-1.23-8.73-4.06-17.35-6-24-.41-1.4-33.24,13-36.14,17.87C69,52.29,88.46,58,103.36,76.64,103.5,76.43,103.7,76.23,103.87,76Z"/><path class="216ad8d2-3e04-434e-81cd-fb91a02154f7" d="M87.71,66.89c.2,10.71-2,20.87-9.82,28.61s-15.65,12.89-26.32,13.13c0-.14,0-.27,0-.41a6.66,6.66,0,0,0,1.81-4.4c0-6.68-11.9-12.1-26.59-12.1S.22,97.13.22,103.81s11.9,12.1,26.59,12.1c8.15,0,15.45-1.67,20.32-4.33a80.55,80.55,0,0,1,10.4-1.64c7.5-1.06,18.68-7.36,25.2-16.71,4.84-7,8.35-15.51,9.07-23.8Z"/><path d="M51.57,0c2.66-.48,6.21,6.41,7.91,15.38s1,16.64-1.7,17.12-6.21-6.41-7.91-15.38S48.91.5,51.57,0Z"/><path d="M69.64,1c2.39-.44,5.52,5.73,7,13.81s.82,15-1.57,15.41-5.52-5.73-7-13.81S67.29,1.49,69.64,1Z"/><path class="fdd008be-4395-4e74-86d6-da5400aba44c" d="M75.74,37.8c-3.07,3.72-8,16.78-15,15-8.11-2-7.16-11.18-10.47-15.75,0,0,4.91,3.68,7.91,4.5C64,43.19,75.74,37.8,75.74,37.8Z"/><ellipse class="ab2ef384-b18c-471a-9169-d1d9ca0c2ec1" cx="58.36" cy="14.64" rx="2.63" ry="7.77" transform="translate(-1.77 12.56) rotate(-12.1)"/><ellipse class="ab2ef384-b18c-471a-9169-d1d9ca0c2ec1" cx="75.41" cy="12.69" rx="2.63" ry="7.77" transform="translate(-0.99 16.09) rotate(-12.1)"/><path class="2cfe4ecc-0e5c-49d8-9a0c-a3d2ce26686e" d="M75.74,37.8c-3.07,3.72-8,16.78-15,15-8.11-2-7.16-11.18-10.47-15.75"/><path class="82e2c937-bb7e-41c3-989e-8433809cd000" d="M49.66,32.11a14.39,14.39,0,0,0,22.43,6.24,27.71,27.71,0,0,0,3.82-3.92"/><path class="213bf312-4511-4237-b3fe-6f1053ea6576" d="M50.07,27.85a12,12,0,0,1-2.83,8.93"/><path class="61c47ebe-e529-4af4-b488-4f79c11d9976" d="M74.11,32.69a6.57,6.57,0,0,0,5.32,2.86"/><path class="82e2c937-bb7e-41c3-989e-8433809cd000" d="M53.34,37.53c2.49,3.44,1.77,10.3,7.84,11.83,5.22,1.3,8.93-8.52,11.25-11.29"/><path d="M72.47,38.07c-2.32,2.8-6,12.62-11.25,11.29-6.1-1.53-5.39-8.39-7.84-11.83h0a14.33,14.33,0,0,0,5.93,3.38,14.55,14.55,0,0,0,12.82-2.59Z"/></svg>