<svg id="75c817cf-36ac-46d6-9fe4-f4e9e0c504d7" data-name="Calque 1" xmlns="http://www.w3.org/2000/svg" width="128.44" height="113.39" viewBox="0 0 128.44 113.39"><defs><style>.\31 5c27233-abe2-448a-8ab6-8b9a349e7936,.c7481d4d-577e-41f7-9d91-7303c0c8533c{fill:#fff;}.\36 0a1edd4-3526-4cd5-977b-a3119cc4c595,.\39 10b5da4-33fb-482b-9ddb-8a23fc712d26,.c7481d4d-577e-41f7-9d91-7303c0c8533c{stroke:#000;}.\39 10b5da4-33fb-482b-9ddb-8a23fc712d26,.c7481d4d-577e-41f7-9d91-7303c0c8533c{stroke-miterlimit:10;}.\36 0a1edd4-3526-4cd5-977b-a3119cc4c595,.c7481d4d-577e-41f7-9d91-7303c0c8533c{stroke-width:0.44px;}.\39 10b5da4-33fb-482b-9ddb-8a23fc712d26{stroke-width:0.34px;}.\36 0a1edd4-3526-4cd5-977b-a3119cc4c595{fill:none;stroke-linecap:round;stroke-linejoin:round;}</style></defs><title>dancing-note-1</title><path class="c7481d4d-577e-41f7-9d91-7303c0c8533c" d="M103.87,73.31c-.24-.78-.44-1.6-.75-2.35C99.95,63,97.77,54.83,98.86,46.17a19.15,19.15,0,0,1,1.94-6.41c1.67-3.38,4.81-4.43,8.29-2.9a14.67,14.67,0,0,1,4.64,3.07c11,11.8,15.89,25.74,14.15,41.84a11.19,11.19,0,0,1-.92,3.1c-1.94,4.84-5.9,6.38-10.33,3.61a36.07,36.07,0,0,1-7-6.14c-8.08-8.66-16.88-16.4-27.86-21.21-14-6.1-28-6.55-41.84.75a3,3,0,0,1-2.49-.17c-8.25-5-15.14-11.66-21.45-18.92a2.92,2.92,0,0,1-.65-1.88C15.39,8.56,53.34-1.6,68.55.48c1.43,0,3.2,1.4,4.23,2.66A40.79,40.79,0,0,1,78,10.64C86,25.2,90.3,41,91.84,57.49c.07.78.1,4.81.07,5.22-2.25-1.6-4.23-2.8-4.23-2.8-1.23-8.73-4.06-17.35-6-24-.41-1.4-33.24,13-36.14,17.87C69,49.58,88.46,55.27,103.36,73.92A3.06,3.06,0,0,1,103.87,73.31Z"/><path class="c7481d4d-577e-41f7-9d91-7303c0c8533c" d="M87.71,64.14c.2,10.71-2,20.87-9.82,28.61s-15.65,12.89-26.32,13.13c0-.14,0-.27,0-.41a6.66,6.66,0,0,0,1.81-4.4c0-6.68-11.9-12.1-26.59-12.1S.22,94.38.22,101.06s11.9,12.1,26.59,12.1c8.15,0,15.45-1.67,20.32-4.33a80.55,80.55,0,0,1,10.4-1.64c7.5-1.06,18.68-7.36,25.2-16.71,4.84-7,8.35-15.51,9.07-23.8Z"/><ellipse class="910b5da4-33fb-482b-9ddb-8a23fc712d26" cx="44.28" cy="23.05" rx="3.61" ry="12.24" transform="translate(-5.63 24.18) rotate(-28.79)"/><ellipse class="910b5da4-33fb-482b-9ddb-8a23fc712d26" cx="58.91" cy="15.1" rx="3.61" ry="12.24" transform="translate(0.01 30.24) rotate(-28.79)"/><ellipse class="c7481d4d-577e-41f7-9d91-7303c0c8533c" cx="61.01" cy="13.13" rx="1.94" ry="6.58" transform="translate(1.22 31.01) rotate(-28.79)"/><ellipse class="c7481d4d-577e-41f7-9d91-7303c0c8533c" cx="46.94" cy="22.4" rx="1.94" ry="6.58" transform="translate(-4.98 25.38) rotate(-28.79)"/><path class="60a1edd4-3526-4cd5-977b-a3119cc4c595" d="M48.57,39.79a19.57,19.57,0,0,0,10-1C64,36.38,67.8,30.65,71,25.61"/><path class="60a1edd4-3526-4cd5-977b-a3119cc4c595" d="M45.67,35.63a7.39,7.39,0,0,1,2.86,4.06,7.27,7.27,0,0,1-.41,4.94"/><path class="60a1edd4-3526-4cd5-977b-a3119cc4c595" d="M69.43,22.88a4.29,4.29,0,0,0,1.43,2.73,12.54,12.54,0,0,0,2.63,1.74"/><path class="15c27233-abe2-448a-8ab6-8b9a349e7936" d="M54.13,42.66c.72.58,1.33,1.23,2,1.81a14,14,0,0,0,9,2.76,6.87,6.87,0,0,0,3.1-.55,4.78,4.78,0,0,0,1.64-1.33,7.62,7.62,0,0,0,1.6-3c1.09-3.61-.44-7.6.55-11.25Z"/><path class="60a1edd4-3526-4cd5-977b-a3119cc4c595" d="M54.09,42.66c.72.58,1.33,1.23,2,1.81a14,14,0,0,0,9,2.76,6.87,6.87,0,0,0,3.1-.55,4.78,4.78,0,0,0,1.64-1.33,7.62,7.62,0,0,0,1.6-3c1.09-3.61-.44-7.6.55-11.25"/><path class="910b5da4-33fb-482b-9ddb-8a23fc712d26" d="M53.85,40.17c1.43.85,7.09,6.41,13.06,5,1.6-.38,2.08-2,2.42-3.41.61-2.39-.31-12.48-.31-12.48-2.73,4-6,7.88-10.19,9.72A40.71,40.71,0,0,1,53.85,40.17Z"/></svg>