<svg id="ba27d1cc-d1d1-4eec-88d7-7bdc0806c9de" data-name="Calque 1" xmlns="http://www.w3.org/2000/svg" width="376.8" height="342.15" viewBox="0 0 376.8 342.15"><defs><style>.\37 24b8a4b-6a8a-4c6d-9d2e-c7b16821ceed{fill:#fff;}.\37 24b8a4b-6a8a-4c6d-9d2e-c7b16821ceed,.\37 2e05a1b-f7c2-4312-a034-c3059fa95ca2,.d5ed3ad0-bf19-4dd0-972c-c2eda76a8427{stroke:#000;stroke-width:1.29px;}.\37 24b8a4b-6a8a-4c6d-9d2e-c7b16821ceed,.d5ed3ad0-bf19-4dd0-972c-c2eda76a8427{stroke-miterlimit:10;}.\37 2e05a1b-f7c2-4312-a034-c3059fa95ca2,.d5ed3ad0-bf19-4dd0-972c-c2eda76a8427{fill:none;}.\37 2e05a1b-f7c2-4312-a034-c3059fa95ca2{stroke-linecap:round;stroke-linejoin:round;}</style></defs><title>dancing-note-2</title><path class="724b8a4b-6a8a-4c6d-9d2e-c7b16821ceed" d="M304.74,224.61c-.7-2.3-1.3-4.7-2.2-6.9-9.3-23.3-15.7-47.3-12.5-72.7a56.16,56.16,0,0,1,5.7-18.8c4.9-9.9,14.1-13,24.3-8.5,4.9,2.2,9.9,5.1,13.6,9,32.4,34.6,46.6,75.5,41.5,122.7a32.83,32.83,0,0,1-2.7,9.1c-5.7,14.2-17.3,18.7-30.3,10.6-7.6-4.8-14.3-11.4-20.4-18-23.7-25.4-49.5-48.1-81.7-62.2-41.1-17.9-82.2-19.2-122.7,2.2-1.9,1-5.4.6-7.3-.5-24.2-14.8-44.4-34.2-62.9-55.5a8.56,8.56,0,0,1-1.9-5.5c0-94.9,111.3-124.7,155.9-118.6,4.2,0,9.4,4.1,12.4,7.8,7.4,9.1,9.4,11.7,15.2,22,23.7,42.7,36.2,88.9,40.7,137.4.2,2.3.3,14.1.2,15.3-6.6-4.7-12.4-8.2-12.4-8.2-3.6-25.6-11.9-50.9-17.6-70.3-1.2-4.1-97.5,38.1-106,52.4,68.7-12.4,125.9,4.3,169.6,59A6.26,6.26,0,0,1,304.74,224.61Z"/><path class="724b8a4b-6a8a-4c6d-9d2e-c7b16821ceed" d="M257.24,197.71c.6,31.4-5.8,61.2-28.8,83.9-22.7,22.4-45.9,37.8-77.2,38.5,0-.4.1-.8.1-1.2,3.5-4,5.3-8.4,5.3-12.9,0-19.6-34.9-35.5-78-35.5s-78,15.9-78,35.5,34.9,35.5,78,35.5c23.9,0,45.3-4.9,59.6-12.7,10-2.7,20.1-3.4,30.5-4.8,22-3.1,54.8-21.6,73.9-49,14.2-20.5,24.5-45.5,26.6-69.8Z"/><ellipse cx="123.56" cy="67.89" rx="13.8" ry="47" transform="translate(-10.3 112.14) rotate(-47.08)"/><ellipse cx="166.6" cy="29.86" rx="12.3" ry="41.8" transform="translate(31.28 131.52) rotate(-47.08)"/><ellipse class="724b8a4b-6a8a-4c6d-9d2e-c7b16821ceed" cx="171.37" cy="21.37" rx="6.6" ry="22.5" transform="translate(39.02 132.31) rotate(-47.08)"/><ellipse class="724b8a4b-6a8a-4c6d-9d2e-c7b16821ceed" cx="132.45" cy="62.28" rx="7.4" ry="25.3" transform="translate(-3.35 116.86) rotate(-47.08)"/><path class="72e05a1b-f7c2-4312-a034-c3059fa95ca2" d="M145.64,108a21.3,21.3,0,0,1,10.7,9.8,21.74,21.74,0,0,1,2,14.4"/><path class="72e05a1b-f7c2-4312-a034-c3059fa95ca2" d="M213.14,55.91a12.71,12.71,0,0,0,5.8,6.9,33.26,33.26,0,0,0,8.6,3.3"/><path class="d5ed3ad0-bf19-4dd0-972c-c2eda76a8427" d="M154,114.61c10.7,4,31.6,3.3,49.3-8.2,13.5-8.7,18.5-27.4,16.5-43.3"/></svg>