<svg id="1eda7df1-e6bd-46c8-9dd5-ea240fac984d" data-name="Calque 1" xmlns="http://www.w3.org/2000/svg" width="376.7" height="340.61" viewBox="0 0 376.7 340.61"><defs><style>.\35 d8e62b8-462d-4d02-aa1a-c461c5ddcac5,.\37 f32775f-bf0e-497f-9ac4-aea460efe5a4,.\39 de23e35-e79f-4ff6-93cf-775208bf5db6{fill:#fff;}.\34 64287dd-377d-4394-9d7e-de31e1b88c80,.\35 d8e62b8-462d-4d02-aa1a-c461c5ddcac5,.\38 40208d4-05ae-4892-a16a-58e2c7391534,.\39 de23e35-e79f-4ff6-93cf-775208bf5db6,.cfdd9822-8f87-4c72-bf9d-e97089cf5043,.e22bb9f1-b976-4b6e-8071-75d8c6174161{stroke:#000;}.\34 64287dd-377d-4394-9d7e-de31e1b88c80,.\35 d8e62b8-462d-4d02-aa1a-c461c5ddcac5,.\38 40208d4-05ae-4892-a16a-58e2c7391534,.\39 de23e35-e79f-4ff6-93cf-775208bf5db6,.e22bb9f1-b976-4b6e-8071-75d8c6174161{stroke-miterlimit:10;}.\34 64287dd-377d-4394-9d7e-de31e1b88c80,.\35 d8e62b8-462d-4d02-aa1a-c461c5ddcac5,.e22bb9f1-b976-4b6e-8071-75d8c6174161{stroke-width:1.29px;}.\39 de23e35-e79f-4ff6-93cf-775208bf5db6{stroke-width:1.17px;}.\34 64287dd-377d-4394-9d7e-de31e1b88c80,.\38 40208d4-05ae-4892-a16a-58e2c7391534,.cfdd9822-8f87-4c72-bf9d-e97089cf5043,.e22bb9f1-b976-4b6e-8071-75d8c6174161{fill:none;}.\34 64287dd-377d-4394-9d7e-de31e1b88c80,.\38 40208d4-05ae-4892-a16a-58e2c7391534,.cfdd9822-8f87-4c72-bf9d-e97089cf5043{stroke-linecap:round;}.cfdd9822-8f87-4c72-bf9d-e97089cf5043{stroke-linejoin:round;}.\38 40208d4-05ae-4892-a16a-58e2c7391534{stroke-width:1.04px;}</style></defs><title>dancing-note-3</title><path class="5d8e62b8-462d-4d02-aa1a-c461c5ddcac5" d="M304.64,223c-.7-2.3-1.3-4.7-2.2-6.9-9.3-23.3-15.7-47.3-12.5-72.7a56.16,56.16,0,0,1,5.7-18.8c4.9-9.9,14.1-13,24.3-8.5,4.9,2.2,9.9,5.1,13.6,9,32.4,34.6,46.6,75.5,41.5,122.7a32.83,32.83,0,0,1-2.7,9.1c-5.7,14.2-17.3,18.7-30.3,10.6-7.6-4.8-14.3-11.4-20.4-18-23.7-25.4-49.5-48.1-81.7-62.2-41.1-17.9-82.2-19.2-122.7,2.2-1.9,1-5.4.6-7.3-.5-24.2-14.8-44.4-34.2-62.9-55.5a8.56,8.56,0,0,1-1.9-5.5c0-94.9,111.3-124.7,155.9-118.6,4.2,0,9.4,4.1,12.4,7.8,7.4,9.1,9.4,11.7,15.2,22,23.7,42.7,36.2,88.9,40.7,137.4.2,2.3.3,14.1.2,15.3-6.6-4.7-12.4-8.2-12.4-8.2-3.6-25.6-11.9-50.9-17.6-70.3-1.2-4.1-97.5,38.1-106,52.4,68.7-12.4,125.9,4.3,169.6,59C303.54,224.17,304.14,223.57,304.64,223Z"/><path class="5d8e62b8-462d-4d02-aa1a-c461c5ddcac5" d="M257.24,196.17c.6,31.4-5.8,61.2-28.8,83.9-22.7,22.4-45.9,37.8-77.2,38.5,0-.4.1-.8.1-1.2,3.5-4,5.3-8.4,5.3-12.9,0-19.6-34.9-35.5-78-35.5s-78,15.9-78,35.5,34.9,35.5,78,35.5c23.9,0,45.3-4.9,59.6-12.7,10-2.7,20.1-3.4,30.5-4.8,22-3.1,54.8-21.6,73.9-49,14.2-20.5,24.5-45.5,26.6-69.8Z"/><path d="M151.24.07c7.8-1.4,18.2,18.8,23.2,45.1s2.8,48.8-5,50.2-18.2-18.8-23.2-45.1S143.44,1.47,151.24.07Z"/><path d="M204.24,3.07c7-1.3,16.2,16.8,20.6,40.5s2.4,43.9-4.6,45.2S204,72,199.64,48.27,197.34,4.37,204.24,3.07Z"/><path class="7f32775f-bf0e-497f-9ac4-aea460efe5a4" d="M222.14,110.87c-9,10.9-23.5,49.2-43.9,44.1-23.8-6-21-32.8-30.7-46.2,0,0,14.4,10.8,23.2,13.2C187.74,126.67,222.14,110.87,222.14,110.87Z"/><ellipse class="9de23e35-e79f-4ff6-93cf-775208bf5db6" cx="171.16" cy="42.92" rx="7.7" ry="22.8" transform="translate(-5.2 36.83) rotate(-12.1)"/><ellipse class="9de23e35-e79f-4ff6-93cf-775208bf5db6" cx="221.16" cy="37.23" rx="7.7" ry="22.8" transform="translate(-2.89 47.18) rotate(-12.1)"/><path class="cfdd9822-8f87-4c72-bf9d-e97089cf5043" d="M222.14,110.87c-9,10.9-23.5,49.2-43.9,44.1-23.8-6-21-32.8-30.7-46.2"/><path class="e22bb9f1-b976-4b6e-8071-75d8c6174161" d="M145.64,94.17a42.21,42.21,0,0,0,65.8,18.3c4.2-3.3,7.7-7.4,11.2-11.5"/><path class="464287dd-377d-4394-9d7e-de31e1b88c80" d="M146.84,81.67a35.27,35.27,0,0,1-8.3,26.2"/><path class="840208d4-05ae-4892-a16a-58e2c7391534" d="M217.34,95.87c3,4.9,9.2,8.2,15.6,8.4"/><path class="e22bb9f1-b976-4b6e-8071-75d8c6174161" d="M156.44,110.07c7.3,10.1,5.2,30.2,23,34.7,15.3,3.8,26.2-25,33-33.1"/><path d="M212.54,111.67c-6.8,8.2-17.7,37-33,33.1-17.9-4.5-15.8-24.6-23-34.7h0a42,42,0,0,0,17.4,9.9,42.68,42.68,0,0,0,37.6-7.6Z"/></svg>