<svg id="5a6f0ea5-fbd7-464e-a369-01453364bfad" data-name="Calque 1" xmlns="http://www.w3.org/2000/svg" width="182.63" height="25.34" viewBox="0 0 182.63 25.34"><defs><style>.\38 eb16bb9-d6df-4421-91a2-5198aad2ad61{fill:#9428f0;}</style></defs><title>mono-mix-logo</title><path class="8eb16bb9-d6df-4421-91a2-5198aad2ad61" d="M15.82,17.78l1.92-12.5C18.31,1.68,20.16,0,23.31,0s5,1.5,5.57,5.32l2.7,19.6H25.34L23.21,7.18h-.1L21.07,20c-.6,3.64-2.56,5.22-5.29,5.22S11.06,23.59,10.5,20l-2-12.78h-.1L6.23,24.92H0L2.7,5.32C3.22,1.5,5.25,0,8.26,0s5,1.68,5.57,5.29l1.93,12.5Z"/><path class="8eb16bb9-d6df-4421-91a2-5198aad2ad61" d="M46.13,25.34A12.53,12.53,0,0,1,33.67,12.67a12.46,12.46,0,1,1,24.92,0A12.53,12.53,0,0,1,46.13,25.34Zm0-19.11a6.35,6.35,0,0,0-6.3,6.44,6.3,6.3,0,1,0,12.6,0A6.35,6.35,0,0,0,46.13,6.23Z"/><path class="8eb16bb9-d6df-4421-91a2-5198aad2ad61" d="M61.21,24.92V3.47A3.33,3.33,0,0,1,64.82.17,4.16,4.16,0,0,1,69,2.69l5.43,10.68h.07V.42h6.09V22.05a2.77,2.77,0,0,1-3,3.12c-1.79,0-2.91-.67-4-2.84l-6.2-11.76h-.07V24.92Z"/><path class="8eb16bb9-d6df-4421-91a2-5198aad2ad61" d="M95.69,25.34A12.53,12.53,0,0,1,83.23,12.67a12.46,12.46,0,1,1,24.92,0A12.53,12.53,0,0,1,95.69,25.34Zm0-19.11a6.35,6.35,0,0,0-6.3,6.44,6.3,6.3,0,1,0,12.6,0A6.35,6.35,0,0,0,95.69,6.23Z"/><path class="8eb16bb9-d6df-4421-91a2-5198aad2ad61" d="M134.82,17.78l1.92-12.5c.56-3.61,2.42-5.29,5.57-5.29s5,1.5,5.57,5.32l2.7,19.6h-6.23L142.21,7.18h-.1l-2,12.78c-.6,3.64-2.56,5.22-5.29,5.22s-4.73-1.58-5.29-5.22l-2-12.78h-.1l-2.14,17.75H119l2.7-19.6C122.22,1.5,124.25,0,127.26,0s5,1.68,5.57,5.29l1.93,12.5Z"/><path class="8eb16bb9-d6df-4421-91a2-5198aad2ad61" d="M159.28,24.92h-6.09V.42h6.09Z"/><path class="8eb16bb9-d6df-4421-91a2-5198aad2ad61" d="M172.2,18.13l-3.64,6.79h-7l7.07-12.39L162,.42h6.86l3.29,6.2,3.36-6.2h7l-6.76,11.9,6.9,12.6h-7Z"/></svg>