<?xml version="1.0" encoding="utf-8"?>
<!-- Generator: Adobe Illustrator 21.1.0, SVG Export Plug-In . SVG Version: 6.00 Build 0)  -->
<svg version="1.1" xmlns="http://www.w3.org/2000/svg" xmlns:xlink="http://www.w3.org/1999/xlink" x="0px" y="0px"
	 viewBox="0 0 1440 800" style="enable-background:new 0 0 1440 800;" xml:space="preserve">
<style type="text/css">
	.st0{display:none;}
	.st1{fill:#FFFFFF;stroke:#000000;stroke-width:1.2893;stroke-miterlimit:10;}
	.st2{stroke:#000000;stroke-miterlimit:10;}
	.st3{fill:none;stroke:#000000;stroke-width:1.2893;stroke-linecap:round;stroke-linejoin:round;stroke-miterlimit:10;}
	.st4{fill:#FFFFFF;}
	.st5{fill:none;stroke:#000000;stroke-width:1.2893;stroke-miterlimit:10;}
	.st6{fill:#FFFFFF;stroke:#000000;stroke-width:1.1731;stroke-miterlimit:10;}
	.st7{fill:none;stroke:#000000;stroke-linecap:round;stroke-linejoin:round;stroke-miterlimit:10;}
	.st8{fill:none;stroke:#000000;stroke-width:1.2893;stroke-linecap:round;stroke-miterlimit:10;}
	.st9{fill:none;stroke:#000000;stroke-width:1.0397;stroke-linecap:round;stroke-miterlimit:10;}
	.st10{fill:#FFFFFF;stroke:#000000;stroke-miterlimit:10;}
	.st11{fill:#FFFFFF;stroke:#000000;stroke-linecap:round;stroke-linejoin:round;stroke-miterlimit:10;}
	.st12{fill:none;stroke:#000000;stroke-miterlimit:10;}
	.st13{fill:none;stroke:#000000;stroke-linecap:round;stroke-miterlimit:10;}
</style>
<g id="Calque_1" class="st0">
	<g id="zd48iN_1_">
		
			<image style="display:inline;overflow:visible;enable-background:new    ;" width="221" height="242" id="zd48iN" xlink:href="30A02C3862C5460B.jpg"  transform="matrix(2.5197 0 0 2.4601 416.9673 86.9597)">
		</image>
	</g>
	
		<image style="display:inline;overflow:visible;" width="180" height="256" xlink:href="../../../Downloads/28236670_10212262807784177_1370102965_n.png"  transform="matrix(3.598 0 0 3.598 -406.7251 -34.1156)">
	</image>
</g>
<g id="Calque_2">
	<path class="st1" d="M430.1,423.7c-0.7-2.3-1.3-4.7-2.2-6.9c-9.3-23.3-15.7-47.3-12.5-72.7c0.8-6.5,2.7-13,5.7-18.8
		c4.9-9.9,14.1-13,24.3-8.5c4.9,2.2,9.9,5.1,13.6,9c32.4,34.6,46.6,75.5,41.5,122.7c-0.3,3.1-1.5,6.2-2.7,9.1
		c-5.7,14.2-17.3,18.7-30.3,10.6c-7.6-4.8-14.3-11.4-20.4-18c-23.7-25.4-49.5-48.1-81.7-62.2c-41.1-17.9-82.2-19.2-122.7,2.2
		c-1.9,1-5.4,0.6-7.3-0.5c-24.2-14.8-44.4-34.2-62.9-55.5c-1.2-1.4-2-3.7-1.9-5.5c0-94.9,111.3-124.7,155.9-118.6
		c4.2,0,9.4,4.1,12.4,7.8c7.4,9.1,9.4,11.7,15.2,22c23.7,42.7,36.2,88.9,40.7,137.4c0.2,2.3,0.3,14.1,0.2,15.3
		c-6.6-4.7-12.4-8.2-12.4-8.2c-3.6-25.6-11.9-50.9-17.6-70.3c-1.2-4.1-97.5,38.1-106,52.4c68.7-12.4,125.9,4.3,169.6,59
		C429,424.8,429.6,424.2,430.1,423.7z"/>
	<path class="st1" d="M382.7,396.8c0.6,31.4-5.8,61.2-28.8,83.9c-22.7,22.4-45.9,37.8-77.2,38.5c0-0.4,0.1-0.8,0.1-1.2
		c3.5-4,5.3-8.4,5.3-12.9c0-19.6-34.9-35.5-78-35.5s-78,15.9-78,35.5c0,19.6,34.9,35.5,78,35.5c23.9,0,45.3-4.9,59.6-12.7
		c10-2.7,20.1-3.4,30.5-4.8c22-3.1,54.8-21.6,73.9-49c14.2-20.5,24.5-45.5,26.6-69.8L382.7,396.8z"/>
	
		<ellipse transform="matrix(0.8764 -0.4817 0.4817 0.8764 -101.522 157.1189)" class="st2" cx="255.3" cy="276.3" rx="10.6" ry="35.9"/>
	
		<ellipse transform="matrix(0.8764 -0.4817 0.4817 0.8764 -84.9702 174.9034)" class="st2" cx="298.2" cy="253" rx="10.6" ry="35.9"/>
	
		<ellipse transform="matrix(0.8764 -0.4817 0.4817 0.8764 -81.4488 177.1762)" class="st1" cx="304.4" cy="247.2" rx="5.7" ry="19.3"/>
	
		<ellipse transform="matrix(0.8764 -0.4817 0.4817 0.8764 -99.63 160.6312)" class="st1" cx="263.1" cy="274.4" rx="5.7" ry="19.3"/>
	<path class="st3" d="M267.9,325.4c8.6,1.6,21.2,0.5,29.3-3c16.1-7,27.1-23.8,36.6-38.6"/>
	<path class="st3" d="M259.4,313.2c4,2.8,7.1,7.1,8.4,11.9c1.3,4.8,0.9,10-1.2,14.5"/>
	<path class="st3" d="M329.1,275.8c0.2,3.1,2,5.9,4.2,8c2.2,2.1,5,3.6,7.7,5.1"/>
	<path class="st4" d="M284.2,333.8c2.1,1.7,3.9,3.6,5.9,5.3c7.2,6,17,8.1,26.3,8.1c3.1,0,6.3-0.2,9.1-1.6c1.9-0.9,3.5-2.3,4.8-3.9
		c2.2-2.5,3.8-5.5,4.7-8.7c3.2-10.6-1.3-22.3,1.6-33L284.2,333.8z"/>
	<path class="st3" d="M284.1,333.8c2.1,1.7,3.9,3.6,5.9,5.3c7.2,6,17,8.1,26.3,8.1c3.1,0,6.3-0.2,9.1-1.6c1.9-0.9,3.5-2.3,4.8-3.9
		c2.2-2.5,3.8-5.5,4.7-8.7c3.2-10.6-1.3-22.3,1.6-33"/>
	<g>
		<path class="st1" d="M852.1,443.7c-0.7-2.3-1.3-4.7-2.2-6.9c-9.3-23.3-15.7-47.3-12.5-72.7c0.8-6.5,2.7-13,5.7-18.8
			c4.9-9.9,14.1-13,24.3-8.5c4.9,2.2,9.9,5.1,13.6,9c32.4,34.6,46.6,75.5,41.5,122.7c-0.3,3.1-1.5,6.2-2.7,9.1
			c-5.7,14.2-17.3,18.7-30.3,10.6c-7.6-4.8-14.3-11.4-20.4-18c-23.7-25.4-49.5-48.1-81.7-62.2c-41.1-17.9-82.2-19.2-122.7,2.2
			c-1.9,1-5.4,0.6-7.3-0.5c-24.2-14.8-44.4-34.2-62.9-55.5c-1.2-1.4-2-3.7-1.9-5.5c0-94.9,111.3-124.7,155.9-118.6
			c4.2,0,9.4,4.1,12.4,7.8c7.4,9.1,9.4,11.7,15.2,22c23.7,42.7,36.2,88.9,40.7,137.4c0.2,2.3,0.3,14.1,0.2,15.3
			c-6.6-4.7-12.4-8.2-12.4-8.2c-3.6-25.6-11.9-50.9-17.6-70.3c-1.2-4.1-97.5,38.1-106,52.4c68.7-12.4,125.9,4.3,169.6,59
			C850.9,444.8,851.5,444.3,852.1,443.7z"/>
		<path class="st1" d="M804.6,416.8c0.6,31.4-5.8,61.2-28.8,83.9c-22.7,22.4-45.9,37.8-77.2,38.5c0-0.4,0.1-0.8,0.1-1.2
			c3.5-4,5.3-8.4,5.3-12.9c0-19.6-34.9-35.5-78-35.5s-78,15.9-78,35.5c0,19.6,34.9,35.5,78,35.5c23.9,0,45.3-4.9,59.6-12.7
			c10-2.7,20.1-3.4,30.5-4.8c22-3.1,54.8-21.6,73.9-49c14.2-20.5,24.5-45.5,26.6-69.8L804.6,416.8z"/>
	</g>
	<g>
		<path class="st1" d="M1235.1,422.2c-0.7-2.3-1.3-4.7-2.2-6.9c-9.3-23.3-15.7-47.3-12.5-72.7c0.8-6.5,2.7-13,5.7-18.8
			c4.9-9.9,14.1-13,24.3-8.5c4.9,2.2,9.9,5.1,13.6,9c32.4,34.6,46.6,75.5,41.5,122.7c-0.3,3.1-1.5,6.2-2.7,9.1
			c-5.7,14.2-17.3,18.7-30.3,10.6c-7.6-4.8-14.3-11.4-20.4-18c-23.7-25.4-49.5-48.1-81.7-62.2c-41.1-17.9-82.2-19.2-122.7,2.2
			c-1.9,1-5.4,0.6-7.3-0.5c-24.2-14.8-44.4-34.2-62.9-55.5c-1.2-1.4-2-3.7-1.9-5.5c0-94.9,111.3-124.7,155.9-118.6
			c4.2,0,9.4,4.1,12.4,7.8c7.4,9.1,9.4,11.7,15.2,22c23.7,42.7,36.2,88.9,40.7,137.4c0.2,2.3,0.3,14.1,0.2,15.3
			c-6.6-4.7-12.4-8.2-12.4-8.2c-3.6-25.6-11.9-50.9-17.6-70.3c-1.2-4.1-97.5,38.1-106,52.4c68.7-12.4,125.9,4.3,169.6,59
			C1234,423.4,1234.6,422.8,1235.1,422.2z"/>
		<path class="st1" d="M1187.7,395.4c0.6,31.4-5.8,61.2-28.8,83.9c-22.7,22.4-45.9,37.8-77.2,38.5c0-0.4,0.1-0.8,0.1-1.2
			c3.5-4,5.3-8.4,5.3-12.9c0-19.6-34.9-35.5-78-35.5c-43.1,0-78,15.9-78,35.5c0,19.6,34.9,35.5,78,35.5c23.9,0,45.3-4.9,59.6-12.7
			c10-2.7,20.1-3.4,30.5-4.8c22-3.1,54.8-21.6,73.9-49c14.2-20.5,24.5-45.5,26.6-69.8L1187.7,395.4z"/>
	</g>
	<ellipse transform="matrix(0.681 -0.7323 0.7323 0.681 3.8612 582.8372)" cx="670.9" cy="287" rx="13.8" ry="47"/>
	<ellipse transform="matrix(0.681 -0.7323 0.7323 0.681 45.3749 602.2523)" cx="714" cy="249" rx="12.3" ry="41.8"/>
	<path d="M1081.7,199.3c7.8-1.4,18.2,18.8,23.2,45.1s2.8,48.8-5,50.2c-7.8,1.4-18.2-18.8-23.2-45.1
		C1071.6,223.2,1073.9,200.7,1081.7,199.3z"/>
	<path d="M1134.7,202.3c7-1.3,16.2,16.8,20.6,40.5c4.4,23.7,2.4,43.9-4.6,45.2c-7,1.3-16.2-16.8-20.6-40.5
		S1127.8,203.6,1134.7,202.3z"/>
	<ellipse transform="matrix(0.681 -0.7323 0.7323 0.681 53.1705 602.9912)" class="st1" cx="718.7" cy="240.5" rx="6.6" ry="22.5"/>
	<ellipse transform="matrix(0.681 -0.7323 0.7323 0.681 10.7902 587.5577)" class="st1" cx="679.8" cy="281.4" rx="7.4" ry="25.3"/>
	<path class="st3" d="M693,327.1c4.6,1.9,8.4,5.4,10.7,9.8c2.3,4.4,3,9.5,2,14.4"/>
	<path class="st3" d="M760.5,275c0.9,3,3.2,5.3,5.8,6.9c2.7,1.6,5.6,2.5,8.6,3.3"/>
	<path class="st5" d="M701.4,333.7c10.7,4,31.6,3.3,49.3-8.2c13.5-8.7,18.5-27.4,16.5-43.3"/>
	<g>
		<path class="st4" d="M1152.6,310.1c-9,10.9-23.5,49.2-43.9,44.1c-23.8-6-21-32.8-30.7-46.2c0,0,14.4,10.8,23.2,13.2
			C1118.2,325.9,1152.6,310.1,1152.6,310.1z"/>
	</g>
	
		<ellipse transform="matrix(0.9778 -0.2096 0.2096 0.9778 -26.2772 236.3255)" class="st6" cx="1101.6" cy="242.1" rx="7.7" ry="22.8"/>
	
		<ellipse transform="matrix(0.9778 -0.2096 0.2096 0.9778 -23.9651 246.6827)" class="st6" cx="1151.6" cy="236.4" rx="7.7" ry="22.8"/>
	<path class="st2" d="M283.4,326.5c4.2,2.5,20.8,18.8,38.3,14.6c4.7-1.1,6.1-5.9,7.1-10c1.8-7-0.9-36.6-0.9-36.6
		c-8,11.7-17.5,23.1-29.9,28.5C293.9,324.6,283.4,326.5,283.4,326.5z"/>
	<g>
		<path class="st7" d="M1152.6,310.1c-9,10.9-23.5,49.2-43.9,44.1c-23.8-6-21-32.8-30.7-46.2"/>
	</g>
	<g>
		<path class="st5" d="M1076.1,293.4c4.6,12.4,15.5,22.4,28.2,25.9c12.8,3.6,27.2,0.7,37.6-7.6c4.2-3.3,7.7-7.4,11.2-11.5"/>
		<path class="st8" d="M1077.3,280.9c0.9,9.4-2.1,19-8.3,26.2"/>
		<path class="st9" d="M1147.8,295.1c3,4.9,9.2,8.2,15.6,8.4"/>
		<path class="st5" d="M1086.9,309.3c7.3,10.1,5.2,30.2,23,34.7c15.3,3.8,26.2-25,33-33.1"/>
		<path d="M1143,310.9c-6.8,8.2-17.7,37-33,33.1c-17.9-4.5-15.8-24.6-23-34.7l0,0c4.9,4.6,10.9,8.1,17.4,9.9
			c12.8,3.6,27.2,0.7,37.6-7.6L1143,310.9z"/>
	</g>
</g>
</svg>
